<?xml version="1.0" encoding="UTF-8"?>
<svg id="Ebene_2" data-name="Ebene 2" xmlns="http://www.w3.org/2000/svg" viewBox="0 0 109.63 125.66">
  <defs>
    <style>
      .cls-1 {
        fill: #cef2c7;
      }
    </style>
  </defs>
  <path class="cls-1" d="M73.98,76.21c-.96-1.5-1.6-3.35-2.19-5.24-.88-2.8-1.57-5.64-2.11-8.51-.37-1.95-.39-3.96-.21-5.95,.12-1.33,.12-2.7,.47-3.97,.47-1.71,1.22-3.35,1.84-5.02,.55-1.51,1.08-3.04,1.64-4.55,.07-.19,.27-.41,.46-.48,.66-.23,1.19-.05,1.81,.36,2.05,1.35,3.84,3,5.68,4.61,1.7,1.48,3.4,2.96,5,4.55,.89,.88,1.57,1.97,2.35,2.95,.27,.34,.51,.72,.84,.98,1.14,.92,1.81,2.14,2.38,3.44,.2,.45,.37,.91,.62,1.33,1.08,1.85,1.36,3.92,1.67,5.98,.38,2.54,.46,5.1,.15,7.65-.1,.83-.27,1.68-.62,2.43-.85,1.81-2.14,3.26-3.94,4.2-1.71,.9-3.42,1.76-5.41,1.75-1.47,0-2.86-.39-4.22-.93-2.67-1.07-4.67-2.9-6.19-5.58h-.02Zm9.47,4.72c.04-.07,.08-.13,.13-.2-.2-.23-.37-.5-.61-.69-1.75-1.43-2.74-3.25-3.21-5.47-.63-2.98-.91-5.94-.45-8.95,.06-.41,.25-.71,.67-.82,1.11-.3,2.63,.82,2.6,1.97-.07,2.29,.24,4.5,1.15,6.6,.27,.64,.64,1.24,.92,1.87,.63,1.46,1.54,2.65,3.02,3.36,.65,.31,.78,.34,1.22-.23,.99-1.28,1.74-2.68,2.1-4.27,.71-3.12,.62-6.24-.1-9.34-.67-2.91-1.75-5.67-3.58-8.08-1.32-1.74-2.64-3.46-4.4-4.82-1.22-.93-2.31-2.03-3.47-3.04-1.5-1.31-3.02-2.6-4.54-3.89-.36-.31-.58-.14-.58,.26-.01,.52,.05,1.04,.09,1.57,.03,.42,.16,.73,.7,.62,.18-.04,.42,.05,.58,.16,.63,.4,1.23,.85,1.86,1.25,2.16,1.36,3.46,3.29,3.86,5.81,.15,.93,.33,1.85,.48,2.77,.08,.48,.26,.81,.74,1.03,.83,.38,1.67,.87,1.86,1.84,.24,1.26,.92,2.24,1.61,3.25,.21,.3,.38,.66,.46,1.01,.27,1.17,.24,2.33-.06,3.51-.31,1.21-.33,2.48,.16,3.65,.31,.73,.82,1.37,1.31,2.16-.31,0-.68,.13-.88,0-.57-.38-1.13-.78-1.4-1.49-.59-1.53-.63-3.11-.64-4.71,0-1.05-.08-2.1-.23-3.14-.07-.45-.37-.88-.62-1.29-.36-.61-.92-1.14-1.12-1.79-.31-1.01-.72-1.8-1.72-2.28-.92-.44-1.4-1.22-1.5-2.29-.1-1.1-.25-2.22-.6-3.26-.78-2.38-2.67-3.93-4.47-5.53-.03-.03-.11,0-.3-.04,.01,.49,0,.97,.04,1.43,.12,1.52,.26,3.03,.4,4.55,.01,.15,.08,.29,.13,.43,.4,1.13,.81,2.26,1.2,3.4,.22,.64,.17,.73-.52,.86-.39,.07-.55,.28-.42,.63,.31,.85,.63,1.69,.98,2.51,.23,.55,.55,1.07,.77,1.62,.07,.19,.03,.58-.1,.65-.31,.19-.48-.08-.64-.35-.31-.51-.63-1.02-.97-1.51-.69-.99-1.39-1.96-1.57-3.21-.11-.74-.27-1.49-.49-2.2-.16-.54-.46-1.04-.7-1.55-.07,0-.15,.02-.22,.03-.05,.31-.13,.63-.14,.94-.01,.36,.1,.72,.05,1.07-.15,1.03-.24,2.05,0,3.07,.05,.22,.05,.45,.05,.67,.07,2.34,.38,4.63,1.29,6.83,.6,1.44,1.19,2.9,1.61,4.39,.34,1.23,.83,2.37,1.44,3.48,.92,1.66,2.03,3.16,3.67,4.2,.95,.6,2.03,.7,3.07,.96l.03,.03Z"/>
  <path class="cls-1" d="M23.58,99.02c-.08-.51-.12-1.01-.26-1.49-.08-.3-.24-.65-.48-.82-1.35-.94-2.74-1.83-4.12-2.73-2.59-1.7-5.2-3.38-7.77-5.11-2.27-1.52-4.07-3.54-5.75-5.66-1.24-1.56-2.44-3.14-3.6-4.75-1.04-1.44-1.69-3.01-1.59-4.86,.11-2.11,.31-4.19,1.07-6.17,.32-.83,.67-1.67,1.18-2.39,1.65-2.32,3.64-4.33,6.38-5.29,2.18-.76,4.46-.76,6.73-.24,3.9,.9,6.47,3.23,8.22,6.82,1.54,3.16,2.09,6.42,1.98,9.86-.16,4.84-.37,9.68-.46,14.53-.03,1.72-.36,3.45,.1,5.19,.26,.98-.76,2.78-1.64,3.1h0Zm-2.51-6.55c.9,.28,.99-.19,1.01-.74,.06-1.5,.11-2.99,.2-4.48,.16-2.76,.35-5.52,.49-8.29,.07-1.47,.08-2.95,.07-4.42-.02-2.44-.11-4.89-1.02-7.19-.48-1.21-1.19-2.34-1.84-3.48-1.04-1.83-3.35-2.5-5.2-1.52-.61,.32-1.21,.69-1.73,1.13-2.04,1.76-3.69,3.73-3.31,6.7,.22,1.74,.41,3.49,.67,5.23,.18,1.15,.44,2.28,1.19,3.23,.18,.23,.17,.6,.24,.9-.42,.09-.95,.39-1.23,.24-.87-.49-1.86-.99-2.39-1.77-1.05-1.54-1.96-3.25-1.92-5.2,.03-2,.22-4,.35-6.16-.05,.15-.07,.22-.1,.28-.07,.14-.16,.27-.21,.42-.67,1.82-.94,3.72-.44,5.59,.6,2.26,1.27,4.52,2.19,6.66,1.01,2.35,2.31,4.58,3.52,6.84,.29,.54,.6,1.18,1.08,1.49,1.88,1.24,3.84,2.36,5.76,3.53,.51,.31,1.01,.65,1.52,.97,.61,.38,1.23,.75,1.84,1.12,.06-.07,.11-.14,.17-.2-.25-.24-.49-.49-.89-.89h-.02Zm-15.94-14.39c-.52,.74-.53,1.38-.01,2.02,.64,.8,1.24,1.62,1.87,2.43,.06,.07,.16,.11,.27,.19-.72-1.56-1.41-3.07-2.13-4.64Z"/>
  <path class="cls-1" d="M63.83,112.38c.09,3.15-1.08,5.95-2.44,8.66-.47,.94-1.27,1.75-2,2.54-1.63,1.75-3.87,1.78-6.02,2.03-2.7,.32-4.96-.71-6.89-2.46-.99-.91-1.58-2.13-1.61-3.56,0-.65-.21-1.31-.2-1.96,0-.78,.12-1.57,.24-2.35,.29-1.96,.88-3.84,1.78-5.61,.77-1.5,1.39-3.12,2.39-4.45,2.47-3.27,5.09-6.44,8.65-8.65,.27-.16,.49-.41,.7-.65,.23-.27,.45-.31,.73-.11,.64,.46,1.08,1.03,1.31,1.83,.34,1.2,.84,2.36,1.27,3.53,.04,.11,.11,.2,.14,.31,.69,2.76,1.66,5.47,1.74,8.36,.02,.84,.14,1.68,.22,2.52v.02Zm-4.4-1.15c0-.22,0-.44,0-.65-.06-.77-.03-1.55-.2-2.29-.38-1.6-.49-3.2-.08-4.79,.41-1.58,.52-3.11-.34-4.59-.18-.31-.31-.4-.59-.15-.87,.8-1.79,1.55-2.59,2.42-.85,.92-1.58,1.96-2.37,2.93-1.33,1.63-2.59,3.3-3.57,5.19-1.2,2.3-1.89,4.78-2.64,7.24-.43,1.43-.36,2.91,0,4.36,.2,.84,.66,1.57,1.44,2.01,1.08,.61,2.21,1.05,3.48,.94,.82-.07,1.65-.12,2.47-.25,.35-.06,.71-.25,.99-.48,1.21-.98,1.69-2.36,1.77-3.82,.1-1.84,.52-3.56,1.28-5.22,.16-.36,.3-.73,.51-1.07,.44-.71,1.17-.75,1.58-.05,.3,.52,.4,1.15,.57,1.73,.06,.2,.05,.42,.08,.63,.32-.72,.7-1.45,.69-2.18,0-1.78-.19-3.55-.3-5.33h-.16c-.25,.82-.51,1.64-.76,2.46-.19,.63-.5,.88-1.23,.93l-.02,.03Z"/>
  <path class="cls-1" d="M33.91,42.54c-1.84-.89-3.22-2.3-4.35-3.89-1.13-1.6-2.17-3.3-3-5.08-1.19-2.56-1.22-5.25-.3-7.94,1-2.92,2.45-5.6,4.23-8.11,.48-.68,1.09-1.29,1.7-1.87,3-2.86,6.17-5.52,9.56-7.92,.26-.18,.55-.33,.84-.47,1.78-.84,2.98-.42,3.72,1.42,1.19,2.95,2.25,5.94,3.48,8.87,1.11,2.63,1.55,5.41,1.97,8.19,.42,2.75,.05,5.48-.92,8.07-.6,1.59-1.44,3.09-2.23,4.61-.7,1.34-1.91,2.21-3.04,3.14-.46,.38-.99,.7-1.42,1.12-.66,.63-1.43,1-2.27,1.31-1.02,.37-1.98,.38-3,.05-1.64-.53-3.3-1-4.95-1.5h-.02Zm15.59-12.17s.11-.02,.16-.03c.06-.23,.14-.45,.16-.68,.06-.86,.2-1.73,.14-2.59-.21-2.92-.57-5.81-1.58-8.58-.85-2.34-1.75-4.67-2.66-6.99-.35-.89-.39-.87-1.09-.27-.08,.07-.16,.13-.24,.19-1.3,1.05-2.62,2.07-3.88,3.17-1.11,.97-2.13,2.06-3.22,3.06-3.33,3.03-5.99,6.54-7.9,10.64-.76,1.62-.88,3.19-.39,4.86,.69,2.35,2.28,3.93,4.36,5.07,.7,.38,1.47,.66,2.23,.92,1.33,.45,2.69,.72,4.08,.32,.87-.25,1.73-.54,2.6-.78,1.67-.46,2.96-1.61,4.45-2.4,.46-.25,.67-.6,.68-1.11,.08-2.58-.15-5.12-1.33-7.47-.36-.73-.87-1.4-1.39-2.04-.69-.85-1.49-1.61-2.18-2.46-.43-.53-.4-1.17,0-1.61,.43-.49,.85-.13,1.25,.05,.89,.41,1.45,.05,1.51-.95,.09-1.52,.22-3.04,.34-4.56,0-.08,.09-.15,.13-.22,.08,.03,.12,.04,.15,.06,.06,.06,.1,.12,.15,.19,.57,.84,.39,1.77,.31,2.69-.06,.62-.15,1.24-.11,1.85,.05,.82-.05,1.58-.64,2.19-.41,.43-.24,.74,.04,1.15,.6,.85,1.14,1.74,1.68,2.63,.75,1.23,1.46,2.48,2.19,3.73v-.03Z"/>
  <path class="cls-1" d="M34.17,36.77c-1.58-.35-1.84-2.11-1.36-3.06,.34-.66,.71-1.31,1.11-1.94,.59-.94,.88-1.95,.97-3.07,.19-2.43,.4-4.89,1.61-7.06,.73-1.31,1.64-2.53,2.58-3.7,.8-.99,1.73-1.88,2.66-2.77,.16-.15,.62-.13,.85,0,.19,.11,.37,.51,.32,.71-.08,.3-.35,.56-.58,.8-.37,.39-.75,.78-1.15,1.14-1.1,1.01-1.89,2.28-2.78,3.46-.65,.86-1.15,1.79-1.38,2.85-.26,1.2-.55,2.39-.78,3.59-.1,.51-.15,1.05-.1,1.56,.15,1.53-.33,2.85-1.24,4.05-.23,.3-.48,.6-.7,.91-.36,.52-.51,1.07-.22,1.7,.1,.23,.12,.5,.19,.81v.02Z"/>
  <path class="cls-1" d="M16.26,68.85c-.15,.77-.23,1.36-.38,1.95-.56,2.23,.01,4.17,1.37,5.96,1.82,2.4,2.52,5.1,1.74,8.06-.19,.72-.62,1.38-.99,2.03-.1,.18-.52,.4-.6,.34-.2-.15-.43-.46-.4-.68,.07-.64,.17-1.3,.43-1.88,.5-1.09,.64-2.21,.37-3.33-.33-1.37-.47-2.83-1.36-4.02-.21-.28-.42-.57-.66-.84-1.31-1.44-1.87-3.12-1.57-5.05,.14-.88,.35-1.75,.52-2.62,.13-.66,.64-.65,1.09-.53,.22,.06,.35,.44,.46,.6h-.02Z"/>
  <path class="cls-1" d="M51.81,122.31c-.53,.12-.9-.06-1.03-.54-.4-1.48-.71-3.01-.34-4.51,.19-.76,.71-1.51,1.25-2.09,1.78-1.91,2.62-4.2,2.62-6.72s1.09-4.67,2.47-6.7c.15-.22,.29-.45,.48-.62,.2-.17,.6-.44,.67-.38,.32,.26,.73,.56,.5,1.07-.14,.32-.32,.64-.55,.91-1.01,1.25-1.61,2.71-2.13,4.2-.18,.52-.16,1.11-.17,1.67-.03,2.04-.53,3.94-1.54,5.71-.25,.44-.58,.83-.88,1.23-.51,.69-1.03,1.38-1.54,2.08-.06,.08-.09,.21-.09,.32,0,1.15,0,2.29,.03,3.44,0,.29,.14,.57,.24,.93h.01Z"/>
  <path class="cls-1" d="M109.15,7.96c.63,1.95,.58,3.92,.22,5.83-.36,1.93-.87,3.85-1.58,5.68-1.02,2.63-2.93,4.52-5.51,5.73-2.8,1.31-5.74,2.12-8.78,2.58-.83,.12-1.69,.11-2.53,.07-4.14-.17-8.26-.62-12.34-1.39-.31-.06-.62-.16-.92-.28-1.84-.7-2.36-1.85-1.56-3.66,1.3-2.9,2.72-5.75,3.97-8.66,1.13-2.62,2.83-4.87,4.53-7.1,1.69-2.21,3.91-3.83,6.45-4.94,1.56-.68,3.23-1.11,4.87-1.59,1.45-.42,2.92-.16,4.38,0,.6,.07,1.19,.22,1.79,.25,.91,.03,1.71,.33,2.52,.73,.97,.47,1.65,1.17,2.12,2.13,.76,1.55,1.57,3.07,2.35,4.61h.02Zm-19.58-2.79s-.09-.07-.13-.1c-.2,.12-.43,.21-.6,.36-.67,.55-1.39,1.06-1.96,1.7-1.96,2.17-3.79,4.45-5.09,7.09-1.1,2.24-2.15,4.5-3.19,6.77-.4,.87-.35,.89,.56,.98,.1,0,.2,.03,.3,.04,1.66,.2,3.31,.45,4.98,.59,1.47,.13,2.96,.1,4.44,.2,4.49,.29,8.86-.23,13.14-1.69,1.69-.58,2.9-1.58,3.77-3.09,1.21-2.12,1.25-4.37,.63-6.65-.21-.77-.54-1.52-.88-2.24-.6-1.27-1.34-2.44-2.61-3.16-.79-.45-1.59-.87-2.37-1.33-1.49-.88-3.21-1.02-4.82-1.54-.49-.16-.9-.06-1.28,.28-1.92,1.73-3.58,3.66-4.46,6.14-.27,.77-.41,1.6-.5,2.41-.13,1.09-.13,2.19-.26,3.28-.08,.68-.57,1.1-1.15,1.12-.65,.03-.68-.52-.83-.94-.33-.93-.97-1.08-1.73-.43-1.16,.99-2.34,1.95-3.52,2.92-.06,.05-.17,.04-.25,.06-.03-.08-.06-.11-.06-.15,0-.08,.01-.16,.03-.24,.22-.99,1.01-1.51,1.73-2.09,.48-.39,1-.75,1.41-1.2,.56-.6,1.17-1.06,2.02-1.06,.59,0,.7-.34,.8-.83,.2-1.02,.46-2.03,.73-3.03,.37-1.39,.77-2.78,1.16-4.17h-.01Z"/>
  <path class="cls-1" d="M104.81,11.77c.84,1.38-.24,2.79-1.26,3.1-.71,.22-1.44,.39-2.16,.55-1.09,.23-2.02,.72-2.88,1.43-1.88,1.55-3.8,3.11-6.21,3.74-1.45,.38-2.96,.57-4.45,.71-1.27,.12-2.56,.06-3.84,0-.22,0-.52-.36-.59-.61-.06-.21,.11-.62,.29-.73,.27-.15,.65-.13,.98-.14,.54-.01,1.08,0,1.62,.03,1.5,.09,2.95-.22,4.42-.4,1.07-.13,2.09-.41,3.01-.99,1.04-.65,2.1-1.26,3.13-1.93,.43-.28,.85-.62,1.19-1.01,1-1.17,2.28-1.74,3.78-1.91,.38-.04,.76-.07,1.14-.13,.63-.1,1.13-.38,1.38-1.02,.09-.23,.28-.43,.45-.69Z"/>
</svg>