<?xml version="1.0" encoding="UTF-8"?><svg id="Ebene_2" xmlns="http://www.w3.org/2000/svg" viewBox="0 0 390 1300"><defs><style>.cls-1{fill:#ebffd6;}.cls-2{fill:#cef2c7;}</style></defs><rect class="cls-1" x="0" width="390" height="1300"/><path class="cls-2" d="m170.29,424.81c2.76,2.62,5.43,4.66,7.48,7.21,3.67,4.57,4.84,10.09,4.39,15.84-.71,8.94-2.21,17.82-6.26,25.85-2.43,4.81-5.73,9.35-9.38,13.33-14.85,16.14-33.74,20.03-54.73,17.46-17.25-2.11-29.51-10.94-36.8-26.61-3.53-7.58-3.18-15.76-1.71-23.58,1.12-5.96,3.66-11.79,6.38-17.28,3.72-7.49,10.5-11.52,18.37-13.8.97-.28,1.97-.46,2.85-.67-1.51-7.72-1.87-15.65-8.33-21.35.24-.33.47-.66.71-.98,1.73.42,3.64.49,5.15,1.3,6.13,3.28,11.04,7.82,14.94,13.74,2.01,3.06,5.47,5.17,8.97,8.33.92-2.88,1.29-4.63,2.02-6.22,1.86-4.03,3.69-8.1,5.9-11.94,1.08-1.87,2.66-3.86,5.53-3.04.35.1.98-.05,1.19-.32,1.58-1.99,3.43-1.05,4.01.38.53,1.31.26,3.84-.68,4.71-3.95,3.67-6.52,8.08-8.28,13.1,6.37-7.18,17.58-10.71,16.95-23.25,3.53.42,4.25,2.8,4.22,5.36-.05,4.77-1.13,9.29-4.15,13.18-.88,1.14-1.63,2.37-2.54,3.71,9.4,3.01,17.89,3.15,25.16-4.13.51-.51,1.78-.85,2.34-.57.53.27.99,1.58.79,2.23-.54,1.8-1.35,3.55-2.23,5.22-.51.97-1.39,1.74-2.24,2.77Zm-82.19,16.64c.21.34.43.67.64,1.01-1.17,3.21-2.58,6.35-3.43,9.64-.86,3.3-1.44,6.73-1.6,10.13-.12,2.52.44,5.13,1.02,7.62.75,3.21,2.1,6.3,2.69,9.53.87,4.78,1.23,8.66,6.32,10.1-.36-1.13-.67-2.05-.96-2.98-2.46-7.78-6.96-14.94-6.99-23.46-.02-7.06.95-13.91,4.25-20.21,1.47-2.82,6.01-3.56,7.99-1.85-1.12,1.25-2.45,2.36-3.31,3.76-4.78,7.74-5.27,16.12-3.38,24.78.17.79.96,1.47,1.54,2.13.82.92,1.78,1.71,2.57,2.65,2.4,2.86,4.73,5.78,7.12,8.65,1.6,1.92,3.26,3.79,5.13,5.96-2.05.74-3.24,1.18-5.29,1.92,5.36,2.64,9.86,5.02,14.49,7.11,5.97,2.7,12.37,4.64,18.83,3.38,8.98-1.75,16.78-6.65,24-12.02,3.55-2.64,6-6.78,8.88-10.29,4.83-5.87,7.16-12.8,7.4-20.24.21-6.37-.47-12.77-.66-19.15-.13-4.45-2.71-7.69-5.3-10.87-.8-.98-2.34-2.07-3.43-1.96-6.2.58-12.51-.27-18.56,2.49-3.39,1.54-7.6,2.41-11.25,1.99-5.75-.67-10.86-.17-15.93,2.7-4.46,2.53-9.32,3.41-14.57,2.7-2.74-.37-5.84-.18-8.42.74-4.31,1.53-8.52,2.56-13.06,1.73-1.9-.35-2.8.46-3.64,2.18-4.43,9.03-5.39,18.55-4.36,28.39.47,4.42,1.46,5.65,6.03,7.54-.11-.52-.17-.96-.29-1.38-2.98-10.95-1.4-21.54,2.73-31.86.42-1.05,1.83-1.7,2.79-2.54Zm34.5-10.98c.01-3.75-1.5-5.74-3.8-7.02-4.39-2.44-7.62-5.8-10.4-10.05-2.3-3.52-5.91-6.18-8.84-9.12,1.13,4.82,2.16,9.26,3.21,13.69.74,3.11,2.55,5.94,5.7,6.03,5.41.15,9.57,2.43,14.13,6.48Zm-31.84,6.25c6.2-2.68,12.54-2.42,18.98-2.21,3.07.1,6.19-1.34,9.86-2.22-2.4-3.3-4.14-5.3-7.66-4.03-1.7.61-3.6.64-5.39.99-5.89,1.13-11.24,3.43-15.79,7.47Zm43.1-7.88c3.77,2.17,7.21.82,10.38-.53,5.45-2.33,10.94-3.83,16.94-3.35,1.4.11,2.89-.79,4.4-1.24-4.94-.37-9.64-.22-14.12-1.17-5.9-1.25-13.29.89-17.59,6.3Zm-26.66-2.69c-3.09-2.43-6.69-1.34-10.15.28-4.58,2.14-9.18,4.35-12.15,9.04,7.69-3.21,15.08-6.3,22.3-9.32Zm28.82-21.79c-7.2,6.4-9.25,14.5-10.67,23.51.62-.61.87-.74.93-.93,2.11-7.18,5.03-13.93,10.02-19.68.44-.51-.16-1.91-.28-2.9Zm-33.16,90.64c-2.45-4.09-4.54-7.59-6.4-10.69.53-.04,1.57-.12,2.62-.19-.73-.78-1.38-1.67-2.23-2.31-1.12-.85-2.39-1.5-4.2-2.61,1.35,3.88,3.05,7.01,3.41,10.29.42,3.86,2.21,5.31,6.79,5.52Zm30.47-71.95c.27.25.54.5.81.75,6.36-3.17,12.17-6.9,14.17-14.49-4.99,4.58-9.98,9.16-14.97,13.74Zm-19.31,77.31c.17-.36.33-.72.5-1.07-2.13-1.07-4.26-2.15-6.38-3.22-.2.42-.4.84-.6,1.26,2.16,1.01,4.33,2.02,6.49,3.03Z"/><path class="cls-2" d="m264.21,598.99c6.38,1.17,12.25,2.2,18.1,3.33,4.31.83,8.58,1.82,12.89,2.68.84.17,1.74.16,2.59.06,4.07-.48,8.13-1.03,12.2-1.54,3.61-.45,7.33.34,10.56-2.73,1.41-1.34,4.48-1.27,6.79-1.27,6.02.02,12.05.3,18.07.64,1.18.07,2.32.85,3.48,1.3-.91.94-1.82,1.88-2.72,2.83-.27.29-.51.61-.99,1.18,6.05.95,11.83,1.69,17.54,2.84,1.79.36,3.36,1.83,5.02,2.79-1.67,1.09-3.2,2.63-5.03,3.17-4.32,1.25-8.77,2.02-13.44,3.04,1.17,2.02,2.01,3.46,3.24,5.58-17.36,4.44-33.82,2.84-50.13-1.76-4.48,3.72-10.24,2.93-15.46,4.04-1.11.24-2.42.18-3.51-.17-8.68-2.78-17.5-.66-26.24-1.01-8.87-.35-17.69-1.93-26.54-2.84-1-.1-2.21.38-3.12.94-7.26,4.46-14.44,9.05-21.7,13.49-1.87,1.14-3.9,2.06-5.96,2.83-9.22,3.44-18.4,7-27.75,10.05-2.63.86-5.79.11-8.7.1.68-2.88.85-6.02,2.14-8.6,5.02-10.05,13.12-17.14,22.83-22.52.74-.41,1.44-.91,2.75-1.74-4.35-1.55-8.13-2.91-11.91-4.24-5.22-1.84-10.48-3.57-15.65-5.55-1.09-.42-1.84-1.7-2.74-2.59,1.05-.87,1.97-2.05,3.17-2.55,12.08-5.02,24.79-5.84,37.68-5.62,5.99.1,12.22.6,17.92-.78,4.79-1.16,10.6-1.97,13.34-7.6.57-1.17,2.36-1.79,3.64-2.58,4.11-2.53,8.45-4.76,12.33-7.6,4.46-3.27,9.23-5.1,14.73-5.03,2.77.04,4.49-.74,5.26-3.92.54-2.27,2.3-4.49,4.08-6.12.77-.7,2.96.15,4.5,1.35,6.02-4.1,11.96-8.32,18.12-12.21,1.56-.99,3.86-.72,5.72-1.34,2.15-.71,4.23-1.67,6.26-2.68,2.36-1.19,4.57-2.71,6.98-3.78,1.01-.45,2.37-.13,3.56-.16-.07,1.33.13,2.76-.3,3.96-.41,1.17-1.47,2.12-2.46,3.47,2.96-.21,5.51-.61,8.03-.46.94.05,1.81,1.38,2.71,2.13-3.21,3.02-1.58,9.05-7.02,10.84-2.29.75-4.24,2.56-6.37,3.91,1.46,2.32,2.19,3.47,3.48,5.51-5.85,1.19-11.08,2.34-16.33,3.29-8.33,1.51-16.7,2.82-25.01,4.41-1.01.19-2.12,1.44-2.63,2.48-2.31,4.67-4.42,9.43-6.61,14.16-.29.62-.63,1.22-1.36,2.62Zm-72.15,39.57c11.05-3.68,20.37-9.1,28.78-16.09,1.39-1.15,2.77-3,2.97-4.67.16-1.32-1.5-2.86-2.35-4.31.29-.29.58-.57.87-.86,1.79,1.85,3.59,3.7,5.64,5.82,2.29-1.68,5.17-3.95,8.19-6.01,6.2-4.22,6.59-6.74,1.63-11.83q2.54-.36,7.45,5.01c1.13-.65,2.27-1.3,3.42-1.96,1.28-.73,2.55-1.48,3.84-2.19,3.98-2.21,5.36-5.85,3.93-10.25-.27-.82-.33-1.71-.49-2.57.37-.14.74-.27,1.11-.41,1.19,2.37,2.38,4.73,3.97,7.89,2.29-3.4,4.62-6.53,6.58-9.87,2.03-3.46-2.48-10.62-6.58-10.46-6.93.28-12.5,3.26-16.48,8.56,1.93,2.43,3.67,4.61,5.41,6.79-4.53-3.32-11.06-3.62-15.23-.33-1.9,1.5-4.25,2.44-6.43,3.56-1.57.81-3.21,1.5-5.05,2.36,2.28,1.86,3.94,3.21,5.6,4.57-.21.31-.41.62-.61.93-.91-.34-1.81-.66-2.71-1.01-3.37-1.3-12.31,1.79-14.22,4.67-1.17,1.76-2.62,3.43-4.25,4.77-2.21,1.82-4.71,3.28-7.09,4.89.15.36.31.72.46,1.08,4.38-1.41,8.76-2.83,13.14-4.24-6.11,5.84-13.26,7.56-19.41,6.37-4.92,3.88-8.35,7.91-12.7,9.7-6.9,2.82-9.81,8.98-14.17,13.95-.83.95-.94,2.54-1.39,3.83.3.35.6.69.91,1.04,5.68-2.23,11.42-4.33,17.02-6.76,1.75-.76,3.11-2.41,4.65-3.65-1.44-.95-2.9-1.89-4.32-2.88-.16-.11-.13-.49-.24-.99,4.22-.72,7.05.66,8.15,5.56Zm79.17-36.45c-4.38-.21-8.54-1.67-11.3-.3-8.36,4.16-16.17,9.41-24.03,14.14,1.87,5.42,10.07,7.54,17.31,5.52,1.03-4.2,1.99-8.1,2.95-12,.57.16,1.14.31,1.71.47-.55,1.6-1.12,3.2-1.66,4.81-1.78,5.31-.98,6.48,4.38,6.5,1.76,0,3.53.08,5.29.1,2.67.03,4.53-.68,4.4-3.97-.05-1.33.74-2.7,1.14-4.05q.38,6.88,7.04,8.55c1,.25,1.95.82,2.95.87,2.34.11,4.69,0,8.46-.04-5.22-5.81-5.58-11.26-3.04-17.3-7.53-.93-14.84-5.06-20.15,3.49,1.21-1.79,2.41-3.59,4.55-6.77Zm-106.2,2.53c6.39,2.16,12.65,5.2,19.22,6.17,4.5.66,9.31.18,13.96,1.06.83.16,2.03-.55,2.77-1.2,4.82-4.19,9.57-8.46,15.3-13.56-7.86.39-14.56-.07-20.92,1.22-8.36,1.69-9.68,3.88-9.28,10.89-3.66-3.89-3.53-7.18.5-11.2-8.14,1.34-15.22,1.81-21.54,6.63Zm143.86-53.88c-3.95.24-6.45,5.56-11.02,2.19-.11-.08-.53.2-.77.35-6.32,4.14-12.61,8.33-18.97,12.4-1.27.81-2.87,1.09-4.23,1.79-.94.48-2.05,1.11-2.47,1.97-.27.54.49,2.3.94,2.35.98.13,2.19-.28,3.06-.84,1.26-.82,2.15-2.45,3.47-2.88,3.58-1.15,7.4-1.58,10.96-2.79,7.95-2.69,13.82-8.26,19.05-14.54Zm6.82,9.88c-.21-.36-.42-.72-.62-1.08-1.25.58-2.46,1.3-3.76,1.72-6.74,2.17-12.43,7.07-20.11,6.9-6.36-.14-10.73,4.66-15.66,8.13,10.6-1.78,21.21-3.56,31.91-5.36-1.06-1.39-1.87-2.44-2.46-3.21,3.89-2.58,7.3-4.84,10.71-7.1Zm38.79,53.02c0-.4.02-.81.03-1.21-1.78-.33-3.56-.61-5.32-1-2.56-.57-6.09-.37-7.49-1.98-4.25-4.9-6.93-.65-10.2.79,2.25.76,4.58.87,6.73,1.56,1.21.39,2.12,1.72,3.16,2.63-.96.96-1.75,2.31-2.91,2.81-2.06.88-4.33,1.25-7.02,1.97,6.01,3.89,12.94,4.43,18.84,1.33-3-1.22-5.41-2.21-7.83-3.2-.04-.36-.09-.73-.13-1.09,4.04-.86,8.09-1.73,12.13-2.59Zm-13.83-10.69c-6.35-2.55-17.34.94-18.64,5.65,5.31.97,11.3-.81,18.64-5.65Zm-13.27,12.96c-10.35-.46-19.84-.88-29.32-1.3-.02.42-.05.84-.07,1.25,9.4.86,18.55,5.97,29.39.05Zm-21.34-55.83c6.57-1.53,14.46-5.9,14.98-8.11-9.17,1.14-10.52,1.84-14.98,8.11Zm-8.17,52.41c8.12.17,16.25.33,24.37.5-6.93-2.67-21.69-3.19-24.37-.5Zm-4.94-2.56c-.36-.12-.73-.24-1.09-.36-.68,1.29-2.14,2.8-1.85,3.82.37,1.31,2.14,2.22,3.31,3.3.26-.19.52-.38.78-.56-.38-2.07-.76-4.13-1.15-6.2Zm33.23,12.56c.01-.15.02-.29.03-.44-5.93-.56-11.87-1.11-17.8-1.67-.01.15-.02.29-.04.44,5.94.56,11.87,1.11,17.81,1.67Z"/><path class="cls-2" d="m135.5,1209.65c-4.91,7.64-11.94,12.1-20.18,14.61-3.27,1-5.69,2.32-6.7,5.6-.59,1.91-.98,3.88-1.45,5.83-.35,1.45-.69,2.89-1.03,4.34-.56-.02-1.12-.04-1.68-.07-.25-2.33-1.13-4.81-.62-6.96,1.15-4.93,2.58-9.89,4.64-14.51,2.47-5.54,5.7-10.73,8.69-16.24-3.16-3.76-3.98-6.29.64-11,2.22-2.27,4.21-2.04,7.82.86,2.78-2.99,5.54-6.08,8.44-9.04,3.64-3.71,6.97-7.93,11.19-10.79,5.97-4.04,7.12-9.95,7.8-16.1.53-4.83.12-9.77.24-14.66.02-.81.54-1.66.99-2.4,1.5-2.44.72-5.02-1.66-6.61-2.29-1.53-4.37-3.39-6.44-5.22-.4-.35-.61-1.36-.4-1.84.21-.48,1.04-.83,1.65-.95.54-.1,1.31.02,1.72.35,3.07,2.52,6.1,5.07,9.08,7.7,1.11.97,2.12,2.09,3.01,3.26.73.95,1.52,2.02,1.76,3.15,1.4,6.62,2.64,13.27,3.94,19.9,6.61-1.23,7.9-2.64,8.68-8.66.13-.98.99-1.87,1.66-3.07-2.69-2.64-5.6-5.5-8.75-8.6,5.5-1.78,9.24,1.47,17.57,14.33,3.67-1.08,7.34-2.16,11.02-3.17.11-.03.44.77.76,1.35-3.04,1.2-5.91,2.36-8.79,3.47-1.79.69-2.64,1.63-2.23,3.84.41,2.17.06,4.47.05,6.79,2.24-1.83,4.44-3.83,6.84-5.56,2.42-1.76,5.03-3.26,7.81-5.03-.82-.97-1.78-1.83-2.36-2.89-.36-.66-.48-1.85-.1-2.39.38-.55,1.81-1.05,2.24-.76,2.89,1.89,5.85.39,8.76.48,4.27.13,8.54.36,12.78.84.93.11,1.71,1.49,2.56,2.28-1.1.51-2.2,1.47-3.29,1.46-3.79-.03-7.58-.51-11.37-.6-2.16-.05-4.57-.11-5.03,3.01-.06.39-.84.87-1.35.96-7.07,1.28-11.42,6.41-16.27,10.83l.32.82c2.3-.3,4.6-.65,6.91-.89,3.33-.34,6.66-.62,10-.87.34-.03.87.2,1.04.48,1.51,2.54,4.14,1.94,6.42,2.41,3.7.76,7.36,1.71,11.03,2.58-.01.34-.03.69-.04,1.03-2.62-.06-5.25-.06-7.87-.19-1.89-.09-3.79-.53-5.66-.46-1.05.04-2.07.8-3.09,1.27-.52.24-1.05.82-1.52.76-6.39-.74-11.56,3.09-17.35,4.58-5.93,1.52-8.61,5.7-9.79,11.39-1.94,9.35-6.74,17.52-11.17,25.81-1.22,2.27-1.42,4.21-.22,6.46,2.17,4.04,2.81,8.18,1.42,12.74-.66,2.15-.18,4.64.16,7.12-.92,1.15-2.01.92-3.11-.57-2.13-2.89-4.37-5.71-6.84-8.9-2.71,3.34-5.48,6.14-4.52,10.89.58,2.87.42,5.9.01,9.46-.99-.86-2.49-1.53-2.87-2.61-3.08-8.67-6.49-17.29-3.78-26.86,1.13-3.98,1.59-8.14,1.79-12.39-2.1,4.27-4.08,8.61-6.35,12.78-1.81,3.33-3.3,7.4-6.15,9.48-4.62,3.37-5.91,8.46-8.79,12.7-.38.56-1.12.86-1.7,1.28-.13-.77-.57-1.66-.33-2.3,2.13-5.72,4.45-11.36,6.53-17.09.49-1.34.1-2.97.34-4.43.77-4.51,1.65-9,2.48-13.5.07-.36.07-.74.1-1.11Zm17.89,13.05c0-3.76-.11-7.52.02-11.27.08-2.45.5-4.89.76-7.34-1.18,4.67-1.68,9.43-2.51,14.13-.37,2.05-.37,3.58,1.78,4.44-.42,1.92-1.77,4.32-1.08,5.67,1.28,2.51.43,4.36-.2,6.54-.26.89-.04,1.93-.04,2.9,2.08-1.64,3.43-3.23,4.66-4.92.34-.47.61-1.32.42-1.79-1.2-2.81-2.54-5.56-3.82-8.35Zm-20.76,11.4c.34.19.68.39,1.03.58,1.86-2.8,3.98-5.46,5.53-8.42,3.63-6.9,6.66-14.02,9.23-21.46,3.88-11.23,8.92-22.08,13.82-32.94,2.37-5.26,3.21-10.46,1.98-16.05-.86-3.91-1.66-7.83-2.54-11.74-.29-1.28-.14-2.96-2.41-2.55-1.87.34-2.14,1.22-2.24,3.09-.37,7.18-.3,14.53-1.95,21.44-2.03,8.51-5.55,16.67-8.55,24.94-1.43,3.95-3.7,7.68-4.6,11.72-1.17,5.29-1.35,10.8-2,16.2-.11.88-.35,1.79-.75,2.58-2.14,4.22-4.36,8.4-6.55,12.59Zm62.12-59.92c.05.12.11.24.16.35,3-.9,6-1.8,9-2.71l.29-.95c-1.05-.47-2.11-1.37-3.13-1.32-3.3.16-6.66.33-9.84,1.13-8.38,2.09-16.76,4.35-22.85,11.17-8.64,9.7-12.76,21.17-12.99,34.03-.16,9.01,3.66,16.35,10.13,22.61,1.44-4.22.85-7.76-.99-11.81-3.84-8.44-6.21-17.4-1.47-26.41,1.54-2.93,3.74-5.51,5.67-8.23,1.33-1.87,2.67-3.74,4.07-5.55,1.25-1.6,2.3-3.63,3.95-4.6,6.05-3.54,12.31-6.72,18.52-9.99.55-.29,1.26-.28,1.89-.42.08.23.16.46.24.69-.88.66-1.76,1.33-2.65,1.99Zm-82.62,45.13c1.1-2.08,1.9-4.33,3.29-6.12,5.93-7.63,11.96-15.19,18.12-22.64,2.54-3.08,5.09-6.5,8.39-8.5,3.23-1.96,3.49-4.83,4.5-7.76-3.71,2.9-7.14,6.04-10.15,9.55-5.21,6.07-10.12,12.39-15.22,18.55-5.84,7.07-10.06,15.02-12.92,23.37,1.32-.8,2.66-2.11,4.23-2.49,5.45-1.3,10.55-3.29,14.57-7.26,2.53-2.5,4.11-6.26,6.99-8.06,3.97-2.48,3.42-6.16,4.27-9.56.34-1.36.5-2.76.81-4.13.53-2.35,1.1-4.68,1.77-7.5-.81.65-1.28.89-1.57,1.27-6.25,8.07-12.57,16.09-18.66,24.28-2.21,2.97-3.73,6.5-8.42,7Zm64.69-61.67c.26.11.52.23.78.34.66-1.62,1.32-3.23,1.98-4.85,1.08,7.67-2.57,14.08-5.82,21.1,3.77-1.51,6.81-2.38,8.77-6.3,3.12-6.26,2.01-11.82-.28-17.67q-4.92,1.04-5.44,7.37Zm1.02,30.32c-.34-.16-.68-.33-1.02-.49-6.75,4.64-12.3,18.67-9.11,25.24,3.38-8.25,6.75-16.5,10.13-24.75Zm-19.89-.38c5.73-9.28,12.67-17.9,15.86-29.42-2.7,1.57-6.09,1.22-6.3,4.25-.38,5.48-2.52,10.19-4.92,14.94-1.69,3.34-3.1,6.82-4.64,10.23Zm-5.7-14.96c-.35-.16-.7-.31-1.05-.47-3.17,7.01-6.34,14.02-9.51,21.03l1.45.64c3.04-7.07,6.07-14.13,9.11-21.2Zm-17.03,51.27c.26.06.51.12.77.18,1.35-4.46,4.33-8.54,2.45-13.75-1.07,4.52-2.14,9.04-3.22,13.57Zm36.26-84.23c2.18,2.04,4.43,4.14,6.97,6.51-.03-3.82-3.2-6.45-6.97-6.51Zm-8.64,74.24c.39,0,.78,0,1.17,0,0-2.87-.01-5.73-.02-8.6-.35,0-.71,0-1.06,0-.03,2.87-.06,5.73-.1,8.6Zm-6.51-80.4c.2-.28.41-.55.61-.83-2.79-2.05-5.57-4.11-8.36-6.16-.18.23-.36.46-.54.69,2.76,2.1,5.52,4.2,8.28,6.3Zm-34.33,58.48c-1.13,2.23-2.26,4.46-3.4,6.69,1.64-1.99,4.52-3.32,3.4-6.69Zm99.34-40.16c0-.34.01-.68.02-1.02-3.03-.05-6.07-.11-9.1-.16v.71c3.02.16,6.05.32,9.08.48Z"/><path class="cls-2" d="m127.45,1170.4c.83-3.55,3.23-4.77,7.44-3.77,2.16.51,3.77,3.54,3.22,6.04-.8,3.6-4.48,6.79-7.04,6.09-2.47-.67-4.38-5.08-3.61-8.37Zm2.34.48c1.84-.35,3.28-.63,4.73-.91.07.33.14.66.2.99-1.28.36-2.63.58-3.81,1.14-.65.31-1.5,1.3-1.41,1.82.16.82,1.04,1.51,1.61,2.25,1.35-1.15,2.96-2.11,3.94-3.51.5-.72.28-2.84-.33-3.25-1.63-1.08-3.58-1.3-4.95,1.47Z"/><path class="cls-2" d="m192.6,1188.58c-3.65-.96-5.53-3.17-4.82-5.65.77-2.66,5.28-4.92,8.16-4.09,2.87.83,4.89,3.9,4.15,6.33-.74,2.43-4.57,4.18-7.5,3.4Zm-1.32-2.4c3.2.79,6.62-.84,6.64-2.74,0-.91-.86-2.31-1.68-2.66-2.06-.87-6.16,1.32-6.23,3.3-.03.88,1.08,1.8,1.28,2.1Z"/><path class="cls-2" d="m153.78,229.51c.3,2.03-.5,3.92-.7,5.88-.16,1.52-.94,2.77-1.43,4.13-1.16,3.17-3.03,5.92-5.43,8.3-1.75,1.73-3.82,2.78-6.25,3.17-1.1.17-2.17.59-3.27.69-1.24.11-2.51.07-3.76-.06-1.59-.17-3.2-.4-4.75-.78-3.65-.88-7.03-2.39-9.45-5.35-2.41-2.96-1.5-7.6,2-9.5,1.73-.94,3.59-1.12,5.47-1.22,2.57-.14,4.95-.8,7.17-2.11,1.35-.8,2.08-2.06,2.59-3.46.83-2.25.63-4.48-.48-6.57-.8-1.5-1.84-2.86-2.73-4.3-1.11-1.8-2.24-3.6-3.25-5.46-.63-1.17-.28-2.47-.07-3.7.12-.66.41-1.29.66-1.91,1.1-2.73,4.21-4.34,6.78-4.16,2.39.16,4.75.39,6.81,1.78,1.32.89,2.3,2.09,3.28,3.32,1.93,2.41,3.32,5.12,4.42,7.98.8,2.1,1.37,4.25,1.62,6.49.12,1.11.39,2.2.55,3.31.16,1.17.27,2.35.41,3.53-.06,0-.11,0-.17,0Zm-18.04,14.38c-.04.07-.08.13-.12.2-1.03-.01-1.94-.43-2.73-1.05-1.48-1.17-2.29-2.79-2.9-4.52-.16-.46-.3-.95-.89-.9-.95.08-1.82-.16-2.72-.42-.88-.25-1.85-.17-2.78-.19-.28,0-.6.12-.85.26-2.8,1.55-3.4,5.86-1.64,7.94.56.67,1.25,1.27,1.96,1.76,1.79,1.24,3.79,1.93,5.94,2.33,2.64.49,5.26,1.12,7.97.72,1.83-.27,3.74-.55,5.15-1.78,1.44-1.26,2.75-2.75,3.82-4.33,2.25-3.31,3.66-7.01,4.38-10.96.41-2.26.75-4.51.46-6.8-.16-1.27-.39-2.53-.58-3.8-.5-3.43-1.46-6.73-2.93-9.88-.47-1.01-1.04-1.99-1.71-2.87-.9-1.18-1.92-2.27-2.93-3.37-.19-.2-.57-.28-.87-.31-.67-.06-1.48.26-1.78-.73-.02-.06-.16-.12-.24-.12-1.29.06-2.54-.74-3.85-.21-.29.12-.58.21-.88.32.19.28.33.6.57.83.57.55,1.28.98,1.75,1.6,1.63,2.15,3.4,4.18,4.63,6.63,1,2,1.88,3.97,2.1,6.23.43,4.46-.47,8.57-2.97,12.3-.51.75-1.04,1.49-1.54,2.25-.28.42-.14.75.3.96.84.4,1.69.79,2.53,1.2.87.43,1.74.87,2.61,1.31l-.07.22c-.43-.04-.89,0-1.29-.14-1.35-.5-2.74-.95-4-1.63-.92-.5-1.65-.95-2.63-.17-.36.29-.92.35-1.38.51.05.19.06.27.09.32.09.14.16.29.28.4,1.11.95,2.23,1.88,3.35,2.83.21.18.39.38.64.63-.24.09-.28.12-.32.12-.09,0-.19,0-.28-.04-1.78-.62-3.28-1.62-4.43-3.16-.29-.39-.78-.82-1.23-.88-.71-.1-1.47.09-2.21.18-.33.04-.49.22-.36.58.74,2.07,1.78,3.9,3.81,4.99.29.15.52.42.77.63Zm-2.28-8.58c.02.07.04.13.06.2.11.01.23.06.32.04,1.27-.39,2.52-.93,3.34-1.95,1.36-1.7,2.65-3.48,3.45-5.54,1.76-4.47,1.71-8.93-.23-13.33-1.12-2.54-2.97-4.61-4.64-6.79-.44-.57-1-1.04-1.49-1.57-.45-.49-.85-.31-1.28.02-.49.39-.2.75.03,1.09.23.35.53.65.76,1,1.17,1.76,2.31,3.54,3.5,5.29.92,1.35,1.55,2.8,1.72,4.45.1,1,.32,1.98.45,2.97.11.85.25,1.71.22,2.56-.04.95-.32,1.88-.38,2.83-.09,1.62-.32,3.14-1.11,4.63-.94,1.79-2.21,3.07-4.09,3.77-.22.08-.43.21-.64.32Zm3.44-14.86c.09-.04.18-.08.27-.11-.12-1.06-.22-2.12-.36-3.17-.26-1.97-1.37-3.6-2.3-5.28-.56-1.01-1.27-1.95-1.96-2.88-.22-.3-.62-.46-1.04-.75-.34,2.01-.05,3.75.81,5.32.96,1.75,2.09,3.41,3.19,5.08.41.63.92,1.19,1.39,1.78Z"/><path class="cls-2" d="m124.21,192.33c-.13.94-.16,1.92-.42,2.82-.51,1.76-1.88,2.9-3.44,3.57-.96.42-2.2.26-3.31.22-1.6-.06-2.99-.72-4.33-1.61-1.94-1.29-4.04-2.22-6.45-2.22-2.07,0-3.69.81-4.84,2.56-.72,1.11-1.43,2.23-2.26,3.26-1.35,1.66-2.65,3.41-4.65,4.37-2.49,1.2-5.02,1.16-7.57.09-1.2-.5-2.35-1.08-3.24-2.01-1.1-1.16-2.2-2.36-3.04-3.71-.75-1.2-.8-2.71-.49-4.09.5-2.22,1-4.47,2.11-6.49.36-.66.82-1.27,1.22-1.92.12-.19.24-.42.25-.63.04-1.42.71-2.47,1.67-3.49,1.63-1.74,3.51-3.13,5.5-4.39.72-.46,1.55-.75,2.34-1.08,2.49-1.01,5.06-1.77,7.73-2.13.62-.08,1.26-.03,1.88,0,1.79.12,3.58.23,5.36.42.73.08,1.46.31,2.16.56,1.47.53,2.91,1.11,4.36,1.69,1.98.79,3.41,2.27,4.62,3.95,1.22,1.68,2.35,3.42,3.5,5.14,1.02,1.54,1.34,3.26,1.3,5.09Zm-24.85-.27c.28.07.33.1.37.08.17-.07.34-.14.51-.22,1.29-.58,2.64-1.02,4.05-.95,2.19.12,4.26.57,5.35,2.83.09.19.33.33.53.43,1.03.54,2.13.98,3.1,1.61,2.3,1.48,4.57,1.44,6.82,0,.5-.32,1-.82,1.24-1.35,1.07-2.38.82-4.72-.46-6.97-.92-1.62-2.37-2.73-3.69-3.98-2.95-2.8-6.35-4.45-10.49-4.33-.44.01-.89-.03-1.33-.06-4.01-.28-7.89.5-11.76,1.36-.59.13-1.13.53-1.64.89-.65.45-1.24.99-1.86,1.48-1.77,1.41-3.15,3.08-3.73,5.34-.17.65-.47,1.26-.76,1.87-.76,1.58-1.51,3.15-1.75,4.91-.04.28-.04.7.13.85.88.78,1.76,1.6,2.76,2.21.94.57,2.01.73,3.14.21.92-.42,1.96-.6,2.92-.95.18-.07.43-.5.36-.65-.53-1.25-.39-2.52-.15-3.78.48-2.44,1.54-4.68,2.55-6.93.25-.57.71-.68,1.28-.4.71.36.93.86.66,1.44-.68,1.46-1.38,2.9-2,4.39-.66,1.57-.51,3.27-.61,4.99.46-.21.95-.41,1.2-.77.48-.7.95-1.46,1.21-2.26.93-2.78,2.1-5.42,3.94-7.73.15-.19.47-.25.71-.37.15.31.44.63.41.92-.05.42-.31.82-.51,1.21-.81,1.54-1.64,3.07-2.5,4.67Zm-3.68,7.37c-.05-.06-.1-.12-.16-.18-2.78,1.54-5.69,2.6-8.99,2.44,1,.64,2.01,1.13,3.05,1.56.74.31,1.48.3,2.22-.11.43-.24.72-.43.34-.95-.12-.16-.15-.4-.22-.6.06-.05.11-.09.17-.14.33.21.66.41,1.07.67.83-.88,1.68-1.79,2.52-2.69Zm-9.1,3.82l.13-.15c-.55-.51-1.14-.99-1.65-1.54-.49-.52-.9-1.1-1.35-1.66-.07,1.44,1.61,3.03,2.87,3.34Zm11.39-6.44c.08.08.15.16.23.24.74-.77,1.47-1.55,2.21-2.32-.09-.09-.19-.19-.28-.28-.72.79-1.44,1.57-2.16,2.36Z"/><path class="cls-2" d="m81.74,231.15c2.01-.28,3.68.69,5.03,1.96,2.3,2.17,3.25,4.89,2.28,8.07-.44,1.45-.8,2.93-1.33,4.34-.62,1.65-.67,3.33-.58,5.03.01.25.16.58.36.71.72.49,1.44,1.04,2.25,1.35,1.59.61,3.31.91,4.83,1.65,1.87.91,3.77,1.99,4.21,4.33.14.76.15,1.61-.03,2.35-.43,1.73-.49,3.59-1.5,5.13-.71,1.09-1.52,2.12-2.36,3.12-.35.41-.85.76-1.36.97-2.5,1.03-5,2.14-7.78,2.04-1.32-.05-2.67-.19-3.94-.52-2.66-.7-5.35-1.45-7.51-3.26-2.31-1.93-4.55-3.96-5.66-6.9-.9-2.39-1.66-4.79-1.58-7.4.12-3.69.3-7.37,1.43-10.92.37-1.14.96-2.22,1.43-3.33.17-.4.38-.82.39-1.24.01-.63.2-1.13.6-1.59.71-.81,1.37-1.65,2.09-2.45,2.12-2.32,4.81-3.37,7.91-3.45.26,0,.51,0,.81,0Zm-.56,20.25c-.29-.85-.7-1.62-.79-2.42-.46-4.52.9-8.45,3.93-11.84.5-.56,1.04-.76,1.73-.55.21.06.51.26.53.42.02.26-.08.68-.26.78-1.25.71-1.91,1.87-2.53,3.08-1.02,1.97-1.54,4.09-2,6.24-.38,1.74-.08,3.39.85,4.9.19.31.6.6.96.68,1.21.26,2.44.43,3.69.64-.09-.08-.17-.17-.26-.23-.16-.1-.32-.19-.5-.25-1.55-.56-2.61-1.75-3.02-3.2-.72-2.6-.94-5.3.39-7.83.61-1.17,1.36-2.26,2.09-3.37.11-.16.44-.16.65-.27.19-.09.45-.2.5-.36.08-.28.1-.63,0-.9-.33-.84-.63-1.73-1.15-2.43-.22-.3-.98-.19-1.5-.27-.3-.04-.6-.11-.9-.12-.41-.02-.84-.04-1.25.03-.8.13-1.59.37-2.4.48-2.68.38-4.81,1.76-6.28,3.92-1.05,1.54-1.73,3.35-2.49,5.07-.8,1.84-.82,3.84-1.11,5.8-.47,3.2-.14,6.35.38,9.45.46,2.68,1.56,5.23,3.59,7.21.74.73,1.54,1.5,2.46,1.91,1.63.72,3.36,1.28,5.1,1.73,1.78.46,3.6.43,5.39-.06,1.08-.3,2.16-.6,3.21-.96.72-.25,1.51-.48,2.09-.94,2.94-2.29,4.43-5.34,4.51-9.06,0-.37-.12-.82-.35-1.09-.71-.82-1.54-1.49-2.69-1.63-1.78-.21-3.57-.37-5.35-.64-1.72-.26-3.44-.59-5.15-.93-.41-.08-.65.03-.78.37-.38.97-.79,1.94-1.09,2.93-.27.91-.38,1.87-.6,2.8-.05.22-.27.39-.42.58-.2-.16-.51-.27-.59-.48-.17-.4-.27-.84-.31-1.28-.17-1.7.45-3.21,1.29-4.63.36-.62.3-1.01-.27-1.4-.61-.42-1.17-.92-1.78-1.34-1.64-1.11-2.5-2.66-2.68-4.61-.19-2.07-.46-4.16.38-6.13.41-.97,1.15-1.8,1.72-2.7.93-1.46,2.3-2.18,3.99-2.4.65-.08,1.06.3.85.93-.12.35-.49.63-.78.91-.43.41-.93.75-1.33,1.18-.4.45-.77.95-1.06,1.48-.45.83-1.04,1.67-1.18,2.57-.31,1.84-.4,3.78.25,5.54.37,1,1.35,1.78,2.06,2.66.04.05.16.03.25.05Zm5.22-9.64l-.19-.07c-.65.78-1.06,1.64-.78,2.74.32-.89.65-1.78.97-2.67Z"/><path class="cls-2" d="m91.13,197.16c-.32-.04-.69.02-.95-.13-1.59-.89-2.7-2.17-2.81-4.06-.1-1.81.37-3.51,1.34-5.06.31-.5.69-.94,1.38-.92.41,0,.59.16.44.55-.26.67-.55,1.34-.85,1.99-.81,1.76-.75,3.6-.32,5.4.14.59.83,1.05,1.29,1.56.16.17.37.29.55.43-.03.08-.05.16-.08.23Z"/><path class="cls-2" d="m85.99,256.37c0,.84-.1,1.69.03,2.51.15.97.52,1.91.77,2.86.06.23,0,.49,0,.74-.2-.12-.44-.2-.58-.36-1.48-1.75-2.08-3.76-1.7-6.04.13-.76.53-1.11,1.11-.8.28.15.37.67.54,1.02-.06.02-.11.05-.17.07Z"/><path class="cls-2" d="m312.73,1060.73c-1.12-1.21-2-2.79-2.86-4.41-1.26-2.4-2.36-4.88-3.32-7.41-.65-1.72-1-3.54-1.17-5.38-.11-1.23-.33-2.47-.22-3.69.14-1.64.56-3.25.85-4.87.26-1.47.48-2.94.75-4.41.03-.19.18-.42.34-.51.56-.32,1.08-.24,1.71.03,2.09.9,3.99,2.11,5.93,3.26,1.79,1.07,3.58,2.14,5.3,3.32.95.65,1.75,1.53,2.62,2.3.3.26.58.57.92.76,1.19.65,2,1.65,2.73,2.74.25.37.49.76.78,1.11,1.29,1.51,1.88,3.35,2.5,5.18.76,2.25,1.25,4.56,1.39,6.94.05.77.03,1.58-.17,2.31-.47,1.79-1.41,3.31-2.9,4.47-1.41,1.1-2.83,2.16-4.64,2.48-1.34.23-2.67.11-3.99-.16-2.61-.54-4.73-1.88-6.55-4.06Zm9.4,2.75c.03-.07.05-.13.08-.2-.22-.18-.42-.4-.67-.53-1.82-1.02-3.02-2.51-3.82-4.46-1.07-2.61-1.81-5.26-1.87-8.08,0-.38.12-.68.47-.85.97-.45,2.53.31,2.69,1.37.31,2.09.95,4.05,2.13,5.82.35.54.79,1.02,1.14,1.55.82,1.23,1.84,2.16,3.3,2.57.64.18.76.18,1.07-.41.69-1.33,1.14-2.73,1.21-4.23.14-2.95-.46-5.78-1.62-8.48-1.09-2.54-2.53-4.87-4.59-6.77-1.49-1.37-2.97-2.72-4.8-3.66-1.26-.65-2.44-1.47-3.66-2.2-1.58-.94-3.18-1.87-4.77-2.8-.38-.22-.55-.04-.49.33.07.48.21.94.34,1.41.1.38.26.64.74.45.16-.06.39-.02.56.05.64.26,1.26.57,1.9.83,2.19.88,3.69,2.42,4.47,4.66.29.82.61,1.63.89,2.45.15.42.37.69.84.81.82.21,1.67.52,1.99,1.37.43,1.1,1.21,1.89,2,2.7.24.24.46.54.59.85.44,1.02.6,2.08.52,3.21-.08,1.15.1,2.31.75,3.3.4.61.97,1.11,1.55,1.76-.28.06-.6.23-.8.14-.58-.25-1.16-.52-1.52-1.12-.78-1.29-1.08-2.73-1.35-4.18-.18-.95-.42-1.9-.72-2.82-.13-.4-.48-.74-.78-1.08-.43-.49-1.03-.88-1.32-1.44-.45-.87-.95-1.52-1.94-1.79-.91-.25-1.47-.88-1.74-1.84-.28-.98-.6-1.98-1.08-2.87-1.1-2.04-3.08-3.14-4.98-4.3-.04-.02-.1,0-.28.02.09.45.16.88.27,1.3.36,1.36.73,2.72,1.11,4.07.04.13.12.25.19.37.55.97,1.11,1.93,1.65,2.9.31.55.28.63-.33.87-.34.13-.45.34-.28.64.42.72.85,1.43,1.3,2.13.3.46.68.88.97,1.35.1.16.12.52.02.61-.25.23-.45,0-.64-.21-.36-.42-.74-.83-1.13-1.22-.79-.79-1.58-1.56-1.95-2.67-.22-.66-.49-1.31-.8-1.93-.24-.46-.59-.87-.89-1.3-.07.02-.13.04-.2.06,0,.29-.01.59.03.88.05.33.21.64.22.96.03.96.11,1.9.51,2.8.08.19.12.4.16.6.44,2.12,1.11,4.16,2.3,6,.78,1.21,1.56,2.44,2.18,3.74.51,1.07,1.14,2.02,1.88,2.93,1.11,1.36,2.37,2.55,4.03,3.23.97.39,1.96.31,2.95.37Z"/><path class="cls-2" d="m270.56,1089.75c-.16-.45-.28-.9-.48-1.31-.13-.26-.33-.55-.57-.67-1.39-.63-2.79-1.22-4.2-1.82-2.64-1.12-5.29-2.23-7.92-3.38-2.32-1.01-4.29-2.56-6.17-4.21-1.38-1.21-2.73-2.46-4.06-3.74-1.18-1.14-2.03-2.46-2.25-4.16-.24-1.94-.41-3.87-.03-5.79.16-.8.33-1.63.68-2.37,1.13-2.38,2.6-4.54,4.95-5.86,1.86-1.05,3.93-1.42,6.1-1.32,3.7.18,6.43,1.88,8.6,4.86,1.92,2.63,2.96,5.5,3.42,8.66.65,4.43,1.25,8.88,1.96,13.3.25,1.57.24,3.2.94,4.71.4.85-.23,2.65-.98,3.09Zm-3.36-5.57c.86.11.87-.33.8-.84-.19-1.37-.39-2.74-.56-4.12-.31-2.54-.58-5.09-.91-7.62-.18-1.35-.41-2.7-.66-4.04-.42-2.22-.9-4.43-2.11-6.38-.64-1.02-1.46-1.93-2.24-2.86-1.25-1.49-3.46-1.73-4.99-.53-.5.39-.99.82-1.39,1.32-1.57,1.93-2.75,4-1.92,6.64.49,1.55.94,3.11,1.47,4.65.35,1.01.78,2,1.62,2.75.2.18.25.52.37.78-.36.15-.8.51-1.08.42-.87-.3-1.86-.59-2.47-1.22-1.21-1.23-2.31-2.64-2.6-4.42-.3-1.83-.45-3.68-.69-5.67-.02.15-.03.21-.05.27-.04.14-.1.27-.12.41-.31,1.77-.25,3.54.52,5.16.92,1.95,1.9,3.9,3.09,5.7,1.3,1.98,2.85,3.79,4.32,5.65.35.45.74.97,1.23,1.18,1.92.82,3.88,1.52,5.83,2.27.52.2,1.02.43,1.54.63.62.25,1.24.48,1.86.72.04-.07.08-.14.12-.21-.26-.18-.53-.36-.96-.66Zm-16.88-10.5c-.35.76-.26,1.34.32,1.84.71.62,1.4,1.27,2.1,1.91.06.06.16.08.28.13-.91-1.31-1.78-2.56-2.7-3.88Z"/><path class="cls-2" d="m309.41,1095.32c.6,2.85-.01,5.59-.81,8.29-.28.94-.87,1.8-1.41,2.64-1.19,1.86-3.24,2.25-5.15,2.84-2.4.74-4.63.17-6.68-1.11-1.05-.66-1.79-1.68-2.05-2.97-.12-.59-.4-1.16-.5-1.75-.12-.71-.15-1.45-.17-2.18-.05-1.84.17-3.64.7-5.4.45-1.49.75-3.07,1.45-4.44,1.71-3.38,3.58-6.7,6.46-9.29.22-.19.38-.45.53-.7.16-.28.36-.36.65-.22.66.31,1.15.76,1.49,1.45.51,1.04,1.15,2.01,1.74,3.01.05.09.13.17.17.26,1.08,2.4,2.41,4.7,2.95,7.33.16.76.41,1.51.61,2.26Zm-4.19-.33c-.04-.2-.06-.4-.11-.59-.18-.69-.28-1.41-.56-2.05-.61-1.4-.97-2.83-.86-4.35.12-1.51-.04-2.91-1.07-4.12-.21-.25-.35-.32-.56-.04-.66.87-1.38,1.71-1.96,2.63-.62.98-1.12,2.04-1.68,3.06-.95,1.7-1.82,3.43-2.41,5.31-.72,2.29-.94,4.66-1.21,7.02-.16,1.37.15,2.71.7,3.97.32.74.86,1.32,1.64,1.59,1.08.38,2.18.6,3.33.29.74-.2,1.49-.38,2.2-.63.31-.11.6-.34.82-.6.94-1.09,1.15-2.42.98-3.77-.21-1.69-.11-3.33.31-4.96.09-.35.15-.72.29-1.05.29-.71.94-.88,1.43-.3.36.42.56.98.81,1.48.09.17.12.38.18.56.18-.71.4-1.44.27-2.1-.3-1.62-.75-3.2-1.15-4.8-.05.01-.1.02-.15.04-.1.79-.2,1.58-.29,2.36-.07.61-.31.89-.97,1.05Z"/><path class="cls-2" d="m270.71,1036.64c-1.82-.51-3.31-1.56-4.6-2.83-1.3-1.27-2.52-2.65-3.56-4.13-1.5-2.13-1.97-4.58-1.58-7.18.43-2.82,1.32-5.5,2.52-8.08.33-.7.78-1.35,1.24-1.98,2.26-3.1,4.72-6.04,7.41-8.78.21-.21.45-.39.69-.57,1.48-1.05,2.64-.87,3.62.68,1.57,2.49,3.03,5.04,4.63,7.51,1.44,2.22,2.3,4.68,3.14,7.13.83,2.43.94,4.98.48,7.5-.28,1.55-.81,3.05-1.28,4.56-.42,1.33-1.38,2.33-2.26,3.36-.36.43-.78.8-1.11,1.25-.49.68-1.14,1.15-1.86,1.57-.87.51-1.74.67-2.73.53-1.58-.21-3.17-.37-4.76-.56Zm12.21-13.63s.1-.03.14-.05c.01-.22.06-.44.03-.65-.08-.8-.1-1.61-.3-2.38-.67-2.62-1.47-5.2-2.84-7.55-1.16-1.99-2.36-3.97-3.57-5.93-.46-.75-.5-.73-1.04-.07-.06.07-.12.14-.18.21-1.01,1.17-2.05,2.32-3.01,3.52-.85,1.07-1.6,2.22-2.44,3.31-2.53,3.31-4.38,6.93-5.45,10.98-.42,1.6-.28,3.05.44,4.49,1.01,2.02,2.72,3.21,4.8,3.9.7.23,1.44.36,2.18.47,1.28.19,2.56.22,3.77-.38.75-.37,1.49-.78,2.24-1.14,1.44-.7,2.43-1.95,3.66-2.92.38-.3.51-.66.44-1.13-.35-2.37-.98-4.64-2.43-6.58-.45-.6-1.02-1.13-1.6-1.63-.77-.66-1.62-1.23-2.39-1.88-.48-.41-.55-1-.27-1.46.31-.52.75-.26,1.15-.16.88.22,1.32-.19,1.22-1.11-.16-1.4-.3-2.81-.44-4.21,0-.07.06-.15.09-.22.07.02.12.01.14.03.06.04.12.09.17.15.65.68.65,1.55.72,2.4.05.57.07,1.15.2,1.7.18.74.21,1.45-.22,2.1-.3.46-.1.71.23,1.04.68.68,1.32,1.4,1.96,2.12.88,1,1.74,2.02,2.61,3.03Z"/><path class="cls-2" d="m270,1031.35c-1.49-.06-2.02-1.62-1.74-2.56.2-.66.44-1.31.69-1.95.38-.96.48-1.92.38-2.95-.22-2.24-.44-4.52.31-6.69.45-1.31,1.08-2.57,1.74-3.79.56-1.04,1.27-2,1.97-2.96.12-.16.55-.22.77-.14.19.07.42.4.41.6-.02.28-.23.57-.4.83-.27.42-.56.83-.86,1.23-.84,1.1-1.35,2.39-1.96,3.61-.45.89-.75,1.82-.79,2.83-.04,1.13-.11,2.27-.12,3.4,0,.48.04.98.17,1.43.39,1.37.16,2.65-.47,3.89-.16.31-.34.62-.49.94-.24.54-.28,1.06.08,1.58.13.19.19.44.3.71Z"/><path class="cls-2" d="m258.95,1063.48c0,.72.01,1.28-.03,1.83-.15,2.12.69,3.79,2.23,5.2,2.05,1.89,3.13,4.23,2.91,7.05-.06.68-.33,1.35-.57,2.01-.07.18-.41.45-.49.41-.21-.1-.47-.35-.48-.56-.04-.59-.06-1.21.08-1.78.28-1.07.22-2.11-.21-3.09-.53-1.2-.89-2.5-1.9-3.44-.24-.22-.48-.45-.74-.65-1.43-1.1-2.22-2.53-2.26-4.34-.02-.82.03-1.65.04-2.47,0-.62.48-.7.9-.66.21.02.39.34.52.47Z"/><path class="cls-2" d="m300.09,1106.33c-.46.2-.83.09-1.03-.33-.61-1.28-1.14-2.62-1.05-4.05.05-.72.4-1.49.8-2.11,1.31-2.03,1.69-4.25,1.28-6.55-.42-2.35.23-4.43,1.15-6.51.1-.22.19-.46.34-.65.15-.19.47-.5.55-.45.33.18.75.39.63.9-.08.32-.19.64-.35.92-.72,1.3-1.03,2.73-1.25,4.18-.08.5.04,1.04.12,1.55.31,1.86.16,3.68-.46,5.45-.15.44-.39.85-.6,1.27-.35.71-.71,1.43-1.06,2.14-.04.09-.05.21-.03.3.19,1.04.37,2.09.59,3.13.05.26.23.5.37.81Z"/><path class="cls-2" d="m122.44,752.07c.31,2.54-.61,4.59-2.78,5.89-2.23,1.34-4.66,2-7.11.5-1.64-1-2.72-2.5-3.28-4.34-.16-.53-.14-1.15-.84-1.36-.1-.03-.23-.27-.2-.36.22-.68-.28-.9-.72-1.08-2.77-1.09-4.44-3.08-5.11-5.97-.2-.84-.64-1.51-1.52-1.99-3.45-1.9-3.01-5.01-.89-7.71.25-.32.54-.63.84-.92,1.8-1.77,2.33-3.88,1.5-6.24-.42-1.21-.29-2.28.09-3.45.44-1.37,1.31-2.04,2.71-2.12.36-.02.73-.07,1.06-.19.92-.33,1.31-.83,1.21-1.8-.19-1.95.63-3.64,1.25-5.38.3-.85,1.2-.69,1.87-.82.44-.08.94,0,1.38.11,1.61.43,2.68-.39,3.64-1.49.79-.92,1.64-1.71,2.9-1.94,1.95-.35,3.25.32,3.87,2.19.25.77.31,1.62.32,2.43.03,2.19-.02,4.39-.02,6.58,0,.41.06.86.25,1.2.17.33.52.71.85.76.27.05.8-.27.9-.54.35-.96.61-1.96.83-2.97.54-2.47.98-4.96,1.57-7.41.32-1.32.91-1.6,2.22-1.76,1.79-.23,3.13.58,4.47,1.57,1.88,1.4,3.42,3.07,4.4,5.21.18.39.33.84.32,1.27-.01.9.44,1.45,1.14,1.88.6.36,1.18.75,1.79,1.09,1.94,1.1,2.87,3.21,2.3,5.34-.19.7-.42,1.38-.66,2.07-.5,1.43-.22,2.48.91,3.48,1.83,1.6,2.47,3.62,2.1,6-.38,2.41-.68,4.8.3,7.18.43,1.04-.25,2.02-.78,2.81-.87,1.3-1.96,2.46-3.02,3.62-.25.27-.77.28-1.16.45-.28.12-.58.26-.8.47-.22.21-.32.53-.5.78-1.15,1.59-3.14,2.19-5.05,1.73-.99-.24-2.06-.15-3.08-.27-.69-.08-1.4-.15-2.03-.41-2.27-.96-3.09-2.53-2.87-5.01.11-1.18.04-2.37.02-3.55-.02-.72-.45-.89-1.12-.76-1.99.37-3.41,1.98-3.47,4-.01.41,0,.83,0,1.24Zm20.68-10.52c-.24.1-.31.11-.33.15-1.23,2.34-3.21,2.96-5.7,2.53-.87-.15-1.58.13-2.17.88-.47.59-1.12,1.04-1.72,1.52-.41.33-.86.62-1.32.86-.43.23-.9.52-1.36.52-.59,0-.71-.59-.77-1.1-.09-.83-.26-1.61-1-2.18-.97-.75-1.39-1.8-1.55-3.02-.15-1.14-.48-2.26-.66-3.4-.06-.4-.04-.9.15-1.23.94-1.64,1.81-3.31,2.21-5.18.15-.71.16-1.34-.22-2.01-.51-.92-.93-1.89-1.33-2.87-.11-.28-.06-.67.02-.98.27-1,.87-1.21,1.73-.65.46.3.69.08.76-.36.18-1.19.32-2.39.47-3.58.03-.19.07-.38.11-.58.84.21,1.66,1.42,1.67,2.3,0,.26.12.52.19.78.28-.1.58-.16.83-.3.31-.18.55-.5.88-.62.86-.31.99-1.02,1-1.75,0-.8-.45-1.12-1.23-.88-.38.12-.7.4-1.08.55-.33.13-.81.33-1.02.19-.28-.18-.53-.69-.48-1.01.05-.37.37-.79.7-1.02.83-.59,1.8-.76,2.81-.66.25.03.5.03.88.05-.08-.33-.08-.6-.21-.79-.83-1.25-1.71-2.46-3.03-3.28-1.71-1.06-2.77-.55-3.08,1.43-.46,2.88-.85,5.79-1.56,8.61-.58,2.27-2.04,3.31-4.45,2.2-1.53-.7-2.42-1.97-2.82-3.6-.71-2.93-.86-5.87-.22-8.84.07-.32-.06-.83-.29-1.03-.17-.15-.73-.05-.98.13-1.07.77-2.11,1.56-2.75,2.78-.22.41-.68.78-1.11.98-1,.45-2.06.45-3.1.02-.6-.25-1.03-.08-1.19.56-.15.59-.29,1.2-.36,1.8-.06.54.02,1.09,0,1.63-.1,2.01-.78,3.02-2.44,3.54-.51.16-1.07.18-1.6.29-1.36.28-1.89.91-1.75,2.28.11,1.18.31,2.35.57,3.51.19.84.28,1.67-.17,2.41-.79,1.29-1.71,2.51-2.52,3.79-.54.86-1.03,1.76-1.42,2.7-.16.38.01.9.03,1.35.43-.1.89-.16,1.3-.32.79-.3,1.52-.44,2.26.16,1.08.88,1.26,1.71.61,3.32-.81,2.03-.2,3.72,1.69,4.76.4.22.65.17,1.02-.13.81-.65,1.58-1.5,2.86-1.02-.42-.91-.41-.96.24-1.61.57-.57.6-1.15,0-1.77-.47-.48-1.02-.88-1.52-1.33-1.14-1.03-1.41-1.97-.85-3.4.37-.93.82-1.84,1.33-2.71.37-.63.46-1.15.05-1.78-.58-.88-1.11-1.81-1.67-2.71-.37-.59-.55-1.24-.14-1.82,1.19-1.65,2.8-2.76,4.7-3.5.63-.24,1.38-.54,1.72-1.05.89-1.33,1.69-2.77,1.37-4.48-.19-1.05-.5-2.08-.73-3.13-.04-.18.01-.38.02-.57.17.02.41-.03.5.06.42.44.95.86,1.17,1.4.86,2.07,1.27,4.12.2,6.35-.77,1.61-1.75,2.69-3.45,3.29-1.1.39-2.14,1.03-3.1,1.72-1.04.75-1.05,1.14-.37,2.21.23.36.55.68.87.97,1.14,1.05,1.49,2.69.89,3.96-.46.98-.79,2.01-1.29,2.97-.45.86-.11,1.24.58,1.74,1.04.76,2.02,1.64,2.25,3.04.22,1.38-.26,2.07-1.63,2.41-.17.04-.37.35-.38.56-.05.61-.02,1.23-.03,1.85-.02,1.11-.14,2.23-.05,3.33.15,1.75,1.79,3.35,3.34,3.12,1.71-.25,3.22-1.08,4.28-2.53.76-1.03.7-2.23.67-3.43-.06-2.02.27-3.91,1.81-5.42.14-.14.08-.49.11-.75-.22.1-.57.15-.64.32-.67,1.48-1.38,2.95-1.9,4.48-.56,1.64-1.17,2.23-2.92,2.17-1.12-.04-1.88-.76-2.53-1.59-.12-.16-.03-.48-.04-.72.23.04.47.04.68.13.24.1.43.29.66.4.9.46,1.47.28,1.87-.66.18-.42.23-.9.33-1.35.09-.4.08-.84.25-1.21.55-1.23,1.08-2.47,1.75-3.63.94-1.61.62-3.11-.12-4.64-.2-.41-.49-.46-.9-.33-1.24.39-2.1,1.07-2.22,2.48-.02.25-.35.57-.61.66-.22.07-.65-.08-.79-.27-.22-.29-.36-.69-.38-1.06-.09-1.46,1.06-2.84,2.78-3.43,1.29-.44,2.52.06,3.46,1.23.98,1.22,1.33,2.66,1.65,4.13.05.25.16.48.3.87.69-.83.5-1.56.08-2.13-.87-1.19-.98-2.53-.98-3.91,0-1.65,0-3.31.02-4.96,0-.73-.16-1.37-.73-1.89-.38-.34-.7-.33-1.1-.04-.3.22-.66.42-1.03.49-.58.11-.84-.2-.67-.77.27-.92,1-1.37,1.83-1.64.73-.24,1.26.22,1.64.76.58.82,1.09,1.7,1.65,2.53.38.56.42,1.12.25,1.77-.12.46-.11.96-.09,1.44.03.66.12,1.32.18,1.98.09,1.1-.17,2.4.33,3.26.83,1.43,1.16,2.77.76,4.34,0,.04.04.09.12.23.3,0,.66,0,1.02,0,1.91.01,3.55,1.54,3.54,3.46,0,1.34-.17,2.68-.37,4.01-.25,1.7.55,2.9,2.27,3.1,1.56.19,3.13.29,4.75.44.12-.14.29-.36.47-.58.6-.7,1.2-1.4,1.82-2.08.33-.36.67-.72,1.05-1.02.6-.48,1.25-.88,1.86-1.36.45-.35.93-.7,1.25-1.16.86-1.23,2.01-2.38,1.29-4.13-.14-.35-.11-.76-.17-1.14-.11-.71-.22-1.42-.34-2.18Zm-2.54-9.21c-1.26,2.83-2.79,5.04-6.25,4.72.24,1.25-.06,2.28-.77,3.21-.32.41-1.2.49-1.6.09-.4-.39-.23-.79.04-1.24.17-.29.23-.8.09-1.08-.71-1.45-.62-1.98.81-2.74.44-.23,1.04-.16,1.56-.27.66-.15,1.42-.2,1.95-.56,1.84-1.28,2.49-3.15,2.34-5.34-.04-.64-.32-1.03-.93-1.28-.44-.18-.85-.48-1.21-.8-.4-.37-.24-.69.25-.86.72-.26,1.65-.01,2.19.6.49.55.97,1.11,1.57,1.8.22-.59.41-1.06.57-1.54.57-1.72.24-2.43-1.39-3.22-.66-.32-1.26-.78-1.91-1.13-.15-.08-.56-.02-.6.08-.6,1.46-1.92,2.21-3.09,3.07-.98.73-1.04.78-.26,1.73.07.08.13.16.2.24.51.52.28.96-.22,1.27-.27.16-.65.24-.96.2-1.5-.15-2.82-.63-3.63-2.08.33,1.07.84,2.04,1.2,3.07.23.65.43,1.41.33,2.07-.26,1.8-.94,3.47-1.81,5.08-.26.48-.34,1.12-.32,1.67.03.71.25,1.41.4,2.12.15.71.25,1.43.48,2.11.34,1.02,1.77,1.63,2.48,1.11.52-.38,1-.81,1.52-1.2,1.02-.76,2.07-1.34,3.44-.91.45.14.98.09,1.46.04,1.5-.15,2.06-.89,1.96-2.4-.05-.77-.03-1.55-.02-2.32,0-.42.14-.85.65-.75.34.07.74.33.92.63.19.3.11.75.19,1.13.19.91.4,1.81.61,2.72.1,0,.21.02.31.03.11-.19.31-.37.33-.56.13-1.15.25-2.31.3-3.47.05-1.22-.27-2.27-1.39-3.01-.5-.33-.85-.89-1.26-1.35-.18-.2-.33-.42-.52-.67Z"/><path class="cls-2" d="m133.67,748.57c.68-.23.97.33,1.32.7,1.02,1.1,1.04,1.13,2.31.34.92-.57,1.81-1.17,2.72-1.74.25-.16.55-.24.83-.35.15.44.4.87.41,1.31,0,.31-.24.71-.5.92-.97.8-1.99,1.55-3.01,2.29-.16.11-.38.16-.58.19-1.9.29-3.86-1.74-3.5-3.66Z"/><path class="cls-2" d="m60.23,809.79c-.84.1-1.57.18-2.31.26-1.35.14-2.7.19-4.02-.24-.99-.32-1.97-1.6-2.03-2.62,0-.11.04-.22.07-.33.18-.53.41-1.05.54-1.6.3-1.22.52-2.46.85-3.66.13-.49.09-.84-.22-1.22-1.58-1.88-1.99-4.19-2.24-6.51-.13-1.23.66-2.15,1.68-2.8,1.5-.95,1.83-2.57.67-3.91-2.33-2.69-1.92-5.85-.18-8.35.31-.45,1.1-.76,1.68-.78,1.27-.05,2.56.1,3.83.22.71.06.94-.38,1.12-.91.27-.77.51-1.55.8-2.31.72-1.88,2.16-2.83,4.18-2.9,3.28-.11,4.71,1.41,5.05,4.58.09.88.11,1.77.09,2.65-.03,1.06.38,1.91,1.13,2.6.58.55.9.49,1.34-.15.65-.94.92-1.9.6-3.09-.53-1.93-.93-3.89-1.34-5.85-.1-.49-.1-1.02-.08-1.53.03-.7.38-1.22,1.04-1.53,1.85-.85,3.72-.78,5.57-.05.86.34,1.67.81,2.45,1.31,1.31.84,2.04,2.05,1.97,3.62-.03.63.19.88.78.97,2.25.35,3.71,1.84,4.8,3.64.78,1.3.81,2.88.53,4.36-.28,1.45.08,2.61,1.14,3.59.46.43.88.9,1.34,1.33.97.93,1.53,2.07,1.62,3.39.08,1.17.03,2.36.09,3.53.01.25.24.63.46.7,1.91.7,2.91,2.54,2.93,3.92.02,1.65-.42,3.18-1.14,4.63-.52,1.06-1.61,1.53-2.55,2.11-.69.43-1.41.83-2.16,1.16-1.34.59-2.75.31-4.14.21-2.76-.19-5.1-1.57-7.54-2.65-.95-.42-1.53-1.19-1.92-2.12-.44-1.05-.86-2.11-1.33-3.15-.24-.53-.55-1.03-.88-1.5-.18-.26-.48-.45-.72-.68-.22.31-.55.6-.65.95-.48,1.62,0,3.1.69,4.57.55,1.17,1.06,2.39,1.33,3.64.27,1.23-.34,2.28-1.28,3.15-1.73,1.6-3.67,2.8-5.84,3.74-1.27.55-2.56.83-3.89,1.07-1.12.2-3.1-.87-3.76-1.78-.59-.8-.67-1.57-.39-2.47.12-.37.14-.76.22-1.25Zm29.44-20.47c-.07.02-.15.05-.22.07-.05.1-.11.19-.15.29-.37,1.07-.6,1.24-1.7,1.31-.93.06-1.86.15-2.79.24-.85.08-1.33-.26-1.49-1.1-.05-.25-.05-.51-.03-.77.04-.51-.12-.86-.59-1.15-.89-.53-1.15-1.55-.73-2.48.74-1.62,2.15-2.39,3.76-2.86.5-.15.81-.32.79-.86-.06-1.6-.41-3.1-1.63-4.25-.23-.22-.53-.4-.83-.48-1.15-.29-2.29-.33-3.42.18-1.08.48-1.21.67-1.16,1.84.01.28-.09.73-.29.83-.94.49-.93,1.28-.89,2.16.04,1.13.05,2.28-.04,3.41-.11,1.41-.4,2.77-1.68,3.68-.78.56-.85.92-.37,1.77.21.38.5.73.77,1.07.35.43.71.85,1.08,1.26.37.41.72.85,1.14,1.2.62.52,1.11,1.08,1.36,1.89.36,1.2.84,2.37,1.23,3.56.18.55.54.86,1.06,1,.36.1.73.17,1.1.21,1.53.2,3.11-.11,4.59.63.59.29,1.28.07,1.75-.53.21-.27.48-.51.77-.7.41-.28.63-.58.51-1.11-.03-.13.23-.48.36-.48.61,0,1.36,1.15,1.09,1.7-.2.41-.49.78-.8,1.13-.32.36-.7.67-1.05,1.01-.83.8-1.7,1.2-2.9.74-.73-.28-1.58-.29-2.37-.4-1.08-.14-2.18-.21-3.25-.41-.89-.16-1.59-.7-1.94-1.56-.47-1.14-.94-2.29-1.3-3.46-.23-.76-.3-1.56-1.24-1.83-.12-.03-.23-.16-.31-.28-1.12-1.55-2.28-3.06-3.32-4.66-.75-1.16-.31-2.4.79-3.22.47-.35.91-.91,1.08-1.46.29-.97.35-2.01.53-3.01.12-.67.09-1.28-.42-1.82-.15-.16-.24-.48-.19-.7.38-1.92,1.09-3.76,2.83-4.78,1.2-.7,1.46-1.44,1.14-2.67-.25-.99-.76-1.65-1.72-2.03-1.43-.57-2.85-.53-4.33-.24-.67.13-.97.39-.86,1.05.39,2.27.7,4.55,1.21,6.79.35,1.51.07,2.8-.74,4.05-.13.2-.32.38-.36.59-.13.63-.55.78-1.09.71-.46-.06-.94-.12-1.34-.31-1.4-.65-2.19-1.94-2.97-3.17-.38-.59-.5-1.39-.58-2.11-.13-1.13-.1-2.28-.19-3.41-.05-.65-.29-1.24-.98-1.49-1.43-.53-3.39.3-3.9,1.73-.32.88-.48,1.83-.67,2.75-.2.96-.96,1.57-1.94,1.47-1.25-.12-2.51-.22-3.76-.37-.59-.07-.98.16-1.27.65-.98,1.69-1.05,3.48-.58,5.32.07.27.29.55.51.73,1.01.82,1.3,1.96,1.41,3.16.1,1.04-.67,2.41-1.62,2.82-.87.38-1.19,1-1.23,1.91-.07,1.71.55,3.24,1.17,4.77.24.6.61,1,1.26,1.2.71.21.93.95.42,1.49-.68.71-.85,1.58-.99,2.48-.05.29-.14.58-.23.87-.23.75-.56,1.48-.7,2.24-.19,1.07.22,1.56,1.28,1.45,1.84-.19,3.81-.02,5.27-1.54.05-.05.12-.07.17-.11.55-.44,1.11-.42,1.67-.03.54.38.28.9.18,1.34-.25,1.16-.61,2.29-.85,3.45-.3,1.41.33,2.1,1.77,1.99,1.22-.09,2.39-.38,3.45-1.04.45-.28.96-.48,1.48-.61,1.15-.27,2.03-.91,2.76-1.81.44-.54.87-1.1,1.29-1.65.79-1.04.79-2.97-.04-3.99-.34-.42-.75-.78-1.26-1.31-.1.53-.22.84-.2,1.14.08,1.77-1.38,2.44-2.41,3.42-.11.1-.3.14-.46.16-.6.06-.91-.36-1.06-.83-.06-.18.15-.58.35-.67,1.03-.51,1.72-1.2,1.79-2.43.03-.48.33-.95.55-1.41.37-.76.76-1.52.81-2.35-1.12.11-2.16.16-3.17.35-.31.06-.67.45-.79.77-.34.89-.53,1.83-.84,2.73-.14.39-.15,1.08-.83.88-.61-.18-.46-.78-.45-1.26,0-.13.08-.27.12-.4.21-.81.46-1.61.63-2.43.25-1.16.99-1.81,2.19-1.85.4-.01.8.02,1.19-.06.19-.04.37-.26.51-.44.14-.19.22-.43.33-.65.24.19.5.35.71.57.12.12.15.31.22.47.06,0,.12.01.18.02.14-.43.32-.85.41-1.29.13-.68.25-1.38.24-2.06,0-.44-.12-1-.41-1.3-.75-.8-1.1-1.73-.85-2.74.26-1.04.06-1.82-.72-2.51-.17-.15-.34-.33-.46-.53-.43-.67-1.06-.84-1.77-.64-.69.19-1.37.45-2.02.75-.51.24-.95.18-1.25-.22-.32-.43.08-.79.4-.96.82-.42,1.68-.8,2.55-1.1,1.31-.44,2.41-.03,3.19,1.08.48.68.83,1.45,1.23,2.18.49.88.59,1.78.32,2.76-.07.26.13.68.33.91.58.67.96,1.4,1.14,2.28.07.34.42.67.72.92.49.41,1.18.66,1.53,1.16.73,1.01,1.32,2.12,1.9,3.23.74,1.41,1.09,3.07,2.9,3.71,1.51.53,2.84,1.53,4.48,1.72,1.16.13,2.31.32,3.48.38.49.03,1.1-.05,1.46-.33,1.98-1.51,4.1-2.95,4.09-5.86,0-.4.04-.79.06-1.19.06-1.05-1.2-2.16-2.21-1.86-.85.25-1.67.52-2.21,1.43-.82,1.38-3.13,1.36-4,.06-.12-.18-.19-.45-.14-.63.03-.11.38-.25.53-.2.95.29,1.67-.1,2.37-.66.25-.2.56-.34.84-.5.63-.34.72-.59.28-1.16-.33-.45-.74-.84-1.11-1.25-.71-.79-1.65-.74-2.22.14-.3.47-.52.99-.81,1.47-.32.52-.62.49-.92-.04-.53-.94-.45-1.69.32-2.47,1.46-1.47,3.35-2.02,4.82,0,.05.07.11.16.19.2.23.12.48.32.7.29.15-.02.34-.38.34-.59.02-.83.06-1.69-.09-2.5-.11-.62-.5-1.19-.76-1.78Zm-.26-.23c-.24-.28-.36-.43-.5-.57-1.06-1.07-2.22-2.06-2.51-3.66-.08-.45-.47-.45-.77-.24-.72.5-1.43,1.03-2.09,1.59-.09.08,0,.48.12.69.27.5.62.96.88,1.46.21.41.2,1.04.51,1.24.29.19.87-.04,1.32-.1.96-.13,1.92-.26,3.04-.41Z"/><path class="cls-2" d="m61.91,793.94c-.04.16-.1.31-.13.47-.15.94-.35,1.87-.42,2.81-.08,1.11,0,2.23-.08,3.34-.04.66.17,1.06.75,1.34.54.26,1.14.5,1.55.91.36.36.52.94.7,1.44.05.14-.12.53-.18.52-.23,0-.49-.08-.68-.22-.16-.11-.19-.39-.34-.52-.48-.42-.96-.85-1.49-1.19-.32-.21-.75-.25-1.12-.38-1.16-.4-1.48-1.11-.95-2.2.27-.56.22-1.08-.25-1.45-.58-.45-.48-.89-.21-1.46.49-1.05.98-2.11,1.34-3.2.3-.92.14-1.08-.74-1.5-.1-.05-.28-.09-.3-.16-.1-.36-.16-.73-.24-1.1.28,0,.6-.09.83.01,1.09.49,2.02,1.13,1.94,2.54Z"/><path class="cls-2" d="m64.48,785.02c.08.86-.05,1.03-.92,1.08-1,.06-1.86.37-2.51,1.17-.09.11-.19.23-.31.28-.34.15-.69.26-1.04.39-.09-.42-.3-.85-.23-1.25.15-.91.81-1.55,1.62-1.88.98-.4,1.52-.93,1.3-2.06-.06-.3.08-.64.15-.96.21-.94.44-1.13,1.41-1.25.41-.05.85-.05,1.23-.2.41-.16.71-.26.89.23.17.46.14.88-.33,1.15-.14.08-.31.13-.46.15-.63.05-.81.44-.81,1,0,.72,0,1.43,0,2.15Z"/><path class="cls-2" d="m64.19,793.81c.21-1.71,1.55-1.91,2.58-2.29.86-.32,1.55.42,2.17.99.16.15.27.45.27.68.01,1.3.01,2.6-.04,3.9-.02.5-.14,1.05-.79,1.16-.52.08-.87-.07-.86-.69.01-1.09.03-2.18,0-3.28-.02-1.14-.34-1.35-1.44-.98-.31.1-.59.28-.9.37-.29.08-.6.08-.98.13Z"/><path class="cls-2" d="m278.46,70.07c-.5-.87-.97-1.67-1.42-2.48-1.51-2.73-3.02-5.46-4.53-8.18-.07-.13-.16-.26-.24-.38-2.79-4.21-6.07-7.95-10.26-10.81-.92-.63-1.95-1.04-3.13-.86-1.47.22-2.86.05-4.06-.95-.76-.63-.99-1.16-.54-2.04.75-1.47,1.46-3,2.45-4.31.84-1.09,2.02-1.94,3.12-2.81.51-.4,1.13-.23,1.7.12.44.27.93.54,1.43.62,2.63.45,4.94,1.63,6.95,3.3,2.22,1.84,4.38,3.77,6.4,5.84,1.5,1.53,2.8,3.28,3.79,5.22.34.66.91,1.2,1.31,1.84.61.98,1.15,2,1.72,3,.13.23.24.47.42.81.88-2.57,1.7-4.99,2.57-7.52-.33-.12-.73-.36-1.16-.41-1.63-.2-3.27-.65-4.91.03-.38.16-.72.13-.98-.28-.4-.62-.33-.74.36-1.04,2.04-.87,4.09-.61,6.12-.05,1.04.29,1.96.32,2.83-.42.42-.36.91-.63,1.36-.95,2.34-1.73,5-2.34,7.84-2.1,2,.17,3.98.55,5.97.85,1.35.21,2.52.86,3.61,1.64,1.43,1.03,2.82,2.11,4.21,3.19,1.82,1.41,3.26,3.12,4.25,5.22.2.43.63.76,1,1.1,1.08.97,2.18,1.92,3.27,2.89.49.43.93.93,1.44,1.33,3.29,2.55,5.31,5.98,6.96,9.71,1.01,2.3,1.09,4.74,1.26,7.17.2,3.01.11,6.06.57,9.03.44,2.89.82,5.85,2.14,8.54.42.85.95,1.66,1.55,2.39,1.55,1.87,2.63,3.99,3.4,6.27.72,2.11,1.41,4.24,2.02,6.39.29,1.03.47,2.11.53,3.18.24,3.91-.45,7.62-2.58,10.98-.19.29-.43.55-.68.8-.73.73-1.44,1.47-2.21,2.15-.37.33-.84.54-1.27.78-2.05,1.13-4.23,1.8-6.57,2.08-1.51.18-2.97.72-4.48.99-.62.11-1.32.06-1.92-.12-.99-.3-1.76-.1-2.47.61-2.03,2.02-4.1,4-6.1,6.06-1.13,1.16-2.39,2.11-3.87,2.71-1.61.65-3.27,1.17-4.92,1.69-1.8.57-3.59,1.22-5.43,1.6-2.45.51-4.93.94-7.45.22-.59-.17-1.34-.21-1.89.01-4.31,1.77-8.27.9-12.08-1.43-2.5-1.53-4.55-3.56-6.38-5.82-.25-.31-.51-.64-.66-1-1.12-2.86-2.29-5.69-2.96-8.71-.28-1.26-.92-2.44-1.42-3.65-.7-1.7-1.34-3.43-2.14-5.08-1.06-2.17-2.24-4.27-3.38-6.4-1.49-2.8-2.96-5.61-4.51-8.37-.55-.98-1.39-1.79-1.95-2.77-1.36-2.39-2.35-4.93-3.07-7.6-.77-2.86-1.16-5.76-1.3-8.7-.04-.93.08-1.86.11-2.79.02-.6-.1-1.22,0-1.8.25-1.45.55-2.9.9-4.33.55-2.24,2.21-3.82,3.4-5.68,1.14-1.79,3.03-2.51,4.68-3.57,1.81-1.17,3.75-1.74,5.95-1.34,1.14.21,1.3.04,1.54-1.1.52-2.4,1.76-4.49,2.84-6.64.25-.49.68-.97,1.15-1.26.32-.2.86-.13,1.27-.04.11.02.16.56.15.86-.1,2.32-1.43,4.15-2.42,6.12-.28.56-.6,1.11-.84,1.69-.33.8-.13,1.1.69,1.41,1.31.5,2.62,1.03,3.91,1.57.44.18.81.51,1.24.71.77.35,1.56.66,2.35.96.37.14.82.15,1.14.37.83.56,1.51.24,2.3-.25Zm25.85,69.76c1.38-.31,3.26-1.64,4.91-3.37,1.23-1.29,2.51-2.53,3.72-3.83,1.33-1.43,2.6-2.9,3.9-4.36.06-.07.1-.17.14-.26.39-.87.67-1.8,1.19-2.59,1-1.53,1.05-3.15.84-4.86-.2-1.6-.43-3.2-.48-4.8-.04-1.2-.17-2.27-1.01-3.21-.31-.34-.45-.84-.65-1.27-1.15-2.49-2.33-4.94-4.28-6.96-2.35-2.44-3.72-5.47-4.84-8.63-.3-.85-.69-1.68-1-2.52-.77-2.1-1.75-4.16-2.23-6.32-.4-1.83-.93-3.59-1.61-5.32-.27-.67-.62-1.33-1.03-1.92-1.82-2.56-3.61-5.15-5.54-7.62-.82-1.05-1.89-1.92-2.95-2.76-.94-.75-2.03-1.31-3.02-2-.52-.36-1.02-.35-1.57-.17-2.16.69-4.09,1.77-5.77,3.32-.47.43-1.05.81-1.64,1.05-2.3.9-4.52,1.95-6.61,3.29-2.46,1.58-4.9,3.18-6.95,5.28-.51.52-.95,1.22-1.14,1.91-.56,2.01-.73,4.09-.2,6.12.75,2.87,1.68,5.7,2.47,8.56.23.81.43,1.7.33,2.51-.13,1.04,0,1.98.3,2.96.57,1.9,1.04,3.83,1.63,5.73.53,1.72.99,3.5,1.79,5.1,1.06,2.13,2.47,4.08,3.63,6.17,1.44,2.6,2.82,5.22,4.12,7.89,1.09,2.24,1.87,4.64,3.07,6.81,1.35,2.46,2.98,4.77,4.54,7.1,1.06,1.59,2.59,2.15,4.5,1.96,3.65-.35,7.06-1.58,11.47-2.98Zm-3.66-81.35c-.83.3-1.65.63-2.48.9-2.83.92-4.4,3.22-6.01,5.47-.37.51-.19,1.01.33,1.36.5.34,1,.67,1.52.99,2.54,1.6,4.8,3.46,6.41,6.06.87,1.41,1.82,2.79,2.89,4.05,1.73,2.06,2.97,4.37,3.78,6.91.67,2.11,1.1,4.29,1.83,6.38,1.02,2.92,2.21,5.78,3.36,8.66.84,2.1,2.06,3.95,3.69,5.56.93.92,1.74,2.03,2.39,3.17.94,1.66,1.72,3.41,2.53,5.15.42.9.98,1.82,1.1,2.77.29,2.24.38,4.51.48,6.77.04.82.08,1.73-.21,2.46-.53,1.31-1.32,2.52-1.99,3.78-.15.29-.25.62-.37.92.31.02.63.11.92.05,2.03-.48,4.09-.88,6.07-1.52,1.29-.42,2.62-1.02,3.66-1.87,2.85-2.34,4.06-5.71,5.03-9.11.83-2.91.23-5.8-.77-8.59-.79-2.2-1.55-4.42-2.46-6.58-.5-1.19-1.13-2.39-1.96-3.36-2.17-2.58-3.59-5.45-4-8.81-.26-2.19-.48-4.39-.72-6.59-.24-2.22-.55-4.44-.7-6.66-.4-5.9-2.72-10.87-7.06-14.89-.57-.53-1.14-1.07-1.64-1.67-1.15-1.37-2.58-2.37-4.22-2.97-1.13-.42-2.41-.75-3.58-.67-2.69.19-5.32.83-7.83,1.87Zm-25.93,13.26c-1.03-.53-1.81-.83-2.48-1.29-2.51-1.75-5.34-2.55-8.33-2.84-.7-.07-1.49-.02-2.14.24-2.33.93-4.48,2.14-6.12,4.13-2.47,2.98-4.28,6.16-4.11,10.23.15,3.63.1,7.25.95,10.85.68,2.91,1.68,5.63,3.11,8.22.33.59.78,1.11,1.16,1.66,1.07,1.55,2.27,3.02,3.19,4.66,1.86,3.31,3.5,6.74,5.35,10.06,1.46,2.63,2.57,5.41,3.59,8.22.38,1.04.72,2.11.9,3.19.96,5.85,3.95,10.32,8.99,13.41.84.52,1.81.9,2.77,1.11,1.83.4,3.49-.45,5.26-.97-.13-.23-.21-.41-.32-.56-1.01-1.38-2.1-2.7-3.02-4.14-1.45-2.29-2.88-4.6-4.16-6.99-2.02-3.79-3.85-7.69-5.87-11.48-1.24-2.33-2.66-4.56-4.01-6.83-.76-1.27-1.22-2.64-1.43-4.11-.14-.97-.31-1.94-.55-2.89-.42-1.6-.93-3.19-1.38-4.78-.12-.41-.35-.93-.2-1.23.47-.96.24-1.89-.02-2.79-.35-1.23-.96-2.39-1.28-3.62-.54-2.04-1.07-4.09-1.38-6.17-.49-3.29.44-6.24,2.69-8.7,1.62-1.77,3.51-3.22,5.63-4.39,1.08-.6,2.05-1.4,3.22-2.21Zm36.84-16.81c-.39-.51-.63-.86-.91-1.18-.55-.64-1.07-1.3-1.68-1.88-.52-.5-1.12-.94-1.71-1.36-1.98-1.39-3.88-2.77-6.42-3.3-4.52-.95-8.06.66-10.92,3.78-1.97,2.15-2.72,5.06-3.01,8-.1,1.05-.33,2.03-1.45,2.52-.17.08-.35.44-.32.64.11.74.27,1.49.5,2.21.09.29.38.64.65.74.89.32,2.41-.23,2.97-1.01.51-.71.93-1.52,1.52-2.15,1.06-1.13,2.04-2.55,3.37-3.17,3.1-1.46,6.37-2.61,9.62-3.73,2.25-.78,4.59-.87,6.91-.16.22.07.47.05.87.08Zm-29.9,5.68c-.17-.38-.24-.59-.35-.79-1.7-3.02-3-6.24-5.05-9.1-1.78-2.49-3.76-4.76-6.01-6.8-.93-.84-1.94-1.61-2.98-2.31-.85-.56-1.8-1-2.74-1.41-.24-.11-.77-.02-.91.17-.78,1.08-1.46,2.23-2.21,3.32-.25.35-.62.62-.94.92-.19.18-.4.34-.59.51.2.2.38.46.62.59.39.22.82.38,1.24.55,1.25.52,2.5,1,3.53,1.96,1.3,1.22,2.81,2.23,4,3.54,2.02,2.23,4.03,4.5,5.73,6.97,1.77,2.58,3.4,5.27,4.61,8.19.81,1.97.83,1.88,2.61.58.5-.37.78-.79.65-1.4-.4-1.89-.83-3.78-1.2-5.5Zm-24.76-15.41c1.9-1.18,3.43-2.76,4.54-4.77.32-.58.03-.86-.38-1.17-.44-.34-.81-.21-1.13.14-.98,1.11-2,2.2-2.89,3.38-.41.54-.6,1.26-.81,1.93-.14.47.15.64.66.49Z"/><path class="cls-2" d="m111.07,1102.91c.32-.55.59-.98.84-1.42,1.09-1.92,2.21-3.83,3.25-5.78.37-.7.81-1.51,1.6-1.79.83-.29,1.5-.83,2.28-1.24,1.48-.77,2.87,0,4.41-.17.57-.06,1.11-.26,1.59-.57.49-.31,1.03-.57,1.46-.94.43-.37.84-.8,1.11-1.29.48-.88,1.08-1.62,1.75-2.36.57-.63.93-1.54,1.14-2.39.48-1.89.19-3.79-.2-5.67-.06-.31-.09-.83.08-.94.24-.16.68-.09,1.02-.02.28.06.59.2.8.39,1.2,1.16,2.38,2.35,3.55,3.55.47.48.47.98.15,1.63-.45.93-.7,1.97-1.03,2.96-.1.3-.19.62-.32.91-.86,1.95-1.9,3.74-3.8,4.9-.4.24-.79.5-1.17.76-.44.3-.87.6-1.31.9-.36.25-.72.41-.89.84-.15.38-.28.77-.44,1.15-.16.37-.39.72-.62,1.05-.49.71-.83,1.42-1.11,2.24-.36,1.07-.27,2.16-1.17,3.04-1.02,1.02-1.39,2.34-1.67,3.73-.08.4-.13.81-.27,1.19-.74,2.03-.74,4.18-1.03,6.28-.33,2.4-.68,4.81-1.02,7.21-.25,1.8-.49,3.61-.75,5.41-.36,2.49-1.65,4.54-3.17,6.46-1.46,1.85-3.02,3.63-4.56,5.42-.3.35-.7.64-1.08.9-3.4,2.35-7.22,3.6-11.21,4.56-2.71.65-5.41.6-8.13.7-1.44.05-2.88.1-4.32.13-.79.01-1.59-.04-2.38-.05-1.76,0-3.53.08-5.28-.02-1.45-.08-2.91-.3-4.33-.62-.75-.17-1.45-.64-2.11-1.07-1.9-1.25-3.9-1.61-6.13-1.12-1.16.25-2.39.27-3.59.24-1.33-.04-2.56-1.39-2.42-2.51.03-.23.17-.55.34-.62.17-.07.51.05.67.2.53.51,1.16.66,1.84.59,1.45-.15,2.9-.33,4.36-.49.64-.07,1.28-.15,1.93-.15,1.26,0,2.35-.37,3.42-1.09,1.64-1.11,3.48-1.88,5.42-2.31,2.54-.56,5.13-.88,7.64-1.56,3.04-.83,6.05-1.82,8.99-2.94,1.79-.68,3.43-1.74,5.13-2.66.87-.47,1.71-.99,2.57-1.48,1.39-.8,2.37-1.88,2.7-3.51.36-1.75.72-3.49,1.18-5.21.22-.82.61-1.6,1-2.36.81-1.59,1.02-3.31,1.22-5.04.13-1.08.24-2.17.39-3.25.04-.27.2-.52.29-.78.13-.36.02-.55-.38-.5-.17.02-.34.05-.51.09-2.48.64-4.59-.01-6.3-1.89-.69-.75-1.7-1.31-1.89-2.39-.2-1.15-.22-2.34-.28-3.51,0-.17.11-.39.24-.51,1.63-1.46,4.23-2.34,6.33-1.64,1.02.34,1.67.9,1.93,2.07.22,1,.87,1.9,1.36,2.83.25.49.55.95.9,1.55Zm-34.98,38.65c.59-.13,1.37-.29,2.15-.46,1.74-.39,3.47-.87,5.22-1.15,4.95-.81,9.82-1.93,14.65-3.25,1.89-.51,3.16-1.12,4.09-1.51,2.23-.95,3.9-1.68,5.53-3.05,1.48-1.25,2.28-2.49,3.11-3.79,2.52-3.93,2.54-6.7,4.94-7.82.39-.18.83-.31,1.32-.77.9-.84.82-1.7,1.34-3.66.74-2.78,1.45-3.14,1.34-4.9-.07-1.04-.37-1.93-.37-1.93-.45-1.32-.99-1.56-1.25-2.73-.22-.95-.08-1.74-.03-2.05.13-.69.35-1.13,1.26-2.63,1.21-2,1.83-3.01,2.41-3.63.76-.82,1.55-1.44,1.89-1.71,1.53-1.2,2.3-1.41,2.24-1.74-.1-.58-2.49-.68-4.25-.47-1.28.15-1.92.23-2.56.64-1,.65-1.99,1.27-2.73,2.85-.09.2-.35.32-.49.5-.32.39-.67.77-.9,1.21-.7,1.3-1.35,2.63-2.02,3.95-.17.33-.33.65-.48.99-.98,2.16-1.34,4.47-1.72,6.78-.25,1.52-.61,3.04-1.1,4.5-.63,1.87-1.47,3.65-1.73,5.65-.15,1.22-.51,2.43-.86,3.62-.34,1.17-1.06,2.13-2.08,2.79-1.31.86-2.63,1.72-4.02,2.44-2.74,1.43-5.53,2.79-8.54,3.59-1.64.43-3.26.91-4.9,1.36-.58.16-1.15.35-1.74.46-1.5.26-3.02.43-4.52.72-1.01.19-2,.5-2.99.81-.69.22-1.4.45-2.01.82-1.09.68-2.2,1.25-3.45,1.56-.41.1-.82.28-1.19.47-.1.05-.14.44-.12.45.89.4,1.77.84,2.7,1.11.51.15,1.11,0,1.86-.02Zm32-38.46c-1.01.28-1.57.08-2.01-.69-.32-.56-.63-1.12-.91-1.7-.4-.84-.59-.87-1.43-.47-.42.2-.97.39-1.38.28-.69-.19-.59.16-.54.54.14,1.02.66,1.82,1.39,2.54,2.02,1.98,3.52,1.91,5.82,1.12.24-.08.55-.52.51-.75-.09-.62-.28-1.25-.55-1.8-.5-.99-1.11-1.93-1.62-2.91-.2-.39-.21-.88-.39-1.28-.08-.18-.37-.26-.57-.38-.01.18-.09.39-.03.55.55,1.64,1.13,3.28,1.72,4.96Zm-.19,32.26c-.18.12-.8.58-.8.58h0c-.3.25-.58.46-.92.66-.32.2-.4.35-.66.57-.43.36-1.01.52-1.53.64-.58.13-1.11.47-1.67.65-.39.12-.72.09-1.1.26-.32.14-.57.36-.88.51-.18.09-.41.1-.59.19-.18.09-.3.24-.45.38-.31.29-.7.41-.6.92.12.57.67.4,1.11.29.36-.09.66-.25.97-.45.17-.11.34-.22.51-.32.12-.07.24-.13.37-.19.3-.14.66-.33.99-.36-.12.01.41.05.31.05.03,0,.07-.01.1-.03.38-.13.73-.24,1.09-.42.65-.32,1.22-.68,1.89-.96.57-.24,1.11-.5,1.62-.84.41-.27.89-.44,1.3-.72.53-.35.98-.81,1.54-1.12.32-.18.65-.47.94-.7.13-.1.17-.21.27-.34.33-.42.85-.68,1.22-1.08.48-.52.77-1.22,1.16-1.81.44-.66.43-.95.32-1.09-.14-.18-.53-.14-.66-.12-.3.04-.5.16-.65.24-1.11.65-1.05.53-1.23.69-.47.43-.28.74-.7,1.46-.45.79-1.11,1.22-1.53,1.49-.7.46-.95.39-1.77.97Zm-12.78,4.14s-.13-.05-.2-.03c-1.27.2-2.54.4-3.8.63-.17.03-.3.17-.58.36-1.69,1.09-2.86,1.84-2.75,2.32.17.74,3.37.77,3.59.09.08-.24-.25-.51-.11-.88.12-.31.47-.42.59-.5,1.09-.66,2.17-1.32,3.26-1.99Zm-16.39,2.99c0,.09.02.19.02.28.35.03.7.08,1.06.09,1.46.05,2.91.08,4.37.11.21,0,.47.04.63-.06,1.04-.65,2.06-1.33,3.08-2.01-3.05.6-6.2.59-9.17,1.58Zm35.89-12.29c.26-.35.59-.62.7-.96.56-1.73,1.09-3.48,1.59-5.23.16-.57.22-1.17.29-1.77.01-.12-.1-.31-.2-.36-.09-.04-.31.06-.36.16-.69,1.28-1.49,2.53-1.05,4.11.09.31.17.74.03.99-.43.75-.98,1.44-1.47,2.16-.11.16-.28.44-.23.52.12.16.37.22.7.38Zm9.53-31.92l-.21-.19c-.36.36-.81.67-1.07,1.09-.69,1.11-1.33,2.25-1.93,3.42-.52,1.03-.96,2.09-1.4,3.16-.12.29-.14.63-.11.94.01.17.2.33.32.49.13-.12.32-.22.38-.37.3-.73.6-1.46.85-2.21.69-2.13,1.58-4.16,2.98-5.94.09-.11.13-.25.19-.38Zm-29.64,42.93c.02.06.03.13.05.19,1.01-.1,2.02-.19,3.02-.32.08-.01.13-.27.19-.42.08-.21.12-.58.24-.6.77-.15,1.18-.79,1.76-1.19.52-.36,1.07-.68,1.73-1.1-.25.03-.37.02-.48.05-.99.26-1.99.52-2.98.81-.28.08-.63.21-.76.43-.63,1.1-1.5,1.85-2.76,2.15Zm36.51-52.07c-.63-.01-1.24.62-1.34,1.36.72.07,1.33-.55,1.34-1.36Zm1.28-8.82c-.16.38-.35.61-.3.75.09.24.33.42.5.62.16-.17.47-.39.43-.49-.09-.27-.33-.49-.64-.88Zm-20.77,53.19-1.9,1.55"/><path class="cls-2" d="m94.52,1130.48c-1.14-.08-2.16-.24-3.03-.95-.7-.57-1.41-1.12-2.12-1.68-1.43-1.11-1.42-2.53-.97-3.95.42-1.3,1.22-2.33,2.46-3,.91-.5,1.77-.6,2.77-.24,1.42.52,2.67,1.28,3.84,2.19.78.6,1.41,1.33,1.51,2.37.01.15.05.33-.01.44-.78,1.37-1.29,2.94-2.63,3.9-.54.39-1.2.61-1.81.91Zm-.89-7.89c.01-.06.02-.11.04-.17-.37-.06-.74-.19-1.1-.17-.99.07-1.75.45-2.26,1.43-1.32,2.51-.26,4.06,2.17,4.99.91.35,1.79.04,2.45-.7.39-.43.8-.86,1.1-1.35.48-.78,1.27-1.53.5-2.58-.3-.4-.5-.91-1.19-.99,0,.59-.16,1.21.05,1.66.39.84.12,1.38-.44,1.94-.27.27-.48.6-.71.91-.33.44-.73.49-1.19.22-.63-.37-.75-1-.39-1.81.11-.26.19-.57.17-.84-.03-.48-.19-.95-.22-1.44-.06-1.05.08-1.18,1.02-1.11Z"/><path class="cls-2" d="m97.44,1110.96c.24,1.78-.14,3.34-1.05,4.76-.16.26-.58.53-.86.51-.84-.08-1.72-.17-2.49-.49-1.9-.76-3.57-1.95-5.23-3.14-1.17-.84-1.3-3.05-.22-4.03,1.23-1.1,2.7-1.73,4.33-2,.19-.03.39-.02.58.01,1.55.28,2.93.97,4.13,1.96.59.48.7,1.07.8,2.41Zm-1.48-.57c-.05-.01-.1-.02-.16-.03-.1-.37-.19-.75-.31-1.11-.03-.1-.17-.19-.28-.22-.06-.02-.2.09-.23.16-.5,1.05-.98,2.1-.39,3.29.08.16.06.48-.05.57-.11.1-.39.04-.58,0-.73-.19-.95-.79-1.13-1.43-.16-.58-.29-1.2-.98-1.41-.76-.23-1.32-.69-1.75-1.34-.09-.13-.39-.28-.43-.24-.46.43-1.01.83-1.29,1.37-.38.75-.1,1.51.59,1.98,1.04.71,2.12,1.38,3.23,1.97.65.35,1.38.56,2.09.75.47.13.89-.12.99-.6.26-1.23.45-2.46.66-3.7Zm-5.2-2.4c-.02.07-.03.15-.05.22.49.24.98.5,1.48.7.12.05.32-.1.48-.15-.09-.12-.15-.32-.27-.36-.54-.16-1.09-.28-1.64-.42Z"/><path class="cls-2" d="m296.45,829.57c-.98-2.3-2.7-3.93-5.29-4.39-.61-.11-1.19-.4-1.8-.53-.34-.07-.84-.14-1.07.04-1.19.94-2.35,1.92-3.47,2.95-1.04.97-1.98,2.03-3.01,3.02-.49.47-1.07.53-1.22-.31-.24-1.42-1.08-1.66-2.31-1.43-.5.09-1.04.07-1.56.03-3.41-.3-6.71.52-9.97,1.2-4.85,1.01-9.15,3.56-13.55,5.76-2.54,1.27-4.92,2.86-7.45,4.15-3.74,1.9-7.52,3.72-11.33,5.47-2.2,1.01-4.41,2.16-6.74,2.66-4.67,1-9.41,1.65-14.14,2.34-5.06.73-9.49,2.7-13.21,6.26-1.73,1.66-3.53,3.24-5.22,4.94-1.93,1.94-4.07,3.77-5.58,6.02-2.86,4.26-5.94,8.39-8.17,13.08-1.32,2.77-2.76,5.41-2.66,8.59,0,.03-.01.07-.01.1-.81,7.94-.54,15.76,3.01,23.1,1.24,2.55,2.45,5.28,4.34,7.32,4.42,4.77,9.21,9.21,15.14,12.11,1.83.89,3.74,1.67,5.69,2.24,3.62,1.07,7.27,2.02,10.94,2.88,4.03.94,8.15,1.24,12.28,1.21,1.76-.01,3.58.12,5.26-.29,2.63-.64,5.22-1.57,7.74-2.59,5.92-2.4,10.94-6.07,15.14-10.92,2-2.31,4.19-4.45,6.28-6.68,1.45-1.54,2.94-3.04,4.31-4.65.94-1.1,1.72-2.35,2.56-3.54,3.62-5.18,6.31-10.82,7.89-16.94.91-3.5,2.19-6.8,3.85-9.99,2.6-5.02,5.16-10.08,7.58-15.19,1.65-3.48,3.02-7.07,3.13-11.05.07-2.54-.04-5.04-.86-7.42-1.2-3.5-2.57-6.94-3.9-10.5.09-.05.32-.19.55-.32,1.52-.89,3.09-1.73,4.56-2.7,1.96-1.3,2.87-4.62,2.27-6.01Zm-112.18,69.5c-.85-3.34-1.08-6.7-.34-10.08.35-1.63.67-3.27,1.1-4.88.93-3.5,3.09-6.34,5.03-9.29.91-1.38,1.87-2.74,2.97-4.02-.55,1.12-1.17,2.21-1.64,3.36-1.85,4.46-3.71,8.91-5.45,13.41-1,2.58-1.18,5.34-1.27,8.1-.04,1.14-.26,2.27-.39,3.4Zm9.1,17.61c-1.51-.58-4.59-4.82-4.8-6.43-.13-1.03-.41-2.04-.73-3.03-1.71-5.45-1.69-10.95-.62-16.51.85-4.43,2.53-8.53,4.5-12.53,2.07-4.21,4.26-8.36,6.4-12.53,1.05-2.04,2.74-3.46,4.51-4.83.6-.46.96-1.22,1.46-1.82.34-.41.7-.83,1.11-1.17,3.54-2.91,7.67-4.4,12.15-5,4.19-.55,8.43-.87,12.57-1.69,2.39-.48,4.64-1.73,6.94-2.67,1.42-.58,2.82-1.22,4.33-1.69-.98,2.45-2.56,4.51-3.5,6.87.11.08.22.16.33.23.26-.23.56-.42.76-.7,1.43-1.92,2.91-3.81,4.23-5.81.93-1.4,2.02-2.52,3.5-3.32,2.8-1.53,5.55-3.14,8.35-4.68.69-.38,1.45-.62,2.37-.73-2.31,3.02-4.61,6.04-6.92,9.06.04.06.09.13.13.2.92-.69,1.95-1.26,2.73-2.08,2.5-2.61,4.93-5.28,7.33-7.98.87-.97,1.42-2.25,2.79-2.68.71-.22,1.43-.44,2.39-.74-1.58,2.26-2.98,4.26-4.38,6.27.1.08.21.17.31.25.26-.28.55-.53.78-.84,1.78-2.35,3.49-4.75,5.86-6.58.9-.69,1.84-.95,2.91-.8.33.05.64.3.96.46-.18.27-.33.58-.56.81-2.74,2.65-5.5,5.28-8.23,7.95-.49.48-.85,1.1-1.27,1.66.08.07.16.15.24.22,1.33-1.18,2.7-2.31,3.97-3.55,2.68-2.63,5.41-5.19,8.68-7.1,1.04-.6,1.86-1.55,3.25-1.31,1.02.18,1.32.45,1.17,1.51-.13.89.1,1.51,1.02,1.77.93.25,1.84.58,2.78.73,1.77.28,2.09.84,1.57,2.54-.26.84-.47,1.81-.3,2.64.34,1.65,0,3.18-.34,4.74-1.35,6.16-3.66,11.98-6.28,17.66-1.63,3.52-3.39,7.02-6.16,9.87-.36.37-.51.97-.67,1.5-1.06,3.56-1.98,7.17-3.18,10.68-.56,1.64-1.53,3.2-2.54,4.62-2.35,3.31-4.8,6.56-7.29,9.77-3.76,4.84-8.1,9.07-13.37,12.24-2.88,1.73-5.71,3.56-8.73,5.03-2.51,1.22-5.24,1.97-7.88,2.91-1.69.6-3.36,1.39-5.1,1.72-2.68.52-5.42.8-8.14,1.02-2.17.17-4.36.19-6.53.08-.91-.05-1.88-.48-2.68-.97-1.59-.98-3.13-2.05-4.6-3.21-.54-.42-.87-1.15-1.19-1.79-.94-1.9-1.78-3.86-2.76-5.73-.36-.69-.93-1.33-1.55-1.79-.36-.27-1.02-.14-1.54-.19-.08.07-.16.15-.24.23-1.8-3.71-3.97-7.32-3.07-11.87-.73.23-1.36.29-1.81.61-.32.22-.61.8-.58,1.19.1,1.31.18,2.66.58,3.9.66,2.05,1.56,4.02,2.35,6.02.12.31.24.61.4,1.01-.67-.4-1.22-.72-1.77-1.05l-.28.27c.4.85.75,1.74,1.21,2.56,1.18,2.1,2.74,3.7,5.05,4.75,1.3.59,2.18,2.11,3.12,3.35-1.45-.29-2.6-.96-3.52-2.11-.42-.53-1.11-.83-1.69-1.23-.08-.06-.2-.07-.29-.1Zm27.81,18.45c.87-.85,1.66-1.42,2.72-1.09,3.37,1.06,6.86.82,10.31.97.2,0,.41.02.61.13-4.49.88-8.97.83-13.63-.02Zm69.16-81.86c.08.29.13.58.14.87.07,1.43-.51,2.8-1.07,4.12-2.54,5.93-5.07,11.87-7.61,17.8-2.17,5.07-4.34,10.15-6.48,15.23-2.24,5.31-4.45,10.62-6.66,15.95-.93,2.25-1.68,4.64-3.13,6.58-1.37,1.84-2.75,3.64-4.34,5.29-6.36,6.57-14.79,10.91-23.59,13.18-11.96,3.08-24.98,1.84-36.15-3.43.46.05.99-.53.88-1.05-.14-.66-.79-1.05-1.38-1.37-2.03-1.1-4.05-2.19-6.08-3.29,2.24,1.21,6.09,1.29,8.59,1.71,3.1.53,6.22.97,9.34,1.31,2.57.28,5.74,1.06,8.21.23,5.16-1.75,10.47-3.05,15.56-4.98.14-.05.28-.11.42-.17,3.83-2.23,7.59-4.59,11.65-6.37,7.18-5.14,13.36-11.7,18.06-19.18,3.7-5.88,5.59-12.14,8.16-18.52,2.29-5.68,5.11-11.29,7.57-16.93,1.11-2.54,1.95-5.42,3.15-7.85,1.17-2.37,4.08-1.48,4.74.89Zm3.23-20.1c-.13.52-.71,1.09-1.23,1.32-1.38.62-2.83,1.06-4.25,1.61-.74.29-1.31.04-1.71-.56-.15-.23-.18-.7-.05-.93.76-1.27,1.99-1.89,3.39-2.18.8-.17,1.06-.58.99-1.4-.06-.71-.29-.93-1.01-.94-.84,0-1.67-.24-2.51-.37-.02-.09-.05-.18-.07-.27.4-.29.76-.65,1.2-.87.74-.38,1.53-.64,2.27-1.01,1.95-.95,2.89.2,3.32,1.95.28,1.12-.07,2.46-.36,3.65Z"/><path class="cls-2" d="m221.29,904.32c-6.58.36-12.24-2.15-17.66-5.43-1.25-.76-1.98-1.83-2.18-3.36-.18-1.4-.92-2.75-.99-4.14-.19-4.15.15-8.27,1.05-12.34,1.11-5.04,4.25-8.6,8.21-11.53,5.29-3.92,11.32-6.06,17.82-6.6,6.06-.5,11.42,1.29,15.69,5.88,1.95,2.1,3.69,4.33,4.92,6.94,1.18,2.5,1.08,5.16.89,7.79-.28,3.83-1.3,7.48-4.02,10.3-1.94,2.01-4.2,3.72-6.37,5.5-3.57,2.93-7.73,4.76-12.07,6.14-1.69.54-3.53.59-5.3.87Zm13.79-20.93c-2.62.16-5.25.16-7.84.52-1.69.23-3.27,1.01-3.83,2.94-.09.3-.3.56-.49.89-1.51-1.81-1.28-3.72.62-4.64,1.13-.55,2.41-.87,3.66-1.09.89-.16,1.7-.16,2.04-1.22.08-.24.43-.47.7-.58,2.64-.99,4.67-2.83,6.65-4.75.43-.42.85-.85,1.27-1.28-3.02.67-5.82,1.73-8.45,3.22-.39.22-.75.47-1.15.67-.86.43-1.82.72-2.58,1.28-3.27,2.39-5.77,5.5-8.03,8.82-.66.97-.49,1.32.62,1.61,2.45.63,4.87.44,7.29-.17.9-.23,1.86-.3,2.34-1.31.1-.2.44-.34.69-.41,2.67-.77,4.47-2.8,6.49-4.52Zm-19.55-15.1c.42.2.59.31.78.37,1.67.56,3.21.06,4.74-.57,4.16-1.74,8.48-2.19,12.93-1.7.26.03.71-.25.82-.5.55-1.28.17-1.83-1.34-2.06-4.8-.73-9.29.59-13.7,2.2-1.4.51-2.66,1.42-4.21,2.27Zm12.07,27.83c3.62.87,12.77-6.2,12.29-9.07-2.18,1.39-4.37,2.77-6.54,4.19-.38.25-.66.68-.97,1.04-.49.56-.88,1.24-1.46,1.68-1.01.77-2.12,1.39-3.32,2.16Zm-.1-4.29s-.02-.08-.03-.12c-.17,0-.33.02-.5.03-2.62.1-5.24.25-7.87.27-.77,0-1.54-.37-2.32-.5-.22-.04-.47.17-.71.27.12.22.2.48.37.65.37.36.74.75,1.19.98.48.24,1.03.36,1.57.41.59.06,1.2-.02,1.8-.02.73,0,1.53.22,2.17-.01,1.48-.54,2.89-1.29,4.32-1.95Zm-19.52-12.81c-.07-.03-.15-.07-.22-.1-.34.7-.81,1.37-1.01,2.11-.65,2.52-1.32,5.04-1.76,7.6-.21,1.23-.02,2.57.18,3.82.07.4.79.99,1.19.98.75-.02.58-.76.53-1.32-.17-1.97-.38-3.94-.47-5.92-.09-1.88-.05-3.75.91-5.48.29-.52.43-1.13.64-1.7Zm13.97-4.39c-1.04.94-2.27,1.73-3.07,2.84-1.66,2.3-3.14,4.75-4.6,7.19-.71,1.19-1.26,2.48-1.8,3.76-.23.54-.26,1.17-.38,1.76,2.74-5.58,6.25-10.53,9.85-15.54Zm23.25,9.06c.07-.19.15-.37.2-.57.73-2.94.33-5.88-.13-8.8-.05-.34-.35-.67-.6-.94-.77-.84-1.57-1.65-2.37-2.47-.32-.33-.66-.66-.99-.98-.1.05-.21.11-.31.16,2.87,4.1,4.92,8.43,4.2,13.6Zm-11.51-12.26c.54-1.98-.05-2.9-1.75-2.94-1.71-.04-3.46.04-5.14.32-.72.12-1.33.89-1.99,1.36.08.15.15.29.23.44.68-.17,1.34-.4,2.03-.5,1.56-.23,3.12-.46,4.69-.56.33-.02.74.46,1.05.77.33.33.59.74.89,1.11Zm6.7,4.38c-2.04,1.75-3.91,3.36-5.88,5.06,3.54,1.11,5.88-2.52,5.88-5.06Zm-17.54,23.34c.02-.14.05-.27.07-.41-3.58-.51-7.16-1.02-10.88-1.56,3.44,2.06,7.19,1.63,10.81,1.97Zm2.27-22.2c1.86-.96,3.72-1.91,5.56-2.91.23-.12.3-.54.45-.82-.28-.07-.56-.19-.83-.18-.3.02-.59.16-.88.27-1.85.68-3.1,2.12-4.29,3.64Zm11.99,8.46c.07.09.14.17.22.26,1.45-1.35,2.92-2.67,4.33-4.06.2-.19.11-.68.16-1.09-1.65,1.72-3.18,3.31-4.7,4.89Zm-18.72,15.86c-2.39-.52-4.78-1.05-7.17-1.57,2.21,1.42,4.65,1.71,7.17,1.57Zm-7.87-8.37c-.06.09-.13.18-.19.27.51.98,1.24,1.54,2.74,1.36-1.01-.65-1.78-1.14-2.55-1.63Zm27.59-21.85c-.5-.29-.81-.61-1.01-.55-.29.09-.48.46-.72.72.26.16.53.45.8.45.24,0,.48-.3.93-.62Z"/><path class="cls-2" d="m354.34,289.85c-.09-.29-.11-.59-.17-.89-.45-2.1-1.3-3.94-2.99-5.37-1.58-1.34-3.25-2.4-5.4-2.46-.54-.02-1.07-.14-1.64-.22.61-2.17-.17-3.75-1.69-5.01-.61-.51-1.35-.9-2.08-1.25-.54-.26-.62-.49-.43-1.06.84-2.58.55-3.45-1.16-4.9-.88-.74-1.06-.63-.49-1.95.71-1.64.42-2.55-.98-3.64-1.51-1.18-3.17-1.86-5.12-1.93-1.52-.05-1.52-.15-1.75-1.65-.17-1.13-.25-2.3-1.01-3.22-.56-.67-1.27-1.21-1.86-1.85-1.12-1.23-2.47-2.13-3.98-2.76-1.19-.5-2.4-1.14-3.65-1.28-1.73-.19-3.52,0-5.27.1-1.04.06-1.08.09-1.31-.89-.03-.14-.07-.27-.13-.4-1.19-2.51-3.08-4.17-5.84-4.71-1.09-.21-2.21-.29-3.32-.41-3.87-.44-6.37,1.57-8.3,4.61-.05.08-.1.16-.12.25-.11.48-.21,1,.35,1.26.62.29,1.1.05,1.43-.49,1.07-1.75,2.37-3.2,4.5-3.68,1.74-.39,3.46-.3,5.2-.13,1.74.17,2.96,1.02,3.62,2.64.32.79.66,1.59.9,2.4.44,1.5,1.51,2.06,2.9,1.4.83-.39,1.66-.58,2.56-.49.32.03.65.02.98,0,1.76-.13,3.42.2,4.97,1.06.73.41,1.44.86,2.17,1.25,2.55,1.38,3.78,4.77,2.71,7.48-.07.17-.09.42-.02.58.53,1.36,1.05,1.61,2.4,1.1,1.57-.59,3.17-.51,4.74-.11,1.51.38,1.83,1.3,1.02,2.62-.11.18-.22.36-.32.54-.37.64-.28,1.23.27,1.69.51.43,1.11.77,1.63,1.18.22.17.46.41.53.66.23.79.27,1.59-.13,2.37-.25.5-.48,1.01-.68,1.53-.35.9-.16,1.35.76,1.66.7.24,1.43.39,2.15.57,1.13.28,2.02,1.28,1.87,2.43-.11.82-.58,1.58-.87,2.37-.12.33-.33.71-.26,1.01.2.86,1,1.37,1.89,1.31,1.04-.07,2.1-.07,3.13-.25,2.64-.46,5.47,2.36,5.5,4.54,0,.41.1.85.29,1.21.43.81.5,1.67.3,2.51-.19.83-.56,1.62-.88,2.41-.75,1.85-.96,1.9-2.55.74-1.37-1-2.87-1.76-4.54-2.05-3.1-.54-5.95.27-8.61,1.85-.31.19-.84.32-.61.85.22.53.59.97,1.24.97.27,0,.57-.07.8-.21,1.44-.85,3.02-1.32,4.65-1.59,2.58-.43,4.99-.03,6.82,2.04,2.43,2.74,2.23,5.44-1.04,7.75-.43.3-.53.59-.35,1.05.29.74.85,1.19,1.52,1.57.73.41,1.39,1.61,1.16,2.14-.47,1.1-1.06,2.11-1.94,2.95-.59.56-1.17.89-2,.57-.13-.05-.52.17-.52.25.03.51-.3.6-.67.72-.71.22-.8.69-.21,1.14.26.2.62.3.95.4.45.13.92.17,1.36.32.24.08.45.29.67.44-.17.19-.33.4-.52.57-.14.12-.31.2-.47.29-.44.25-.54.6-.35,1.06.55,1.4.11,2.99-1.14,3.78-.62.39-.73.84-.61,1.52.11.58.22,1.28,0,1.78-.58,1.31-1.33,2.55-2.04,3.8-.11.19-.38.36-.6.41-1.18.25-1.2.26-.81,1.42.1.29.25.55.34.84.06.19.17.46.09.59-.7,1.16-1.1,2.5-2.36,3.3-1.16.74-2.37,1.04-3.71.97-.56-.03-.64.24-.53.68.05.18.13.35.22.51.47.83.45.83-.31,1.42-2.04,1.56-4.37,2.54-6.74,3.44-1.06.4-2.18.65-3.27.96-2.24.63-4.53.37-6.8.25-.78-.04-1.6-.2-2.3-.51-2.94-1.32-5.42-3.25-7.17-6.01-1.39-2.2-2.89-4.36-2.88-7.13,0-.24-.13-.49-.22-.73-.36-.98-.27-1.3.71-1.56,1.37-.36,2.76-.6,4.15-.85.17-.03.44.14.56.3.58.76,1.17,1.51,1.67,2.32.9,1.47,2.24,2.04,3.89,2,.51-.01,1.02-.08,1.51-.2.17-.04.29-.31.44-.48-.16-.14-.31-.35-.5-.4-.33-.1-.69-.1-1.03-.14-1.46-.16-2.68-.65-3.34-2.12-.28-.62-.81-1.13-1.16-1.73-.5-.86-.97-1.74-1.37-2.64-.13-.3-.05-.73.05-1.07.46-1.62,1.59-2.69,3.01-3.51.68-.39.78-.7.32-1.33-.27-.37-.69-.63-.96-1.01-.51-.71-1.21-1.4-1.37-2.2-.36-1.74.17-3.32,1.6-4.49,1.46-1.2,2.88-2.49,4.92-2.53.44,0,.87.21,1.32.3.42.08.86.21,1.26.14.6-.1.73-.57.29-1-.75-.73-1.58-1.27-2.7-1.24-1.37.04-2.68.12-4.03.55-1.49.48-2.6,1.33-3.57,2.43-2.04,2.31-2.19,4.46-.55,7.07.35.56.79,1.08,1.21,1.65-.25.22-.52.48-.81.7-2.04,1.49-2.5,3.55-2.11,5.89.08.5-.06.6-.47.69-3.66.75-7.21,1.81-10.52,3.57-.11.06-.25.07-.38.11-.02-.05-.05-.1-.07-.16-.96.39-1.92.77-2.88,1.16-2.3.94-4.56,1.94-6.77,3.04-2.46,3.13-4.37,7.42-7.61,9.74-1.11,1.34-2.23,2.66-3.34,3.97-1.26,1.94-2.71,3.81-4.46,5.32-2.25,2.78-4.07,5.86-6.23,8.68-1.34-1.29-2.04-3.37-2.88-5.03-.65-1.27-.95-1.6-2.16-2.24-1.28-.67-2.55-1.37-3.82-2.05-3.4-1.83-6.8-3.65-10.09-5.68-1.67-1.04-3.29-2.15-4.9-3.27.96-.68,2.33-.69,3.3-.03,7.82-6.16,14.13-14.15,18.51-23.08.48-.97,1.18-1.88,1.56-2.88.56-1.49.94-3.08,1.4-4.6.93-3.07,1.87-6.13,2.8-9.2-4.06,11.21-9.97,21.74-17.41,31.05l5.75-9.65-21,20.08c1.36,0,2.83.47,3.58,1.61s.37,3-.94,3.4c-.88.27-1.87-.21-2.41-.97s-.68-1.72-.64-2.65c.1-2.62,1.52-5.04,3.33-6.95s4.01-3.38,6.09-4.97c7.6-5.81,13.83-13.38,18.13-21.92.97-1.93,1.85-3.91,2.62-5.93.84-2.21,1.87-4.5,1.52-6.93-.27-1.84-1.59-3.64-3.43-3.89.64-.78.15-2.04-.69-2.61s-1.89-.69-2.87-.94c-3.97-1.03-7.09-4.73-7.43-8.82s2.13-8.26,5.88-9.92c-1.41-.87-3.32-.64-4.7.28s-2.29,2.41-2.83,3.98c-1.62,4.65-.08,10.22,3.69,13.39,2.55,2.14,6.03,3.29,7.85,6.08,1.37,2.09,1.54,4.79.97,7.22s-1.81,4.64-3.13,6.77c-5.15,8.31-11.66,15.77-19.18,22.02-3.22,2.67-6.84,5.43-7.89,9.49-1.05,4.05.81,8.31,3.32,11.66,5.54,7.38,14.57,12.01,23.79,12.22,1.65.04,3.35-.07,4.83-.79,1.69-.81,2.07-2.06,2.9-3.56s2.1-3.08,3.16-4.54c1.31-1.81,2.76-3.51,4.14-5.26.5-.64,1.04-1.26,1.47-1.94,2.51-4,5.75-7.37,9.28-10.45,3.19-2.78,6.64-5.24,10.4-7.24,1.43-.76,2.88-1.51,4.39-2.11,1.19-.47,1.33-.29,1.41.98.07,1.14.17,2.28.78,3.29,1.68,2.76,3.38,5.49,5.66,7.84,2.29,2.37,5.04,3.9,8.23,4.37,4.17.61,8.29.12,12.24-1.51,2.53-1.04,4.72-2.58,6.83-4.28.19-.16.41-.36.49-.58.39-1.17,1.35-1.72,2.35-2.25,1.97-1.04,2.9-2.85,3.11-4.92.12-1.21.55-2.13,1.28-2.98,1.3-1.54,2.08-3.24,1.87-5.3-.06-.58.12-1.01.58-1.39,1.11-.92,1.63-2.1,1.55-3.57-.02-.39.09-.9.33-1.16.73-.77.61-1.54.23-2.37-.17-.37-.13-.63.18-.92,1.05-1.01,1.91-2.15,2.46-3.51.4-.99.47-1.95-.24-2.82-.44-.54-.91-1.05-1.39-1.56-.36-.39-.35-.69.07-1.05,1.81-1.57,2.98-3.39,2.1-5.93-.08-.24-.08-.51-.17-.75-.21-.59-.22-1.08.47-1.37.18-.07.33-.27.43-.45,1.12-2.12,2.15-4.26,1.38-6.77Zm-108.85,48.25c.06.08.13.16.19.24-.47.31-.93.62-1.4.93-.05-.07-.09-.13-.14-.2.45-.32.9-.65,1.35-.97Zm14.57,18.68c.35.64.61,1.12.9,1.64-1.07.08-1.33-.35-.9-1.64Zm-16.81-11.44c.92.54,1.8,1.12,2.8,1.76-.48.12-.81.23-1.14.27-.26.03-.58.03-.78-.1-.5-.32-1-.69-1.41-1.12-.18-.18-.14-.57-.21-.86.25.02.55-.05.75.06Zm-1.55,2.63c.16,0,.31.34.47.52-.36.18-.71.36-1.07.55-.04-.06-.08-.13-.12-.19.13-.38.14-.89.72-.87Zm.56,5.56c-.08,0-.19-.05-.24-.11-.58-.68-1.14-1.36-1.71-2.04l.07-.2c.75.15,1.04-.23,1.3-.84.13-.3.62-.47.98-.62.06-.02.34.39.45.64.21.48.42.98.54,1.49.15.62-.76,1.68-1.39,1.68Zm14.54,6.2c-.12.47-.34.52-.75.44-1.34-.25-2.58-.72-3.71-1.49-.19-.13-.42-.22-.63-.33-.07.07-.15.14-.22.21.34.55.69,1.11,1.06,1.7-3.69-.88-6.3-3.45-9.27-5.45.85-.07,1.64-.13,2.53-.2.05-.34.09-.75.16-1.15.09-.52.45-.72.95-.74.47-.02.7.24.75.65.03.18-.04.41-.14.57-.35.57-.73,1.12-1.12,1.66-.23.32-.35.62,0,.92.39.33.75.93,1.35.59.55-.31.97-.27,1.49,0,.25.12.6.13.89.08.21-.03.48-.2.57-.38.07-.14-.04-.47-.18-.59-.4-.34-.32-.69-.03-.96.59-.55,1.23-1.05,1.87-1.54.11-.09.33-.03.5-.04,0,.18.05.39-.03.52-.31.52-.68,1-.99,1.51-.2.33-.49.7-.1,1.07.37.36.68.86,1.35.6.46-.18.71-.04.77.53.09.84,1.33,1.31,1.92.71.68-.69,1.25-1.49,1.87-2.24-.08-.03-.17-.06-.25-.08,0-.29.02-.58,0-.86-.01-.17-.05-.37-.15-.49-.23-.26-.49-.49-.76-.71-.43-.35-.89-.55-1.36.06-.21-.29-.41-.51-.55-.76-.61-1.07-1.54-1.13-2.66-.7-.32.12-.6.35-.91.5-.21.1-.45.16-.67.24-.05-.05-.1-.1-.15-.15.13-.27.22-.58.39-.81.55-.75.49-1.41-.22-2.35-.35-.47-.82-.46-1.3-.19-.22.12-.41.37-.64.41-.36.06-.8.1-1.11-.06-.16-.08-.09-.6-.12-.92-.02-.25,0-.5-.04-.74-.04-.26-.11-.52-.22-.99.49.28.8.46,1.11.64,2.71,1.62,5.45,3.18,8.11,4.89,1.19.77,2.22,1.81,3.28,2.75.12.11.15.53.05.65-.67.76-1.4,1.46-2.1,2.2-.23.24-.49.52-.57.82Zm-8.43-8.81c.28-.2.62-.31.95-.41.1-.03.25.08.36.13-.29.45-.51.84-.81,1.16-.06.06-.49-.15-.66-.32-.07-.08.02-.46.15-.55Zm13.74,11.56c-1.04,0-2.09-.07-3.13-.12l.04-.21c.82-.29,1.63-.59,2.5-.9-.05-.41-.11-.83-.19-1.42.26.19.44.25.48.37.22.58.43,1.16.58,1.76.04.15-.18.52-.27.52Z"/><path class="cls-2" d="m267.78,286.16c1.09.38,1.1.32,1.12,1.53.04,2.11.61,3.99,2.35,5.37.14.11.24.26.44.48-.33.11-.56.22-.79.25-1.14.12-2.04-.35-2.75-1.21-.48-.58-1.05-.88-1.82-.67.17,1.6,1.95,3.09,3.7,3.3,1.23.14,2.43.09,3.65-.07,1.5-.2,2.19.6,1.95,2.35-.03-.04-.06-.08-.08-.12,1.66,3.88,3.15,7.89,3.25,12.02.06-.06.11-.11.17-.17,1.89-1.92,3.86-3.76,5.81-5.63.66-.64.74-.63,1.44-.04.51.43.77.66.84.87.91,0,1.84.41,2.4,1.2,1.33.1,2.67.15,4,.07.83-.05,1.5-.06,1.95.76.21.38.5.73.79,1.06.33.37.24.6-.13.9-1.58,1.28-3.14,2.58-4.69,3.88-1.63.71-2.65,2.18-2.58,3.66.06,1.05.64,1.79.92,2.1.42-.2.83-.4,1.25-.59,3.29-1.53,6.79-2.2,10.33-2.74.99-.15,1.9-.51,2.71-1.16.45-.36,1.11-.51,1.7-.65.6-.15,1.24-.16,1.86-.25.7-.1.93-.52.72-1.27-.66,0-1.33,0-2,0-.4,0-.62-.13-.6-.56.02-.46-.22-.63-.66-.73-1.15-.27-2.28-.61-3.42-.91-2.22-.59-3.82-1.96-4.88-3.97-.1-.19-.03-.5.05-.73.11-.29.31-.55.48-.82-.04-.05-.09-.09-.13-.14-1.28.41-2.48-.58-3.9.06-.9.41-2.21.12-3.29-.08-3.08-.58-4.53-2.6-4.15-5.71.26-2.13.97-4.11,2.35-5.81.12-.14.24-.29.32-.46.41-.84.11-1.34-.79-1.41-.58-.05-1.15-.18-1.73-.2-.38-.02-.82-.01-1.13.17-.85.51-1.65,1.11-2.46,1.7-2.66,1.92-5.52,2.32-8.59,1.13-.23-.09-.46-.25-.61-.45-1.31-1.76-1.97-3.66-1.25-5.87.26-.8.09-1.21-.71-1.44-.75-.22-1.56-.25-2.31-.47-.6-.18-1.3-.4-1.7-.84-.66-.73-1.2-1.61-1.64-2.49-1.02-2.06-.77-4.25-.5-6.44.22-1.74.91-3.17,2.3-4.3,1.16-.94,2.46-1.32,3.89-1.54,3-.47,5.91-.48,8.64,1.13.25.15.75-.06,1.1-.19.08-.03.07-.45.01-.66-.53-1.92,1.25-4.32,3.24-4.36,1.19-.02,2.26.22,3.28.92,1.03.71,1.66,1.57,1.82,2.78.06.45.29.6.71.57,1.03-.07,1.45-.97.93-1.92-1.64-2.98-5.42-4.44-8.53-3.95-1.95.31-3.46,1.7-3.64,3.91-.04.54-.32.54-.7.47-.87-.17-1.72-.39-2.6-.52-2.42-.37-4.83-.12-7.23.18-.74.09-1.55.31-2.16.73-2.72,1.85-3.7,4.71-4.03,7.78-.29,2.65.65,5.05,2.15,7.2.9,1.3,2.01,2.46,3.56,3Zm30.68,23.89c.4.14.8.29,1.21.4,1.03.27,2.05.53,3.09.77.35.08.72.1,1.08.15,0,.07,0,.14.01.21-.16.06-.32.15-.49.16-1.48.12-2.96.23-4.44.34-.4.03-.64-.15-.61-.56.03-.5.1-.99.15-1.49Zm-1.93.43c.14.48.17.87.36,1.17.36.56.19.8-.39.9-.95.17-1.89.34-2.84.5-.04-.09-.07-.18-.11-.26.98-.76,1.95-1.52,2.98-2.31Zm-12.62-16.76c-.14,1.52-.32,2.92-.37,4.32-.03.82.2,1.65.25,2.48.02.31-.06.72-.26.94-.85.95-1.77,1.84-2.65,2.76-.24.25-.44.54-.7.77-.39.35-.66.24-.78-.24-.34-1.35-.7-2.7-1.05-4.05-.29-1.12-.58-2.25-.88-3.37-.14-.53-.28-1.06-.45-1.72,2.49-.08,4.91-.23,6.89-1.91Z"/><path class="cls-2" d="m291.84,244.44c1.76.06,3.48.3,4.96,1.37.21.15.44.58.37.74-.17.36-.52.35-.95.2-2.1-.72-4.21-1.32-6.2.31-.16.13-.35.23-.53.33-2.37,1.34-3.32,3.26-3.01,5.98.12,1.08.34,2.1,1.05,2.98.34.42.14.81-.41.76-.54-.05-1.09-.21-1.58-.45-.56-.27-1.1-.63-1.56-1.05-1.62-1.45-3.58-1.61-5.58-1.44-2.96.26-4.89,1.93-5.74,4.73-.5,1.66-.8,3.38-1.16,5.07-.11.49-.57,1.01-1.01,1.01-.42,0-1.06-.66-1.1-1.21-.03-.39.02-.79.1-1.17.26-1.23.53-2.45.84-3.67.14-.57.06-1.02-.47-1.32-.61-.34-1.21-.69-1.84-.99-.19-.09-.48-.12-.67-.05-1.69.64-3.39,1.26-5.04,2-.89.4-1.38,1.18-1.76,2.13-1.03,2.59-1.52,5.25-1.5,8.01,0,.64-.39.77-.9.81-.62.04-1.12-.3-1.15-.94-.05-1.04-.13-2.11.03-3.13.25-1.6.65-3.18,1.03-4.76.68-2.85,2.68-4.33,5.34-5.16,2.44-.76,4.82-.99,7.15.36.54.31,1.01.25,1.23-.48.08-.26.33-.51.56-.68,3.02-2.3,6.33-3.01,9.99-1.82.11.04.22.07.33.1,1.21.36,1.11.35,1.3-.86.22-1.4.72-2.75,1.59-3.91.95-1.28,2.04-2.46,3.46-3.19.84-.43,1.83-.55,2.76-.81.02.06.04.12.05.17Z"/></svg>