<?xml version="1.0" encoding="UTF-8"?>
<svg id="Ebene_2" data-name="Ebene 2" xmlns="http://www.w3.org/2000/svg" width="1534" height="688.16" viewBox="0 0 1534 688.16">
  <defs>
    <style>
      .cls-1 {
        fill: #fff;
      }

      .cls-2 {
        fill: #cef2c7;
      }
    </style>
  </defs>
  <rect id="Rectangle_1368" data-name="Rectangle 1368" class="cls-1" y="-111.84" width="1534" height="800"/>
  <path id="Path_2883" data-name="Path 2883" class="cls-2" d="M319.71,134.38c7.39,5.34,14.41,9.35,20.1,14.77,10.19,9.7,14.74,22.44,15.5,36.28,1.18,21.49,.45,43.1-6.62,63.51-4.41,12.33-10.48,24.01-18.05,34.7-30.16,43.15-73.83,58.43-124.54,59.04-41.7,.5-73.66-16.58-96.02-51.52-10.82-16.9-12.61-36.47-11.6-55.54,.77-14.53,4.92-29.22,9.63-43.14,6.44-19.01,21.29-30.76,39.28-38.7,2.21-.98,4.53-1.73,6.56-2.5-6.05-17.87-9.46-36.64-26.64-48.13l1.36-2.57c4.24,.43,8.81,0,12.67,1.46,15.46,5.76,29.19,15.36,39.91,27.9,5.77,6.63,14.65,10.54,23.98,16.96,1.26-7.15,1.59-11.43,2.81-15.44,3.12-10.19,6.17-20.45,10.21-30.28,1.97-4.8,5.1-10.03,12.17-9.01,1.04,.07,2.05-.35,2.72-1.13,3.13-5.23,7.83-3.6,9.67-.39,1.69,2.95,1.85,9.04-.12,11.43-8.23,9.99-12.92,21.3-15.51,33.81,12.85-19.13,38.37-31.11,32.86-60.73,8.52-.13,11,5.31,11.76,11.39,1.41,11.36,.29,22.46-5.64,32.67-1.73,2.98-3.12,6.17-4.85,9.64,23.32,4.15,43.54,1.77,58.51-17.86,1.05-1.38,3.96-2.59,5.38-2.1,1.35,.48,2.85,3.45,2.59,5.05-.78,4.48-2,8.88-3.64,13.13-.91,2.46-2.74,4.58-4.45,7.31m-190.1,65.86c.62,.73,1.24,1.47,1.85,2.2-1.75,8-4.11,15.93-5.08,24.03-1.03,8.16-1.22,16.41-.57,24.61,.52,6.04,2.69,12.05,4.87,17.79,2.81,7.4,7.02,14.32,9.45,21.82,3.6,11.09,5.68,20.2,18.27,22-1.23-2.57-2.24-4.67-3.23-6.78-8.34-17.72-21.34-33.3-24.13-53.57-2.31-16.78-2.18-33.39,3.64-49.44,2.6-7.18,13.16-10.39,18.4-6.96-2.26,3.32-5.06,6.39-6.67,9.99-8.89,19.93-7.38,40.04-.12,60.03,.66,1.82,2.75,3.2,4.36,4.58,2.24,1.92,4.78,3.49,6.96,5.47,6.62,6.04,13.09,12.24,19.7,18.3,4.42,4.06,8.97,7.98,14.11,12.54l-11.95,6.26c13.59,4.58,25.05,8.78,36.72,12.27,15.06,4.51,30.9,7.07,45.85,2.02,20.8-7.03,37.76-21.18,53.22-36.27,7.6-7.41,12.09-18.05,17.83-27.32,9.6-15.52,12.93-32.74,11.12-50.52-1.55-15.22-5.2-30.22-7.7-45.35-1.74-10.55-8.91-17.43-16.09-24.17-2.2-2.07-6.22-4.17-8.78-3.57-14.55,3.37-29.82,3.36-43.34,11.86-7.56,4.75-17.29,8.17-26.11,8.32-13.88,.24-25.87,3.06-37,11.52-9.79,7.44-21.07,11.1-33.79,11.08-6.85-.06-13.62,1.46-19.79,4.46-9.75,5.02-19.44,8.82-30.5,8.29-4.63-.22-6.5,1.99-7.95,6.36-7.65,22.9-6.89,45.84-1.27,68.92,2.52,10.36,5.27,12.98,16.74,16.02-.42-1.19-.72-2.22-1.13-3.2-10.6-25.1-10.23-50.78-3.7-76.66,.66-2.63,3.82-4.63,5.81-6.93m78.52-37.14c-1.17-8.93-5.41-13.18-11.29-15.49-11.23-4.4-19.97-11.36-27.94-20.58-6.6-7.64-16.03-12.82-23.92-18.87,4.23,11.11,8.09,21.33,12.01,31.53,2.76,7.16,7.97,13.32,15.47,12.52,12.92-1.38,23.53,2.71,35.68,10.88m-73.71,25.05c13.88-8.36,29.03-9.78,44.43-11.33,7.33-.74,14.29-5.17,22.73-8.43-6.76-7.1-11.53-11.28-19.49-7.13-3.83,2-8.34,2.68-12.51,4.07-13.63,4.57-25.62,11.75-35.16,22.82m99.95-32.53c9.67,3.96,17.41-.35,24.51-4.58,12.22-7.28,24.78-12.6,39.2-13.4,3.37-.19,6.61-2.8,10.05-4.36-11.86,.71-23,2.55-33.94,1.72-14.44-1.09-31.32,6.37-39.82,20.61m-64.24,2.13c-8.12-4.8-16.34-1.05-24.05,3.92-10.2,6.57-20.43,13.29-25.99,25.38l50.04-29.3m61.54-61.06c-15.06,17.53-17.35,37.45-17.85,59.33,1.28-1.65,1.83-2.04,1.91-2.51,2.72-17.77,7.51-34.75,17.54-50.01,.88-1.34-.99-4.5-1.59-6.81m-49.85,226.21l-18.63-23.39,6.18-1.3c-2-1.62-3.83-3.53-6.03-4.79-2.93-1.66-6.15-2.81-10.82-4.88,4.45,8.81,9.5,15.7,11.4,23.38,2.24,9.05,6.94,11.92,17.91,10.97m49.44-180.9l2.16,1.53c14.12-9.57,26.73-20.31,29.05-39l-31.21,37.48m-21.18,190.08l.84-2.71-16.21-5.62c-.34,1.07-.69,2.13-1.03,3.2l16.4,5.14"/>
  <g>
    <path id="Path_2886" data-name="Path 2886" class="cls-2" d="M1347.73,164.48c-2.07-3.23-3.45-7.23-4.74-11.32-1.89-6.03-3.41-12.17-4.56-18.38-.74-4.24-.89-8.57-.45-12.85,.25-2.87,.26-5.82,1.01-8.56,1-3.7,2.64-7.22,3.96-10.84,1.2-3.27,2.32-6.56,3.54-9.82,.18-.46,.54-.83,.99-1.03,1.42-.5,2.58-.1,3.91,.78,4.42,2.92,8.3,6.48,12.26,9.95,3.66,3.2,7.34,6.4,10.8,9.82,1.92,1.89,3.38,4.24,5.06,6.37,.52,.77,1.13,1.48,1.8,2.12,2.46,1.98,3.9,4.63,5.14,7.43,.39,.98,.84,1.94,1.33,2.86,2.34,4,2.93,8.46,3.6,12.92,.85,5.46,.96,11.01,.33,16.51-.17,1.81-.62,3.58-1.34,5.24-1.74,3.89-4.73,7.09-8.5,9.07-3.68,1.94-7.39,3.8-11.68,3.77-3.13-.09-6.22-.77-9.1-2.01-5.76-2.31-10.07-6.27-13.36-12.04m20.44,10.19l.27-.42c-.4-.54-.83-1.04-1.31-1.5-3.63-3-6.08-7.18-6.93-11.81-1.37-6.42-1.97-12.82-.96-19.32,.04-.84,.63-1.55,1.44-1.76,2.4-.64,5.69,1.76,5.6,4.25-.25,4.88,.6,9.75,2.47,14.25,.59,1.38,1.38,2.67,1.98,4.04,1.36,3.16,3.33,5.72,6.52,7.26,1.4,.67,1.67,.74,2.62-.49,2.17-2.7,3.71-5.84,4.53-9.21,1.47-6.64,1.4-13.54-.21-20.15-1.31-6.3-3.94-12.24-7.73-17.44-2.84-3.75-5.69-7.48-9.49-10.39-2.63-2.02-4.99-4.38-7.5-6.56-3.25-2.82-6.52-5.6-9.79-8.4-.77-.66-1.24-.31-1.26,.55,0,1.13,.07,2.26,.19,3.38,.07,.91,.33,1.58,1.52,1.33,.45-.04,.89,.08,1.26,.33,1.36,.86,2.66,1.83,4.02,2.69,4.53,2.71,7.6,7.32,8.34,12.55,.32,2,.72,3.99,1.04,5.99,.07,.98,.69,1.84,1.6,2.21,1.8,.81,3.61,1.88,4.01,3.97,.52,2.71,1.98,4.84,3.48,7.02,.47,.66,.81,1.4,1,2.19,.57,2.5,.52,5.1-.14,7.58-.75,2.6-.63,5.37,.35,7.89,.83,1.62,1.77,3.19,2.82,4.67-.68,.01-1.47,.28-1.9-.01-1.33-.71-2.39-1.84-3.02-3.21-1.27-3.3-1.36-6.71-1.37-10.17,0-2.27-.17-4.53-.5-6.78-.27-1.01-.72-1.95-1.34-2.79-.79-1.31-2-2.45-2.43-3.85-.67-2.17-1.55-3.88-3.72-4.92-1.92-.91-3.17-2.82-3.24-4.94-.17-2.39-.6-4.75-1.29-7.04-1.69-5.15-5.77-8.49-9.64-11.93-.07-.06-.23-.03-.65-.08,.03,1.07,0,2.08,.08,3.09,.26,3.27,.56,6.54,.86,9.81,.06,.32,.15,.63,.29,.93,.86,2.44,1.75,4.88,2.59,7.34,.47,1.39,.37,1.57-1.12,1.85-.84,.16-1.18,.6-.9,1.35,.66,1.83,1.36,3.64,2.11,5.43,.5,1.19,1.2,2.3,1.67,3.5,.16,.4,.06,1.24-.21,1.41-.67,.42-1.04-.18-1.38-.75-.66-1.11-1.36-2.2-2.1-3.26-1.49-2.14-2.99-4.24-3.38-6.93-.23-1.61-.58-3.2-1.05-4.75-.43-1.15-.93-2.27-1.51-3.35l-.48,.06c-.14,.67-.24,1.35-.3,2.04,.07,.77,.11,1.53,.1,2.3-.43,2.19-.43,4.45,.02,6.64,.09,.48,.13,.97,.12,1.45,.01,5.04,.96,10.04,2.79,14.73,1.35,3.09,2.51,6.25,3.47,9.48,.73,2.62,1.77,5.14,3.1,7.51,1.99,3.6,4.38,6.82,7.93,9.07,2.06,1.31,4.38,1.52,6.63,2.07"/>
    <path id="Path_2887" data-name="Path 2887" class="cls-2" d="M1238.95,213.71c-.13-1.08-.31-2.15-.56-3.21-.15-.68-.52-1.3-1.04-1.77-2.92-2.03-5.91-3.95-8.88-5.9-5.59-3.67-11.22-7.3-16.78-11.02-4.9-3.28-8.78-7.64-12.42-12.21-2.67-3.36-5.26-6.78-7.77-10.26-2.24-3.1-3.65-6.5-3.44-10.48,.24-4.55,.66-9.05,2.32-13.32,.63-1.82,1.48-3.55,2.54-5.15,3.57-5.01,7.85-9.35,13.78-11.42,4.7-1.56,9.74-1.74,14.54-.51,8.41,1.94,13.97,6.98,17.73,14.72,3.17,6.63,4.64,13.95,4.28,21.29-.33,10.46-.79,20.9-.99,31.36-.07,3.72-.77,7.45,.22,11.2,.56,2.12-1.63,6-3.53,6.69m-5.42-14.17c1.93,.6,2.13-.41,2.17-1.59,.13-3.23,.24-6.46,.42-9.68,.33-5.96,.76-11.92,1.06-17.89,.16-3.18,.18-6.36,.15-9.54-.05-5.26-.24-10.55-2.2-15.51-1.14-2.59-2.47-5.1-3.96-7.5-2.24-3.94-7.21-5.4-11.23-3.29-1.33,.68-2.59,1.5-3.74,2.45-4.41,3.79-7.97,8.05-7.14,14.45,.49,3.76,.88,7.53,1.45,11.28,.38,2.47,.96,4.91,2.57,6.98,.29,.61,.47,1.27,.52,1.95-.9,.2-2.05,.85-2.65,.52-1.87-1.05-4.02-2.13-5.17-3.82-2.26-3.33-4.22-7.01-4.15-11.22,.07-4.32,.48-8.63,.75-13.3-.12,.33-.15,.48-.22,.61-.17,.29-.32,.59-.46,.9-1.44,3.94-2.03,8.03-.95,12.07,1.23,4.9,2.81,9.7,4.72,14.38,2.17,5.08,4.99,9.88,7.59,14.76,.62,1.17,1.29,2.54,2.33,3.22,4.06,2.67,8.28,5.09,12.43,7.61,1.11,.67,2.17,1.41,3.28,2.1,1.32,.82,2.65,1.61,3.98,2.41l.36-.44-1.92-1.91m-34.4-31.09c-1.12,1.61-1.15,2.97-.02,4.37,1.38,1.72,2.68,3.5,4.03,5.25,.17,.16,.37,.3,.58,.41-1.55-3.38-3.03-6.62-4.59-10.02"/>
    <path id="Path_2888" data-name="Path 2888" class="cls-2" d="M1325.82,242.55c.2,6.8-2.34,12.84-5.28,18.7-1.02,2.04-2.74,3.77-4.32,5.47-3.51,3.78-8.36,3.83-12.99,4.39-5.82,.7-10.71-1.53-14.87-5.31-2.19-1.96-3.45-4.74-3.48-7.68-.03-1.41-.45-2.82-.43-4.23,.06-1.7,.23-3.39,.52-5.06,.61-4.22,1.91-8.31,3.85-12.11,1.66-3.24,2.99-6.74,5.15-9.61,5.33-7.06,10.98-13.91,18.66-18.66,.57-.39,1.08-.86,1.51-1.4,.29-.49,.92-.65,1.41-.36,.06,.04,.12,.08,.17,.12,1.38,.94,2.38,2.34,2.83,3.95,.74,2.59,1.81,5.09,2.75,7.62,.11,.22,.21,.44,.29,.67,1.5,5.96,3.58,11.8,3.75,18.04,.05,1.82,.31,3.63,.47,5.45m-9.47-2.48c0-.47,.03-.94,0-1.4-.01-1.66-.16-3.31-.43-4.95-.92-3.38-.97-6.94-.17-10.35,.89-3.42,1.12-6.7-.74-9.9-.38-.66-.68-.87-1.27-.32-1.88,1.73-3.87,3.35-5.59,5.22-1.84,1.99-3.41,4.22-5.12,6.32-2.95,3.46-5.53,7.21-7.72,11.19-2.6,4.97-4.08,10.32-5.69,15.63-.85,3.08-.86,6.32-.03,9.4,.37,1.82,1.5,3.4,3.11,4.34,2.32,1.31,4.77,2.27,7.52,2.04,1.78-.15,3.56-.25,5.32-.54,.79-.16,1.52-.51,2.13-1.03,2.6-2.11,3.64-5.08,3.82-8.24,.2-3.9,1.14-7.72,2.77-11.26,.32-.79,.68-1.56,1.1-2.3,.96-1.52,2.53-1.63,3.4-.1,.56,1.19,.97,2.45,1.24,3.74,.09,.45,.15,.91,.17,1.37,.7-1.56,1.5-3.13,1.49-4.7-.02-3.83-.41-7.66-.65-11.5l-.35,.02c-.55,1.77-1.1,3.54-1.64,5.31-.41,1.36-1.09,1.91-2.66,2.01"/>
    <path id="Path_2889" data-name="Path 2889" class="cls-2" d="M1261.24,91.8c-3.8-1.95-7.03-4.84-9.4-8.4-2.48-3.45-4.65-7.12-6.46-10.96-2.48-5.4-2.72-11.57-.65-17.15,2.18-6.25,5.25-12.14,9.13-17.5,1.09-1.46,2.32-2.81,3.67-4.04,6.45-6.19,13.35-11.91,20.63-17.1,.57-.39,1.18-.73,1.82-1.02,3.84-1.8,6.42-.9,8.02,3.06,2.57,6.36,4.86,12.83,7.52,19.15,2.39,5.69,3.34,11.69,4.26,17.68,.85,5.88,.16,11.88-1.99,17.42-1.4,3.41-3.01,6.73-4.82,9.94-1.51,2.88-4.13,4.77-6.57,6.79-1,.83-2.13,1.52-3.06,2.41-1.42,1.28-3.09,2.25-4.91,2.84-2.08,.79-4.38,.82-6.48,.1-3.54-1.15-7.12-2.17-10.69-3.24m33.65-26.26l.35-.06c.16-.48,.27-.98,.35-1.48,.23-1.85,.34-3.72,.3-5.59-.44-6.29-1.24-12.55-3.4-18.52-1.84-5.06-3.77-10.09-5.74-15.1-.75-1.91-.85-1.87-2.36-.59-.17,.14-.34,.27-.51,.41-2.8,2.28-5.66,4.48-8.37,6.85-2.4,2.1-4.6,4.45-6.96,6.6-7.16,6.44-12.96,14.24-17.05,22.96-1.61,3.26-1.91,7.01-.84,10.49,1.49,5.07,4.92,8.49,9.4,10.94,1.54,.8,3.15,1.46,4.8,1.98,2.87,.96,5.8,1.56,8.82,.68,1.88-.55,3.73-1.17,5.62-1.69,3.6-1,6.39-3.47,9.6-5.19,.92-.44,1.5-1.38,1.47-2.41,.17-5.58-.33-11.05-2.86-16.12-.83-1.57-1.84-3.04-2.99-4.39-1.49-1.83-3.21-3.48-4.71-5.31-.89-.98-.9-2.48-.02-3.48,.93-1.05,1.84-.28,2.71,.12,1.93,.88,3.12,.11,3.25-2.06,.2-3.29,.47-6.57,.73-9.85,.01-.17,.19-.32,.29-.47,.17,.07,.26,.08,.32,.14,.12,.13,.23,.26,.32,.4,1.22,1.82,.84,3.83,.66,5.81-.18,1.32-.26,2.66-.25,4,.1,1.77-.11,3.41-1.38,4.72-.89,.92-.53,1.59,.09,2.48,1.28,1.84,2.46,3.75,3.63,5.67,1.61,2.66,3.16,5.36,4.74,8.04"/>
    <path id="Path_2893" data-name="Path 2893" class="cls-2" d="M1423.64,17.16c1.23,4.09,1.39,8.42,.47,12.59-.76,4.18-1.9,8.28-3.41,12.26-2.17,5.54-6.45,9.99-11.9,12.37-6.01,2.76-12.39,4.64-18.94,5.56-1.81,.23-3.64,.28-5.46,.16-8.94-.35-17.84-1.35-26.63-2.99-.68-.14-1.35-.34-1.99-.6-3.96-1.51-5.1-4-3.36-7.9,2.8-6.26,5.87-12.4,8.58-18.7,2.44-5.66,6.1-10.51,9.78-15.34,3.65-4.69,8.45-8.36,13.93-10.65,3.43-1.36,6.94-2.5,10.51-3.42,3.12-.91,6.3-.33,9.45,.02,1.29,.15,2.57,.48,3.86,.53,1.91,.13,3.77,.66,5.45,1.57,2.01,.95,3.63,2.58,4.57,4.6,1.63,3.35,3.38,6.63,5.08,9.95m-42.26-6.02c-.09-.07-.19-.14-.28-.21-.46,.22-.89,.48-1.31,.77-1.5,1.12-2.91,2.34-4.23,3.66-4.22,4.68-8.18,9.6-10.98,15.3-2.37,4.83-4.65,9.71-6.89,14.61-.86,1.87-.75,1.91,1.21,2.11,.22,.02,.43,.06,.65,.08,3.58,.44,7.15,.97,10.74,1.28,3.18,.27,6.39,.23,9.58,.43,9.6,.69,19.25-.55,28.36-3.64,3.47-1.1,6.38-3.49,8.13-6.67,2.62-4.59,2.7-9.43,1.36-14.36-.49-1.66-1.13-3.28-1.91-4.84-1.3-2.73-2.9-5.26-5.62-6.82-1.7-.97-3.43-1.88-5.12-2.87-3.22-1.9-6.93-2.2-10.39-3.31-.96-.36-2.04-.12-2.75,.61-4.14,3.74-7.73,7.91-9.63,13.25-.55,1.69-.92,3.43-1.09,5.2-.28,2.34-.28,4.73-.56,7.08-.09,1.33-1.16,2.37-2.49,2.43-1.41,.06-1.48-1.13-1.79-2.03-.71-2-2.09-2.32-3.74-.92-2.51,2.13-5.06,4.22-7.6,6.31-.13,.11-.37,.08-.54,.12-.07-.17-.12-.25-.12-.32,0-.17,.03-.34,.07-.51,.46-2.15,2.17-3.26,3.73-4.51,1.08-.79,2.1-1.66,3.05-2.59,1.21-1.3,2.54-2.28,4.36-2.29,1.28,0,1.51-.73,1.72-1.78,.43-2.2,.99-4.38,1.57-6.55,.8-3.01,1.67-5.99,2.51-8.99"/>
  </g>
  <path id="Path_2885" data-name="Path 2885" class="cls-2" d="M1244.56,548.02c12.46,2.28,23.93,4.3,35.36,6.51,8.42,1.63,16.77,3.56,25.18,5.25,1.67,.3,3.38,.34,5.06,.12,7.95-.94,15.89-2.01,23.84-3.01,7.06-.89,14.33,.67,20.63-5.34,2.75-2.62,8.74-2.49,13.26-2.48,11.77,.04,23.55,.59,35.3,1.25,2.31,.13,4.54,1.65,6.8,2.54-1.78,1.85-3.56,3.68-5.32,5.54-.53,.56-1,1.19-1.92,2.31,11.81,1.85,23.12,3.3,34.27,5.55,3.5,.71,6.56,3.57,9.82,5.45-3.26,2.12-6.26,5.15-9.83,6.19-8.44,2.45-17.15,3.95-26.25,5.95l6.34,10.9c-33.92,8.69-66.1,5.55-97.95-3.44-8.75,7.28-20.01,5.73-30.21,7.9-2.28,.46-4.64,.35-6.86-.33-16.96-5.44-34.2-1.3-51.28-1.97-17.33-.68-34.56-3.76-51.86-5.56-1.96-.2-4.33,.75-6.09,1.84-14.18,8.72-28.21,17.68-42.41,26.37-3.7,2.21-7.6,4.06-11.65,5.54-18.01,6.73-35.96,13.69-54.23,19.64-5.14,1.67-11.31,.22-17,.19,1.33-5.64,1.66-11.77,4.18-16.82,9.8-19.66,25.63-33.51,44.61-44.04,1.45-.81,2.82-1.77,5.37-3.4-8.51-3.03-15.89-5.69-23.28-8.3-10.2-3.6-20.49-6.99-30.59-10.86-2.12-.81-3.59-3.33-5.36-5.06,2.05-1.7,3.85-4.01,6.2-4.99,23.6-9.82,48.44-11.42,73.64-10.99,11.71,.2,23.87,1.17,35.02-1.53,9.36-2.27,20.71-3.85,26.07-14.87,1.11-2.29,4.61-3.5,7.11-5.04,8.04-4.95,16.51-9.3,24.1-14.86,8.72-6.39,18.03-9.97,28.79-9.83,5.41,.07,8.78-1.44,10.28-7.67,1.06-4.44,4.5-8.78,7.98-11.96,1.51-1.37,5.78,.29,8.8,2.64,11.76-8.01,23.37-16.27,35.4-23.87,3.05-1.92,7.54-1.41,11.18-2.62,4.2-1.45,8.28-3.2,12.22-5.25,4.62-2.32,8.93-5.29,13.64-7.39,1.97-.88,4.62-.25,6.96-.31-.14,2.6,.25,5.39-.59,7.75-.81,2.29-2.86,4.14-4.82,6.79,5.78-.41,10.76-1.19,15.68-.91,1.84,.11,3.53,2.7,5.29,4.16-6.27,5.9-3.09,17.7-13.72,21.19-4.48,1.47-8.28,5.01-12.44,7.64l6.8,10.77c-11.44,2.32-21.64,4.57-31.92,6.43-16.28,2.95-32.63,5.5-48.87,8.62-1.98,.38-4.13,2.82-5.13,4.84-4.51,9.12-8.63,18.44-12.91,27.69-.56,1.22-1.24,2.38-2.67,5.11m-140.99,77.35c20.57-6.83,39.65-17.5,56.24-31.45,2.71-2.25,5.42-5.86,5.81-9.12,.31-2.59-2.93-5.6-4.59-8.43l1.69-1.68,11.01,11.38c4.46-3.29,10.1-7.72,16-11.74,12.12-8.26,12.87-13.17,3.19-23.13q4.97-.71,14.56,9.79l6.67-3.83c2.5-1.43,4.98-2.89,7.49-4.29,7.78-4.32,10.48-11.43,7.69-20.03-.43-1.65-.75-3.33-.96-5.03l2.17-.8,7.76,15.42c4.47-6.65,9.02-12.76,12.86-19.29,3.97-6.76-4.85-20.77-12.86-20.45-13.55,.54-24.43,6.37-32.2,16.74l10.56,13.27c-8.84-6.49-21.61-7.07-29.75-.65-3.71,2.93-8.3,4.77-12.56,6.96-3.08,1.58-6.27,2.94-9.87,4.61l10.94,8.94-1.2,1.82c-1.77-.66-3.54-1.3-5.3-1.98-6.6-2.54-24.06,3.49-27.78,9.13-2.29,3.5-5.09,6.64-8.3,9.33-4.32,3.55-9.2,6.41-13.85,9.57l.91,2.11,25.68-8.29c-11.95,11.42-25.91,14.78-37.93,12.44-9.62,7.58-16.31,15.47-24.82,18.95-13.49,5.52-19.17,17.57-27.69,27.28-1.63,1.86-1.84,4.96-2.71,7.49,.59,.68,1.18,1.36,1.77,2.03,11.11-4.35,22.32-8.46,33.26-13.21,3.42-1.48,6.08-4.71,9.08-7.15-2.82-1.86-5.66-3.7-8.43-5.63-.31-.21-.25-.96-.47-1.94,8.25-1.4,13.78,1.3,15.92,10.87m154.69-71.26c-8.56-.41-16.69-3.27-22.08-.59-16.33,8.12-31.59,18.39-46.96,27.65,3.65,10.6,19.67,14.73,33.82,10.8l5.76-23.45,3.34,.92c-1.08,3.13-2.19,6.25-3.24,9.39-3.48,10.39-1.92,12.67,8.57,12.71,3.45,.01,6.89,.16,10.34,.19,5.22,.05,8.85-1.32,8.6-7.76-.1-2.61,1.44-5.28,2.23-7.93q.75,13.46,13.75,16.71c1.95,.49,3.82,1.61,5.76,1.7,4.57,.22,9.16,0,16.54-.08-10.2-11.37-10.91-22.01-5.95-33.83-14.72-1.82-29-9.89-39.37,6.81l8.89-13.24m-207.53,4.94c12.49,4.22,24.72,10.16,37.56,12.06,8.8,1.3,18.2,.36,27.28,2.07,1.62,.31,3.96-1.09,5.41-2.34,9.43-8.18,18.7-16.54,29.89-26.52-15.36,.75-28.46-.13-40.87,2.38-16.33,3.31-18.92,7.59-18.14,21.29-7.15-7.6-6.9-14.05,.97-21.91-15.9,2.62-29.75,3.54-42.1,12.95m281.11-105.34c-7.72,.47-12.61,10.86-21.54,4.27-.22-.16-1.03,.38-1.51,.69-12.35,8.1-24.63,16.29-37.07,24.25-2.48,1.59-5.61,2.13-8.27,3.5-1.84,.94-4,2.16-4.83,3.84-.53,1.06,.97,4.49,1.84,4.6,2.12,.12,4.22-.46,5.98-1.65,2.46-1.59,4.19-4.79,6.78-5.62,7-2.26,14.46-3.09,21.41-5.45,15.54-5.27,27.01-16.14,37.22-28.43m13.33,19.32l-1.22-2.12c-2.45,1.14-4.8,2.55-7.35,3.37-13.16,4.24-24.29,13.82-39.3,13.49-12.42-.27-20.96,9.12-30.6,15.89l62.36-10.47c-2.08-2.71-3.66-4.78-4.81-6.27l20.93-13.88m75.8,103.66c.02-.79,.03-1.58,.05-2.37-3.47-.65-6.96-1.2-10.4-1.96-5.01-1.11-11.89-.72-14.63-3.87-8.31-9.59-13.54-1.27-19.92,1.54,4.4,1.48,8.96,1.7,13.16,3.05,2.36,.75,4.14,3.36,6.17,5.13-1.87,1.89-3.42,4.52-5.68,5.49-4.01,1.73-8.47,2.45-13.71,3.85,11.74,7.6,25.28,8.65,36.82,2.61l-15.31-6.26c-.09-.71-.17-1.43-.26-2.14l23.71-5.07m-27.02-20.91c-12.41-4.99-33.89,1.85-36.42,11.05,10.38,1.89,22.09-1.58,36.42-11.05m-25.93,25.33l-57.29-2.55c-.05,.82-.09,1.63-.14,2.45,18.37,1.67,36.24,11.66,57.43,.1m-41.7-109.16c12.84-3,28.26-11.54,29.26-15.85-17.92,2.23-20.55,3.6-29.26,15.85m-15.96,102.46l47.62,.98c-13.54-5.22-42.38-6.23-47.62-.98m-9.63-5.01l-2.13-.7c-1.33,2.53-4.17,5.48-3.61,7.47,.72,2.56,4.18,4.34,6.46,6.46l1.52-1.1-2.24-12.12m64.93,24.55c.02-.29,.04-.57,.06-.86l-34.79-3.26c-.02,.29-.05,.57-.07,.85l34.8,3.26"/>
  <path id="Path_2884" data-name="Path 2884" class="cls-2" d="M279.7,542.04c-1.44-2.13-2.79-4.07-4.09-6.04-4.38-6.65-8.76-13.3-13.12-19.96-.21-.32-.46-.62-.69-.93-7.92-10.17-17.01-19.05-28.25-25.53-2.47-1.42-5.16-2.26-8.13-1.59-3.7,.84-7.27,.68-10.52-1.62-2.06-1.45-2.74-2.75-1.77-5.09,1.62-3.9,3.12-7.94,5.4-11.45,1.91-2.95,4.76-5.34,7.39-7.76,1.21-1.11,2.83-.8,4.35-.02,1.16,.67,2.43,1.11,3.75,1.31,6.63,.68,12.96,3.11,18.34,7.04,6.04,4.24,11.85,8.78,17.43,13.61,4.17,3.63,7.77,7.86,10.68,12.56,.99,1.62,2.56,2.88,3.69,4.43,1.73,2.38,3.32,4.86,4.96,7.3,.37,.56,.71,1.14,1.23,1.99,1.73-6.71,3.36-13.04,5.07-19.67-.97-.39-1.99-.67-3.03-.83-4.2-.2-8.46-1.01-12.48,1.04-.81,.57-1.94,.37-2.5-.45-.01-.02-.03-.04-.04-.06-1.14-1.51-1-1.82,.72-2.71,5.03-2.61,10.29-2.36,15.57-1.32,2.72,.54,5.05,.43,7.11-1.62,1-.99,2.2-1.77,3.26-2.7,5.61-4.86,12.27-6.94,19.54-6.89,5.12,.04,10.25,.62,15.37,1,3.4,.38,6.66,1.57,9.51,3.47,3.84,2.34,7.58,4.83,11.34,7.3,4.89,3.14,8.95,7.42,11.83,12.46,.75,1.03,1.68,1.91,2.76,2.59,2.94,2.27,5.94,4.47,8.89,6.72,1.33,1.01,2.54,2.2,3.93,3.11,8.87,5.85,14.7,14.2,19.61,23.37,3.03,5.65,3.71,11.86,4.6,18.02,1.1,7.63,1.47,15.42,3.21,22.89,1.69,7.27,3.24,14.75,7.13,21.33,1.24,2.09,2.73,4.03,4.42,5.78,4.21,4.45,7.56,9.64,9.89,15.31,2.24,5.25,4.42,10.53,6.39,15.88,.94,2.59,1.61,5.27,1.98,8.01,1.38,9.91,.35,19.5-4.41,28.47-.44,.78-.97,1.51-1.57,2.17-1.71,2-3.39,4.03-5.21,5.91-.95,.85-1.98,1.61-3.09,2.24-4.95,3.25-10.5,5.48-16.32,6.58-3.81,.75-7.43,2.41-11.21,3.4-1.61,.4-3.3,.43-4.92,.07-2.28-.66-4.74,.14-6.18,2.03-4.77,5.55-9.66,11-14.35,16.62-2.53,3.17-5.71,5.78-9.31,7.65-3.96,1.97-8.09,3.61-12.2,5.27-4.41,1.94-8.92,3.66-13.5,5.14-6.14,1.78-12.37,3.35-18.92,2.01-1.61-.37-3.29-.23-4.81,.4-10.63,5.35-20.88,3.92-31.04-1.29-6.66-3.42-12.28-8.17-17.38-13.57-.74-.71-1.37-1.53-1.87-2.43-3.42-7.05-6.94-14.05-9.25-21.61-.96-3.15-2.82-6.03-4.32-9.01-2.11-4.19-4.08-8.47-6.44-12.51-3.11-5.32-6.54-10.45-9.85-15.65-4.35-6.83-8.63-13.71-13.11-20.45-1.59-2.39-3.9-4.29-5.51-6.67-3.9-5.82-7.02-12.12-9.3-18.75-2.45-7.1-4.13-14.45-5.01-21.91-.29-2.35-.15-4.75-.27-7.12-.08-1.54-.5-3.09-.36-4.59,.35-3.75,.83-7.48,1.45-11.21,.96-5.81,4.88-10.16,7.55-15.14,2.56-4.78,7.22-6.98,11.22-10.01,4.39-3.33,9.22-5.16,14.9-4.56,2.93,.31,3.31-.15,3.71-3.11,.85-6.22,3.6-11.78,5.93-17.47,.58-1.36,1.5-2.54,2.68-3.43,.77-.57,2.16-.49,3.22-.35,.28,.04,.52,1.4,.55,2.16,.2,5.92-2.82,10.85-4.96,16.06-.61,1.48-1.32,2.94-1.8,4.46-.67,2.11-.12,2.82,2.04,3.46,3.44,1.01,6.87,2.1,10.27,3.25,1.14,.39,2.16,1.15,3.3,1.56,2.03,.74,4.09,1.38,6.16,1.99,.98,.29,2.12,.23,2.98,.71,2.22,1.25,3.9,.33,5.81-1.09m79.45,172.64c3.45-1.06,7.98-4.82,11.83-9.55,2.87-3.52,5.89-6.93,8.71-10.48,3.09-3.9,6.06-7.9,9.07-11.87,.14-.22,.24-.45,.31-.7,.82-2.28,1.36-4.73,2.52-6.82,2.25-4.08,2.06-8.23,1.17-12.55-.83-4.03-1.71-8.06-2.17-12.14-.33-3.04-.88-5.76-3.2-7.97-.78-.94-1.42-1.99-1.9-3.11-3.43-6.11-6.91-12.13-12.27-16.9-6.46-5.75-10.54-13.21-14.02-21.03-.94-2.11-2.08-4.13-3.04-6.23-2.38-5.19-5.27-10.24-6.9-15.67-1.36-4.54-3.08-8.97-5.15-13.23-.81-1.68-1.82-3.25-3.01-4.69-5.13-6.17-10.21-12.4-15.61-18.33-2.42-2.46-5.12-4.62-8.04-6.45-2.54-1.72-5.42-2.94-8.08-4.5-1.23-.73-2.76-.78-4.04-.14-5.33,2.12-10.13,5.39-14.05,9.59-1.13,1.23-2.48,2.24-3.97,2.99-5.7,2.68-11.12,5.92-16.17,9.68-5.95,4.51-11.86,9.06-16.67,14.82-1.24,1.47-2.1,3.21-2.52,5.09-1.16,5.18-.92,10.58,.69,15.63,2.46,7.17,5.38,14.18,7.97,21.31,.84,2.01,1.29,4.16,1.33,6.34-.09,2.56,.37,5.11,1.35,7.49,1.83,4.73,3.4,9.56,5.27,14.28,1.69,4.28,3.21,8.72,5.55,12.64,3.11,5.22,7.09,9.92,10.44,15.01,4.16,6.33,8.2,12.75,12.03,19.29,3.21,5.49,5.67,11.45,9.14,16.76,3.92,6,8.52,11.55,12.95,17.21,3.02,3.85,7.03,4.96,11.85,4.12,9.22-1.61,17.66-5.41,28.63-9.84m-25.24-206.48c-2.05,.93-4.07,1.93-6.14,2.79-7.04,2.89-10.57,9.07-14.24,15.11-.84,1.37-.29,2.62,1.11,3.41,1.34,.76,2.69,1.52,4.05,2.24,6.77,3.57,12.9,7.88,17.51,14.18,2.48,3.44,5.2,6.7,8.14,9.76,4.74,4.84,8.47,10.57,10.97,16.86,2.12,5.24,3.64,10.72,5.91,15.88,3.18,7.24,6.76,14.3,10.26,21.4,2.51,5.16,6.08,9.74,10.48,13.43,2.57,2.22,4.83,4.78,6.71,7.61,2.73,4.04,5.04,8.36,7.44,12.61,1.25,2.22,2.85,4.44,3.35,6.85,1.17,5.65,1.85,11.42,2.56,17.16,.26,2.09,.55,4.39-.06,6.31-1.09,3.45-2.88,6.68-4.33,10.02-.3,.79-.55,1.6-.75,2.43,.78,.09,1.57,.07,2.35-.06,5.08-1.61,10.25-3.03,15.16-5.06,3.29-1.27,6.32-3.13,8.94-5.48,6.79-6.52,9.23-15.34,11.03-24.18,1.55-7.56-.55-14.81-3.65-21.74-2.44-5.46-4.81-10.96-7.55-16.27-1.46-2.99-3.36-5.75-5.64-8.19-6.04-6.14-10.22-13.19-11.9-21.65-1.1-5.53-2.09-11.09-3.13-16.63-1.04-5.61-2.26-11.19-3.08-16.84-2.17-14.95-9.05-27.15-20.89-36.54-1.58-1.21-3.08-2.53-4.5-3.93-3.11-3.2-7.02-5.53-11.31-6.75-2.98-.97-6.13-1.32-9.26-1.01-6.82,1.02-13.42,3.15-19.56,6.3m-63.41,38.83c-2.72-1.14-4.78-1.75-6.57-2.81-6.74-3.96-14.1-5.45-21.77-5.6-1.86-.07-3.7,.28-5.4,1.03-5.75,2.81-10.98,6.33-14.78,11.71-5.7,8.07-9.69,16.53-8.47,26.85,1.09,9.23,1.68,18.45,4.55,27.45,2.22,7.19,5.43,14.03,9.52,20.34,1.03,1.39,2.13,2.73,3.29,4.01,3.04,3.73,6.38,7.26,9.03,11.24,5.38,8.07,10.24,16.49,15.58,24.58,4.11,6.45,7.71,13.22,10.75,20.25,1.22,2.56,2.19,5.22,2.91,7.95,3.58,14.71,12.08,25.51,25.5,32.4,2.28,1.16,4.74,1.93,7.28,2.28,4.74,.66,8.78-1.82,13.21-3.5-.29-.47-.59-.93-.93-1.36-2.84-3.31-5.88-6.47-8.49-9.95-4.15-5.54-8.24-11.16-11.95-17-5.89-9.27-11.31-18.83-17.18-28.1-3.6-5.69-7.66-11.1-11.55-16.61-2.15-3.06-3.66-6.52-4.43-10.18-.51-2.45-1.17-4.87-1.98-7.24-1.39-4-2.99-7.93-4.45-11.91-.37-1.01-1.08-2.29-.75-3.1,1.01-2.55,.23-4.87-.59-7.1-1.13-3.06-2.9-5.89-3.98-8.96-1.86-5.05-3.44-10.21-4.72-15.44-1.95-7.95-.04-16.36,5.15-22.69,3.79-4.8,8.34-8.95,13.47-12.28,2.63-1.73,4.94-3.96,7.76-6.26m90.5-50.03c-1.1-1.23-1.78-2.07-2.55-2.83-1.52-1.52-2.99-3.1-4.64-4.47-1.46-1.16-3.01-2.21-4.63-3.13-5.32-3.16-10.43-6.3-16.98-7.16-11.68-1.54-20.4,3.25-27.07,11.76-4.6,5.87-5.93,13.42-6.11,20.97-.06,2.7-.45,5.23-3.2,6.7-.5,.41-.76,1.04-.69,1.69,.42,1.88,.99,3.73,1.71,5.52,.35,.8,1,1.43,1.81,1.75,2.33,.64,6.09-1.05,7.36-3.15,1.17-1.92,2.07-4.05,3.46-5.78,2.47-3.09,4.69-6.88,7.96-8.74,7.61-4.34,15.7-7.89,23.75-11.39,5.51-2.47,11.68-3.09,17.57-1.75,.75,.08,1.5,.09,2.24,.03m-75.01,20.33c-.5-.93-.74-1.46-1.06-1.94-4.93-7.35-8.87-15.31-14.63-22.18-4.95-5.97-10.53-11.38-16.64-16.15-2.55-1.96-5.23-3.73-8.04-5.29-2.32-1.22-4.75-2.24-7.24-3.05-.81-.19-1.67,.03-2.28,.6-1.77,2.9-3.27,5.95-4.99,8.89-.65,.92-1.39,1.77-2.21,2.53-.45,.49-.94,.94-1.41,1.41,.5,.53,1.07,1,1.69,1.39,1.06,.46,2.15,.84,3.26,1.16,3.29,1.07,6.57,2.06,9.37,4.3,3.55,2.84,7.6,5.13,10.89,8.23,5.69,5.18,11.02,10.74,15.95,16.65,5.13,6.17,9.6,12.86,13.34,19.96,2.46,4.85,2.48,4.63,6.75,.96,1.2-1.03,1.84-2.15,1.39-3.7-1.4-4.74-2.84-9.48-4.14-13.77m-66.06-34.41c4.61-3.35,8.27-7.85,10.62-13.04,.7-1.54-.08-2.2-1.19-2.92-.82-.65-2.02-.51-2.67,.32-.07,.08-.13,.17-.18,.27-2.28,3.02-4.65,5.99-6.69,9.17-.84,1.58-1.41,3.3-1.67,5.07-.27,1.22,.5,1.6,1.77,1.12"/>
</svg>