<?xml version="1.0" encoding="UTF-8"?><svg id="Ebene_2" xmlns="http://www.w3.org/2000/svg" viewBox="0 0 1534 1080"><defs><style>.cls-1{fill:#ebffd6;}.cls-2{fill:#cef2c7;}</style></defs><rect class="cls-1" x="0" width="1534" height="1080"/><path class="cls-2" d="m493.67,891.15c4.47,5.38,8.91,9.69,12.1,14.8,5.71,9.15,6.65,19.47,4.58,29.88-3.23,16.17-7.89,32.07-17.03,45.87-5.47,8.25-12.48,15.84-20.02,22.31-30.62,26.27-65.95,29.28-103.7,20.05-31.05-7.59-51.5-26.37-61.43-56.57-4.8-14.61-2.39-29.47,1.99-43.44,3.34-10.64,9.23-20.75,15.38-30.18,8.41-12.88,21.67-18.77,36.54-21.23,1.83-.3,3.69-.42,5.34-.6-1.08-14.42-.03-29-10.59-40.81.5-.55,1-1.1,1.5-1.64,3.07,1.13,6.53,1.69,9.13,3.5,10.48,7.33,18.47,16.68,24.3,28.32,3.02,6.02,8.86,10.62,14.56,17.17,2.3-5.07,3.36-8.18,5.03-10.92,4.26-6.97,8.49-14,13.36-20.53,2.38-3.19,5.7-6.47,10.75-4.36.62.26,1.8.12,2.24-.32,3.32-3.28,6.5-1.18,7.25,1.56.69,2.51-.35,7.06-2.27,8.46-8.01,5.84-13.66,13.35-17.96,22.14,13.19-11.74,34.42-15.76,35.98-38.8,6.35,1.53,7.15,6.04,6.55,10.7-1.12,8.7-4.07,16.72-10.42,23.17-1.86,1.88-3.49,3.98-5.44,6.23,16.52,7.53,31.98,9.63,46.83-2.09,1.05-.83,3.44-1.17,4.39-.53.91.61,1.46,3.1.96,4.24-1.38,3.18-3.23,6.19-5.21,9.05-1.15,1.65-2.91,2.88-4.7,4.58Zm-153.66,12.59c.32.66.64,1.33.95,1.99-2.83,5.61-6.09,11.04-8.36,16.87-2.28,5.84-4.09,11.99-5.12,18.16-.77,4.58-.3,9.46.22,14.14.67,6.03,2.47,11.97,2.85,18,.55,8.92.36,16.08,9.36,19.82-.42-2.14-.77-3.89-1.11-5.65-2.81-14.74-9.48-28.79-7.68-44.37,1.49-12.89,4.75-25.2,12.14-36,3.3-4.83,11.75-5.2,14.99-1.65-2.31,2.03-4.98,3.78-6.86,6.14-10.4,13.09-13.12,28.31-11.55,44.53.14,1.48,1.43,2.9,2.36,4.23,1.3,1.85,2.88,3.5,4.12,5.39,3.76,5.74,7.38,11.58,11.13,17.34,2.51,3.86,5.14,7.64,8.08,12-3.9.92-6.17,1.45-10.07,2.37,9.21,5.99,16.91,11.3,24.91,16.12,10.32,6.22,21.58,11.15,33.65,10.25,16.78-1.25,32.07-8.51,46.43-16.76,7.05-4.05,12.42-11.09,18.45-16.87,10.09-9.68,15.84-21.83,17.9-35.37,1.76-11.59,1.91-23.42,2.95-35.13.72-8.16-3.29-14.64-7.33-21.01-1.24-1.96-3.82-4.28-5.83-4.33-11.44-.28-22.78-3.2-34.43.53-6.52,2.08-14.39,2.76-20.97,1.19-10.35-2.47-19.78-2.67-29.66,1.49-8.69,3.65-17.76,4.22-27.19,1.77-4.93-1.28-10.62-1.59-15.54-.47-8.19,1.87-16.11,2.84-24.22.33-3.4-1.05-5.2.24-7.12,3.2-10.05,15.54-13.86,32.71-14.1,50.91-.11,8.17,1.44,10.64,9.37,15.09-.08-.97-.11-1.78-.23-2.59-3.08-20.65,2.1-39.64,11.89-57.6,1-1.83,3.72-2.71,5.64-4.03Zm65.37-12.58c.83-6.85-1.5-10.82-5.43-13.65-7.5-5.41-12.65-12.24-16.81-20.61-3.44-6.93-9.45-12.58-14.16-18.57,1.02,9.06,1.93,17.38,2.9,25.69.68,5.84,3.37,11.41,9.09,12.25,9.85,1.44,16.95,6.5,24.4,14.89Zm-59.49,4.53c11.9-3.56,23.41-1.71,35.14.08,5.58.85,11.6-1.11,18.48-1.92-3.66-6.56-6.4-10.57-13.1-9.01-3.23.75-6.7.39-10.06.63-10.99.79-21.26,3.83-30.45,10.22Zm80.39-5.07c6.42,4.78,12.99,3.06,19.06,1.28,10.46-3.07,20.8-4.62,31.65-2.46,2.54.51,5.44-.82,8.29-1.32-8.94-1.74-17.56-2.5-25.52-5.2-10.51-3.56-24.46-1.25-33.49,7.69Zm-48.09-10.68c-5.11-5.11-11.92-3.9-18.6-1.68-8.82,2.93-17.7,5.96-24.13,13.87,14.74-4.2,28.9-8.25,42.74-12.19Zm57.33-33.57c-14.53,10.14-20.03,24.48-24.57,40.63,1.27-.98,1.75-1.17,1.89-1.5,5.41-12.67,12.21-24.36,22.56-33.77.91-.83.12-3.53.12-5.36Zm-80.18,158.38c-3.58-8.01-6.64-14.84-9.36-20.92.97.04,2.9.13,4.83.21-1.17-1.58-2.16-3.35-3.56-4.7-1.86-1.79-4.03-3.26-7.1-5.68,1.62,7.38,4.05,13.47,4,19.53-.07,7.14,2.88,10.17,11.2,11.56Zm71.22-124.83c.44.52.87,1.03,1.31,1.55,12.3-4.41,23.71-9.97,29-23.4-10.11,7.29-20.21,14.57-30.32,21.86Zm-52,137.04c.38-.62.76-1.24,1.14-1.85-3.65-2.42-7.3-4.84-10.96-7.26-.46.72-.92,1.45-1.38,2.17,3.73,2.31,7.46,4.63,11.19,6.94Z"/><path class="cls-2" d="m1439.43,826.5c-1.54-4.3-4.5-7.47-9.2-8.6-1.11-.27-2.13-.86-3.23-1.17-.62-.17-1.51-.34-1.95-.04-2.28,1.58-4.51,3.25-6.65,5.02-2.01,1.65-3.85,3.5-5.83,5.18-.95.8-2.02.85-2.19-.69-.29-2.62-1.8-3.15-4.07-2.87-.93.12-1.91.02-2.85-.12-6.19-.92-12.31.22-18.35,1.12-8.98,1.33-17.11,5.51-25.38,9.05-4.78,2.04-9.3,4.69-14.07,6.77-7.03,3.07-14.14,5.98-21.29,8.77-4.12,1.61-8.29,3.48-12.61,4.14-8.64,1.32-17.38,2-26.09,2.75-9.32.79-17.64,3.9-24.81,10.01-3.34,2.85-6.81,5.54-10.08,8.47-3.74,3.34-7.85,6.45-10.85,10.39-5.69,7.48-11.77,14.68-16.35,23.01-2.7,4.92-5.63,9.59-5.8,15.4,0,.06-.03.12-.04.19-2.34,14.42-2.69,28.74,3.01,42.54,1.98,4.8,3.91,9.92,7.13,13.84,7.55,9.19,15.84,17.82,26.35,23.77,3.24,1.83,6.65,3.46,10.15,4.72,6.49,2.34,13.07,4.48,19.69,6.45,7.27,2.16,14.76,3.15,22.32,3.54,3.22.17,6.53.6,9.64.04,4.88-.89,9.71-2.3,14.42-3.89,11.07-3.74,20.65-9.9,28.85-18.31,3.9-4,8.13-7.69,12.2-11.53,2.81-2.66,5.69-5.24,8.37-8.03,1.84-1.92,3.41-4.1,5.06-6.2,7.18-9.07,12.7-19.09,16.25-30.09,2.03-6.3,4.74-12.18,8.11-17.85,5.3-8.9,10.52-17.86,15.5-26.94,3.39-6.18,6.29-12.6,6.91-19.84.4-4.63.48-9.21-.77-13.66-1.82-6.52-3.94-12.96-5.98-19.61.17-.09.6-.31,1.04-.53,2.88-1.47,5.83-2.82,8.62-4.44,3.73-2.16,5.74-8.13,4.8-10.74Zm-212.5,114.86c-1.19-6.19-1.25-12.36.46-18.46.82-2.94,1.58-5.9,2.54-8.8,2.07-6.3,6.33-11.26,10.2-16.44,1.82-2.43,3.72-4.8,5.86-7.02-1.13,1.98-2.37,3.91-3.37,5.96-3.86,7.94-7.74,15.88-11.4,23.91-2.1,4.61-2.73,9.63-3.21,14.66-.2,2.07-.72,4.12-1.09,6.17Zm14.72,33.16c-2.7-1.23-7.87-9.3-8.07-12.27-.13-1.89-.54-3.78-1-5.62-2.54-10.15-1.9-20.18.65-30.24,2.02-8,5.55-15.31,9.58-22.4,4.24-7.47,8.69-14.82,13.06-22.21,2.14-3.61,5.37-6.03,8.77-8.33,1.14-.77,1.89-2.13,2.87-3.17.67-.72,1.37-1.44,2.16-2.01,6.78-4.93,14.48-7.22,22.74-7.82,7.72-.56,15.5-.67,23.15-1.73,4.43-.61,8.66-2.67,12.96-4.13,2.66-.91,5.28-1.93,8.09-2.61-2.06,4.37-5.16,7.97-7.14,12.18.19.15.39.31.58.46.5-.39,1.07-.71,1.47-1.19,2.82-3.36,5.73-6.66,8.37-10.16,1.85-2.46,3.97-4.38,6.76-5.69,5.28-2.48,10.49-5.14,15.76-7.65,1.29-.62,2.71-.97,4.41-1.07-4.54,5.27-9.08,10.53-13.62,15.8.07.12.15.25.22.37,1.75-1.16,3.7-2.1,5.22-3.51,4.85-4.5,9.58-9.12,14.26-13.79,1.69-1.68,2.84-3.95,5.39-4.59,1.32-.33,2.65-.65,4.44-1.09-3.13,3.96-5.91,7.47-8.68,10.98.18.16.36.33.54.49.5-.48,1.06-.92,1.51-1.44,3.51-4.1,6.89-8.31,11.42-11.4,1.72-1.17,3.46-1.53,5.4-1.15.6.12,1.13.61,1.7.94-.36.48-.66,1.03-1.11,1.42-5.29,4.55-10.63,9.05-15.9,13.63-.95.83-1.67,1.92-2.5,2.9.14.14.28.29.41.43,2.55-2.01,5.19-3.92,7.63-6.05,5.19-4.52,10.44-8.9,16.63-12.04,1.96-.99,3.56-2.63,6.08-2.05,1.84.43,2.37.96,1.97,2.88-.33,1.61.03,2.78,1.67,3.34,1.66.56,3.3,1.25,5.01,1.63,3.2.71,3.73,1.75,2.59,4.81-.56,1.5-1.05,3.25-.83,4.78.44,3.05-.34,5.81-1.13,8.62-3.13,11.1-7.99,21.49-13.4,31.59-3.35,6.26-6.96,12.46-12.32,17.36-.69.63-1.04,1.72-1.38,2.66-2.32,6.4-4.39,12.89-6.97,19.18-1.21,2.94-3.14,5.67-5.15,8.17-4.66,5.8-9.48,11.47-14.39,17.06-7.39,8.44-15.78,15.69-25.75,20.93-5.44,2.86-10.83,5.89-16.49,8.24-4.71,1.95-9.78,3.03-14.71,4.46-3.16.92-6.28,2.18-9.51,2.6-4.96.65-9.99.88-14.99.98-3.98.08-7.98-.12-11.94-.56-1.66-.19-3.38-1.09-4.78-2.07-2.8-1.95-5.49-4.09-8.05-6.36-.93-.83-1.47-2.2-1.98-3.41-1.51-3.58-2.83-7.24-4.42-10.78-.58-1.3-1.56-2.53-2.65-3.44-.63-.53-1.85-.36-2.8-.51-.15.13-.3.26-.46.39-2.89-6.98-6.46-13.8-4.32-22.02-1.37.34-2.51.39-3.38.91-.62.37-1.21,1.39-1.2,2.11.04,2.41.04,4.89.64,7.19.98,3.81,2.41,7.51,3.65,11.26.19.57.38,1.14.62,1.88-1.19-.8-2.16-1.46-3.13-2.11l-.55.46c.64,1.6,1.18,3.26,1.94,4.8,1.94,3.97,4.61,7.06,8.71,9.22,2.31,1.22,3.75,4.1,5.35,6.46-2.62-.69-4.64-2.04-6.2-4.24-.71-1.01-1.94-1.64-2.95-2.43-.14-.11-.35-.14-.53-.22Zm48.82,36.72c1.68-1.45,3.19-2.42,5.09-1.7,6.05,2.3,12.44,2.24,18.73,2.9.37.04.74.09,1.09.31-8.29,1.12-16.48.54-24.91-1.51Zm135.24-142.09c.12.53.17,1.07.16,1.61-.04,2.62-1.23,5.06-2.4,7.41-5.28,10.57-10.55,21.14-15.83,31.7-4.51,9.04-9.02,18.07-13.49,27.13-4.67,9.46-9.29,18.93-13.89,28.42-1.95,4.01-3.58,8.3-6.43,11.68-2.7,3.21-5.41,6.35-8.51,9.2-12.33,11.32-28.21,18.34-44.53,21.53-22.19,4.33-45.84.65-65.68-10.18.83.13,1.87-.85,1.72-1.83-.19-1.21-1.33-2.01-2.38-2.65-3.58-2.22-7.17-4.45-10.75-6.67,3.95,2.45,10.98,3.01,15.51,4.06,5.61,1.3,11.25,2.44,16.93,3.41,4.67.8,10.36,2.57,14.98,1.3,9.62-2.63,19.46-4.44,28.98-7.42.27-.08.52-.18.79-.26,7.24-3.67,14.37-7.57,21.98-10.38,13.69-8.62,25.67-19.93,35.08-33.09,7.4-10.35,11.53-21.58,16.92-32.96,4.79-10.12,10.56-20.08,15.67-30.12,2.3-4.51,4.15-9.68,6.6-14,2.39-4.21,7.61-2.27,8.57,2.14Zm8.08-36.38c-.28.94-1.41,1.91-2.38,2.28-2.58.99-5.29,1.64-7.93,2.48-1.39.44-2.4-.06-3.06-1.2-.25-.44-.26-1.31.02-1.71,1.53-2.23,3.83-3.25,6.42-3.62,1.48-.22,1.99-.95,1.96-2.45-.03-1.31-.42-1.73-1.75-1.82-1.53-.11-3.03-.62-4.54-.96-.03-.17-.07-.34-.1-.5.76-.49,1.47-1.1,2.28-1.46,1.39-.61,2.87-1.01,4.27-1.59,3.66-1.53,5.25.68,5.86,3.92.39,2.08-.4,4.49-1.05,6.63Z"/><path class="cls-2" d="m1294,954.96c-12.06-.05-22.13-5.25-31.68-11.83-2.21-1.52-3.42-3.55-3.61-6.38-.18-2.58-1.39-5.13-1.35-7.68.11-7.6,1.18-15.09,3.25-22.44,2.57-9.08,8.7-15.26,16.25-20.19,10.09-6.59,21.34-9.86,33.28-10.13,11.13-.25,20.73,3.59,28.04,12.45,3.34,4.05,6.27,8.31,8.24,13.21,1.89,4.7,1.41,9.54.77,14.33-.92,6.97-3.18,13.53-8.46,18.39-3.76,3.46-8.07,6.34-12.23,9.35-6.84,4.96-14.63,7.86-22.71,9.91-3.15.8-6.52.7-9.78,1.02Zm27.46-36.75c-4.8,0-9.62-.27-14.39.1-3.1.24-6.08,1.49-7.31,4.95-.19.54-.62.99-.99,1.57-2.57-3.47-1.93-6.93,1.63-8.41,2.13-.88,4.5-1.32,6.8-1.59,1.64-.19,3.13-.11,3.85-2.01.17-.44.83-.82,1.34-.98,4.93-1.53,8.85-4.66,12.66-7.95.83-.72,1.65-1.46,2.47-2.19-5.6.9-10.82,2.53-15.78,4.98-.73.36-1.43.78-2.17,1.11-1.62.7-3.4,1.12-4.86,2.06-6.23,4.01-11.14,9.43-15.63,15.25-1.32,1.7-1.04,2.36.97,3.01,4.4,1.42,8.86,1.34,13.35.48,1.67-.32,3.42-.34,4.41-2.14.2-.36.84-.57,1.31-.67,4.95-1.11,8.47-4.64,12.35-7.55Zm-34.09-29.72c.75.42,1.05.62,1.38.76,2.99,1.21,5.86.46,8.71-.54,7.78-2.73,15.72-3.08,23.8-1.71.47.08,1.33-.39,1.55-.83,1.15-2.28.5-3.32-2.23-3.91-8.69-1.86-17.04.08-25.28,2.53-2.62.78-5.02,2.31-7.95,3.7Zm19.04,52.15c6.53,1.98,24.01-9.95,23.43-15.24-4.13,2.31-8.29,4.59-12.4,6.95-.73.42-1.28,1.17-1.89,1.79-.95.97-1.75,2.17-2.85,2.91-1.92,1.3-4.03,2.32-6.3,3.59Zm.27-7.85c-.01-.08-.02-.15-.03-.23-.31,0-.61,0-.92,0-4.8-.1-9.61-.12-14.4-.36-1.41-.07-2.78-.84-4.19-1.16-.39-.09-.89.27-1.33.42.2.42.32.91.61,1.23.63.7,1.28,1.46,2.07,1.91.84.48,1.85.76,2.82.92,1.08.18,2.19.09,3.29.16,1.33.08,2.77.57,3.97.21,2.77-.82,5.42-2.04,8.11-3.1Zm-34.28-25.51c-.13-.07-.26-.14-.39-.2-.7,1.24-1.63,2.41-2.07,3.75-1.47,4.53-2.96,9.07-4.04,13.7-.52,2.23-.32,4.69-.08,7,.08.74,1.33,1.89,2.08,1.91,1.36.04,1.14-1.32,1.11-2.35-.1-3.62-.27-7.24-.23-10.86.04-3.44.32-6.86,2.26-9.91.59-.92.91-2.02,1.35-3.04Zm26-6.51c-2,1.6-4.34,2.91-5.92,4.85-3.29,4.03-6.25,8.33-9.19,12.63-1.43,2.09-2.57,4.4-3.7,6.67-.48.96-.6,2.11-.88,3.17,5.62-9.89,12.55-18.57,19.69-27.33Zm41.51,19.08c.14-.34.32-.67.43-1.02,1.66-5.3,1.25-10.71.72-16.1-.06-.62-.57-1.26-1-1.78-1.32-1.62-2.7-3.19-4.06-4.77-.56-.64-1.13-1.27-1.7-1.9-.2.09-.39.17-.59.26,4.79,7.8,8.07,15.94,6.2,25.31Zm-19.71-23.65c1.2-3.55.23-5.3-2.87-5.56-3.13-.26-6.32-.31-9.43.02-1.33.14-2.53,1.48-3.78,2.27.12.28.24.55.37.83,1.25-.24,2.5-.58,3.76-.7,2.87-.26,5.75-.5,8.63-.51.61,0,1.29.92,1.83,1.52.57.65,1.01,1.41,1.5,2.13Zm11.78,8.73c-3.91,2.98-7.51,5.72-11.29,8.6,6.36,2.4,11.02-3.96,11.29-8.6Zm-34.58,40.76c.06-.25.11-.5.17-.75-6.49-1.32-12.98-2.65-19.71-4.02,6.06,4.14,12.97,3.76,19.55,4.77Zm6.56-40.32c3.5-1.56,7.01-3.09,10.48-4.72.43-.2.61-.95.91-1.45-.5-.15-1-.42-1.5-.41-.55,0-1.1.23-1.64.4-3.46,1.05-5.89,3.55-8.24,6.19Zm20.99,16.76c.12.17.24.34.37.5,2.8-2.3,5.62-4.57,8.35-6.95.38-.33.27-1.24.4-1.98-3.21,2.96-6.16,5.7-9.12,8.43Zm-35.93,26.95c-4.31-1.22-8.62-2.44-12.94-3.65,3.88,2.83,8.31,3.62,12.94,3.65Zm-13.48-16.14c-.12.16-.25.32-.37.48.82,1.84,2.11,2.96,4.86,2.78-1.78-1.29-3.13-2.28-4.49-3.26Zm52.79-36.93c-.87-.58-1.42-1.2-1.78-1.11-.53.14-.93.79-1.39,1.23.47.33.92.87,1.4.91.43.03.91-.5,1.76-1.03Z"/><path class="cls-2" d="m1280.43,274.69c.55,3.74-.92,7.21-1.29,10.81-.29,2.79-1.72,5.09-2.63,7.6-2.13,5.84-5.56,10.89-9.99,15.27-3.21,3.18-7.02,5.12-11.5,5.83-2.02.32-3.99,1.09-6.02,1.27-2.28.2-4.62.13-6.9-.11-2.93-.31-5.88-.74-8.74-1.43-6.71-1.62-12.93-4.39-17.37-9.85-4.42-5.45-2.76-13.97,3.68-17.48,3.19-1.73,6.6-2.06,10.05-2.24,4.73-.25,9.11-1.47,13.18-3.89,2.49-1.47,3.82-3.79,4.76-6.36,1.52-4.13,1.15-8.25-.88-12.08-1.46-2.75-3.38-5.25-5.02-7.91-2.05-3.32-4.12-6.63-5.97-10.05-1.17-2.15-.52-4.55-.12-6.81.21-1.21.75-2.37,1.21-3.52,2.02-5.02,7.74-7.98,12.46-7.66,4.4.29,8.72.71,12.52,3.28,2.42,1.64,4.23,3.85,6.03,6.1,3.56,4.43,6.11,9.41,8.12,14.68,1.47,3.85,2.51,7.82,2.97,11.94.23,2.04.72,4.05,1,6.08.3,2.16.51,4.33.75,6.5-.1,0-.21,0-.31.01Zm-33.16,26.46c-.08.12-.15.24-.23.37-1.9-.02-3.56-.78-5.02-1.94-2.72-2.15-4.21-5.13-5.34-8.32-.3-.84-.55-1.75-1.64-1.66-1.75.15-3.34-.29-5.01-.77-1.61-.46-3.4-.32-5.12-.35-.52,0-1.09.22-1.57.48-5.15,2.85-6.25,10.77-3.01,14.6,1.04,1.23,2.29,2.33,3.61,3.24,3.29,2.27,6.97,3.56,10.92,4.29,4.86.9,9.67,2.06,14.65,1.32,3.36-.5,6.88-1.01,9.47-3.27,2.65-2.32,5.05-5.05,7.03-7.97,4.14-6.1,6.72-12.89,8.05-20.17.76-4.15,1.38-8.29.85-12.51-.29-2.34-.72-4.66-1.07-6.99-.93-6.31-2.69-12.39-5.38-18.17-.86-1.85-1.91-3.66-3.14-5.29-1.65-2.18-3.53-4.18-5.39-6.19-.34-.37-1.04-.51-1.6-.57-1.24-.12-2.73.48-3.28-1.34-.03-.11-.29-.22-.43-.22-2.37.11-4.66-1.36-7.08-.38-.53.21-1.07.39-1.61.59.34.51.62,1.1,1.05,1.52,1.04,1.01,2.36,1.8,3.22,2.94,2.99,3.95,6.26,7.69,8.51,12.2,1.83,3.68,3.45,7.3,3.85,11.47.79,8.21-.86,15.76-5.47,22.62-.93,1.39-1.91,2.75-2.82,4.14-.51.77-.26,1.38.56,1.77,1.55.73,3.11,1.45,4.65,2.2,1.61.79,3.2,1.61,4.79,2.41l-.13.4c-.79-.08-1.65,0-2.37-.26-2.49-.91-5.04-1.74-7.35-3-1.69-.92-3.04-1.74-4.83-.31-.67.54-1.69.64-2.54.94.1.35.1.49.17.59.16.25.3.54.52.73,2.04,1.74,4.11,3.46,6.16,5.2.38.32.72.7,1.18,1.16-.44.16-.52.22-.59.22-.17,0-.35-.01-.51-.07-3.28-1.14-6.04-2.98-8.14-5.81-.54-.73-1.44-1.51-2.26-1.63-1.31-.18-2.7.16-4.06.32-.6.07-.91.4-.66,1.08,1.37,3.8,3.26,7.18,7,9.18.53.28.95.77,1.42,1.16Zm-4.19-15.78c.04.12.08.24.11.36.2.03.42.12.59.07,2.33-.71,4.64-1.7,6.13-3.58,2.5-3.13,4.86-6.4,6.35-10.19,3.23-8.23,3.15-16.43-.43-24.52-2.07-4.67-5.46-8.48-8.53-12.49-.8-1.05-1.84-1.91-2.74-2.89-.83-.9-1.57-.57-2.35.05-.91.71-.36,1.38.06,2.01.43.64.97,1.2,1.4,1.84,2.15,3.24,4.25,6.52,6.44,9.73,1.7,2.49,2.85,5.15,3.16,8.18.19,1.83.59,3.64.83,5.47.2,1.57.46,3.15.4,4.71-.07,1.74-.59,3.46-.69,5.21-.17,2.97-.6,5.77-2.04,8.51-1.73,3.29-4.07,5.64-7.52,6.94-.41.15-.78.39-1.18.59Zm6.33-27.34c.16-.07.33-.14.49-.21-.22-1.94-.4-3.89-.66-5.83-.49-3.63-2.51-6.62-4.23-9.71-1.03-1.86-2.33-3.59-3.6-5.3-.41-.55-1.15-.84-1.91-1.38-.63,3.7-.08,6.9,1.49,9.79,1.76,3.22,3.85,6.27,5.86,9.35.76,1.16,1.7,2.19,2.55,3.28Z"/><path class="cls-2" d="m1226.05,206.3c-.24,1.73-.29,3.53-.77,5.19-.94,3.23-3.46,5.33-6.33,6.57-1.76.77-4.05.48-6.09.41-2.95-.1-5.5-1.33-7.96-2.96-3.57-2.38-7.42-4.09-11.85-4.08-3.81.01-6.79,1.48-8.9,4.71-1.33,2.04-2.63,4.11-4.16,5.99-2.48,3.05-4.88,6.27-8.55,8.05-4.59,2.21-9.22,2.14-13.91.17-2.2-.93-4.33-1.99-5.95-3.7-2.02-2.13-4.05-4.34-5.58-6.82-1.37-2.21-1.47-4.98-.9-7.52.93-4.09,1.83-8.22,3.89-11.94.67-1.22,1.51-2.34,2.24-3.52.22-.35.45-.77.46-1.16.08-2.6,1.31-4.54,3.07-6.41,3-3.2,6.46-5.76,10.12-8.08,1.32-.84,2.84-1.39,4.31-1.98,4.58-1.87,9.31-3.25,14.22-3.91,1.13-.15,2.31-.06,3.46.02,3.29.22,6.58.43,9.86.78,1.35.15,2.69.56,3.97,1.03,2.7.97,5.36,2.04,8.02,3.1,3.65,1.46,6.26,4.18,8.5,7.26,2.25,3.08,4.33,6.28,6.44,9.46,1.88,2.83,2.47,5.99,2.38,9.36Zm-45.69-.49c.51.12.61.18.67.16.32-.12.63-.26.94-.4,2.37-1.07,4.85-1.88,7.45-1.74,4.02.22,7.83,1.05,9.84,5.21.17.34.6.6.97.8,1.9,1,3.91,1.81,5.7,2.96,4.23,2.72,8.4,2.66,12.54,0,.92-.59,1.83-1.5,2.27-2.48,1.96-4.38,1.5-8.68-.84-12.82-1.69-2.98-4.35-5.02-6.78-7.32-5.43-5.15-11.67-8.18-19.29-7.96-.81.02-1.63-.05-2.44-.11-7.36-.52-14.51.92-21.63,2.5-1.08.24-2.08.98-3.02,1.64-1.19.83-2.28,1.81-3.42,2.73-3.25,2.6-5.8,5.67-6.86,9.82-.31,1.19-.87,2.33-1.4,3.44-1.39,2.9-2.78,5.8-3.21,9.03-.07.51-.07,1.29.23,1.56,1.62,1.44,3.24,2.95,5.08,4.06,1.74,1.04,3.69,1.34,5.77.39,1.69-.78,3.6-1.1,5.36-1.74.34-.12.78-.92.67-1.19-.97-2.3-.73-4.64-.27-6.96.88-4.49,2.84-8.61,4.69-12.75.47-1.04,1.31-1.26,2.35-.73,1.31.66,1.71,1.59,1.21,2.65-1.24,2.68-2.53,5.34-3.67,8.07-1.21,2.89-.93,6.01-1.11,9.17.85-.38,1.75-.75,2.2-1.41.89-1.29,1.74-2.69,2.23-4.16,1.71-5.11,3.86-9.98,7.25-14.21.28-.35.87-.46,1.31-.69.27.57.81,1.16.75,1.69-.09.77-.56,1.51-.94,2.23-1.49,2.83-3.02,5.64-4.6,8.59Zm-6.77,13.55c-.1-.11-.19-.22-.29-.34-5.11,2.82-10.46,4.79-16.52,4.48,1.84,1.17,3.7,2.08,5.61,2.87,1.36.56,2.72.54,4.07-.2.79-.44,1.32-.8.63-1.74-.22-.3-.27-.73-.4-1.1.1-.09.2-.17.3-.26.6.38,1.21.76,1.96,1.23,1.53-1.62,3.08-3.28,4.64-4.94Zm-16.74,7.03l.24-.27c-1.02-.94-2.09-1.82-3.04-2.83-.9-.95-1.66-2.03-2.48-3.05-.13,2.64,2.96,5.58,5.28,6.15Zm20.94-11.85c.14.15.28.3.43.45,1.35-1.42,2.71-2.85,4.06-4.27-.17-.17-.34-.34-.51-.51-1.33,1.44-2.65,2.89-3.98,4.33Z"/><path class="cls-2" d="m1147.98,277.7c3.7-.52,6.77,1.27,9.24,3.61,4.23,4,5.98,9,4.2,14.84-.81,2.66-1.47,5.38-2.45,7.98-1.14,3.03-1.23,6.12-1.06,9.26.02.46.3,1.07.66,1.31,1.33.91,2.65,1.91,4.13,2.48,2.92,1.12,6.09,1.68,8.88,3.03,3.44,1.67,6.93,3.67,7.75,7.96.26,1.4.28,2.96-.06,4.32-.79,3.18-.89,6.61-2.75,9.44-1.31,2-2.79,3.9-4.34,5.73-.64.76-1.57,1.4-2.49,1.78-4.6,1.9-9.2,3.94-14.31,3.76-2.43-.08-4.9-.35-7.25-.96-4.89-1.29-9.84-2.67-13.81-6-4.24-3.56-8.37-7.28-10.4-12.7-1.65-4.4-3.05-8.82-2.9-13.61.21-6.79.55-13.56,2.63-20.08.67-2.11,1.76-4.08,2.63-6.12.31-.73.71-1.51.72-2.27.02-1.15.37-2.07,1.11-2.92,1.3-1.49,2.52-3.04,3.85-4.5,3.9-4.27,8.84-6.2,14.55-6.35.47-.01.94,0,1.48,0Zm-1.03,37.24c-.53-1.57-1.3-2.97-1.45-4.45-.84-8.31,1.65-15.55,7.22-21.78.93-1.04,1.92-1.4,3.18-1.02.38.11.94.48.97.77.04.48-.14,1.25-.48,1.44-2.3,1.3-3.5,3.44-4.65,5.66-1.87,3.62-2.84,7.53-3.69,11.47-.69,3.21-.15,6.24,1.57,9.01.36.57,1.1,1.1,1.76,1.25,2.22.49,4.49.79,6.79,1.17-.17-.15-.31-.31-.48-.42-.29-.18-.59-.35-.91-.47-2.85-1.02-4.81-3.22-5.55-5.89-1.33-4.79-1.73-9.75.71-14.41,1.13-2.15,2.51-4.17,3.85-6.2.2-.3.81-.3,1.2-.49.34-.17.83-.38.91-.66.15-.52.19-1.17,0-1.65-.61-1.54-1.15-3.17-2.12-4.48-.4-.54-1.8-.35-2.75-.49-.55-.08-1.1-.2-1.66-.22-.76-.03-1.54-.07-2.29.05-1.48.24-2.92.68-4.4.89-4.93.69-8.84,3.24-11.55,7.22-1.93,2.84-3.18,6.16-4.57,9.33-1.48,3.39-1.52,7.07-2.04,10.67-.86,5.89-.27,11.68.7,17.38.84,4.94,2.88,9.63,6.59,13.27,1.36,1.33,2.83,2.76,4.53,3.51,3.01,1.33,6.18,2.35,9.37,3.18,3.26.85,6.62.79,9.91-.12,1.98-.54,3.96-1.1,5.9-1.77,1.33-.46,2.77-.89,3.85-1.73,5.41-4.21,8.15-9.82,8.29-16.67.01-.67-.22-1.51-.65-2.01-1.31-1.5-2.84-2.75-4.94-2.99-3.28-.38-6.57-.69-9.83-1.17-3.17-.47-6.32-1.09-9.46-1.72-.75-.15-1.19.06-1.44.68-.7,1.79-1.46,3.56-2,5.4-.49,1.68-.7,3.44-1.11,5.15-.1.4-.51.72-.77,1.08-.38-.29-.93-.5-1.09-.88-.31-.73-.49-1.55-.57-2.35-.31-3.14.83-5.91,2.37-8.53.67-1.14.56-1.85-.49-2.58-1.12-.78-2.15-1.7-3.28-2.46-3.01-2.04-4.6-4.89-4.93-8.47-.35-3.8-.85-7.66.7-11.28.76-1.78,2.11-3.3,3.17-4.96,1.72-2.68,4.24-4.01,7.33-4.42,1.19-.16,1.95.55,1.56,1.71-.22.65-.9,1.16-1.43,1.67-.79.75-1.71,1.38-2.44,2.18-.74.82-1.42,1.74-1.95,2.71-.83,1.53-1.9,3.07-2.18,4.72-.56,3.39-.73,6.95.46,10.18.68,1.85,2.48,3.28,3.79,4.89.07.09.3.06.46.09Zm9.6-17.74l-.35-.12c-1.2,1.43-1.95,3.01-1.44,5.04.6-1.64,1.19-3.28,1.79-4.92Z"/><path class="cls-2" d="m1165.23,215.2c-.58-.07-1.26.03-1.74-.23-2.93-1.63-4.96-3.99-5.16-7.47-.19-3.33.69-6.46,2.46-9.3.57-.92,1.27-1.72,2.54-1.7.76.01,1.08.3.8,1.01-.48,1.23-1,2.46-1.56,3.66-1.5,3.24-1.38,6.62-.59,9.93.26,1.08,1.53,1.94,2.37,2.87.29.31.68.53,1.02.79-.05.14-.1.29-.14.43Z"/><path class="cls-2" d="m1155.79,324.1c0,1.54-.19,3.11.05,4.62.28,1.79.96,3.51,1.42,5.27.11.42,0,.91,0,1.36-.36-.22-.81-.36-1.06-.67-2.72-3.23-3.82-6.92-3.12-11.12.23-1.39.98-2.04,2.05-1.47.52.28.68,1.23,1,1.88-.11.05-.21.09-.32.14Z"/><path class="cls-2" d="m101.42,792.4c.57,4.68-1.12,8.44-5.1,10.83-4.1,2.47-8.56,3.68-13.07.91-3.01-1.84-5-4.6-6.03-7.99-.3-.98-.25-2.12-1.55-2.49-.18-.05-.42-.49-.36-.66.41-1.26-.52-1.66-1.33-1.98-5.09-2.01-8.16-5.67-9.4-10.99-.36-1.55-1.17-2.77-2.79-3.66-6.34-3.49-5.54-9.22-1.64-14.18.47-.6,1-1.15,1.54-1.69,3.31-3.26,4.29-7.14,2.76-11.49-.78-2.22-.54-4.2.16-6.35.82-2.53,2.4-3.75,4.98-3.9.66-.04,1.34-.13,1.95-.35,1.7-.61,2.41-1.53,2.23-3.32-.35-3.58,1.16-6.7,2.3-9.9.55-1.56,2.21-1.27,3.44-1.5.81-.15,1.73,0,2.54.21,2.96.8,4.93-.72,6.69-2.75,1.46-1.68,3.01-3.15,5.33-3.56,3.58-.65,5.98.58,7.11,4.03.46,1.41.56,2.98.58,4.48.05,4.03-.05,8.07-.03,12.1,0,.75.11,1.57.46,2.21.32.6.96,1.3,1.55,1.41.49.09,1.47-.5,1.65-.99.65-1.77,1.12-3.61,1.52-5.46.99-4.54,1.81-9.12,2.89-13.63.58-2.42,1.68-2.94,4.09-3.24,3.28-.42,5.75,1.06,8.22,2.89,3.46,2.58,6.29,5.64,8.09,9.58.33.72.61,1.55.6,2.33-.02,1.65.81,2.67,2.1,3.46,1.1.67,2.17,1.37,3.29,2.01,3.57,2.02,5.27,5.91,4.22,9.81-.34,1.28-.77,2.55-1.21,3.8-.91,2.63-.4,4.57,1.67,6.39,3.36,2.95,4.55,6.66,3.85,11.04-.7,4.43-1.25,8.83.55,13.2.79,1.92-.46,3.72-1.43,5.18-1.59,2.39-3.6,4.52-5.56,6.65-.46.5-1.42.52-2.13.83-.52.23-1.07.47-1.47.86-.4.38-.58.97-.92,1.43-2.11,2.93-5.76,4.03-9.28,3.18-1.82-.44-3.78-.28-5.67-.5-1.26-.14-2.58-.28-3.73-.76-4.18-1.76-5.69-4.65-5.27-9.21.2-2.16.08-4.36.03-6.53-.03-1.32-.83-1.64-2.05-1.41-3.66.69-6.26,3.65-6.39,7.36-.03.76,0,1.52,0,2.28Zm38.03-19.36c-.44.19-.57.21-.6.27-2.27,4.3-5.91,5.44-10.47,4.65-1.6-.28-2.91.25-4,1.61-.86,1.08-2.06,1.92-3.17,2.79-.75.6-1.57,1.14-2.42,1.59-.79.42-1.66.96-2.49.96-1.08,0-1.3-1.08-1.41-2.01-.17-1.54-.49-2.95-1.84-4.01-1.78-1.39-2.56-3.32-2.85-5.55-.28-2.1-.88-4.16-1.21-6.26-.11-.73-.07-1.65.28-2.27,1.73-3.02,3.32-6.08,4.07-9.53.28-1.3.29-2.46-.4-3.69-.94-1.69-1.72-3.48-2.44-5.28-.21-.52-.11-1.23.04-1.81.5-1.83,1.6-2.23,3.18-1.2.85.55,1.28.15,1.39-.66.32-2.19.58-4.39.87-6.59.05-.35.13-.7.19-1.06,1.54.39,3.06,2.61,3.06,4.23,0,.48.22.95.34,1.43.51-.18,1.06-.29,1.52-.55.57-.32,1.01-.93,1.61-1.14,1.58-.57,1.82-1.87,1.84-3.21.02-1.47-.83-2.05-2.26-1.62-.7.21-1.29.74-1.98,1-.61.23-1.49.6-1.88.35-.51-.33-.97-1.27-.89-1.86.1-.68.69-1.46,1.28-1.88,1.52-1.09,3.31-1.41,5.17-1.22.46.05.92.05,1.62.08-.15-.61-.15-1.11-.38-1.45-1.53-2.31-3.15-4.52-5.57-6.03-3.14-1.95-5.09-1.01-5.67,2.64-.85,5.3-1.55,10.65-2.87,15.84-1.06,4.18-3.76,6.09-8.19,4.05-2.8-1.29-4.46-3.63-5.19-6.62-1.31-5.39-1.57-10.8-.41-16.26.13-.59-.1-1.52-.53-1.89-.31-.27-1.35-.1-1.81.24-1.96,1.42-3.88,2.88-5.06,5.12-.4.76-1.24,1.43-2.04,1.79-1.85.84-3.79.83-5.69.04-1.1-.46-1.89-.14-2.19,1.03-.28,1.09-.54,2.2-.66,3.32-.11.99.03,2-.02,2.99-.19,3.7-1.43,5.55-4.48,6.51-.94.3-1.97.33-2.95.53-2.49.51-3.47,1.67-3.22,4.2.21,2.17.58,4.33,1.05,6.45.35,1.55.52,3.08-.31,4.43-1.46,2.38-3.15,4.61-4.63,6.97-.99,1.58-1.89,3.24-2.61,4.96-.29.7.02,1.65.06,2.49.8-.19,1.63-.3,2.39-.58,1.45-.55,2.8-.81,4.15.29,1.99,1.62,2.31,3.14,1.12,6.1-1.5,3.73-.38,6.85,3.11,8.76.74.4,1.2.31,1.88-.24,1.48-1.2,2.9-2.77,5.25-1.87-.77-1.68-.76-1.76.44-2.96,1.05-1.05,1.1-2.11,0-3.25-.86-.88-1.88-1.61-2.8-2.44-2.1-1.89-2.59-3.62-1.55-6.26.67-1.72,1.51-3.39,2.44-4.98.67-1.15.85-2.12.09-3.28-1.07-1.63-2.04-3.32-3.06-4.98-.67-1.09-1.02-2.29-.25-3.36,2.19-3.04,5.15-5.08,8.64-6.44,1.15-.45,2.54-1,3.17-1.94,1.64-2.44,3.1-5.09,2.53-8.24-.35-1.94-.91-3.83-1.35-5.76-.07-.33.02-.69.04-1.04.31.03.75-.05.92.12.78.81,1.74,1.58,2.15,2.57,1.58,3.81,2.33,7.58.37,11.68-1.42,2.97-3.22,4.95-6.35,6.05-2.02.71-3.94,1.89-5.69,3.16-1.91,1.38-1.93,2.09-.69,4.06.42.67,1.01,1.25,1.6,1.79,2.09,1.93,2.74,4.94,1.63,7.28-.85,1.79-1.46,3.71-2.38,5.46-.82,1.58-.19,2.28,1.07,3.21,1.91,1.4,3.72,3.01,4.13,5.58.4,2.54-.48,3.8-2.99,4.43-.31.08-.67.65-.71,1.02-.1,1.13-.04,2.27-.06,3.41-.04,2.04-.26,4.1-.08,6.12.28,3.22,3.29,6.15,6.14,5.73,3.15-.47,5.92-1.99,7.87-4.66,1.39-1.9,1.29-4.1,1.23-6.31-.11-3.71.5-7.19,3.32-9.96.26-.26.14-.9.2-1.37-.41.19-1.04.28-1.18.59-1.23,2.72-2.54,5.42-3.49,8.24-1.02,3.02-2.16,4.11-5.36,3.99-2.06-.07-3.46-1.4-4.64-2.92-.22-.29-.06-.88-.08-1.33.42.07.87.08,1.26.24.43.18.79.53,1.21.74,1.65.84,2.71.51,3.43-1.21.33-.77.42-1.65.6-2.48.16-.74.15-1.55.45-2.22,1.01-2.26,1.98-4.54,3.22-6.67,1.72-2.96,1.15-5.73-.23-8.54-.37-.75-.91-.85-1.65-.61-2.27.72-3.86,1.97-4.08,4.56-.04.45-.65,1.06-1.12,1.2-.41.13-1.19-.14-1.46-.49-.4-.53-.66-1.28-.7-1.95-.16-2.69,1.95-5.23,5.11-6.3,2.37-.81,4.63.11,6.36,2.26,1.81,2.25,2.45,4.89,3.03,7.6.1.45.3.89.54,1.59,1.26-1.53.92-2.87.15-3.92-1.6-2.19-1.81-4.65-1.8-7.19,0-3.04,0-6.08.03-9.12,0-1.34-.29-2.52-1.34-3.47-.69-.62-1.28-.61-2.02-.07-.56.4-1.22.77-1.89.9-1.08.21-1.54-.37-1.24-1.42.49-1.68,1.84-2.52,3.36-3.03,1.34-.45,2.31.4,3.02,1.4,1.07,1.51,2,3.12,3.03,4.66.69,1.03.78,2.06.47,3.26-.22.84-.21,1.77-.17,2.65.05,1.22.23,2.43.33,3.65.17,2.03-.31,4.41.62,6,1.53,2.63,2.14,5.1,1.4,7.98-.02.07.08.16.22.42.56,0,1.21,0,1.87,0,3.51.03,6.53,2.84,6.51,6.36-.01,2.46-.32,4.93-.68,7.37-.46,3.12,1.02,5.33,4.18,5.71,2.87.34,5.76.53,8.74.8.21-.26.53-.67.87-1.06,1.11-1.28,2.2-2.57,3.34-3.82.6-.66,1.22-1.32,1.92-1.88,1.1-.87,2.31-1.62,3.41-2.49.82-.64,1.71-1.29,2.29-2.13,1.58-2.25,3.7-4.38,2.38-7.59-.26-.64-.2-1.4-.31-2.11-.2-1.31-.41-2.62-.63-4.01Zm-4.67-16.94c-2.32,5.21-5.13,9.27-11.5,8.68.45,2.29-.1,4.2-1.42,5.9-.59.76-2.2.9-2.94.17-.74-.73-.42-1.45.07-2.28.31-.53.42-1.46.16-1.99-1.31-2.67-1.14-3.65,1.48-5.04.81-.43,1.92-.29,2.87-.5,1.22-.28,2.61-.36,3.58-1.03,3.38-2.35,4.57-5.79,4.3-9.81-.08-1.18-.58-1.89-1.71-2.35-.81-.32-1.57-.88-2.22-1.48-.73-.68-.44-1.26.45-1.58,1.33-.47,3.04-.02,4.04,1.1.91,1.01,1.79,2.05,2.88,3.31.41-1.09.76-1.95,1.05-2.83,1.04-3.17.44-4.46-2.55-5.92-1.22-.6-2.32-1.44-3.52-2.08-.28-.15-1.02-.03-1.1.15-1.11,2.68-3.53,4.06-5.68,5.65-1.81,1.34-1.92,1.43-.47,3.19.12.15.24.3.37.43.94.96.52,1.77-.4,2.33-.49.3-1.19.43-1.76.38-2.75-.27-5.18-1.16-6.67-3.82.61,1.97,1.54,3.76,2.21,5.64.43,1.2.79,2.59.61,3.81-.48,3.31-1.73,6.39-3.32,9.34-.48.88-.63,2.05-.58,3.07.06,1.31.46,2.6.73,3.89.27,1.3.46,2.63.88,3.88.63,1.88,3.26,3,4.56,2.04.95-.71,1.84-1.49,2.79-2.2,1.87-1.4,3.81-2.46,6.32-1.67.82.26,1.8.16,2.68.07,2.75-.28,3.79-1.64,3.6-4.41-.1-1.42-.05-2.85-.04-4.27,0-.78.26-1.57,1.19-1.39.63.13,1.36.61,1.69,1.15.34.56.21,1.39.35,2.08.35,1.67.74,3.34,1.12,5,.19.02.39.03.58.05.21-.35.56-.67.6-1.04.23-2.12.46-4.25.55-6.39.1-2.24-.5-4.17-2.55-5.53-.92-.61-1.56-1.63-2.31-2.48-.33-.37-.61-.78-.96-1.23Z"/><path class="cls-2" d="m122.07,785.96c1.26-.43,1.79.61,2.42,1.29,1.87,2.02,1.91,2.07,4.24.63,1.68-1.04,3.32-2.16,5-3.2.47-.29,1.02-.44,1.53-.65.27.8.73,1.6.75,2.41.01.56-.45,1.3-.92,1.69-1.79,1.47-3.66,2.84-5.53,4.22-.29.21-.7.29-1.07.34-3.5.54-7.09-3.21-6.43-6.73Z"/><path class="cls-2" d="m171.47,713.77c-1.55.18-2.89.34-4.24.48-2.49.26-4.97.35-7.39-.45-1.82-.6-3.62-2.94-3.74-4.81-.01-.2.07-.41.14-.6.33-.98.75-1.94.99-2.94.55-2.24.95-4.52,1.56-6.74.25-.9.17-1.55-.41-2.24-2.9-3.46-3.66-7.7-4.11-11.97-.24-2.26,1.21-3.96,3.08-5.15,2.75-1.74,3.37-4.72,1.23-7.19-4.29-4.95-3.53-10.76-.33-15.36.57-.82,2.03-1.4,3.1-1.44,2.34-.09,4.7.19,7.05.4,1.3.11,1.72-.7,2.06-1.68.49-1.42.93-2.85,1.47-4.25,1.33-3.46,3.98-5.21,7.69-5.34,6.03-.2,8.66,2.6,9.29,8.42.17,1.61.21,3.25.16,4.87-.05,1.95.71,3.51,2.08,4.79,1.07,1,1.65.89,2.46-.28,1.19-1.74,1.7-3.5,1.09-5.68-.98-3.54-1.71-7.16-2.47-10.76-.19-.91-.19-1.88-.15-2.81.06-1.29.69-2.24,1.92-2.81,3.41-1.56,6.84-1.44,10.23-.09,1.57.63,3.07,1.49,4.51,2.41,2.4,1.54,3.76,3.76,3.63,6.67-.05,1.15.34,1.62,1.43,1.79,4.14.64,6.83,3.38,8.83,6.7,1.44,2.4,1.5,5.29.97,8.02-.51,2.67.15,4.79,2.1,6.61.85.79,1.62,1.65,2.46,2.45,1.78,1.71,2.8,3.8,2.98,6.23.15,2.16.05,4.33.17,6.5.03.46.44,1.15.84,1.3,3.5,1.28,5.36,4.67,5.38,7.21.03,3.03-.78,5.85-2.09,8.53-.96,1.95-2.95,2.81-4.69,3.88-1.28.79-2.59,1.53-3.96,2.13-2.46,1.09-5.05.57-7.61.39-5.08-.34-9.37-2.9-13.86-4.88-1.75-.77-2.82-2.18-3.54-3.9-.81-1.94-1.58-3.89-2.45-5.8-.44-.97-1.01-1.89-1.62-2.77-.34-.49-.88-.83-1.32-1.24-.41.58-1.01,1.1-1.2,1.74-.88,2.98-.01,5.69,1.26,8.41,1.01,2.15,1.94,4.4,2.45,6.7.49,2.27-.62,4.19-2.35,5.8-3.17,2.95-6.75,5.15-10.74,6.89-2.33,1.02-4.71,1.52-7.15,1.97-2.06.38-5.69-1.61-6.91-3.28-1.08-1.48-1.23-2.9-.71-4.55.21-.67.26-1.4.41-2.3Zm54.13-37.65c-.14.04-.27.09-.41.13-.09.18-.2.35-.27.54-.68,1.96-1.11,2.28-3.12,2.41-1.71.11-3.42.27-5.13.44-1.56.15-2.45-.48-2.73-2.03-.08-.46-.09-.94-.05-1.41.07-.94-.21-1.59-1.09-2.11-1.63-.98-2.12-2.85-1.34-4.57,1.36-2.98,3.96-4.4,6.91-5.26.93-.27,1.48-.59,1.45-1.59-.11-2.95-.76-5.7-2.99-7.82-.41-.4-.98-.73-1.53-.87-2.12-.54-4.21-.6-6.29.32-1.98.88-2.22,1.22-2.14,3.39.02.52-.17,1.35-.53,1.53-1.72.9-1.7,2.35-1.64,3.96.08,2.09.09,4.19-.07,6.27-.2,2.59-.73,5.09-3.09,6.77-1.44,1.02-1.56,1.69-.69,3.26.39.7.92,1.33,1.42,1.96.64.79,1.31,1.56,1.99,2.32.68.75,1.32,1.56,2.09,2.21,1.14.96,2.05,1.99,2.5,3.48.67,2.21,1.54,4.36,2.27,6.56.33,1,.99,1.58,1.96,1.85.66.18,1.34.31,2.01.39,2.81.37,5.72-.2,8.44,1.16,1.09.54,2.35.13,3.21-.97.39-.5.89-.94,1.42-1.3.76-.51,1.16-1.06.93-2.04-.06-.25.43-.88.67-.89,1.12-.01,2.5,2.11,2.01,3.12-.36.75-.91,1.44-1.46,2.08-.59.67-1.29,1.24-1.94,1.86-1.52,1.47-3.12,2.21-5.34,1.35-1.35-.52-2.9-.53-4.36-.73-1.99-.26-4.01-.38-5.98-.75-1.64-.3-2.92-1.29-3.57-2.87-.86-2.1-1.72-4.21-2.39-6.37-.43-1.4-.56-2.87-2.28-3.36-.22-.06-.42-.3-.57-.51-2.05-2.85-4.2-5.63-6.11-8.57-1.38-2.13-.58-4.42,1.46-5.93.87-.64,1.68-1.67,1.98-2.69.53-1.78.63-3.69.97-5.54.22-1.24.16-2.35-.78-3.34-.27-.29-.43-.88-.35-1.28.7-3.54,2.01-6.92,5.2-8.79,2.2-1.3,2.68-2.66,2.1-4.91-.46-1.82-1.4-3.04-3.15-3.74-2.62-1.04-5.24-.98-7.96-.43-1.24.25-1.78.72-1.58,1.93.71,4.17,1.28,8.37,2.23,12.49.64,2.78.12,5.15-1.35,7.44-.23.36-.59.69-.67,1.08-.24,1.15-1.01,1.43-2,1.3-.84-.11-1.72-.22-2.47-.57-2.58-1.2-4.02-3.57-5.45-5.83-.69-1.09-.92-2.55-1.07-3.88-.24-2.08-.19-4.19-.35-6.28-.09-1.2-.53-2.27-1.8-2.74-2.63-.97-6.22.55-7.17,3.19-.58,1.63-.89,3.36-1.23,5.06-.36,1.77-1.76,2.88-3.56,2.71-2.3-.22-4.61-.41-6.91-.67-1.09-.12-1.81.29-2.34,1.2-1.8,3.11-1.93,6.41-1.07,9.79.13.5.53,1.01.94,1.35,1.86,1.51,2.39,3.6,2.6,5.81.18,1.92-1.23,4.43-2.99,5.19-1.6.69-2.2,1.84-2.27,3.51-.13,3.15,1.01,5.95,2.15,8.78.45,1.11,1.13,1.84,2.32,2.2,1.3.39,1.71,1.74.77,2.73-1.25,1.31-1.56,2.9-1.82,4.56-.09.54-.26,1.07-.42,1.6-.43,1.38-1.03,2.72-1.28,4.13-.36,1.96.4,2.87,2.36,2.67,3.38-.34,7.01-.03,9.69-2.83.09-.09.22-.13.32-.21,1.01-.82,2.03-.77,3.06-.05,1,.7.52,1.66.34,2.47-.47,2.13-1.12,4.22-1.57,6.35-.55,2.59.6,3.86,3.26,3.66,2.24-.17,4.39-.7,6.35-1.91.82-.51,1.77-.89,2.72-1.12,2.11-.5,3.73-1.68,5.07-3.32.81-1,1.59-2.02,2.37-3.04,1.46-1.92,1.45-5.46-.07-7.33-.62-.77-1.37-1.43-2.32-2.41-.18.97-.4,1.54-.37,2.1.14,3.25-2.54,4.5-4.43,6.3-.2.19-.55.26-.84.29-1.11.1-1.67-.65-1.95-1.52-.1-.33.28-1.07.64-1.24,1.89-.94,3.15-2.21,3.3-4.48.06-.88.6-1.76,1.01-2.59.68-1.41,1.39-2.79,1.49-4.33-2.05.21-3.97.3-5.84.65-.56.1-1.23.83-1.45,1.41-.62,1.63-.97,3.37-1.55,5.02-.25.71-.27,1.98-1.53,1.62-1.12-.32-.84-1.44-.82-2.32,0-.25.15-.49.21-.73.4-1.49.84-2.96,1.17-4.46.46-2.14,1.81-3.32,4.03-3.4.73-.03,1.48.03,2.18-.11.36-.07.69-.48.93-.8.26-.35.41-.8.6-1.2.44.34.92.65,1.31,1.04.21.21.28.57.41.86.11.01.23.02.34.03.26-.79.6-1.56.75-2.36.23-1.25.46-2.53.45-3.8,0-.82-.23-1.84-.75-2.4-1.38-1.47-2.01-3.18-1.56-5.03.47-1.91.12-3.35-1.32-4.62-.32-.28-.62-.61-.85-.97-.79-1.24-1.95-1.54-3.25-1.18-1.27.35-2.52.82-3.71,1.39-.94.44-1.75.33-2.3-.4-.59-.8.15-1.46.74-1.77,1.52-.77,3.08-1.47,4.69-2.02,2.41-.81,4.44-.05,5.87,1.99.88,1.25,1.52,2.67,2.27,4.01.9,1.61,1.09,3.27.58,5.08-.13.47.23,1.24.61,1.67,1.07,1.23,1.76,2.58,2.09,4.19.13.63.77,1.23,1.32,1.68.9.76,2.17,1.22,2.82,2.13,1.33,1.86,2.44,3.9,3.5,5.94,1.36,2.6,2,5.65,5.32,6.82,2.77.97,5.21,2.82,8.24,3.17,2.13.25,4.25.59,6.39.7.89.05,2.02-.1,2.69-.61,3.64-2.78,7.54-5.43,7.52-10.78,0-.73.07-1.45.11-2.18.11-1.93-2.2-3.98-4.06-3.43-1.57.47-3.06.96-4.05,2.63-1.51,2.55-5.76,2.51-7.35.12-.21-.32-.36-.82-.26-1.17.06-.21.7-.45.98-.37,1.74.53,3.07-.19,4.35-1.22.46-.37,1.02-.63,1.55-.91,1.17-.63,1.32-1.08.52-2.14-.62-.82-1.36-1.54-2.05-2.3-1.31-1.45-3.03-1.36-4.09.26-.56.86-.95,1.82-1.49,2.7-.59.95-1.14.9-1.69-.07-.98-1.73-.84-3.1.6-4.55,2.68-2.7,6.16-3.71,8.86,0,.1.14.21.3.35.37.42.22.89.59,1.28.53.27-.04.62-.7.63-1.09.03-1.54.11-3.1-.17-4.6-.21-1.14-.92-2.18-1.4-3.27Zm-.48-.42c-.44-.51-.66-.8-.91-1.05-1.95-1.96-4.08-3.78-4.61-6.73-.15-.82-.86-.83-1.41-.44-1.33.92-2.62,1.89-3.85,2.93-.17.15.02.89.22,1.26.49.92,1.15,1.76,1.62,2.69.38.75.37,1.92.94,2.29.54.35,1.6-.08,2.43-.19,1.76-.23,3.52-.48,5.58-.76Z"/><path class="cls-2" d="m174.57,684.62c-.08.29-.18.57-.23.86-.27,1.72-.64,3.44-.77,5.17-.15,2.04-.01,4.1-.15,6.14-.08,1.21.32,1.94,1.38,2.46.99.49,2.1.92,2.85,1.68.66.66.95,1.73,1.29,2.65.1.26-.22.97-.33.96-.43-.01-.9-.15-1.25-.4-.29-.21-.35-.71-.62-.95-.88-.77-1.76-1.56-2.74-2.18-.59-.38-1.38-.45-2.06-.69-2.14-.73-2.72-2.04-1.75-4.05.5-1.03.41-1.98-.46-2.67-1.06-.83-.88-1.64-.39-2.69.9-1.93,1.81-3.87,2.46-5.89.55-1.69.26-1.98-1.35-2.75-.19-.09-.51-.16-.55-.3-.19-.67-.3-1.35-.44-2.03.51,0,1.1-.17,1.53.02,2,.91,3.71,2.08,3.58,4.67Z"/><path class="cls-2" d="m179.29,668.21c.14,1.58-.09,1.9-1.68,1.99-1.84.11-3.42.69-4.61,2.16-.16.2-.34.42-.56.52-.62.27-1.27.48-1.9.71-.16-.77-.54-1.57-.42-2.29.28-1.68,1.48-2.86,2.97-3.47,1.81-.74,2.8-1.72,2.39-3.79-.11-.55.15-1.18.28-1.76.39-1.72.81-2.08,2.59-2.3.76-.1,1.57-.09,2.26-.37.75-.3,1.3-.48,1.63.43.31.84.25,1.61-.61,2.11-.25.15-.56.24-.85.27-1.16.1-1.49.81-1.48,1.84.02,1.32,0,2.64,0,3.96Z"/><path class="cls-2" d="m178.75,684.37c.38-3.15,2.86-3.5,4.75-4.21,1.58-.59,2.86.78,3.98,1.82.3.28.49.83.49,1.26.02,2.39.03,4.79-.08,7.17-.04.92-.25,1.93-1.46,2.13-.96.15-1.59-.13-1.58-1.26.02-2.01.05-4.02,0-6.03-.05-2.1-.63-2.48-2.65-1.8-.57.19-1.09.52-1.66.68-.53.15-1.1.15-1.8.23Z"/><path class="cls-2" d="m157.24,213.91c-.92-2.09-1.79-4.01-2.61-5.95-2.76-6.52-5.51-13.05-8.26-19.58-.13-.32-.3-.62-.46-.92-5.29-10.17-11.81-19.41-20.59-26.89-1.93-1.64-4.15-2.81-6.85-2.7-3.37.14-6.46-.58-8.94-3.11-1.57-1.6-1.95-2.85-.73-4.74,2.04-3.15,4.01-6.44,6.57-9.14,2.15-2.27,5.02-3.9,7.72-5.6,1.24-.78,2.61-.25,3.8.69.92.72,1.97,1.44,3.07,1.75,5.83,1.65,10.76,4.86,14.91,9.12,4.57,4.7,9,9.58,13.06,14.72,3.02,3.82,5.53,8.08,7.32,12.71.61,1.58,1.77,2.93,2.51,4.47,1.13,2.36,2.12,4.78,3.16,7.19.24.55.44,1.11.76,1.94,2.59-5.59,5.04-10.86,7.61-16.39-.72-.36-1.57-.99-2.52-1.21-3.64-.85-7.24-2.25-11.09-1.1-.89.27-1.65.13-2.14-.86-.76-1.5-.58-1.76,1.06-2.26,4.82-1.47,9.39-.41,13.84,1.36,2.29.91,4.35,1.19,6.48-.27,1.03-.71,2.21-1.2,3.29-1.83,5.69-3.35,11.85-4.09,18.2-2.88,4.48.86,8.86,2.2,13.28,3.36,3.01.79,5.49,2.54,7.76,4.57,2.98,2.66,5.85,5.45,8.74,8.21,3.77,3.62,6.61,7.83,8.34,12.81.35,1.02,1.24,1.88,1.99,2.72,2.2,2.46,4.47,4.86,6.7,7.31,1,1.1,1.87,2.33,2.93,3.36,6.81,6.55,10.57,14.79,13.39,23.61,1.74,5.43,1.33,10.98,1.12,16.51-.26,6.85-1.2,13.72-.88,20.54.31,6.63.46,13.42,2.8,19.81.74,2.01,1.74,3.98,2.93,5.77,3.06,4.6,4.98,9.65,6.18,14.98,1.12,4.95,2.17,9.92,3.03,14.92.42,2.4.55,4.89.45,7.32-.39,8.89-2.84,17.11-8.45,24.19-.49.62-1.11,1.15-1.73,1.65-1.82,1.47-3.61,2.98-5.51,4.33-.91.65-2.02,1.02-3.06,1.46-4.9,2.07-9.98,3.06-15.34,3.12-3.45.04-6.89.91-10.35,1.16-1.42.1-3-.17-4.32-.73-2.17-.92-3.95-.65-5.73.78-5.07,4.09-10.23,8.06-15.23,12.23-2.82,2.35-5.9,4.19-9.38,5.19-3.78,1.08-7.66,1.85-11.52,2.65-4.2.86-8.39,1.89-12.64,2.32-5.66.57-11.36.93-16.88-1.29-1.29-.52-2.99-.8-4.27-.42-10.16,2.97-18.9.06-26.95-6.13-5.28-4.06-9.42-9.12-13.02-14.67-.49-.76-1.01-1.57-1.25-2.43-1.86-6.72-3.81-13.41-4.61-20.4-.33-2.91-1.49-5.73-2.32-8.58-1.17-4.01-2.2-8.06-3.62-11.98-1.86-5.15-4.04-10.19-6.09-15.28-2.7-6.68-5.34-13.38-8.17-20-1-2.35-2.72-4.38-3.75-6.72-2.51-5.72-4.13-11.69-5.11-17.9-1.05-6.65-1.24-13.3-.85-19.98.12-2.1.64-4.18.91-6.28.18-1.36.06-2.78.43-4.08.91-3.22,1.94-6.42,3.07-9.57,1.77-4.93,5.91-8.1,9.04-12.03,3.01-3.77,7.44-4.94,11.43-6.95,4.37-2.2,8.89-3.03,13.77-1.59,2.51.74,2.92.4,3.75-2.12,1.75-5.3,5.04-9.72,8-14.33.68-1.06,1.77-2.02,2.89-2.57.77-.37,1.97-.08,2.87.22.24.08.23,1.31.13,1.97-.78,5.21-4.22,9.04-6.93,13.25-.77,1.2-1.62,2.36-2.3,3.61-.93,1.74-.56,2.45,1.23,3.36,2.85,1.44,5.67,2.94,8.46,4.5.94.52,1.7,1.35,2.63,1.9,1.65.97,3.36,1.86,5.07,2.74.81.41,1.82.54,2.49,1.1,1.74,1.46,3.36.91,5.26-.02Zm41.67,163.83c3.18-.37,7.76-2.93,11.89-6.45,3.08-2.62,6.27-5.11,9.31-7.77,3.34-2.91,6.57-5.93,9.85-8.92.16-.15.27-.37.38-.56,1.09-1.87,1.95-3.92,3.3-5.56,2.63-3.21,3.13-6.86,3.05-10.79-.07-3.66-.2-7.33.06-10.97.19-2.71.16-5.18-1.51-7.49-.61-.85-.81-2-1.16-3.03-2.01-5.9-4.09-11.72-8.01-16.76-4.73-6.08-7.09-13.26-8.87-20.65-.48-2-1.15-3.95-1.65-5.94-1.25-4.93-2.96-9.81-3.51-14.82-.47-4.24-1.25-8.34-2.37-12.41-.44-1.58-1.07-3.16-1.88-4.59-3.49-6.23-6.93-12.49-10.7-18.55-1.6-2.57-3.82-4.8-6-6.94-1.95-1.91-4.27-3.45-6.34-5.24-1.08-.94-2.21-1.04-3.51-.77-5.05,1.05-9.67,3.03-13.84,6.12-1.17.87-2.56,1.59-3.96,1.97-5.42,1.49-10.67,3.32-15.71,5.86-5.93,2.99-11.84,6.01-16.97,10.28-1.27,1.05-2.43,2.52-3.03,4.04-1.74,4.41-2.62,9.07-1.92,13.79,1,6.67,2.42,13.27,3.54,19.93.32,1.89.56,3.94.14,5.76-.54,2.33-.46,4.48-.03,6.77.84,4.43,1.43,8.91,2.3,13.34.79,4.02,1.41,8.15,2.82,11.96,1.88,5.07,4.6,9.82,6.71,14.81,2.62,6.21,5.12,12.47,7.41,18.81,1.93,5.32,3.12,10.93,5.29,16.13,2.46,5.88,5.59,11.48,8.55,17.14,2.02,3.85,5.34,5.47,9.7,5.51,8.32.07,16.32-1.88,26.63-3.99Zm11.21-184.69c-1.94.49-3.87,1.04-5.82,1.45-6.62,1.39-10.71,6.23-14.89,10.93-.95,1.07-.67,2.24.43,3.16,1.05.88,2.11,1.76,3.18,2.61,5.35,4.22,10.01,8.98,13.04,15.22,1.64,3.39,3.45,6.73,5.55,9.85,3.42,5.07,5.67,10.59,6.88,16.52,1.01,4.92,1.46,9.96,2.61,14.85,1.62,6.84,3.61,13.6,5.52,20.37,1.4,4.95,3.7,9.41,7,13.44,1.89,2.31,3.44,5,4.64,7.74,1.74,3.97,3.06,8.13,4.47,12.23.74,2.14,1.78,4.34,1.83,6.53.11,5.14-.23,10.29-.53,15.42-.11,1.87-.22,3.93-1.07,5.51-1.51,2.84-3.59,5.38-5.41,8.06-.42.62-.7,1.33-1.05,2,.69.12,1.4.41,2.07.32,4.7-.59,9.45-1,14.08-1.99,3.02-.64,6.16-1.68,8.7-3.36,6.99-4.61,10.54-11.93,13.55-19.37,2.57-6.37,1.91-13.05.31-19.6-1.26-5.17-2.45-10.36-3.98-15.45-.85-2.81-1.98-5.66-3.61-8.07-4.29-6.35-6.81-13.18-6.92-20.85-.07-5.02-.04-10.04-.05-15.05,0-5.08-.18-10.16.02-15.23.51-13.43-3.54-25.2-12.39-35.33-1.16-1.33-2.32-2.7-3.3-4.16-2.26-3.37-5.27-5.96-8.81-7.73-2.45-1.22-5.25-2.28-7.94-2.37-6.12-.21-12.21.6-18.12,2.36Zm-61.74,23.75c-2.2-1.44-3.9-2.3-5.3-3.52-5.26-4.55-11.46-7.04-18.14-8.41-1.57-.32-3.37-.4-4.89.03-5.48,1.54-10.63,3.76-14.82,7.86-6.28,6.14-11.14,12.9-11.74,22.12-.54,8.25-1.5,16.41-.45,24.74.85,6.73,2.44,13.13,5.05,19.33.59,1.41,1.49,2.69,2.23,4.04,2.06,3.75,4.41,7.38,6.09,11.29,3.4,7.93,6.3,16.07,9.67,24.02,2.67,6.3,4.5,12.84,6.14,19.44.6,2.43,1.12,4.93,1.26,7.43.76,13.45,6.46,24.27,17.09,32.45,1.77,1.37,3.88,2.47,6,3.17,4.04,1.34,7.98-.18,12.12-.93-.24-.55-.38-.97-.59-1.34-1.95-3.36-4.1-6.61-5.82-10.07-2.74-5.52-5.41-11.09-7.72-16.8-3.66-9.06-6.86-18.29-10.5-27.35-2.24-5.56-4.91-10.95-7.43-16.39-1.42-3.06-2.13-6.25-2.24-9.62-.07-2.22-.23-4.46-.56-6.65-.57-3.72-1.33-7.42-1.97-11.13-.16-.95-.57-2.18-.16-2.84,1.3-2.07.99-4.22.63-6.3-.5-2.86-1.59-5.62-2.03-8.48-.73-4.73-1.44-9.5-1.64-14.27-.31-7.55,2.48-13.99,8.17-19.01,4.09-3.61,8.7-6.44,13.76-8.57,2.58-1.09,4.96-2.67,7.79-4.23Zm87.24-29.18c-.76-1.25-1.23-2.1-1.77-2.89-1.08-1.58-2.12-3.2-3.34-4.66-1.06-1.27-2.3-2.4-3.55-3.48-4.15-3.62-8.11-7.19-13.7-9-9.97-3.23-18.37-.45-25.57,5.92-4.97,4.39-7.35,10.78-8.72,17.36-.49,2.35-1.23,4.5-3.88,5.35-.41.13-.9.91-.88,1.36.08,1.71.25,3.43.6,5.1.14.68.7,1.53,1.3,1.82,1.94.94,5.5.06,6.95-1.57,1.33-1.49,2.46-3.21,3.96-4.5,2.66-2.31,5.22-5.27,8.37-6.37,7.36-2.57,15.01-4.37,22.62-6.14,5.26-1.22,10.57-.88,15.65,1.3.48.21,1.05.22,1.96.39Zm-68.9,5.68c-.29-.89-.41-1.4-.61-1.87-3.13-7.23-5.29-14.83-9.22-21.76-3.43-6.05-7.34-11.66-11.95-16.81-1.9-2.12-3.99-4.11-6.18-5.92-1.79-1.48-3.82-2.68-5.85-3.84-.53-.3-1.74-.23-2.1.16-2.01,2.25-3.82,4.68-5.79,6.97-.64.74-1.55,1.26-2.34,1.86-.47.36-.98.67-1.46,1.01.41.5.74,1.12,1.25,1.49.83.6,1.76,1.05,2.67,1.54,2.71,1.46,5.42,2.86,7.5,5.27,2.65,3.06,5.82,5.71,8.2,8.96,4.03,5.52,8.03,11.14,11.27,17.13,3.38,6.24,6.42,12.73,8.45,19.61,1.37,4.64,1.42,4.45,5.75,1.93,1.21-.71,1.96-1.59,1.81-3.01-.46-4.38-.96-8.75-1.4-12.71Zm-52.24-40.75c4.57-2.22,8.42-5.42,11.39-9.69.86-1.23.28-1.94-.57-2.74-.91-.86-1.78-.68-2.58.05-2.48,2.28-5.03,4.49-7.33,6.95-1.05,1.12-1.67,2.71-2.28,4.17-.43,1.03.18,1.48,1.37,1.27Z"/><path class="cls-2" d="m842.27,144.92c-.16-.51-.2-1.06-.31-1.59-.8-3.75-2.32-7.06-5.35-9.62-2.84-2.39-5.81-4.29-9.66-4.4-.96-.03-1.91-.25-2.93-.4,1.1-3.89-.31-6.71-3.02-8.97-1.1-.92-2.42-1.61-3.72-2.23-.97-.46-1.1-.87-.77-1.9,1.5-4.63.99-6.18-2.07-8.77-1.57-1.33-1.9-1.14-.87-3.5,1.27-2.93.74-4.56-1.76-6.52-2.71-2.12-5.67-3.33-9.16-3.45-2.72-.09-2.72-.26-3.13-2.95-.31-2.02-.44-4.12-1.81-5.76-1-1.2-2.27-2.16-3.32-3.32-2.01-2.2-4.41-3.81-7.13-4.94-2.14-.89-4.3-2.05-6.54-2.29-3.1-.34-6.29,0-9.44.19-1.87.11-1.94.17-2.34-1.59-.06-.24-.13-.49-.23-.71-2.13-4.48-5.51-7.47-10.45-8.43-1.96-.38-3.96-.51-5.94-.74-6.92-.79-11.4,2.8-14.86,8.25-.09.14-.18.29-.21.45-.19.86-.38,1.78.63,2.25,1.11.52,1.97.09,2.56-.87,1.91-3.13,4.24-5.73,8.06-6.59,3.11-.7,6.19-.54,9.31-.23,3.11.31,5.29,1.82,6.47,4.73.57,1.42,1.17,2.84,1.6,4.3.79,2.68,2.7,3.69,5.2,2.5,1.48-.7,2.97-1.04,4.59-.88.58.06,1.17.03,1.75-.01,3.15-.24,6.13.36,8.89,1.9,1.31.73,2.57,1.53,3.88,2.24,4.56,2.46,6.76,8.54,4.85,13.38-.12.31-.16.74-.04,1.04.94,2.43,1.88,2.87,4.29,1.96,2.82-1.06,5.67-.91,8.48-.2,2.71.68,3.27,2.32,1.83,4.69-.19.32-.39.64-.58.96-.66,1.14-.5,2.21.48,3.03.92.77,1.98,1.37,2.93,2.11.39.31.82.73.95,1.18.42,1.42.48,2.85-.23,4.25-.45.89-.86,1.8-1.22,2.73-.63,1.61-.29,2.41,1.36,2.97,1.26.43,2.56.7,3.85,1.02,2.03.5,3.62,2.3,3.34,4.35-.2,1.46-1.04,2.83-1.56,4.25-.22.59-.59,1.27-.47,1.81.36,1.55,1.8,2.46,3.38,2.35,1.87-.13,3.76-.13,5.6-.45,4.73-.83,9.79,4.22,9.85,8.12.01.73.18,1.53.52,2.16.77,1.45.89,2.99.55,4.49-.34,1.48-.99,2.9-1.57,4.32-1.35,3.31-1.71,3.39-4.56,1.32-2.45-1.79-5.14-3.14-8.12-3.67-5.55-.97-10.64.48-15.4,3.31-.56.33-1.5.57-1.1,1.52.4.94,1.06,1.74,2.22,1.73.48,0,1.02-.13,1.43-.38,2.58-1.53,5.41-2.36,8.31-2.85,4.62-.78,8.94-.05,12.21,3.65,4.35,4.91,3.99,9.73-1.87,13.88-.76.54-.95,1.05-.63,1.88.51,1.33,1.52,2.13,2.72,2.81,1.3.74,2.48,2.89,2.08,3.83-.83,1.96-1.89,3.77-3.46,5.28-1.05,1.01-2.09,1.58-3.57,1.01-.23-.09-.93.31-.92.44.06.92-.53,1.08-1.2,1.29-1.27.4-1.44,1.24-.38,2.05.47.36,1.11.54,1.7.71.8.23,1.64.31,2.43.57.44.14.8.52,1.2.79-.31.34-.59.71-.93,1.02-.24.22-.56.36-.85.52-.79.44-.96,1.07-.63,1.9.99,2.5.19,5.35-2.03,6.77-1.1.71-1.31,1.5-1.08,2.73.19,1.04.39,2.28,0,3.18-1.04,2.34-2.37,4.56-3.65,6.79-.2.34-.68.65-1.08.73-2.1.45-2.14.47-1.45,2.54.17.51.44.99.61,1.5.11.34.3.82.16,1.06-1.24,2.07-1.96,4.47-4.22,5.9-2.08,1.32-4.25,1.86-6.63,1.73-1-.06-1.15.43-.94,1.22.08.32.23.63.39.91.85,1.49.81,1.49-.56,2.54-3.65,2.79-7.83,4.55-12.07,6.16-1.9.72-3.9,1.17-5.86,1.71-4.02,1.12-8.11.66-12.17.45-1.39-.07-2.86-.35-4.12-.92-5.27-2.37-9.7-5.82-12.83-10.76-2.49-3.93-5.18-7.8-5.15-12.77,0-.44-.23-.88-.39-1.31-.64-1.75-.49-2.32,1.27-2.78,2.44-.64,4.94-1.08,7.43-1.53.3-.05.78.26.99.54,1.04,1.35,2.1,2.71,2.99,4.15,1.62,2.63,4.01,3.65,6.95,3.59.91-.02,1.83-.15,2.71-.36.31-.08.52-.56.78-.86-.29-.25-.55-.62-.89-.72-.59-.17-1.23-.18-1.85-.25-2.61-.29-4.79-1.17-5.97-3.8-.5-1.12-1.45-2.03-2.08-3.1-.89-1.54-1.74-3.11-2.45-4.73-.23-.53-.08-1.31.09-1.92.82-2.91,2.84-4.82,5.38-6.27,1.22-.7,1.39-1.26.56-2.38-.49-.66-1.23-1.13-1.71-1.8-.91-1.26-2.16-2.51-2.45-3.93-.64-3.11.3-5.93,2.86-8.04,2.61-2.15,5.15-4.45,8.8-4.53.78-.02,1.57.38,2.36.53.75.14,1.53.37,2.25.25,1.08-.18,1.3-1.02.52-1.8-1.33-1.31-2.83-2.27-4.84-2.22-2.45.07-4.8.21-7.22.99-2.66.86-4.64,2.38-6.38,4.35-3.65,4.14-3.92,7.98-.99,12.65.63,1.01,1.41,1.93,2.16,2.95-.45.39-.93.86-1.46,1.25-3.65,2.66-4.48,6.35-3.78,10.53.15.89-.1,1.08-.84,1.23-6.54,1.34-12.9,3.25-18.83,6.39-.2.11-.45.13-.68.19-.04-.09-.09-.19-.13-.28-1.72.7-3.44,1.38-5.16,2.08-4.11,1.68-8.16,3.47-12.12,5.44-4.4,5.6-7.81,13.29-13.62,17.43-1.98,2.39-3.98,4.75-5.99,7.1-2.26,3.47-4.85,6.81-7.98,9.53-4.03,4.98-7.29,10.49-11.16,15.54-2.4-2.31-3.65-6.03-5.16-9-1.16-2.27-1.69-2.86-3.86-4-2.29-1.21-4.56-2.45-6.83-3.67-6.09-3.27-12.18-6.54-18.05-10.17-2.99-1.85-5.88-3.84-8.77-5.86,1.71-1.21,4.18-1.23,5.91-.05,13.99-11.03,25.28-25.33,33.12-41.3.85-1.74,2.11-3.37,2.79-5.15,1-2.66,1.68-5.5,2.51-8.23l5.02-16.46c-7.27,20.05-17.84,38.91-31.16,55.57l10.3-17.27c-12.53,11.98-25.05,23.96-37.58,35.94,2.44.01,5.07.85,6.41,2.89s.66,5.38-1.68,6.09c-1.58.48-3.35-.38-4.31-1.73s-1.21-3.08-1.15-4.73c.18-4.69,2.72-9.03,5.95-12.43s7.17-6.05,10.9-8.9c13.59-10.4,24.75-23.94,32.45-39.22,1.74-3.46,3.31-7,4.68-10.62,1.51-3.96,3.35-8.05,2.71-12.4-.49-3.29-2.85-6.52-6.14-6.97,1.15-1.4.27-3.65-1.23-4.67s-3.38-1.23-5.13-1.69c-7.1-1.83-12.7-8.47-13.3-15.78s3.82-14.78,10.52-17.75c-2.53-1.55-5.94-1.14-8.41.5s-4.09,4.31-5.07,7.11c-2.9,8.32-.15,18.3,6.6,23.96,4.57,3.84,10.79,5.89,14.05,10.89,2.44,3.74,2.76,8.57,1.74,12.92s-3.24,8.31-5.6,12.11c-9.22,14.87-20.86,28.23-34.32,39.4-5.77,4.78-12.24,9.72-14.12,16.98-1.88,7.24,1.45,14.88,5.95,20.86,9.92,13.2,26.07,21.5,42.58,21.87,2.95.07,5.99-.13,8.65-1.41,3.02-1.45,3.7-3.68,5.19-6.37s3.76-5.51,5.65-8.13c2.34-3.24,4.93-6.28,7.41-9.42.9-1.14,1.86-2.25,2.63-3.48,4.5-7.16,10.29-13.2,16.61-18.71,5.72-4.98,11.89-9.38,18.6-12.96,2.56-1.37,5.16-2.71,7.86-3.77,2.14-.84,2.38-.52,2.53,1.76.13,2.04.3,4.09,1.4,5.89,3,4.94,6.05,9.83,10.13,14.03,4.11,4.23,9.02,6.99,14.72,7.83,7.47,1.1,14.84.21,21.91-2.71,4.52-1.86,8.45-4.62,12.22-7.66.35-.28.73-.64.87-1.04.7-2.1,2.41-3.08,4.2-4.02,3.53-1.86,5.2-5.1,5.57-8.8.22-2.17.99-3.8,2.28-5.33,2.33-2.75,3.72-5.81,3.35-9.49-.11-1.04.21-1.81,1.04-2.49,1.99-1.64,2.91-3.76,2.78-6.38-.04-.69.15-1.6.6-2.07,1.3-1.37,1.09-2.76.41-4.24-.31-.66-.23-1.13.32-1.65,1.88-1.8,3.42-3.85,4.41-6.29.72-1.77.85-3.48-.43-5.05-.79-.97-1.63-1.89-2.48-2.8-.65-.69-.63-1.23.12-1.88,3.24-2.81,5.34-6.06,3.76-10.6-.15-.43-.15-.91-.3-1.34-.37-1.06-.39-1.93.85-2.45.31-.13.6-.48.77-.8,2-3.79,3.84-7.62,2.48-12.11Zm-194.81,86.35c.11.14.22.29.34.43-.84.55-1.67,1.11-2.51,1.66-.08-.12-.16-.24-.24-.36.8-.58,1.61-1.16,2.41-1.74Zm26.07,33.42c.63,1.14,1.1,2,1.62,2.94-1.92.15-2.37-.63-1.62-2.94Zm-30.08-20.48c1.64.96,3.22,2.01,5.01,3.15-.86.21-1.45.42-2.05.48-.46.05-1.04.05-1.4-.18-.9-.58-1.79-1.24-2.53-2.01-.32-.33-.26-1.02-.37-1.55.45.03.99-.09,1.34.11Zm-2.77,4.7c.29,0,.56.6.84.92-.64.33-1.27.65-1.91.98-.07-.11-.14-.23-.21-.34.23-.68.25-1.59,1.28-1.57Zm1,9.95c-.15,0-.34-.08-.44-.2-1.03-1.21-2.04-2.44-3.06-3.66l.12-.35c1.34.26,1.86-.42,2.33-1.51.23-.54,1.11-.85,1.76-1.1.11-.04.61.7.8,1.14.38.87.76,1.75.97,2.67.26,1.11-1.36,3.01-2.49,3.01Zm26.02,11.09c-.22.83-.61.93-1.35.79-2.4-.44-4.62-1.28-6.64-2.67-.35-.24-.74-.4-1.12-.59-.13.13-.26.25-.4.38.62.99,1.23,1.98,1.89,3.04-6.61-1.57-11.27-6.17-16.6-9.76,1.52-.12,2.94-.23,4.52-.35.08-.61.16-1.34.29-2.05.17-.93.8-1.29,1.7-1.32.84-.03,1.25.44,1.35,1.17.05.33-.07.74-.25,1.02-.63,1.01-1.3,2.01-2.01,2.97-.42.57-.63,1.11-.02,1.64.7.59,1.33,1.67,2.41,1.05.98-.56,1.74-.48,2.67-.01.45.22,1.07.23,1.58.15.38-.06.86-.36,1.02-.68.12-.25-.07-.84-.32-1.05-.72-.6-.57-1.23-.05-1.71,1.06-.98,2.2-1.88,3.35-2.76.2-.15.59-.06.9-.08-.01.31.09.69-.06.93-.55.92-1.22,1.78-1.78,2.71-.35.58-.88,1.25-.18,1.91.66.64,1.21,1.54,2.42,1.07.82-.32,1.28-.07,1.39.94.16,1.51,2.38,2.35,3.44,1.27,1.22-1.24,2.24-2.67,3.34-4.01-.15-.05-.3-.1-.45-.15,0-.52.03-1.03-.01-1.55-.02-.3-.08-.67-.27-.88-.4-.47-.88-.88-1.36-1.27-.78-.63-1.59-.98-2.44.11-.38-.51-.74-.91-.99-1.36-1.09-1.91-2.75-2.02-4.77-1.25-.58.22-1.08.63-1.63.9-.38.19-.8.29-1.21.43-.09-.09-.17-.17-.26-.26.23-.49.39-1.03.71-1.46.99-1.35.87-2.52-.39-4.21-.62-.83-1.48-.83-2.33-.35-.4.22-.73.66-1.14.73-.65.11-1.44.17-1.98-.11-.28-.15-.17-1.07-.22-1.65-.04-.44-.02-.89-.08-1.33-.07-.47-.2-.93-.39-1.77.88.51,1.44.82,1.99,1.15,4.85,2.9,9.76,5.7,14.51,8.75,2.14,1.37,3.96,3.23,5.88,4.93.22.19.28.95.09,1.16-1.2,1.36-2.51,2.62-3.75,3.94-.41.44-.88.93-1.02,1.47Zm-15.09-15.77c.5-.35,1.11-.56,1.7-.74.18-.06.44.15.65.23-.53.8-.91,1.5-1.45,2.08-.1.11-.87-.27-1.17-.58-.13-.13.04-.83.27-.99Zm24.59,20.68c-1.87-.02-3.74-.13-5.61-.22l.07-.38c1.46-.53,2.93-1.06,4.47-1.61-.1-.73-.19-1.48-.33-2.54.46.34.78.45.86.65.39,1.04.77,2.08,1.03,3.16.07.27-.32.93-.49.93Z"/><path class="cls-2" d="m687.36,138.31c1.96.68,1.97.58,2.01,2.74.08,3.77,1.1,7.15,4.2,9.61.24.19.43.46.79.87-.59.19-.99.39-1.41.44-2.04.21-3.65-.62-4.92-2.16-.86-1.04-1.89-1.57-3.26-1.21.3,2.87,3.49,5.53,6.62,5.9,2.21.26,4.35.17,6.53-.12,2.69-.36,3.91,1.07,3.48,4.2-.05-.07-.1-.14-.15-.21,2.98,6.94,5.63,14.11,5.81,21.5.1-.1.2-.2.3-.3,3.39-3.43,6.91-6.73,10.4-10.07,1.19-1.14,1.33-1.12,2.58-.07.91.76,1.38,1.18,1.49,1.56,1.64,0,3.3.73,4.3,2.14,2.38.18,4.78.27,7.15.13,1.48-.09,2.68-.11,3.49,1.36.38.69.9,1.3,1.42,1.9.59.67.43,1.08-.23,1.62-2.82,2.29-5.61,4.61-8.4,6.94-2.92,1.27-4.75,3.9-4.61,6.55.1,1.87,1.15,3.21,1.65,3.76.75-.35,1.49-.71,2.23-1.05,5.89-2.73,12.15-3.93,18.48-4.9,1.78-.27,3.39-.91,4.85-2.08.81-.65,1.99-.9,3.05-1.16,1.08-.26,2.22-.28,3.32-.45,1.26-.19,1.67-.93,1.3-2.27-1.19,0-2.38-.02-3.58,0-.71.01-1.12-.23-1.08-1,.04-.82-.4-1.12-1.17-1.31-2.05-.49-4.08-1.09-6.12-1.63-3.98-1.06-6.84-3.51-8.73-7.11-.17-.33-.05-.9.1-1.3.2-.52.56-.99.85-1.47-.08-.08-.16-.16-.24-.24-2.29.74-4.44-1.04-6.97.12-1.61.74-3.96.21-5.9-.15-5.52-1.03-8.11-4.65-7.43-10.22.46-3.82,1.73-7.36,4.2-10.39.21-.26.43-.52.57-.82.73-1.5.19-2.4-1.42-2.53-1.03-.08-2.06-.32-3.09-.37-.67-.03-1.47-.02-2.02.31-1.53.92-2.96,1.99-4.41,3.04-4.76,3.43-9.88,4.16-15.36,2.03-.41-.16-.83-.45-1.09-.8-2.34-3.15-3.53-6.56-2.24-10.5.47-1.43.17-2.16-1.28-2.58-1.35-.4-2.8-.45-4.14-.85-1.08-.32-2.33-.71-3.04-1.49-1.18-1.31-2.14-2.87-2.93-4.46-1.83-3.69-1.38-7.61-.89-11.52.39-3.12,1.62-5.67,4.12-7.69,2.07-1.68,4.41-2.37,6.96-2.76,5.36-.84,10.57-.85,15.46,2.02.45.27,1.34-.1,1.96-.33.14-.05.13-.8.02-1.19-.96-3.44,2.23-7.74,5.8-7.8,2.12-.04,4.04.4,5.87,1.65,1.85,1.26,2.97,2.81,3.25,4.98.1.8.52,1.07,1.26,1.02,1.83-.12,2.6-1.73,1.66-3.44-2.93-5.33-9.69-7.95-15.27-7.07-3.49.55-6.19,3.04-6.51,7-.08.96-.58.97-1.25.84-1.55-.31-3.09-.7-4.65-.94-4.33-.65-8.65-.22-12.95.32-1.33.17-2.78.56-3.86,1.3-4.86,3.32-6.62,8.43-7.22,13.93-.52,4.74,1.17,9.05,3.85,12.89,1.62,2.32,3.6,4.4,6.37,5.37Zm54.91,42.75c.72.24,1.44.53,2.17.72,1.83.49,3.68.95,5.52,1.38.63.15,1.28.19,1.93.28,0,.13.01.25.02.38-.29.1-.58.27-.87.29-2.65.22-5.3.42-7.94.61-.71.05-1.14-.27-1.1-1.01.05-.89.18-1.77.27-2.66Zm-3.45.77c.25.86.31,1.56.65,2.09.65,1,.33,1.42-.7,1.61-1.69.3-3.39.6-5.08.9-.07-.16-.13-.31-.2-.47,1.75-1.36,3.5-2.71,5.32-4.13Zm-22.59-29.99c-.25,2.72-.58,5.22-.66,7.73-.05,1.47.36,2.96.45,4.44.03.56-.11,1.29-.46,1.68-1.53,1.7-3.16,3.3-4.75,4.94-.43.45-.79.97-1.25,1.39-.69.63-1.19.42-1.4-.43-.6-2.42-1.25-4.83-1.87-7.24-.52-2.01-1.05-4.02-1.57-6.03-.25-.95-.5-1.9-.8-3.07,4.45-.15,8.79-.41,12.33-3.41Z"/><path class="cls-2" d="m730.43,63.66c3.15.11,6.23.54,8.88,2.45.37.27.79,1.04.66,1.33-.3.65-.93.63-1.69.37-3.75-1.29-7.53-2.37-11.09.56-.29.24-.62.41-.95.6-4.23,2.4-5.95,5.83-5.38,10.71.22,1.93.62,3.76,1.88,5.33.6.76.25,1.44-.73,1.36-.96-.08-1.96-.38-2.83-.81-1-.49-1.96-1.14-2.79-1.88-2.9-2.59-6.4-2.89-9.98-2.58-5.3.46-8.75,3.45-10.27,8.47-.9,2.96-1.43,6.04-2.08,9.08-.19.88-1.02,1.81-1.8,1.8-.76,0-1.9-1.18-1.97-2.17-.05-.69.04-1.42.19-2.1.47-2.2.96-4.39,1.5-6.57.25-1.02.11-1.82-.84-2.35-1.08-.61-2.17-1.23-3.29-1.77-.34-.16-.85-.22-1.2-.09-3.02,1.15-6.07,2.25-9.01,3.57-1.58.71-2.47,2.11-3.15,3.82-1.84,4.63-2.71,9.39-2.68,14.34,0,1.14-.69,1.38-1.61,1.44-1.1.08-2-.54-2.06-1.69-.09-1.86-.23-3.77.05-5.6.44-2.87,1.17-5.69,1.85-8.52,1.22-5.09,4.8-7.75,9.55-9.24,4.36-1.37,8.62-1.77,12.79.65.97.56,1.81.45,2.19-.87.14-.47.59-.9,1.01-1.22,5.4-4.11,11.33-5.39,17.88-3.25.2.06.4.13.6.19,2.16.65,1.99.62,2.33-1.53.4-2.51,1.3-4.92,2.84-6.99,1.7-2.28,3.65-4.41,6.2-5.71,1.5-.77,3.28-.98,4.93-1.45.03.1.07.21.1.31Z"/><path class="cls-2" d="m653.92,543.82c11.53,1.02,22.14,1.87,32.74,2.91,7.8.77,15.57,1.82,23.37,2.63,1.51.16,3.12,0,4.62-.32,7.16-1.53,14.29-3.18,21.44-4.77,6.35-1.41,13.1-.61,18.33-6.61,2.28-2.62,7.75-3.01,11.86-3.38,10.72-.96,21.48-1.47,32.24-1.87,2.11-.08,4.27,1.12,6.41,1.73-1.46,1.83-2.93,3.65-4.37,5.5-.44.56-.81,1.17-1.56,2.27,10.91.68,21.33,1.04,31.66,2.14,3.24.35,6.27,2.69,9.4,4.12-2.79,2.21-5.26,5.22-8.42,6.47-7.47,2.95-15.27,5.06-23.39,7.65,2.42,3.39,4.16,5.83,6.7,9.38-30.13,10.79-59.68,10.68-89.45,5.21-7.35,7.37-17.73,6.92-26.82,9.76-1.94.61-4.28.72-6.27.28-15.9-3.51-31.24,1.73-46.84,2.58-15.83.86-31.78-.48-47.68-.64-1.8-.02-3.87,1.05-5.39,2.19-12.16,9.14-24.17,18.5-36.36,27.61-3.13,2.34-6.6,4.32-10.13,6.03-15.82,7.66-31.56,15.52-47.69,22.5-4.54,1.96-10.27,1.16-15.46,1.63.73-5.24.51-10.86,2.37-15.67,7.25-18.72,20.48-32.68,36.85-43.88,1.25-.86,2.41-1.86,4.6-3.55-8-2.04-14.94-3.83-21.9-5.57-9.59-2.4-19.24-4.61-28.76-7.28-2-.56-3.55-2.72-5.31-4.15,1.72-1.72,3.16-3.98,5.22-5.07,20.65-10.95,43.11-14.52,66.08-16.27,10.68-.81,21.83-.96,31.75-4.37,8.33-2.86,18.52-5.26,22.46-15.75.82-2.18,3.9-3.57,6.04-5.19,6.9-5.19,14.23-9.87,20.67-15.58,7.4-6.56,15.56-10.61,25.36-11.4,4.93-.4,7.87-2.06,8.7-7.86.59-4.13,3.35-8.37,6.25-11.57,1.25-1.38,5.29-.23,8.24,1.66,10.02-8.3,19.89-16.8,30.18-24.74,2.61-2.01,6.75-1.93,9.95-3.33,3.7-1.62,7.25-3.67,10.68-5.82,4.01-2.51,7.68-5.57,11.78-7.89,1.72-.97,4.18-.62,6.31-.88.09,2.38.68,4.88.13,7.1-.54,2.16-2.25,4.02-3.8,6.59,5.23-.87,9.69-2,14.2-2.16,1.68-.06,3.44,2.16,5.17,3.34-5.2,5.91-1.3,16.37-10.68,20.46-3.95,1.72-7.11,5.26-10.68,8.01,2.99,3.88,4.48,5.81,7.11,9.23-10.21,3.08-19.31,6-28.5,8.57-14.56,4.07-29.23,7.79-43.75,12-1.77.51-3.52,2.92-4.26,4.84-3.33,8.69-6.28,17.52-9.39,26.3-.41,1.15-.92,2.27-1.99,4.88Zm-121.74,82.41c19.03-8.38,34.71-19.59,48.51-33.42,2.28-2.28,4.44-5.8,4.51-8.8.06-2.38-3.14-4.85-4.9-7.28.47-.56.93-1.12,1.4-1.67,3.5,3,7,6,10.99,9.42,3.78-3.38,8.53-7.88,13.57-12.05,10.32-8.55,10.59-13.08.93-21.33q4.46-1.07,14.09,7.67c1.9-1.34,3.82-2.7,5.75-4.05,2.15-1.52,4.28-3.06,6.46-4.54,6.71-4.6,8.57-11.3,5.29-18.89-.61-1.42-.88-2.99-1.3-4.49.63-.31,1.27-.61,1.9-.92,2.51,4.01,5.03,8.02,8.38,13.37,3.51-6.44,7.13-12.38,10.06-18.65,3.03-6.49-6.18-18.49-13.44-17.52-12.28,1.65-21.7,7.88-27.88,17.98,3.84,3.99,7.29,7.58,10.74,11.18-8.6-5.16-20.27-4.59-27.14,1.94-3.13,2.98-7.15,5.04-10.84,7.4-2.66,1.7-5.45,3.21-8.59,5.04,4.36,2.93,7.54,5.06,10.72,7.2-.31.59-.63,1.17-.94,1.76-1.67-.45-3.34-.88-5-1.35-6.22-1.75-21.6,5.23-24.51,10.68-1.78,3.33-4.08,6.54-6.76,9.2-3.63,3.6-7.83,6.62-11.79,9.89.33.61.67,1.23,1,1.84,7.56-3.24,15.11-6.49,22.67-9.73-9.9,11.41-22.32,15.66-33.46,14.56-8.11,7.71-13.53,15.47-20.97,19.37-11.81,6.18-15.95,17.62-22.88,27.18-1.33,1.83-1.26,4.67-1.83,7.04.6.57,1.19,1.13,1.79,1.7,9.74-4.91,19.6-9.6,29.14-14.85,2.98-1.64,5.13-4.81,7.66-7.28-2.73-1.46-5.47-2.89-8.16-4.41-.3-.17-.31-.85-.59-1.73,7.39-1.98,12.66,0,15.42,8.54Zm134.73-78.04c-7.82.36-15.47-1.55-20.14,1.34-14.17,8.79-27.18,19.43-40.39,29.16,4.23,9.34,19.16,11.73,31.7,6.95,1.14-7.65,2.19-14.74,3.24-21.84,1.04.18,2.08.37,3.12.55-.72,2.94-1.46,5.88-2.15,8.83-2.28,9.75-.67,11.69,8.88,10.84,3.14-.28,6.28-.44,9.42-.71,4.75-.4,7.94-1.96,7.16-7.8-.32-2.36.86-4.93,1.35-7.4q1.83,12.19,13.94,14.03c1.81.28,3.61,1.14,5.39,1.06,4.18-.19,8.34-.79,15.05-1.48-10.26-9.48-11.8-19.11-8.29-30.28-13.55-.4-27.23-6.53-35.25,9.55,1.85-3.39,3.69-6.79,6.97-12.81Zm-188.46,22.17c11.73,2.77,23.37,7.14,35.21,7.77,8.11.43,16.59-1.23,25.01-.44,1.5.14,3.52-1.32,4.73-2.59,7.88-8.25,15.61-16.65,24.95-26.68-13.91,1.99-25.91,2.3-37,5.65-14.58,4.41-16.57,8.51-14.7,20.92-7.15-6.31-7.47-12.2-.98-20.02-14.25,3.74-26.78,5.76-37.21,15.38Zm246.88-119.82c-6.99,1.08-10.55,10.96-19.24,5.72-.21-.13-.91.44-1.31.76-10.55,8.42-21.03,16.92-31.67,25.23-2.12,1.66-4.93,2.42-7.23,3.89-1.59,1.02-3.46,2.31-4.07,3.91-.39,1.01,1.26,4,2.07,4.03,1.76.06,3.84-.86,5.3-2.01,2.1-1.66,3.41-4.72,5.69-5.7,6.18-2.65,12.9-4.05,19.02-6.79,13.69-6.12,23.21-16.99,31.45-29.05Zm13.78,16.45c-.43-.61-.86-1.21-1.29-1.82-2.13,1.24-4.16,2.73-6.4,3.69-11.62,4.98-20.93,14.64-34.62,15.62-11.33.81-18.3,10.08-26.5,17.07,18.56-4.93,37.12-9.86,55.86-14.84-2.12-2.29-3.74-4.03-4.92-5.3,6.48-5.23,12.18-9.83,17.87-14.42Zm77.82,87.89c-.05-.72-.1-1.44-.16-2.17-3.21-.29-6.44-.5-9.63-.9-4.66-.58-10.89.36-13.64-2.28-8.38-8.02-12.43,0-18,3.1,4.13.97,8.3.79,12.23,1.66,2.22.49,4.05,2.71,6.06,4.15-1.54,1.88-2.73,4.41-4.7,5.48-3.51,1.91-7.5,2.95-12.15,4.67,11.34,5.91,23.75,5.72,33.73-.76-5.53-1.68-10-3.04-14.46-4.4-.14-.64-.28-1.28-.42-1.92,7.05-2.21,14.1-4.42,21.15-6.63Zm-26.37-16.73c-11.72-3.49-30.69,4.57-32.2,13.16,9.61.83,19.97-3.32,32.2-13.16Zm-21.44,25.26c-18.49.9-35.42,1.73-52.36,2.56.03.75.06,1.5.08,2.24,16.86-.04,33.98,7.53,52.28-4.8Zm-47.25-95.8c11.43-3.82,24.74-12.91,25.28-16.92-16.12,3.56-18.4,5.03-25.28,16.92Zm-5.8,94.61c14.47-1.05,28.95-2.11,43.42-3.16-12.76-3.59-39.1-2.06-43.42,3.16Zm-9.2-3.73c-.67-.15-1.33-.31-2-.46-1,2.41-3.33,5.35-2.65,7.11.88,2.27,4.18,3.59,6.43,5.33.43-.38.86-.76,1.29-1.13-1.02-3.61-2.05-7.23-3.07-10.84Zm61.18,16.81c0-.26,0-.52-.01-.78-10.65,0-21.29,0-31.94,0,0,.26,0,.52.01.78,10.65,0,21.3,0,31.95,0Z"/><path class="cls-2" d="m1294.34,527.82c-8.73,13.6-21.23,21.53-35.89,26-5.82,1.77-10.11,4.13-11.92,9.97-1.06,3.4-1.75,6.91-2.59,10.38-.62,2.57-1.22,5.15-1.83,7.73-.99-.04-1.99-.08-2.98-.12-.45-4.15-2.01-8.56-1.11-12.39,2.05-8.78,4.6-17.6,8.26-25.81,4.39-9.85,10.14-19.09,15.46-28.89-5.62-6.69-7.08-11.18,1.13-19.58,3.94-4.03,7.49-3.63,13.9,1.53,4.95-5.32,9.86-10.82,15.01-16.08,6.47-6.59,12.39-14.1,19.91-19.2,10.62-7.2,12.66-17.7,13.86-28.64.95-8.6.21-17.39.43-26.08.04-1.44.97-2.96,1.77-4.27,2.66-4.35,1.28-8.93-2.96-11.77-4.07-2.73-7.77-6.03-11.46-9.28-.71-.63-1.09-2.42-.71-3.28.37-.85,1.84-1.48,2.93-1.68.97-.18,2.33.03,3.06.63,5.46,4.48,10.85,9.03,16.15,13.7,1.97,1.73,3.76,3.71,5.36,5.8,1.29,1.69,2.71,3.59,3.14,5.6,2.49,11.78,4.7,23.62,7.01,35.42,11.76-2.19,14.05-4.71,15.43-15.41.23-1.75,1.76-3.34,2.95-5.46-4.78-4.7-9.95-9.79-15.57-15.31,9.79-3.17,16.43,2.62,31.26,25.5,6.53-1.92,13.05-3.85,19.61-5.65.19-.05.79,1.37,1.35,2.39-5.41,2.14-10.51,4.19-15.63,6.18-3.19,1.23-4.7,2.9-3.96,6.84.72,3.85.11,7.96.09,12.09,3.98-3.26,7.9-6.81,12.16-9.89,4.31-3.12,8.95-5.8,13.89-8.95-1.46-1.73-3.16-3.26-4.2-5.15-.64-1.17-.85-3.3-.18-4.24.68-.97,3.21-1.86,3.99-1.35,5.14,3.37,10.4.69,15.58.85,7.59.24,15.19.63,22.73,1.5,1.65.19,3.05,2.65,4.56,4.07-1.95.91-3.91,2.62-5.85,2.6-6.74-.06-13.48-.92-20.22-1.07-3.84-.09-8.13-.2-8.94,5.36-.1.69-1.5,1.54-2.4,1.7-12.58,2.27-20.31,11.4-28.94,19.27.19.49.37.97.56,1.46,4.09-.53,8.18-1.16,12.29-1.58,5.92-.61,11.85-1.1,17.79-1.55.61-.05,1.55.36,1.84.85,2.69,4.52,7.36,3.44,11.42,4.28,6.58,1.36,13.09,3.05,19.63,4.6-.02.61-.05,1.23-.07,1.84-4.67-.1-9.34-.11-14-.34-3.37-.16-6.73-.95-10.07-.81-1.86.07-3.68,1.43-5.5,2.26-.93.42-1.87,1.46-2.7,1.36-11.37-1.31-20.56,5.5-30.86,8.14-10.55,2.71-15.31,10.14-17.41,20.27-3.46,16.64-11.99,31.18-19.87,45.94-2.16,4.04-2.53,7.5-.39,11.49,3.86,7.19,5,14.55,2.52,22.68-1.17,3.82-.32,8.25.29,12.67-1.63,2.04-3.58,1.63-5.53-1.02-3.79-5.15-7.78-10.15-12.17-15.85-4.82,5.95-9.75,10.93-8.03,19.38,1.04,5.11.75,10.49.02,16.83-1.75-1.53-4.43-2.73-5.11-4.64-5.48-15.43-11.54-30.77-6.73-47.8,2-7.08,2.83-14.49,3.18-22.05-3.74,7.59-7.26,15.31-11.3,22.75-3.22,5.93-5.87,13.17-10.94,16.86-8.22,6-10.51,15.06-15.63,22.6-.67.99-1.99,1.53-3.02,2.29-.23-1.38-1.02-2.96-.59-4.09,3.78-10.17,7.92-20.21,11.61-30.41.86-2.39.17-5.29.61-7.89,1.36-8.03,2.93-16.02,4.41-24.03.12-.64.12-1.31.17-1.97Zm31.82,23.22c-.01-6.69-.19-13.38.03-20.05.15-4.36.89-8.71,1.36-13.06-2.09,8.31-2.98,16.78-4.47,25.14-.65,3.65-.66,6.36,3.17,7.9-.76,3.42-3.14,7.68-1.91,10.09,2.28,4.46.77,7.76-.35,11.63-.46,1.59-.07,3.43-.06,5.15,3.71-2.91,6.11-5.75,8.29-8.76.61-.83,1.09-2.36.74-3.18-2.13-5-4.52-9.9-6.79-14.86Zm-36.92,20.29c.61.34,1.22.69,1.82,1.03,3.31-4.98,7.08-9.72,9.84-14.98,6.45-12.28,11.84-24.95,16.41-38.18,6.91-19.99,15.87-39.29,24.57-58.61,4.22-9.36,5.7-18.61,3.52-28.55-1.53-6.96-2.96-13.94-4.51-20.9-.51-2.28-.25-5.27-4.28-4.53-3.32.61-3.81,2.17-3.98,5.5-.66,12.77-.53,25.85-3.47,38.16-3.61,15.14-9.88,29.67-15.21,44.38-2.55,7.03-6.58,13.66-8.17,20.86-2.09,9.41-2.4,19.21-3.56,28.83-.19,1.56-.62,3.19-1.33,4.59-3.81,7.5-7.75,14.94-11.65,22.41Zm110.5-106.62c.09.21.19.42.28.63,5.33-1.61,10.67-3.21,16-4.82.17-.56.34-1.12.51-1.69-1.86-.83-3.76-2.44-5.58-2.35-5.86.29-11.85.59-17.51,2-14.9,3.72-29.81,7.73-40.64,19.88-15.37,17.25-22.69,37.67-23.1,60.56-.29,16.02,6.51,29.1,18.01,40.23,2.57-7.52,1.51-13.82-1.77-21.01-6.83-15.02-11.04-30.96-2.61-47,2.74-5.21,6.66-9.8,10.09-14.64,2.36-3.33,4.74-6.65,7.24-9.87,2.22-2.85,4.09-6.46,7.03-8.18,10.77-6.29,21.9-11.96,32.94-17.78.98-.52,2.24-.51,3.36-.74.14.41.29.81.43,1.22-1.57,1.18-3.14,2.36-4.71,3.54Zm-146.95,80.3c1.95-3.71,3.37-7.71,5.85-10.89,10.55-13.58,21.28-27.03,32.23-40.29,4.52-5.47,9.04-11.56,14.92-15.13,5.74-3.49,6.2-8.6,8-13.82-6.6,5.16-12.7,10.75-18.05,16.99-9.26,10.8-18.01,22.04-27.07,33.02-10.39,12.59-17.9,26.72-22.99,41.59,2.34-1.43,4.73-3.76,7.52-4.42,9.7-2.31,18.77-5.86,25.91-12.92,4.5-4.46,7.31-11.13,12.43-14.34,7.05-4.41,6.09-10.96,7.6-17.01.61-2.42.89-4.91,1.44-7.35.93-4.17,1.96-8.33,3.15-13.35-1.45,1.15-2.27,1.59-2.79,2.25-11.11,14.37-22.35,28.64-33.19,43.21-3.93,5.28-6.63,11.56-14.97,12.46Zm115.05-109.74c.46.2.93.4,1.39.61,1.18-2.88,2.35-5.75,3.53-8.63,1.93,13.65-4.58,25.06-10.34,37.54,6.7-2.69,12.12-4.23,15.6-11.2,5.55-11.14,3.57-21.03-.49-31.44q-8.75,1.85-9.68,13.12Zm1.81,53.96c-.61-.29-1.21-.58-1.82-.87-12.01,8.25-21.88,33.21-16.2,44.92,6.01-14.68,12.01-29.37,18.02-44.05Zm-35.38-.67c10.19-16.52,22.53-31.86,28.21-52.36-4.81,2.79-10.82,2.17-11.2,7.57-.68,9.75-4.49,18.14-8.75,26.58-3,5.94-5.52,12.13-8.25,18.21Zm-10.14-26.62c-.62-.28-1.25-.56-1.87-.83-5.64,12.48-11.27,24.95-16.91,37.43l2.58,1.13c5.4-12.58,10.8-25.15,16.2-37.73Zm-30.29,91.23c.46.11.91.21,1.37.32,2.41-7.93,7.7-15.2,4.35-24.46-1.91,8.05-3.81,16.09-5.72,24.14Zm64.49-149.88c3.88,3.62,7.88,7.37,12.4,11.58-.05-6.8-5.69-11.47-12.4-11.58Zm-15.37,132.1c.69,0,1.39,0,2.08,0-.01-5.1-.02-10.2-.03-15.3-.63,0-1.25,0-1.88,0-.06,5.1-.11,10.2-.17,15.3Zm-11.58-143.08c.36-.49.73-.98,1.09-1.47-4.95-3.66-9.91-7.31-14.86-10.97-.32.41-.64.82-.96,1.23,4.91,3.74,9.82,7.48,14.73,11.21Zm-61.06,104.06c-2.01,3.97-4.03,7.93-6.04,11.9,2.91-3.55,8.04-5.92,6.04-11.9Zm176.7-71.46c.01-.61.02-1.21.04-1.82-5.4-.1-10.79-.19-16.19-.29,0,.42-.01.84-.02,1.26,5.39.28,10.78.56,16.16.85Z"/><path class="cls-2" d="m1280.02,457.98c1.47-6.32,5.74-8.48,13.23-6.7,3.84.91,6.71,6.3,5.72,10.75-1.42,6.41-7.97,12.08-12.52,10.84-4.4-1.19-7.78-9.05-6.43-14.9Zm4.17.86c3.27-.63,5.84-1.13,8.41-1.63.12.58.24,1.17.36,1.75-2.28.64-4.67,1.02-6.78,2.03-1.16.55-2.68,2.32-2.5,3.25.28,1.47,1.85,2.68,2.87,4.01,2.4-2.04,5.26-3.75,7.01-6.25.89-1.27.51-5.06-.58-5.78-2.9-1.92-6.37-2.31-8.8,2.62Z"/><path class="cls-2" d="m1395.89,490.32c-6.5-1.72-9.84-5.64-8.57-10.05,1.36-4.73,9.39-8.75,14.52-7.28,5.11,1.47,8.69,6.94,7.38,11.27-1.31,4.33-8.13,7.43-13.33,6.06Zm-2.35-4.28c5.7,1.41,11.77-1.5,11.81-4.88.02-1.62-1.53-4.11-2.99-4.73-3.67-1.55-10.96,2.35-11.09,5.87-.06,1.56,1.92,3.2,2.27,3.74Z"/><path class="cls-2" d="m944.05,880.9c-1.71-2.67-2.85-5.97-3.91-9.35-1.58-4.99-2.81-10.06-3.77-15.18-.65-3.48-.69-7.06-.37-10.61.21-2.37.22-4.81.83-7.07.83-3.05,2.18-5.97,3.27-8.95.99-2.7,1.92-5.42,2.92-8.11.13-.35.48-.73.82-.85,1.18-.41,2.13-.08,3.23.64,3.65,2.41,6.85,5.36,10.13,8.22,3.03,2.64,6.06,5.29,8.92,8.11,1.58,1.56,2.79,3.5,4.18,5.27.48.6.9,1.28,1.49,1.75,2.03,1.64,3.22,3.82,4.25,6.14.35.8.67,1.62,1.1,2.37,1.93,3.3,2.42,6.99,2.97,10.67.68,4.53.81,9.09.27,13.63-.18,1.47-.48,3-1.1,4.33-1.51,3.23-3.81,5.8-7.02,7.49-3.04,1.6-6.1,3.14-9.65,3.12-2.61-.02-5.1-.69-7.52-1.66-4.76-1.91-8.32-5.18-11.04-9.95Zm16.88,8.42c.07-.12.15-.23.22-.35-.36-.42-.67-.89-1.09-1.24-3.11-2.55-4.88-5.79-5.72-9.76-1.13-5.31-1.63-10.59-.8-15.96.11-.73.45-1.26,1.19-1.46,1.99-.53,4.7,1.46,4.63,3.51-.13,4.07.42,8.02,2.04,11.77.49,1.14,1.14,2.2,1.63,3.34,1.13,2.61,2.75,4.73,5.38,6,1.15.55,1.38.61,2.17-.41,1.76-2.28,3.1-4.78,3.74-7.61,1.27-5.56,1.11-11.12-.17-16.64-1.2-5.2-3.13-10.1-6.38-14.4-2.35-3.1-4.7-6.17-7.84-8.59-2.17-1.67-4.12-3.62-6.19-5.42-2.68-2.33-5.39-4.63-8.09-6.94-.64-.54-1.03-.26-1.04.46-.02.93.08,1.86.16,2.79.06.75.28,1.3,1.25,1.1.32-.07.75.09,1.04.28,1.12.71,2.2,1.51,3.32,2.22,3.86,2.43,6.17,5.86,6.89,10.37.26,1.65.59,3.29.86,4.95.14.85.46,1.44,1.32,1.83,1.49.67,2.98,1.55,3.31,3.28.43,2.24,1.64,4,2.88,5.8.37.54.68,1.17.83,1.81.48,2.09.42,4.15-.11,6.26-.55,2.15-.59,4.42.29,6.51.54,1.3,1.46,2.44,2.33,3.86-.56.01-1.21.23-1.57,0-1.02-.67-2.01-1.38-2.5-2.65-1.05-2.72-1.12-5.54-1.13-8.4,0-1.87-.14-3.75-.41-5.6-.12-.81-.67-1.57-1.11-2.31-.65-1.08-1.65-2.03-2.01-3.18-.55-1.79-1.28-3.21-3.07-4.07-1.63-.78-2.49-2.18-2.67-4.08-.19-1.96-.45-3.96-1.06-5.82-1.4-4.25-4.76-7.01-7.97-9.86-.06-.05-.19-.03-.54-.06.02.88,0,1.72.07,2.55.22,2.7.46,5.41.71,8.11.02.26.15.51.24.77.71,2.02,1.45,4.03,2.14,6.06.39,1.15.31,1.3-.92,1.53-.7.13-.97.49-.75,1.12.55,1.51,1.12,3.01,1.75,4.48.42.98.99,1.9,1.38,2.89.13.33.05,1.03-.18,1.17-.55.35-.86-.15-1.14-.62-.55-.92-1.12-1.82-1.73-2.7-1.23-1.76-2.47-3.5-2.79-5.72-.19-1.32-.48-2.65-.87-3.93-.29-.96-.82-1.85-1.24-2.76-.13.02-.26.03-.39.05-.09.56-.23,1.12-.25,1.68-.02.63.17,1.29.08,1.9-.27,1.83-.44,3.65.02,5.48.09.38.08.8.1,1.2.12,4.18.68,8.26,2.31,12.17,1.07,2.57,2.12,5.16,2.86,7.83.61,2.2,1.47,4.23,2.56,6.2,1.65,2.97,3.62,5.64,6.55,7.49,1.7,1.08,3.62,1.25,5.48,1.71Z"/><path class="cls-2" d="m854.2,921.58c-.15-.91-.22-1.8-.46-2.65-.15-.53-.43-1.16-.86-1.46-2.41-1.67-4.88-3.26-7.34-4.88-4.62-3.03-9.26-6.03-13.86-9.11-4.05-2.71-7.26-6.31-10.26-10.09-2.2-2.77-4.34-5.6-6.42-8.47-1.85-2.56-3.01-5.37-2.84-8.66.2-3.76.55-7.47,1.91-11,.57-1.47,1.19-2.98,2.1-4.26,2.95-4.14,6.48-7.73,11.38-9.43,3.89-1.36,7.95-1.36,12.01-.42,6.95,1.6,11.54,5.76,14.65,12.16,2.74,5.64,3.73,11.45,3.54,17.59-.28,8.63-.65,17.26-.82,25.9-.06,3.07-.64,6.15.18,9.25.46,1.75-1.35,4.96-2.92,5.53Zm-4.48-11.7c1.6.5,1.76-.34,1.8-1.32.11-2.67.2-5.33.35-8,.28-4.93.63-9.85.87-14.78.13-2.62.15-5.26.12-7.88-.04-4.35-.2-8.72-1.82-12.81-.86-2.16-2.12-4.17-3.27-6.2-1.86-3.26-5.97-4.46-9.27-2.72-1.08.57-2.16,1.23-3.09,2.02-3.64,3.13-6.58,6.65-5.9,11.94.4,3.11.72,6.22,1.2,9.32.31,2.04.79,4.06,2.12,5.77.31.4.29,1.07.43,1.61-.74.17-1.7.7-2.19.43-1.54-.87-3.32-1.76-4.27-3.15-1.87-2.75-3.49-5.79-3.43-9.27.06-3.57.39-7.13.62-10.98-.1.27-.13.39-.18.5-.12.25-.28.48-.38.74-1.19,3.25-1.68,6.63-.78,9.97,1.08,4.02,2.27,8.06,3.9,11.87,1.79,4.19,4.12,8.16,6.27,12.19.51.97,1.06,2.1,1.92,2.66,3.35,2.2,6.84,4.2,10.27,6.29.91.56,1.8,1.17,2.71,1.73,1.09.68,2.19,1.33,3.29,1.99.1-.12.2-.24.3-.36-.44-.44-.88-.87-1.59-1.58Zm-28.42-25.68c-.92,1.33-.95,2.45-.02,3.61,1.14,1.42,2.22,2.89,3.33,4.33.1.13.28.2.48.34-1.28-2.79-2.51-5.47-3.79-8.28Z"/><path class="cls-2" d="m925.95,945.4c.17,5.62-1.93,10.61-4.36,15.45-.84,1.68-2.26,3.11-3.57,4.52-2.9,3.13-6.9,3.17-10.73,3.63-4.81.58-8.84-1.26-12.28-4.39-1.77-1.61-2.82-3.79-2.87-6.34-.02-1.17-.37-2.33-.35-3.49.02-1.4.22-2.8.43-4.18.52-3.5,1.56-6.85,3.18-10.01,1.37-2.68,2.47-5.57,4.26-7.94,4.41-5.83,9.07-11.49,15.42-15.42.47-.29.88-.72,1.25-1.15.41-.48.81-.55,1.3-.2,1.15.82,1.92,1.83,2.33,3.26.61,2.14,1.5,4.2,2.27,6.3.07.19.19.36.24.55,1.24,4.92,2.96,9.75,3.09,14.9.04,1.5.25,3,.39,4.5Zm-7.82-2.05c0-.39.02-.78,0-1.16-.1-1.37-.04-2.77-.36-4.09-.68-2.86-.88-5.71-.14-8.55.74-2.82.92-5.54-.61-8.18-.32-.55-.56-.72-1.05-.27-1.55,1.43-3.19,2.77-4.62,4.31-1.52,1.64-2.81,3.49-4.23,5.22-2.38,2.91-4.62,5.89-6.37,9.25-2.15,4.11-3.37,8.53-4.7,12.91-.77,2.55-.65,5.19-.03,7.77.36,1.51,1.18,2.8,2.57,3.58,1.92,1.08,3.94,1.88,6.21,1.68,1.47-.13,2.94-.21,4.4-.44.62-.1,1.26-.45,1.76-.85,2.15-1.74,3.01-4.2,3.15-6.81.18-3.27.93-6.35,2.29-9.3.29-.64.54-1.31.91-1.9.79-1.26,2.09-1.35,2.81-.08.53.92.72,2.04,1.02,3.09.1.36.1.75.14,1.13.58-1.29,1.24-2.59,1.23-3.89-.01-3.17-.34-6.33-.54-9.5-.1,0-.19.01-.29.02-.45,1.46-.91,2.92-1.36,4.39-.34,1.12-.9,1.58-2.2,1.66Z"/><path class="cls-2" d="m872.61,820.87c-3.28-1.59-5.75-4.1-7.76-6.93-2.02-2.85-3.87-5.88-5.34-9.05-2.12-4.56-2.18-9.36-.54-14.17,1.77-5.21,4.37-9.99,7.54-14.46.86-1.22,1.95-2.3,3.03-3.34,5.35-5.11,11.01-9.84,17.04-14.12.46-.33.98-.6,1.5-.84,3.17-1.49,5.3-.74,6.63,2.53,2.12,5.25,4.02,10.6,6.21,15.82,1.97,4.7,2.76,9.65,3.52,14.61.75,4.9.08,9.77-1.65,14.39-1.06,2.84-2.57,5.52-3.98,8.21-1.25,2.38-3.41,3.94-5.43,5.61-.83.68-1.76,1.25-2.53,1.99-1.17,1.13-2.55,1.79-4.06,2.34-1.81.66-3.54.67-5.36.08-2.93-.95-5.88-1.79-8.83-2.68Zm27.8-21.69c.1-.02.19-.03.29-.05.1-.41.26-.81.29-1.22.12-1.54.36-3.09.25-4.62-.37-5.2-1.02-10.37-2.81-15.3-1.52-4.18-3.11-8.33-4.74-12.47-.62-1.58-.7-1.55-1.95-.49-.14.12-.28.22-.42.34-2.31,1.88-4.67,3.7-6.91,5.66-1.99,1.74-3.8,3.67-5.75,5.45-5.93,5.41-10.67,11.66-14.09,18.96-1.35,2.89-1.56,5.68-.69,8.66,1.23,4.19,4.06,7.01,7.77,9.04,1.25.68,2.61,1.18,3.97,1.64,2.37.79,4.79,1.29,7.28.56,1.55-.45,3.08-.97,4.64-1.4,2.97-.83,5.28-2.87,7.93-4.28.82-.44,1.19-1.08,1.22-1.99.14-4.61-.27-9.13-2.36-13.32-.65-1.3-1.55-2.5-2.47-3.63-1.23-1.51-2.65-2.88-3.89-4.38-.77-.94-.71-2.09-.02-2.87.77-.87,1.52-.23,2.23.1,1.59.73,2.58.09,2.69-1.7.17-2.71.39-5.42.6-8.13.01-.14.16-.27.24-.39.14.06.22.07.26.11.1.1.19.22.27.33,1.01,1.51.69,3.16.55,4.8-.1,1.1-.27,2.21-.2,3.3.08,1.47-.09,2.82-1.14,3.9-.73.76-.43,1.31.08,2.05,1.06,1.52,2.04,3.1,2.99,4.69,1.33,2.2,2.61,4.43,3.91,6.64Z"/><path class="cls-2" d="m873.07,810.59c-2.81-.62-3.29-3.76-2.42-5.45.6-1.18,1.27-2.33,1.97-3.45,1.05-1.68,1.57-3.49,1.73-5.47.35-4.33.71-8.72,2.88-12.59,1.3-2.33,2.92-4.5,4.6-6.59,1.42-1.77,3.09-3.36,4.74-4.93.28-.27,1.11-.23,1.51,0,.34.19.67.9.57,1.27-.14.53-.63,1-1.03,1.43-.65.7-1.34,1.38-2.04,2.03-1.97,1.81-3.37,4.07-4.95,6.18-1.15,1.53-2.05,3.19-2.46,5.09-.46,2.14-.98,4.26-1.39,6.41-.17.91-.26,1.87-.17,2.78.27,2.74-.59,5.08-2.22,7.22-.41.54-.86,1.06-1.24,1.62-.64.93-.9,1.92-.4,3.03.19.41.21.89.33,1.44Z"/><path class="cls-2" d="m841.14,867.78c-.26,1.37-.42,2.43-.68,3.47-1,3.97.02,7.43,2.45,10.63,3.25,4.29,4.5,9.09,3.1,14.37-.34,1.28-1.1,2.46-1.76,3.62-.19.33-.93.72-1.07.61-.36-.27-.76-.83-.72-1.22.13-1.13.3-2.33.77-3.35.89-1.94,1.14-3.93.65-5.93-.6-2.45-.83-5.05-2.43-7.17-.38-.51-.75-1.02-1.18-1.49-2.34-2.57-3.34-5.56-2.8-9.01.24-1.57.62-3.11.92-4.67.23-1.17,1.14-1.17,1.94-.94.39.11.62.78.82,1.07Z"/><path class="cls-2" d="m904.53,963.1c-.94.22-1.6-.11-1.84-.97-.72-2.64-1.26-5.36-.6-8.04.33-1.35,1.26-2.69,2.24-3.73,3.18-3.4,4.66-7.49,4.67-11.99,0-4.61,1.94-8.33,4.4-11.95.26-.39.51-.81.86-1.11.35-.31,1.06-.79,1.2-.68.56.46,1.29,1,.89,1.92-.26.58-.58,1.14-.97,1.63-1.8,2.23-2.88,4.83-3.79,7.5-.32.92-.29,1.98-.3,2.98-.05,3.63-.95,7.03-2.74,10.18-.44.78-1.04,1.47-1.57,2.2-.91,1.24-1.84,2.46-2.74,3.7-.11.15-.17.38-.17.57,0,2.04,0,4.09.05,6.13.01.52.26,1.02.43,1.66Z"/><path class="cls-2" d="m1173.27,539.57c.64-1.09,1.17-1.94,1.66-2.81,2.16-3.81,4.37-7.6,6.43-11.47.74-1.39,1.6-3,3.17-3.55,1.64-.57,2.98-1.65,4.51-2.45,2.94-1.53,5.68,0,8.75-.34,1.12-.13,2.19-.52,3.15-1.12.97-.61,2.03-1.12,2.9-1.86.85-.73,1.67-1.59,2.2-2.56.94-1.74,2.13-3.21,3.47-4.67,1.13-1.25,1.84-3.06,2.26-4.74.94-3.75.37-7.51-.4-11.25-.13-.61-.17-1.64.15-1.86.48-.32,1.35-.18,2.02-.04.56.11,1.18.39,1.58.78,2.38,2.31,4.72,4.66,7.04,7.03.94.96.93,1.93.3,3.23-.9,1.85-1.38,3.9-2.05,5.86-.2.6-.37,1.22-.63,1.81-1.7,3.86-3.77,7.42-7.53,9.72-.79.48-1.56.99-2.33,1.51-.87.59-1.73,1.19-2.6,1.79-.72.49-1.43.82-1.77,1.66-.3.75-.55,1.53-.87,2.28-.31.74-.78,1.43-1.23,2.08-.98,1.41-1.65,2.82-2.21,4.44-.72,2.11-.54,4.27-2.31,6.03-2.02,2.01-2.75,4.64-3.31,7.4-.16.79-.27,1.61-.54,2.36-1.47,4.02-1.47,8.28-2.03,12.45-.65,4.77-1.35,9.53-2.01,14.29-.5,3.58-.97,7.16-1.49,10.73-.72,4.93-3.28,9.01-6.28,12.8-2.9,3.67-5.98,7.2-9.03,10.75-.6.7-1.38,1.26-2.15,1.79-6.74,4.66-14.31,7.13-22.22,9.04-5.36,1.3-10.72,1.19-16.1,1.38-2.85.1-5.71.2-8.56.25-1.57.03-3.15-.09-4.72-.09-3.49-.01-6.99.16-10.46-.03-2.88-.16-5.77-.59-8.58-1.22-1.48-.34-2.88-1.26-4.18-2.12-3.76-2.48-7.72-3.19-12.16-2.22-2.3.5-4.75.54-7.12.47-2.64-.08-5.07-2.75-4.79-4.97.06-.45.33-1.08.68-1.23.33-.14,1.02.1,1.32.4,1.05,1.02,2.29,1.3,3.65,1.16,2.88-.29,5.76-.66,8.64-.97,1.27-.14,2.54-.29,3.82-.29,2.51,0,4.66-.74,6.78-2.17,3.25-2.19,6.9-3.73,10.74-4.58,5.03-1.11,10.18-1.75,15.13-3.1,6.03-1.64,11.99-3.6,17.82-5.83,3.54-1.35,6.81-3.46,10.17-5.26,1.72-.93,3.39-1.96,5.09-2.93,2.75-1.58,4.69-3.74,5.35-6.95.71-3.46,1.44-6.93,2.34-10.34.43-1.62,1.21-3.17,1.98-4.68,1.61-3.15,2.02-6.57,2.42-9.99.25-2.15.47-4.31.77-6.45.07-.53.39-1.02.58-1.54.25-.71.04-1.09-.76-1-.34.04-.68.09-1.01.18-4.92,1.26-9.1-.02-12.49-3.76-1.36-1.49-3.37-2.6-3.74-4.74-.39-2.29-.43-4.63-.56-6.96-.02-.33.22-.77.48-1,3.22-2.89,8.39-4.65,12.55-3.26,2.02.68,3.31,1.77,3.82,4.1.43,1.97,1.73,3.76,2.69,5.61.5.96,1.09,1.88,1.78,3.07Zm-69.31,76.62c1.18-.25,2.72-.57,4.25-.91,3.45-.77,6.87-1.72,10.35-2.29,9.81-1.6,19.46-3.84,29.04-6.44,3.74-1.02,6.27-2.21,8.1-3,4.41-1.89,7.73-3.34,10.95-6.05,2.94-2.48,4.51-4.94,6.16-7.52,4.99-7.8,5.04-13.29,9.8-15.5.77-.36,1.64-.62,2.61-1.52,1.77-1.66,1.62-3.38,2.65-7.26,1.46-5.51,2.86-6.22,2.65-9.72-.13-2.06-.73-3.82-.73-3.82-.9-2.62-1.96-3.09-2.49-5.42-.43-1.89-.16-3.45-.05-4.07.25-1.37.7-2.25,2.49-5.21,2.4-3.96,3.63-5.96,4.78-7.2,1.5-1.62,3.06-2.85,3.74-3.38,3.04-2.38,4.56-2.79,4.44-3.45-.21-1.14-4.94-1.35-8.42-.94-2.54.3-3.81.45-5.08,1.28-1.98,1.29-3.94,2.52-5.41,5.65-.19.4-.69.63-.98.99-.63.78-1.32,1.54-1.79,2.41-1.39,2.58-2.68,5.22-4.01,7.84-.33.65-.64,1.3-.94,1.96-1.94,4.28-2.65,8.86-3.41,13.45-.5,3.01-1.2,6.03-2.18,8.92-1.25,3.7-2.92,7.24-3.42,11.2-.31,2.43-1.01,4.82-1.7,7.17-.67,2.32-2.1,4.22-4.11,5.54-2.6,1.7-5.21,3.41-7.96,4.85-5.44,2.84-10.95,5.53-16.93,7.11-3.25.86-6.47,1.8-9.71,2.69-1.15.32-2.28.7-3.45.9-2.98.51-5.99.86-8.96,1.43-2,.39-3.97.98-5.92,1.6-1.36.43-2.77.88-3.97,1.63-2.16,1.34-4.36,2.48-6.84,3.09-.82.2-1.62.55-2.37.94-.19.1-.29.86-.23.89,1.76.79,3.51,1.67,5.35,2.21,1.01.29,2.2,0,3.69-.04Zm63.42-76.25c-2,.56-3.11.16-3.98-1.36-.63-1.11-1.25-2.23-1.79-3.38-.79-1.66-1.16-1.73-2.84-.93-.83.4-1.93.77-2.74.55-1.37-.38-1.18.33-1.07,1.08.28,2.02,1.3,3.6,2.76,5.03,4,3.92,6.98,3.79,11.53,2.23.48-.16,1.08-1.04,1.02-1.49-.18-1.22-.55-2.47-1.1-3.58-.98-1.97-2.21-3.82-3.22-5.78-.4-.77-.41-1.74-.77-2.54-.16-.35-.74-.51-1.13-.75-.03.37-.17.77-.07,1.09,1.1,3.26,2.24,6.5,3.4,9.84Zm-.38,63.96c-.35.24-1.59,1.14-1.59,1.14h0c-.6.5-1.14.91-1.82,1.32-.64.39-.78.69-1.3,1.12-.84.72-2,1.04-3.03,1.27-1.15.27-2.19.93-3.3,1.29-.76.25-1.43.17-2.18.51-.63.29-1.14.71-1.75,1.01-.37.18-.82.2-1.17.39-.36.19-.59.47-.88.75-.61.58-1.39.82-1.19,1.81.23,1.13,1.33.79,2.2.58.72-.17,1.31-.49,1.93-.89.34-.22.67-.44,1.02-.63.24-.13.49-.26.73-.37.6-.28,1.31-.66,1.97-.72-.23.02.82.09.61.11.07,0,.14-.02.2-.05.76-.26,1.44-.48,2.17-.83,1.28-.63,2.41-1.35,3.74-1.91,1.12-.47,2.19-1,3.2-1.67.81-.54,1.76-.87,2.58-1.42,1.05-.69,1.95-1.61,3.04-2.23.64-.36,1.3-.94,1.87-1.39.26-.21.34-.43.54-.68.66-.84,1.68-1.35,2.41-2.15.96-1.04,1.53-2.42,2.3-3.59.87-1.32.86-1.89.64-2.17-.28-.37-1.05-.27-1.3-.24-.58.07-.99.31-1.28.48-2.19,1.28-2.09,1.05-2.44,1.38-.93.86-.56,1.46-1.38,2.9-.89,1.56-2.2,2.42-3.03,2.96-1.39.91-1.88.76-3.51,1.92Zm-25.34,8.2c-.1-.02-.25-.09-.39-.07-2.51.4-5.03.8-7.54,1.26-.34.06-.59.35-1.15.71-3.36,2.16-5.67,3.65-5.45,4.6.34,1.47,6.68,1.53,7.11.19.15-.48-.49-1.02-.22-1.75.23-.62.93-.84,1.17-.99,2.15-1.31,4.3-2.62,6.47-3.94Zm-32.49,5.92c.02.19.03.38.05.56.7.06,1.4.15,2.1.17,2.89.09,5.77.16,8.66.23.42,0,.93.09,1.25-.11,2.06-1.29,4.08-2.64,6.11-3.98-6.04,1.19-12.29,1.17-18.17,3.13Zm71.13-24.38c.52-.7,1.17-1.23,1.39-1.91,1.12-3.43,2.16-6.89,3.15-10.36.32-1.13.43-2.33.57-3.5.03-.23-.19-.62-.39-.71-.17-.07-.61.12-.72.31-1.38,2.53-2.96,5.01-2.07,8.14.18.62.33,1.47.05,1.96-.86,1.49-1.95,2.85-2.92,4.28-.22.32-.56.88-.45,1.03.23.31.73.43,1.39.76Zm18.89-63.29l-.42-.39c-.72.71-1.6,1.33-2.12,2.16-1.36,2.2-2.64,4.46-3.82,6.77-1.03,2.03-1.91,4.15-2.78,6.26-.23.57-.27,1.25-.23,1.87.02.34.41.65.63.97.26-.24.63-.44.75-.74.6-1.45,1.2-2.9,1.68-4.39,1.38-4.23,3.14-8.26,5.91-11.78.17-.22.25-.5.38-.75Zm-58.75,85.12c.03.12.06.25.1.37,2-.2,4-.38,5.99-.63.16-.02.26-.54.37-.84.16-.41.24-1.15.47-1.19,1.52-.3,2.34-1.56,3.48-2.36,1.03-.72,2.12-1.35,3.42-2.18-.5.05-.74.04-.96.1-1.97.52-3.94,1.03-5.9,1.61-.55.16-1.25.42-1.5.85-1.25,2.17-2.98,3.67-5.48,4.26Zm72.36-103.25c-1.24-.02-2.47,1.23-2.65,2.7,1.43.14,2.64-1.09,2.65-2.7Zm2.54-17.49c-.32.75-.69,1.21-.59,1.49.17.47.65.83,1,1.24.31-.33.93-.77.86-.97-.18-.53-.66-.96-1.27-1.75Zm-41.16,105.47-3.77,3.08"/><path class="cls-2" d="m1140.48,594.23c-2.27-.15-4.28-.47-6.01-1.89-1.38-1.13-2.8-2.23-4.21-3.32-2.84-2.2-2.82-5.02-1.92-7.83.83-2.58,2.42-4.61,4.87-5.95,1.8-.98,3.5-1.2,5.48-.47,2.8,1.03,5.28,2.54,7.62,4.34,1.55,1.19,2.79,2.63,2.99,4.7.03.29.11.65-.02.88-1.54,2.71-2.55,5.82-5.21,7.74-1.07.77-2.38,1.21-3.59,1.8Zm-1.77-15.64c.02-.11.05-.23.07-.34-.72-.12-1.46-.38-2.17-.33-1.97.13-3.47.9-4.47,2.83-2.61,4.98-.52,8.06,4.29,9.9,1.81.69,3.55.08,4.86-1.4.76-.86,1.58-1.7,2.18-2.68.95-1.55,2.52-3.04,1-5.11-.59-.8-.98-1.8-2.36-1.97.01,1.16-.31,2.4.11,3.29.77,1.66.23,2.73-.87,3.86-.53.54-.96,1.2-1.42,1.81-.66.87-1.45.97-2.36.44-1.24-.73-1.48-1.99-.78-3.58.23-.51.38-1.12.34-1.67-.06-.95-.38-1.89-.44-2.85-.12-2.09.16-2.35,2.02-2.2Z"/><path class="cls-2" d="m1146.26,555.53c.47,3.53-.28,6.62-2.08,9.44-.33.51-1.15,1.06-1.7,1.01-1.67-.15-3.4-.34-4.94-.96-3.76-1.52-7.08-3.86-10.36-6.22-2.32-1.67-2.58-6.06-.43-7.98,2.43-2.18,5.35-3.44,8.58-3.97.37-.06.77-.05,1.15.02,3.08.56,5.8,1.93,8.19,3.89,1.17.95,1.39,2.13,1.59,4.78Zm-2.94-1.13c-.1-.02-.21-.05-.31-.07-.2-.74-.37-1.49-.61-2.21-.07-.2-.34-.38-.55-.44-.12-.03-.39.17-.46.33-.99,2.08-1.95,4.16-.76,6.52.15.31.12.95-.09,1.14-.21.19-.78.09-1.16-.01-1.44-.38-1.89-1.57-2.24-2.84-.31-1.15-.57-2.38-1.93-2.8-1.5-.45-2.61-1.37-3.48-2.65-.17-.25-.78-.55-.86-.48-.91.86-2.01,1.65-2.55,2.71-.76,1.48-.19,3,1.17,3.93,2.07,1.4,4.21,2.73,6.41,3.91,1.28.69,2.73,1.1,4.14,1.49.94.26,1.77-.25,1.97-1.19.51-2.43.88-4.89,1.31-7.33Zm-10.31-4.76c-.03.15-.07.3-.1.44.98.47,1.94.99,2.94,1.39.24.1.63-.19.95-.3-.17-.25-.3-.64-.53-.71-1.07-.32-2.17-.56-3.26-.82Z"/></svg>