<?xml version="1.0" encoding="UTF-8"?>
<svg id="Ebene_2" data-name="Ebene 2" xmlns="http://www.w3.org/2000/svg" width="390" height="688.16" viewBox="0 0 390 688.16">
  <defs>
    <style>
      .cls-1 {
        fill: #fff;
      }

      .cls-2 {
        fill: #cef2c7;
      }
    </style>
  </defs>
  <rect id="Rectangle_1368" data-name="Rectangle 1368" class="cls-1" y="0" width="390" height="688.16"/>
  <path id="Path_2883" data-name="Path 2883" class="cls-2" d="M84.33,139.48c3.41,2.46,6.65,4.31,9.27,6.81,4.7,4.47,6.8,10.35,7.15,16.73,.54,9.91,.21,19.88-3.05,29.29-2.03,5.69-4.83,11.07-8.32,16-13.91,19.9-34.05,26.95-57.44,27.23-19.23,.23-33.97-7.65-44.28-23.76-4.99-7.8-5.81-16.82-5.35-25.62,.35-6.7,2.27-13.47,4.44-19.89,2.97-8.77,9.82-14.19,18.11-17.85,1.02-.45,2.09-.8,3.02-1.15-2.79-8.24-4.36-16.9-12.29-22.2l.63-1.18c1.96,.2,4.06,0,5.84,.67,7.13,2.66,13.46,7.08,18.41,12.87,2.66,3.06,6.76,4.86,11.06,7.82,.58-3.3,.73-5.27,1.3-7.12,1.44-4.7,2.85-9.43,4.71-13.97,.91-2.21,2.35-4.62,5.61-4.15,.48,.03,.94-.16,1.26-.52,1.44-2.41,3.61-1.66,4.46-.18,.78,1.36,.86,4.17-.05,5.27-3.79,4.61-5.96,9.82-7.15,15.59,5.93-8.82,17.7-14.35,15.15-28.01,3.93-.06,5.07,2.45,5.42,5.25,.65,5.24,.13,10.36-2.6,15.07-.8,1.38-1.44,2.85-2.24,4.45,10.75,1.91,20.08,.82,26.98-8.24,.49-.64,1.83-1.2,2.48-.97,.62,.22,1.31,1.59,1.2,2.33-.36,2.07-.92,4.1-1.68,6.05-.42,1.13-1.27,2.11-2.05,3.37M-3.34,169.85c.28,.34,.57,.68,.85,1.02-.81,3.69-1.89,7.35-2.34,11.08-.47,3.77-.56,7.57-.26,11.35,.24,2.78,1.24,5.56,2.25,8.21,1.3,3.42,3.24,6.6,4.36,10.06,1.66,5.12,2.62,9.32,8.42,10.15-.57-1.19-1.03-2.15-1.49-3.12-3.85-8.17-9.84-15.36-11.13-24.71-1.06-7.74-1.01-15.4,1.68-22.8,1.2-3.31,6.07-4.79,8.49-3.21-1.04,1.53-2.33,2.95-3.08,4.61-4.1,9.19-3.4,18.46-.06,27.68,.3,.84,1.27,1.48,2.01,2.11,1.03,.88,2.2,1.61,3.21,2.52,3.05,2.78,6.04,5.64,9.08,8.44,2.04,1.87,4.14,3.68,6.51,5.78l-5.51,2.89c6.27,2.11,11.55,4.05,16.93,5.66,6.95,2.08,14.25,3.26,21.15,.93,9.59-3.24,17.41-9.77,24.55-16.73,3.5-3.42,5.58-8.32,8.22-12.6,4.43-7.16,5.96-15.1,5.13-23.3-.71-7.02-2.4-13.94-3.55-20.92-.8-4.87-4.11-8.04-7.42-11.15-1.02-.95-2.87-1.92-4.05-1.65-6.71,1.55-13.75,1.55-19.99,5.47-3.49,2.19-7.97,3.77-12.04,3.84-6.4,.11-11.93,1.41-17.06,5.31-4.51,3.43-9.72,5.12-15.58,5.11-3.16-.03-6.28,.68-9.12,2.05-4.5,2.32-8.97,4.07-14.07,3.82-2.14-.1-3,.92-3.67,2.93-3.53,10.56-3.18,21.14-.59,31.79,1.16,4.78,2.43,5.98,7.72,7.39-.19-.55-.33-1.02-.52-1.47-4.89-11.58-4.72-23.42-1.71-35.35,.31-1.21,1.76-2.14,2.68-3.2m36.21-17.13c-.54-4.12-2.5-6.08-5.21-7.14-5.18-2.03-9.21-5.24-12.89-9.49-3.04-3.52-7.39-5.91-11.03-8.7,1.95,5.13,3.73,9.84,5.54,14.54,1.27,3.3,3.67,6.14,7.14,5.77,5.96-.64,10.85,1.25,16.45,5.02M-1.12,164.28c6.4-3.86,13.39-4.51,20.49-5.22,3.38-.34,6.59-2.38,10.48-3.89-3.12-3.27-5.32-5.2-8.99-3.29-1.77,.92-3.85,1.23-5.77,1.88-6.29,2.11-11.81,5.42-16.22,10.52m46.09-15c4.46,1.83,8.03-.16,11.3-2.11,5.63-3.36,11.43-5.81,18.08-6.18,1.56-.09,3.05-1.29,4.64-2.01-5.47,.33-10.61,1.18-15.65,.8-6.66-.5-14.44,2.94-18.36,9.5m-29.63,.98c-3.75-2.21-7.53-.48-11.09,1.81-4.7,3.03-9.42,6.13-11.99,11.7l23.08-13.51m28.38-28.16c-6.95,8.08-8,17.27-8.23,27.36,.59-.76,.85-.94,.88-1.16,1.26-8.19,3.46-16.03,8.09-23.06,.41-.62-.46-2.07-.73-3.14m-22.99,104.32l-8.59-10.79,2.85-.6c-.92-.75-1.76-1.63-2.78-2.21-1.35-.77-2.84-1.3-4.99-2.25,2.05,4.06,4.38,7.24,5.26,10.78,1.03,4.17,3.2,5.5,8.26,5.06m22.8-83.43l1,.7c6.51-4.41,12.33-9.36,13.4-17.99l-14.39,17.28m-9.77,87.66l.39-1.25-7.47-2.59c-.16,.49-.32,.98-.48,1.47l7.56,2.37"/>
  <g>
    <path id="Path_2886" data-name="Path 2886" class="cls-2" d="M360.44,118.25c-1.17-1.83-1.96-4.1-2.69-6.42-1.07-3.42-1.94-6.9-2.59-10.43-.42-2.41-.5-4.86-.26-7.29,.14-1.63,.15-3.3,.57-4.86,.57-2.1,1.5-4.1,2.25-6.15,.68-1.85,1.32-3.72,2.01-5.58,.1-.26,.31-.47,.56-.59,.81-.28,1.46-.06,2.22,.44,2.51,1.66,4.71,3.68,6.96,5.65,2.08,1.82,4.17,3.63,6.13,5.57,1.09,1.08,1.92,2.41,2.87,3.62,.3,.44,.64,.84,1.02,1.21,1.39,1.12,2.21,2.63,2.92,4.22,.22,.56,.47,1.1,.76,1.63,1.33,2.27,1.66,4.8,2.04,7.33,.48,3.1,.55,6.25,.19,9.37-.1,1.03-.35,2.03-.76,2.98-.99,2.21-2.68,4.02-4.82,5.15-2.09,1.1-4.19,2.16-6.63,2.14-1.78-.05-3.53-.44-5.16-1.14-3.27-1.31-5.72-3.56-7.58-6.84m11.6,5.78l.15-.24c-.22-.3-.47-.59-.75-.85-2.06-1.7-3.45-4.08-3.93-6.7-.78-3.65-1.12-7.27-.55-10.97,.02-.48,.36-.88,.82-1,1.36-.36,3.23,1,3.18,2.41-.14,2.77,.34,5.53,1.4,8.09,.34,.78,.78,1.51,1.12,2.29,.77,1.79,1.89,3.25,3.7,4.12,.79,.38,.95,.42,1.49-.28,1.23-1.53,2.11-3.32,2.57-5.23,.83-3.77,.79-7.68-.12-11.44-.74-3.57-2.24-6.95-4.39-9.9-1.61-2.13-3.23-4.24-5.39-5.9-1.49-1.14-2.83-2.49-4.25-3.72-1.84-1.6-3.7-3.18-5.55-4.77-.44-.37-.7-.18-.72,.31,0,.64,.04,1.28,.11,1.92,.04,.51,.19,.89,.86,.76,.25-.02,.51,.05,.72,.19,.77,.49,1.51,1.04,2.28,1.53,2.57,1.54,4.31,4.15,4.73,7.12,.18,1.14,.41,2.26,.59,3.4,.04,.56,.39,1.04,.91,1.26,1.02,.46,2.05,1.07,2.28,2.25,.3,1.54,1.13,2.75,1.98,3.98,.26,.38,.46,.8,.57,1.24,.32,1.42,.3,2.89-.08,4.3-.43,1.47-.36,3.05,.2,4.48,.47,.92,1,1.81,1.6,2.65-.38,0-.83,.16-1.08,0-.75-.4-1.36-1.04-1.72-1.82-.72-1.87-.77-3.81-.78-5.77,0-1.29-.1-2.57-.28-3.85-.15-.57-.41-1.11-.76-1.58-.45-.74-1.13-1.39-1.38-2.19-.38-1.23-.88-2.2-2.11-2.79-1.09-.52-1.8-1.6-1.84-2.81-.1-1.35-.34-2.7-.73-4-.96-2.92-3.28-4.82-5.47-6.77-.04-.04-.13-.02-.37-.04,.01,.61,0,1.18,.05,1.75,.15,1.86,.32,3.71,.49,5.57,.03,.18,.09,.36,.16,.53,.49,1.39,.99,2.77,1.47,4.16,.27,.79,.21,.89-.64,1.05-.48,.09-.67,.34-.51,.77,.37,1.04,.77,2.07,1.2,3.08,.28,.67,.68,1.3,.95,1.99,.09,.23,.03,.7-.12,.8-.38,.24-.59-.1-.78-.42-.38-.63-.77-1.25-1.19-1.85-.84-1.21-1.7-2.4-1.92-3.93-.13-.91-.33-1.82-.59-2.7-.24-.65-.53-1.29-.85-1.9l-.27,.03c-.08,.38-.14,.77-.17,1.16,.04,.43,.06,.87,.06,1.31-.24,1.24-.24,2.52,.01,3.77,.05,.27,.07,.55,.07,.83,0,2.86,.55,5.7,1.59,8.36,.77,1.75,1.42,3.55,1.97,5.38,.42,1.49,1.01,2.92,1.76,4.26,1.13,2.04,2.49,3.87,4.5,5.15,1.17,.74,2.49,.86,3.76,1.17"/>
    <path id="Path_2887" data-name="Path 2887" class="cls-2" d="M298.7,146.2c-.07-.61-.18-1.22-.32-1.82-.09-.39-.29-.74-.59-1-1.66-1.15-3.36-2.24-5.04-3.35-3.17-2.08-6.37-4.15-9.52-6.26-2.78-1.86-4.98-4.34-7.05-6.93-1.51-1.91-2.98-3.85-4.41-5.82-1.27-1.76-2.07-3.69-1.95-5.95,.14-2.58,.38-5.13,1.31-7.56,.36-1.03,.84-2.01,1.44-2.93,2.03-2.84,4.46-5.31,7.82-6.48,2.67-.88,5.53-.98,8.25-.29,4.77,1.1,7.93,3.96,10.06,8.35,1.8,3.76,2.63,7.92,2.43,12.08-.19,5.93-.45,11.86-.56,17.8-.04,2.11-.44,4.23,.13,6.36,.32,1.2-.93,3.41-2.01,3.8m-3.08-8.04c1.1,.34,1.21-.23,1.23-.9,.07-1.83,.14-3.66,.24-5.49,.19-3.38,.43-6.77,.6-10.15,.09-1.8,.1-3.61,.08-5.42-.03-2.99-.13-5.99-1.25-8.8-.65-1.47-1.4-2.89-2.25-4.26-1.27-2.24-4.09-3.06-6.37-1.87-.76,.38-1.47,.85-2.12,1.39-2.5,2.15-4.52,4.57-4.05,8.2,.28,2.13,.5,4.28,.82,6.4,.22,1.4,.54,2.79,1.46,3.96,.17,.35,.27,.72,.29,1.11-.51,.11-1.16,.48-1.51,.29-1.06-.59-2.28-1.21-2.93-2.17-1.28-1.89-2.4-3.98-2.36-6.37,.04-2.45,.27-4.9,.43-7.55-.07,.19-.09,.27-.12,.35-.1,.17-.18,.34-.26,.51-.82,2.23-1.15,4.56-.54,6.85,.7,2.78,1.6,5.51,2.68,8.16,1.23,2.88,2.83,5.61,4.31,8.38,.35,.66,.73,1.44,1.32,1.83,2.3,1.51,4.7,2.89,7.06,4.32,.63,.38,1.23,.8,1.86,1.19,.75,.46,1.5,.91,2.26,1.37l.2-.25-1.09-1.08m-19.52-17.64c-.63,.91-.65,1.68-.01,2.48,.78,.98,1.52,1.99,2.29,2.98,.1,.09,.21,.17,.33,.23-.88-1.92-1.72-3.76-2.6-5.69"/>
    <path id="Path_2888" data-name="Path 2888" class="cls-2" d="M348,162.56c.12,3.86-1.33,7.29-2.99,10.61-.58,1.16-1.55,2.14-2.45,3.11-1.99,2.15-4.74,2.18-7.37,2.49-3.31,.4-6.08-.87-8.44-3.01-1.24-1.11-1.96-2.69-1.97-4.36-.02-.8-.25-1.6-.24-2.4,.03-.96,.13-1.92,.29-2.87,.35-2.4,1.09-4.72,2.18-6.88,.94-1.84,1.7-3.83,2.93-5.45,3.03-4.01,6.23-7.89,10.59-10.59,.32-.22,.61-.49,.86-.79,.16-.28,.52-.37,.8-.21,.03,.02,.07,.04,.1,.07,.78,.53,1.35,1.33,1.6,2.24,.42,1.47,1.03,2.89,1.56,4.33,.06,.12,.12,.25,.17,.38,.85,3.38,2.03,6.7,2.13,10.24,.03,1.03,.17,2.06,.27,3.09m-5.38-1.41c0-.27,.02-.53,0-.8,0-.94-.09-1.88-.25-2.81-.52-1.92-.55-3.94-.09-5.87,.51-1.94,.63-3.81-.42-5.62-.22-.37-.39-.49-.72-.18-1.06,.98-2.2,1.9-3.18,2.96-1.04,1.13-1.93,2.39-2.91,3.59-1.67,1.96-3.14,4.09-4.38,6.35-1.48,2.82-2.31,5.86-3.23,8.87-.48,1.75-.49,3.59-.02,5.34,.21,1.03,.85,1.93,1.77,2.46,1.32,.74,2.71,1.29,4.27,1.16,1.01-.09,2.02-.14,3.02-.3,.45-.09,.86-.29,1.21-.58,1.48-1.2,2.06-2.88,2.17-4.68,.11-2.21,.65-4.38,1.57-6.39,.18-.45,.39-.88,.63-1.31,.54-.86,1.43-.92,1.93-.06,.32,.68,.55,1.39,.7,2.12,.05,.26,.08,.52,.09,.78,.4-.89,.85-1.78,.85-2.67,0-2.18-.23-4.35-.37-6.52h-.2c-.31,1.02-.63,2.02-.93,3.03-.23,.77-.62,1.08-1.51,1.14"/>
    <path id="Path_2889" data-name="Path 2889" class="cls-2" d="M311.35,77c-2.15-1.11-3.99-2.75-5.33-4.76-1.41-1.96-2.64-4.04-3.67-6.22-1.41-3.07-1.54-6.57-.37-9.73,1.24-3.54,2.98-6.89,5.18-9.93,.62-.83,1.32-1.6,2.08-2.29,3.66-3.51,7.57-6.76,11.71-9.7,.33-.22,.67-.42,1.03-.58,2.18-1.02,3.65-.51,4.55,1.74,1.46,3.61,2.76,7.28,4.27,10.87,1.35,3.23,1.9,6.63,2.42,10.03,.48,3.34,.09,6.74-1.13,9.89-.8,1.94-1.71,3.82-2.74,5.64-.86,1.64-2.34,2.71-3.73,3.85-.57,.47-1.21,.86-1.74,1.37-.8,.73-1.75,1.28-2.79,1.61-1.18,.45-2.48,.47-3.68,.06-2.01-.65-4.04-1.23-6.07-1.84m19.1-14.91l.2-.03c.09-.27,.15-.55,.2-.84,.13-1.05,.19-2.11,.17-3.17-.25-3.57-.7-7.12-1.93-10.51-1.04-2.87-2.14-5.72-3.26-8.57-.43-1.09-.48-1.06-1.34-.33-.09,.08-.19,.15-.29,.23-1.59,1.29-3.21,2.54-4.75,3.89-1.36,1.19-2.61,2.52-3.95,3.75-4.06,3.65-7.35,8.08-9.68,13.03-.91,1.85-1.08,3.98-.47,5.95,.84,2.88,2.79,4.82,5.34,6.21,.87,.45,1.79,.83,2.73,1.13,1.63,.55,3.29,.89,5,.39,1.07-.31,2.12-.66,3.19-.96,2.04-.57,3.63-1.97,5.45-2.94,.52-.25,.85-.79,.84-1.37,.1-3.17-.19-6.27-1.62-9.15-.47-.89-1.04-1.73-1.7-2.49-.85-1.04-1.82-1.98-2.67-3.01-.51-.56-.51-1.41-.01-1.97,.53-.6,1.04-.16,1.54,.07,1.1,.5,1.77,.06,1.85-1.17,.12-1.86,.27-3.73,.41-5.59,0-.09,.11-.18,.17-.27,.09,.04,.15,.05,.18,.08,.07,.07,.13,.15,.18,.23,.69,1.03,.48,2.17,.38,3.3-.1,.75-.15,1.51-.14,2.27,.06,1.01-.06,1.94-.78,2.68-.5,.52-.3,.9,.05,1.41,.73,1.04,1.4,2.13,2.06,3.22,.91,1.51,1.79,3.04,2.69,4.56"/>
    <path id="Path_2893" data-name="Path 2893" class="cls-2" d="M403.52,34.64c.7,2.32,.79,4.78,.27,7.15-.43,2.37-1.08,4.7-1.93,6.96-1.23,3.14-3.66,5.67-6.75,7.02-3.41,1.57-7.03,2.63-10.75,3.16-1.03,.13-2.06,.16-3.1,.09-5.07-.2-10.12-.77-15.11-1.7-.39-.08-.76-.19-1.13-.34-2.25-.86-2.9-2.27-1.91-4.48,1.59-3.55,3.33-7.04,4.87-10.61,1.38-3.21,3.46-5.97,5.55-8.7,2.07-2.66,4.79-4.75,7.91-6.05,1.95-.77,3.94-1.42,5.96-1.94,1.77-.52,3.57-.19,5.36,.01,.73,.08,1.46,.27,2.19,.3,1.08,.07,2.14,.38,3.09,.89,1.14,.54,2.06,1.46,2.59,2.61,.93,1.9,1.92,3.76,2.88,5.64m-23.98-3.42c-.05-.04-.11-.08-.16-.12-.26,.13-.51,.27-.74,.44-.85,.63-1.65,1.33-2.4,2.08-2.4,2.66-4.64,5.45-6.23,8.68-1.35,2.74-2.64,5.51-3.91,8.29-.49,1.06-.43,1.09,.69,1.2,.12,.01,.24,.03,.37,.05,2.03,.25,4.06,.55,6.1,.72,1.8,.15,3.63,.13,5.44,.25,5.45,.39,10.92-.31,16.1-2.07,1.97-.63,3.62-1.98,4.62-3.79,1.49-2.6,1.53-5.35,.77-8.15-.28-.94-.64-1.86-1.08-2.74-.74-1.55-1.64-2.98-3.19-3.87-.96-.55-1.95-1.07-2.9-1.63-1.83-1.08-3.94-1.25-5.9-1.88-.54-.2-1.16-.07-1.56,.35-2.35,2.13-4.39,4.49-5.46,7.52-.31,.96-.52,1.95-.62,2.95-.16,1.33-.16,2.68-.32,4.02-.05,.75-.66,1.35-1.41,1.38-.8,.04-.84-.64-1.02-1.15-.4-1.14-1.18-1.32-2.12-.52-1.42,1.21-2.87,2.39-4.31,3.58-.07,.06-.21,.05-.31,.07-.04-.09-.07-.14-.07-.18,0-.1,.02-.2,.04-.29,.26-1.22,1.23-1.85,2.12-2.56,.61-.45,1.19-.94,1.73-1.47,.69-.74,1.44-1.3,2.47-1.3,.73,0,.86-.41,.98-1.01,.25-1.25,.56-2.49,.89-3.72,.45-1.71,.95-3.4,1.42-5.1"/>
  </g>
  <path id="Path_2885" data-name="Path 2885" class="cls-2" d="M355.83,562.89c5.5,1.01,10.56,1.9,15.6,2.87,3.71,.72,7.4,1.57,11.11,2.32,.74,.13,1.49,.15,2.23,.05,3.51-.41,7.01-.89,10.52-1.33,3.11-.39,6.32,.3,9.11-2.35,1.21-1.16,3.86-1.1,5.85-1.09,5.19,.02,10.39,.26,15.57,.55,1.02,.06,2,.73,3,1.12-.78,.81-1.57,1.62-2.35,2.45-.24,.25-.44,.53-.85,1.02,5.21,.82,10.2,1.46,15.12,2.45,1.54,.31,2.89,1.57,4.33,2.4-1.44,.94-2.76,2.27-4.34,2.73-3.72,1.08-7.57,1.74-11.58,2.63l2.8,4.81c-14.97,3.83-29.16,2.45-43.22-1.52-3.86,3.21-8.83,2.53-13.33,3.48-1.01,.2-2.05,.15-3.03-.15-7.48-2.4-15.09-.57-22.63-.87-7.65-.3-15.25-1.66-22.88-2.45-.87-.09-1.91,.33-2.69,.81-6.26,3.85-12.45,7.8-18.71,11.64-1.63,.98-3.35,1.79-5.14,2.44-7.95,2.97-15.87,6.04-23.93,8.67-2.27,.74-4.99,.1-7.5,.09,.59-2.49,.73-5.2,1.84-7.42,4.32-8.67,11.31-14.79,19.69-19.43,.64-.36,1.24-.78,2.37-1.5-3.75-1.34-7.01-2.51-10.27-3.66-4.5-1.59-9.04-3.08-13.5-4.79-.94-.36-1.58-1.47-2.37-2.23,.91-.75,1.7-1.77,2.73-2.2,10.42-4.33,21.37-5.04,32.49-4.85,5.17,.09,10.53,.52,15.45-.67,4.13-1,9.14-1.7,11.5-6.56,.49-1.01,2.03-1.54,3.14-2.22,3.55-2.18,7.28-4.11,10.63-6.56,3.85-2.82,7.96-4.4,12.7-4.34,2.39,.03,3.88-.64,4.53-3.39,.47-1.96,1.99-3.88,3.52-5.28,.66-.61,2.55,.13,3.88,1.17,5.19-3.54,10.31-7.18,15.62-10.53,1.35-.85,3.33-.62,4.93-1.15,1.85-.64,3.65-1.41,5.39-2.32,2.04-1.02,3.94-2.33,6.02-3.26,.87-.39,2.04-.11,3.07-.14-.06,1.15,.11,2.38-.26,3.42-.36,1.01-1.26,1.83-2.12,3,2.55-.18,4.75-.53,6.92-.4,.81,.05,1.56,1.19,2.33,1.84-2.77,2.6-1.36,7.81-6.06,9.35-1.98,.65-3.65,2.21-5.49,3.37l3,4.75c-5.05,1.02-9.55,2.01-14.08,2.84-7.18,1.3-14.4,2.43-21.56,3.8-.87,.17-1.82,1.24-2.26,2.14-1.99,4.03-3.81,8.14-5.7,12.22-.25,.54-.55,1.05-1.18,2.26m-62.21,34.13c9.08-3.01,17.5-7.72,24.82-13.88,1.2-.99,2.39-2.59,2.57-4.03,.14-1.14-1.29-2.47-2.03-3.72l.75-.74,4.86,5.02c1.97-1.45,4.46-3.4,7.06-5.18,5.35-3.64,5.68-5.81,1.41-10.21q2.19-.31,6.43,4.32l2.95-1.69c1.1-.63,2.2-1.28,3.31-1.89,3.43-1.91,4.63-5.04,3.39-8.84-.19-.73-.33-1.47-.42-2.22l.96-.36,3.43,6.8c1.97-2.94,3.98-5.63,5.67-8.51,1.75-2.98-2.14-9.16-5.67-9.02-5.98,.24-10.78,2.81-14.21,7.39l4.66,5.85c-3.9-2.87-9.54-3.12-13.13-.29-1.64,1.29-3.66,2.1-5.54,3.07-1.36,.7-2.77,1.3-4.36,2.04l4.83,3.94-.53,.8c-.78-.29-1.56-.57-2.34-.87-2.91-1.12-10.62,1.54-12.26,4.03-1.01,1.54-2.25,2.93-3.66,4.12-1.9,1.57-4.06,2.83-6.11,4.22l.4,.93,11.33-3.66c-5.27,5.04-11.43,6.52-16.74,5.49-4.24,3.34-7.2,6.83-10.95,8.36-5.95,2.44-8.46,7.75-12.22,12.04-.72,.82-.81,2.19-1.2,3.3,.26,.3,.52,.6,.78,.9,4.9-1.92,9.85-3.73,14.67-5.83,1.51-.66,2.68-2.08,4.01-3.15-1.24-.82-2.5-1.63-3.72-2.48-.14-.09-.11-.42-.21-.86,3.64-.62,6.08,.57,7.03,4.8m68.26-31.45c-3.78-.18-7.37-1.44-9.74-.26-7.2,3.58-13.94,8.12-20.72,12.2,1.61,4.68,8.68,6.5,14.92,4.77l2.54-10.35,1.47,.41c-.48,1.38-.96,2.76-1.43,4.15-1.54,4.58-.85,5.59,3.78,5.61,1.52,0,3.04,.07,4.56,.08,2.3,.02,3.91-.58,3.79-3.42-.05-1.15,.63-2.33,.98-3.5q.33,5.94,6.07,7.37c.86,.22,1.68,.71,2.54,.75,2.02,.1,4.04,0,7.3-.04-4.5-5.02-4.81-9.71-2.62-14.93-6.5-.8-12.8-4.36-17.37,3.01l3.92-5.84m-91.57,2.18c5.51,1.86,10.91,4.48,16.57,5.32,3.88,.57,8.03,.16,12.04,.91,.72,.14,1.75-.48,2.39-1.03,4.16-3.61,8.25-7.3,13.19-11.7-6.78,.33-12.56-.06-18.03,1.05-7.21,1.46-8.35,3.35-8,9.4-3.15-3.35-3.04-6.2,.43-9.67-7.02,1.16-13.13,1.56-18.58,5.72m124.04-46.48c-3.41,.21-5.56,4.79-9.51,1.89-.1-.07-.46,.17-.66,.31-5.45,3.57-10.87,7.19-16.36,10.7-1.1,.7-2.48,.94-3.65,1.54-.81,.42-1.77,.95-2.13,1.7-.23,.47,.43,1.98,.81,2.03,.93,.05,1.86-.2,2.64-.73,1.09-.7,1.85-2.11,2.99-2.48,3.09-1,6.38-1.37,9.45-2.41,6.86-2.33,11.92-7.12,16.42-12.55m5.88,8.53l-.54-.93c-1.08,.5-2.12,1.12-3.24,1.49-5.81,1.87-10.72,6.1-17.34,5.95-5.48-.12-9.25,4.02-13.5,7.01l27.52-4.62c-.92-1.2-1.62-2.11-2.12-2.77l9.23-6.13m33.44,45.74c0-.35,.02-.7,.02-1.05-1.53-.28-3.07-.53-4.59-.86-2.21-.49-5.25-.32-6.45-1.71-3.67-4.23-5.97-.56-8.79,.68,1.94,.65,3.95,.75,5.81,1.35,1.04,.33,1.82,1.48,2.72,2.27-.83,.83-1.51,1.99-2.51,2.42-1.77,.76-3.74,1.08-6.05,1.7,5.18,3.35,11.16,3.82,16.25,1.15l-6.75-2.76c-.04-.31-.08-.63-.12-.94l10.46-2.24m-11.92-9.22c-5.48-2.2-14.95,.81-16.07,4.88,4.58,.83,9.75-.7,16.07-4.88m-11.44,11.18l-25.28-1.12c-.02,.36-.04,.72-.06,1.08,8.11,.74,15.99,5.15,25.34,.04m-18.4-48.16c5.67-1.32,12.47-5.09,12.91-6.99-7.91,.98-9.07,1.59-12.91,6.99m-7.04,45.21l21.01,.43c-5.97-2.3-18.7-2.75-21.01-.43m-4.25-2.21l-.94-.31c-.59,1.11-1.84,2.42-1.59,3.3,.32,1.13,1.85,1.91,2.85,2.85l.67-.49-.99-5.35m28.65,10.83c0-.13,.02-.25,.03-.38l-15.35-1.44c-.01,.13-.02,.25-.03,.38l15.35,1.44"/>
  <path id="Path_2884" data-name="Path 2884" class="cls-2" d="M92.71,566c-.68-1-1.32-1.92-1.93-2.85-2.07-3.14-4.13-6.28-6.19-9.42-.1-.15-.22-.29-.33-.44-3.74-4.8-8.03-8.99-13.33-12.05-1.17-.67-2.43-1.07-3.83-.75-1.74,.39-3.43,.32-4.96-.76-.97-.69-1.29-1.3-.83-2.4,.76-1.84,1.47-3.75,2.55-5.4,.9-1.39,2.25-2.52,3.49-3.66,.57-.53,1.34-.38,2.05,0,.55,.31,1.15,.52,1.77,.62,3.13,.32,6.12,1.47,8.65,3.32,2.85,2,5.59,4.14,8.22,6.42,1.97,1.71,3.67,3.71,5.04,5.93,.47,.76,1.21,1.36,1.74,2.09,.82,1.12,1.57,2.29,2.34,3.45,.18,.26,.33,.54,.58,.94,.82-3.17,1.59-6.15,2.39-9.28-.46-.19-.94-.32-1.43-.39-1.98-.09-3.99-.48-5.89,.49-.38,.27-.91,.17-1.18-.21l-.02-.03c-.54-.71-.47-.86,.34-1.28,2.37-1.23,4.86-1.11,7.35-.62,1.28,.25,2.38,.2,3.36-.76,.47-.47,1.04-.84,1.54-1.27,2.65-2.29,5.79-3.27,9.22-3.25,2.42,.02,4.84,.29,7.25,.47,1.61,.18,3.14,.74,4.49,1.64,1.81,1.1,3.58,2.28,5.35,3.44,2.31,1.48,4.22,3.5,5.58,5.88,.35,.49,.79,.9,1.3,1.22,1.39,1.07,2.8,2.11,4.2,3.17,.63,.48,1.2,1.04,1.86,1.47,4.18,2.76,6.94,6.7,9.25,11.03,1.43,2.67,1.75,5.6,2.17,8.51,.52,3.6,.69,7.27,1.51,10.8,.8,3.43,1.53,6.96,3.36,10.07,.59,.99,1.29,1.9,2.08,2.73,1.99,2.1,3.57,4.55,4.67,7.22,1.06,2.48,2.08,4.97,3.02,7.49,.45,1.22,.76,2.49,.94,3.78,.65,4.68,.16,9.2-2.08,13.43-.21,.37-.46,.71-.74,1.03-.81,.94-1.6,1.9-2.46,2.79-.45,.4-.94,.76-1.46,1.06-2.34,1.53-4.95,2.59-7.7,3.1-1.8,.36-3.51,1.14-5.29,1.6-.76,.19-1.56,.2-2.32,.03-1.08-.31-2.23,.07-2.92,.96-2.25,2.62-4.56,5.19-6.77,7.84-1.2,1.5-2.69,2.73-4.39,3.61-1.87,.93-3.82,1.7-5.76,2.49-2.08,.92-4.21,1.73-6.37,2.43-2.9,.84-5.84,1.58-8.93,.95-.76-.17-1.55-.11-2.27,.19-5.02,2.53-9.85,1.85-14.65-.61-3.14-1.61-5.79-3.85-8.2-6.4-.35-.34-.65-.72-.88-1.15-1.61-3.33-3.28-6.63-4.36-10.2-.45-1.49-1.33-2.85-2.04-4.25-1-1.98-1.92-4-3.04-5.9-1.47-2.51-3.09-4.93-4.65-7.38-2.05-3.22-4.07-6.47-6.19-9.65-.75-1.13-1.84-2.03-2.6-3.15-1.84-2.75-3.31-5.72-4.39-8.85-1.16-3.35-1.95-6.82-2.36-10.34-.14-1.11-.07-2.24-.13-3.36-.04-.72-.24-1.46-.17-2.17,.16-1.77,.39-3.53,.68-5.29,.45-2.74,2.3-4.8,3.56-7.14,1.21-2.26,3.41-3.29,5.29-4.72,2.07-1.57,4.35-2.43,7.03-2.15,1.38,.14,1.56-.07,1.75-1.47,.4-2.93,1.7-5.56,2.8-8.24,.27-.64,.71-1.2,1.26-1.62,.36-.27,1.02-.23,1.52-.16,.13,.02,.25,.66,.26,1.02,.09,2.79-1.33,5.12-2.34,7.58-.29,.7-.62,1.39-.85,2.1-.32,.99-.06,1.33,.96,1.63,1.63,.48,3.24,.99,4.85,1.53,.54,.18,1.02,.54,1.56,.74,.96,.35,1.93,.65,2.91,.94,.46,.14,1,.11,1.4,.34,1.05,.59,1.84,.15,2.74-.51m37.49,81.47c1.63-.5,3.77-2.28,5.58-4.51,1.35-1.66,2.78-3.27,4.11-4.95,1.46-1.84,2.86-3.73,4.28-5.6,.06-.1,.11-.21,.15-.33,.39-1.08,.64-2.23,1.19-3.22,1.06-1.93,.97-3.88,.55-5.92-.39-1.9-.81-3.8-1.02-5.73-.16-1.43-.42-2.72-1.51-3.76-.37-.44-.67-.94-.9-1.47-1.62-2.88-3.26-5.72-5.79-7.97-3.05-2.72-4.98-6.23-6.61-9.92-.44-1-.98-1.95-1.43-2.94-1.12-2.45-2.49-4.83-3.26-7.39-.64-2.14-1.45-4.23-2.43-6.25-.38-.79-.86-1.54-1.42-2.21-2.42-2.91-4.82-5.85-7.37-8.65-1.14-1.16-2.42-2.18-3.8-3.04-1.2-.81-2.56-1.39-3.81-2.13-.58-.35-1.3-.37-1.9-.06-2.52,1-4.78,2.55-6.63,4.52-.53,.58-1.17,1.06-1.87,1.41-2.69,1.27-5.25,2.8-7.63,4.57-2.81,2.13-5.6,4.27-7.86,6.99-.58,.69-.99,1.52-1.19,2.4-.55,2.44-.43,4.99,.33,7.38,1.16,3.38,2.54,6.69,3.76,10.06,.4,.95,.61,1.96,.63,2.99-.04,1.21,.18,2.41,.64,3.53,.86,2.23,1.61,4.51,2.48,6.74,.8,2.02,1.52,4.11,2.62,5.97,1.47,2.46,3.35,4.68,4.93,7.08,1.96,2.99,3.87,6.02,5.68,9.1,1.52,2.59,2.68,5.4,4.31,7.91,1.85,2.83,4.02,5.45,6.11,8.12,1.42,1.82,3.32,2.34,5.59,1.94,4.35-.76,8.33-2.55,13.51-4.64m-11.91-97.44c-.97,.44-1.92,.91-2.9,1.32-3.32,1.36-4.99,4.28-6.72,7.13-.39,.65-.14,1.24,.53,1.61,.63,.36,1.27,.72,1.91,1.06,3.19,1.69,6.09,3.72,8.27,6.69,1.17,1.62,2.45,3.16,3.84,4.6,2.24,2.28,4,4.99,5.18,7.96,1,2.47,1.72,5.06,2.79,7.49,1.5,3.42,3.19,6.75,4.84,10.1,1.19,2.44,2.87,4.59,4.94,6.34,1.21,1.05,2.28,2.26,3.17,3.59,1.29,1.9,2.38,3.95,3.51,5.95,.59,1.05,1.35,2.09,1.58,3.23,.55,2.67,.87,5.39,1.21,8.1,.12,.98,.26,2.07-.03,2.98-.52,1.63-1.36,3.15-2.04,4.73-.14,.37-.26,.76-.36,1.14,.37,.04,.74,.03,1.11-.03,2.4-.76,4.84-1.43,7.15-2.39,1.55-.6,2.98-1.48,4.22-2.59,3.2-3.08,4.35-7.24,5.21-11.41,.73-3.57-.26-6.99-1.72-10.26-1.15-2.58-2.27-5.17-3.56-7.68-.69-1.41-1.59-2.71-2.66-3.86-2.85-2.9-4.82-6.22-5.61-10.22-.52-2.61-.99-5.23-1.48-7.85-.49-2.65-1.07-5.28-1.46-7.94-1.03-7.06-4.27-12.81-9.86-17.24-.75-.57-1.46-1.19-2.12-1.86-1.47-1.51-3.31-2.61-5.34-3.19-1.41-.46-2.89-.62-4.37-.48-3.22,.48-6.33,1.49-9.23,2.97m-29.92,18.32c-1.28-.54-2.25-.83-3.1-1.33-3.18-1.87-6.65-2.57-10.27-2.64-.88-.04-1.75,.13-2.55,.49-2.71,1.33-5.18,2.99-6.98,5.53-2.69,3.81-4.57,7.8-4,12.67,.51,4.35,.79,8.7,2.15,12.95,1.05,3.39,2.56,6.62,4.49,9.6,.49,.66,1,1.29,1.55,1.89,1.43,1.76,3.01,3.43,4.26,5.31,2.54,3.81,4.83,7.78,7.35,11.6,1.94,3.05,3.64,6.24,5.07,9.55,.57,1.21,1.03,2.46,1.37,3.75,1.69,6.94,5.7,12.04,12.03,15.29,1.08,.55,2.24,.91,3.44,1.08,2.24,.31,4.14-.86,6.23-1.65-.13-.22-.28-.44-.44-.64-1.34-1.56-2.77-3.05-4-4.7-1.96-2.61-3.89-5.26-5.64-8.02-2.78-4.37-5.34-8.88-8.11-13.26-1.7-2.69-3.61-5.24-5.45-7.84-1.02-1.44-1.73-3.08-2.09-4.8-.24-1.16-.55-2.3-.93-3.42-.66-1.89-1.41-3.74-2.1-5.62-.18-.48-.51-1.08-.36-1.46,.48-1.2,.11-2.3-.28-3.35-.53-1.44-1.37-2.78-1.88-4.23-.88-2.39-1.62-4.82-2.23-7.29-.92-3.75-.02-7.72,2.43-10.71,1.79-2.27,3.93-4.22,6.35-5.79,1.24-.82,2.33-1.87,3.66-2.95m42.71-23.61c-.52-.58-.84-.97-1.2-1.34-.72-.72-1.41-1.46-2.19-2.11-.69-.55-1.42-1.04-2.18-1.48-2.51-1.49-4.92-2.97-8.01-3.38-5.51-.73-9.62,1.53-12.77,5.55-2.17,2.77-2.8,6.33-2.88,9.89-.03,1.27-.21,2.47-1.51,3.16-.23,.19-.36,.49-.33,.8,.2,.89,.47,1.76,.8,2.61,.16,.38,.47,.68,.85,.82,1.1,.3,2.87-.5,3.47-1.49,.55-.91,.98-1.91,1.63-2.73,1.17-1.46,2.22-3.25,3.75-4.13,3.59-2.05,7.41-3.72,11.21-5.38,2.6-1.17,5.51-1.46,8.29-.83,.35,.04,.71,.04,1.06,.02m-35.4,9.59c-.24-.44-.35-.69-.5-.92-2.33-3.47-4.18-7.23-6.9-10.47-2.34-2.82-4.97-5.37-7.85-7.62-1.2-.93-2.47-1.76-3.8-2.5-1.1-.58-2.24-1.06-3.42-1.44-.38-.09-.79,.02-1.08,.28-.84,1.37-1.54,2.81-2.35,4.19-.31,.43-.66,.83-1.04,1.19-.21,.23-.44,.44-.67,.67,.24,.25,.51,.47,.8,.66,.5,.22,1.01,.4,1.54,.55,1.55,.5,3.1,.97,4.42,2.03,1.68,1.34,3.59,2.42,5.14,3.89,2.68,2.45,5.2,5.07,7.53,7.85,2.42,2.91,4.53,6.07,6.29,9.42,1.16,2.29,1.17,2.19,3.19,.45,.56-.49,.87-1.02,.65-1.74-.66-2.24-1.34-4.47-1.95-6.5m-31.17-16.24c2.18-1.58,3.9-3.7,5.01-6.15,.33-.73-.04-1.04-.56-1.38-.39-.31-.95-.24-1.26,.15-.03,.04-.06,.08-.08,.13-1.07,1.43-2.19,2.83-3.15,4.33-.4,.75-.66,1.56-.79,2.39-.13,.58,.24,.76,.83,.53"/>
</svg>