<?xml version="1.0" encoding="UTF-8"?>
<svg id="Ebene_2" data-name="Ebene 2" xmlns="http://www.w3.org/2000/svg" width="300" height="300" xmlns:xlink="http://www.w3.org/1999/xlink" viewBox="0 0 253 253">
  <defs>
    <style>
      .cls-1, .cls-2, .cls-3, .cls-4 {
        fill: none;
      }

      .cls-2 {
        stroke: #52a174;
      }

      .cls-2, .cls-3 {
        stroke-linecap: round;
        stroke-linejoin: round;
      }

      .cls-3, .cls-4 {
        stroke: #343434;
      }

      .cls-5 {
        fill: #fffcf2;
      }

      .cls-6 {
        fill: #fff;
      }

      .cls-7 {
        fill: #fff5ce;
      }

      .cls-8 {
        fill: #fff8ee;
      }

      .cls-9 {
        fill: #fff5cd;
      }

      .cls-10 {
        fill: #fff2bf;
      }

      .cls-11 {
        fill: #fffef9;
      }

      .cls-12 {
        fill: #ffec9e;
      }

      .cls-13 {
        fill: #ffe680;
      }

      .cls-14 {
        fill: #c0f2b7;
      }

      .cls-15 {
        fill: #b99ac8;
      }

      .cls-16 {
        fill: #b2efa7;
      }

      .cls-17 {
        fill: #ceaa82;
      }

      .cls-18 {
        fill: #bf583d;
      }

      .cls-19 {
        fill: #c4654c;
      }

      .cls-20 {
        fill: #d9b79c;
      }

      .cls-21 {
        fill: #dcf8d7;
      }

      .cls-22 {
        fill: #52a174;
      }

      .cls-4 {
        stroke-miterlimit: 10;
      }

      .cls-23 {
        clip-path: url(#clippath);
      }
    </style>
    <clipPath id="clippath">
      <circle class="cls-1" cx="126.5" cy="126.5" r="126.5"/>
    </clipPath>
  </defs>
  <g class="cls-23">
    <g>
      <circle id="Ellipse_1084-2-2" data-name="Ellipse 1084-2-2" class="cls-6" cx="126.5" cy="126.5" r="126.5"/>
      <path class="cls-20" d="M152.86,70.6c11.05,16.55,31.93,25.51,51.46,22.77,19.54-2.74,36.98-16.72,44.8-35.05,2.92-6.84,4.59-14.39,3.57-21.77-.89-6.42-3.78-12.42-7.47-17.73-5.81-8.35-13.69-15.21-22.75-19.69-11.58-5.72-25.04-7.44-37.66-4.83-6.47,1.34-12.69,3.81-18.36,7.23-4.77,2.88-11.73,7.21-14.05,12.53-2.5,5.72-5.46,10.91-6.79,17.13-1.33,6.22-1.5,12.82-.52,19.17,1.12,7.2,3.72,14.19,7.75,20.24h.02Z"/>
      <path class="cls-19" d="M168.35,18.72c8.6-8.75,20.77-13.98,33.11-14.25,5.34-.11,10.86,.72,15.41,3.49,4.4,2.67,7.55,6.9,10.49,11.09,4.31,6.12,8.5,12.53,10.35,19.75,2.87,11.21-.51,23.68-8.35,32.27-7.84,8.59-19.83,13.18-31.52,12.49-11.23-.66-23.36-6.25-30.15-15.29-3.28-4.36-6.34-8.75-9.86-12.95-2.77-3.3-3.1-4.93-2.6-9.17,.37-3.13,1.06-6.22,2.05-9.22,2.25-6.79,6.03-13.09,11.07-18.22h0Z"/>
      <path class="cls-15" d="M173.82,30.41c-.52,1.29-.81,2-.66,2.84,.37,2.09,3.16,3.37,5.24,3.48,2.13,.11,4.27-.94,5.69-2.68,1.17-1.43,1.88-3.42,1.48-5.29-.27-1.26-1.11-2.33-2.18-2.87-.24-.12-.45-.16-.85-.25-1.34-.3-2.43-.19-2.78-.15-.74,.09-2.13,.27-3.5,1.34-1.44,1.13-2.04,2.59-2.43,3.57h-.01Z"/>
      <path class="cls-15" d="M171.02,55.43c-.71,1.26-1.09,1.95-1.04,2.83,.14,2.19,2.91,3.85,5.08,4.22,2.22,.38,4.59-.44,6.3-2.05,1.4-1.32,2.38-3.28,2.19-5.24-.13-1.32-.89-2.53-1.94-3.21-.24-.15-.45-.22-.86-.36-1.37-.48-2.53-.5-2.9-.49-.78,0-2.27,0-3.84,.94-1.65,.98-2.45,2.41-2.98,3.36h-.01Z"/>
      <path class="cls-15" d="M195.19,39.25c-.52,1.18-.81,1.83-.66,2.6,.37,1.92,3.16,3.08,5.24,3.19,2.13,.1,4.27-.86,5.69-2.45,1.17-1.31,1.88-3.13,1.48-4.84-.27-1.15-1.11-2.14-2.18-2.63-.24-.11-.45-.14-.85-.23-1.34-.28-2.43-.17-2.78-.13-.74,.08-2.13,.25-3.5,1.23-1.44,1.03-2.04,2.37-2.43,3.27h-.01Z"/>
      <path class="cls-15" d="M194.06,69.1c-.07,.86-.16,1.91,.15,2.91,.7,2.22,3.39,4.11,6.2,4.02,3.03-.09,4.82-2.43,5.46-3.25,.63-.82,2.11-2.86,1.58-5.12-.29-1.22-1.19-2.26-2.33-2.78-.26-.12-.48-.15-.91-.24-1.37-.28-2.48-.19-2.96-.14-3.78,.35-5.67,.52-6.41,1.48-.58,.74-.65,1.63-.78,3.12h0Z"/>
      <path class="cls-15" d="M201.4,21.2c-.3,1.01-.47,1.57-.21,2.14,.65,1.41,3.43,1.78,5.38,1.47,2-.32,3.84-1.48,4.91-2.98,.88-1.23,1.25-2.78,.61-4.02-.43-.84-1.37-1.44-2.45-1.61-.24-.04-.44-.03-.83-.01-1.29,.04-2.29,.33-2.61,.42-.67,.21-1.94,.59-3.07,1.62-1.18,1.07-1.52,2.22-1.75,2.99l.02-.02Z"/>
      <path class="cls-15" d="M224.15,48.13c-1.4,.07-2.17,.11-2.89,.6-1.77,1.22-1.8,4.25-1.05,6.17,.77,1.96,2.62,3.44,4.8,3.98,1.79,.45,3.92,.25,5.47-.9,1.05-.77,1.69-1.98,1.74-3.17,0-.27-.04-.47-.12-.87-.27-1.33-.82-2.26-1.01-2.56-.39-.62-1.12-1.8-2.67-2.58-1.63-.82-3.22-.74-4.28-.68h0Z"/>
      <path class="cls-3" d="M159.5,6.97c-13.86,13.86-19.43,39.22-8.02,60.26,11.27,20.77,34.9,29.89,54.86,26.18,13.7-2.54,26.12-10.79,34.37-22.01,2.81-3.82,11.14-16.4,9.34-33.25C247.49,14.11,226.29,1.87,222.4-.26c-2.56-1.4-19.94-10.57-41.05-4.77-4.24,1.16-13.74,3.9-21.85,12h0Z"/>
      <path class="cls-3" d="M158.04,25.36c-2.67,3.78-6.28,14.79-3.64,26.27,3.49,15.2,16,22.84,21.15,25.99,4.48,2.74,13.91,8.32,26.77,7.54,13.6-.82,27.97-8.55,35.02-22.35,5.8-11.36,4.22-22.13,3.72-24.95-2.68-15.18-13.49-23.56-17.22-26.44-3.4-2.64-10.95-8.33-22.14-9.43-8.15-.8-13.96,1.26-23.16,4.51-8.71,3.08-11.5,5.82-12.94,7.87-.48,.69-1.27,1.94-3.25,4.84-2.34,3.43-4.04,5.78-4.3,6.15h0Z"/>
      <path class="cls-4" d="M200.23,34.8c-2.64,.41-5.27,2.59-5.27,4.83,0,3.35,5.87,6.78,9.03,4.83,2.39-1.47,3.21-6.02,1.07-8.31-1.63-1.75-4.27-1.43-4.83-1.34h0Z"/>
      <path class="cls-4" d="M200.32,37.57c-1.09,.26-2.12,1.36-1.88,2.59,.24,1.22,1.58,1.89,2.68,1.7,1.41-.25,2.4-1.91,1.88-3.13-.41-.96-1.66-1.41-2.68-1.16Z"/>
      <path class="cls-4" d="M194.82,67.32c-1.48,3.28,3.33,9.68,7.19,8.98,3.38-.61,6.07-6.68,3.93-9.77-2.32-3.36-9.71-2.33-11.12,.79Z"/>
      <path class="cls-4" d="M201.67,67.44c-1.14,.02-2.02,1.03-2.13,2.02-.17,1.53,1.51,3.02,2.81,2.69,1.19-.3,1.93-2.08,1.35-3.37-.32-.7-1.08-1.37-2.02-1.35h0Z"/>
      <path class="cls-4" d="M222.82,48.73c-1.85,1-3.22,3.1-3,5.07,.44,3.85,6.86,6.57,9.76,4.3,1.97-1.54,2.61-5.59,.31-8.15-1.75-1.95-4.74-2.49-7.07-1.23h0Z"/>
      <path class="cls-4" d="M224.43,53.65c.35,1.18,1.92,1.99,2.77,1.46,.61-.38,.76-1.42,.46-2.15-.45-1.1-1.97-1.71-2.77-1.15-.54,.38-.64,1.24-.46,1.84Z"/>
      <path class="cls-4" d="M175.49,27.12c-2.48,2.35-2.49,6.74-.3,8.67,2.61,2.3,7.75,.61,9.5-2.64,.76-1.41,1.14-3.59,.08-5.28-1.69-2.69-6.56-3.33-9.27-.75h0Z"/>
      <path class="cls-4" d="M177.75,30.37c-.17,.89,.57,1.82,1.36,2.11,1.45,.53,3.37-1.04,3.24-2.04-.13-1.04-2.55-1.95-3.85-1.13-.09,.06-.63,.42-.75,1.06Z"/>
      <path class="cls-4" d="M204.22,17.12c-2.02,1.5-3.29,4.72-1.99,6.45,1.09,1.45,3.55,1.29,4.94,.88,3.23-.96,5.82-4.81,4.78-6.85-.97-1.9-5.18-2.37-7.72-.48h0Z"/>
      <path class="cls-4" d="M205.5,19.11c-.59,.51-1.27,1.5-.96,2.07,.39,.72,2.35,.79,3.34-.24,.64-.66,.96-1.86,.48-2.39-.55-.61-2.03-.17-2.87,.56h.01Z"/>
      <path class="cls-4" d="M171.35,54.36c-.7,1.15-.46,2.44-.31,3.23,.08,.44,.43,2.27,1.88,3.56,2.05,1.82,5.93,2.22,8.36-.17,2.18-2.15,2.43-5.82,.66-7.87-2.29-2.65-6.6-1.04-8.28-.41-1.42,.53-2,1.13-2.32,1.66h0Z"/>
      <path class="cls-4" d="M176.07,55.27c-.72,.54-.85,1.58-.5,2.24,.62,1.15,2.78,1.2,3.39,.25,.4-.62,.14-1.65-.5-2.24-.59-.55-1.64-.82-2.4-.25h0Z"/>
      <path class="cls-8" d="M201.05,51.95c-1.44,.62-2.58,1.1-2.61,1.84-.04,.95,1.75,1.84,3.1,2.17,1.62,.4,2.09-.14,4.59-.18,2.96-.04,4.41,.69,4.72,.11,.32-.59-.93-1.85-1.8-2.72-1.13-1.14-1.8-1.81-2.92-2.15-1.71-.52-3.21,.13-5.07,.92h0Z"/>
      <path class="cls-8" d="M179.51,66.05c-1.44,.62-2.58,1.1-2.61,1.84-.04,.95,1.75,1.84,3.1,2.17,1.62,.4,2.09-.14,4.59-.18,2.96-.04,4.41,.69,4.72,.11,.32-.59-.93-1.85-1.8-2.72-1.13-1.14-1.8-1.81-2.92-2.15-1.71-.52-3.21,.13-5.07,.92h0Z"/>
      <path class="cls-8" d="M220.9,31.66c-2.96,1.46-5.3,3.19-5.07,3.69,.21,.48,2.42-.81,4.15,.31,1.12,.72,1.05,1.81,2.46,2.46,.92,.42,1.76,.33,2,.31,1.88-.21,3.7-1.9,3.54-3.23-.13-1.06-1.44-1.35-1.3-2.01,.21-.95,2.99-.58,3.6-1.99,.2-.46,.17-1.13-.15-1.54-1.44-1.83-8.51,1.65-9.22,2h0Z"/>
      <path class="cls-8" d="M186.53,17.43c.73,.47,1.29,.96,1.54,1.69,.24,.72-.03,1.07,0,1.84,.05,1.46,1.12,3.31,2.77,3.69,.87,.2,2.07,.03,2.77-.77,1.11-1.27,.32-3.42-.31-4.46-.7-1.16-1.19-.96-2.61-2.46-1.91-2.02-1.65-3.07-2.92-3.54-1.04-.38-2.08,0-3.84,.61-.98,.35-2.18,.77-2.15,1.23,.04,.61,2.22,.51,4.77,2.15l-.02,.02Z"/>
      <path class="cls-8" d="M162.79,45.75c.46-.42,.88-.08,1.41-.35,1.24-.63,.24-3.12,1.65-4.36,.08-.07,.76-.32,2.12-.82,1.76-.65,1.99-.69,2.24-.71,1.38-.07,2.44,.74,2.71,.94,1.66,1.26,2.27,3.51,1.88,3.77-.5,.34-2.31-3.06-4.36-2.71-.51,.09-.67,.35-2.94,3.06-1.62,1.93-2.56,3.02-3.89,3.18-.23,.03-.76,.08-1.06-.24-.39-.42-.24-1.33,.24-1.77h0Z"/>
      <path class="cls-16" d="M198.82,18.63c-.2,2.92-1.02,5.79-2.4,8.37-.54,1-1.45,2.1-2.56,1.86-.87-.19-1.35-1.1-1.69-1.92-1.12-2.72-2.05-5.6-1.87-8.54,.12-2.02,1.24-6.35,3.75-6.66,1.35-.17,2,1.1,2.5,2.12,.77,1.58,1.52,3.17,2.28,4.76h-.01Z"/>
      <path class="cls-16" d="M184.37,67.26c-.1,.78-.21,1.56-.08,2.34s.52,1.54,1.2,1.93c1.19,.68,2.7-.02,3.77-.89,2.71-2.21,4.43-5.59,4.62-9.09,.07-1.35-.27-2.98-1.55-3.43-.74-.26-1.59,0-2.21,.48-2.66,2.02-4.12,5.85-5.75,8.67h0Z"/>
      <path class="cls-16" d="M172.32,39.38c.97-.43,1.95-.87,3-1.02s2.19,0,3.02,.66c.78,.62,1.19,1.62,1.23,2.61s-.29,1.97-.78,2.84c-1.12,1.98-3.17,3.4-5.42,3.75-1.35,.21-6.02-.11-6.08-2.12-.03-.97,1.72-2.49,2.29-3.22l2.74-3.49h0Z"/>
      <path class="cls-16" d="M223.05,35.5c.75-.74,1.58-1.47,2.58-1.82s2.22-.24,2.97,.51c.64,.65,.8,1.66,.61,2.55s-.69,1.69-1.23,2.42c-2.06,2.81-4.92,5.01-8.14,6.34-.98,.41-4.27,1.99-3.68,0,.53-1.76,1.76-3.55,2.78-5.07,1.2-1.78,2.58-3.45,4.11-4.96v.03Z"/>
      <path class="cls-16" d="M209.63,53.32c3.28,.49,6.19,2.64,7.7,5.68,.66,1.33,2.71,7.75-.36,7.54-2.79-.19-4.61-4.97-5.56-7.23-.8-1.9-1.4-3.92-1.78-5.99Z"/>
      <path class="cls-16" d="M211.53,26.7c.77-1.35,1.98-2.45,3.39-3.09,.91-.41,2.11-.59,2.82,.11,.62,.61,.59,1.61,.45,2.47-.61,3.55-2.72,6.89-5.68,8.96-1.59,1.11-2.2-.03-2.02-1.65,.26-2.27,.69-4.54,1.04-6.8Z"/>
      <path class="cls-2" d="M228.92,32.84c.1,.61,.89,5.85-2.98,10.01-4.09,4.39-9.78,3.7-10.3,3.62,.46-1.75,1.8-5.85,5.62-9.34,2.91-2.66,5.96-3.8,7.66-4.29Z"/>
      <path class="cls-2" d="M192.04,14.03c.86-1.74,2.07-2.89,2.85-3.54,2.48,2.64,3.87,6.29,3.76,9.91-.11,3.63-1.89,8.46-3.67,8.44-2.37-.03-5.99-8.65-2.93-14.81h-.01Z"/>
      <path class="cls-2" d="M188.96,59.47c.58-.51,2.3-2.05,3.4-1.52,.85,.41,.92,1.89,.96,2.84,.18,4.1-2.21,7.05-2.21,7.06-1.6,1.98-4.8,4.41-6.14,3.54-1.81-1.18-.08-8.29,3.99-11.92Z"/>
      <path class="cls-2" d="M216.43,66.36c.64,.38,1.2,.65,1.6,.83,1.26-3.01,.9-6.64-.92-9.35-.87-1.29-5.88-5.22-7.21-4.08-.22,.19-.28,.47-.31,.67-.65,4.02,2.03,7.75,2.03,7.75,1.64,2.29,3.69,3.52,4.81,4.18Z"/>
      <path class="cls-2" d="M209.69,29.84c-.58,2.72,.02,5.08,.53,6.49,2.95-1.28,5.41-3.65,6.79-6.55,1.47-3.08,1.68-7.61,.2-8.31-1.73-.81-6.44,3.32-7.52,8.37h0Z"/>
      <path class="cls-2" d="M166.67,46.66c2.62,2.11,5.99,2.6,8.51,1.26,3.73-1.98,4.84-7.55,3.18-9.1-1.61-1.52-5.86,.77-6.19,.95-3.65,2.01-5.06,5.59-5.5,6.89h0Z"/>
      <path class="cls-13" d="M168.01,195.39c-10.81-5.98-20.76-25.43-19.49-45.58,.14-2.26,1.92-31.39,23.25-41.84,8.25-4.04,17.68-4.88,26.86-5.21,7.34-.27,14-.33,21.57,3.09,6.95,3.13,11.44,7.79,15.06,11.55,2.71,2.81,6.47,6.76,9.6,12.78,5.22,10.01,5.37,19.32,5.39,23.7,.03,5.78,.09,18.07-8.18,29.66-5.52,7.73-12.17,11.55-15.66,13.49-14.24,7.96-28.07,6.82-32.49,6.4-8.2-.79-15.08-3.33-17.48-4.24-4.27-1.61-7.49-3.28-8.44-3.81h.01Z"/>
      <path class="cls-18" d="M218.89,189.72c12.12-6.49,20.58-19.37,21.73-33.08,.4-4.78-.05-9.65-1.58-14.2-1.45-4.31-3.84-8.24-6.2-12.13-2.72-4.46-5.55-9.05-9.81-12.07-3.73-2.64-8.26-3.87-12.72-4.9-6.3-1.46-12.77-2.63-19.21-2.06-11.79,1.04-22.75,8.2-28.9,18.31-6.16,10.1-7.53,22.87-4.19,34.22,2.83,9.64,8.98,18.31,16.94,24.41,1.52,1.17,3.02,1.94,4.9,2.32,2.17,.44,4.16,1.19,6.26,1.88,5.04,1.66,10.41,2.34,15.71,2.04,5.95-.34,11.83-1.92,17.09-4.73h-.02Z"/>
      <path class="cls-9" d="M222.24,125.43c5.27,4.43,7.91,6.65,9.51,10.66,1.48,3.69,.62,5.1,0,17.24-.63,12.26,.06,14.31-2.05,18.73-.91,1.91-3.09,6.31-7.69,8.69-2.24,1.16-3.41,.98-6.74,1.92-5.62,1.57-7.35,3.5-11.32,5.26-7.05,3.13-18.04,4.4-24.25-.63-2.36-1.92-1.34-2.57-5.12-6.69-5.25-5.73-7.72-5.01-10.86-9.12-3.17-4.16-5.35-11.05-2.83-15.75,2.04-3.81,5.3-2.7,7.32-6.48,2.61-4.9-1.99-8.46-.31-15.36,1.43-5.9,6.28-9.45,7.94-10.66,1.75-1.28,3.25-1.97,15.26-5.33,6.98-1.95,10.48-2.93,11.29-2.93,7.48,.03,13.04,4.71,19.86,10.45h0Z"/>
      <path class="cls-22" d="M167.49,152.38c.08,.35,.12,.43,.15,.43,.2-.02-.75-3.67,.76-6.85,.86-1.81,2.22-2.85,2.94-3.4,2.04-1.56,4.08-1.99,5.08-2.18,2.94-.58,5.14,.03,7.72,.74,.12,.03,.93,.26,1.83,.84,.59,.38,1.44,.92,1.35,1.44-.08,.47-.93,.71-1.45,.86-.74,.21-1.34,.2-1.39,.2-2.16,.05-4.35,.12-6.4,.78-3.04,.97-4.82,3.76-4.91,3.93-2.69,4.71,.67,11.45-.54,11.89-.14,.05-.34,.03-.66-.23-.82-.67-2.13-1.92-3.14-3.87-.96-1.85-1.24-3.55-1.33-4.58h-.01Z"/>
      <path class="cls-22" d="M185.1,178.71c1.28,2.31,3.22,4.26,5.52,5.56,.9,.51,2.19,.85,2.83,.04,.5-.63,.25-1.57-.13-2.28-1.22-2.34-3.48-4.28-3.69-6.92-.18-2.3,1.27-4.36,2.24-6.46,.18-.39,.34-.8,.34-1.23s-.21-.88-.6-1.05c-.48-.21-1.03,.06-1.48,.34-1.65,1.03-4.1,2.61-4.56,4.65-.52,2.29-.31,5-.46,7.34h0Z"/>
      <path class="cls-22" d="M210.79,158.62c-1.86-.21-3.9-.44-3.97-1.04-.12-.97,5.02-2.36,9.01-2.82,2.94-.34,4.08-.05,4.95,.41,2.02,1.04,2.91,2.97,3.15,3.78,.33,1.1,1.3,7.92-.9,7.05-1.34-.53-1.96-1.93-2.71-3.22-.58-.99-1.63-2.79-3.28-3.66-1.63-.85-2.46-.07-6.25-.5h0Z"/>
      <path class="cls-22" d="M201.32,129.71c.2-.71,.79-2.2,2.08-3.81,1.83-2.27,4.76-3.81,7.65-3.39,1.1,.16,2.36,.89,2.25,2-.09,.85-.94,1.38-1.7,1.78-2.21,1.17-4.62,2.62-5.26,5.04-.42,1.56-.1,3.25,.22,4.58,.25,1.01,.42,2.04,.73,3.03,.24,.76,.37,1.05,.24,1.16-.45,.4-3.16-2-4.16-2.88-1.02-.9-1.52-1.35-1.76-1.72-1.35-2.14-.59-4.79-.3-5.8h0Z"/>
      <path class="cls-17" d="M193.52,151.1c-1.35,.16-2.2,1.93-2.03,3.31,.11,.91,1.37,2.87,2.45,2.64,.17-.04,.29-.11,.51-.3,.84-.72,1.76-1.52,1.81-2.64,.06-1.43-1.3-3.17-2.75-3h.01Z"/>
      <path class="cls-17" d="M206.26,180.66c.35,1.01,1.47,1.37,3.72,2.09,.5,.16,1,.25,1.64,.21,.55-.04,1.11-.26,1.44-.7,.35-.47,.38-1.11,.2-1.67-.09-.3-.24-.78-.9-1.48-.87-.92-1.62-1.73-2.84-1.81-1.23-.09-2.71,.58-3.19,1.84-.06,.17-.31,.82-.07,1.52h0Z"/>
      <path class="cls-17" d="M228.18,135.22c-1.47-.54-3.38,.79-3.84,2.38-.63,2.18,1.48,4.76,3.14,4.6,1.37-.14,2.43-2.18,2.38-3.89,0-.14-.11-2.5-1.68-3.08h0Z"/>
      <path class="cls-17" d="M182.05,124.95c.41,.75,1.44,1.04,3.53,1.37,.87,.14,1.76,.27,2.64,.12,.87-.15,1.73-.64,2.1-1.44,.39-.86,.15-1.87-.1-2.78-.27-.99-.61-1.73-1.23-2.04-.47-.24-.92-.16-1.51-.05-2.6,.47-3.9,.71-4.4,1.19-.92,.88-1.63,2.55-1.02,3.64h-.01Z"/>
      <path class="cls-3" d="M147.68,146.13c-1.36,18.68,7.17,43.31,30.33,53.81,21.76,9.87,46.33,2.68,59.99-12.17,11.12-12.09,12.57-26.6,12.82-29.61,.22-2.75,1.09-16.25-7.2-30.17-10.41-17.51-27.69-22.93-32.03-24.14-3.05-.85-30.52-8.05-49.67,10.21-12.55,11.97-13.92,27.62-14.25,32.07h0Z"/>
      <path class="cls-3" d="M161.54,130.92c1.71-3.51,3.93-7.94,8.68-11.8,7.91-6.42,17.19-6.68,25.59-6.92,7.22-.2,13.86-.39,21.35,3.25,7.59,3.69,11.72,9.2,15.78,14.62,4.14,5.52,7.68,10.25,8.36,17.18,.41,4.21-.65,7.82-2.79,14.85-3.26,10.72-4.88,16.08-8.36,20.19-7.37,8.74-18.19,10.61-23.91,11.6-4.38,.76-12.22,2.03-21.35-.93-17.21-5.57-24.39-21.37-25.3-23.44-7.97-18.29,.17-34.99,1.93-38.61h.02Z"/>
      <path class="cls-4" d="M168.82,144.9c-4.66,7.19,2.26,16.66,3.47,16.46,.37-.06,.79-1.09,.65-1.88-.12-.69-.47-1.32-.75-1.96-1.36-3.13-.87-6.99,1.22-9.69s5.7-4.14,9.07-3.62c2.68,.42,4.92-.21,5.06-.87,.14-.67-1.92-1.61-2.24-1.76-3.66-1.68-12.49-2.84-16.48,3.32Z"/>
      <path class="cls-4" d="M201.03,132.31c.21,2.55,1.63,4.24,2.26,4.99,1.65,1.97,3.94,3.15,4.25,2.82,.25-.27-1-1.35-1.92-3.7-.39-.99-.93-2.39-.85-3.98,.18-3.3,2.99-6.01,5.49-7.21,1.89-.91,3.26-.79,3.24-1.04-.02-.47-5.02-2.09-8.88,.58-2.41,1.67-3.84,4.64-3.6,7.54h.01Z"/>
      <path class="cls-4" d="M216.63,158.93c.56,.24,2.12,1.01,3.08,2.62,.74,1.23,.89,2.56,2.24,4.17,.29,.34,.66,.71,1.04,.68,.61-.06,.8-.84,.84-1.46,.12-2.15,.24-4.35-.43-6.39s-2.32-3.91-4.45-4.19c-1.09-.14-1.83,.03-3.48,.51-6.5,1.91-8.96,2.11-8.91,2.68,.05,.63,3.05,.91,4.08,1,3.38,.31,4.2-.4,6,.37h-.01Z"/>
      <path class="cls-4" d="M192.83,184.5c.6-.41-.12-2.94-1.07-4.62-1.07-1.91-2.07-2.15-2.51-3.74-.37-1.3-.06-2.72,.53-3.93,.36-.74,3.63-5.33,2.94-5.94-.24-.21-1.07,.24-1.41,.44-2.12,1.24-6.14,3.59-6.51,7.9-.54,6.2,6.97,10.62,8.04,9.89h0Z"/>
      <path class="cls-4" d="M207.29,178.38c-.73,.99-.52,2.51,.18,3.57,.69,1.04,2.03,1.63,3.24,1.36,1.22-.27,2.2-1.44,2.18-2.68,0-.72-.32-1.4-.75-1.97-.3-.39-.87-1.2-1.91-1.4-.75-.14-1.37,.1-1.66,.21-.22,.09-.85,.35-1.27,.92h0Z"/>
      <path class="cls-4" d="M182.76,124.76c.21,1.52,1.4,2.77,2.95,3.03,1.54,.25,3.07-.53,3.77-1.92,.67-1.35,.37-3.12-.72-4.17-.97-.93-2.39-1.22-3.63-.79-1.54,.54-2.6,2.15-2.36,3.85h0Z"/>
      <path class="cls-4" d="M224.28,136.76c-.25,.23-1.27,1.13-1.15,2.43,.07,.79,.58,1.5,1.24,1.94s1.46,.63,2.25,.69c1.04,.07,2.21-.14,2.85-.97,.92-1.2-.02-2.96-.14-3.18-.18-.34-.68-1.3-1.8-1.69-1.66-.57-3.11,.68-3.24,.79h-.01Z"/>
      <path class="cls-4" d="M190.31,156.24c.41,.62,1.06,.87,1.51,1.03,1.06,.38,2.27,.35,3.28-.16,1-.51,1.76-1.52,1.87-2.64,.17-1.7-1.35-2.73-1.47-2.82-1.25-.85-2.92-.71-4.05,.11-1.46,1.07-1.95,3.24-1.13,4.47h0Z"/>
      <path class="cls-19" d="M54.19,178.74c-9.3,9.87-15.37,22.48-17.16,35.65-1.79,13.17,.71,26.84,7.07,38.65,5.43,10.1,13.89,18.98,24.73,23.65,9.84,4.23,21.21,4.77,31.69,2.33,10.49-2.44,20.1-7.75,28.21-14.55,11.86-9.96,20.71-23.43,23.6-38.25,2.89-14.82-.51-30.91-10.27-42.76-8.07-9.81-20.14-16.37-32.96-18.8-13.32-2.53-31.18-1.63-42.67,5.97-4.08,2.7-8.16,5.41-12.24,8.11h0Z"/>
      <path class="cls-5" d="M94.9,182.66c-1.9,1.6-3.44,2.98-4.82,5.4-.9,1.58-3.06,5.37-2.19,9.5,.37,1.75,1.01,2.26,2.71,7.39,.13,.39,.25,.79,.51,1.33,.46,.97,1.56,3.19,3.89,4.4,1.14,.59,1.73,.5,3.41,.97,2.84,.8,3.72,1.77,5.74,2.66,2.19,.97,5.49,.67,12.28-.32,.4-.06,1.19-.18,2.18-.53,.13-.05,.79-.2,1.39-.6,1.62-1.06,2.7-1.76,3.48-2.98,.58-.91,.59-1.48,1.04-3.9,1-5.44,1.52-5.68,1.43-7.98-.06-1.61-.36-2.74-.78-4.33-.74-2.78-1.69-4.64-2.76-6.73-1.76-3.42-2.89-4.57-4.02-5.4-.89-.65-1.65-1-7.73-2.7-3.53-.99-5.31-1.48-5.72-1.48-3.79,.02-6.6,2.39-10.06,5.29h.02Z"/>
      <path class="cls-5" d="M80.78,208.01c2.91,2.45,4.37,3.68,5.26,5.9,.82,2.04,.35,2.82,0,9.54-.35,6.78,.03,7.92-1.13,10.36-.51,1.06-1.71,3.49-4.25,4.8-1.24,.64-1.89,.54-3.73,1.06-3.11,.87-4.07,1.93-6.26,2.91-3.9,1.73-9.98,2.43-13.41-.35-1.31-1.06-.74-1.42-2.83-3.7-2.91-3.17-4.27-2.77-6.01-5.05-1.75-2.3-2.96-6.11-1.57-8.71,1.13-2.11,2.93-1.49,4.05-3.58,1.45-2.71-1.1-4.68-.17-8.5,.79-3.26,3.47-5.23,4.39-5.9,.97-.71,1.8-1.09,8.44-2.95,3.86-1.08,5.8-1.62,6.24-1.62,4.13,.02,7.21,2.61,10.98,5.78h0Z"/>
      <path class="cls-5" d="M126.66,229.72c2.91,2.45,4.37,3.68,5.26,5.89,.82,2.04,.35,2.82,0,9.53-.35,6.78,.03,7.91-1.13,10.35-.5,1.06-1.71,3.49-4.25,4.8-1.24,.64-1.89,.54-3.72,1.06-3.1,.87-4.06,1.93-6.26,2.91-3.9,1.73-9.97,2.43-13.4-.35-1.31-1.06-.74-1.42-2.83-3.7-2.9-3.17-4.27-2.77-6-5.04-1.75-2.3-2.95-6.11-1.57-8.7,1.13-2.11,2.93-1.49,4.04-3.58,1.44-2.71-1.1-4.68-.17-8.49,.79-3.26,3.47-5.22,4.39-5.89,.97-.71,1.8-1.09,8.43-2.95,3.86-1.08,5.79-1.62,6.24-1.62,4.13,.02,7.2,2.6,10.97,5.78h0Z"/>
      <path class="cls-14" d="M147.65,182.04c-8.49-10.82-18.43-15.8-23.63-18.32-6.04-2.94-20.01-9.69-37.88-7.17-20.54,2.9-32.95,16.53-41.8,26.25-5.83,6.4-8.31,11.6-9.65,15.55-.55,1.62-1.09,3.56-2.06,11.2-3.23,25.31-1.2,34.32,1.71,40.43,.02,.05,.04,.09,.06,.12,0,0,4.43,9.27,11.92,16.98,5.11,5.26,23.15,19.69,49.21,19.86,6.53,.04,23.73,.16,39.54-11.5,20.44-15.07,24.58-39.52,25.43-46.33,.12-.94,.19-1.65,.21-1.89,.33-3.53,2.08-25.85-13.08-45.18h.02Zm-.56,40.71c-.77,17.39-10.2,29.09-13.56,33.27-2.71,3.36-7.32,8.96-15.35,13.29-9.86,5.31-19.01,5.54-23.32,5.6-.68,0-1.82,.03-3.31-.01-30.43-.8-43.64-21.38-43.64-21.38-10.05-15.47-5.9-33.04-4.19-40.32,1.18-4.99,5.18-20.91,20.03-32.69,9.53-7.55,18.98-9.79,21.13-10.27,13.56-3,31.72-.98,45.67,11.61,17.2,15.52,16.72,36.93,16.55,40.91h-.01Z"/>
      <path class="cls-21" d="M80.93,194.5c.84,4.63,6.15,6.29,6.83,6.49,1.12,.33,4.06,1.1,6.5-.48,1.29-.84,2.08-2.31,2.35-3.82,.27-1.51,.09-3.08-.23-4.58-.46-2.19-1.22-4.38-2.7-6.06-.42-.48-2.39-2.26-5.07-2.09-2.88,.18-4.64,2.53-5.54,3.73-.82,1.1-2.72,3.65-2.15,6.83v-.02Z"/>
      <path class="cls-21" d="M64.79,227.19c.93,4.63,6.83,6.29,7.59,6.49,1.24,.33,4.51,1.1,7.23-.48,1.44-.84,2.31-2.31,2.61-3.82,.3-1.51,.09-3.08-.26-4.58-.51-2.19-1.36-4.38-3-6.06-.47-.48-2.65-2.26-5.63-2.09-3.2,.18-5.16,2.53-6.15,3.73-.91,1.1-3.03,3.65-2.39,6.83v-.02Z"/>
      <path class="cls-21" d="M115.77,235.42c.77,3.76,5.67,5.1,6.29,5.27,1.03,.27,3.74,.89,5.99-.39,1.19-.68,1.91-1.87,2.17-3.1,.25-1.23,.08-2.5-.21-3.72-.42-1.78-1.13-3.56-2.49-4.92-.39-.39-2.2-1.83-4.67-1.7-2.66,.14-4.28,2.05-5.1,3.03-.76,.89-2.51,2.96-1.98,5.54h0Z"/>
      <path class="cls-21" d="M110.22,205.81c.9,4.24,6.58,5.76,7.31,5.94,1.19,.3,4.35,1.01,6.96-.44,1.38-.77,2.22-2.11,2.51-3.5s.09-2.82-.25-4.19c-.49-2.01-1.31-4.01-2.89-5.55-.45-.44-2.56-2.07-5.42-1.92-3.09,.16-4.97,2.31-5.93,3.41-.88,1.01-2.92,3.34-2.3,6.25h.01Z"/>
      <path class="cls-21" d="M83.61,254.04c.81,4.02,5.92,5.47,6.57,5.64,1.07,.29,3.91,.96,6.26-.42,1.24-.73,2-2.01,2.26-3.32,.26-1.32,.08-2.67-.22-3.98-.44-1.9-1.18-3.81-2.6-5.27-.4-.41-2.3-1.96-4.88-1.82-2.77,.15-4.46,2.2-5.33,3.24-.79,.95-2.62,3.17-2.07,5.93h0Z"/>
      <path class="cls-3" d="M91.06,156.08c22.36-1.18,39.76,11.61,42.19,13.45,5.86,4.43,18,15.15,23.39,33.14,4.54,15.13,1.96,27.59-.19,38.01-1.64,7.92-3.33,15.69-9.38,23.72-1.06,1.4-6.53,8.49-16.67,13.84-13.58,7.16-26.55,6.49-37.73,5.7-14.3-1.01-29.22-3.15-40.85-11.53-11.88-8.56-18.84-22.88-20.45-37.44-2.34-21.23,4.45-37.29,7.29-42.86,7.13-13.96,17.02-21.85,20.06-24.14,6.46-4.88,12.06-7.21,13.55-7.82,1.22-.49,8.96-3.55,18.79-4.07h0Z"/>
      <path class="cls-3" d="M84.6,168.65c5.05-1.14,14.69-2.52,25.98,.8,14.32,4.2,22.47,13.37,24.39,15.64,9.42,11.09,11.04,23.01,11.67,28.11,.43,3.5,1.55,15.33-3.98,28.9-2.13,5.23-6.22,15.29-16.7,22.8-9.37,6.71-18.74,7.75-25.45,8.48-5.99,.66-19.52,1.97-33.94-5.3-4.49-2.26-12.65-6.38-18.56-15.38-10.18-15.51-5.77-33.49-3.71-41.89,1.56-6.36,4.34-17.1,13.79-27.04,3.53-3.71,12.37-11.93,26.51-15.11h0Z"/>
      <path class="cls-2" d="M73.76,217.63c-3.4-.03-6.99,2.05-8.11,5.41-.85,2.53,.06,4.77,.3,5.34,1.37,3.25,5.31,6.42,9.86,5.37,4.02-.93,7.05-4.83,6.49-9.06-.59-4.41-4.79-7.02-8.53-7.05h-.01Z"/>
      <path class="cls-2" d="M82.09,189.66c-.71,1.3-1.55,2.82-1.27,4.69,.32,2.18,2.05,3.94,4.02,4.95,1.87,.97,4.07,1.39,6.13,.91,2.05-.48,3.91-1.94,4.62-3.92,.65-1.81,.31-3.83-.4-5.61-.47-1.17-1.76-4.54-5.01-5.35-2.43-.61-4.5,.57-4.95,.83-1.77,1.01-2.58,2.49-3.14,3.51h0Z"/>
      <path class="cls-7" d="M115.12,200.78c-.81,.83-1.82,1.87-2.04,3.07-.37,2.03,1.44,4.77,4.13,5.48,2.39,.63,5.07-.44,6.32-2.69,1.2-2.18,.91-5.17-1.09-6.78-1.74-1.4-4.14-1.25-5.61-.48-.69,.35-1.15,.83-1.7,1.39h-.01Z"/>
      <path class="cls-7" d="M119.78,231.22c-.71,.72-1.59,1.63-1.78,2.67-.32,1.76,1.25,4.15,3.59,4.77,2.08,.55,4.41-.38,5.49-2.34,1.05-1.9,.79-4.5-.95-5.89-1.51-1.22-3.6-1.08-4.88-.42-.6,.31-1,.72-1.48,1.21h.01Z"/>
      <path class="cls-7" d="M88.22,249.54c-.66,.67-1.48,1.51-1.66,2.49-.3,1.64,1.17,3.86,3.35,4.44,1.94,.51,4.11-.35,5.12-2.18,.98-1.77,.73-4.19-.88-5.49-1.41-1.14-3.35-1.01-4.55-.39-.56,.29-.93,.67-1.38,1.13h0Z"/>
      <path class="cls-7" d="M70.25,222.35c-.83,.85-1.86,1.9-2.08,3.13-.38,2.07,1.47,4.86,4.21,5.58,2.44,.65,5.17-.45,6.43-2.74,1.23-2.22,.92-5.27-1.11-6.9-1.77-1.43-4.21-1.27-5.72-.49-.7,.36-1.17,.84-1.73,1.42Z"/>
      <path class="cls-7" d="M85.1,189.77c-.75,.77-1.69,1.73-1.89,2.84-.35,1.88,1.33,4.41,3.82,5.07,2.21,.59,4.69-.41,5.84-2.49,1.11-2.02,.84-4.78-1.01-6.27-1.61-1.3-3.83-1.15-5.19-.45-.64,.33-1.06,.76-1.57,1.29h0Z"/>
      <path class="cls-2" d="M90.25,244.96c-.65,.07-3.74,.48-5.49,3.2-1.79,2.78-1.17,6.41,.66,8.64,1.45,1.77,3.36,2.3,4.13,2.5,2.28,.59,6.65,.73,8.77-2.44,1.83-2.74,.87-6.28-.59-8.38-1.6-2.31-4.46-3.83-7.48-3.52Z"/>
      <path class="cls-2" d="M115.8,234.93c.47,3.54,3.81,6.48,7.71,6.11,3.8-.36,6.61-3.74,6.41-7.45-.19-3.65-3.21-6.53-6.61-6.73-4.28-.25-8.08,3.78-7.51,8.08h0Z"/>
      <path class="cls-17" d="M69.17,193.65c-1.15,.97,.03,5.67,2.12,5.97,1.11,.16,2.59-.91,2.78-2.25,.22-1.49-1.25-2.57-1.72-2.92-.82-.6-2.47-1.4-3.18-.8Z"/>
      <path class="cls-17" d="M112.48,184.34c-1.59-.05-3.02,3.19-2.25,4.11,.71,.86,3.85,.38,4.24-1.33,.28-1.21-.91-2.75-1.99-2.78Z"/>
      <path class="cls-16" d="M92.08,223.96c-.25,.86,1.06,2.4,2.65,2.52,2.13,.16,3.59-2.32,3.18-3.18-.56-1.2-5.42-.75-5.83,.66h0Z"/>
      <path class="cls-17" d="M116.46,251.55c-.87-1.38,2.91-6.23,4.77-5.7,1.1,.32,1.8,2.59,1.06,4.24-1.13,2.55-5.17,2.52-5.83,1.46h0Z"/>
      <path class="cls-17" d="M129.65,220.78c-.87-1.38,2.91-6.23,4.77-5.7,1.1,.32,1.8,2.59,1.06,4.24-1.13,2.55-5.17,2.52-5.83,1.46h0Z"/>
      <path class="cls-17" d="M63.32,241.02c.86-.45,3.44,.86,3.31,2.92-.09,1.52-1.63,2.76-2.52,2.52-1.42-.39-1.94-4.83-.8-5.44h0Z"/>
      <path class="cls-6" d="M95.23,228.43c.16,.6,.08,.84-.04,.94-.76,.6-5.33-2.47-7.28-7.05-1.01-2.36-1.69-6-.41-6.8,.25-.15,.57-.2,.98-.13,2.71,.49,4.34,5.1,5.19,7.3,.72,1.85,1.25,3.77,1.56,5.73h0Z"/>
      <path class="cls-6" d="M93.74,226.34c.67-3.22,2.84-6.09,5.75-7.6,1.28-.66,7.34-2.76,6.94,.24-.36,2.73-4.89,4.58-7.04,5.54-1.81,.81-3.71,1.42-5.65,1.83h0Z"/>
      <path class="cls-16" d="M106.83,218.24c-.7,3.21-2.91,6.05-5.84,7.54-1.28,.65-7.37,2.68-6.94-.32,.39-2.73,4.94-4.52,7.1-5.46,1.82-.79,3.73-1.38,5.67-1.76h.01Z"/>
      <path class="cls-3" d="M93.31,224.44c-.41,.64-.71,1.2-.91,1.61,3.04,1.41,6.78,1.18,9.63-.59,1.36-.84,5.59-5.83,4.47-7.24-.19-.24-.47-.3-.68-.34-4.1-.82-8.04,1.79-8.04,1.79-2.41,1.6-3.75,3.65-4.47,4.77Z"/>
      <path class="cls-16" d="M87.57,214.79c3.18,.82,5.94,3.13,7.32,6.11,.6,1.31,2.41,7.46-.57,6.92-2.71-.49-4.34-5.1-5.19-7.3-.72-1.85-1.25-3.77-1.56-5.73Z"/>
      <path class="cls-3" d="M93.27,228.53c.63,.43,1.18,.75,1.57,.97,1.52-2.99,1.43-6.74-.23-9.65-.79-1.39-5.62-5.8-7.07-4.73-.24,.18-.32,.46-.37,.66-.97,4.07,1.49,8.1,1.49,8.1,1.51,2.47,3.51,3.89,4.61,4.64h0Z"/>
      <path class="cls-3" d="M89.71,234.28c1.14-.47,3.68-1.72,5.28-4.5,.5-.87,.8-1.71,.99-2.44"/>
      <path class="cls-2" d="M113.62,199.34c-1.16,1.19-2.6,2.66-2.91,4.38-.53,2.89,2.06,6.79,5.89,7.81,3.41,.9,7.23-.62,9-3.83,1.72-3.11,1.29-7.37-1.55-9.66-2.48-2-5.89-1.78-8-.69-.98,.51-1.64,1.18-2.43,1.99Z"/>
      <path class="cls-10" d="M-1.93,73.87c.12-8.01,1.08-16.24,4.95-23.25,4.9-8.87,13.91-14.74,23.21-18.78,21.42-9.31,57.61-16.64,78.74,.63,9.62,7.86,15.58,18.95,15.58,18.95,1.08,2.01,3.9,7.32,5.39,13.7,4.04,17.19-3.74,32.59-8.11,41.24-8.19,16.21-19.77,26.35-27.4,31.88-2.29,.99-5.09,2.09-8.34,3.13,0,0-4.32,1.71-8.68,2.29-8.99,1.2-18.1,1.53-27.15,.98-10.26-.62-15.56-1.92-21.81-5.7-10.3-6.24-15.43-16.37-17.74-20.93-2.1-4.14-3.39-7.98-3.94-9.6-.45-1.34-2.27-6.77-3.48-15.34-.9-6.36-1.3-12.78-1.21-19.2h0Z"/>
      <path class="cls-12" d="M136.24,64.19c-2.49-9.8-8.55-18.44-16.02-25.26s-16.32-11.95-25.4-16.42c-13.75-6.78-28.85-12.29-44.1-10.67C24.96,14.57,8.73,31.35,.27,40.36c-5.96,6.36-8.23,11.58-9.49,14.73-.96,2.38-3.41,9.07-3,24.61,.35,13.28,.63,23.91,6.2,36.37,1.36,3.03,6.36,13.96,16.17,22.65,19.88,17.62,50.65,18.21,73.07,10.38,30.4-10.61,46.74-37.1,51.97-56.56,2.48-9.24,3.41-19.09,1.05-28.36h0Zm-15.9,21.55c-2.91,12.65-11.39,23.17-19.63,33.21-4.48,5.46-9.04,10.99-14.86,14.98-6.82,4.68-15.06,6.99-23.3,7.67-16.63,1.37-40.68-4.18-51.94-22.91-5.08-8.44-5.49-16.11-6.13-28.15-1.31-24.36,7.43-41.84,13.2-47.27,3.62-3.4,7.86-5.98,7.86-5.98,2.97-1.8,5.43-2.85,7.06-3.52,2.93-1.2,14.51-5.96,21.62-7.44,8.3-1.73,30.4-3.15,48.01,12.29,13.04,11.44,22,30.17,18.1,47.13h0Z"/>
      <path class="cls-11" d="M25.66,123.09c-7.57-6.37-11.36-9.56-13.67-15.32-2.13-5.31-.9-7.33,0-24.78,.91-17.63-.09-20.57,2.95-26.92,1.31-2.75,4.44-9.07,11.05-12.48,3.22-1.67,4.9-1.41,9.68-2.75,8.07-2.26,10.57-5.02,16.28-7.56,10.13-4.5,25.93-6.32,34.85,.9,3.4,2.75,1.93,3.69,7.36,9.61,7.55,8.24,11.1,7.2,15.61,13.11,4.56,5.98,7.68,15.88,4.07,22.63-2.93,5.48-7.62,3.88-10.51,9.31-3.76,7.05,2.85,12.16,.45,22.08-2.06,8.48-9.03,13.58-11.41,15.32-2.51,1.83-4.67,2.83-21.93,7.66-10.03,2.81-15.07,4.21-16.22,4.21-10.74-.05-18.74-6.77-28.54-15.02h-.02Z"/>
      <path class="cls-19" d="M19.84,76.67c.02,.86,.06,1.61,.43,2.53,1.22,3.02,4.95,4.94,8.43,4.5s6.45-3.06,7.27-6.19c.82-3.13-.44-6.6-2.99-8.81-.59-.51-2.16-1.74-4.47-1.85-2.85-.13-4.86,1.58-5.57,2.18-3.24,2.76-3.14,6.73-3.12,7.65h.02Z"/>
      <path class="cls-19" d="M58.82,54.39c.41,2.63,2.4,4.72,4.57,5.68,3.58,1.58,7.9,.18,10.17-2.84,2.28-3.02,2.25-7.57-.07-10.56-2.12-2.74-6.11-1.91-6.81-1.79-4.29,.75-8.57,4.98-7.87,9.51h0Z"/>
      <path class="cls-19" d="M97.02,89.91c2.48,1.58,6.55,2.47,9.63,.72,2.21-1.26,3.4-3.6,3.47-5.9s-.87-4.54-2.19-6.53c-1.03-1.55-2.36-3.03-4.2-3.83-1.41-.62-2.9-.71-4.2-.29-.95,.31-1.58,.83-2.17,1.41-2.05,2.02-3.74,3.69-4.1,6.32-.05,.35-.63,5.31,3.76,8.1Z"/>
      <path class="cls-19" d="M37.17,120.12c1.93,2.06,5.39,3.75,9.03,3.21,.91-.13,3.22-.61,4.94-2.4,2.65-2.76,1.67-6.33,1.5-6.97-.95-3.46-4.08-5.24-5.81-6.22-1.28-.73-2.43-1.36-4.07-1.43-3.17-.12-5.42,1.97-5.73,2.27-3.01,2.89-3,8.19,.15,11.55h0Z"/>
      <path class="cls-16" d="M47.52,50.73c-.25,3.61-1.27,7.16-2.97,10.35-.66,1.24-1.8,2.6-3.17,2.3-1.07-.23-1.66-1.36-2.08-2.38-1.39-3.36-2.53-6.93-2.32-10.55,.15-2.49,1.54-7.85,4.64-8.24,1.67-.21,2.48,1.36,3.09,2.62,.95,1.96,1.88,3.93,2.82,5.89h0Z"/>
      <path class="cls-16" d="M80.24,64.37c-.13,.96-.26,1.93-.1,2.89s.64,1.9,1.48,2.38c1.48,.84,3.34-.03,4.66-1.1,3.35-2.74,5.47-6.92,5.71-11.23,.09-1.67-.34-3.69-1.91-4.24-.92-.32-1.96,0-2.74,.59-3.29,2.49-5.1,7.24-7.11,10.72h.01Z"/>
      <path class="cls-16" d="M33.76,89.51c.93-.92,1.95-1.81,3.18-2.24s2.75-.3,3.67,.63c.79,.8,.99,2.05,.76,3.16s-.85,2.09-1.52,2.99c-2.55,3.47-6.09,6.2-10.07,7.84-1.22,.5-5.29,2.46-4.55,.01,.66-2.18,2.18-4.39,3.43-6.27,1.48-2.21,3.19-4.27,5.08-6.13h.02Z"/>
      <path class="cls-16" d="M68.58,106.61c1.17,3.78,.55,8.07-1.64,11.36-.96,1.44-6.13,7.18-7.46,3.78-1.21-3.09,2.49-7.67,4.2-9.93,1.44-1.91,3.08-3.66,4.9-5.21Z"/>
      <path class="cls-16" d="M87.13,104.68c-.77-1.76-.96-3.77-.55-5.65,.27-1.21,.98-2.53,2.2-2.71,1.06-.16,2.03,.6,2.77,1.39,3.05,3.24,4.8,7.8,4.65,12.26-.08,2.39-1.67,2.15-3.13,.78-2.06-1.94-3.98-4.05-5.96-6.06h.02Z"/>
      <path class="cls-3" d="M-9.58,71.08c-1.55,9.15-6.4,35.05,10.73,56.85,12.41,15.79,32.14,25.27,52.2,26.17,20.06,.9,40.17-6.5,55.59-19.37,18.54-15.47,30.45-39.96,26.98-63.85-4.59-31.68-34.16-49.99-56.81-55.62-23.73-5.9-54.34-1.31-72.84,19.44-11.96,13.42-14.57,28.8-15.85,36.38h0Z"/>
      <path class="cls-3" d="M57.8,25.33c19.8-1.64,34.47,7.08,38.1,9.37,4.78,3.02,15.25,9.81,21.55,23.42,5.33,11.51,4.83,21.75,4.68,24.04-.93,14.23-8.11,23.87-14.99,33.1-4.71,6.32-9.44,12.66-18.11,18.11-13.81,8.67-27.73,8.88-32.48,8.74-2.48-.07-32.38-1.34-45.31-23.1-5.55-9.35-6.2-19.51-6.84-29.68-.65-10.31,.61-17.95,1.25-21.23,1.53-7.86,2.83-14.58,7.81-21.23,4.88-6.52,10.68-9.48,17.8-13.12,6.08-3.1,14.58-7.44,26.54-8.43h0Z"/>
      <path class="cls-2" d="M41.02,86.21c.13,.75,1.1,7.24-3.69,12.38-5.06,5.43-12.09,4.57-12.73,4.48,.57-2.17,2.23-7.23,6.95-11.55,3.59-3.29,7.36-4.69,9.47-5.31Z"/>
      <path class="cls-2" d="M39.14,45.05c1.07-2.16,2.55-3.58,3.52-4.37,3.07,3.27,4.78,7.77,4.65,12.26-.13,4.49-2.34,10.46-4.54,10.44-2.93-.03-7.4-10.69-3.63-18.32h0Z"/>
      <path class="cls-2" d="M85.91,54.74c.71-.63,2.84-2.54,4.2-1.88,1.06,.51,1.13,2.33,1.19,3.52,.22,5.07-2.73,8.72-2.73,8.72-1.98,2.44-5.94,5.45-7.59,4.37-2.23-1.46-.1-10.25,4.94-14.74h0Z"/>
      <path class="cls-2" d="M58.1,121.13c-.05,.91-.03,1.68,0,2.23,4.02-.33,7.81-2.79,9.74-6.33,.92-1.69,2.39-9.42,.39-10.23-.34-.14-.67-.04-.91,.04-4.78,1.57-7.36,6.64-7.36,6.64-1.58,3.1-1.76,6.06-1.85,7.65h0Z"/>
      <path class="cls-2" d="M88.87,108.82c2.26,2.59,5.05,3.75,6.81,4.29,.92-3.87,.4-8.06-1.45-11.58-1.96-3.74-6.29-7.31-8.07-6.36-2.08,1.11-1.5,8.83,2.71,13.65Z"/>
      <path class="cls-3" d="M28.82,84.02c5.1-.9,6.87-6.84,6.7-10.63-.12-2.8-1.53-5.68-4.18-7.08-1.54-.82-3.12-.85-3.9-.81-3.41,.14-5.57,2.43-6.22,3.13-.29,.3-4.54,4.99-2.05,10.1,1.62,3.32,5.68,6,9.65,5.3h0Z"/>
      <path class="cls-4" d="M45.21,122.83c4.42-1.14,5.59-5.16,5.82-6.12,1-4.17-2.08-7.3-2.65-7.87-.94-.95-2.55-2.59-5.12-2.81-3.22-.28-6.03,1.82-7.26,3.83-.82,1.34-.88,2.55-.96,4.14-.11,2.33-.22,4.49,1.35,6.33,1.79,2.11,5.41,3.38,8.81,2.5h0Z"/>
      <path class="cls-4" d="M102.72,91.41c3.78-.75,5.46-4.44,5.88-5.35,.39-.86,1.91-4.2-.11-7.57-.29-.49-2.55-4.1-6.94-4.3-4.02-.18-6.59,2.64-7.24,3.36-.54,.6-2.86,3.3-2.18,6.72,.85,4.29,6.08,8.03,10.59,7.14Z"/>
      <path class="cls-19" d="M65.18,99.56c2.48,1.58,6.55,2.47,9.63,.72,2.21-1.26,3.4-3.6,3.47-5.9s-.87-4.54-2.19-6.53c-1.03-1.55-2.36-3.03-4.2-3.83-1.41-.62-2.9-.71-4.2-.29-.95,.31-1.58,.83-2.17,1.41-2.05,2.02-3.74,3.69-4.1,6.32-.05,.35-.63,5.31,3.76,8.1Z"/>
      <path class="cls-4" d="M70.88,101.05c3.78-.75,5.46-4.44,5.88-5.35,.39-.86,1.91-4.2-.11-7.57-.29-.49-2.55-4.1-6.94-4.3-4.02-.18-6.59,2.64-7.24,3.36-.54,.6-2.86,3.3-2.18,6.72,.85,4.29,6.08,8.03,10.59,7.14Z"/>
      <path class="cls-4" d="M61.43,60.54c2.73,1.67,6.32,1.81,9.28,.15,2.97-1.66,4.58-4.8,4.73-8.04,.16-3.35-1.81-6.7-4.8-8.2-4.66-2.33-9.14,.86-9.44,1.09-3.06,2.26-4.75,6.44-3.59,10.19,.9,2.92,3.17,4.42,3.82,4.82h0Z"/>
      <path class="cls-16" d="M59.95,69.73c1.2-.53,2.41-1.07,3.71-1.27s2.71,0,3.73,.82c.96,.76,1.48,2,1.52,3.23s-.36,2.44-.96,3.51c-1.39,2.44-3.92,4.2-6.7,4.64-1.67,.26-7.44-.14-7.52-2.62-.04-1.19,2.12-3.08,2.83-3.98l3.39-4.32h0Z"/>
      <path class="cls-2" d="M52.96,78.74c3.25,2.61,7.4,3.22,10.52,1.56,4.61-2.45,5.98-9.33,3.94-11.26-1.99-1.88-7.24,.95-7.65,1.17-4.52,2.48-6.26,6.91-6.8,8.52h0Z"/>
    </g>
  </g>
</svg>