<?xml version="1.0" encoding="UTF-8"?>
<svg id="Ebene_2" data-name="Ebene 2" xmlns="http://www.w3.org/2000/svg" width="300" height="300" xmlns:xlink="http://www.w3.org/1999/xlink" viewBox="0 0 253 253">
  <defs>
    <style>
      .cls-1, .cls-2, .cls-3, .cls-4 {
        fill: none;
      }

      .cls-2 {
        stroke-linecap: round;
        stroke-linejoin: round;
      }

      .cls-2, .cls-5, .cls-6, .cls-4 {
        stroke: #343434;
      }

      .cls-7, .cls-6 {
        fill: #fff;
      }

      .cls-8 {
        fill: #ffe167;
      }

      .cls-9 {
        fill: #fff7d8;
      }

      .cls-10 {
        fill: #ffd299;
      }

      .cls-11 {
        fill: #997c59;
      }

      .cls-12 {
        fill: #b2efa7;
      }

      .cls-13 {
        fill: #ceaa82;
      }

      .cls-14 {
        fill: #c59b6d;
      }

      .cls-15 {
        fill: #e2c09f;
      }

      .cls-5 {
        fill: #e9fbe6;
      }

      .cls-5, .cls-6, .cls-3, .cls-4 {
        stroke-miterlimit: 10;
      }

      .cls-3 {
        stroke: #52a174;
        stroke-width: 2px;
      }

      .cls-16 {
        clip-path: url(#clippath);
      }
    </style>
    <clipPath id="clippath">
      <circle class="cls-1" cx="126.5" cy="126.5" r="126.5"/>
    </clipPath>
  </defs>
  <g class="cls-16">
    <g>
      <ellipse class="cls-7" cx="134.9" cy="126.5" rx="160" ry="152.3"/>
      <path class="cls-10" d="M-19.9,42.3H293.9c1.5,0,1.5-2.2,0-2.2h-122.8c-40.9,0-81.4-.1-122.1-.1H-19.9c-1.5,0-1.5,2.3,0,2.3h0Z"/>
      <path class="cls-10" d="M-23.8,5.1H290c1.5,0,1.5-2.2,0-2.2H-23.9c-1.3-.1-1.3,2.2,.1,2.2h0Z"/>
      <path class="cls-10" d="M-19.9,73.6H298.4c1.5,0,1.5-2.2,0-2.2H-19.9c-1.5-.1-1.5,2.2,0,2.2h0Z"/>
      <path class="cls-10" d="M-19.9,110.4c41.5-.1,83-.1,124.5-.2,41.3-.1,82.6-.1,123.9-.2,23.3,0,46.6-.1,69.9-.1,1.5,0,1.5-2.2,0-2.2-41.5,.1-83,.1-124.5,.2-41.3,.1-82.6,.1-123.9,.2-23.3,0-46.6,.1-69.9,.1-1.5,0-1.5,2.2,0,2.2h0Z"/>
      <path class="cls-10" d="M-22.6,137H104.7c42.2-.1,84.4-.2,126.7-.3,23.8-.1,47.6-.2,71.4-.3,1.5,0,1.5-2.3,0-2.2-42.4,.2-84.9,.4-127.3,.5-42.2,.1-84.4,.2-126.7,.2H-22.6c-1.4-.2-1.4,2.1,0,2.1h0Z"/>
      <path class="cls-10" d="M-25.1,172c45.3-.1,90.5-.1,135.8-.2,45-.1,90.1-.1,135.1-.2,25.4,0,50.8-.1,76.2-.1,1.5,0,1.5-2.2,0-2.2-45.3,.1-90.5,.1-135.8,.2-45,.1-90.1,.1-135.1,.2-25.4,0-50.8,.1-76.2,.1-1.4-.1-1.4,2.2,0,2.2h0Z"/>
      <path class="cls-10" d="M-28.2,203.1c45.8-.3,91.6-.5,137.4-.7,45.6-.2,91.2-.3,136.8-.4,25.7,0,51.4-.1,77.1,0,1.5,0,1.5-2.2,0-2.2-45.8,0-91.6,0-137.4,.1-45.6,.1-91.2,.3-136.8,.5-25.7,.1-51.4,.3-77.1,.4-1.4,.1-1.4,2.3,0,2.3h0Z"/>
      <path class="cls-10" d="M-27.4,229.9c45.7-.3,91.4-.6,137.1-.7,45.5-.1,91-.1,136.4-.1,25.6,.1,51.3,.1,77,.2,1.5,0,1.5-2.2,0-2.2-45.7-.2-91.4-.3-137.1-.3s-91,.1-136.4,.3c-25.6,.1-51.3,.3-77,.5-1.5,0-1.5,2.3,0,2.3h0Z"/>
      <path class="cls-10" d="M13.8-15.2c-.6,37.8-.8,75.7-.8,113.6s.4,75.4,1,113c.4,21.3,.8,42.5,1.3,63.8,0,1.5,2.3,1.5,2.2,0-1-37.9-1.6-75.7-2-113.6s-.4-75.4-.2-113.1c.2-21.2,.4-42.5,.7-63.7,0-1.5-2.2-1.5-2.2,0h0Z"/>
      <path class="cls-10" d="M53.1-27.8c3,20.5,3,41.2,3.1,61.8s.1,41.2,.2,61.8,.1,41.2,.2,61.8,.4,41.2,2,61.7c.9,11.4,2,22.8,1.6,34.3s-2.1,23.3-3.8,34.9c-.2,1.4,2,2,2.2,.6,1.5-10.1,2.9-20.3,3.6-30.5,.7-10.2,.2-20.8-.6-31.1s-1.6-20.4-2-30.7-.6-21-.6-31.5c-.3-41.6-.3-83.2-.4-124.8-.1-22.9,.2-46-3.2-68.7-.4-1.6-2.5-1-2.3,.4h0Z"/>
      <path class="cls-10" d="M103.8,289c-.9-24.8-1.7-49.6-2.6-74.5-.8-21.6-1.5-43.1-2.3-64.7-.6-16.5-1.2-33.1-1.6-49.6-.4-17.6-.6-35.1-.5-52.7,.1-21.5,.4-43.1,1.2-64.6,.1-1.9,.1-3.9,.2-5.8,.1-1.5-2.2-1.5-2.2,0-.7,20.3-1.2,40.6-1.3,60.9-.1,19.1,0,38.1,.4,57.2,.3,15.7,.9,31.3,1.4,47,.8,21.6,1.5,43.2,2.3,64.8,.8,23.8,1.7,47.6,2.5,71.5,.1,3.5,.2,7,.4,10.4-.1,1.5,2.1,1.5,2.1,.1h0Z"/>
      <path class="cls-10" d="M134.2-17.4c-1.9,39.8-3.8,79.8-.8,119.6,1.5,19.8,4.6,39.4,6.2,59.2s1.7,39.6,1.6,59.4c-.1,22.6-.1,45.2-.2,67.8,0,1.5,2.2,1.5,2.2,0,.1-20.2,.1-40.4,.2-60.5,.1-19.8,.2-39.7-1.1-59.4-1.3-19.8-4.4-39.4-6.1-59.2s-2.3-39.6-2.1-59.5c.2-22.5,1.3-45,2.3-67.4,.1-1.5-2.1-1.5-2.2,0h0Z"/>
      <path class="cls-10" d="M173.5-7.5c1.6,38,1.5,76.1,1.2,114.2-.3,38.1-.7,75.7,.4,113.6,.6,21.4,1.7,42.8,3.5,64.2,.1,1.4,2.4,1.4,2.2,0-3.2-37.9-4.1-76-4.2-114s.6-75.8,.4-113.6c-.1-21.4-.5-42.9-1.4-64.3,.1-1.5-2.2-1.5-2.1-.1h0Z"/>
      <path class="cls-10" d="M205.5-28.8V288.7c0,1.5,2.2,1.5,2.2,0V-28.8c.1-1.4-2.2-1.4-2.2,0h0Z"/>
      <path class="cls-10" d="M240.4-5.7V302.5c0,1.5,2.2,1.5,2.2,0V-5.7c0-1.5-2.2-1.5-2.2,0h0Z"/>
      <path class="cls-12" d="M70.3,103.2c-2.4,5.6-11.7,29,.6,53.7,1.5,3,14.5,27.9,43.9,33,18.8,3.2,38.9-3.1,52.4-16.4,14.3-14.1,20.8-35.2,18.2-55.1-2.6-20.5-15.1-40-33.7-49.2-19.8-9.8-39-3.1-43.8-1.5-25.3,8.7-35.6,31-37.6,35.5Z"/>
      <path class="cls-5" d="M79.9,106.5c-1.3,2.8-10.6,23.6,.8,45,11.2,21.1,33.1,25.3,36.3,25.8,2.2,.4,26,4.1,42.7-12.2,12.6-12.3,14.2-29.3,14.8-35.9,.2-2.5,.5-5.4,.2-9.2-1.2-14.5-10-33.9-28.5-41.5-15.4-6.3-29.8-1.1-35.2,.8-4.9,1.7-22.3,8.3-31.1,27.2h0Z"/>
      <path class="cls-15" d="M290.3,163.4c-2.7-2.8-8.3-5.4-19.5-10.7-9.6-4.5-11.5-4.6-18.3-8.5-3.8-2.2-7.2-4.6-14.1-9.4-5.2-3.6-7.5-5.4-12.8-8.8,0,0-4.4-2.8-11.2-6.1-.1-.1-3-1.4-7.1-2.4-4.8-1.1-5.7-.4-6,0-.7,.8-.6,2.4,0,3.1,.4,.4,1.1,.6,2.3,1,.2,.1,.4,.1,.4,.1,0,.1-2.6-.8-5.6-1.1-2.5-.3-4.3-.4-5.2,.7,0,.1-.9,1-.6,2,.4,1.1,1.9,1.2,6.6,2.8,.1,0,1.2,.4,2.7,1.2,.4,.2,1.2,.7,1.2,.8-.1,.1-1.1-.2-3-.8-2.6-.8-4.4-1.3-6.4-1.6-1.3-.2-2.3-.2-3.2,.3-.2,.1-1,.6-1.2,1.4-.1,.3-.2,1.3,1.5,2.9,2.4,2.3,4.9,2.6,9,4.1,3.5,1.4,6.6,3.1,6.5,3.4-.1,.4-6.2-1.6-6.9-1.8-7.1-2.3-10.1-4.1-11.5-2.8-.8,.8-.7,2.2-.6,2.3,.6,4.2,9.2,4.3,19.3,11.5,1.6,1.1,5.4,3.8,4.9,4.9-.4,.9-4,1.1-6.5-.5-1.4-.9-1.8-1.9-3.4-2.3-.9-.2-2.6-.4-3.1,.3-.9,1.4,2.9,7,8.2,9.4,4.4,2,8.7,1.3,12.9,.7,5.1-.8,7.9-2.2,9.9-2.8,8.6-2.5,18.2,5,39.2,21.9,20.1,16.2,23,18.7,25.5,17.4,6.1-2.5,5.9-22.3-3.9-32.6h0Z"/>
      <path class="cls-13" d="M30.1,199.7c2.3-6.3,3.9-13.1,8-18.5,1.5-8.1,9.9-14.3,18.1-13.2-.3,.8-.7,1.6-1,2.5,2.3-.6,5.5-.7,6.3,1.5,.7,1.8-.9,3.7-2.4,4.9-2.5,2.1-5.2,4.1-7.4,6.6-2.1,2.5-3.7,5.8-3.2,9,.4,3.3,3.2,6.3,6.5,6.2,3.2-.1,5.5-3,8-5s6.8-3.1,8.6-.4c-6.8,5.8-13.6,11.6-20.3,17.4-8.8,7.5-17.8,15.3-23.4,25.4-5.6,10-7.5,21.5-11.6,32.1-1.8,4.5-4.1,9-7.7,12.1-4.7,4-11.4,5.5-17.3,3.8-3.9-1.1-7.6-3.8-8.7-7.7-1.3-4.3,.3-8.2,1.8-11.4,3.3-7.2,10.4-13.7,12.1-16.5,.1-.1,.4-.7,1-1.4,.9-1,1.7-1.6,1.9-1.9,1.3-1.5,2.7-3,4-4.5,2.7-3,5.3-6.1,7.8-9.2,5-6.2,9.6-12.6,13.4-19.6,2.2-4,4-8,5.5-12.2h0Z"/>
      <path class="cls-11" d="M15.2,22.6c5,3.5,10.1,7,15.7,9.3,7.6,3.2,14.7,4.2,18.4,4.8,8.8,1.3,13.1,1.6,13.1,1.6,4.5,.3,6.9,.2,10.1,1.7,1.1,.5,1.6,.8,6.7,4.8,7.1,5.5,7.7,6,8.9,7.1,3.9,3.8,6.8,6.6,6,9.1-.6,2-3.1,3.3-5.1,3.4-1.2,.1-1.8-.3-5.3-1.9-3.1-1.4-4.9-2.2-7.2-2.9-.7-.2-5.9-1.7-6.5-.5-.3,.7,.9,1.9,1.2,2.1,1.8,1.8,3.7,1.6,6.8,2.7,1.2,.4,.5,.3,4.7,2.4,4.7,2.4,6.3,2.8,6.6,4.2,.2,.9-.2,2-.9,2.7-1,.9-3,1.3-14.1-3-2.7-1-7.9-3.1-12.6-4.2,0,0-1.9-.5-4.9-.6-2.5-.1-4.3-.2-4.6,.5s1.6,2.5,5.5,6.1c.8,.7,1.6,1.5,2,2.7,.5,1.3,.6,3.4-.3,3.9-1.1,.7-3.3-1.6-7.4-4.9-4.7-3.8-5.4-3.6-8.7-6.2-7.8-6.2-7.3-9.7-13.5-15-3.3-2.8-6.9-4.3-14.1-7.3-4.8-2-12-4.7-23.2-7.7-17-4.5-23-4.2-26.5-9.9-1.5-2.4-1.9-4.8-2.7-9.8-.9-5.7-1.5-10.5,.6-15.6,2.5-5.9,10.1-12.7,15.5-6.1C-14.7,3.1-6.5,7.6,.8,12.7l14.4,9.9h0Z"/>
      <path class="cls-14" d="M70.6,141.1c.6-1.5,1.4-2.4,2-3,2.8-3,4.3-4.5,6.4-5.8,.8-.5,3.5-2,7.4-2.7,2.2-.4,8.4-1.5,12.6,1.7,1.6,1.2,2.6,2.8,2.8,3.1,.7,1.2,1.4,2.2,1.3,3.6-.1,2.4-2.3,3.9-2.7,4.1-1.6,1.1-3.1,1.1-4.6,1.3-5.5,.6-4.7,1.7-10.6,2.4-2.4,.3-4.6,.2-8.8,.1-4.2-.1-5.7-.4-6.3-1.5-.4-.9,.1-2.4,.5-3.3h0Z"/>
      <path class="cls-14" d="M92.4,81.7c1.5-.8,2.9-.7,4.3-.6,4,.3,6,.4,7.9,1.2,3.2,1.3,5.1,3.4,6.3,4.7,3.4,3.8,5.6,8.9,5.2,13.2-.2,2.1-.9,3.7-1,4-.6,1.3-1.1,2.4-2.3,3.1-2.1,1.2-4.5,.2-4.9,0-1.7-.7-2.6-1.9-3.6-3.1-3.5-4.3-4-3-7.9-7.6-1.5-1.7-3.4-4-4.9-7.3-1.1-2.4-2-4.4-1.1-6,.6-.8,1.5-1.3,2-1.6h0Z"/>
      <path class="cls-14" d="M75.1,105c1.1-1.1,2.4-1.4,3.7-1.8,3.7-.9,5.6-1.3,7.5-1.1,3.3,.3,5.6,1.6,7.1,2.5,4.2,2.4,7.7,6.5,8.7,10.4,.5,1.9,.3,3.6,.3,3.9-.2,1.3-.3,2.4-1.1,3.4-1.5,1.7-4,1.4-4.4,1.4-1.8-.2-2.9-1-4.2-1.8-4.4-2.9-4.5-1.6-9.3-4.6-1.9-1.2-4.2-2.6-6.6-5.2-1.8-1.9-3.1-3.4-2.8-5.1,0-.9,.7-1.6,1.1-2h0Z"/>
      <path class="cls-14" d="M157.9,171.8c-1.2,.7-2.5,.8-3.8,.8-3.5,0-5.3-.1-7-.6-2.9-1-4.7-2.7-5.9-3.8-3.2-3.1-5.6-7.6-5.6-11.4,0-1.9,.5-3.3,.6-3.6,.4-1.2,.8-2.2,1.8-2.8,1.7-1.2,3.9-.4,4.3-.3,1.6,.5,2.4,1.6,3.4,2.6,3.4,3.6,3.7,2.4,7.4,6.3,1.4,1.5,3.3,3.3,4.9,6.2,1.2,2.1,2.1,3.8,1.4,5.2-.3,.7-1,1.2-1.5,1.4h0Z"/>
      <path class="cls-14" d="M177,111.1c.7,2.3-.6,4.6-1.2,5.6-.4,.6-1.4,2.3-5,5-2.5,1.8-4,3-6.4,3.9-4.5,1.7-9.9,1.9-13.6,.2-1.8-.8-3-2-3.2-2.2-.9-.9-1.7-1.8-1.9-3-.3-2.2,1.4-4,1.7-4.3,1.2-1.3,2.6-1.6,4-2.1,3.5-1.1,4.1-1.9,6-2.9,1.4-.7,2.5-1.1,3.5-1.4,7.4-2.6,9.7-4.6,12.2-3.4,.9,.5,1.9,1.4,2.6,2.4,.4,.3,1,1.1,1.3,2.2h0Z"/>
      <path class="cls-14" d="M109,123.8c-.2-1.5,.2-2.7,.7-3.9,1.4-3.4,2.1-5.1,3.3-6.5,2.1-2.4,4.4-3.4,5.8-4.1,4.2-1.9,9.3-2.3,12.9-.8,1.8,.7,2.9,1.8,3.1,2,.9,.9,1.7,1.6,2,2.9,.4,2.1-1.1,3.9-1.4,4.2-1.1,1.3-2.4,1.7-3.7,2.2-4.7,1.8-3.7,2.6-8.7,4.7-1.9,.8-4.4,1.8-7.7,2.2-2.4,.3-4.4,.5-5.5-.7-.6-.7-.8-1.7-.8-2.2h0Z"/>
      <path class="cls-14" d="M143.4,139.5c-.6,1.2-1.5,2-2.6,2.6-2.9,1.9-4.3,2.8-6,3.3-2.9,.8-5.4,.4-7,.2-4.5-.7-9-2.9-11.3-5.9-1.1-1.4-1.6-2.9-1.7-3.1-.3-1.1-.7-2.1-.3-3.2,.7-1.8,2.9-2.4,3.3-2.6,1.6-.4,2.9-.1,4.2,.2,4.9,1,4.5-.1,9.8,.9,2,.4,4.6,.8,7.6,2.2,2.2,1,3.9,1.8,4.3,3.3,.2,.9-.1,1.7-.3,2.1h0Z"/>
      <path class="cls-14" d="M147.2,136.1c0,1.4,.6,2.4,1.2,3.4,1.8,2.9,2.8,4.3,4.1,5.4,2.4,1.9,4.8,2.6,6.3,3.1,4.4,1.2,9.4,1.1,12.8-.6,1.6-.8,2.6-1.9,2.8-2.1,.8-.9,1.5-1.6,1.6-2.8,.1-1.9-1.6-3.4-1.9-3.6-1.3-1-2.6-1.3-3.9-1.6-4.8-1.1-4-1.9-9.2-3.2-2-.5-4.6-1.2-7.9-1.2-2.4,0-4.4,0-5.3,1.2-.6,.7-.6,1.5-.6,2h0Z"/>
      <path class="cls-14" d="M121.5,73.6c.7-1.2,2.2-2.1,3.6-2.2,3.5-.3,6.2,4.3,7.3,6,1.6,2.7,2.1,5.2,2.6,7.7,1,5.2,1.8,9.4-.5,13.2-1.6,2.7-5,5.5-7.3,4.7-1.6-.5-2.3-3.8-3.7-10.4-2.1-9.8-.4-7.5-1.9-13.3-.5-1.9-1.2-3.9-.1-5.7h0Z"/>
      <path class="cls-14" d="M152.8,78.7c1.4-.4,3.2-.1,4.5,.8,3.2,2.3,2.6,7.7,2.4,9.7-.4,3.3-1.5,5.5-2.7,7.8-2.5,4.7-4.5,8.5-8.9,9.8-3.1,.9-7.7,.7-9.2-1.6-1-1.5,.5-4.6,3.5-10.7,4.5-9,4.4-6,6.9-11.6,.7-1.6,1.5-3.6,3.5-4.2h0Z"/>
      <path class="cls-14" d="M131.2,162.6c.8-5.2,1.4-6.7,.2-8.3-1.3-1.8-3.8-2.5-5.8-2.3-3.3,.4-5.2,3.3-6.4,5.2-1.5,2.4-2,4.5-2.5,7.2-.7,3.5-1.6,8.2,.4,13.2,.7,1.8,1.5,3.8,3.6,5.2,1.6,1,4.4,2,6.3,.9,1.4-.9,1.5-2.4,2.3-7.9,1.2-8.3,1.8-12.4,1.9-13.2h0Z"/>
      <path class="cls-14" d="M53.8,184.6c.5-.7,2.4-3.1,5.5-6.3,2.6-2.7,4-4.1,5.4-4.8,4.1-2.2,8.2-1.4,9-1.3,2.1,.4,5.3,1.1,6.8,3.9,1.6,3.1-.3,6.5-.5,6.8-1,1.7-2.4,2.5-4.6,3.7-14.5,7.9-14,6.6-15.8,8.3-.7,.7-2.3,2.5-4.4,2.4-1,0-1.7-.5-2.2-.8-.2-.1-2.7-1.6-3.3-3.8-.5-1.9,1-4,4.1-8.1h0Z"/>
      <path class="cls-12" d="M192.6,76.5c-1.1-1.5-2.2-3.2-2.1-5.1,.2-2.2,2.1-3.8,3.8-5.2,4.5-3.5,9.2-6.9,13.9-10.1,1.9-1.3,4-2.6,6.3-2.7,1.9-.1,3.8,.8,5.3,1.9s2.8,2.7,4,4.2c2.9,3.5,5.8,7,8.7,10.5,1.3,1.6,2.7,3.3,2.8,5.4,.1,1.9-.9,3.7-2,5.3-5.2,7.6-13,13.4-21.8,16.3-1.4,.4-3.8,1.1-5-.1-.4-.4-.5-.9-.7-1.4-.4-.9-1.1-1.7-1.7-2.4-2.5-3.6-5-7.1-7.5-10.6-1.2-2.1-2.6-4-4-6h0Z"/>
      <path class="cls-12" d="M5.6,165.7c.7,.7,1.5,1.5,2.5,1.6,1,.1,1.9-.6,2.7-1.2,3.3-2.6,6.6-5.3,9.9-7.9,3-2.4,6-4.7,8.3-7.7,1.8-2.3,3.2-5,2.9-7.9-.3-2.6-1.9-4.8-3.5-6.8-3.7-4.6-7.7-9-12-13.2-.7-.6-1.4-1.3-2.3-1.4-.9-.1-1.8,.3-2.6,.7l-12.3,6.3c-2.4,1.2-4.9,2.5-7,4.2-2.1,1.7-3.9,4.1-4.4,6.7-.6,2.7,.1,5.6,1.4,8.1,1.8,3.5,4.5,6.2,7.2,8.9,3.1,3.3,6.1,6.5,9.2,9.6h0Z"/>
      <path class="cls-6" d="M190.6,180.3c-6.3-.2-12.7,4.2-13.9,10.8-1.4,7.6,4.6,14.6,11,15.5,8.8,1.3,17.7-9.1,15.4-17.4-1.5-5-6.9-8.7-12.5-8.9h0Z"/>
      <path class="cls-8" d="M183.5,203.3c3,2,7.2,2.2,10.4,.6,2.3-1.2,4.1-3.2,5.4-5.5,1.3-2.2,2.2-4.7,1.9-7.2-.2-2-1.2-3.8-2.6-5.2s-3.2-2.4-5.1-2.9c-3.6-1-7.6-.4-10.6,1.7-2.4,1.7-4.1,4.4-4.5,7.2-.2,1.3,.2,2.2,.4,3.5,.2,1.5,.6,2.8,1.3,4.2,.9,1.4,2.1,2.7,3.4,3.6h0Z"/>
      <path class="cls-6" d="M96,200.7c-7.3,0-13,7.1-12.5,14.1,.4,6,5.4,11.5,11.5,12,7.5,.5,14.2-6.9,13.4-14.5-.6-6.1-5.9-11.6-12.4-11.6Z"/>
      <path class="cls-4" d="M90.5,83.4c1.5-3,7.2-3.3,11-2.5,9.3,1.8,14.9,12.6,13.7,21.2-.2,1.8-.5,5.1-2.6,6-3.9,1.8-10.9-6.2-14.2-10-4.8-5.4-9.8-11.1-7.9-14.7Z"/>
      <path class="cls-4" d="M158.6,170.6c-1.2,2.6-6,3.1-9.3,2.6-8-1.2-13.2-10.2-12.5-17.6,.1-1.5,.2-4.4,2-5.2,3.2-1.7,9.5,4.8,12.6,8,4.1,4.4,8.6,9.1,7.2,12.2h0Z"/>
      <path class="cls-4" d="M77.1,104.3c4.3-3.2,9.8-2,10.7-1.8,4.7,1,7.4,4,10.5,7.4,1.4,1.6,3.4,4.1,4.2,7.5,.5,2.2,.1,3.1-.2,3.5-1.2,1.9-4.4,1.8-5.7,1.8-4-.1-6.1-1.7-15.3-7.3-5.6-3.4-7.4-4.4-7.5-6.4-.1-2.2,2.3-4,3.3-4.7h0Z"/>
      <path class="cls-4" d="M133.8,109.4c-4.2-3.1-9.5-2-10.4-1.8-4.6,1-7.2,3.9-10.2,7.2-1.4,1.5-3.3,4-4,7.3-.5,2.2-.1,3.1,.2,3.4,1.2,1.9,4.3,1.8,5.6,1.8,3.9-.1,5.9-1.7,14.9-7.1,5.4-3.3,7.2-4.3,7.3-6.2-.2-2.1-2.5-3.9-3.4-4.6h0Z"/>
      <path class="cls-4" d="M77.4,133.5c1.9-1.4,5.5-4.1,10.7-4.4,6.6-.4,14.9,2.9,15.4,7.6,.3,2.7-1.9,5-2.3,5.4-2.1,2.1-4,1.9-13.8,3.4-5.1,.8-6.4,1.1-9.2,1-3.8-.1-7.1-.2-8-2-1.4-2.8,3.5-8.2,7.2-11h0Z"/>
      <path class="cls-4" d="M126.4,71.8c7.1,2.6,8.6,13.3,8.7,14.7,.3,2.8,1.1,9.6-3.2,13.4-.6,.5-3.6,2.9-5.9,2-2.5-1-1.9-4.9-3.3-14.8-1.3-9.8-2.9-13.9-.8-15.4,1.4-1,3.5-.3,4.5,.1Z"/>
      <path class="cls-4" d="M121.4,183.2c-6.5-4.8-4.8-16.1-4.6-17.6,.5-2.9,1.7-10.2,7.3-12.8,.8-.4,4.5-1.9,6.6-.3,2.2,1.8,.5,5.6-1,16.1-1.5,10.4-1.1,15.1-3.8,16-1.6,.7-3.5-.7-4.5-1.4h0Z"/>
      <path class="cls-4" d="M157,79.8c4.1,2.8,4,12.4-.1,18.9-4.2,6.7-13.1,10.6-16.1,8.2-1.6-1.3-1.2-4.2-.8-6.8,.8-6,3.6-6.1,8-15.2,1.3-2.8,2.1-4.9,4.3-5.7,1.5-.6,3.5-.2,4.7,.6h0Z"/>
      <path class="cls-4" d="M177.1,112c.2,6.8-8.5,13.2-16.5,14.6-1.9,.3-9.1,1.5-12.6-2.8-.4-.6-2.4-3.1-1.6-5.8,1.1-3.7,6-3.1,15.7-7.5,6.9-3.1,9.4-5.7,12-4.3,2.2,1,2.9,3.9,3,5.8h0Z"/>
      <path class="cls-4" d="M114.5,136.8c1.4,5.9,10.3,9.4,17.4,8.8,1.7-.2,8.2-.7,10.2-5.2,.2-.6,1.3-3.2,.1-5.3-1.7-2.9-5.8-1.3-15.2-2.9-6.6-1.1-9.4-2.8-11.3-1-1.6,1.3-1.6,4-1.2,5.6h0Z"/>
      <path class="cls-4" d="M175.1,145.3c-4,5.8-15.1,2.8-15.7,2.7-5.6-1.6-12.3-6.1-12.6-11.6,0-.6-.1-2.8,1.3-4,2-1.8,5.3-.1,12.3,1.9,10.5,2.9,14.5,2.1,15.7,5.2,1.1,2.6-.8,5.6-1,5.8h0Z"/>
      <path class="cls-3" d="M234.4,72.9c.1-.2,.1-.6,.1-.9,0-1.3-.7-2.3-1.9-4-1.3-1.8-2-2.7-2.2-3-2.6-2.9-5.6-5-7.4-6.2"/>
      <path class="cls-3" d="M217.2,54.2c-.1-.1-.2-.1-.2-.2-1.2-1.1-1.4-1.4-2.1-1.6-3.4-1.2-6.7,2.8-15.4,10-7.5,6.2-9.4,6.8-9.6,9.3,0,.4,0,.8,.1,1.2,.4,1.8,5.7,7,8.1,9.6,.6,.6,1,1.1,1.2,1.4"/>
      <path class="cls-3" d="M199.4,83.9c5.2,8.4,6.8,12.9,10.4,12.9,.3,0,.8,0,3.2-1.2,5.5-2.6,9.3-5.4,10.4-6.2,8.1-6.1,12.2-9.3,12.3-12.5,0-1.2-.4-2.2-1.3-4.2-2.9-6.5-6.4-7.6-13.3-16.2-1-1.3-1.2-1.6-1.8-1.9-3.1-1.7-7,1.8-16.7,7.6-8.3,5-10.3,5.3-10.9,7.8-.6,2.7,1.4,4,6.5,11.8,.3,.8,.8,1.5,1.2,2.1"/>
      <path class="cls-3" d="M-10.5,140.3c-1.3,.8-2.1,1.8-2.4,2.6-.2,.5-.2,1.1-.2,1.1-.2,2.8,2,3.8,8.2,10.7,7.7,8.7,10,13.6,13.8,13.1,.3,0,.8-.1,3-1.6,4.4-2.9,7.5-5.8,8.8-7.2l.5-.5c2.2-2.2,5.3-5.7,9.3-10.9"/>
      <path class="cls-3" d="M16.2,121.1c-3.1-1.7-7,1.8-16.7,7.6-8.3,5-10.3,5.3-10.9,7.8-.6,2.7,1.4,4,6.5,11.8,6.3,9.7,7.8,14.9,11.6,15,.3,0,.8,0,3.2-1.2,5.5-2.6,9.3-5.4,10.4-6.2,8.1-6.1,12.2-9.3,12.3-12.5,0-1.2-.4-2.2-1.3-4.2-2.9-6.5-6.4-7.6-13.3-16.2-1-1.3-1.2-1.6-1.8-1.9h0Z"/>
      <path class="cls-4" d="M49.9,194c-1.1-3.1,2.5-7.1,6.7-11.8,5.7-6.3,9.4-10.4,15-10.5,3.8-.1,9,1.7,9.8,5.1,1,3.9-3.9,9.4-8.6,11.6-3.4,1.6-7.7,2-10.8,4.4-2.3,1.7-3.1,2.4-3.1,2.4-2,1.6-2.1,1.8-2.6,2-2.1,.7-5.6-.9-6.4-3.2h0Z"/>
      <path class="cls-9" d="M77.1,136.9c-1.2,.5-2.7,1.2-2.7,2.5,0,1.5,1.9,2.1,3.3,2.3,3,.4,6,.9,8.9,1.3,1.6,.2,3.2,.5,4.8,.3,1.9-.2,3.9-.9,5.4-2.1,.7-.5,1.3-1.1,1.9-1.7,1.1-1.1,2.2-2.2,3.3-3.3-.6-1.3-1.9-2.1-3.2-2.5s-2.8-.4-4.2-.4h-9.2c-1.6,0-4.3-.3-5.6,.8-1,1-1.1,2.1-2.7,2.8h0Z"/>
      <path class="cls-9" d="M80.3,106.5c-1.5,.3-3.4,1.1-3.5,2.7-.1,1.5,1.7,2.4,3.2,2.6s3.2,.1,4.3,1.2c1.2,1.2,1.2,3.4,2.6,4.3,1.4,.8,3.2-.1,4.8,.1,1.6,.2,2.7,1.4,4,2.3s3.1,1.5,4.3,.5c.9-1.3-.3-3.1-1.6-4s-2.9-1.7-3.5-3.2c-.4-1-.2-2.2-.6-3.2-.9-2.2-3.7-2.4-5.6-3.4-1.2-.6-1.6-1.3-3-1.1-1.6,.1-3.5,.8-5.4,1.2h0Z"/>
      <path class="cls-9" d="M112.7,117.1c-1.1,1-1.8,2.4-1.5,3.9s1.9,2.6,3.2,2.1c1-.4,1.6-1.4,2.3-2.1,1.5-1.3,3.6-1.3,5.5-1.5,3.5-.3,6.9-1.3,10.1-2.7,.6-.3,1.2-.6,1.5-1.2,.4-.7,.2-1.6-.3-2.3s-1.2-1.1-1.9-1.5c-2-1.2-4.5-2.3-6.5-1-1.2,.8-1.9,2.4-3.3,2.8-1.9,.5-3.3-.5-5.1,.7-1.2,.9-2.8,1.8-4,2.8h0Z"/>
      <path class="cls-9" d="M117.8,132.9c-1,.8-1.1,2.3-.8,3.5,.9,3.4,4.2,5.7,7.6,6.5s7,.2,10.4-.5c2-.4,4.3-1.3,4.6-3.3,.3-1.8-1.2-3.4-2.9-4s-3.6-.4-5.4-.4c-2.2,0-4.3-1-6.5-1.2-1.7-.2-5.3-1.8-7-.6h0Z"/>
      <path class="cls-9" d="M126.6,154.3c-1.7-.2-3.2,.9-4.1,2.3s-1.2,2.9-1.6,4.5c-.8,2.9-1.9,5.6-2.5,8.5s-.6,6,.8,8.6c.9,1.7,3,3.2,4.9,2.5,1.5-.6,2-2.4,2.3-3.9,.4-2,.8-4,1.2-6,.6-2.9,4.5-16-1-16.5h0Z"/>
      <path class="cls-9" d="M138.5,154.4c-1.1,1.8-.5,4,.2,6,.8,2.5,1.8,5,3.8,6.8,1.6,1.4,3.6,2.2,5.5,3,2.2,.9,4.4,1.7,6.8,1.7,1,0,2.2-.4,2.4-1.3,.1-.6-.2-1.2-.5-1.7-1.8-2.8-3.6-5.8-6.5-7.6-1.4-.9-2.8-1.5-3.7-3-.6-1-.7-2.2-1.2-3.3-1.5-2.6-5.2-3.3-6.8-.6h0Z"/>
      <path class="cls-9" d="M154.5,133.9c-1-.8-2.3-1.5-3.4-.8-.8,.4-1,1.4-.9,2.3s.6,1.6,1.1,2.4c2.1,3.2,4.6,6.3,7.9,8.1s7.9,2,10.8-.5c1.3-1.1,2.2-3,1.4-4.5-.6-1.1-1.9-1.6-3.1-1.9-4.4-1.3-10-2.1-13.8-5.1h0Z"/>
      <path class="cls-9" d="M152.1,117.6c-1.2,.3-2.4,1.1-2.8,2.3-.5,1.7,.7,3.5,2.3,4.2s3.5,.4,5.1-.1,3.2-1.4,4.9-1.9c2-.6,4.2-.7,6.3-1.1s4.2-1.1,5.6-2.7c1.4-1.6,1.8-4.2,.4-5.8-1-1.2-2.8-1.6-4.3-1.3s-3,.9-4.4,1.7c-2.3,1.2-4.6,2.4-6.9,3.6-1,.5-1.8,1-2.9,1.2-1-.1-2.1-.4-3.3-.1h0Z"/>
      <path class="cls-9" d="M150.6,87.8c-.2,1-.1,2.1-.5,3-.5,1.3-1.8,2.1-2.9,3-1.6,1.3-2.8,3.2-3.1,5.2-.2,1.3,0,2.7,.8,3.8s2,1.9,3.3,1.8c1.2,0,2.4-.7,3.2-1.6s1.4-2,2-3.1c1.4-2.7,2.8-5.4,4.2-8.1,.6-1.1,1.1-2.2,1.2-3.4,.2-5.4-7.2-5.4-8.2-.6h0Z"/>
      <path class="cls-9" d="M122.9,77.7c.6,5,1.2,10,1.8,15,.2,1.8,.6,3.9,2.2,4.7,1.2,.6,2.6,.2,3.6-.6s1.6-2,2-3.2c1.6-4.7-.2-9.9-2.3-14.2-.8-1.6-2-4.1-3.6-5.1-2.7-1.9-4,1-3.7,3.4Z"/>
      <path class="cls-9" d="M95.5,82.4c-1.7,.6-2.7,2.7-2.1,4.4,.8,2.5,4.1,3.3,5.5,5.5,1.1,1.7,1.1,4,2.7,5.2,1,.7,2.2,.7,3.4,.9s2.5,.6,3,1.7c.4,.9,.1,2,0,3.1s.3,2.3,1.4,2.4c.8,.1,1.5-.7,1.9-1.4,2.9-5.3,.7-11-3.6-14.7-2-1.7-3.8-2.3-6-3.5s-3.1-4.7-6.2-3.6h0Z"/>
      <path class="cls-9" d="M62.2,179.9c-1.8,1.3-3.7,2.6-5.2,4.3s-2.7,4-2.8,6.4c0,.8,.1,1.8,.8,2.2,.5,.3,1.2,.1,1.7-.1,3-1.2,5.9-2.5,8.9-3.7,2.4-1,4.8-2,6.8-3.9,1.3-1.3,2.4-2.9,3.1-4.7,.3-.9,.6-1.9,.3-2.8-.7-2.6-4.5-2.6-6.4-2.2-2.6,.5-5,3-7.2,4.5h0Z"/>
      <path class="cls-2" d="M215.2,126.7c-1.7-.7-5-2.2-8.4-3.4-1.4-.5-2.6-1.1-3.8-1.3-1.1-.2-2.1-.7-3.1-.9-2-.4-4.3-.4-6.3,.3-1.2,.4-1.3,1.7-.7,2.6s1.7,1.2,2.7,1.6c3.9,1.2,5.4,1.4,7.3,2.5,.7,.4,1.2,.7,1.5,1"/>
      <path class="cls-2" d="M211.8,152.7c-1.6,.1-3.1,.2-4.8,0-.2-.1-.5-.1-.7-.3-1.1-.5-1.8-1.4-2.7-2-1.3-.7-2.7-.9-4.3-.9-.7,0-1.8,.3-1.4,1.2,.6,1.4,1.6,2.2,2.5,3.4,.7,1.2,1.4,2.3,2.3,3.4,.6,.6,1.3,1,2.1,1.5,2.4,1.2,4.9,1,7.6,1.3,1.1,.2,2.2,.5,3.3,.7,2.1,.3,4,0,5.9-.5,1.2-.3,2.1-.6,3.2-.9,1.9-.6,3.6-1.5,5.4-1.9,5.8-1.1,10.7,2.4,15.3,5.4,.5,.2,.9,.6,1.4,.8,3,1.9,5.8,4.1,8.6,6.1,5.9,4.2,11,8.4,18.9,14.3,7.3,5.4,13,9.4,16.1,7.6,.6-.4,1.6-1.2,2.4-2.1,.5-.6,2.2-2.4,3.1-4.8,1.3-3.6-.3-5.3,.2-12.5q.1-1,.1-1.5c-.2-3.2-1.9-6.3-4.2-8.1-1.3-1-2.6-1.4-3.2-1.5-8.8-2.6-14.8-6.7-24.2-10.9-1.7-.8-3.2-1.4-4.9-2.1-1-.5-1.8-1-2.6-1.4-3.8-2.4-7.2-4.9-11.1-7.2-1.8-1-3.6-1.9-5.2-3.1-3.8-2.5-7-5.5-10.9-8-2.1-1.2-4.2-2.4-6.3-3.7-2.5-1.4-4.9-2.2-7.6-3.4-.6-.3-1-.6-1.6-.9-1.2-.7-2.4-1-3.7-1-.9-.4-1.6-.7-2.2-.9-1.2-.4-2-.5-2.2-.5h-.6c-1.6-.1-.9,0-2.6-.1-.3,0-.7,0-1.1,.2-.2,.1-.2,.2-.3,.2-.2,.3-.2,.7-.2,.8,0,.4,.2,1.3,1,1.9,.7,.6,1.1,.6,2.6,1,1.3,.4,2.2,.8,3.5,1.4,.8,.3,1.8,.9,3.1,1.7"/>
      <path class="cls-2" d="M210.8,131.1c-.6-.2-1.4-.5-2.5-.9-1.7-.6-2.3-.8-4.6-1.5-3.7-1.2-3.6-1.2-4.3-1.4-1.9-.4-2-.1-4.2-.6-1.2-.3-1.7-.5-2.7-.4-.7,.1-2,.2-2.5,1.1-.5,.9-.2,2,.2,2.6,.5,.8,1.2,1.1,2.6,1.7,1.1,.5,2,.7,2.1,.7,1,.2,1.7,.6,8.5,4,2.8,1.4,3.1,1.6,3.1,1.7-.1,.3-3.2-.8-10.2-2.8-1.1-.3-1.6-.5-2.4-.8-1.6-.6-1.8-1-2.7-1.1-.4-.1-2.2-.3-3,.7s-.3,2.6,.4,3.5c.5,.7,.9,.7,2.7,2,1.1,.7,1.4,1.1,2,1.5,1.9,1.4,3.7,2.1,5.5,2.9,2.9,1.3,6.2,2.7,9.3,4.9,1.9,1.4,3.2,2.7,3.9,3.5"/>
      <path class="cls-2" d="M42.4,185.3c1.6-2.5,3-4.4,3.9-5.6,.8-1.1,1.2-1.6,1.9-2.5,1.1-1.4,1.7-2.1,2.1-2.5,.6-.5,1.5-1,3.4-2s2.8-1.5,3.6-1.6c1.4-.3,1.2,.2,3.2-.1,0,0,1.4-.2,3,0,.2,0,.5,.1,.7,.3,.5,.5,.1,1.5,0,1.8-.7,2.1-4.8,2.9-5.4,3-.4,.5-.8,1.1-1.4,1.6-1,1-2,1.6-2.8,2-.3,1.2-.9,2.6-1.7,4.1s-1.7,2.6-2.5,3.5c0,.9-.2,2.2-.8,3.7-.6,1.4-1.1,1.7-1.1,2.7,0,1.4,.9,2.4,2,3.6,1.4,1.6,2.3,2.6,3.5,2.5,1.2,0,1.2-1.1,4-2.7,1-.6,1.5-.7,2.4-1.5s1-1.2,1.7-1.8c1-.9,2.1-1.3,3.1-1.6,1.2-.4,3.7-1.2,5.6-.1,.6,.4,.7,.6,.7,.7,.1,.4-.1,1-2.5,3.3-1.3,1.3-1.3,1.2-1.8,1.7-.4,.4-.9,1-1.7,1.9l-.3,.3c-1.2,1.2-3,2.8-3.1,2.8-1.2,1.1-2.1,2-3.7,3.7-1.9,2.1-1.8,2.2-2.7,3.1-1.5,1.3-2.7,1.7-4.8,2.6-1.2,.6-5.4,2.4-8.7,4.9-.5,.4-2.2,1.7-4.5,4.5-3.6,4.4-5.8,8.9-8.1,14.3-3.9,8.9-6.4,15-9.4,21.8-1.7,3.9-3,6.9-4.7,10.4-6.2,13.1-8.5,15.5-11.4,16.9-.8,.4-4.9,2.3-9.5,.9-7.9-2.3-9.9-12.2-10.1-12.7-.4-2-.3-3.7-.2-4.4,.1-1.5,.5-3.9,3-8.3,3.5-6.3,7.4-10.3,9.6-13,.2-.3,1-1.3,2.1-2.5H-1c3.4-3.6,4.6-6,12.9-16.1,2.7-3.3,3.8-4.6,5.2-6.8,.9-1.5,1.9-2.9,2.7-4.4,.6-1,1-1.6,1.6-2.4,1.1-1.5,2.1-2.4,2.5-2.8,2.1-2,3.1-4.8,4.6-9.2,1.1-3.1,1.9-6.5,2.2-7.7,.4-1.5,.6-2.3,1-3.7,.2-.5,.8-2.1,2.4-5.4,2.3-4.5,3.1-4.8,4-7.4,0-.1,.5-1.3,1.3-2.9,.8-1.7,1.2-2.2,1.4-2.4,.7-.8,1.2-.9,2.8-1.9,2.5-1.5,2.4-1.9,4.2-2.7q.2-.1,3-1c3.1-1,3.8-1.3,4.4-.9,.6,.4,.9,1.5,.6,2.1-.2,.5-.7,.6-1.9,.9,0,0-.9,.2-3.6,1.1-1.6,.5-2.6,.9-3.4,1.3-.8,.4-1.2,.7-1.5,.9-.3,.3-.7,.6-1.6,1.7-.6,.7-.8,1-1.4,1.7-.5,.6-1.6,2.3-3,4.5"/>
      <path class="cls-2" d="M54.9,170c.4-.1,1-.1,1.8-.1s1.2,.1,2.3,.4c.6,.1,1.5,.3,2.7,.5"/>
      <path class="cls-2" d="M67.1,49.9c.5,.1,1.2,.4,2.2,.6,2.4,.7,4.7,1.4,9.3,2.7,.7,.2,1.4,.4,2.3,.8,1.2,.5,1.4,.7,3.2,1.5,1.2,.6,2.3,1.1,3.8,1.7,.4,.2,1.3,.5,2.6,1,1.2,.5,1.9,.8,2.6,1.4,.4,.4,.9,.8,.9,1.4,.1,1-1.1,1.8-1.8,2.1-.4,.2-1.1,.4-3,.1-1.2-.2-1.7-.4-4.8-1.3-1.9-.6-2.5-.7-3.3-.9-1.2-.2-2-.3-2.6-.4-2.9-.4-5.7-1.3-8.2-2-1.7-.5-3.3-1.1-3.7-.5-.2,.2-.1,.6-.1,.6,.1,.5,.7,.8,2.6,1.4,1,.3,1.7,.5,2.1,.6,0,0,1.5,.4,3.2,1,1.5,.5,2.6,1,3.9,1.6,1.5,.7,1.6,.7,2.7,1.2,3,1.3,3.2,1.1,4.5,1.8,1.9,1,4.6,3,4.2,4.4-.2,.7-1.2,1.1-1.8,1.3-.8,.3-1.6,.4-3,.2-1.8-.2-2.8-.7-4.3-1.1-1.3-.4-1.1-.2-4.4-1.1-1.5-.4-4.6-1.2-8.1-2.2-2.9-.9-3.3-1.1-4.6-1.5-2.5-.7-6.4-1.4-11.6-.9,.3,.2,.7,.7,1.2,1.2,1.2,1.3,1.4,1.9,2.3,2.8,1,.9,1.2,.7,2.1,1.5,0,0,3,2.6,2.3,6.9,0,.2-.1,.5-.3,.6-.2,.2-.7,.1-1.8-.6-1.1-.8-1.7-1.4-2.3-2.1-.9-.8-1.7-1.3-3.3-2.2-1.6-.9-1.9-.8-3.6-1.9-.7-.4-.7-.5-2-1.3-1.7-1.1-2.4-1.5-2.9-1.8-1.5-1-2.1-2-3.8-4.4-.2-.3-3.2-4.4-6.3-8,0,0-1.9-2.1-3.8-3.3-1-.6-1.9-1-1.9-1-.6-.2-.8-.3-1.4-.6-1-.4-1.6-.8-1.9-.9-1.4-.8-7.5-3.6-11.3-5.2-10.7-4.7-21.5-7.8-21.5-7.8-4.9-1.4-9.7-3-14.6-4.4-5.7-1.6-8.1-2.2-9.9-4.5-2.8-3.7-2.1-8.7-1.5-10.9,.9-3.7,2.9-7,4.8-10.2C-26.2,1.7-24.3-.9-21.8-1.3c0,0,3.6-.5,9.1,3.6,.4,.3,1,.7,1,.7,.3,.2,.5,.4,.6,.4,1.3,.9,14.1,9.8,14.1,9.8,5.4,3.8,5.2,3.8,10.4,7.4,1.9,1.3,3.9,2.6,6.7,4.4,8.1,5.1,13.3,7.4,15.8,8.4,2.6,1.1,4.5,1.7,6.8,2.2,1.8,.4,2.1,.2,6.2,.6,.7,.1,3.5,.4,9.1,1.1,2.3,.3,4.7,.7,7,.9,.3,0,1.5,.1,3,.4,1.4,.2,2.3,.4,3.4,.8,.4,.2,.3,.2,2.6,1.3,2.1,1,2.2,1.1,2.5,1.4,.9,.7,.7,.9,1.9,2.1,.9,.8,1.3,1,1.4,1.5,.1,.6-.5,1.2-1,1.6"/>
      <path class="cls-2" d="M65.4,43.4c.7,.3,1.8,.7,3.1,1,1.6,.4,1.9,.2,3.8,.7,1.6,.4,2.7,.8,3.6,1.1,1.1,.4,1.6,.6,2.2,.9,.9,.5,1.1,.7,2.2,1.4l1.8,.9c1.6,.8,1.8,.9,2.1,1,.7,.3,.4,.3,1.6,.9,1.1,.6,1.4,.8,1.8,1.2,.2,.2,.1,.2,.7,.8,.8,1,.9,1,.9,1.3,.1,.8-.9,1.4-1,1.5-.7,.4-1.3,.4-1.6,.4"/>
      <path class="cls-4" d="M70,102c-1.6,3.4-12.9,28.8,.9,54.9,13.7,25.8,40.4,30.9,44.3,31.5,2.7,.5,31.8,5,52.1-14.9,15.4-15.1,17.3-35.8,18-43.9,.3-3,.6-6.6,.2-11.2-1.5-17.7-12.2-41.4-34.8-50.6-18.8-7.7-36.4-1.3-43,1-5.8,2.2-27,10.2-37.7,33.2h0Z"/>
      <path class="cls-8" d="M86.1,212.5c-.6,3.2,.3,6.8,2.6,9.2,2.2,2.4,5.8,3.6,9,3s6.1-3,7.2-6.1c1.3-3.8-.1-8-2.1-11.5-.8-1.4-1.7-2.7-3-3.5-1.6-.9-3.5-.9-5.2-.4s-3.8,1.4-4.8,2.9c-1.3,2.1-2.4,4.3-3.7,6.4h0Z"/>
      <path class="cls-6" d="M116.9,25c-7.3,0-13,7.1-12.5,14.1,.4,6,5.4,11.5,11.5,12,7.5,.5,14.2-7,13.4-14.5-.6-6.1-5.9-11.6-12.4-11.6Z"/>
      <path class="cls-8" d="M107,36.8c-.6,3.2,.3,6.8,2.6,9.2,2.2,2.4,5.8,3.6,9,3,4.2-.8,6.2-4.5,7.2-6.1,.7-1.2,2.2-4,1.6-7.2-.4-2-1.6-3.9-1.9-4.2-.3-.5-.7-1-1.2-1.5-1.3-1.3-2.8-1.8-3.6-2.1-.9-.3-2.9-1-5.2-.4-.5,.1-.7,.2-4.3,2.6-2.6,1.7-3.1,2-3.5,2.7-.9,1.4-.8,3-.7,4h0Z"/>
    </g>
  </g>
</svg>