<?xml version="1.0" encoding="UTF-8"?>
<svg id="Ebene_2" data-name="Ebene 2" xmlns="http://www.w3.org/2000/svg" viewBox="0 0 188.47 96.86">
  <defs>
    <style>
      .cls-1 {
        fill: #cef2c7;
      }
    </style>
  </defs>
  <path class="cls-1" d="M94.19,51.4c5.81,1.06,11.15,2,16.48,3.03,3.92,.76,7.82,1.66,11.74,2.45,.76,.15,1.58,.15,2.36,.05,3.71-.44,7.41-.94,11.11-1.4,3.29-.41,6.68,.31,9.62-2.49,1.28-1.22,4.08-1.16,6.18-1.15,5.49,.02,10.97,.27,16.45,.58,1.08,.06,2.11,.77,3.17,1.18-.83,.86-1.66,1.72-2.48,2.58-.25,.26-.46,.56-.9,1.08,5.51,.86,10.78,1.54,15.97,2.59,1.63,.33,3.06,1.66,4.58,2.54-1.52,.99-2.92,2.4-4.58,2.88-3.93,1.14-7.99,1.84-12.24,2.77,1.07,1.84,1.83,3.16,2.96,5.08-15.81,4.05-30.81,2.59-45.65-1.6-4.08,3.39-9.33,2.67-14.08,3.68-1.02,.22-2.21,.16-3.2-.15-7.91-2.54-15.94-.6-23.9-.92-8.08-.32-16.11-1.76-24.17-2.59-.91-.09-2.02,.35-2.84,.86-6.61,4.06-13.15,8.24-19.77,12.29-1.7,1.04-3.56,1.88-5.43,2.58-8.4,3.14-16.76,6.38-25.28,9.16-2.4,.78-5.27,.1-7.92,.09,.62-2.63,.77-5.49,1.95-7.84,4.57-9.16,11.95-15.62,20.79-20.52,.68-.38,1.31-.83,2.5-1.58-3.97-1.41-7.4-2.65-10.85-3.87-4.76-1.68-9.55-3.26-14.26-5.06-.99-.38-1.67-1.55-2.5-2.36,.96-.79,1.79-1.87,2.89-2.33,11-4.58,22.58-5.32,34.32-5.12,5.46,.09,11.13,.55,16.32-.71,4.36-1.06,9.65-1.79,12.15-6.93,.52-1.07,2.15-1.63,3.31-2.35,3.75-2.31,7.69-4.34,11.23-6.93,4.07-2.98,8.4-4.65,13.42-4.58,2.52,.03,4.09-.67,4.79-3.58,.5-2.07,2.1-4.09,3.72-5.58,.7-.64,2.69,.13,4.1,1.23,5.48-3.74,10.89-7.59,16.5-11.13,1.42-.9,3.52-.66,5.21-1.22,1.96-.65,3.85-1.52,5.7-2.45,2.15-1.08,4.16-2.47,6.36-3.44,.92-.41,2.15-.12,3.25-.14-.07,1.21,.11,2.51-.27,3.61-.38,1.07-1.34,1.93-2.24,3.16,2.69-.19,5.02-.56,7.31-.42,.86,.05,1.65,1.26,2.46,1.94-2.92,2.75-1.44,8.25-6.4,9.88-2.09,.69-3.86,2.33-5.8,3.56,1.33,2.11,2,3.16,3.17,5.02-5.33,1.08-10.09,2.13-14.88,3-7.59,1.37-15.21,2.57-22.78,4.01-.92,.18-1.93,1.32-2.39,2.26-2.1,4.25-4.02,8.6-6.02,12.9-.26,.57-.58,1.11-1.24,2.38v.02ZM28.48,87.46c10.06-3.35,18.55-8.3,26.22-14.66,1.26-1.05,2.53-2.73,2.71-4.25,.14-1.21-1.36-2.61-2.14-3.93,.26-.26,.53-.52,.79-.78,1.63,1.69,3.27,3.38,5.13,5.3,2.08-1.53,4.71-3.6,7.46-5.47,5.65-3.85,6-6.14,1.49-10.78,1.54-.22,3.8,1.3,6.79,4.56,1.03-.59,2.07-1.19,3.11-1.78,1.16-.67,2.32-1.35,3.49-2,3.63-2.01,4.89-5.33,3.58-9.34-.24-.75-.3-1.56-.45-2.34,.34-.12,.67-.25,1.01-.37,1.09,2.16,2.17,4.31,3.62,7.19,2.09-3.1,4.21-5.95,5.99-8.99,1.85-3.15-2.26-9.68-5.99-9.53-6.31,.25-11.39,2.97-15.01,7.8,1.76,2.21,3.34,4.2,4.92,6.18-4.12-3.03-10.07-3.3-13.87-.3-1.73,1.36-3.87,2.22-5.86,3.24-1.43,.74-2.92,1.37-4.6,2.15,2.07,1.69,3.59,2.93,5.1,4.17-.19,.28-.37,.57-.56,.85-.82-.31-1.65-.6-2.47-.92-3.07-1.18-11.21,1.63-12.95,4.26-1.06,1.61-2.38,3.13-3.87,4.35-2.01,1.66-4.29,2.99-6.45,4.46,.14,.33,.28,.65,.42,.98,3.99-1.29,7.98-2.58,11.97-3.86-5.57,5.32-12.07,6.89-17.68,5.8-4.48,3.53-7.6,7.21-11.57,8.83-6.29,2.57-8.93,8.19-12.91,12.71-.76,.87-.86,2.31-1.26,3.49,.28,.32,.55,.63,.83,.95,5.18-2.03,10.4-3.94,15.5-6.16,1.59-.69,2.83-2.2,4.23-3.33-1.31-.87-2.64-1.73-3.93-2.62-.14-.1-.12-.45-.22-.91,3.85-.65,6.42,.61,7.42,5.07v-.02ZM100.58,54.24c-3.99-.19-7.78-1.52-10.29-.28-7.61,3.79-14.72,8.57-21.89,12.89,1.7,4.94,9.17,6.87,15.76,5.03,.94-3.83,1.81-7.38,2.68-10.93,.52,.14,1.04,.29,1.56,.43-.5,1.46-1.02,2.91-1.51,4.38-1.62,4.84-.9,5.9,3.99,5.92,1.61,0,3.21,.07,4.82,.09,2.43,.02,4.13-.62,4.01-3.62-.05-1.22,.67-2.46,1.04-3.69,.23,4.18,2.37,6.78,6.41,7.79,.91,.23,1.78,.75,2.68,.79,2.13,.1,4.27,0,7.71-.04-4.76-5.3-5.08-10.26-2.77-15.77-6.86-.85-13.52-4.61-18.35,3.18,1.1-1.64,2.2-3.27,4.15-6.17h0ZM3.86,56.54c5.82,1.97,11.52,4.74,17.5,5.62,4.1,.61,8.48,.17,12.72,.97,.76,.14,1.85-.51,2.52-1.09,4.39-3.81,8.72-7.71,13.93-12.36-7.16,.35-13.26-.06-19.05,1.11-7.61,1.54-8.82,3.54-8.45,9.92-3.33-3.54-3.21-6.55,.45-10.21-7.41,1.22-13.87,1.65-19.62,6.04ZM134.87,7.45c-3.6,.22-5.88,5.06-10.04,1.99-.1-.07-.48,.18-.7,.32-5.75,3.77-11.48,7.59-17.28,11.3-1.16,.74-2.62,.99-3.86,1.63-.86,.44-1.86,1.01-2.25,1.79-.25,.49,.45,2.09,.86,2.14,.89,.11,1.99-.25,2.79-.77,1.15-.74,1.95-2.23,3.16-2.62,3.26-1.05,6.74-1.44,9.98-2.54,7.24-2.46,12.59-7.52,17.35-13.25h-.01Zm6.21,9.02l-.57-.99c-1.14,.53-2.24,1.19-3.43,1.57-6.14,1.97-11.32,6.44-18.32,6.29-5.79-.13-9.77,4.25-14.26,7.4,9.66-1.62,19.31-3.24,29.06-4.88-.97-1.26-1.71-2.23-2.24-2.93,3.54-2.35,6.65-4.41,9.75-6.47h.01Zm35.33,48.32c0-.37,.02-.74,.02-1.11-1.62-.3-3.24-.56-4.85-.91-2.34-.52-5.54-.33-6.82-1.81-3.87-4.47-6.31-.59-9.29,.72,2.05,.69,4.17,.79,6.13,1.42,1.1,.35,1.93,1.57,2.88,2.39-.87,.88-1.59,2.11-2.65,2.56-1.87,.8-3.95,1.14-6.39,1.79,5.47,3.54,11.78,4.03,17.16,1.22-2.73-1.12-4.93-2.02-7.13-2.92-.04-.33-.08-.66-.12-1,3.68-.79,7.37-1.58,11.05-2.36h0Zm-12.59-9.73c-5.79-2.33-15.8,.86-16.97,5.15,4.84,.88,10.3-.74,16.97-5.15Zm-12.08,11.8c-9.43-.42-18.07-.8-26.7-1.19l-.06,1.14c8.56,.78,16.89,5.44,26.77,.04h-.01Zm-19.44-50.87c5.98-1.4,13.17-5.38,13.64-7.39-8.35,1.04-9.58,1.68-13.64,7.39Zm-7.44,47.75c7.4,.15,14.8,.3,22.19,.46-6.31-2.43-19.75-2.9-22.19-.46Zm-4.5-2.33l-.99-.33c-.62,1.18-1.95,2.56-1.68,3.48,.34,1.19,1.95,2.02,3.01,3.01,.24-.17,.47-.34,.71-.51-.35-1.88-.7-3.77-1.04-5.65h-.01Zm30.26,11.44c0-.13,.02-.27,.03-.4-5.41-.51-10.81-1.01-16.22-1.52,0,.13-.02,.27-.03,.4,5.41,.51,10.81,1.01,16.22,1.52Z"/>
</svg>