<?xml version="1.0" encoding="UTF-8"?><svg id="Ebene_2" xmlns="http://www.w3.org/2000/svg" viewBox="0 0 333.44 315.29"><defs><style>.cls-1{fill:#ffda44;}.cls-2,.cls-3{stroke-miterlimit:10;}.cls-2,.cls-4{fill:none;stroke:#353535;stroke-width:2px;}.cls-5{fill:#fff;}.cls-3{fill:#c4654c;stroke:#ab2300;stroke-width:1.5px;}.cls-6{fill:#b2b2b2;}.cls-4{stroke-linejoin:round;}.cls-7{fill:#4d4d4d;}.cls-8{fill:#ffb758;}.cls-9{fill:#333;}.cls-10{fill:#e5e5e5;}</style></defs><path class="cls-5" d="m13.15,259.26c3.09,5.98,6.81,11.73,11.25,17.19,14.1,17.33,33.9,29.8,55.45,35.55,24.94,6.66,51.01,1.74,76.08-1.91,30.11-4.38,60.56-7.63,90.44-11.83,26-3.65,50.49-17.69,66.43-38.59,24.16-31.69,24.79-76.7,13.74-113.55-10.43-34.78-33.1-66.18-57.01-93.04-6.31-7.09-11.56-15.13-18.08-22.14-9.8-10.55-21.56-19.93-35.31-24.98C200.46.2,182.25-.85,165.75.56c-10.5.9-22.01,2.45-31.81,6.31-9.95,3.92-19.2,9.38-28.38,14.8-15.19,8.96-29.19,19.92-41.62,32.43C15.8,102.59-20.61,193.8,13.15,259.26Z"/><path class="cls-5" d="m111.55,241.47c2.05-9.68,9.45-18.05,18.8-21.28,4.65-1.61,9.84-2.09,13.75-5.07,3.49-2.65,5.38-6.87,6.81-11.02,4.16-12.07,5.52-25.09,3.95-37.75-.1-.79-1.2-3.72-.22-7.02.76-2.56,2.71-5.43,4.23-5.18,1.9.31,1.24,5.22,5.45,9.78.24.26.89.89,2.25,2.07,2.1,1.82,4.32,3.53,6.31,5.47,2.77,2.7,9.8,11.7,12.45,24.73,3.12,15.3-1.34,26.92,1.95,27.99,1.73.56,4.54-2.16,5.11-2.72,1.94-1.88,2.34-3.63,3.32-5.5,2.03-3.85,6.43-8,8.83-7.56,4.66.86,8.89,20.28,2.55,37.24-6.2,16.57-20.14,24.48-23.69,26.35-12.94,6.83-25.1,5.83-39.91,4.61-4.72-.39-9.52-1.22-14.7-3.41-2.75-1.16-6.58-2.78-9.87-5.86-6.52-6.11-9.35-16.57-7.38-25.88Z"/><path class="cls-3" d="m99.85,283.66c-20.16-10.45-28.01-31.43-32.07-42.27-11.88-31.73-3.07-59.73-.55-67.34,8.8-26.57,28.07-48.31,34.57-45.58,4.79,2.01-.08,16.14,7.92,21.48,5.96,3.98,17.58,1.97,20.17-4.44,1.79-4.43.54-9.58-1.73-13.78-2.28-4.2-5.51-7.79-8.05-11.83-7.97-12.67-6.03-32.97,1.14-46.18,5.56-10.25,15.91-20.13,20.89-17.94,4.28,1.88.9,11.02,7.75,18.81,3.55,4.03,10.1,8,16.37,6.35,7.05-1.85,11.31-10.14,11.79-16.94.69-9.85-6.88-12.2-10.07-25.68-2.93-12.42-.06-25.45,3.26-26,2.46-.41,3.55,6.29,10.59,14.47,7.7,8.95,12.87,8.48,19.34,14.68,12.72,12.18,12.06,32.51,11.96,34.53-.75,16.43-10.01,19.2-12.43,42.09-1.54,14.57,1.67,18.47,3.56,20.07,4.28,3.62,11.72,3.81,16.23.39,4.93-3.75,5.02-10.82,5.09-16.91.11-9.2-2.82-13.51-1.44-14.47,2.7-1.86,18.31,11.32,27.33,29.53,2.46,4.96,8.67,18.89,8.01,45.64-.53,21.42-1.77,71.82-35.59,94.31-7.17,4.77-19.75,10.9-34.82,13.3-5.45.87-13.5,1.09-29.62,1.53-13.21.36-19.81.55-24.85.17-8.54-.64-22.54-1.68-34.76-8.01Z"/><path class="cls-8" d="m108.56,280.44c-5.03-2.11-14.5-6.22-22.45-15.66-9.77-11.6-11.38-24.33-12.43-32.19-2.56-19.3,3.24-33.88,5.8-40.08,4.03-9.77,12.32-24.53,17.63-23.26,4.89,1.17,2.26,14.73,13.04,23.94,3.14,2.69,7.97,5.47,9.91,4.03,1.88-1.4.73-6.52-.22-10.76-.68-3.05-1.47-5.1-1.83-6.15,0,0-2.83-8.19-1.05-17.5,1.99-10.41,12.89-9.12,19.48-19.44,9.64-15.11-5.68-30.51,5.23-51.55,2.9-5.59,7-10.33,9.3-9.61,2.57.8.82,7.79,5.25,11.78,4.2,3.78,11.13,2.31,11.98,2.11,10.64-2.42,15.75-15.96,18.69-23.7,6.29-16.56,4.65-28.35,6.87-28.51,2.22-.16,6.65,11.38,5.83,24.12-.66,10.15-3.72,11.57-8.41,26.84-3.28,10.67-4.28,21.94-3.97,33.1.19,6.79,1.12,14.19,5.95,18.97,6.78,6.72,18.55,3.77,20.44,3.34,13-2.92,17.92-13.14,21.7-11.17,3.69,1.92-1.1,11.62,2.13,26.43,1.9,8.71,4.54,9.88,7.54,18.31,4.83,13.59,3.28,25.51,1.72,37.54-2.02,15.56-3.66,28.18-12.98,40.49-1.81,2.39-14.99,19.6-36.83,23.76-4.51.86-1.95-.25-25.32-.17-21.26.08-24.14,1.49-36.76.37-9.8-.87-17.17-1.58-26.22-5.38Z"/><path class="cls-1" d="m174.37,281.72c9.35-1.1,18.4-2.16,28.17-8.33,3.28-2.07,11.58-8.11,17.84-19.21,5.04-8.94,8.22-20.11,3.75-29.35-2.32-4.79-6.48-8.54-8.63-13.41-2.79-6.32-.62-9.99.46-24.47,1.11-14.86,1.6-22.33-1.69-24.15-4.66-2.58-10.61,8.2-22.02,7.49-9.18-.57-15.36-8.17-16.38-9.42-4.8-5.9-5.56-12.27-6.25-18.75-1.82-17.1,3.69-26.45,1.3-27.7-3.36-1.75-18.31,14.53-26.46,35.57-2.64,6.8-6.56,16.93-7.13,30.73-.67,16.38,3.95,24.64-2.06,31.61-4.05,4.71-11.75,7.43-15.44,5.06-.78-.5-1.15-1.07-3.23-5.65-4.24-9.32-4.36-10.56-5.66-10.99-3.58-1.2-9.78,5.76-12.87,12.32-2.42,5.15-2.73,9.65-2.94,13.28-.26,4.42-.76,15.4,5.59,27.3,1.72,3.22,6.14,10.64,14.7,16.76,8.03,5.75,15.38,7.25,25.88,9.41,6.89,1.41,18.27,3.65,33.08,1.91Z"/><path class="cls-5" d="m103.12,165.37c4.19-3.98,10.01-4.59,12.86-4.86,21.19-1.97,39.81-2.07,51.6-2.74,4.77-.27,31.72-1.97,44.94,1.38,2.17.55,5.1,1.32,6.49,3.72.37.63.72,1.52.98,4.68.25,3.05.37,4.57.1,7.37-.62,6.36,1.12,22.18,2.13,49.22,1.29,34.62-.88,27.06-.03,31.32.47,2.37,2.06,9.8-1.8,15.74-.44.68-.88,1.14-1.22,1.54-6.33,7.44-17.65,1.94-44.23,2.98-8.06.31-50.94,2.53-63.43.65-1.16-.18-3.45-.6-5.49-2.16-3.56-2.72-4.11-7.47-4.32-9.38-1.39-12.25-.68-33.57-.99-43.61-.43-14.11-3.45-24.55-2.5-42.55.15-2.88.46-9.08,4.9-13.29Z"/><path class="cls-6" d="m106.71,168.61c3.96-3.81,9.45-4.4,12.15-4.65,20.01-1.88,37.6-1.97,48.73-2.61,4.5-.26,29.96-1.88,42.44,1.33,3.2.82,5.2,1.9,6.13,3.57.54.97.61,2.08.71,4.27.22,4.66.32,6.99.31,7.28-.13,4.42-.61,30.23.58,48.32.63,9.61.62,19.26,1.43,28.86,1.07,12.7-1.6,15.08-2.84,16.56-5.98,7.12-16.67,1.85-41.77,2.84-7.61.3-48.11,2.41-59.91.6-1.1-.17-3.25-.57-5.18-2.07-3.48-2.7-3.96-7.17-4.09-8.99-.92-13.07-1.51-37.6-1.7-42.76-.36-9.91-2-22.98-1.62-39.81.06-2.68.28-8.56,4.62-12.74Z"/><path class="cls-7" d="m129.66,174.6c-1.48-1.52-3.02-3.08-4.99-3.86-1.97-.78-4.51-.56-5.84,1.09-1.41,1.75-.91,4.55.73,6.09,1.54,1.45,3.94,1.92,5.91,1.15,1.97-.77,3.42-2.74,3.58-4.85"/><path class="cls-7" d="m151.92,171.61c-.55-2.1-2.63-3.73-4.8-3.63-2.17.1-4.12,2.04-4.13,4.21,0,3.01,3.58,5.1,6.5,4.37,2.59-.65,4.69-3.76,3.3-6.04"/><path class="cls-7" d="m169.95,168.82c-1.82.58-2.51,4.27-1.46,6.54,1.05,2.27,3.22,3.02,5.03,2.39,1.2-.41,2.41-1.56,2.59-3.32.2-1.89-.92-3.69-2.19-4.3-1.27-.6-2.65-.32-3.96-.02"/><path class="cls-7" d="m198.07,168.29c-2.1-.44-4.49.29-5.76,1.76-1.27,1.46-1.32,3.56-.14,5.05,1.77,1.37,4.86,1.34,6.63-.05,1.77-1.39,1.95-3.94.38-5.47"/><path class="cls-10" d="m126.11,205.85c-.82,1.1-.87,3.32-.87,3.51-.01.96-.03,2.19.73,3.1.93,1.1,2.56,1.15,3.35,1.17,8.15.14,12.22.21,12.52.18,3.87-.35,7.77-.05,11.66-.15,17.41-.41,42.44-.14,42.78-3.2.04-.34-.25-.6-.46-2-.29-1.91.04-2.74-.1-3.27-.69-2.6-13.67-1.52-19.97-1.07-11.03.78-9,.15-20.36,1.01-13.43,1.02-13.11,1.66-16.94,1.12-5.27-.75-10.65-2.64-12.33-.39Z"/><path class="cls-2" d="m99.22,183.29c-.02-.37-.04-.74-.06-1.11-.25-4.72-1.04-11.83,2.24-15.7,4.27-5.03,11.12-4.54,17.05-4.72,7.42-.22,14.83-.45,22.25-.67,7.6-.23,15.22-.3,22.82-.65,7.45-.34,8.1-.37,20.12-.9,25.93-1.15,31.42-1.07,34.07,2.78,1.01,1.48.8,2.33,1.01,11.34.16,6.71.71,13.4.87,20.1.31,13.11.46,19.66.9,26.9.22,3.56,1.3,20.44,1.6,39.76.07,4.42.08,8.61-2.76,11.83-4.27,4.85-12.04,4.18-18.88,3.82-5.28-.27-15.96.03-37.34.62-26.85.75-40.28,1.12-41.68,1.28-3.93.45-10.74,1.34-14.7-2.66-1.97-1.99-3.09-4.66-3.5-13.1-.28-5.79-.57-11.59-.85-17.38-1.72-20.43-2.09-41.07-3.16-61.55Z"/><path class="cls-2" d="m119.34,177.85c.48.81,1.16,1.54,2.05,1.85,1.17.41,2.45.04,3.62-.37.96-.34,1.94-.71,2.75-1.33,3.72-2.87-.85-7.3-4.09-8-4.46-.96-6.29,4.56-4.32,7.85Z"/><path class="cls-2" d="m143.98,177.44c1.13,1.56,3.44,1.94,5.2,1.18,3.72-1.6,6.1-8.47.87-9.74-4.14-1-8.66,4.98-6.07,8.56Z"/><path class="cls-2" d="m167.41,173.05c-.45,1.57-.1,3.39,1.04,4.56,1.52,1.56,4.21,1.64,6,.4,1.79-1.24,2.66-3.57,2.44-5.74-.11-1.09-.53-2.23-1.45-2.83-3.02-1.96-7.16.57-8.03,3.61Z"/><path class="cls-2" d="m192.83,178.05c.96.39,2.03.48,3.05.32,1.3-.21,2.54-.83,3.43-1.81,3.09-3.42,1-8.91-3.77-8.37-4.95.56-6.2,6.65-2.71,9.86Z"/><path class="cls-4" d="m120.5,262.47c12.32-.19,24.68-.4,37.08-.63,15.87-.3,31.68-.64,47.41-1.02-.84-21.67-1.68-43.33-2.52-65-12.18.29-24.99.6-37.17.91-15.59.39-31.18.78-46.76,1.19.38,9.52.73,19.11,1.03,28.76.38,12.03.68,23.96.92,35.79Z"/><path class="cls-2" d="m98.97,186.75c39.99-.9,79.99-1.8,119.98-2.71"/><path class="cls-2" d="m194.36,204.13c.09,1.79.2,4.08.29,5.87-19.19,1.19-38.02,1.89-57.06,2.1-2.35.03-4.7.04-7.05.05-1.58,0-3.31.28-3.96-.32-.51-.48-.29-1.73-.18-2.83.14-1.28.27-2.28.34-2.79.06-.44,3.39-.36,4.02-.37,13.79-.23,25.87-.48,38.09-.82,6.3-.17,13.78-.64,25.5-.89Z"/><path class="cls-7" d="m280.62,135.68c-3.98,3.48-8.78,3.36-10.08,3.31-4.13-.16-7.07-1.97-8.29-2.81-.13.42-.37,1.14-.84,1.95-.75,1.32-1.67,2.11-2.15,2.52-6.08,5.21-11.51,6.76-11.51,6.76-7.02,2.01-12.75.36-18.78-1.38-5.7-1.64-9.91-2.79-11.84-6.74-1.16-2.38-1.52-5.14-1.02-7.74-4.43,1.3-9.01-.94-10.56-4.83-1.31-3.29-.26-7.25,2.68-9.69-.29-.95-3.12-10.96,3.26-18.66.83-1,6.26-7.56,14.16-6.53,4.89.63,8.02,3.82,9.05,4.97,2-.48,5.92-1.1,10.43.26,8.22,2.48,11.85,9.59,12.52,10.96,2.46-.51,10.21-1.78,17.74,2.61,2.61,1.52,8.45,4.93,9.65,11.74.06.35,1.32,8.27-4.43,13.3Z"/><path class="cls-9" d="m279.83,134.89c-4.81,4.06-11.97,3.8-17.01.33-.62-.43-1.45.03-1.65.67-1.19,3.79-5.26,6.21-8.52,8.08-1.64.94-3.38,1.82-5.2,2.37-4.5,1.36-9.19.96-13.69-.14-3.74-.92-7.76-1.85-11.26-3.48-1.6-.75-3.09-1.76-4.02-3.3-1.35-2.22-1.72-5.01-1.27-7.55.14-.82-.5-1.62-1.38-1.38-3.28.89-6.99-.23-8.77-3.26-1.88-3.2-.69-7.07,1.98-9.39.29-.25.4-.73.29-1.09-1.52-5.08-1.11-11.08,1.64-15.66s8.14-8.51,13.76-8.2c3.59.2,6.83,2.1,9.2,4.73.27.3.71.38,1.09.29,8.95-2.08,17.71,2.59,21.69,10.7.23.47.81.61,1.27.52,6.52-1.34,13.02-.05,18.6,3.55,2.57,1.66,4.88,3.77,6.27,6.54.38.76.67,1.56.89,2.38.1.37.18.75.25,1.13.02.12.03.19,0,0,.11.81.13,1.63.1,2.45-.11,3.71-1.47,7.22-4.26,9.73-1.08.97.52,2.56,1.59,1.59,4.4-3.96,6.14-10.93,4.16-16.54-2.42-6.88-10.01-11.63-16.88-13.04-3.74-.77-7.6-.71-11.33.06l1.27.52c-1.65-3.36-4.17-6.32-7.19-8.51-4.9-3.56-11.18-4.59-17.04-3.23l1.09.29c-2.2-2.44-5.13-4.33-8.36-5.05-3.92-.87-7.92,0-11.3,2.1-5.7,3.55-9.2,9.55-9.57,16.26-.15,2.66.11,5.45.88,8.01l.29-1.09c-3.42,2.97-4.7,8.09-2.33,12.11s7.06,5.44,11.31,4.29l-1.38-1.38c-.75,4.27.29,9.12,3.85,11.88,3.27,2.53,7.74,3.42,11.64,4.51,4.83,1.36,9.72,2.28,14.73,1.48,2.68-.43,5.11-1.39,7.5-2.66s4.52-2.73,6.57-4.4c1.87-1.52,3.29-3.25,4.02-5.59l-1.65.67c5.92,4.09,14.18,4.02,19.73-.68,1.11-.94-.49-2.52-1.59-1.59Z"/><path class="cls-7" d="m156.16,77.18c-.18,12.3-11.93,23.1-23.86,24.09-5.38.45-9.77-1.19-12.16-2.3-.19,1.22-.81,4.23-3.3,6.86-3.29,3.48-7.76,3.68-10.57,3.83-7.88.42-13.9-3.48-16.33-5.28-.69,1.59-1.81,3.79-3.56,6.13-2.36,3.14-5.7,7.12-10.92,8.85-6.9,2.28-14.03-1.35-17.92-7.11-2.1-3.1-3.15-6.9-2.96-10.64-1.1,1.47-4.6,5.78-9.81,6.2-8.1.66-16.32-8.37-16.09-17.72.2-7.88,6.38-15.09,15.11-17-.38-2.29-1.96-13.38,5.29-21.99,1.54-1.83,5.11-6.07,11.02-7.02,6.68-1.07,13.79,2.48,18.5,9.05,3.82-3.37,7.51-4.62,9.53-5.13,1.91-.49,3.94-.98,6.43-.45,2.6.55,4.23,1.89,6.96,4.19,1.72,1.45,4.07,3.66,6.49,6.78,1.82-1.89,7.96-7.79,17.49-8.53,13.25-1.03,21.88,8.78,23.36,10.45,2.2,2.49,7.43,8.42,7.31,16.76Z"/><path class="cls-9" d="m155.04,77.18c-.29,12.32-12.28,22.93-24.37,23.03-3.44.03-6.85-.79-9.97-2.22-.58-.27-1.53-.11-1.65.67-.46,2.92-1.89,5.74-4.3,7.52s-5.34,2.18-8.23,2.33c-5.83.31-11.35-1.68-16.02-5.11-.45-.33-1.31-.11-1.54.4-2.41,5.49-6.64,11.23-12.21,13.83-6.21,2.9-13.11.39-17.31-4.7-2.63-3.18-3.91-7.23-3.74-11.34.05-1.22-1.48-1.38-2.1-.57-1.86,2.48-4.43,4.66-7.48,5.41-3.85.96-7.78-.79-10.59-3.39-6.1-5.65-7.62-14.82-2.68-21.69,2.69-3.74,6.79-6.19,11.24-7.2.64-.15.88-.81.79-1.38-.96-5.91-.19-12.51,2.85-17.8,3.71-6.44,10.51-11.42,18.23-9.57,4.78,1.15,8.81,4.34,11.67,8.27.45.61,1.18.74,1.77.23,2.19-1.89,4.68-3.43,7.43-4.37,2.41-.82,5.09-1.47,7.62-.88s4.73,2.51,6.73,4.24c2.23,1.93,4.23,4.09,6.04,6.41.37.47,1.21.4,1.59,0,6.2-6.42,15.35-9.76,24.18-7.62,6.57,1.59,11.98,5.78,16.24,10.89,3.46,4.15,5.84,9.12,5.81,14.61,0,1.45,2.24,1.45,2.25,0,.03-8.15-4.78-15.4-10.71-20.64-7.72-6.82-18.3-9.81-28.21-6.15-4.21,1.55-8.03,4.09-11.15,7.32h1.59c-2.04-2.61-4.32-4.96-6.85-7.09-2.33-1.96-4.68-3.82-7.78-4.3-5.82-.89-12.12,2.31-16.37,5.99l1.77.23c-5.43-7.46-15.04-12.44-24.03-8.21-7.39,3.47-11.99,11.67-13.01,19.5-.41,3.18-.34,6.39.18,9.55l.79-1.38c-8.81,2.01-16.36,9.78-15.93,19.21.4,8.61,7.95,18.63,17.39,17.71,4.41-.43,8.01-3.3,10.59-6.74l-2.1-.57c-.31,7.7,4.26,15.1,11.35,18.19,7.02,3.06,14.29.45,19.38-4.88,2.77-2.9,5.11-6.28,6.73-9.95l-1.54.4c5.23,3.85,11.45,5.8,17.95,5.37,3.26-.22,6.49-.92,9.1-3s4.28-5.19,4.8-8.45l-1.65.67c6.26,2.88,13.24,3.35,19.71.86,6.26-2.41,11.77-7,15.03-12.88,1.83-3.3,2.88-6.95,2.97-10.73.03-1.45-2.22-1.45-2.25,0Z"/></svg>