<?xml version="1.0" encoding="UTF-8"?>
<svg id="Ebene_2" data-name="Ebene 2" xmlns="http://www.w3.org/2000/svg" width="390" height="398.9" xmlns:xlink="http://www.w3.org/1999/xlink" viewBox="0 0 390 398.9">
  <defs>
    <style>
      .cls-1, .cls-2, .cls-3, .cls-4 {
        fill: none;
      }

      .cls-5, .cls-6 {
        fill: #fff;
      }

      .cls-7 {
        fill: #ffda44;
      }

      .cls-8 {
        fill: #ffe57c;
      }

      .cls-9 {
        fill: #ffb758;
      }

      .cls-10 {
        fill: #ff9811;
      }

      .cls-11 {
        fill: #e2c09f;
      }

      .cls-12 {
        fill: #c99a73;
      }

      .cls-6, .cls-2 {
        stroke-miterlimit: 10;
      }

      .cls-6, .cls-3 {
        stroke: #ff9811;
        stroke-width: 1.01px;
      }

      .cls-2, .cls-3, .cls-4 {
        stroke-linecap: round;
      }

      .cls-2, .cls-4 {
        stroke: #fff;
        stroke-width: 1.51px;
      }

      .cls-3, .cls-4 {
        stroke-linejoin: round;
      }

      .cls-13 {
        clip-path: url(#clippath);
      }
    </style>
    <clipPath id="clippath">
      <rect class="cls-1" x="-95.38" width="549.18" height="386.61"/>
    </clipPath>
  </defs>
  <g id="Group_1646" data-name="Group 1646">
    <g class="cls-13">
      <g id="Group_1645" data-name="Group 1645">
        <path id="Path_2896" data-name="Path 2896" class="cls-5" d="M149.44,22.68c-3.41,1.12-44.26,19.69-125.95,56.83-30.64,13.93-46.03,21.42-62.31,35.74-25.32,22.27-38.19,53.25-47.95,83.71-7.14,22.27-12.96,46.4-4.19,68.2,9.97,24.76,37.19,41.29,65.54,48.77,28.35,7.47,58.37,7.5,87.87,9.32,65.76,4.02,130.61,17.34,192.62,39.58,19.24,6.93,38.22,14.75,58.39,19.13,27.68,6.01,52.77,.35,61.2-2,73.16-20.45,132.18-282.5,3.24-359-81.5-48.35-210.46-6.16-228.46-.26"/>
      </g>
    </g>
  </g>
  <path class="cls-12" d="M8.34,398.89c6.1-22.16,3.99-30.86,10.04-58.55,1.31-6,3.58-15.52,7.24-27,3.77-11.83,7.9-24.79,15.58-38.14,7.95-13.82,10.33-11.76,22.65-28.97,12.23-17.08,10.27-19.64,26.51-46.88,14.04-23.55,21.78-32.14,18.74-35.9-2.97-3.67-14.59-.64-22.29,4.76-6.52,4.57-7,8.57-17.56,22.26-7.67,9.95-11.59,14.93-15.23,14.67-7.02-.49-12.82-14.63-13.7-26.71-.74-10.21,2.49-12.5,7.16-31.33,3.52-14.2,.3-7.33,5.49-42.74,1.17-7.97,2.69-17.55-2.81-22.82-1.05-1.01-2.78-2.67-4.92-2.52-2.9,.21-6.63,3.74-15.66,40.56-2.37,9.67-6.15,19.06-7.42,28.93-.92,7.13-1.46,16.68-6.46,18.54-.43,.16-1.62,.6-2.59,.07-3.25-1.81,.05-12.41,1.61-20.79,1.62-8.71,.89-17.53-.52-35.13-1.32-16.56-2.77-33-9.52-34.75-1.61-.42-4.17-.16-5.97,1.23-2.49,1.93-2.63,5.44-2.87,8.07-.77,8.64-1.16,12.97-.29,17.91,1.22,6.98,1.27,19.75-3.76,45.15-1.79-16.41-2.64-29.46-3.09-38.58-.41-8.36-.63-18.53-5.61-20.41-2.33-.88-4.8,.39-5.15,.58-7.02,3.77-5.08,18.01-4.87,44.35,.13,15.58-.38,32.77-1.83,32.87-1.45,.1-7.15-16.89-8.36-30.94-.15-1.74-.6-7.77-4.92-12.11-1.03-1.04-3.03-3.05-4.66-2.65-4.26,1.06-3.49,17.82-3.06,26.17,.52,10.17,1.85,22.63,7.59,51.26,2.07,10.3,2.14,9.91,3.95,19.22,3.88,19.9,5.82,29.86,6.12,36.68,.66,14.75-1.92,25.96-5.39,40.76-3.58,15.32-7.82,26.2-8.88,28.88-1.69,4.28-3.37,8.07-4.99,11.47-3.51,7.33-6.74,13.03-8.72,16.37-.59,.98-1.12,1.87-1.63,2.7-9.4,15.35-20.97,30.45-27.05,43.15,32.36,.03,64.71,.14,97.06,.3v.02h0Z"/>
  <path class="cls-9" d="M78.71,342.07c.61,4.91,.91,7.37,1.08,9.2,1.41,16.18-1.48,21.28-.97,39.01,.07,2.35,.21,5.2,.68,8.37,11.69,.08,23.38,.16,35.07,.24-.4-2.13-.94-4.67-1.61-7.77-4.33-20.16-4.21-18.8-4.84-22.29-2.89-15.98-4.67-25.85,.74-33.09,2.96-3.96,5.22-3.3,9.44-9.19,3.67-5.11,5.29-10.25,6.46-13.98,1.12-3.53,1.69-5.42,1.59-8.14-.16-4.06-1.7-7-3.15-9.74-1.34-2.54-2.44-4.63-3.67-4.51-1.48,.15-2.52,3.44-2.71,5.9-.21,2.83,.77,3.74,.68,6.11-.07,1.69-.68,4.12-3.32,7.03-.6-1.93-1.39-4.91-1.86-8.61-.67-5.36,.02-6.87-.06-13.87-.08-7.47-.25-15.7-4.2-17.58-.34-.17-1.01-.47-1.76-.28-2.25,.58-2.72,5.08-3.51,10.35-.49,3.3-1.3,8.1-2.61,14.04-.12-9.22-.08-13.67-.02-16.01,.02-.63,0-1.26,.01-1.89,.05-3.81,.25-5.99-.82-7.16-.32-.36-.73-.6-.73-.6,0,0-.88-.52-2-.43-2.3,.18-4.45,7.44-5.1,9.78-1,3.6-1.46,6.27-1.64,6.25-.41-.06,2.64-14.48,0-15.46-1.55-.57-4.86,3.6-6.43,7.23-.87,2.02-1.2,3.86-1.33,5.16-1.62-3.16-2.73-3.79-3.46-3.7-3.86,.49-6.05,22.2-3.47,41.12,.66,4.87,1.87,11.25,3.52,24.52h0Z"/>
  <path class="cls-11" d="M158.47,289.78c5.91,18.33,7.31,22.93,6.97,30.55-.41,9-2.71,10.27-7.53,27.14-5.35,18.7-6.28,30.24-7.5,45.36-.15,1.88-.28,3.78-.34,5.68,18.42,.13,36.84,.26,55.25,.38,.04-.17,.07-.33,.1-.5,5.99-30.41,1.65-66.56,.67-74.12-.4-3.09-1.39-10.31,1.43-18.58,2.46-7.22,6.56-11.49,8.6-13.94,10.91-13.04,8.59-34.52,7.47-77.6-.11-4.05-.67-10.63-4.63-12.48-3.12-1.45-7.78,.32-10.16,3.28-1.91,2.37-1.59,4.55-1.85,13.36-.38,12.73-1.24,15.06-1.83,16.37-2.23,4.98-7.09,10.16-10.29,9.27-2.1-.59-3.54-3.8-4.43-14.61-.94-11.56,.31-36.18,.5-58.5,.03-3.35,.02-6.87-1.6-9.81s-5.42-4.96-8.41-3.45c-2.87,1.45-3.64,5.84-3.98,8.41-2.09,15.86-3.83,41.17-4.16,46.06-7.75-21.67-12-35.3-12.96-41.73-.17-1.12-.97-4.49-3.5-6.94-1.89-1.82-5.17-2.47-7.09-.7-1.88,1.74-1.62,4.73-1.21,7.26,.79,4.83,1.5,11.67,3.28,20.12-.37-1.07-1.65-4.24-4.99-6.23-2.44-1.45-6.74-2.71-8.19-1.05-.94,1.07-.39,3,3.6,12.5,3.56,8.49,4.86,11.06,3.64,12.67-1.63,2.14-5.7-.1-7.81,2.01-3.06,3.05,1.2,11.94,1.96,13.56,9.83,20.76,11.94,44.37,18.99,66.23v.02h0Z"/>
  <path class="cls-7" d="M242.36,314.96c1.33,3.83,1.7,5.62,3.65,7.48,2.4,2.3,4.6,2.21,8.25,3.88-3.03-2.63,6.33,4.98,9.01,7.96,5.81,6.44,6.39,14.92,6.68,19.16,.11,1.63,.11,2.98,0,4.26-.67,8.13-2.63,14.06-3.33,16.01-1.72,4.82-3.44,12.53-3.22,25.01,13.64,.06,27.27,.12,40.91,.17-.06-4.5-.09-10.43-.01-17.38,.17-15.13,.51-17.79,1.8-44.97,.36-7.67,.79-15.24,2.03-25.02,.98-7.76,1.47-11.64,2.48-15.78,1.51-6.22,5.05-17.77,10.8-30.83,1.72-3.9,4.33-9.54,2.17-11.83-1.06-1.12-2.8-.96-2.87-.96-3.21,.33-4.92,4.99-7.1,9.86-.76,1.7-8.38,18.74-11.3,18.11-.52-.11-1.32-.87-1.65-7.52-.57-11.51,1.32-19.98,.72-32.17-.17-3.52-.56-7.39-2.65-8.17-1.76-.66-3.89,1.15-4.12,1.35-2.52,2.2-2.56,5.66-2.77,10.93-.19,4.77-.5,10.22-.78,13.47-.54,6.28-1.98,15.85-3.73,15.87-.35,0-.64-.38-.81-.66-.38-15.64-.63-27.62-.63-36.19,0-2.62,.02-8.95-2.38-9.68-.33-.1-1.17-.24-2.71,.96-3.74,2.91-4.42,8.1-5.04,13.79-1.19,10.84-1.79,16.25-1.66,19.07,.42,9.31,2.51,15.97,.39,16.91-.82,.36-1.85-.32-2.04-.45-2.22-1.47-1.74-5.41-1.68-9.7,.03-1.88-.13,3.1-.9-12.01-.69-13.37-.56-17.26-3.1-18.6l-4.16-.02c-5.12,1.05-4.52,24.08-4.52,24.08,.33,12.89,1.76,15.26,1.58,25.93,0,0,0,.37-.02,.75-.18,8.13-.37,16.95-2.81,17.69-1.94,.59-3.56-4.48-11.06-11.77-3.96-3.85-9.7-9.31-14.25-7.78-.25,.09-2.33,.82-2.89,2.58-.86,2.7,2.86,4.73,6.57,10.15,3.2,4.68,5,9.88,7.16,16.07h0Z"/>
  <path class="cls-8" d="M328.55,223.7c5.12,15.53,11.81,16.74,17.45,35.06,1.79,5.82,2.61,10.53,3.09,13.38,2.19,12.96,1.55,22.6,1.1,31.03-1.43,26.94,.32,19.62-1.42,50.87-1.66,29.67-2.64,25.47-2.41,34.9,.08,3.27,.17,6.59,.3,9.92,19.65,.05,39.3,.05,58.95-.03,7.04-.03,14.08-.07,21.12-.12-4.6-25.58-20.28-58.44-23.47-104.08-1.35-19.37,.17-32.14,.84-37.07,1.22-8.87,4.22-20.13,10.17-42.3,3.95-14.71,8.15-29.5,5.58-45.44-.54-3.33-2.04-12.66-5.97-13.26-1.49-.23-2.94,.87-4,1.95-.45-3.8-1.15-9.24-2.17-15.77-1.84-11.75-2.85-15.02-5.17-15.77-.97-.31-3.18-.53-7.22,3.26-.02-1.67,0-4.14,.17-7.12,.36-6.52,1.01-8.36-.31-10.35-1.39-2.09-4.32-3.37-6.81-2.92-4.16,.74-6.04,6.11-7.16,9.32-1.41,4.04-1.18,6.45-1.72,13.4-.39,5.12-.52,3.8-1.42,12.66-2.14,20.86-1.71,30.6-4.86,31.24-.64,.13-1.18-.17-1.52-.35-3.25-1.77-2-8.63-1.11-20.2,.61-7.81,0-4.16,.78-17.22,.61-10.1,1.1-14.35-1.31-19.51-1.12-2.4-3.21-6.85-5.71-6.78-5.52,.17-11.01,22.43-12.12,41.36-.81,13.85,.98,21.43-3.56,33.87-2.24,6.13-5.06,10.79-7.08,13.77-1.4-1.97-3.31-5.01-4.89-9.01-1.95-4.95-1.52-6.59-2.99-9.43-3.38-6.49-12.34-10.64-14.98-8.52-2.36,1.9,1.31,8.01,4.94,21.55,4.57,17.08,1.22,16.62,4.88,27.7h.01Z"/>
  <path class="cls-7" d="M386.88,276.84c-8.84,2.72-13.35,15.77-13.7,24.78-.41,10.53,4.67,20.43,11.17,26.02,3.56,3.06,7.76,5.31,11.44,8.23,3.52,2.79,6.55,6.16,10.06,8.96s7.72,5.07,12.2,5.07c5.92,.01,11.57-4.41,12.98-10.16,1.05-4.27-.06-8.74-.24-13.14-.49-11.49,5.3-22.58,4.72-34.07-.21-4.18-1.45-8.58-4.68-11.24-2.48-2.04-5.66-2.23-8.59-1.22-1.12,.39-2.11,.6-3.05,.69-3.13,.3-5.56-.38-6.43-.64-5.57-1.66-18.61-5.53-25.87-3.3h0Z"/>
  <path class="cls-3" d="M80.63,298.05c.11-2.49,.36-7.4,.87-12.32,.22-2.08,.27-3.84,.7-5.44,.38-1.43,.41-2.94,.79-4.38,.72-2.74,2.09-5.52,4.16-7.48,1.22-1.16,2.89-.57,3.63,.79,.73,1.33,.46,2.83,.24,4.26-.86,5.52-1.53,7.48-1.38,10.47,.05,1.04,.19,1.87,.28,2.38"/>
  <path class="cls-3" d="M79.35,398.63c-.2-1.98-.46-4.93-.66-8.51-1.15-20.68,1.95-23.54,1.12-37.93-.63-10.9-2.49-10.82-5.16-34.12-.77-6.71-.89-9.14-.94-10.66-.44-12.45,1.68-22.63,3.64-29.43,.22-.33,.64-.85,1.32-1.06,1.18-.36,2.69,.36,3.55,1.87-.44,4.71-.87,9.42-1.31,14.12"/>
  <path class="cls-3" d="M114.49,309.64c2.58-4.86,2.58-9.91,2.58-15.46,0-2.02,2.02-3.53,4.04-3.03,1.51,5.55,5.55,9.59,5.05,15.65-1.01,7.07-3.53,13.63-8.08,19.19-3.53,3.53-7.07,6.56-10.1,10.6-.5,1.01-1.01,2.52-1.51,3.53-2.02,5.55-1.01,11.61-.5,17.17,0,1.01,1.01,2.52,1.01,3.53,0,9.11,3.2,19.66,7.48,36.48,.19,.73,.34,1.31,.41,1.58"/>
  <path class="cls-3" d="M88.72,295.38c.09-.82,.22-2.07,.41-3.6,.3-2.39,.45-3.24,.94-6.61,.77-5.3,.66-5.1,.91-6.04,.7-2.63,1.13-2.55,1.87-5.52,.4-1.61,.47-2.4,1.17-3.55,.53-.86,1.41-2.32,2.89-2.43,1.35-.11,2.51,.97,3.05,1.83,.65,1.05,.6,2.14,.46,4.25-.11,1.62-.36,2.81-.39,2.95-.29,1.35-.38,2.43-.29,12.84,.04,4.24,.06,4.74,.18,4.75,.38,.04,1.04-4.44,2.79-14.15,.28-1.57,.42-2.31,.52-3.46,.19-2.3-.08-2.78,.3-3.98,.15-.46,.93-2.91,2.76-3.27,1.67-.33,3.37,1.24,4.09,2.6,.53,.99,.34,1.49,.77,4.52,.25,1.73,.42,2.38,.59,3.4,.53,3.19,.28,5.79,.14,8.53-.22,4.3-.48,9.25,.38,14.35,.53,3.09,1.34,5.51,1.89,6.95"/>
  <path class="cls-3" d="M392.7,184.75c1.08-13.32,4.61-25.95,3.6-39.08-.5-2.52-.5-4.54-1.01-7.07-1.01-7.57,1.51-14.14,0-21.71-.5-2.02-1.01-4.04-3.03-4.54-7.07-1.51-9.59,6.06-10.1,11.61-1.01,7.07-1.51,13.63-2.52,20.7-1.51,7.57-3.03,14.64-4.04,22.22,0,2.52,.5,5.05,0,7.57-.5,1.51-.5,3.53-2.02,4.04-3.53,.5-3.53-3.53-3.03-6.06,2.52-16.66,2.02-33.32,1.01-49.99-.5-4.04-2.02-8.58-6.56-9.59-4.54,2.02-6.56,6.06-7.57,10.6-1.51,9.09-2.52,17.67-4.04,26.76-.5,6.06-1.51,11.61-2.02,17.17,0,4.04-.5,8.58-.5,12.62-1.01,9.09-5.05,17.17-8.61,25.28-.11-.31,1.15-2.43,0,0-.11-.31-.5-2.1,.26-2.12s-.14,1.89-.26,2.12c-1.18-4.02-3.7-7.4-5.49-11.14-2.56-5.05-2.06-11.11-7.1-14.65-2.52-2.02-5.05-3.53-7.57-4.54-3.03-1.01-4.04,2.02-3.53,4.54,2.02,5.05,4.54,10.1,5.05,15.65,0,10.1,1.51,20.2,5.05,29.79,4.04,8.58,9.09,15.65,14.14,23.73,4.54,8.08,7.57,16.66,8.58,25.75,1.01,12.12,1.51,23.73,2.02,35.85,1.51,29.79-3.03,59.08-3.99,88.31"/>
  <path class="cls-3" d="M-12.67,172.97c3.5-17.79,8.05-35.47,9.06-53.64,.5-13.13-1.51-26.26,.5-39.89,0-.5,.5-1.51,1.01-2.52,1.01-2.02,4.04-2.02,6.06-2.02,2.02,.5,4.04,2.02,5.05,4.04,2.02,5.05,3.03,10.1,4.04,15.65,3.03,24.74,2.52,48.98,0,73.21,1.51,1.01,4.04,0,4.54-1.51,7.57-25.25,13.63-49.99,18.68-75.74,2.52-4.04,4.04-12.12,10.6-10.6,7.57,1.51,7.07,11.11,7.07,17.17-1.01,16.16-4.54,31.31-6.56,47.46l-3.03,13.63c-4.54,15.15-8.58,32.32,2.02,45.95,3.03,3.53,8.58,5.55,12.12,1.51,.5-1.01,1.51-1.51,2.52-2.52,4.54-6.06,8.08-12.12,11.61-18.68l1.51-1.51c3.03-5.55,7.07-10.1,12.12-13.63,6.56-4.04,13.63-8.58,21.21-6.06,3.03,.5,1.51,4.54,.5,6.56-1.51,2.52-3.53,4.04-5.05,6.56-1.01,1.51-1.51,3.03-2.52,4.54-1.42,2-3.85,5.53-6.56,10.1-10.1,17.02-10.09,24.82-20.3,42.3-2.55,4.38-5.28,8.99-9.74,14.57-3.28,4.11-4.63,5.12-12.31,13.89-4.77,5.44-7.16,8.16-8.71,10.29-4.08,5.6-6.04,10.15-9.53,18.43-8.1,19.22-11.24,34.38-12.12,38.88-.46,2.37-.19,1.2-1.51,8.58-2.3,12.78-4.18,22.08-5.12,26.82-1.57,7.84-3.79,19.23-6.53,34.12"/>
  <path class="cls-3" d="M205.62,398.89c1.05-16.55,1.39-30.13,1.48-39.89,.08-7.94,.12-11.9,0-17.27-.57-25.86-3.15-27.39-.49-35,3.17-9.09,7.61-9.05,12.46-22.47,2.15-5.94,3.02-10.76,3.42-13.61,.89-6.37,.61-11.23,.52-13.15-.46-9.15-.58-26.47-.4-53.02-2.02-4.54-9.59-4.54-12.12-.5-2.02,4.04-3.03,8.08-3.53,12.12-.5,5.55-.5,11.11-1.51,16.66s-3.03,14.14-10.1,13.63c-3.03,0-4.04-4.04-4.54-6.56,.13-8.17,.18-16.51,.13-24.99-.05-8.09-.18-16.05-.38-23.86-.07-5.24,.06-9.51,.2-12.49,.26-5.68,.56-7.89,.06-11.36-.5-3.53-1.01-7.57-3.53-10.1-2.52-2.02-6.56-1.51-8.08,2.02-1.51,4.04-1.51,8.08-2.02,12.12-.77,11.51-1.61,23.12-2.52,34.84-.78,9.94-1.6,19.79-2.46,29.56"/>
  <path class="cls-3" d="M148.24,222.91c-.87-3.79-1.37-7.83-3.9-11.36-1.51-2.02-5.55-3.03-6.56-1.01-1.51,2.02,0,4.54,0,6.56,.76,4.04,1.77,7.95,2.9,11.87,1.69,5.83,3.05,10.04,3.66,11.87,3.46,10.34,5.18,18.37,7.15,26.03,2.31,8.94,6.16,21.94,12.89,39.36,1.03,2.67,1.82,5.86,1.98,10.14,.2,5.34-1,8.61-3.35,18.35-1.02,4.25,.92-3.52-2.71,12.12-5.74,24.68-8.33,34.3-11.23,50.53-.09,.52-.17,.94-.21,1.17"/>
  <path class="cls-3" d="M159.26,244.22c.53-6.51-.46-13.03-1.45-19.45-.9-5.88-2.92-11.82-2.69-17.81,.16-4.07-1.38-7.83-2.17-11.74-.64-3.18-1.02-6.45-1.47-9.66-.63-4.53-.79-9.16-1.97-13.59-.75-2.79-3.39-8.75-.87-11.31,1.22-1.24,3.47-.83,3.76-.77,3.57,.66,5.39,5.03,7.07,9.07,2.1,5.04,2.88,10.55,4.41,15.77,.15,.5,.35,1.08,.65,1.76,1.22,2.77,1.7,5.77,2.45,8.68,.9,3.49,2.34,6.78,3.6,10.15,1.2,3.21,2.07,6.54,2.95,9.85"/>
  <path class="cls-3" d="M151.83,244.64c-.31-7.15-2.63-13.91-3.54-20.96-.72-5.57-.29-5.2-.85-7.32-1.37-5.22-2.74-10.41-3.94-15.67-1.19-5.22-4.55-9.55-5.58-14.83-.23-1.18-.32-2.08,.19-2.78,.96-1.31,3.41-.99,4.09-.9,7.12,.93,8.91,11.43,11.49,16.7"/>
  <path class="cls-3" d="M304.39,398.89c.38-3.93,.41-8.95,.43-15.51,.07-15.57-1.79-22.63-.64-34.73,.58-6.04,1.43-11.74,1.43-11.74,2.31-15.45,4.31-17.36,4.6-26.64,.07-2.28-.06-3.48-.07-4.9-.02-2.82,.39-4.85,1.09-8.14,1.56-7.34,4.22-15.27,5-17.57,0,0,3.1-7.06,6.34-16.5,1.62-4.71,2.7-8.36,.95-10.15-.87-.89-2.34-1.18-3.49-.95-1.05,.21-2.12,.9-3.91,3.85-1.89,3.11-2.97,6.05-4.3,9.76-.54,1.49-1.05,3-2.16,4.99-.54,.96-.99,1.55-1.91,2.96-3.01,4.63-4.54,6.94-5.49,6.84-1.63-.17-2.42-4.22-2.54-4.76-.83-3.9,.12-6.54,.79-10.47,.75-4.41-.08-3.23,.64-11.42,.49-5.67,1.1-8.61,.79-13.96-.2-3.38-.64-5.67-2.38-6.82-1.12-.74-2.63-.93-3.88-.5-2.22,.75-3.01,3.18-3.39,4.33-.6,1.82-.35,2.84-.35,5.54,0,1.89-.12,1.43-.64,7.61-.49,5.96-.29,5.32-.64,8.88-.59,6.15-1.07,6.79-1.29,8.18-.17,1.06-.13,1.83-.13,2.13-.02,2.32-1.65,5.32-2.39,5.19-.29-.05-.63-.6-.78-7.09-.13-5.28,.04-7.29,0-13.48-.06-9.56-.39-8.21-.16-10.94,.31-3.63,.91-6.26,.16-10.31-.42-2.25-.89-4.66-2.54-5.24-1.87-.66-4.2,1.43-5.24,2.7-1.52,1.87-1.82,3.88-2.22,6.82-.86,6.37-.94,12.83-2.11,19.16-.47,2.57-.27,5.04-.12,7.64,.43,7.48,.65,11.22,.79,11.58,.48,1.2,.28,3.69-1.72,3.04-.58-.19-1-.72-1.21-1.29-.21-.58-.24-1.2-.26-1.81-.1-2.72,.1-5.46-.24-8.17-.32-2.58-1.22-5.04-1.49-7.63-.52-4.94-.05-9.92-.27-14.87-.09-2.14,.02-5.29-1.95-6.7-1.38-.99-3.02-.81-3.17-.79-2.33,.28-3.66,2.47-3.96,3.01-.6,1.07-.57,1.74-.95,4.28-.49,3.22-.71,3.22-.95,5.07-.38,2.88,.25,5.63,.24,8.49,0,3.11-.04,6.22-.07,9.32-.03,2.75,.88,5.35,1.08,8.08,.24,3.45,.63,6.95,.54,10.39-.08,3.01-.67,6.09-.67,9.08-.29,1.83-.13,.23-2.22,9.04-.63,2.66-.89,3.82-1.59,3.96-1.18,.24-2.45-2.69-4.6-6.35-2.75-4.66-5.49-9.31-9.99-12.37-3.85-2.62-9.26-4.27-11.42-2.38-.43,.38-.93,1.06-1.11,1.9-.38,1.77,.8,3.38,1.59,4.44,1.19,1.61,2.79,2.87,3.91,4.53,1.15,1.71,1.97,3.72,2.76,5.62,1.51,3.69,3.2,7.29,4.86,10.91,1.2,2.6,1.92,5.44,3.49,7.86s4.22,3.44,6.71,4.71c0,0,4.76,2.43,11.42,7.14,1.09,.77,3.06,2.2,4.28,4.76,.23,.65,.56,1.63,.89,2.84,3.38,12.2,.1,21.6-2.63,35.81-.98,5.15-2.2,12.49-3.02,21.53"/>
  <path class="cls-6" d="M20.23,191.62c-.02,.28-.04,.58,.13,.8,.25,.34,.77,.3,1.19,.23,1.58-.28,3.16-.56,4.74-.83,.54-.1,1.12-.22,1.47-.64,.39-.47,.35-1.17,.29-1.78-.19-1.82-.32-3.66-.56-5.47-.25-1.92-1.51-1.46-3.01-1.03-1.93,.55-3.33,1.4-3.78,3.46-.36,1.65-.46,3.58-.46,5.26h0Z"/>
  <path class="cls-6" d="M321.48,53.57c-.02,.28-.04,.58,.13,.8,.25,.34,.77,.3,1.19,.23l4.74-.83c.54-.1,1.12-.22,1.47-.64,.39-.47,.35-1.17,.29-1.78-.19-1.82-.32-3.66-.56-5.47-.25-1.92-1.51-1.46-3.01-1.03-1.93,.55-3.33,1.4-3.78,3.46-.36,1.65-.46,3.58-.46,5.26h0Z"/>
  <path class="cls-6" d="M255.78,176.55c-.37,2.34-.74,4.68-1.11,7.02l7.95-.14c.46-.01,.97-.04,1.28-.39,.25-.28,.27-.69,.28-1.07,.07-2.16,.15-4.32,.22-6.48-2.24,.16-4.58,.41-7,.78-.55,.09-1.09,.17-1.63,.27h0Z"/>
  <path class="cls-6" d="M101.78,107.73c.78,1.32,2.66,2.61,4.77,2.09,1.93-.47,3.25-2.25,3.29-4.17,.04-2.11-1.52-3.74-3.19-4.29-1.98-.66-4.36,.12-5.15,1.61-.34,.65-.34,1.36-.34,2.01,0,.53,0,1.7,.62,2.74h0Z"/>
  <path class="cls-10" d="M176.04,5.92c6.68,1.36,25.08,6.47,33.75,23.66,6.9,13.68,4.06,29.61-3.07,40.43-2.13,3.23-7.36,11.15-16.81,14.47-9.73,3.42-23.95,1.98-28.43,6.06-2.47,2.25-3.55,3.11-5.72,4.82-.38,.3-1.11,.87-2.11,1.56,0,0-1.28,.88-2.61,1.65-2.34,1.35-18.26,7.92-21.03,3.85-1.75-2.57,4.01-6.06,4.06-13.15,.05-6.75-5.14-9.89-9.56-16.45-6.72-9.97-8.88-23.68-6.16-34.78,4.17-17,19.67-25.89,21.82-27.07,14.72-8.16,29.51-6.34,35.86-5.04h0Z"/>
  <path class="cls-4" d="M151.49,50.26c-5.77-1.42-8.56-7.51-6.73-11.9,1.75-4.18,7.56-6.5,12.58-3.94,1.39-3.11,4.44-5.16,7.84-5.25,3.44-.1,6.64,1.82,8.18,4.91,5.11-2.71,11.22-.17,12.92,4.48,1.64,4.49-1.15,10.18-6.54,11.62v18.68h-28.15c-.03-3.7-.06-14.89-.09-18.59h0Z"/>
  <line class="cls-2" x1="160.16" y1="48.45" x2="160.16" y2="60.85"/>
  <line class="cls-2" x1="170.79" y1="48.45" x2="170.79" y2="60.85"/>
  <line class="cls-2" x1="179.21" y1="61.45" x2="151.75" y2="61.45"/>
  <path class="cls-7" d="M259.61,126.53c-.69-2.2-2.92-10.34,1.03-19.1,4.68-10.38,14.52-13.81,16.31-14.4,1.68-.55,14.88-4.64,25.03,4.01,6.75,5.75,10.37,15.58,8.12,23.45-2.61,9.15-12.49,13.33-13.04,21.66-.33,5.04,.3,8.34,.3,8.34,.67,3.49,1.65,4.75,1.06,5.43-1.43,1.65-9.75-2.97-16.4-7.43-13.12-8.8-19.68-13.19-22.43-21.95h0Z"/>
  <path class="cls-4" d="M275.53,117.44c-3.72-.92-5.53-4.85-4.34-7.68,1.13-2.7,4.89-4.2,8.12-2.54,.9-2,2.87-3.33,5.06-3.39,2.22-.07,4.29,1.18,5.28,3.17,3.3-1.75,7.25-.11,8.34,2.89,1.06,2.9-.74,6.57-4.23,7.51v12.06h-18.18c-.02-2.39-.04-9.61-.06-12.01h0Z"/>
  <line class="cls-2" x1="281.13" y1="116.26" x2="281.13" y2="124.27"/>
  <line class="cls-2" x1="288" y1="116.26" x2="288" y2="124.27"/>
  <line class="cls-2" x1="293.43" y1="124.66" x2="275.7" y2="124.66"/>
</svg>