<?xml version="1.0" encoding="UTF-8"?>
<svg id="Ebene_2" data-name="Ebene 2" xmlns="http://www.w3.org/2000/svg" xmlns:xlink="http://www.w3.org/1999/xlink" viewBox="0 0 1104.13 791.01">
  <defs>
    <style>
      .cls-1, .cls-2, .cls-3, .cls-4 {
        fill: none;
      }

      .cls-2, .cls-5 {
        stroke-miterlimit: 10;
      }

      .cls-2, .cls-3, .cls-4 {
        stroke-linecap: round;
      }

      .cls-2, .cls-4 {
        stroke: #fff;
        stroke-width: 3px;
      }

      .cls-6, .cls-5 {
        fill: #fff;
      }

      .cls-7 {
        fill: #ffda44;
      }

      .cls-8 {
        fill: #ffe57c;
      }

      .cls-9 {
        fill: #ffb758;
      }

      .cls-10 {
        fill: #ff9811;
      }

      .cls-11 {
        fill: #e2c09f;
      }

      .cls-12 {
        fill: #c99a73;
      }

      .cls-5, .cls-3 {
        stroke: #ff9811;
        stroke-width: 2px;
      }

      .cls-3, .cls-4 {
        stroke-linejoin: round;
      }

      .cls-13 {
        clip-path: url(#clippath);
      }
    </style>
    <clipPath id="clippath">
      <rect class="cls-1" x="16.48" width="1087.65" height="765.69"/>
    </clipPath>
  </defs>
  <g id="Group_1646" data-name="Group 1646">
    <g class="cls-13">
      <g id="Group_1645" data-name="Group 1645">
        <path id="Path_2896" data-name="Path 2896" class="cls-6" d="M501.35,44.91c-6.76,2.21-87.65,38.99-249.45,112.55-60.68,27.59-91.16,42.43-123.4,70.79-50.15,44.11-75.64,105.46-94.97,165.79-14.14,44.1-25.67,91.9-8.29,135.07,19.74,49.03,73.66,81.78,129.8,96.58,56.14,14.8,115.61,14.85,174.03,18.45,130.23,7.96,258.67,34.34,381.48,78.38,38.11,13.73,75.7,29.21,115.65,37.88,54.82,11.9,104.52,.7,121.21-3.97,144.9-40.51,261.78-559.5,6.42-711-161.42-95.76-416.81-12.19-452.47-.52"/>
      </g>
    </g>
  </g>
  <path class="cls-12" d="M221.9,790c12.09-43.89,7.9-61.12,19.89-115.96,2.6-11.89,7.09-30.73,14.34-53.47,7.47-23.43,15.65-49.09,30.86-75.53,15.75-27.38,20.46-23.3,44.85-57.37,24.22-33.82,20.33-38.89,52.5-92.84,27.81-46.64,43.13-63.66,37.11-71.1-5.89-7.27-28.89-1.27-44.15,9.43-12.92,9.06-13.87,16.97-34.78,44.09-15.2,19.71-22.95,29.56-30.16,29.05-13.9-.98-25.39-28.97-27.13-52.9-1.47-20.22,4.94-24.75,14.18-62.04,6.97-28.12,.59-14.52,10.87-84.65,2.32-15.79,5.32-34.75-5.56-45.2-2.08-2-5.51-5.29-9.75-4.99-5.74,.41-13.13,7.4-31.01,80.32-4.69,19.15-12.18,37.74-14.69,57.3-1.82,14.12-2.9,33.04-12.79,36.72-.85,.32-3.2,1.19-5.12,.13-6.44-3.58,.1-24.57,3.19-41.17,3.21-17.26,1.76-34.71-1.02-69.57-2.62-32.8-5.49-65.36-18.85-68.82-3.19-.83-8.26-.32-11.82,2.43-4.94,3.82-5.21,10.77-5.68,15.98-1.53,17.12-2.3,25.68-.58,35.48,2.42,13.83,2.51,39.12-7.44,89.41-3.54-32.5-5.22-58.35-6.11-76.41-.81-16.56-1.24-36.7-11.12-40.43-4.62-1.75-9.5,.78-10.19,1.15-13.91,7.46-10.06,35.67-9.65,87.83,.25,30.85-.75,64.91-3.62,65.09-2.88,.19-14.17-33.45-16.55-61.27-.29-3.44-1.18-15.39-9.74-23.99-2.04-2.05-6.01-6.04-9.23-5.24-8.44,2.1-6.91,35.29-6.07,51.83,1.03,20.15,3.67,44.82,15.04,101.53,4.09,20.4,4.23,19.63,7.82,38.07,7.68,39.42,11.52,59.14,12.12,72.65,1.31,29.21-3.81,51.41-10.67,80.72-7.1,30.34-15.48,51.88-17.58,57.19-3.35,8.47-6.68,15.99-9.89,22.71-6.95,14.52-13.35,25.8-17.27,32.42-1.16,1.95-2.22,3.7-3.22,5.34-18.62,30.41-41.54,60.3-53.57,85.46,64.08,.06,128.16,.27,192.23,.59v.03Z"/>
  <path class="cls-9" d="M361.26,677.46c1.21,9.73,1.81,14.6,2.13,18.23,2.8,32.05-2.94,42.14-1.93,77.26,.13,4.66,.41,10.29,1.34,16.57,23.15,.16,46.3,.31,69.45,.48-.8-4.22-1.87-9.24-3.19-15.38-8.58-39.92-8.34-37.24-9.59-44.15-5.72-31.64-9.25-51.2,1.47-65.53,5.87-7.85,10.34-6.53,18.7-18.2,7.26-10.13,10.47-20.3,12.8-27.68,2.21-7,3.35-10.73,3.14-16.13-.31-8.05-3.37-13.87-6.23-19.29-2.65-5.04-4.83-9.17-7.26-8.93-2.93,.29-5,6.81-5.37,11.69-.42,5.6,1.52,7.4,1.34,12.1-.13,3.35-1.34,8.16-6.57,13.92-1.18-3.82-2.76-9.72-3.68-17.06-1.33-10.61,.04-13.61-.11-27.46-.16-14.8-.5-31.09-8.32-34.82-.68-.33-2-.94-3.48-.56-4.45,1.14-5.38,10.07-6.95,20.49-.98,6.53-2.58,16.05-5.16,27.8-.23-18.26-.16-27.07-.03-31.7,.03-1.25,0-2.5,.02-3.75,.1-7.54,.49-11.86-1.63-14.19-.64-.71-1.45-1.18-1.45-1.18,0,0-1.75-1.02-3.96-.85-4.55,.35-8.81,14.74-10.1,19.36-1.99,7.12-2.9,12.42-3.25,12.37-.82-.12,5.23-28.68,0-30.61-3.07-1.13-9.62,7.13-12.73,14.31-1.73,4.01-2.38,7.65-2.64,10.22-3.21-6.25-5.4-7.5-6.85-7.32-7.65,.98-11.98,43.96-6.88,81.43,1.31,9.64,3.71,22.29,6.97,48.56h0Z"/>
  <path class="cls-11" d="M519.22,573.9c11.71,36.31,14.48,45.42,13.8,60.51-.81,17.82-5.36,20.33-14.92,53.76-10.59,37.03-12.44,59.89-14.85,89.83-.3,3.73-.56,7.49-.68,11.24,36.48,.26,72.96,.51,109.43,.75,.07-.33,.14-.66,.2-1,11.86-60.23,3.27-131.82,1.32-146.8-.79-6.11-2.76-20.41,2.83-36.79,4.88-14.3,12.99-22.76,17.04-27.6,21.61-25.83,17.02-68.36,14.79-153.68-.21-8.02-1.33-21.06-9.17-24.72-6.17-2.88-15.4,.64-20.12,6.5-3.78,4.7-3.15,9.02-3.67,26.46-.75,25.21-2.46,29.82-3.63,32.43-4.41,9.86-14.04,20.13-20.38,18.35-4.16-1.17-7.02-7.53-8.77-28.94-1.87-22.9,.61-71.66,1-115.86,.06-6.64,.03-13.61-3.17-19.42s-10.73-9.82-16.65-6.83c-5.69,2.87-7.21,11.56-7.88,16.66-4.13,31.41-7.58,81.54-8.23,91.22-15.35-42.92-23.76-69.91-25.66-82.64-.33-2.21-1.92-8.9-6.93-13.74-3.74-3.6-10.23-4.9-14.04-1.38-3.73,3.44-3.2,9.37-2.39,14.37,1.56,9.57,2.98,23.11,6.49,39.84-.74-2.11-3.26-8.4-9.88-12.33-4.83-2.87-13.34-5.36-16.22-2.08-1.87,2.12-.77,5.95,7.13,24.76,7.06,16.81,9.62,21.91,7.2,25.09-3.22,4.23-11.28-.19-15.47,3.99-6.06,6.04,2.37,23.65,3.89,26.86,19.46,41.11,23.64,87.88,37.6,131.16v.03Z"/>
  <path class="cls-7" d="M685.37,623.77c2.64,7.58,3.36,11.13,7.22,14.81,4.76,4.56,9.12,4.37,16.34,7.68-6-5.2,12.53,9.87,17.84,15.77,11.5,12.76,12.65,29.55,13.23,37.94,.22,3.23,.21,5.91,0,8.43-1.33,16.1-5.21,27.84-6.59,31.7-3.41,9.55-6.82,24.81-6.38,49.54,27.01,.11,54.01,.23,81.02,.34-.11-8.92-.17-20.65-.02-34.42,.34-29.97,1.01-35.24,3.57-89.07,.72-15.19,1.57-30.18,4.02-49.56,1.94-15.37,2.91-23.06,4.91-31.25,3-12.31,10-35.19,21.38-61.06,3.4-7.72,8.58-18.89,4.3-23.43-2.09-2.22-5.55-1.91-5.69-1.9-6.35,.65-9.75,9.89-14.06,19.53-1.5,3.36-16.6,37.12-22.38,35.87-1.02-.22-2.62-1.73-3.27-14.9-1.12-22.79,2.61-39.57,1.43-63.72-.34-6.98-1.1-14.63-5.25-16.18-3.48-1.3-7.7,2.28-8.15,2.68-5,4.35-5.07,11.21-5.49,21.65-.38,9.44-.99,20.24-1.54,26.68-1.07,12.44-3.92,31.39-7.39,31.43-.7,0-1.27-.75-1.61-1.3-.76-30.97-1.24-54.71-1.25-71.67,0-5.19,.03-17.72-4.71-19.18-.66-.2-2.32-.47-5.36,1.9-7.4,5.76-8.75,16.04-9.99,27.32-2.36,21.46-3.55,32.19-3.29,37.76,.84,18.43,4.97,31.62,.78,33.49-1.62,.72-3.66-.63-4.05-.89-4.4-2.92-3.44-10.71-3.32-19.21,.06-3.73-.25,6.14-1.79-23.78-1.36-26.47-1.11-34.18-6.14-36.83l-8.23-.03c-10.14,2.08-8.96,47.69-8.96,47.69,.66,25.52,3.48,30.23,3.13,51.35,0,0-.01,.74-.03,1.48-.36,16.1-.74,33.57-5.57,35.03-3.85,1.16-7.06-8.88-21.91-23.32-7.84-7.63-19.21-18.44-28.22-15.41-.49,.17-4.62,1.62-5.72,5.1-1.7,5.35,5.67,9.37,13.01,20.11,6.33,9.27,9.91,19.56,14.19,31.83h-.01Z"/>
  <path class="cls-8" d="M856.07,443.04c10.14,30.76,23.38,33.16,34.56,69.44,3.55,11.53,5.16,20.86,6.11,26.49,4.34,25.66,3.06,44.75,2.17,61.46-2.84,53.36,.64,38.86-2.81,100.75-3.28,58.77-5.23,50.44-4.77,69.11,.16,6.48,.33,13.06,.6,19.64,38.92,.09,77.84,.09,116.75-.06,13.94-.06,27.88-.14,41.83-.23-9.11-50.67-40.16-115.75-46.48-206.13-2.68-38.37,.33-63.65,1.67-73.41,2.41-17.56,8.36-39.87,20.15-83.77,7.83-29.14,16.14-58.42,11.06-89.99-1.06-6.6-4.04-25.08-11.82-26.26-2.96-.45-5.82,1.72-7.92,3.87-.89-7.53-2.27-18.29-4.3-31.23-3.64-23.27-5.64-29.74-10.23-31.24-1.92-.62-6.3-1.04-14.29,6.45-.03-3.3,.01-8.19,.33-14.1,.71-12.92,2.01-16.56-.62-20.5-2.76-4.14-8.56-6.67-13.49-5.79-8.24,1.46-11.96,12.1-14.18,18.45-2.8,8-2.34,12.77-3.4,26.53-.78,10.14-1.02,7.53-2.82,25.07-4.24,41.31-3.38,60.61-9.63,61.87-1.27,.26-2.34-.33-3.01-.69-6.44-3.5-3.96-17.09-2.19-40,1.2-15.47-.01-8.24,1.54-34.1,1.2-20.01,2.17-28.43-2.6-38.63-2.22-4.75-6.35-13.57-11.3-13.42-10.94,.34-21.81,44.43-24.01,81.91-1.61,27.43,1.95,42.44-7.06,67.08-4.44,12.14-10.02,21.37-14.03,27.28-2.77-3.91-6.55-9.93-9.68-17.85-3.87-9.8-3.01-13.06-5.93-18.67-6.69-12.86-24.43-21.08-29.66-16.88-4.67,3.76,2.59,15.86,9.78,42.68,9.06,33.83,2.42,32.91,9.66,54.86h.02Z"/>
  <path class="cls-7" d="M1.05,700.63c-1.2-3.64-2.02-8.66,1.33-20.62,3.28-11.71,14.4-51.47,52.39-75.72,13.46-8.59,25.41-12.12,32.55-14.17,14.54-4.17,24.41-7,35.51-3.63,10.55,3.21,16.1,10.89,28.15,24.85,12.35,14.31,23.54,30.27,29.19,48.66,5.65,18.39,5.16,39.59-4.66,55.92-7.75,12.88-20.56,21.68-34.15,26.97-13.59,5.29-28.13,7.53-42.44,9.48-9.74,1.33-21.31-.74-32.21-7.49-3.2-1.98-8.35-5.75-17.14-10.2-5.27-2.67-8.93-4.09-11.34-5.11-11.66-4.93-32.16-13.59-37.2-28.94h.02Z"/>
  <path class="cls-7" d="M971.6,548.29c-17.5,5.38-26.43,31.24-27.13,49.08-.82,20.85,9.25,40.47,22.12,51.53,7.06,6.07,15.36,10.52,22.66,16.3,6.97,5.52,12.97,12.2,19.92,17.75s15.28,10.04,24.17,10.05c11.73,.02,22.91-8.73,25.71-20.12,2.08-8.46-.11-17.31-.48-26.02-.98-22.76,10.49-44.72,9.34-67.47-.42-8.27-2.87-17-9.27-22.26-4.92-4.05-11.21-4.42-17.01-2.42-2.22,.77-4.18,1.19-6.05,1.37-6.2,.59-11.02-.75-12.74-1.26-11.03-3.28-36.86-10.95-51.23-6.53h0Z"/>
  <path class="cls-3" d="M365.07,590.29c.22-4.94,.71-14.65,1.72-24.39,.43-4.12,.53-7.61,1.38-10.78,.76-2.83,.81-5.82,1.56-8.68,1.42-5.42,4.13-10.93,8.23-14.82,2.42-2.3,5.72-1.13,7.19,1.56,1.44,2.63,.92,5.61,.48,8.43-1.71,10.93-3.04,14.81-2.74,20.74,.1,2.05,.37,3.71,.55,4.71"/>
  <path class="cls-3" d="M362.53,789.49c-.39-3.93-.91-9.77-1.3-16.85-2.27-40.95,3.86-46.62,2.22-75.13-1.24-21.58-4.94-21.43-10.22-67.57-1.52-13.28-1.77-18.11-1.87-21.11-.88-24.66,3.33-44.81,7.2-58.29,.43-.66,1.27-1.69,2.61-2.1,2.33-.72,5.32,.71,7.04,3.71-.87,9.32-1.73,18.65-2.6,27.97"/>
  <path class="cls-3" d="M432.13,613.25c5.1-9.62,5.1-19.62,5.1-30.62,0-4,4-7,8-6,3,11,11,19,10,31-2,14-7,27-16,38-7,7-14,13-20,21-1,2-2,5-3,7-4,11-2,23-1,34,0,2,2,5,2,7,0,18.04,6.34,38.93,14.81,72.24,.37,1.45,.67,2.6,.81,3.12"/>
  <path class="cls-3" d="M381.08,585c.17-1.62,.44-4.1,.82-7.12,.6-4.74,.9-6.41,1.87-13.1,1.52-10.5,1.3-10.1,1.8-11.97,1.39-5.21,2.23-5.05,3.7-10.94,.79-3.18,.93-4.76,2.32-7.04,1.04-1.71,2.8-4.59,5.72-4.82,2.68-.21,4.98,1.92,6.04,3.63,1.29,2.08,1.18,4.24,.91,8.41-.21,3.21-.72,5.57-.78,5.85-.57,2.68-.75,4.81-.57,25.42,.08,8.4,.12,9.38,.36,9.4,.75,.08,2.05-8.8,5.53-28.02,.56-3.11,.84-4.57,1.02-6.86,.37-4.56-.16-5.51,.6-7.89,.3-.92,1.85-5.76,5.47-6.47,3.3-.65,6.67,2.46,8.11,5.14,1.05,1.96,.68,2.96,1.53,8.95,.49,3.43,.84,4.71,1.17,6.73,1.05,6.31,.56,11.47,.28,16.89-.44,8.51-.95,18.32,.76,28.42,1.04,6.11,2.65,10.91,3.74,13.77"/>
  <path class="cls-3" d="M1049.56,790c-3.33-11.49-7.33-22.49-10.33-33.49-15-53-27-104-35-158-4-28-5-56-4-84,1-7,3-14,5-21,8-19,12-38,17-58,6-22,14-42,17-64,2-20-4-39-12-56-4,0-7,1-10.07,1.97"/>
  <path class="cls-3" d="M983.11,365.9c2.13-26.39,9.13-51.39,7.13-77.39-1-5-1-9-2-14-2-15,3-28,0-43-1-4-2-8-6-9-14-3-19,12-20,23-2,14-3,27-5,41-3,15-6,29-8,44,0,5,1,10,0,15-1,3-1,7-4,8-7,1-7-7-6-12,5-33,4-66,2-99-1-8-4-17-13-19-9,4-13,12-15,21-3,18-5,35-8,53-1,12-3,23-4,34,0,8-1,17-1,25-2,18-10,34-17.05,50.07-.22-.62,2.27-4.81,0,0-.22-.62-.99-4.16,.51-4.19s-.28,3.75-.51,4.19c-2.34-7.96-7.32-14.66-10.88-22.06-5.07-10.01-4.07-22.01-14.07-29.01-5-4-10-7-15-9-6-2-8,4-7,9,4,10,9,20,10,31,0,20,3,40,10,59,8,17,18,31,28,47,9,16,15,33,17,51,2,24,3,47,4,71,3,59-6,117-7.9,174.89"/>
  <path class="cls-3" d="M1009.46,385.57c-.01-3.63,.15-9.33,1.23-16.23,1.28-8.24,2.48-9.42,3.99-18.84,1.24-7.76,1.53-13.91,1.74-18.42,.25-5.49,.37-8.23,0-11.68-.54-5.14-1.4-6.26-2.15-12.74-.15-1.32-.34-4.17-.67-9.87-.5-8.83-.57-9.87-.74-11.54-.37-3.64-.4-2.39-1.27-9.16-.79-6.22-.85-7.96-2.09-10.7-.6-1.32-.51-.74-2.67-4.62-2.95-5.28-2.97-6.09-4.2-6.76-3.23-1.74-7.88,1.34-8.65,1.86-3.8,2.55-5.16,6.47-5.61,8.04"/>
  <path class="cls-3" d="M34.26,789.23c2.09-4.19,5.51-10.87,9.98-18.92,24.21-43.59,36.33-52.33,55-87,7-13,11-27,17-40s12-27,14-41c0-4,1-9,1-13,2-13,9-24,11-37,2-11,3-22,2-33-2-12-3-23-6-34-14-53-22-104-27-158,0-3-2-6-2-9-2-23-6-45-3-68,1-3,3-6,6-8,2-1,5-1,8,0,8,3,10,11,13,18,5.98,13.96,6,25,6,25,.92,11.94,3.39,29.49,10.33,53.94"/>
  <path class="cls-3" d="M180.29,342.56c6.94-35.24,15.94-70.24,17.94-106.24,1-26-3-52,1-79,0-1,1-3,2-5,2-4,8-4,12-4,4,1,8,4,10,8,4,10,6,20,8,31,6,49,5,97,0,145,3,2,8,0,9-3,15-50,27-99,37-150,5-8,8-24,21-21,15,3,14,22,14,34-2,32-9,62-13,94l-6,27c-9,30-17,64,4,91,6,7,17,11,24,3,1-2,3-3,5-5,9-12,16-24,23-37l3-3c6-11,14-20,24-27,13-8,27-17,42-12,6,1,3,9,1,13-3,5-7,8-10,13-2,3-3,6-5,9-2.82,3.97-7.63,10.95-13,20-20.01,33.71-19.99,49.16-40.21,83.77-5.06,8.67-10.45,17.81-19.29,28.86-6.5,8.13-9.16,10.15-24.38,27.5-9.45,10.78-14.18,16.17-17.25,20.38-8.09,11.1-11.96,20.1-18.88,36.5-16.05,38.06-22.26,68.09-24,77-.92,4.69-.37,2.38-3,17-4.56,25.32-8.27,43.72-10.15,53.11-3.1,15.52-7.51,38.08-12.94,67.57"/>
  <path class="cls-3" d="M146.06,366.55c1.17-6.23,2.69-15.69,3.51-27.29,1.48-21.17-1.16-42.39-.94-63.57,.24-22.21-.98-44.67,.35-66.84,1.02-17.08,3.04-23.38,7.92-27.3,.4-.32,6.96-5.44,13.02-3.32,7.33,2.56,9.22,14.04,10.89,24.16,5.09,30.82,3.33,62.61,8.32,93.68"/>
  <path class="cls-3" d="M612.6,790c2.08-32.77,2.75-59.67,2.94-79,.15-15.72,.23-23.57,0-34.21-1.12-51.21-6.23-54.25-.98-69.31,6.27-18.01,15.08-17.93,24.68-44.5,4.26-11.77,5.98-21.32,6.77-26.96,1.77-12.62,1.21-22.24,1.02-26.04-.92-18.12-1.15-52.43-.79-105-4-9-19-9-24-1-4,8-6,16-7,24-1,11-1,22-3,33s-6,28-20,27c-6,0-8-8-9-13,.26-16.19,.35-32.69,.25-49.5-.09-16.03-.35-31.79-.76-47.26-.14-10.37,.12-18.84,.39-24.74,.51-11.24,1.11-15.63,.12-22.5-1-7-2-15-7-20-5-4-13-3-16,4-3,8-3,16-4,24-1.52,22.79-3.18,45.79-5,69-1.54,19.68-3.17,39.19-4.87,58.54"/>
  <path class="cls-3" d="M498.96,441.48c-1.72-7.5-2.72-15.5-7.72-22.5-3-4-11-6-13-2-3,4,0,9,0,13,1.5,8,3.5,15.75,5.75,23.5,3.35,11.54,6.04,19.89,7.25,23.5,6.86,20.48,10.25,36.38,14.17,51.55,4.57,17.7,12.2,43.46,25.53,77.96,2.04,5.28,3.6,11.61,3.92,20.08,.39,10.58-1.99,17.06-6.64,36.34-2.02,8.41,1.83-6.97-5.36,24-11.36,48.88-16.5,67.93-22.25,100.07-.18,1.03-.33,1.86-.41,2.31"/>
  <path class="cls-3" d="M520.78,483.67c1.05-12.89-.92-25.81-2.87-38.52-1.78-11.65-5.79-23.4-5.33-35.27,.31-8.06-2.73-15.5-4.3-23.26-1.27-6.3-2.02-12.78-2.91-19.14-1.25-8.97-1.56-18.14-3.91-26.92-1.48-5.53-6.72-17.32-1.73-22.4,2.42-2.46,6.88-1.64,7.45-1.53,7.08,1.31,10.67,9.96,14,17.97,4.16,9.99,5.7,20.9,8.73,31.23,.29,1,.69,2.13,1.29,3.48,2.41,5.49,3.37,11.42,4.85,17.19,1.78,6.91,4.63,13.43,7.12,20.1,2.37,6.35,4.1,12.96,5.85,19.5"/>
  <path class="cls-3" d="M506.07,484.51c-.61-14.16-5.21-27.55-7.01-41.51-1.42-11.03-.58-10.3-1.68-14.5-2.72-10.33-5.42-20.62-7.8-31.04-2.36-10.33-9.01-18.92-11.06-29.37-.46-2.33-.64-4.12,.37-5.5,1.9-2.6,6.75-1.97,8.1-1.79,14.1,1.85,17.65,22.63,22.76,33.07"/>
  <path class="cls-3" d="M808.22,790c.76-7.79,.81-17.73,.86-30.71,.14-30.84-3.54-44.82-1.26-68.79,1.14-11.96,2.83-23.25,2.83-23.25,4.58-30.6,8.54-34.38,9.11-52.77,.14-4.51-.11-6.89-.14-9.71-.04-5.58,.78-9.6,2.16-16.13,3.08-14.54,8.35-30.24,9.91-34.79,0,0,6.14-13.98,12.56-32.67,3.21-9.33,5.35-16.56,1.89-20.1-1.72-1.76-4.63-2.33-6.91-1.88-2.08,.41-4.19,1.79-7.74,7.62-3.74,6.15-5.88,11.99-8.52,19.32-1.07,2.95-2.08,5.95-4.27,9.88-1.06,1.91-1.96,3.07-3.78,5.86-5.97,9.16-9,13.74-10.87,13.54-3.23-.34-4.8-8.35-5.03-9.42-1.64-7.73,.24-12.96,1.57-20.73,1.49-8.73-.16-6.4,1.26-22.62,.98-11.23,2.18-17.06,1.57-27.64-.39-6.7-1.26-11.22-4.71-13.51-2.21-1.47-5.2-1.84-7.68-1-4.39,1.48-5.97,6.3-6.71,8.57-1.18,3.6-.69,5.62-.69,10.97,0,3.74-.24,2.83-1.26,15.08-.98,11.81-.58,10.53-1.26,17.59-1.17,12.18-2.12,13.44-2.56,16.21-.33,2.09-.26,3.62-.26,4.21-.03,4.59-3.26,10.53-4.73,10.28-.57-.09-1.24-1.18-1.55-14.05-.25-10.46,.08-14.44,0-26.7-.12-18.93-.77-16.25-.31-21.67,.61-7.18,1.8-12.4,.31-20.42-.83-4.46-1.77-9.23-5.03-10.37-3.71-1.3-8.31,2.83-10.37,5.34-3.02,3.7-3.61,7.69-4.4,13.51-1.7,12.61-1.86,25.41-4.17,37.95-.94,5.08-.53,9.99-.23,15.14,.86,14.82,1.29,22.23,1.57,22.93,.96,2.37,.55,7.31-3.41,6.02-1.15-.37-1.98-1.42-2.39-2.56-.41-1.14-.47-2.37-.51-3.58-.19-5.38,.19-10.82-.47-16.18-.63-5.11-2.41-9.99-2.95-15.12-1.02-9.78-.1-19.65-.53-29.45-.18-4.23,.03-10.47-3.87-13.27-2.73-1.96-5.98-1.61-6.28-1.57-4.62,.56-7.25,4.89-7.85,5.97-1.18,2.12-1.12,3.45-1.88,8.48-.97,6.38-1.4,6.37-1.88,10.05-.76,5.7,.49,11.15,.48,16.82,0,6.15-.08,12.31-.14,18.46-.06,5.45,1.75,10.59,2.13,16,.47,6.84,1.24,13.77,1.06,20.58-.15,5.96-1.33,12.07-1.33,17.98-.57,3.62-.25,.46-4.4,17.9-1.25,5.26-1.76,7.57-3.14,7.85-2.34,.47-4.85-5.33-9.11-12.57-5.45-9.23-10.87-18.43-19.79-24.5-7.62-5.19-18.33-8.45-22.62-4.71-.85,.75-1.84,2.1-2.2,3.77-.76,3.5,1.59,6.69,3.14,8.79,2.35,3.19,5.52,5.68,7.74,8.97,2.28,3.38,3.91,7.37,5.46,11.14,2.99,7.3,6.34,14.44,9.63,21.6,2.37,5.15,3.8,10.77,6.92,15.56s8.36,6.81,13.29,9.33c0,0,9.43,4.82,22.62,14.14,2.16,1.53,6.06,4.36,8.48,9.42,.45,1.28,1.1,3.23,1.77,5.62,6.7,24.16,.19,42.78-5.2,70.93-1.95,10.2-4.35,24.73-5.99,42.65"/>
  <path class="cls-5" d="M245.44,379.5c-.04,.55-.07,1.14,.26,1.58,.5,.67,1.52,.6,2.35,.45,3.13-.55,6.26-1.1,9.39-1.65,1.07-.19,2.22-.43,2.92-1.26,.78-.94,.7-2.31,.58-3.53-.37-3.6-.63-7.24-1.11-10.83-.5-3.8-2.99-2.89-5.97-2.04-3.83,1.08-6.6,2.77-7.49,6.86-.71,3.27-.92,7.09-.92,10.42h-.01Z"/>
  <path class="cls-5" d="M842.06,106.1c-.04,.55-.07,1.14,.26,1.58,.5,.67,1.52,.6,2.35,.45,3.13-.55,6.26-1.1,9.39-1.65,1.07-.19,2.22-.43,2.92-1.26,.78-.94,.7-2.31,.58-3.53-.37-3.6-.63-7.24-1.11-10.83-.5-3.8-2.99-2.89-5.97-2.04-3.83,1.08-6.6,2.77-7.49,6.86-.71,3.27-.92,7.09-.92,10.42h-.01Z"/>
  <path class="cls-5" d="M711.95,349.65c-.73,4.64-1.46,9.27-2.19,13.91l15.75-.27c.91-.02,1.93-.08,2.53-.77,.49-.56,.54-1.37,.56-2.11,.14-4.28,.29-8.55,.43-12.83-4.44,.31-9.08,.81-13.87,1.55-1.09,.17-2.16,.34-3.22,.53h0Z"/>
  <path class="cls-5" d="M406.95,213.35c1.55,2.61,5.26,5.16,9.44,4.14,3.83-.93,6.44-4.45,6.51-8.25,.07-4.18-3.01-7.4-6.32-8.5-3.92-1.3-8.64,.23-10.19,3.18-.68,1.29-.67,2.7-.67,3.99,0,1.05,0,3.37,1.23,5.43h0Z"/>
  <path class="cls-5" d="M983.13,165.75c1.55,2.61,5.26,5.16,9.44,4.14,3.83-.93,6.44-4.45,6.51-8.25,.07-4.18-3.01-7.4-6.32-8.5-3.92-1.3-8.64,.23-10.19,3.18-.68,1.29-.67,2.7-.67,3.99,0,1.05,0,3.37,1.23,5.43h0Z"/>
  <path class="cls-10" d="M554.02,11.72c13.23,2.7,49.68,12.81,66.85,46.85,13.66,27.09,8.04,58.65-6.09,80.07-4.22,6.4-14.57,22.08-33.3,28.66-19.28,6.78-47.43,3.92-56.31,12-4.89,4.45-7.04,6.15-11.33,9.55-.75,.59-2.2,1.73-4.17,3.09,0,0-2.54,1.75-5.16,3.27-4.64,2.68-36.16,15.68-41.65,7.63-3.47-5.09,7.95-12,8.05-26.04,.09-13.37-10.18-19.59-18.94-32.58-13.31-19.75-17.59-46.89-12.19-68.88,8.26-33.67,38.95-51.27,43.21-53.62,29.16-16.16,58.45-12.56,71.03-9.99h0Z"/>
  <path class="cls-4" d="M505.41,99.54c-11.42-2.82-16.95-14.88-13.32-23.57,3.46-8.28,14.98-12.88,24.91-7.8,2.75-6.16,8.8-10.21,15.52-10.4,6.81-.2,13.15,3.61,16.2,9.72,10.12-5.37,22.23-.33,25.58,8.87,3.24,8.9-2.28,20.16-12.96,23.02v36.99h-55.76c-.06-7.33-.11-29.49-.17-36.82h0Z"/>
  <line class="cls-2" x1="522.58" y1="95.96" x2="522.58" y2="120.51"/>
  <line class="cls-2" x1="543.63" y1="95.96" x2="543.63" y2="120.51"/>
  <line class="cls-2" x1="560.31" y1="121.71" x2="505.91" y2="121.71"/>
  <path class="cls-7" d="M719.53,250.59c-1.37-4.36-5.79-20.48,2.04-37.83,9.27-20.55,28.76-27.36,32.3-28.52,3.33-1.09,29.46-9.18,49.58,7.94,13.37,11.38,20.53,30.86,16.09,46.44-5.17,18.12-24.74,26.4-25.82,42.89-.65,9.98,.6,16.52,.6,16.52,1.33,6.92,3.26,9.41,2.1,10.75-2.83,3.27-19.3-5.88-32.48-14.72-25.98-17.42-38.98-26.12-44.42-43.47h.01Z"/>
  <path class="cls-4" d="M751.07,232.58c-7.37-1.82-10.95-9.61-8.6-15.22,2.24-5.35,9.68-8.32,16.09-5.04,1.78-3.97,5.68-6.59,10.02-6.72,4.4-.13,8.49,2.33,10.46,6.28,6.53-3.47,14.36-.22,16.52,5.73,2.09,5.75-1.47,13.02-8.37,14.87v23.89h-36.01c-.04-4.74-.07-19.04-.11-23.78h0Z"/>
  <line class="cls-2" x1="762.16" y1="230.26" x2="762.16" y2="246.12"/>
  <line class="cls-2" x1="775.75" y1="230.26" x2="775.75" y2="246.12"/>
  <line class="cls-2" x1="786.52" y1="246.89" x2="751.39" y2="246.89"/>
</svg>