<?xml version="1.0" encoding="UTF-8"?>
<svg id="Ebene_1" data-name="Ebene 1" xmlns="http://www.w3.org/2000/svg" width="100%" height="100%" xmlns:xlink="http://www.w3.org/1999/xlink" viewBox="0 0 397.43 448.36">
  <defs>
    <style>
      .cls-1, .cls-2, .cls-3, .cls-4 {
        fill: none;
      }

      .cls-2 {
        stroke-linecap: round;
        stroke-linejoin: round;
      }

      .cls-2, .cls-5, .cls-6, .cls-4 {
        stroke: #343434;
      }

      .cls-7, .cls-6 {
        fill: #fff;
      }

      .cls-8 {
        fill: #ffe167;
      }

      .cls-9 {
        fill: #fff7d8;
      }

      .cls-10 {
        fill: #ffd299;
      }

      .cls-11 {
        fill: #997c59;
      }

      .cls-12 {
        fill: #b2efa7;
      }

      .cls-13 {
        fill: #ceaa82;
      }

      .cls-14 {
        fill: #c59b6d;
      }

      .cls-15 {
        fill: #e2c09f;
      }

      .cls-5 {
        fill: #e9fbe6;
      }

      .cls-5, .cls-6, .cls-3, .cls-4 {
        stroke-miterlimit: 10;
      }

      .cls-3 {
        stroke: #52a174;
        stroke-width: 2px;
      }

      .cls-16 {
        clip-path: url(#clippath);
      }
    </style>
    <clipPath id="clippath">
      <path class="cls-1" d="M-26.86,241.45c10.17-35.5,30.48-56.8,65.58-92.75,0,0,40.09-43.79,86.14-73.32,7.08-4.54,10.74-6.86,16.23-9.2,19.59-8.34,45.39-10.27,52.39-14.8,.48-.31,2.52-1.7,5.58-2.61,2.81-.84,5.07-.85,5.59-.86,8.99-.19,34.96-8.68,34.96-8.68,26.44-8.64,24.21-6.47,45.9-13.94,23.34-8.04,44.84-15.52,65.94-19.58,25.82-4.97,38.73-7.45,45.99-.81,4.28,3.92,4.66,8.33,9.7,55.4,1.26,11.75,1.94,18.22,2.04,19.4,2.14,26.82,.73,47.42,.16,56.46-3.66,58.17-2.59,64.07-4.56,112.7-.91,22.43-2.33,46.41-15.49,64.32-14.78,20.11-40.45,27.4-64.22,33.46-82.66,21.04-165.32,42.09-247.98,63.13-21.59,5.5-44.69,10.94-65.65,3.25-27.53-10.11-39.04-40.02-41.68-46.71-6.93-17.56-6.17-33.58-4.37-64.89,1.38-23.92,2.37-41.23,7.75-59.98h0Z"/>
    </clipPath>
  </defs>
  <g id="Ebene_3" data-name="Ebene 3">
    <path class="cls-7" d="M-26.86,241.45c10.17-35.5,30.48-56.8,65.58-92.75,28.33-29.01,50.29-51.34,86.14-73.32,37.91-23.25,49.68-20.48,94.59-31.04,2.82-.66,4.24-.97,5.02-1.15,34.55-8.09,61.08-17.79,79.34-24.54,4.96-1.83,10-3.44,14.96-5.29,9.91-3.7,13.71-3.38,28.43-7.64,5.28-1.53,5.93-1.82,9.13-2.6,4.4-1.08,11.72-2.88,18.64-3.06,5.69-.15,15.92-.43,22.47,4.85,9.34,7.53,3.9,20.46,8.94,58.47,1.48,11.21,1.89,9.6,3,18.88,3.08,25.77,.82,45.65-.03,53.92-5,48.61-2.19,54-4.56,112.7-.91,22.43-2.33,46.41-15.49,64.32-14.78,20.11-40.45,27.4-64.22,33.46-82.66,21.04-165.32,42.09-247.98,63.13-21.59,5.5-44.69,10.94-65.65,3.25-27.53-10.11-39.04-40.02-41.68-46.71-6.93-17.56-6.17-33.58-4.37-64.89,1.38-23.92,2.37-41.23,7.75-59.98h0Z"/>
    <g class="cls-16">
      <g>
        <path class="cls-10" d="M-15.2,92.55H421.39c1.93,0,1.93-3,0-3H-15.2c-1.93,0-1.93,3,0,3h0Z"/>
        <path class="cls-10" d="M-20.55,40.74H416.04c1.93,0,1.93-3,0-3H-20.55c-1.93,0-1.93,3,0,3h0Z"/>
        <path class="cls-10" d="M-20.55,392.37H416.04c1.93,0,1.93-3,0-3H-20.55c-1.93,0-1.93,3,0,3h0Z"/>
        <path class="cls-10" d="M-15.2,136.07H427.6c1.93,0,1.93-3,0-3H-15.2c-1.93,0-1.93,3,0,3h0Z"/>
        <path class="cls-10" d="M-15.2,187.36c57.74-.08,115.49-.16,173.23-.24l172.35-.24c32.41-.05,64.82-.09,97.22-.14,1.93,0,1.93-3,0-3-57.74,.08-115.49,.16-173.23,.24l-172.35,.24c-32.41,.05-64.82,.09-97.22,.14-1.93,0-1.93,3,0,3h0Z"/>
        <path class="cls-10" d="M-33.38,224.28c67.47,.05,134.95,.04,202.42-.05,67.13-.08,134.26-.24,201.39-.46,37.87-.13,75.74-.27,113.6-.44,1.93,0,1.93-3.01,0-3-67.47,.3-134.95,.53-202.42,.7-67.13,.16-134.26,.25-201.39,.28-37.87,0-75.74,0-113.6-.03-1.93,0-1.93,3,0,3h0Z"/>
        <path class="cls-10" d="M-56.87,272.99c73.78-.08,147.55-.16,221.33-.23l220.2-.23c41.4-.04,82.81-.09,124.21-.13,1.93,0,1.93-3,0-3-73.78,.08-147.55,.16-221.33,.23-73.4,.08-146.8,.15-220.2,.23-41.4,.04-82.81,.09-124.21,.13-1.93,0-1.93,3,0,3h0Z"/>
        <path class="cls-10" d="M-61.98,316.28c86.23-.41,172.45-.74,258.68-.99,85.79-.25,171.57-.41,257.36-.49,48.39-.05,96.78-.07,145.18-.06,1.93,0,1.93-3,0-3-86.23-.01-172.45,.06-258.68,.21-85.79,.15-171.57,.39-257.36,.71-48.39,.18-96.78,.39-145.18,.62-1.93,0-1.93,3.01,0,3h0Z"/>
        <path class="cls-10" d="M-60.68,353.51c74.5-.46,149-.78,223.5-.95,74.12-.17,148.24-.2,222.36-.08,41.81,.07,83.62,.18,125.43,.33,1.93,0,1.93-2.99,0-3-74.5-.28-149-.41-223.5-.4-74.12,.01-148.24,.17-222.36,.46-41.81,.17-83.62,.38-125.43,.64-1.93,.01-1.93,3.01,0,3h0Z"/>
        <path class="cls-10" d="M30.13,10.71c-.76,52.69-1.12,105.39-1.07,158.08,.05,52.69,.51,104.85,1.36,157.27,.48,29.57,1.1,59.14,1.84,88.7,.05,1.93,3.05,1.93,3,0-1.32-52.68-2.24-105.37-2.74-158.06-.5-52.42-.6-104.85-.29-157.28,.17-29.57,.48-59.15,.9-88.72,.03-1.93-2.97-1.93-3,0h0Z"/>
        <path class="cls-10" d="M86.4-4.89c4.18,28.47,4.2,57.32,4.29,86.03,.09,28.66,.18,57.31,.26,85.97,.09,28.66,.16,57.31,.27,85.97,.1,28.64,.51,57.27,2.83,85.83,1.29,15.86,2.75,31.74,2.17,47.67s-2.92,32.43-5.24,48.54c-.27,1.89,2.62,2.7,2.89,.8,2.04-14.1,4.08-28.21,5-42.44s.25-28.87-.9-43.3c-1.13-14.23-2.27-28.44-2.83-42.71-.58-14.61-.78-29.24-.87-43.86-.36-57.9-.37-115.79-.55-173.69-.1-31.9,.23-63.95-4.42-95.6-.28-1.9-3.17-1.09-2.89,.8h-.01Z"/>
        <path class="cls-10" d="M162.38,424.4c-6.67-26.62-6.39-54.21-5.13-81.43,1.27-27.56,3.2-55.04,.82-82.6-2.36-27.33-7.65-54.28-12.09-81.31-2.28-13.86-4.33-27.76-5.63-41.75-1.29-13.86-1.73-27.77-1.92-41.68-.39-27.67,.09-55.46-3.73-82.93-.49-3.51-1.05-7.01-1.69-10.49-.34-1.9-3.24-1.09-2.89,.8,5.01,27.57,4.95,55.68,5.21,83.6,.13,14.07,.34,28.16,1.33,42.2,.96,13.61,2.7,27.16,4.77,40.65,4.2,27.36,9.79,54.53,12.78,82.07,1.49,13.78,2.22,27.61,2.09,41.48s-.91,27.42-1.62,41.11c-1.38,26.97-2.46,54.26,2.57,80.95,.64,3.4,1.39,6.79,2.24,10.15,.47,1.87,3.36,1.08,2.89-.8h0v-.02Z"/>
        <path class="cls-10" d="M199.23,10.21c-2.62,57.82-5.25,115.83-1.12,173.65,2.05,28.72,6.37,57.21,8.62,85.91,2.25,28.69,2.33,57.48,2.25,86.24-.08,32.82-.19,65.64-.28,98.47,0,1.93,2.99,1.93,3,0,.08-29.29,.17-58.58,.25-87.87,.08-28.77,.26-57.57-1.49-86.3-1.75-28.74-6.05-57.23-8.53-85.9-2.47-28.69-3.18-57.51-2.94-86.3,.27-32.65,1.75-65.28,3.22-97.89,.09-1.93-2.91-1.93-3,0h.02Z"/>
        <path class="cls-10" d="M253.92,23.36c2.28,52.91,2.11,105.89,1.73,158.83-.38,52.67-.95,105.35,.53,158.01,.84,29.79,2.34,59.57,4.89,89.27,.16,1.91,3.17,1.93,3,0-4.52-52.73-5.73-105.67-5.85-158.57s.84-105.39,.61-158.08c-.13-29.83-.64-59.66-1.93-89.47-.08-1.92-3.08-1.93-3,0h.02Z"/>
        <path class="cls-10" d="M298.5-6.26V454.71c0,1.93,3,1.93,3,0V-6.26c0-1.93-3-1.93-3,0h0Z"/>
        <path class="cls-10" d="M346.96,.99V476.71c0,1.93,3,1.93,3,0V.99c0-1.93-3-1.93-3,0h0Z"/>
        <path class="cls-10" d="M395.16,1.59c.24,71.13,.49,142.25,.73,213.38,.24,70.76,.48,141.53,.73,212.29,.14,39.92,.27,79.84,.41,119.75,0,1.93,3.01,1.93,3,0-.24-71.13-.49-142.25-.73-213.38-.24-70.76-.48-141.53-.73-212.29-.14-39.92-.27-79.84-.41-119.75,0-1.93-3.01-1.93-3,0h0Z"/>
      </g>
    </g>
    <path class="cls-12" d="M112.3,172.42c-3.49,8.02-16.71,41.52,.89,76.78,2.15,4.31,20.74,39.96,62.81,47.2,26.8,4.61,55.6-4.4,74.98-23.48,20.42-20.11,29.72-50.34,26.06-78.77-3.77-29.33-21.62-57.18-48.14-70.27-28.26-13.95-55.76-4.48-62.58-2.17-36.45,12.36-51.18,44.18-54.02,50.71h0Z"/>
    <path class="cls-5" d="M126.07,177.03c-1.88,4.02-15.15,33.72,1.08,64.34,16.01,30.21,47.38,36.14,51.85,36.9,3.2,.55,37.22,5.81,61.01-17.47,18.02-17.63,20.24-41.93,21.11-51.36,.32-3.53,.69-7.72,.24-13.16-1.7-20.74-14.28-48.54-40.7-59.3-22.07-8.99-42.65-1.56-50.32,1.21-6.87,2.48-31.68,11.89-44.28,38.85h.01Z"/>
    <path class="cls-15" d="M426.88,258.37c-6.87-6.43-14.22-8.9-27.89-15.3-13.79-6.45-16.49-6.52-26.11-12.1-5.45-3.17-10.33-6.57-20.09-13.37-7.38-5.14-10.73-7.73-18.29-12.58,0,0-6.25-4.01-15.99-8.7-.17-.08-4.27-2.02-10.07-3.38-6.89-1.61-8.17-.52-8.6,0-.97,1.17-.89,3.43,.06,4.36,.53,.51,1.6,.89,3.26,1.47,.26,.09,.53,.18,.52,.2-.02,.09-3.7-1.07-8.02-1.53-3.52-.38-6.09-.62-7.46,.98-.06,.07-1.22,1.46-.78,2.82,.5,1.55,2.66,1.77,9.48,4.03,.08,.03,1.79,.6,3.84,1.77,.55,.31,1.76,1,1.69,1.18-.08,.2-1.63-.32-4.29-1.15-3.76-1.17-6.29-1.89-9.23-2.29-1.81-.25-3.23-.31-4.55,.49-.32,.19-1.4,.85-1.66,1.97-.11,.48-.26,1.86,2.15,4.18,3.45,3.32,7.03,3.64,12.81,5.89,5.01,1.95,9.43,4.47,9.27,4.87-.21,.55-8.9-2.3-9.8-2.59-10.11-3.32-14.39-5.84-16.4-3.99-1.19,1.09-.95,3.13-.92,3.32,.8,6.03,13.21,6.13,27.64,16.4,2.26,1.61,7.67,5.46,6.96,7.05-.59,1.33-5.68,1.51-9.24-.74-1.94-1.23-2.59-2.65-4.91-3.25-1.21-.31-3.7-.6-4.36,.44-1.32,2.05,4.09,9.95,11.79,13.39,6.28,2.8,12.39,1.88,18.37,.98,7.32-1.1,11.28-3.08,14.19-3.93,11.83-3.45,23.74,6.82,56.02,31.33,24.2,18.37,29.09,21.49,33.49,19.46,7.82-3.62,10.58-21.92,3.83-33.87-1.82-3.23-3.86-5.14-6.72-7.82h0Z"/>
    <path class="cls-13" d="M54.94,310.31c3.31-9.06,5.56-18.78,11.41-26.45,2.09-11.59,14.22-20.4,25.89-18.81-.49,1.17-.98,2.35-1.47,3.52,3.31-.79,7.81-1,9.03,2.18,.99,2.6-1.24,5.25-3.37,7.05-3.6,3.05-7.48,5.82-10.52,9.42-3.05,3.6-5.23,8.25-4.65,12.93,.59,4.68,4.64,9.05,9.35,8.83,4.62-.22,7.93-4.28,11.51-7.2s9.69-4.49,12.26-.65l-29.1,24.87c-12.58,10.75-25.42,21.82-33.48,36.27-7.94,14.23-10.66,30.73-16.61,45.9-.95,2.42-4.86,9.23-11.02,17.36-9.02,11.91-17.46,23.05-25.02,21.44-8.25-1.76-11.83-17.91-12.15-27.09-.14-3.83-.38-9.8,2.59-16.3,4.72-10.32,14.86-19.62,17.34-23.62,.13-.21,.63-1.04,1.46-2.03,1.22-1.47,2.42-2.31,2.72-2.65,1.9-2.13,3.79-4.26,5.66-6.41,3.79-4.34,7.53-8.73,11.13-13.23,7.08-8.83,13.69-18.08,19.14-28.01,3.05-5.56,5.73-11.33,7.91-17.29v-.03Z"/>
    <path class="cls-11" d="M33.55,57.14c7.17,4.96,14.41,9.96,22.45,13.33,10.91,4.58,21.01,6.02,26.33,6.79,12.59,1.82,18.69,2.24,18.69,2.24,6.47,.44,9.85,.33,14.41,2.38,1.6,.72,2.25,1.21,9.51,6.83,10.14,7.86,11.04,8.57,12.68,10.16,5.58,5.42,9.66,9.38,8.58,13.07-.83,2.81-4.41,4.68-7.31,4.84-1.79,.1-2.56-.49-7.55-2.74-4.36-1.97-7.01-3.16-10.22-4.08-1.02-.29-8.43-2.43-9.26-.76-.46,.93,1.31,2.67,1.69,3.04,2.62,2.56,5.34,2.27,9.79,3.87,1.78,.64,.74,.47,6.75,3.46,6.78,3.38,8.95,4.01,9.36,6,.26,1.27-.25,2.85-1.25,3.8-1.4,1.32-4.23,1.86-20.12-4.23-3.89-1.49-11.25-4.41-18.02-6.01,0,0-2.76-.65-6.97-.87-3.65-.19-6.16-.31-6.54,.65-.39,.98,2.35,3.56,7.84,8.68,1.13,1.05,2.28,2.1,2.92,3.91,.67,1.91,.84,4.84-.39,5.57-1.61,.96-4.76-2.34-10.54-6.95-6.72-5.37-7.66-5.07-12.46-8.87-11.13-8.8-10.45-13.84-19.34-21.38-4.74-4.01-9.89-6.16-20.19-10.45-6.9-2.87-17.21-6.76-33.2-10.99-24.23-6.41-32.83-6.03-37.87-14.08-3.97-6.34-3.83-13.51-3.8-14.01,.33-6.06,3.13-10.32,6.05-14.77,2.42-3.68,4.85-7.3,9.57-9.83,.41-.22,4.27-2.25,8.51-2.5,9.07-.54,13.8,7.4,29.33,19.69,5.36,4.24,10.59,7.33,20.57,14.23v-.02Z"/>
    <path class="cls-14" d="M112.75,226.56c.8-2.09,2.01-3.43,2.84-4.31,4.06-4.32,6.09-6.49,9.21-8.32,1.18-.69,5.02-2.85,10.62-3.82,3.11-.54,11.99-2.09,18.05,2.49,2.32,1.75,3.77,4.06,3.96,4.37,1.06,1.72,1.97,3.2,1.87,5.16-.18,3.41-3.28,5.53-3.81,5.9-2.21,1.52-4.37,1.62-6.51,1.84-7.82,.82-6.74,2.44-15.19,3.49-3.48,.43-6.51,.35-12.58,.19-5.94-.16-8.15-.56-8.97-2.1-.79-1.49,0-3.55,.51-4.89h0Z"/>
    <path class="cls-14" d="M143.99,141.67c2.12-1.07,4.15-1.02,6.21-.87,5.76,.41,8.63,.61,11.3,1.72,4.58,1.9,7.28,4.83,8.98,6.71,4.85,5.38,7.98,12.72,7.48,18.88-.24,2.98-1.29,5.28-1.49,5.7-.86,1.83-1.6,3.4-3.3,4.39-2.95,1.71-6.42,.29-7.02,.04-2.48-1.02-3.75-2.78-5.11-4.44-4.97-6.1-5.73-4.31-11.23-10.8-2.11-2.49-4.85-5.68-7.05-10.42-1.62-3.51-2.86-6.28-1.61-8.53,.73-1.32,2.06-1.99,2.83-2.38h.01Z"/>
    <path class="cls-14" d="M119.25,174.89c1.58-1.55,3.41-2.07,5.31-2.51,5.29-1.23,7.94-1.85,10.67-1.59,4.68,.44,8,2.33,10.09,3.55,5.99,3.49,11.01,9.23,12.44,14.92,.69,2.75,.44,5.11,.39,5.55-.22,1.88-.4,3.51-1.63,4.87-2.13,2.36-5.68,2.04-6.29,1.99-2.54-.23-4.21-1.46-5.93-2.58-6.31-4.11-6.45-2.28-13.36-6.6-2.65-1.66-6.08-3.76-9.48-7.42-2.52-2.71-4.47-4.86-4.03-7.23,.26-1.39,1.25-2.37,1.82-2.93v-.02Z"/>
    <path class="cls-14" d="M237.62,270.45c-1.77,1.06-3.55,1.12-5.37,1.1-5.07-.06-7.6-.08-10.02-.92-4.15-1.43-6.74-3.88-8.36-5.45-4.65-4.49-7.94-10.81-7.96-16.28,0-2.64,.73-4.73,.88-5.11,.61-1.66,1.14-3.09,2.56-4.05,2.46-1.67,5.6-.59,6.14-.41,2.25,.77,3.49,2.25,4.8,3.65,4.81,5.12,5.34,3.5,10.64,8.94,2.04,2.09,4.67,4.76,6.95,8.83,1.68,3.01,2.97,5.4,2.04,7.45-.54,1.2-1.66,1.87-2.3,2.25h0Z"/>
    <path class="cls-14" d="M264.88,183.58c.96,3.36-.81,6.53-1.66,8.06-.5,.89-1.93,3.28-7.12,7.13-3.56,2.64-5.71,4.3-9.13,5.58-6.49,2.43-14.12,2.7-19.42,.21-2.56-1.2-4.24-2.89-4.55-3.2-1.32-1.36-2.46-2.53-2.74-4.34-.48-3.14,2.01-5.69,2.44-6.13,1.78-1.82,3.79-2.34,5.75-2.97,5.03-1.61,5.88-2.71,8.6-4.13,2.03-1.06,3.58-1.58,4.95-2.05,10.61-3.66,13.91-6.64,17.38-4.86,1.29,.66,2.74,2.04,3.77,3.44,.45,.61,1.31,1.78,1.73,3.26h0Z"/>
    <path class="cls-14" d="M167.61,201.82c-.33-2.13,.29-3.87,1-5.61,1.98-4.85,2.96-7.28,4.67-9.28,2.93-3.42,6.23-4.93,8.33-5.86,6.01-2.67,13.23-3.3,18.42-1.14,2.5,1.05,4.19,2.6,4.5,2.89,1.34,1.26,2.49,2.34,2.86,4.09,.65,3.03-1.57,5.63-1.95,6.07-1.58,1.86-3.45,2.45-5.28,3.16-6.67,2.57-5.33,3.73-12.5,6.65-2.75,1.12-6.27,2.59-10.99,3.15-3.49,.41-6.23,.7-7.82-1.02-.93-1.01-1.14-2.34-1.26-3.11h.02Z"/>
    <path class="cls-14" d="M216.83,224.28c-.79,1.79-2.19,2.8-3.66,3.77-4.12,2.7-6.17,4.06-8.63,4.71-4.2,1.13-7.76,.61-10.02,.27-6.45-1-12.9-4.16-16.22-8.42-1.6-2.06-2.26-4.1-2.37-4.48-.5-1.63-.94-3.04-.38-4.56,.97-2.64,4.15-3.5,4.7-3.65,2.27-.62,4.17-.13,6.07,.26,6.95,1.4,6.4-.15,13.96,1.23,2.9,.53,6.63,1.19,10.91,3.15,3.17,1.45,5.64,2.61,6.13,4.72,.29,1.24-.21,2.36-.49,3.01h0Z"/>
    <path class="cls-14" d="M222.34,219.37c-.02,1.94,.83,3.42,1.77,4.9,2.63,4.13,3.94,6.19,5.9,7.79,3.36,2.75,6.81,3.75,9.01,4.37,6.28,1.76,13.46,1.58,18.25-.89,2.31-1.19,3.75-2.76,4.02-3.05,1.13-1.26,2.11-2.34,2.23-3.94,.21-2.77-2.33-4.86-2.77-5.22-1.81-1.49-3.74-1.83-5.63-2.27-6.91-1.61-5.76-2.78-13.21-4.64-2.86-.72-6.52-1.66-11.23-1.67-3.48,0-6.22,.02-7.54,1.72-.77,.99-.79,2.21-.79,2.91h0Z"/>
    <path class="cls-14" d="M185.5,130.02c1.05-1.77,3.1-3.04,5.14-3.21,5.04-.42,8.94,6.11,10.39,8.53,2.35,3.92,3.03,7.38,3.72,11.06,1.4,7.47,2.51,13.45-.74,18.84-2.29,3.8-7.09,7.86-10.48,6.72-2.28-.77-3.32-5.5-5.32-14.93-2.97-14.02-.56-10.69-2.68-19.04-.65-2.55-1.53-5.45-.03-7.97h0Z"/>
    <path class="cls-14" d="M230.31,137.31c2.03-.62,4.58-.15,6.43,1.16,4.56,3.23,3.71,11.02,3.4,13.9-.5,4.68-2.13,7.82-3.89,11.14-3.58,6.74-6.45,12.13-12.66,13.98-4.38,1.3-11.06,1.04-13.22-2.24-1.45-2.2,.68-6.58,5-15.25,6.42-12.89,6.35-8.63,9.87-16.54,1.08-2.42,2.17-5.28,5.06-6.16h.01Z"/>
    <path class="cls-14" d="M199.41,257.26c1.2-7.45,1.95-9.61,.36-11.9-1.82-2.61-5.46-3.59-8.28-3.27-4.71,.53-7.39,4.71-9.09,7.37-2.19,3.43-2.82,6.47-3.56,10.26-.99,5.04-2.21,11.72,.55,18.92,.96,2.51,2.13,5.43,5.17,7.4,2.24,1.45,6.28,2.89,9.02,1.22,2-1.23,2.13-3.41,3.23-11.31,1.62-11.7,2.43-17.55,2.61-18.68h-.01Z"/>
    <path class="cls-14" d="M88.81,288.7c.79-1.04,3.41-4.44,7.86-9.01,3.77-3.87,5.66-5.81,7.7-6.88,5.91-3.11,11.72-2.03,12.86-1.8,2.94,.6,7.64,1.56,9.66,5.65,2.21,4.48-.48,9.28-.69,9.64-1.42,2.45-3.41,3.57-6.64,5.33-20.78,11.31-20.08,9.4-22.57,11.89-.97,.97-3.31,3.51-6.31,3.38-1.37-.06-2.44-.66-3.19-1.09-.24-.13-3.84-2.23-4.66-5.41-.73-2.82,1.5-5.82,5.97-11.71h.01Z"/>
    <path class="cls-12" d="M287.15,134.17c-1.54-2.2-3.16-4.65-2.93-7.33,.27-3.15,2.95-5.47,5.46-7.41,6.5-5.01,13.14-9.83,19.91-14.45,2.74-1.87,5.7-3.77,9.02-3.88,2.75-.09,5.42,1.09,7.6,2.76s3.95,3.82,5.7,5.94c4.13,5.02,8.26,10.05,12.39,15.07,1.86,2.26,3.8,4.73,3.98,7.66,.17,2.75-1.28,5.32-2.83,7.59-7.43,10.89-18.56,19.21-31.11,23.25-1.94,.63-5.45,1.57-7.17-.07-.55-.52-.7-1.35-1.05-2.01-.65-1.23-1.58-2.35-2.38-3.49-3.56-5.07-7.11-10.14-10.67-15.21-1.97-2.81-3.95-5.63-5.92-8.44v.02Z"/>
    <path class="cls-12" d="M19.85,261.77c1.01,1.04,2.17,2.15,3.62,2.25,1.45,.09,2.73-.86,3.86-1.76,4.73-3.76,9.46-7.53,14.19-11.29,4.23-3.37,8.5-6.78,11.85-11.02,2.54-3.23,4.57-7.2,4.13-11.28-.4-3.65-2.68-6.79-4.97-9.66-5.29-6.64-11.03-12.93-17.17-18.8-.94-.9-1.97-1.83-3.26-2.01-1.28-.18-2.53,.43-3.68,1.01-5.86,2.99-11.73,5.99-17.59,8.98-3.48,1.78-7,3.58-10,6.08s-5.5,5.8-6.31,9.63c-.83,3.91,.16,8.04,1.98,11.6,2.55,5.01,6.39,8.82,10.24,12.78,4.37,4.5,8.74,9.01,13.11,13.51v-.02Z"/>
  </g>
  <g id="Ebene_2" data-name="Ebene 2">
    <path class="cls-6" d="M284.28,282.61c-9.05-.26-18.15,5.98-19.89,15.49-1.99,10.89,6.63,20.87,15.7,22.19,12.58,1.84,25.28-13.08,21.98-24.91-2.01-7.23-9.78-12.54-17.8-12.77h0Z"/>
    <path class="cls-8" d="M274.22,315.41c4.33,2.89,10.25,3.22,14.88,.82,3.3-1.71,5.85-4.63,7.75-7.83,1.85-3.12,3.17-6.73,2.76-10.34-.32-2.81-1.7-5.45-3.68-7.47s-4.55-3.41-7.27-4.17c-5.08-1.43-10.81-.6-15.1,2.47-3.39,2.42-5.79,6.25-6.44,10.37-.3,1.89,.31,3.22,.62,5.03,.36,2.11,.79,4.06,1.83,5.96,1.12,2.05,2.72,3.85,4.67,5.15h-.02Z"/>
    <path class="cls-6" d="M149.13,311.69c-10.45,0-18.57,10.1-17.84,20.18,.63,8.63,7.69,16.5,16.38,17.11,10.78,.75,20.29-9.93,19.16-20.77-.9-8.64-8.47-16.52-17.7-16.53h0Z"/>
    <path class="cls-4" d="M141.17,144.05c2.21-4.29,10.32-4.67,15.73-3.63,13.34,2.58,21.28,18.06,19.59,30.27-.35,2.54-.75,7.24-3.69,8.6-5.56,2.57-15.54-8.79-20.36-14.27-6.8-7.74-13.92-15.84-11.28-20.98h.01Z"/>
    <path class="cls-4" d="M238.5,268.72c-1.72,3.75-8.63,4.39-13.29,3.7-11.49-1.68-18.87-14.6-17.9-25.1,.2-2.18,.36-6.21,2.82-7.49,4.65-2.41,13.61,6.91,17.94,11.4,6.11,6.35,12.5,12.99,10.44,17.48h-.01Z"/>
    <path class="cls-4" d="M122.03,173.9c6.2-4.57,13.98-2.88,15.31-2.59,6.72,1.46,10.59,5.71,15.07,10.62,2.07,2.27,4.86,5.81,5.93,10.74,.69,3.21,.11,4.49-.25,5.06-1.71,2.76-6.35,2.64-8.15,2.59-5.73-.14-8.74-2.45-21.86-10.5-7.93-4.86-10.63-6.35-10.74-9.14-.13-3.24,3.34-5.8,4.69-6.79h0Z"/>
    <path class="cls-4" d="M203.05,181.28c-6.03-4.45-13.6-2.81-14.9-2.52-6.54,1.42-10.3,5.56-14.66,10.33-2.01,2.21-4.73,5.66-5.77,10.45-.68,3.13-.1,4.37,.24,4.93,1.66,2.68,6.18,2.57,7.93,2.52,5.57-.14,8.5-2.38,21.26-10.21,7.72-4.73,10.34-6.18,10.45-8.89,.13-3.15-3.25-5.64-4.57-6.61h.02Z"/>
    <path class="cls-4" d="M122.47,215.61c2.66-2.02,7.81-5.81,15.33-6.3,9.47-.62,21.26,4.11,22.09,10.93,.47,3.89-2.71,7.18-3.29,7.77-2.94,3.04-5.74,2.75-19.66,4.86-7.26,1.1-9.14,1.58-13.21,1.46-5.48-.16-10.15-.3-11.48-2.88-2.08-4.01,4.96-11.85,10.23-15.84h0Z"/>
    <path class="cls-4" d="M192.58,127.43c10.21,3.71,12.24,19.05,12.47,20.97,.47,3.97,1.65,13.78-4.64,19.22-.88,.76-5.11,4.21-8.43,2.82-3.53-1.47-2.78-7.04-4.67-21.14-1.88-14-4.17-19.94-1.1-22.09,1.97-1.38,4.9-.32,6.37,.22Z"/>
    <path class="cls-4" d="M185.46,286.76c-9.33-6.79-6.89-23.06-6.56-25.08,.68-4.19,2.37-14.55,10.39-18.25,1.12-.52,6.45-2.79,9.44-.4,3.17,2.54,.76,8-1.45,22.95-2.2,14.84-1.62,21.58-5.38,22.87-2.42,.83-5.09-1.12-6.44-2.1h0Z"/>
    <path class="cls-4" d="M236.34,138.95c5.81,3.97,5.76,17.74-.11,26.99-6.03,9.5-18.77,15.09-22.98,11.7-2.29-1.84-1.71-6.05-1.21-9.72,1.17-8.51,5.2-8.7,11.38-21.78,1.86-3.94,2.98-7.07,6.08-8.15,2.27-.79,5-.28,6.83,.97h.01Z"/>
    <path class="cls-4" d="M264.99,184.89c.25,9.76-12.17,18.92-23.57,20.84-2.77,.47-13.07,2.2-18.02-4.03-.63-.79-3.37-4.48-2.28-8.26,1.51-5.23,8.55-4.39,22.48-10.72,9.88-4.49,13.47-8.14,17.21-6.23,3.01,1.54,4.11,5.66,4.18,8.39h0Z"/>
    <path class="cls-4" d="M175.51,220.4c1.97,8.44,14.7,13.52,24.92,12.6,2.49-.22,11.71-1.04,14.57-7.5,.36-.82,1.89-4.6,.1-7.61-2.47-4.15-8.33-1.85-21.71-4.16-9.5-1.63-13.4-3.97-16.18-1.48-2.24,2-2.25,5.78-1.7,8.15h0Z"/>
    <path class="cls-4" d="M262.16,232.59c-5.7,8.29-21.55,4.05-22.38,3.81-8.02-2.25-17.65-8.68-18.04-16.59-.04-.9-.15-3.98,1.84-5.77,2.88-2.59,7.57-.12,17.56,2.65,14.99,4.14,20.68,3.07,22.51,7.5,1.57,3.81-1.24,8.02-1.5,8.4h.01Z"/>
    <path class="cls-3" d="M346.96,129.08c.07-.32,.16-.79,.15-1.35-.01-1.88-.97-3.24-2.75-5.66-1.9-2.57-2.84-3.86-3.17-4.23-3.64-4.16-8.05-7.22-10.6-8.84"/>
    <path class="cls-3" d="M322.42,102.34c-.11-.1-.23-.21-.34-.31-1.75-1.61-2.07-2-3-2.34-4.8-1.71-9.55,4.04-22.02,14.35-10.67,8.82-13.41,9.74-13.68,13.35-.05,.6-.01,1.14,.11,1.66,.57,2.5,8.2,10.03,11.57,13.69,.82,.89,1.44,1.61,1.75,1.97"/>
    <path class="cls-3" d="M296.86,144.81c7.47,12.02,9.72,18.46,14.81,18.51,.41,0,1.14-.03,4.64-1.66,7.83-3.64,13.3-7.72,14.85-8.88,11.64-8.76,17.47-13.24,17.57-17.92,.04-1.66-.6-3.11-1.87-6-4.1-9.34-9.15-10.84-19.02-23.16-1.48-1.85-1.75-2.29-2.62-2.76-4.49-2.41-10.05,2.56-23.93,10.88-11.88,7.12-14.72,7.62-15.53,11.14-.9,3.9,2.02,5.77,9.24,16.93,.65,1.01,1.27,1.98,1.85,2.92"/>
    <path class="cls-3" d="M-3.13,225.42c-1.85,1.16-3.04,2.6-3.45,3.77-.26,.76-.32,1.52-.32,1.52-.3,3.99,2.86,5.4,11.68,15.35,10.98,12.39,14.26,19.45,19.69,18.69,.41-.06,1.13-.2,4.34-2.34,6.23-4.14,10.67-8.33,12.62-10.28,.31-.31,.52-.52,.72-.73,3.11-3.17,7.62-8.12,13.34-15.62"/>
    <path class="cls-3" d="M34.94,197.97c-4.49-2.41-10.05,2.56-23.93,10.88-11.88,7.12-14.72,7.62-15.53,11.14-.9,3.9,2.02,5.77,9.24,16.93,8.99,13.9,11.18,21.37,16.66,21.43,.41,0,1.14-.03,4.64-1.66,7.83-3.64,13.3-7.72,14.85-8.88,11.64-8.76,17.47-13.24,17.57-17.92,.04-1.66-.6-3.11-1.87-6-4.1-9.34-9.15-10.84-19.02-23.16-1.48-1.85-1.75-2.29-2.62-2.76h.01Z"/>
    <path class="cls-4" d="M83.14,302.17c-1.61-4.42,3.58-10.18,9.62-16.89,8.15-9.05,13.44-14.91,21.48-15.04,5.43-.09,12.81,2.43,14.01,7.23,1.38,5.54-5.65,13.47-12.29,16.65-4.85,2.33-11,2.85-15.48,6.22-3.29,2.46-4.42,3.37-4.42,3.37-2.84,2.27-2.96,2.58-3.72,2.87-3.06,1.19-7.98-1.12-9.19-4.43v.02Z"/>
    <path class="cls-9" d="M122.01,220.46c-1.74,.7-3.83,1.76-3.81,3.63,.02,2.13,2.68,3.02,4.78,3.33,4.26,.62,8.52,1.25,12.78,1.87,2.26,.33,4.54,.66,6.81,.46,2.79-.24,5.51-1.3,7.73-3.01,.97-.75,1.85-1.62,2.73-2.49,1.57-1.56,3.14-3.12,4.71-4.67-.85-1.83-2.7-3.04-4.64-3.61s-3.99-.57-6.01-.58c-4.37,0-8.73,0-13.1-.02-2.23,0-6.12-.4-7.94,1.15-1.6,1.36-1.74,3-4.05,3.92v.02Z"/>
    <path class="cls-9" d="M126.68,177.02c-2.19,.49-4.87,1.54-4.94,3.79-.07,2.17,2.45,3.44,4.6,3.71s4.59,.19,6.13,1.71c1.75,1.72,1.65,4.93,3.74,6.21,1.99,1.22,4.56-.12,6.88,.19,2.21,.29,3.9,2.03,5.72,3.32s4.48,2.12,6.16,.65c1.23-1.92-.39-4.44-2.25-5.77s-4.17-2.38-5-4.51c-.56-1.45-.29-3.13-.88-4.58-1.28-3.14-5.33-3.44-7.95-4.86-1.7-.92-2.25-1.82-4.24-1.64-2.64,.25-5.39,1.21-7.98,1.79h0Z"/>
    <path class="cls-9" d="M172.97,192.21c-1.53,1.4-2.58,3.5-2.16,5.53s2.67,3.66,4.62,2.95c1.42-.52,2.22-1.99,3.37-2.99,2.08-1.81,5.09-1.9,7.84-2.16,4.99-.47,9.9-1.8,14.44-3.92,.83-.39,1.69-.84,2.12-1.64,.55-1.02,.22-2.34-.49-3.25s-1.75-1.51-2.75-2.09c-2.85-1.64-6.47-3.28-9.23-1.49-1.74,1.12-2.7,3.42-4.7,3.95-2.69,.71-4.66-.7-7.25,1.06-1.87,1.26-4.13,2.54-5.79,4.05h-.02Z"/>
    <path class="cls-9" d="M180.32,214.76c-1.48,1.08-1.59,3.27-1.1,5.04,1.34,4.8,5.97,8.15,10.84,9.25s9.95,.32,14.82-.78c2.81-.63,6.09-1.87,6.64-4.7,.49-2.52-1.68-4.91-4.12-5.73s-5.08-.54-7.65-.57c-3.2-.03-6.09-1.38-9.25-1.66-2.7-.24-7.81-2.58-10.18-.86h0Z"/>
    <path class="cls-9" d="M192.75,245.35c-2.39-.23-4.63,1.34-5.86,3.27s-1.69,4.2-2.28,6.38c-1.1,4.07-2.72,8.02-3.56,12.15s-.83,8.58,1.21,12.32c1.34,2.44,4.33,4.65,7,3.53,2.15-.9,2.85-3.38,3.29-5.55,.58-2.86,1.16-5.71,1.75-8.57,.83-4.07,6.37-22.78-1.54-23.54h-.01Z"/>
    <path class="cls-9" d="M209.86,245.55c-1.51,2.53-.69,5.75,.26,8.54,1.21,3.54,2.64,7.16,5.39,9.69,2.21,2.03,5.07,3.16,7.87,4.24,3.11,1.21,6.32,2.44,9.65,2.41,1.41-.01,3.12-.53,3.38-1.92,.15-.84-.32-1.66-.77-2.38-2.54-4.07-5.21-8.26-9.24-10.87-1.96-1.26-4.03-2.17-5.28-4.24-.89-1.47-.96-3.17-1.73-4.66-1.9-3.69-7.18-4.73-9.53-.82h0Z"/>
    <path class="cls-9" d="M232.76,216.28c-1.41-1.09-3.34-2.1-4.87-1.18-1.07,.65-1.46,2.07-1.25,3.3s.91,2.32,1.61,3.36c3.05,4.54,6.55,9.02,11.37,11.61s11.26,2.86,15.44-.67c1.84-1.56,3.15-4.25,1.99-6.37-.87-1.59-2.78-2.25-4.51-2.78-6.42-1.95-14.35-3.1-19.78-7.28h0Z"/>
    <path class="cls-9" d="M229.3,192.91c-1.73,.46-3.38,1.63-3.94,3.33-.77,2.39,.94,5.06,3.26,6.04,2.31,.98,4.99,.6,7.37-.21,2.38-.81,4.61-2.03,7.01-2.76,2.9-.89,5.97-1.04,8.95-1.61,2.98-.56,6.03-1.63,8.04-3.91s2.59-6.02,.62-8.32c-1.46-1.7-3.93-2.24-6.14-1.92s-4.25,1.36-6.24,2.39c-3.3,1.71-6.6,3.41-9.9,5.12-1.38,.71-2.59,1.47-4.08,1.64-1.66,.19-3.25-.24-4.94,.21h-.01Z"/>
    <path class="cls-9" d="M227.12,150.3c-.32,1.42-.16,2.94-.71,4.29-.75,1.86-2.63,2.96-4.18,4.24-2.28,1.88-4.04,4.51-4.46,7.43-.26,1.85,.05,3.82,1.08,5.38s2.82,2.66,4.69,2.64c1.76-.02,3.41-1,4.61-2.3s2.03-2.88,2.85-4.44c2.01-3.86,4.02-7.71,6.03-11.57,.79-1.52,1.6-3.1,1.7-4.81,.44-7.69-10.11-7.64-11.62-.88v.02Z"/>
    <path class="cls-9" d="M187.57,135.82c.84,7.13,1.68,14.26,2.52,21.39,.3,2.57,.89,5.56,3.21,6.7,1.65,.81,3.73,.33,5.17-.83s2.31-2.87,2.88-4.62c2.24-6.78-.22-14.17-3.35-20.3-1.19-2.32-2.91-5.86-5.11-7.27-3.97-2.55-5.72,1.55-5.32,4.93h0Z"/>
    <path class="cls-9" d="M148.36,142.67c-2.41,.88-3.83,3.84-3.02,6.27,1.19,3.56,5.8,4.72,7.86,7.86,1.54,2.35,1.6,5.73,3.89,7.37,1.38,.98,3.18,1.02,4.86,1.24s3.53,.83,4.25,2.36c.63,1.35,.15,2.92,.04,4.4s.5,3.34,1.98,3.5c1.22,.14,2.19-.99,2.79-2.07,4.21-7.6,1-15.7-5.08-20.95-2.85-2.47-5.46-3.23-8.57-5.02-3.09-1.78-4.57-6.6-9-4.97h0Z"/>
    <path class="cls-9" d="M100.71,282.07c-2.61,1.83-5.25,3.69-7.4,6.16s-3.8,5.66-3.99,9.16c-.07,1.18,.15,2.58,1.09,3.13,.76,.44,1.67,.12,2.46-.21,4.23-1.76,8.46-3.52,12.69-5.28,3.43-1.43,6.94-2.9,9.73-5.54,1.92-1.82,3.46-4.15,4.44-6.77,.47-1.26,.82-2.69,.45-4.02-1.03-3.7-6.4-3.75-9.11-3.16-3.71,.81-7.24,4.34-10.36,6.53h0Z"/>
    <path class="cls-2" d="M319.52,205.91c-2.39-1.06-7.1-3.12-11.94-4.93-2.05-.77-3.72-1.54-5.42-1.89-1.52-.31-2.95-.99-4.47-1.31-2.9-.61-6.14-.62-8.95,.4-1.66,.6-1.88,2.44-.95,3.77,.91,1.3,2.44,1.76,3.88,2.22,5.57,1.77,7.72,2.05,10.46,3.59,.95,.53,1.67,1.05,2.1,1.37"/>
    <path class="cls-2" d="M314.58,243.05c-2.28,.1-4.51,.29-6.91-.04-.33-.06-.78-.22-1.02-.4-1.49-.77-2.5-1.93-3.9-2.81-1.85-1.05-3.92-1.31-6.18-1.34-.96,.02-2.62,.45-2.04,1.66,.79,1.93,2.34,3.13,3.52,4.79,.97,1.7,2.03,3.27,3.31,4.82,.86,.85,1.91,1.47,3.07,2.17,3.44,1.7,7.05,1.44,10.86,1.91,1.65,.32,3.09,.67,4.74,.99,2.94,.37,5.68,0,8.49-.68,1.66-.43,2.99-.93,4.65-1.36,2.78-.9,5.08-2.16,7.79-2.73,8.26-1.61,15.35,3.47,21.92,7.76,.69,.34,1.28,.8,1.97,1.14,4.33,2.76,8.26,5.79,12.28,8.69,8.39,6.06,15.78,12.07,26.99,20.39,10.41,7.72,18.61,13.45,23,10.9,.87-.51,2.31-1.76,3.44-2.95,.78-.82,3.17-3.4,4.42-6.88,1.84-5.13-.47-7.58,.29-17.92,.1-1.37,.17-1.47,.14-2.14-.23-4.57-2.71-9.01-6.06-11.51-1.89-1.41-3.68-1.93-4.61-2.21-12.55-3.77-21.2-9.57-34.63-15.64-2.39-1.08-4.55-1.98-6.94-3.06-1.38-.68-2.54-1.38-3.8-1.97-5.37-3.37-10.35-7.01-15.93-10.36-2.54-1.38-5.08-2.77-7.43-4.39-5.4-3.59-10.04-7.91-15.53-11.38-3.02-1.75-6.03-3.5-9.05-5.25-3.58-2-7.06-3.15-10.83-4.91-.81-.43-1.4-.89-2.21-1.32-1.73-.95-3.5-1.37-5.34-1.45-1.23-.61-2.31-1.02-3.16-1.29-1.77-.57-2.91-.7-3.19-.72-.09,0-.33-.03-.79-.06-2.26-.15-1.3-.02-3.67-.09-.37,0-.97-.03-1.51,.31-.23,.14-.35,.29-.39,.34-.33,.42-.32,.93-.31,1.17,.02,.64,.35,1.81,1.47,2.78,.95,.82,1.65,.8,3.69,1.42,1.88,.57,3.19,1.14,4.96,1.94,1.07,.48,2.61,1.25,4.41,2.41"/>
    <path class="cls-2" d="M313.24,212.23c-.81-.3-2.04-.76-3.56-1.29-2.39-.84-3.25-1.08-6.64-2.2-5.33-1.76-5.09-1.77-6.09-1.97-2.79-.57-2.91-.13-6.05-.83-1.69-.37-2.47-.68-3.88-.56-1.06,.09-2.83,.24-3.63,1.57-.73,1.22-.27,2.81,.29,3.71,.68,1.1,1.73,1.56,3.76,2.41,1.57,.66,2.81,.97,2.95,1.01,1.4,.36,2.45,.78,12.16,5.72,3.96,2.02,4.41,2.27,4.36,2.39-.14,.37-4.64-1.11-14.56-3.99-1.6-.47-2.36-.68-3.49-1.13-2.24-.9-2.57-1.38-3.87-1.58-.51-.08-3.16-.48-4.35,1.06-1.09,1.41-.41,3.74,.52,5.05,.68,.96,1.24,1.02,3.87,2.83,1.51,1.04,2.03,1.5,2.91,2.14,2.74,1.98,5.29,2.97,7.93,4.11,4.13,1.8,8.89,3.87,13.27,7.06,2.65,1.93,4.54,3.83,5.64,5.01"/>
    <path class="cls-2" d="M72.5,289.67c2.31-3.54,4.21-6.24,5.54-8.05,1.12-1.53,1.76-2.35,2.74-3.6,1.57-2,2.36-3.01,3.05-3.61,.86-.76,2.2-1.47,4.84-2.84,2.66-1.39,4.02-2.09,5.11-2.29,1.99-.37,1.79,.26,4.53-.11,0,0,1.96-.27,4.3,0,.26,.03,.7,.09,1.01,.42,.65,.71,.19,2.09,.04,2.55-1,2.99-6.86,4.17-7.7,4.33-.51,.72-1.18,1.52-2.02,2.32-1.45,1.38-2.91,2.28-4.05,2.85-.49,1.66-1.25,3.71-2.48,5.92-1.16,2.09-2.42,3.74-3.51,5-.07,1.3-.31,3.2-1.2,5.27-.86,2.01-1.56,2.45-1.62,3.81-.08,1.94,1.27,3.43,2.83,5.18,2.02,2.24,3.29,3.66,4.98,3.61,1.71-.05,1.67-1.54,5.65-3.87,1.47-.86,2.16-1.06,3.37-2.08,1.27-1.08,1.45-1.67,2.48-2.61,1.48-1.35,3.02-1.86,4.46-2.34,1.65-.55,5.29-1.77,8.07-.14,.88,.52,1.01,.94,1.04,1.04,.16,.6-.17,1.37-3.61,4.67-1.89,1.82-1.87,1.66-2.54,2.44-.51,.59-1.23,1.49-2.46,2.75l-.37,.37c-1.79,1.78-4.35,3.98-4.4,4.02-1.78,1.53-2.99,2.85-5.27,5.34-2.72,2.97-2.6,3.22-3.89,4.35-2.16,1.9-3.92,2.45-6.8,3.72-1.78,.78-7.7,3.39-12.41,7.02-.71,.55-3.12,2.46-6.4,6.45-5.2,6.34-8.3,12.73-11.62,20.39-5.53,12.77-9.17,21.45-13.4,31.21-2.44,5.64-4.34,9.9-6.7,14.87-5.12,10.82-9.4,17.25-14.47,23.15-1.15,1.34-2.07,2.31-2.88,3.18-8.07,8.59-12.1,12.89-14.98,12.6-6.42-.65-9.47-17.5-12.02-31.58-.21-1.17-.58-3.38-.36-6.23,.17-2.21,.76-5.57,4.25-11.92,4.99-9.06,10.65-14.65,13.65-18.63,.3-.4,1.36-1.83,2.99-3.57l.02-.02c4.82-5.12,6.64-8.56,18.45-23.06,3.83-4.7,5.46-6.57,7.39-9.73,1.29-2.11,2.64-4.19,3.92-6.31,.82-1.37,1.35-2.28,2.26-3.49,1.6-2.13,3.07-3.44,3.59-3.93,2.96-2.81,4.39-6.84,6.58-13.19,1.51-4.37,2.78-9.31,3.21-10.97,.55-2.16,.81-3.34,1.49-5.29,.23-.66,1.08-3.06,3.47-7.65,3.34-6.41,4.38-6.89,5.78-10.58,.05-.14,.72-1.9,1.83-4.15,1.2-2.45,1.75-3.12,1.96-3.35,1.02-1.17,1.67-1.26,4.07-2.69,3.62-2.16,3.44-2.74,5.99-3.9,.27-.12,.23-.1,4.32-1.46,4.46-1.48,5.42-1.81,6.24-1.24,.9,.62,1.28,2.08,.83,2.97-.34,.67-1.06,.84-2.68,1.29,0,0-1.23,.34-5.15,1.54-2.3,.7-3.66,1.26-4.81,1.83-1.21,.6-1.75,.98-2.08,1.24-.47,.37-.99,.84-2.31,2.45-.81,.98-1.21,1.47-1.94,2.48-.67,.92-2.23,3.28-4.23,6.46"/>
    <path class="cls-2" d="M90.3,267.9c.6-.07,1.49-.14,2.56-.09,1.07,.05,1.78,.2,3.3,.5,.87,.17,2.21,.43,3.89,.74"/>
    <path class="cls-2" d="M107.79,96.1c.69,.2,1.78,.52,3.13,.9,3.5,1.01,6.77,1.97,13.31,3.9,1.03,.3,2,.59,3.3,1.1,1.68,.66,2.06,.96,4.58,2.15,1.75,.83,3.3,1.59,5.41,2.37,.58,.21,1.85,.67,3.65,1.39,1.74,.69,2.7,1.11,3.67,2.01,.71,.66,1.31,1.22,1.35,2.03,.07,1.39-1.55,2.54-2.64,3.01-.61,.26-1.59,.55-4.23,.17-1.65-.24-2.46-.52-6.83-1.83-2.7-.81-3.53-1.04-4.7-1.29-1.68-.36-2.81-.48-3.69-.61-4.11-.58-8.18-1.82-11.74-2.9-2.46-.75-4.68-1.51-5.32-.67-.26,.34-.16,.83-.14,.88,.17,.74,1.06,1.14,3.69,1.96,1.38,.43,2.36,.7,2.93,.86,0,0,2.13,.61,4.58,1.48,2.11,.75,3.65,1.42,5.51,2.22,2.18,.95,2.25,1.04,3.87,1.74,4.28,1.85,4.53,1.5,6.49,2.5,2.75,1.41,6.6,4.33,6.05,6.36-.28,1.05-1.66,1.59-2.54,1.93-1.13,.44-2.31,.55-4.24,.31-2.53-.32-3.99-.94-6.12-1.61-1.86-.58-1.51-.35-6.31-1.51-2.17-.53-6.62-1.64-11.64-3.14-4.22-1.26-4.75-1.56-6.63-2.09-3.65-1.03-9.1-2-16.53-1.3,.4,.35,1.03,.93,1.74,1.71,1.69,1.82,2.06,2.78,3.35,4.03,1.38,1.33,1.68,.93,3,2.09,0,0,4.22,3.7,3.24,9.9-.05,.3-.14,.69-.46,.89-.36,.22-1.01,.2-2.51-.79-1.63-1.08-2.37-2.05-3.29-2.95-1.23-1.22-2.4-1.88-4.73-3.21-2.35-1.34-2.75-1.22-5.09-2.65-.98-.6-.98-.67-2.91-1.93-2.41-1.58-3.41-2.13-4.14-2.62-2.11-1.4-3.02-2.89-5.41-6.26-.31-.44-4.51-6.32-9.02-11.47,0,0-2.67-3.05-5.47-4.75-1.45-.88-2.78-1.48-2.78-1.48-.81-.36-1.12-.45-2.03-.85-1.38-.61-2.35-1.17-2.65-1.34-1.96-1.09-10.68-5.16-16.1-7.51C15.44,82.6-.02,78.04-.02,78.04c-6.95-2.05-13.85-4.29-20.82-6.27-8.18-2.32-11.54-3.11-14.1-6.47-3.99-5.23-3-12.44-2.22-15.53,1.32-5.24,4.14-9.96,6.91-14.59,4.76-7.95,7.39-11.78,10.92-12.24,0,0,5.11-.67,12.98,5.09,.64,.47,1.41,1.04,1.41,1.04,.45,.33,.78,.58,.8,.6,1.8,1.35,20.14,14.03,20.14,14.03,7.78,5.38,7.41,5.5,14.9,10.57,2.7,1.83,5.59,3.78,9.52,6.23,11.59,7.24,18.99,10.56,22.54,12.07,3.67,1.55,6.38,2.49,9.66,3.13,2.63,.51,3.07,.32,8.91,.86,1.02,.09,5.02,.57,13.02,1.52,3.35,.4,6.68,.93,10.04,1.23,.39,.04,2.1,.19,4.35,.57,2.03,.35,3.26,.56,4.8,1.15,.61,.23,.47,.22,3.72,1.86,2.95,1.49,3.1,1.52,3.64,1.94,1.33,1.06,1.01,1.35,2.79,2.96,1.23,1.11,1.85,1.39,1.94,2.11,.11,.9-.7,1.74-1.39,2.3"/>
    <path class="cls-2" d="M105.39,86.9c.97,.4,2.52,.97,4.48,1.44,2.35,.55,2.79,.36,5.48,.98,2.21,.51,3.89,1.1,5.12,1.54,1.5,.53,2.24,.8,3.13,1.27,1.32,.7,1.53,1.06,3.18,1.96,.34,.18,1.08,.55,2.57,1.25,2.31,1.09,2.58,1.23,3.01,1.45,.93,.5,.6,.37,2.32,1.34,1.58,.89,2.04,1.1,2.64,1.72,.29,.3,.14,.22,.95,1.22,1.09,1.36,1.31,1.46,1.35,1.86,.12,1.09-1.29,2.02-1.44,2.11-.94,.6-1.9,.57-2.27,.54"/>
    <path class="cls-4" d="M111.87,170.65c-2.3,4.91-18.49,41.16,1.32,78.55,19.54,36.88,57.83,44.11,63.3,45.05,3.91,.67,45.44,7.09,74.48-21.33,22-21.53,24.71-51.18,25.77-62.7,.4-4.31,.84-9.42,.29-16.06-2.08-25.32-17.44-59.25-49.68-72.39-26.94-10.98-52.06-1.91-61.43,1.47-8.39,3.03-38.67,14.52-54.06,47.42h0Z"/>
    <path class="cls-8" d="M134.98,328.6c-.89,4.64,.49,9.68,3.71,13.13s8.23,5.18,12.87,4.33,8.75-4.31,10.27-8.78c1.86-5.45-.1-11.49-2.95-16.5-1.1-1.93-2.4-3.85-4.33-4.95-2.23-1.27-5.01-1.25-7.46-.51-2.38,.71-5.41,1.93-6.79,4.09-1.9,2.97-3.55,6.14-5.32,9.19h0Z"/>
    <path class="cls-6" d="M179.01,60.48c-10.45,0-18.57,10.1-17.84,20.18,.63,8.63,7.69,16.5,16.38,17.11,10.78,.75,20.29-9.93,19.16-20.77-.9-8.64-8.47-16.52-17.7-16.53h0Z"/>
    <path class="cls-8" d="M164.85,77.4c-.89,4.64,.49,9.68,3.71,13.13s8.23,5.18,12.87,4.33c6.08-1.12,8.92-6.36,10.27-8.78,.94-1.69,3.17-5.69,2.23-10.22-.58-2.83-2.33-5.51-2.7-6.08-.48-.73-.94-1.43-1.72-2.21-1.87-1.87-3.94-2.57-5.09-2.94-1.36-.44-4.2-1.37-7.46-.51-.75,.2-.95,.34-6.23,3.73-3.7,2.38-4.36,2.8-5,3.84-1.25,2.04-1.11,4.33-.89,5.71h0Z"/>
  </g>
</svg>