<?xml version="1.0" encoding="UTF-8"?>
<svg id="Ebene_1" data-name="Ebene 1" xmlns="http://www.w3.org/2000/svg" width="100%" height="100%" viewBox="0 0 413.23 397.16">
  <defs>
    <style>
      .cls-1 {
        stroke: #52a174;
      }

      .cls-1, .cls-2 {
        stroke-linecap: round;
        stroke-linejoin: round;
      }

      .cls-1, .cls-2, .cls-3 {
        fill: none;
      }

      .cls-2, .cls-3 {
        stroke: #343434;
      }

      .cls-4 {
        fill: #fffcf2;
      }

      .cls-5 {
        fill: #fff;
      }

      .cls-6 {
        fill: #fff5ce;
      }

      .cls-7 {
        fill: #fff8ee;
      }

      .cls-8 {
        fill: #fff5cd;
      }

      .cls-9 {
        fill: #fff2bf;
      }

      .cls-10 {
        fill: #fffef9;
      }

      .cls-11 {
        fill: #ffec9e;
      }

      .cls-12 {
        fill: #ffe680;
      }

      .cls-13 {
        fill: #c0f2b7;
      }

      .cls-14 {
        fill: #b99ac8;
      }

      .cls-15 {
        fill: #b2efa7;
      }

      .cls-16 {
        fill: #ceaa82;
      }

      .cls-17 {
        fill: #bf583d;
      }

      .cls-18 {
        fill: #c4654c;
      }

      .cls-19 {
        fill: #d9b79c;
      }

      .cls-20 {
        fill: #dcf8d7;
      }

      .cls-21 {
        fill: #52a174;
      }

      .cls-3 {
        stroke-miterlimit: 10;
      }
    </style>
  </defs>
  <g id="Ebene_4" data-name="Ebene 4">
    <path class="cls-5" d="M101.5,101.23c8.92-7.71,46.13-26.72,120.54-64.73,0,0,46.71-23.86,93.42-33.83,5.1-1.09,31.57-6.47,53.62,2.04,7.74,2.99,15.03,7.5,15.03,7.5,0,0,11.43,7.08,20.72,17.52,20.03,22.53,19.4,90.38,19.4,90.38-.52,56.04-9.89,92.94-19.91,131.23-6.7,25.58-14.07,47.42-33.85,63.02-6.02,4.75-11.56,7.77-23.08,12.56-39.41,16.38-71.6,24.06-126.16,38.56-28.49,7.57-36.77,10.01-45.42,12.76-27.2,8.62-31.18,11.69-44.93,14.75-10.44,2.33-34.71,7.74-61.54,.57-25.78-6.89-55.46-25.82-70.53-58.78-1.7-3.72-17.4-39.31-5.16-74.02,1.9-5.4,6.63-14.8,16.08-33.6,8.14-16.19,15.37-29.75,17.73-34.04,29.3-53.23,74.04-91.91,74.04-91.91v.02Z"/>
  </g>
  <g id="Ebene_2" data-name="Ebene 2">
    <path class="cls-19" d="M246.24,124c14.85,22.24,42.91,34.29,69.17,30.6,26.26-3.68,49.7-22.47,60.22-47.11,3.92-9.19,6.17-19.34,4.8-29.26-1.2-8.63-5.08-16.7-10.04-23.83-7.8-11.22-18.4-20.45-30.58-26.47-15.56-7.69-33.65-10.01-50.62-6.49-8.69,1.8-17.06,5.13-24.68,9.72-6.41,3.87-15.76,9.7-18.88,16.84-3.36,7.69-7.34,14.66-9.12,23.02-1.8,8.44-2.02,17.23-.69,25.76,1.5,9.68,5,19.07,10.42,27.2v.02Z"/>
    <path class="cls-18" d="M267.06,54.26c11.56-11.76,27.91-18.79,44.51-19.15,7.18-.15,14.59,.97,20.71,4.69,5.91,3.59,10.14,9.28,14.1,14.9,5.79,8.23,11.42,16.84,13.91,26.55,3.85,15.06-.69,31.83-11.22,43.37s-26.65,17.72-42.36,16.79c-15.09-.89-31.39-8.39-40.53-20.55-4.4-5.86-8.53-11.75-13.26-17.4-3.72-4.43-4.17-6.62-3.5-12.32,.5-4.21,1.43-8.36,2.76-12.39,3.02-9.12,8.11-17.6,14.88-24.49h0Z"/>
    <path class="cls-14" d="M274.42,69.98c-.7,1.74-1.09,2.69-.89,3.82,.5,2.81,4.25,4.53,7.05,4.68,2.87,.15,5.74-1.26,7.65-3.6,1.57-1.92,2.52-4.6,1.99-7.11-.36-1.69-1.5-3.14-2.93-3.85-.32-.16-.6-.21-1.14-.33-1.8-.41-3.26-.26-3.74-.2-.99,.12-2.86,.36-4.71,1.81-1.94,1.51-2.74,3.48-3.27,4.79h0Z"/>
    <path class="cls-14" d="M270.64,103.62c-.95,1.69-1.47,2.62-1.39,3.81,.19,2.95,3.91,5.17,6.83,5.67,2.99,.51,6.17-.59,8.46-2.75,1.88-1.78,3.2-4.41,2.95-7.04-.17-1.78-1.19-3.4-2.61-4.32-.32-.21-.61-.29-1.16-.48-1.84-.64-3.4-.67-3.9-.66-1.05,0-3.05,.02-5.16,1.27-2.22,1.31-3.29,3.24-4.01,4.51h0Z"/>
    <path class="cls-14" d="M303.14,81.86c-.7,1.59-1.09,2.46-.89,3.5,.5,2.58,4.25,4.15,7.05,4.28,2.87,.14,5.74-1.16,7.65-3.3,1.57-1.76,2.52-4.21,1.99-6.51-.36-1.55-1.5-2.87-2.93-3.53-.32-.15-.6-.19-1.14-.3-1.8-.37-3.26-.23-3.74-.18-.99,.11-2.86,.33-4.71,1.65-1.94,1.39-2.74,3.19-3.27,4.39h0Z"/>
    <path class="cls-14" d="M301.61,121.99c-.1,1.16-.22,2.57,.2,3.91,.94,2.98,4.55,5.53,8.34,5.41,4.07-.13,6.48-3.26,7.33-4.37,.85-1.1,2.83-3.84,2.12-6.88-.38-1.63-1.6-3.04-3.13-3.73-.35-.16-.64-.2-1.22-.32-1.84-.38-3.34-.25-3.98-.19-5.08,.47-7.62,.7-8.61,1.98-.77,1-.88,2.19-1.05,4.19Z"/>
    <path class="cls-14" d="M311.49,57.59c-.41,1.36-.63,2.11-.28,2.87,.87,1.9,4.61,2.4,7.23,1.97,2.69-.44,5.16-1.98,6.6-4,1.18-1.66,1.68-3.73,.82-5.41-.58-1.13-1.85-1.94-3.29-2.17-.32-.05-.59-.03-1.11-.02-1.73,.05-3.08,.44-3.51,.57-.9,.28-2.61,.8-4.12,2.17-1.58,1.44-2.04,2.98-2.35,4.01h0Z"/>
    <path class="cls-14" d="M342.06,93.8c-1.89,.1-2.92,.15-3.88,.81-2.38,1.63-2.42,5.72-1.41,8.29,1.04,2.64,3.52,4.62,6.45,5.35,2.41,.6,5.27,.33,7.36-1.2,1.41-1.03,2.27-2.66,2.34-4.26,.02-.36-.05-.63-.16-1.17-.36-1.79-1.1-3.04-1.35-3.44-.52-.84-1.51-2.42-3.59-3.47-2.19-1.1-4.33-.99-5.75-.92h0Z"/>
    <path class="cls-2" d="M255.17,38.47c-18.64,18.62-26.12,52.71-10.78,80.99,15.15,27.92,46.91,40.17,73.74,35.19,18.41-3.42,35.1-14.5,46.2-29.59,3.78-5.14,14.98-22.05,12.56-44.69-3.45-32.31-31.94-48.76-37.17-51.62-3.44-1.89-26.8-14.21-55.18-6.41-5.7,1.57-18.47,5.24-29.37,16.13h0Z"/>
    <path class="cls-2" d="M253.21,63.19c-3.59,5.08-8.44,19.88-4.9,35.31,4.69,20.43,21.5,30.7,28.43,34.93,6.03,3.68,18.69,11.18,35.98,10.14,18.28-1.1,37.6-11.5,47.06-30.03,7.8-15.27,5.67-29.74,5-33.54-3.61-20.4-18.14-31.66-23.14-35.54-4.57-3.55-14.72-11.2-29.75-12.67-10.95-1.07-18.77,1.69-31.13,6.06-11.7,4.14-15.45,7.82-17.4,10.58-.65,.92-1.71,2.61-4.37,6.5-3.15,4.61-5.44,7.77-5.79,8.26h.01Z"/>
    <path class="cls-3" d="M309.91,75.88c-3.55,.55-7.08,3.48-7.09,6.49,0,4.51,7.89,9.11,12.14,6.49,3.21-1.98,4.31-8.09,1.44-11.18-2.19-2.36-5.73-1.92-6.49-1.8h0Z"/>
    <path class="cls-3" d="M310.03,79.61c-1.47,.35-2.85,1.82-2.52,3.48,.32,1.64,2.13,2.54,3.6,2.28,1.89-.33,3.23-2.56,2.52-4.21-.55-1.29-2.23-1.89-3.6-1.56h0Z"/>
    <path class="cls-3" d="M302.63,119.59c-1.99,4.41,4.47,13.01,9.66,12.07,4.55-.82,8.15-8.97,5.28-13.13-3.12-4.51-13.06-3.13-14.94,1.06Z"/>
    <path class="cls-3" d="M311.84,119.75c-1.53,.03-2.72,1.39-2.87,2.72-.23,2.06,2.03,4.06,3.77,3.62,1.6-.4,2.59-2.8,1.81-4.53-.43-.94-1.45-1.84-2.72-1.81h.01Z"/>
    <path class="cls-3" d="M340.27,94.6c-2.49,1.34-4.33,4.16-4.03,6.82,.59,5.17,9.22,8.83,13.12,5.79,2.64-2.06,3.5-7.52,.41-10.95-2.36-2.62-6.37-3.35-9.5-1.65h0Z"/>
    <path class="cls-3" d="M342.44,101.21c.47,1.59,2.58,2.67,3.72,1.96,.83-.52,1.02-1.91,.62-2.89-.6-1.48-2.65-2.3-3.72-1.55-.73,.51-.86,1.67-.62,2.48Z"/>
    <path class="cls-3" d="M276.65,65.56c-3.33,3.16-3.34,9.06-.41,11.65,3.5,3.1,10.42,.82,12.77-3.55,1.02-1.89,1.53-4.83,.1-7.09-2.27-3.61-8.81-4.48-12.47-1.01h.01Z"/>
    <path class="cls-3" d="M279.69,69.92c-.22,1.19,.76,2.45,1.82,2.84,1.96,.72,4.52-1.4,4.36-2.74-.17-1.4-3.43-2.62-5.17-1.52-.12,.08-.85,.56-1.01,1.42h0Z"/>
    <path class="cls-3" d="M315.28,52.12c-2.71,2.02-4.43,6.34-2.68,8.67,1.46,1.94,4.77,1.73,6.64,1.18,4.34-1.29,7.83-6.46,6.42-9.21-1.31-2.56-6.96-3.19-10.38-.64h0Z"/>
    <path class="cls-3" d="M316.99,54.8c-.79,.68-1.71,2.01-1.28,2.78,.53,.97,3.16,1.06,4.5-.32,.87-.89,1.28-2.5,.64-3.21-.74-.82-2.72-.22-3.85,.75h-.01Z"/>
    <path class="cls-3" d="M271.1,102.17c-.94,1.55-.61,3.28-.42,4.34,.11,.59,.57,3.05,2.53,4.79,2.76,2.44,7.98,2.99,11.24-.22,2.94-2.89,3.27-7.82,.89-10.57-3.07-3.56-8.87-1.4-11.13-.56-1.91,.71-2.69,1.51-3.12,2.23h.01Z"/>
    <path class="cls-3" d="M277.44,103.39c-.97,.73-1.14,2.13-.67,3,.83,1.54,3.74,1.61,4.56,.33,.53-.83,.19-2.22-.67-3-.8-.73-2.2-1.1-3.23-.33h.01Z"/>
    <path class="cls-7" d="M311.01,98.94c-1.94,.83-3.47,1.48-3.51,2.48-.05,1.27,2.35,2.48,4.16,2.92,2.18,.54,2.81-.19,6.17-.24,3.98-.06,5.92,.92,6.34,.14,.42-.8-1.25-2.49-2.41-3.66-1.51-1.53-2.42-2.44-3.93-2.89-2.29-.69-4.31,.17-6.82,1.24h0Z"/>
    <path class="cls-7" d="M282.06,117.88c-1.94,.83-3.47,1.48-3.51,2.48-.05,1.27,2.35,2.48,4.16,2.92,2.18,.54,2.81-.19,6.17-.24,3.98-.06,5.92,.92,6.34,.14,.42-.8-1.25-2.49-2.41-3.66-1.51-1.53-2.42-2.44-3.93-2.89-2.29-.69-4.31,.17-6.82,1.24h0Z"/>
    <path class="cls-7" d="M337.69,71.66c-3.98,1.96-7.12,4.28-6.82,4.96,.29,.64,3.25-1.09,5.58,.41,1.5,.97,1.42,2.44,3.31,3.31,1.23,.57,2.37,.45,2.69,.41,2.53-.29,4.97-2.55,4.75-4.34-.17-1.42-1.93-1.82-1.74-2.7,.28-1.27,4.02-.77,4.84-2.67,.27-.62,.23-1.51-.21-2.07-1.94-2.46-11.44,2.21-12.4,2.69Z"/>
    <path class="cls-7" d="M291.5,52.54c.98,.63,1.73,1.28,2.07,2.27,.33,.97-.04,1.44,0,2.48,.07,1.96,1.5,4.45,3.72,4.96,1.17,.27,2.79,.04,3.72-1.03,1.49-1.7,.43-4.59-.41-5.99-.94-1.56-1.6-1.28-3.51-3.31-2.57-2.72-2.22-4.12-3.93-4.75-1.39-.51-2.8,0-5.17,.83-1.32,.47-2.93,1.04-2.89,1.65,.06,.82,2.99,.69,6.41,2.89h0Z"/>
    <path class="cls-7" d="M259.58,90.6c.62-.56,1.18-.11,1.9-.47,1.66-.85,.33-4.19,2.22-5.85,.1-.09,1.02-.43,2.85-1.11,2.37-.88,2.67-.93,3.01-.95,1.85-.09,3.28,.99,3.64,1.27,2.24,1.7,3.04,4.72,2.53,5.06-.68,.46-3.11-4.11-5.86-3.64-.68,.12-.9,.47-3.96,4.11-2.18,2.6-3.44,4.06-5.22,4.27-.31,.04-1.02,.11-1.42-.32-.53-.56-.32-1.79,.32-2.37h-.01Z"/>
    <path class="cls-15" d="M308.01,54.14c-.27,3.92-1.38,7.79-3.23,11.26-.72,1.35-1.95,2.82-3.45,2.5-1.17-.25-1.81-1.48-2.27-2.58-1.51-3.65-2.75-7.53-2.52-11.47,.16-2.71,1.67-8.53,5.04-8.95,1.82-.23,2.69,1.48,3.36,2.85,1.04,2.13,2.04,4.27,3.06,6.4h.01Z"/>
    <path class="cls-15" d="M288.59,119.51c-.14,1.04-.28,2.1-.11,3.14s.7,2.07,1.61,2.59c1.6,.92,3.63-.03,5.07-1.2,3.64-2.97,5.95-7.52,6.21-12.21,.1-1.81-.37-4.01-2.08-4.61-1-.35-2.13,0-2.97,.64-3.57,2.71-5.54,7.87-7.73,11.66h0Z"/>
    <path class="cls-15" d="M272.4,82.03c1.3-.58,2.62-1.17,4.03-1.38s2.94,0,4.06,.89c1.04,.83,1.61,2.18,1.65,3.51s-.39,2.65-1.05,3.81c-1.51,2.66-4.27,4.57-7.28,5.04-1.82,.29-8.09-.15-8.17-2.85-.04-1.3,2.31-3.35,3.07-4.33,1.23-1.57,2.46-3.13,3.68-4.7h.01Z"/>
    <path class="cls-15" d="M340.59,76.83c1.01-1,2.12-1.97,3.46-2.44s2.99-.33,3.99,.69c.86,.87,1.08,2.23,.83,3.43s-.92,2.27-1.65,3.26c-2.77,3.77-6.62,6.74-10.94,8.53-1.32,.55-5.75,2.67-4.94,.01,.72-2.37,2.37-4.77,3.73-6.81,1.61-2.4,3.46-4.64,5.52-6.67h0Z"/>
    <path class="cls-15" d="M322.55,100.77c4.41,.66,8.32,3.55,10.35,7.64,.89,1.79,3.65,10.42-.48,10.13-3.76-.26-6.2-6.68-7.47-9.72-1.07-2.56-1.88-5.26-2.39-8.05h0Z"/>
    <path class="cls-15" d="M325.1,64.99c1.03-1.82,2.65-3.29,4.56-4.16,1.23-.56,2.83-.79,3.79,.15,.83,.82,.8,2.16,.6,3.32-.83,4.77-3.66,9.26-7.63,12.04-2.13,1.49-2.96-.05-2.71-2.21,.35-3.05,.93-6.1,1.39-9.14h0Z"/>
    <path class="cls-1" d="M348.48,73.25c.14,.82,1.2,7.87-4.01,13.46-5.5,5.91-13.14,4.97-13.84,4.87,.62-2.36,2.42-7.86,7.55-12.56,3.91-3.58,8.01-5.1,10.3-5.77h0Z"/>
    <path class="cls-1" d="M298.9,47.96c1.16-2.34,2.78-3.89,3.83-4.76,3.34,3.55,5.2,8.45,5.05,13.32-.15,4.88-2.54,11.37-4.94,11.34-3.19-.03-8.05-11.62-3.94-19.91h0Z"/>
    <path class="cls-1" d="M294.76,109.05c.77-.69,3.09-2.76,4.57-2.04,1.15,.56,1.23,2.53,1.29,3.82,.24,5.52-2.97,9.48-2.97,9.48-2.15,2.66-6.45,5.93-8.25,4.75-2.43-1.58-.1-11.14,5.37-16.02h-.01Z"/>
    <path class="cls-1" d="M331.68,118.3c.86,.5,1.61,.87,2.15,1.12,1.69-4.05,1.21-8.93-1.24-12.57-1.17-1.74-7.9-7.02-9.69-5.49-.3,.26-.37,.63-.42,.9-.87,5.4,2.73,10.42,2.73,10.42,2.21,3.07,4.96,4.73,6.46,5.61h.01Z"/>
    <path class="cls-1" d="M322.63,69.21c-.78,3.65,.03,6.83,.71,8.72,3.96-1.72,7.27-4.91,9.13-8.8,1.98-4.14,2.26-10.23,.27-11.16-2.33-1.09-8.66,4.46-10.11,11.25h0Z"/>
    <path class="cls-1" d="M264.8,91.83c3.53,2.84,8.05,3.5,11.43,1.7,5.01-2.66,6.5-10.14,4.28-12.24-2.17-2.04-7.87,1.03-8.32,1.27-4.91,2.7-6.8,7.51-7.4,9.27h.01Z"/>
    <path class="cls-12" d="M251.61,297.76c-14.58-8.06-27.98-34.29-26.28-61.44,.19-3.05,2.59-42.32,31.34-56.4,11.13-5.45,23.83-6.57,36.22-7.03,9.89-.36,18.87-.44,29.08,4.16,9.37,4.23,15.42,10.5,20.31,15.57,3.65,3.79,8.72,9.12,12.94,17.23,7.03,13.49,7.24,26.05,7.27,31.96,.04,7.79,.13,24.36-11.02,39.99-7.44,10.42-16.41,15.57-21.11,18.19-19.19,10.73-37.84,9.2-43.8,8.63-11.05-1.06-20.32-4.49-23.57-5.71-5.76-2.17-10.1-4.42-11.38-5.13v-.02Z"/>
    <path class="cls-17" d="M320.21,290.12c16.35-8.75,27.75-26.12,29.29-44.6,.54-6.44-.07-13.01-2.13-19.14-1.96-5.81-5.17-11.11-8.37-16.35-3.66-6.02-7.48-12.2-13.23-16.27-5.03-3.57-11.14-5.22-17.14-6.61-8.5-1.97-17.21-3.55-25.9-2.78-15.89,1.41-30.67,11.06-38.97,24.68-8.3,13.62-10.15,30.83-5.66,46.13,3.82,13,12.11,24.69,22.84,32.91,2.05,1.57,4.08,2.61,6.6,3.13,2.93,.6,5.61,1.6,8.44,2.53,6.8,2.24,14.03,3.15,21.18,2.75,8.02-.46,15.95-2.58,23.04-6.38h.01Z"/>
    <path class="cls-8" d="M324.73,203.45c7.11,5.98,10.66,8.97,12.82,14.37,1.99,4.98,.84,6.87,0,23.25-.85,16.53,.08,19.29-2.77,25.25-1.23,2.58-4.16,8.51-10.36,11.71-3.03,1.56-4.6,1.33-9.08,2.58-7.57,2.12-9.92,4.71-15.27,7.09-9.5,4.22-24.32,5.93-32.69-.85-3.19-2.58-1.81-3.46-6.9-9.02-7.08-7.73-10.41-6.76-14.64-12.3-4.28-5.61-7.21-14.9-3.82-21.23,2.75-5.14,7.15-3.64,9.86-8.74,3.52-6.61-2.68-11.41-.42-20.71,1.93-7.96,8.47-12.74,10.71-14.37,2.36-1.72,4.38-2.65,20.57-7.19,9.41-2.63,14.13-3.95,15.22-3.95,10.08,.04,17.58,6.35,26.77,14.09v.02Z"/>
    <path class="cls-21" d="M250.91,239.78c.1,.47,.16,.58,.21,.58,.27-.02-1.02-4.94,1.02-9.23,1.16-2.43,3-3.84,3.97-4.58,2.76-2.11,5.5-2.68,6.85-2.94,3.96-.78,6.93,.04,10.4,1,.17,.05,1.25,.35,2.47,1.13,.79,.51,1.95,1.25,1.82,1.94-.11,.63-1.25,.96-1.96,1.16-1,.28-1.81,.26-1.87,.27-2.91,.07-5.86,.17-8.63,1.05-4.1,1.31-6.49,5.07-6.62,5.3-3.63,6.35,.9,15.44-.73,16.04-.18,.07-.46,.03-.89-.3-1.1-.9-2.87-2.58-4.23-5.22-1.29-2.5-1.67-4.79-1.79-6.18l-.02-.02Z"/>
    <path class="cls-21" d="M274.66,275.28c1.73,3.11,4.33,5.74,7.44,7.49,1.21,.68,2.95,1.14,3.81,.06,.68-.85,.33-2.11-.17-3.08-1.65-3.16-4.69-5.77-4.97-9.32-.24-3.1,1.72-5.88,3.02-8.7,.24-.52,.46-1.08,.46-1.65s-.29-1.19-.82-1.42c-.65-.28-1.39,.08-2,.46-2.22,1.39-5.52,3.52-6.15,6.27-.71,3.09-.41,6.74-.62,9.9h0Z"/>
    <path class="cls-21" d="M309.29,248.19c-2.5-.29-5.26-.6-5.36-1.4-.16-1.3,6.76-3.18,12.15-3.8,3.97-.46,5.5-.06,6.67,.55,2.72,1.41,3.92,4,4.25,5.09,.44,1.48,1.76,10.68-1.21,9.5-1.8-.72-2.64-2.6-3.65-4.33-.78-1.34-2.19-3.76-4.42-4.93-2.2-1.15-3.32-.09-8.42-.67h-.01Z"/>
    <path class="cls-21" d="M296.52,209.22c.27-.95,1.07-2.97,2.81-5.13,2.47-3.07,6.42-5.13,10.32-4.57,1.48,.21,3.18,1.2,3.03,2.69-.11,1.15-1.27,1.87-2.29,2.41-2.99,1.57-6.22,3.53-7.09,6.8-.56,2.11-.14,4.38,.3,6.18,.33,1.36,.56,2.75,.98,4.08,.32,1.03,.51,1.41,.33,1.57-.61,.53-4.26-2.69-5.61-3.88-1.37-1.21-2.05-1.81-2.37-2.32-1.82-2.89-.79-6.46-.4-7.81v-.02Z"/>
    <path class="cls-16" d="M286,238.05c-1.83,.21-2.96,2.6-2.74,4.46,.14,1.23,1.84,3.87,3.31,3.56,.23-.05,.4-.15,.69-.41,1.13-.97,2.38-2.05,2.45-3.57,.09-1.93-1.76-4.28-3.7-4.05h-.01Z"/>
    <path class="cls-16" d="M303.18,277.9c.47,1.36,1.98,1.85,5.01,2.82,.67,.22,1.35,.34,2.21,.28,.74-.05,1.5-.34,1.95-.94,.47-.63,.51-1.5,.27-2.25-.13-.4-.33-1.05-1.21-2-1.17-1.24-2.19-2.33-3.83-2.45-1.65-.12-3.66,.78-4.3,2.48-.09,.23-.42,1.1-.09,2.05h-.01Z"/>
    <path class="cls-16" d="M332.73,216.64c-1.98-.73-4.55,1.07-5.17,3.21-.85,2.93,2,6.42,4.23,6.2,1.85-.19,3.28-2.94,3.21-5.25,0-.19-.15-3.37-2.26-4.15h0Z"/>
    <path class="cls-16" d="M270.55,202.79c.56,1.01,1.94,1.4,4.76,1.84,1.18,.18,2.38,.37,3.55,.17,1.17-.2,2.34-.86,2.83-1.94,.53-1.16,.2-2.52-.14-3.75-.37-1.34-.82-2.33-1.65-2.76-.63-.32-1.25-.22-2.04-.07-3.5,.64-5.25,.96-5.93,1.6-1.24,1.18-2.19,3.44-1.38,4.91h0Z"/>
    <path class="cls-2" d="M224.21,231.35c-1.83,25.18,9.67,58.39,40.89,72.55,29.33,13.3,62.46,3.62,80.88-16.41,14.99-16.3,16.95-35.86,17.28-39.93,.3-3.71,1.46-21.9-9.7-40.68-14.04-23.61-37.33-30.91-43.18-32.54-4.11-1.15-41.15-10.85-66.96,13.77-16.92,16.13-18.77,37.24-19.21,43.24h0Z"/>
    <path class="cls-2" d="M242.9,210.84c2.31-4.74,5.3-10.7,11.71-15.9,10.67-8.66,23.18-9.01,34.5-9.33,9.74-.27,18.69-.53,28.79,4.38,10.23,4.97,15.8,12.41,21.28,19.71,5.58,7.44,10.35,13.82,11.26,23.15,.56,5.68-.87,10.54-3.75,20.03-4.39,14.45-6.59,21.68-11.26,27.22-9.94,11.78-24.53,14.31-32.23,15.65-5.91,1.03-16.47,2.73-28.79-1.25-23.2-7.5-32.89-28.81-34.11-31.6-10.75-24.66,.23-47.17,2.61-52.05h0Z"/>
    <path class="cls-3" d="M252.7,229.69c-6.28,9.69,3.05,22.45,4.68,22.19,.49-.08,1.06-1.47,.88-2.53-.16-.93-.63-1.78-1.01-2.64-1.83-4.22-1.18-9.42,1.64-13.06s7.68-5.58,12.23-4.88c3.61,.56,6.63-.28,6.82-1.18s-2.59-2.17-3.02-2.37c-4.94-2.26-16.84-3.83-22.22,4.47h0Z"/>
    <path class="cls-3" d="M296.14,212.71c.28,3.43,2.2,5.72,3.04,6.72,2.22,2.65,5.31,4.25,5.73,3.8,.34-.37-1.35-1.82-2.59-4.99-.52-1.34-1.26-3.22-1.14-5.36,.24-4.45,4.03-8.1,7.41-9.72,2.55-1.22,4.39-1.06,4.37-1.4-.03-.64-6.77-2.82-11.97,.78-3.25,2.25-5.17,6.25-4.85,10.17Z"/>
    <path class="cls-3" d="M317.16,248.6c.75,.32,2.85,1.36,4.15,3.53,1,1.66,1.2,3.45,3.01,5.62,.39,.46,.89,.96,1.41,.91,.82-.08,1.08-1.14,1.13-1.96,.17-2.89,.32-5.86-.58-8.62-.9-2.75-3.13-5.27-6-5.64-1.47-.19-2.47,.04-4.69,.69-8.76,2.57-12.08,2.84-12.02,3.61,.07,.85,4.11,1.23,5.5,1.35,4.56,.42,5.67-.54,8.09,.5h0Z"/>
    <path class="cls-3" d="M285.08,283.07c.81-.55-.17-3.96-1.45-6.23-1.45-2.57-2.79-2.9-3.39-5.04-.49-1.76-.09-3.66,.71-5.3,.48-.99,4.89-7.18,3.97-8.01-.32-.29-1.44,.32-1.9,.6-2.86,1.67-8.27,4.85-8.78,10.65-.73,8.35,9.39,14.32,10.83,13.34h.01Z"/>
    <path class="cls-3" d="M304.57,274.83c-.98,1.33-.71,3.38,.24,4.81,.93,1.4,2.73,2.2,4.37,1.83,1.64-.37,2.96-1.94,2.93-3.62-.01-.96-.43-1.89-1.02-2.66-.4-.53-1.18-1.62-2.58-1.89-1.01-.2-1.85,.13-2.23,.29-.29,.12-1.15,.47-1.72,1.24h.01Z"/>
    <path class="cls-3" d="M271.49,202.53c.28,2.05,1.89,3.74,3.98,4.08,2.07,.34,4.14-.72,5.08-2.59,.91-1.82,.49-4.21-.98-5.62-1.3-1.25-3.22-1.65-4.89-1.06-2.08,.73-3.5,2.9-3.19,5.19h0Z"/>
    <path class="cls-3" d="M327.47,218.71c-.34,.3-1.71,1.53-1.55,3.27,.09,1.06,.78,2.02,1.67,2.61s1.96,.85,3.03,.93c1.41,.1,2.98-.19,3.84-1.31,1.24-1.62-.03-3.99-.19-4.29-.24-.46-.92-1.76-2.42-2.27-2.23-.77-4.19,.91-4.37,1.07h-.01Z"/>
    <path class="cls-3" d="M281.69,244.98c.56,.83,1.43,1.17,2.03,1.39,1.43,.51,3.07,.47,4.42-.21,1.35-.69,2.37-2.05,2.52-3.56,.23-2.29-1.81-3.68-1.98-3.8-1.68-1.14-3.94-.96-5.47,.15-1.97,1.44-2.63,4.37-1.52,6.03h0Z"/>
    <path class="cls-18" d="M75.26,246.59c-13.57,7.36-24.62,18.82-31.25,32.42-6.62,13.6-8.79,29.26-6.13,44.29,2.28,12.85,8.25,25.46,18.31,34.36,9.13,8.08,21.22,12.71,33.42,13.8s24.49-1.21,35.67-5.68c16.36-6.53,30.73-17.95,39.13-32.93s10.46-33.59,4.13-49.87c-5.23-13.48-15.94-24.86-28.93-32.06-13.5-7.47-33.12-12.86-48.24-8.74-5.37,1.46-10.75,2.94-16.12,4.41h.01Z"/>
    <path class="cls-4" d="M117.86,265.32c-2.62,1.05-4.78,2-7.13,4.12-1.53,1.39-5.22,4.72-5.74,9.49-.22,2.02,.29,2.8,.3,8.95,0,.46,0,.95,.08,1.62,.16,1.21,.55,4.01,2.64,6.14,1.02,1.04,1.69,1.15,3.34,2.26,2.79,1.87,3.39,3.24,5.25,4.92,2.02,1.83,5.7,2.68,13.38,4.03,.45,.08,1.35,.23,2.55,.21,.16,0,.93,.06,1.72-.15,2.13-.57,3.55-.94,4.82-1.98,.96-.78,1.17-1.38,2.51-3.85,3.01-5.52,3.66-5.6,4.39-8.11,.51-1.76,.59-3.09,.7-4.96,.19-3.27-.18-5.62-.59-8.26-.68-4.33-1.5-5.97-2.42-7.27-.73-1.01-1.42-1.66-7.39-5.67-3.47-2.33-5.21-3.49-5.65-3.64-4.1-1.33-7.98,.23-12.75,2.14h-.01Z"/>
    <path class="cls-4" d="M93.56,287.69c2.28,3.69,3.41,5.53,3.58,8.24,.16,2.5-.63,3.17-3.4,10.31-2.79,7.21-2.78,8.57-4.92,10.79-.92,.96-3.09,3.16-6.31,3.68-1.57,.25-2.23-.08-4.4-.18-3.67-.17-5.08,.64-7.81,.91-4.83,.48-11.65-.92-14.37-5.15-1.04-1.61-.3-1.8-1.74-5.01-2.01-4.46-3.63-4.52-4.69-7.59-1.08-3.11-1.02-7.66,1.41-9.97,1.97-1.88,3.7-.57,5.65-2.43,2.53-2.42,.48-5.45,2.84-9.24,2.02-3.25,5.62-4.41,6.85-4.81,1.3-.42,2.33-.54,10.17-.18,4.56,.21,6.84,.31,7.32,.47,4.46,1.49,6.86,5.38,9.81,10.16h.01Z"/>
    <path class="cls-4" d="M135.43,327.49c2.27,3.69,3.41,5.53,3.58,8.24,.16,2.5-.63,3.17-3.39,10.3-2.79,7.2-2.78,8.56-4.91,10.78-.92,.96-3.08,3.16-6.3,3.67-1.57,.25-2.23-.08-4.4-.18-3.66-.17-5.08,.64-7.8,.91-4.83,.48-11.64-.92-14.36-5.15-1.04-1.61-.3-1.8-1.74-5-2.01-4.46-3.62-4.51-4.69-7.59-1.08-3.11-1.02-7.65,1.41-9.96,1.97-1.87,3.7-.57,5.64-2.43,2.53-2.41,.48-5.44,2.84-9.24,2.02-3.24,5.61-4.41,6.84-4.8,1.3-.42,2.33-.54,10.16-.18,4.55,.21,6.84,.31,7.32,.47,4.46,1.49,6.86,5.38,9.8,10.15h0Z"/>
    <path class="cls-13" d="M175.08,283.45c-5.32-14.72-14.29-23.63-19.01-28.22-5.48-5.33-18.17-17.6-38.38-21.24-23.23-4.18-41.5,6.13-54.52,13.48-8.58,4.84-13.11,9.58-15.96,13.37-1.17,1.56-2.44,3.46-6.22,11.37-12.5,26.2-13.52,36.67-12.55,44.31,0,.06,0,.12,.02,.15,0,0,1.49,11.59,6.84,22.6,3.65,7.5,18,29.52,46.11,38.99,7.04,2.37,25.59,8.62,46.82,1.65,27.46-9.01,40.64-33.95,43.99-41.01,.46-.98,.79-1.72,.9-1.97,1.61-3.69,11.46-27.2,1.96-53.48h0Zm-15.1,43.8c-7.02,18.53-21.38,27.81-26.51,31.12-4.12,2.66-11.1,7.07-21.32,8.89-12.55,2.23-22.52-.78-27.19-2.25-.74-.23-1.97-.62-3.57-1.19-32.61-11.7-39.55-38.65-39.55-38.65-5.35-20.3,5.39-37.81,9.84-45.07,3.05-4.98,13.04-20.76,33.29-28.19,12.99-4.77,24-3.82,26.49-3.57,15.72,1.59,34.63,10.24,45.22,28.81,13.06,22.9,4.92,45.86,3.31,50.1h-.01Z"/>
    <path class="cls-20" d="M98.54,273.14c-.74,5.3,4.41,8.99,5.07,9.45,1.09,.75,4,2.64,7.2,1.8,1.69-.44,3.07-1.76,3.9-3.3,.83-1.54,1.19-3.29,1.38-5.03,.28-2.53,.24-5.17-.76-7.51-.28-.67-1.78-3.29-4.73-4.07-3.18-.84-5.91,1.08-7.31,2.06-1.28,.89-4.24,2.97-4.75,6.61h0Z"/>
    <path class="cls-20" d="M69.45,302.72c-.64,5.34,5.14,9.23,5.89,9.72,1.22,.8,4.48,2.8,7.98,2.05,1.85-.39,3.32-1.67,4.18-3.2,.87-1.53,1.2-3.29,1.36-5.04,.23-2.55,.09-5.22-1.08-7.62-.34-.68-2.06-3.38-5.34-4.27-3.52-.95-6.47,.89-7.98,1.84-1.38,.86-4.57,2.86-5.01,6.53h0Z"/>
    <path class="cls-20" d="M121.63,329.77c-.5,4.34,4.31,7.53,4.93,7.93,1.02,.66,3.73,2.3,6.62,1.71,1.53-.31,2.74-1.34,3.45-2.58,.71-1.24,.97-2.67,1.1-4.09,.18-2.07,.05-4.25-.94-6.2-.28-.56-1.73-2.76-4.44-3.5-2.92-.79-5.35,.69-6.59,1.45-1.13,.69-3.77,2.3-4.11,5.28h-.02Z"/>
    <path class="cls-20" d="M126.17,295.8c-.54,4.9,5.06,8.57,5.78,9.02,1.18,.75,4.34,2.64,7.68,2,1.77-.33,3.16-1.49,3.96-2.89,.81-1.39,1.1-3.01,1.23-4.62,.18-2.34,.02-4.8-1.15-7.03-.33-.63-2.03-3.14-5.18-4-3.39-.93-6.19,.73-7.62,1.58-1.31,.77-4.34,2.57-4.71,5.94h0Z"/>
    <path class="cls-20" d="M80.24,338.44c-.56,4.64,4.45,8.01,5.09,8.43,1.06,.69,3.88,2.43,6.91,1.78,1.6-.34,2.87-1.46,3.63-2.79,.75-1.33,1.04-2.86,1.18-4.38,.2-2.21,.09-4.54-.93-6.62-.29-.59-1.79-2.94-4.62-3.7-3.05-.82-5.61,.78-6.91,1.6-1.19,.75-3.96,2.49-4.35,5.68h0Z"/>
    <path class="cls-2" d="M123.17,235.23c24.59,6.69,38.84,26.71,40.81,29.57,4.76,6.88,14.05,22.78,13.48,44.14-.49,17.97-7.71,30.52-13.75,41.01-4.59,7.98-9.19,15.77-18.59,22.29-1.64,1.14-10.08,6.85-22.95,9.02-17.23,2.9-31-2.44-42.81-7.28-15.1-6.18-30.45-13.81-40.04-27.01-9.8-13.48-12.21-31.44-8.76-47.75,5.03-23.78,18.09-38.71,23.15-43.72,12.68-12.55,26.18-17.55,30.28-18.95,8.72-2.97,15.6-3.5,17.43-3.62,1.49-.1,10.95-.65,21.76,2.29h0Z"/>
    <path class="cls-2" d="M111.72,246.51c5.86,.57,16.78,2.51,27.8,10.11,13.98,9.64,19.52,22.45,20.79,25.59,6.23,15.34,3.74,28.8,2.6,34.53-.78,3.93-3.79,17.11-14.59,29.82-4.16,4.89-12.17,14.31-26.17,18.69-12.51,3.92-23.01,1.7-30.53,.1-6.7-1.42-21.79-4.82-34.79-17.82-4.04-4.04-11.4-11.4-14.58-23.23-5.48-20.39,5.69-38.25,10.91-46.6,3.95-6.32,10.78-16.94,24.53-24.32,5.13-2.75,17.62-8.48,34.04-6.89v.02Z"/>
    <path class="cls-1" d="M82.55,295.59c-3.66-1.25-8.29-.28-10.7,2.95-1.82,2.44-1.64,5.18-1.58,5.88,.32,4.01,3.45,8.83,8.74,9.31,4.68,.42,9.34-2.71,10.24-7.48,.93-4.97-2.68-9.29-6.71-10.66h.01Z"/>
    <path class="cls-1" d="M101.52,268.33c-1.23,1.15-2.67,2.49-3.04,4.61-.43,2.47,.82,4.99,2.58,6.78,1.68,1.71,3.91,2.95,6.3,3.16s4.92-.7,6.39-2.59c1.34-1.72,1.7-4.03,1.57-6.21-.09-1.43-.28-5.53-3.51-7.57-2.41-1.52-5.07-.98-5.64-.87-2.27,.46-3.67,1.77-4.64,2.68h-.01Z"/>
    <path class="cls-6" d="M133.25,292.11c-1.17,.61-2.64,1.37-3.31,2.59-1.13,2.06-.14,5.66,2.52,7.39,2.36,1.54,5.64,1.33,7.78-.66,2.08-1.93,2.82-5.27,1.24-7.71-1.38-2.13-4.03-2.82-5.9-2.52-.87,.14-1.53,.48-2.34,.9h0Z"/>
    <path class="cls-6" d="M127.45,326.66c-1.02,.53-2.29,1.19-2.87,2.26-.98,1.79-.12,4.93,2.19,6.43,2.05,1.34,4.9,1.16,6.77-.57,1.81-1.67,2.45-4.58,1.08-6.71-1.2-1.85-3.5-2.45-5.13-2.19-.76,.12-1.33,.42-2.03,.78h-.01Z"/>
    <path class="cls-6" d="M86.82,335.22c-.95,.49-2.14,1.11-2.68,2.1-.91,1.67-.11,4.59,2.04,5.99,1.91,1.25,4.57,1.08,6.31-.53,1.68-1.56,2.28-4.27,1-6.25-1.12-1.73-3.26-2.28-4.78-2.04-.7,.11-1.24,.39-1.89,.73Z"/>
    <path class="cls-6" d="M77.08,299.44c-1.2,.62-2.69,1.4-3.37,2.64-1.15,2.1-.14,5.77,2.56,7.53,2.4,1.57,5.74,1.36,7.93-.67,2.12-1.96,2.87-5.36,1.26-7.86-1.4-2.17-4.1-2.87-6.01-2.57-.89,.14-1.56,.49-2.38,.92h.01Z"/>
    <path class="cls-6" d="M104.73,269.52c-1.09,.56-2.44,1.27-3.06,2.4-1.04,1.9-.13,5.24,2.33,6.84,2.18,1.42,5.21,1.23,7.2-.61,1.92-1.78,2.61-4.87,1.15-7.13-1.27-1.97-3.72-2.61-5.45-2.33-.8,.13-1.42,.45-2.16,.83h-.01Z"/>
    <path class="cls-1" d="M90.64,331c-.72-.16-4.21-.81-7.07,1.5-2.92,2.37-3.55,6.51-2.37,9.57,.94,2.43,2.82,3.68,3.58,4.17,2.25,1.45,6.93,3.16,10.35,.49,2.95-2.31,3.17-6.47,2.34-9.27-.91-3.06-3.45-5.73-6.83-6.46h0Z"/>
    <path class="cls-1" d="M121.83,329.26c-.75,4,1.81,8.36,6.15,9.35,4.24,.96,8.47-1.69,9.59-5.77,1.1-4.01-1.14-8.2-4.75-9.63-4.53-1.8-10.08,1.21-10.99,6.06h0Z"/>
    <path class="cls-16" d="M86.14,268.04c-1.58,.64-1.99,6.14,.17,7.2,1.14,.57,3.12-.06,3.81-1.44,.77-1.53-.44-3.22-.82-3.77-.67-.94-2.17-2.39-3.16-1.99h0Z"/>
    <path class="cls-16" d="M136.26,273.4c-1.71-.62-4.4,2.37-3.9,3.64,.47,1.18,4.03,1.78,5.06,.08,.73-1.21,0-3.3-1.16-3.72Z"/>
    <path class="cls-15" d="M100.1,308.95c-.58,.84,.29,2.97,1.97,3.67,2.25,.93,4.7-1.23,4.57-2.31-.18-1.5-5.59-2.75-6.54-1.36h0Z"/>
    <path class="cls-16" d="M116.62,347.46c-.45-1.8,5.36-5.7,7.19-4.46,1.08,.73,1.02,3.44-.36,4.96-2.13,2.35-6.48,.88-6.82-.5h-.01Z"/>
    <path class="cls-16" d="M141.84,318.89c-.45-1.8,5.36-5.7,7.19-4.46,1.08,.73,1.02,3.44-.36,4.96-2.13,2.35-6.48,.88-6.82-.5h0Z"/>
    <path class="cls-16" d="M62.95,317.15c1.09-.18,3.41,2.15,2.54,4.33-.65,1.61-2.75,2.41-3.62,1.83-1.4-.93-.37-5.91,1.08-6.16h0Z"/>
    <path class="cls-5" d="M101.91,314.9c-.04,.71-.21,.94-.38,1-1.03,.38-4.89-4.57-5.36-10.21-.25-2.91,.31-7.09,1.98-7.49,.32-.08,.68-.02,1.1,.21,2.76,1.5,2.87,7.06,3.01,9.74,.12,2.25,0,4.52-.36,6.75h0Z"/>
    <path class="cls-5" d="M101.05,312.12c1.87-3.24,5.24-5.57,8.93-6.17,1.62-.26,8.92-.37,7.42,2.74-1.36,2.82-6.92,3.2-9.58,3.47-2.25,.23-4.52,.22-6.76-.04h0Z"/>
    <path class="cls-15" d="M118.08,308.03c-1.9,3.22-5.3,5.51-8.99,6.07-1.62,.25-8.92,.27-7.39-2.82,1.39-2.81,6.95-3.13,9.62-3.37,2.25-.2,4.52-.17,6.76,.11h0Z"/>
    <path class="cls-2" d="M101.26,309.92c-.67,.55-1.2,1.05-1.56,1.41,2.79,2.6,6.91,3.69,10.62,2.8,1.77-.43,8.11-4.31,7.41-6.23-.12-.32-.4-.49-.61-.61-4.14-2.35-9.32-.93-9.32-.93-3.17,.87-5.36,2.61-6.53,3.57h-.01Z"/>
    <path class="cls-15" d="M98.49,297.44c3.14,2.02,5.31,5.5,5.74,9.21,.19,1.63-.05,8.93-3.09,7.28-2.76-1.5-2.87-7.06-3.01-9.74-.12-2.25,0-4.52,.36-6.75Z"/>
    <path class="cls-2" d="M99.76,314.32c.52,.69,1,1.23,1.35,1.61,2.71-2.69,3.94-6.77,3.18-10.51-.36-1.78-4.01-8.27-5.96-7.63-.33,.11-.51,.38-.63,.59-2.5,4.05-1.27,9.28-1.27,9.28,.75,3.2,2.41,5.45,3.33,6.66h0Z"/>
    <path class="cls-2" d="M93.87,319.27c1.4-.1,4.6-.55,7.31-2.99,.85-.76,1.48-1.56,1.94-2.28"/>
    <path class="cls-1" d="M132.15,290.02c-1.67,.87-3.76,1.95-4.71,3.7-1.6,2.93-.2,8.07,3.58,10.54,3.36,2.19,8.03,1.9,11.09-.94,2.96-2.74,4.02-7.5,1.77-10.99-1.96-3.04-5.74-4.02-8.4-3.59-1.24,.2-2.19,.69-3.33,1.28h0Z"/>
    <path class="cls-9" d="M61.49,127.99c.14-9.5,1.28-19.27,5.87-27.58,5.82-10.52,16.5-17.49,27.53-22.28,25.41-11.05,68.34-19.74,93.41,.75,11.41,9.33,18.48,22.48,18.48,22.48,1.28,2.39,4.62,8.69,6.4,16.26,4.79,20.39-4.44,38.66-9.63,48.93-9.71,19.23-23.46,31.26-32.51,37.82-2.72,1.18-6.04,2.48-9.9,3.71,0,0-5.13,2.03-10.3,2.72-10.67,1.43-21.47,1.82-32.21,1.16-12.17-.74-18.46-2.28-25.88-6.76-12.22-7.4-18.31-19.42-21.04-24.83-2.49-4.91-4.03-9.47-4.67-11.39-.53-1.59-2.7-8.04-4.13-18.2-1.06-7.54-1.54-15.16-1.44-22.78h.02Z"/>
    <path class="cls-11" d="M225.4,116.51c-2.96-11.63-10.15-21.88-19.01-29.97s-19.37-14.17-30.13-19.48c-16.31-8.05-34.23-14.58-52.32-12.66-30.55,3.24-49.81,23.15-59.85,33.84-7.08,7.54-9.76,13.74-11.26,17.47-1.13,2.82-4.04,10.76-3.56,29.2,.41,15.76,.75,28.36,7.36,43.15,1.61,3.6,7.55,16.57,19.18,26.88,23.58,20.9,60.09,21.6,86.68,12.32,36.06-12.58,55.45-44.02,61.65-67.1,2.94-10.96,4.04-22.65,1.24-33.64h.02Zm-18.86,25.55c-3.45,15.01-13.51,27.49-23.28,39.39-5.31,6.47-10.72,13.04-17.63,17.77-8.09,5.55-17.86,8.29-27.64,9.1-19.73,1.62-48.26-4.96-61.62-27.18-6.02-10.02-6.51-19.11-7.28-33.4-1.55-28.9,8.81-49.64,15.66-56.08,4.3-4.04,9.33-7.09,9.33-7.09,3.52-2.14,6.45-3.39,8.37-4.18,3.48-1.43,17.21-7.07,25.65-8.83,9.84-2.05,36.06-3.74,56.95,14.58,15.47,13.57,26.1,35.79,21.47,55.91h.02Z"/>
    <path class="cls-10" d="M94.22,186.38c-8.99-7.56-13.48-11.34-16.21-18.17-2.52-6.3-1.06-8.69,0-29.4,1.08-20.91-.1-24.4,3.5-31.94,1.56-3.26,5.26-10.76,13.11-14.81,3.83-1.98,5.82-1.68,11.49-3.27,9.58-2.68,12.54-5.96,19.31-8.97,12.02-5.34,30.76-7.5,41.34,1.07,4.03,3.27,2.29,4.38,8.73,11.4,8.96,9.78,13.16,8.55,18.51,15.56,5.41,7.09,9.11,18.84,4.83,26.85-3.48,6.5-9.04,4.61-12.47,11.05-4.45,8.36,3.38,14.43,.53,26.19-2.44,10.06-10.71,16.11-13.54,18.17-2.98,2.18-5.54,3.36-26.01,9.09-11.9,3.33-17.88,5-19.24,4.99-12.74-.06-22.23-8.03-33.86-17.82h-.02Z"/>
    <path class="cls-18" d="M87.32,131.31c.03,1.03,.07,1.91,.51,3,1.45,3.58,5.87,5.86,10.01,5.34,4.13-.52,7.65-3.63,8.62-7.34,.97-3.72-.52-7.82-3.54-10.46-.7-.61-2.56-2.07-5.3-2.2-3.38-.16-5.77,1.87-6.61,2.59-3.85,3.28-3.72,7.98-3.7,9.07h0Z"/>
    <path class="cls-18" d="M133.56,104.88c.48,3.12,2.84,5.6,5.42,6.74,4.25,1.87,9.37,.21,12.07-3.37,2.7-3.58,2.67-8.98-.08-12.53-2.52-3.25-7.25-2.27-8.08-2.12-5.09,.9-10.17,5.91-9.34,11.28h0Z"/>
    <path class="cls-18" d="M178.88,147.02c2.94,1.87,7.77,2.93,11.42,.85,2.62-1.49,4.04-4.27,4.12-6.99s-1.03-5.39-2.6-7.75c-1.22-1.84-2.8-3.59-4.98-4.54-1.68-.73-3.44-.84-4.98-.34-1.13,.37-1.87,.98-2.58,1.68-2.44,2.4-4.44,4.37-4.87,7.49-.06,.41-.75,6.29,4.46,9.61h0Z"/>
    <path class="cls-18" d="M107.87,182.86c2.29,2.45,6.39,4.44,10.71,3.8,1.08-.16,3.82-.73,5.87-2.85,3.15-3.28,1.98-7.51,1.77-8.27-1.13-4.11-4.84-6.21-6.89-7.38-1.52-.86-2.88-1.62-4.83-1.69-3.76-.15-6.43,2.34-6.8,2.7-3.57,3.43-3.55,9.72,.18,13.7h-.01Z"/>
    <path class="cls-15" d="M120.16,100.54c-.29,4.28-1.5,8.5-3.53,12.28-.79,1.47-2.13,3.08-3.76,2.73-1.27-.27-1.97-1.61-2.47-2.82-1.65-3.98-3-8.22-2.75-12.52,.17-2.96,1.82-9.31,5.5-9.77,1.98-.25,2.94,1.61,3.67,3.11,1.13,2.32,2.23,4.66,3.34,6.98h0Z"/>
    <path class="cls-15" d="M158.96,116.72c-.15,1.14-.3,2.29-.12,3.43s.76,2.26,1.76,2.83c1.75,1,3.97-.03,5.53-1.31,3.97-3.25,6.49-8.2,6.78-13.33,.11-1.98-.4-4.38-2.27-5.03-1.09-.38-2.33,0-3.25,.7-3.9,2.96-6.05,8.59-8.44,12.72h.01Z"/>
    <path class="cls-15" d="M103.83,146.54c1.11-1.09,2.31-2.15,3.78-2.66s3.26-.36,4.35,.75c.94,.95,1.18,2.44,.9,3.74s-1.01,2.48-1.8,3.55c-3.03,4.12-7.22,7.35-11.94,9.31-1.44,.6-6.27,2.92-5.39,0,.78-2.59,2.58-5.21,4.07-7.43,1.76-2.62,3.78-5.06,6.03-7.27Z"/>
    <path class="cls-15" d="M145.14,166.83c1.38,4.48,.65,9.57-1.95,13.48-1.14,1.71-7.27,8.52-8.85,4.49-1.43-3.67,2.96-9.1,4.99-11.78,1.71-2.26,3.66-4.34,5.81-6.19Z"/>
    <path class="cls-15" d="M167.14,164.54c-.91-2.09-1.14-4.47-.65-6.7,.32-1.44,1.16-3,2.62-3.21,1.26-.19,2.41,.72,3.29,1.65,3.62,3.84,5.69,9.26,5.52,14.54-.09,2.84-1.98,2.55-3.71,.92-2.44-2.3-4.72-4.8-7.07-7.19h0Z"/>
    <path class="cls-2" d="M52.42,124.67c-1.84,10.85-7.59,41.59,12.73,67.44,14.72,18.73,38.13,29.98,61.93,31.05,23.79,1.07,47.66-7.71,65.95-22.97,21.99-18.35,36.12-47.41,32.01-75.75-5.44-37.58-40.52-59.3-67.39-65.99-28.15-7-64.47-1.56-86.42,23.06-14.19,15.92-17.29,34.16-18.81,43.16Z"/>
    <path class="cls-2" d="M132.35,70.4c23.48-1.95,40.9,8.4,45.2,11.11,5.67,3.58,18.09,11.64,25.56,27.78,6.32,13.65,5.73,25.8,5.56,28.53-1.1,16.89-9.62,28.32-17.78,39.27-5.59,7.5-11.2,15.02-21.49,21.49-16.38,10.29-32.9,10.53-38.53,10.37-2.95-.08-38.42-1.59-53.75-27.4-6.59-11.1-7.35-23.14-8.12-35.21-.78-12.23,.73-21.3,1.48-25.19,1.81-9.33,3.36-17.3,9.26-25.19,5.79-7.74,12.67-11.25,21.12-15.56,7.21-3.68,17.29-8.83,31.49-10h0Z"/>
    <path class="cls-1" d="M112.44,142.63c.15,.89,1.31,8.58-4.38,14.69-6,6.45-14.34,5.42-15.1,5.32,.68-2.57,2.64-8.58,8.24-13.71,4.26-3.91,8.74-5.57,11.24-6.29h0Z"/>
    <path class="cls-1" d="M110.22,93.8c1.27-2.56,3.03-4.24,4.18-5.19,3.64,3.87,5.67,9.22,5.51,14.54-.16,5.33-2.78,12.41-5.39,12.38-3.48-.04-8.78-12.69-4.3-21.73Z"/>
    <path class="cls-1" d="M165.69,105.3c.84-.75,3.37-3.01,4.98-2.23,1.25,.61,1.35,2.77,1.41,4.17,.26,6.02-3.24,10.35-3.24,10.35-2.34,2.9-7.04,6.47-9.01,5.19-2.65-1.73-.11-12.16,5.86-17.48Z"/>
    <path class="cls-1" d="M132.7,184.05c-.06,1.08-.04,2,0,2.64,4.77-.39,9.26-3.31,11.56-7.51,1.1-2.01,2.84-11.18,.46-12.14-.4-.16-.8-.05-1.08,.05-5.67,1.86-8.73,7.88-8.73,7.88-1.87,3.68-2.09,7.18-2.2,9.08h-.01Z"/>
    <path class="cls-1" d="M169.21,169.45c2.68,3.07,5.99,4.44,8.08,5.08,1.09-4.59,.47-9.56-1.71-13.73-2.32-4.43-7.46-8.67-9.57-7.54-2.47,1.32-1.77,10.48,3.21,16.19h-.01Z"/>
    <path class="cls-2" d="M97.96,140.03c6.05-1.07,8.14-8.12,7.95-12.62-.14-3.32-1.82-6.73-4.96-8.4-1.83-.97-3.7-1.01-4.63-.97-4.05,.17-6.6,2.89-7.38,3.71-.34,.36-5.39,5.92-2.44,11.99,1.92,3.94,6.74,7.12,11.45,6.29h.01Z"/>
    <path class="cls-3" d="M117.42,186.07c5.24-1.35,6.63-6.12,6.91-7.26,1.19-4.94-2.47-8.66-3.14-9.34-1.12-1.13-3.03-3.07-6.08-3.34-3.82-.33-7.16,2.16-8.62,4.55-.97,1.59-1.04,3.02-1.14,4.91-.14,2.77-.26,5.32,1.6,7.51,2.13,2.5,6.42,4.01,10.46,2.96h0Z"/>
    <path class="cls-3" d="M185.63,148.79c4.48-.89,6.48-5.27,6.97-6.34,.46-1.02,2.27-4.98-.13-8.99-.35-.58-3.02-4.87-8.23-5.1-4.77-.22-7.81,3.14-8.59,3.99-.64,.71-3.39,3.92-2.58,7.97,1.01,5.09,7.21,9.53,12.56,8.47Z"/>
    <path class="cls-18" d="M141.11,158.46c2.94,1.87,7.77,2.93,11.42,.85,2.62-1.49,4.04-4.27,4.12-6.99s-1.03-5.39-2.6-7.75c-1.22-1.84-2.8-3.59-4.98-4.54-1.68-.73-3.44-.84-4.98-.34-1.13,.37-1.87,.98-2.58,1.68-2.44,2.4-4.44,4.37-4.87,7.49-.06,.41-.75,6.29,4.46,9.61h0Z"/>
    <path class="cls-3" d="M147.86,160.23c4.48-.89,6.48-5.27,6.97-6.34,.46-1.02,2.27-4.98-.13-8.99-.35-.58-3.02-4.87-8.23-5.1-4.77-.22-7.81,3.14-8.59,3.99-.64,.71-3.39,3.92-2.58,7.97,1.01,5.09,7.21,9.53,12.56,8.47Z"/>
    <path class="cls-3" d="M136.65,112.17c3.24,1.98,7.5,2.15,11.01,.18,3.52-1.97,5.43-5.69,5.61-9.54,.19-3.97-2.14-7.95-5.7-9.73-5.53-2.76-10.84,1.02-11.2,1.29-3.63,2.69-5.63,7.64-4.26,12.08,1.07,3.46,3.76,5.24,4.53,5.71h0Z"/>
    <path class="cls-15" d="M134.89,123.08c1.42-.63,2.86-1.28,4.4-1.5s3.21,0,4.43,.97c1.14,.91,1.75,2.38,1.8,3.83s-.42,2.89-1.14,4.16c-1.65,2.9-4.66,4.98-7.95,5.5-1.98,.31-8.83-.17-8.92-3.11-.04-1.42,2.52-3.66,3.35-4.73,1.34-1.71,2.68-3.42,4.02-5.13h0Z"/>
    <path class="cls-1" d="M126.61,133.77c3.85,3.1,8.78,3.82,12.48,1.85,5.46-2.9,7.09-11.07,4.67-13.35-2.36-2.23-8.59,1.12-9.08,1.39-5.36,2.95-7.42,8.2-8.07,10.11Z"/>
  </g>
</svg>