<?xml version="1.0" encoding="UTF-8"?>
<svg id="Ebene_2" data-name="Ebene 2" xmlns="http://www.w3.org/2000/svg" width="100%" height="100%" viewBox="0 0 305.23 324.59">
  <defs>
    <style>
      .cls-1 {
        fill: none;
      }

      .cls-1, .cls-2 {
        stroke: #343434;
        stroke-linecap: round;
        stroke-linejoin: round;
      }

      .cls-2 {
        fill: #343434;
        stroke-width: 2px;
      }

      .cls-3 {
        fill: #fff;
      }

      .cls-4 {
        fill: #ffe57c;
      }

      .cls-5 {
        fill: #e5e5e5;
      }

      .cls-6 {
        fill: #997c59;
      }

      .cls-7 {
        fill: #cdf1c6;
      }
    </style>
  </defs>
  <path class="cls-3" d="M56.17,72.04c-23.25,10.8-44.19,29.14-52.3,53.45-6.37,19.12-4.29,40.25,2.01,59.39s16.59,36.68,26.8,54.06c12.72,21.64,25.71,43.62,44.26,60.53,18.55,16.9,43.84,28.25,68.61,24.18,17.48-2.87,32.92-12.99,46.48-24.38,13.56-11.4,25.87-24.33,40.38-34.49,16.8-11.76,36.53-19.78,50.51-34.79,23.2-24.9,25.07-62.91,19.99-96.57-3.77-24.96-10.84-49.94-25.1-70.77-14.26-20.83-36.52-37.14-61.62-39.92-23.91-2.64-46.84,7.01-67,18.94-7.63,4.52-14.66,9.98-23.43,12.01-10.11,2.35-20.57,3.33-30.72,5.64-13.31,3.03-26.47,6.94-38.88,12.71h0Z"/>
  <path class="cls-6" d="M225.86,79.9c-.71,3.84-2.74,7.93-3.67,7.68-.59-.16-.14-1.92-.52-6.53-.42-5.09-1.3-6.92-.35-7.59,.97-.68,3.18,.26,4.2,1.79,.27,.4,.91,1.52,.33,4.65h.01Z"/>
  <path class="cls-6" d="M227.32,102c-.71,3.84-2.74,7.93-3.67,7.68-.59-.16-.14-1.92-.52-6.53-.42-5.09-1.3-6.92-.35-7.59,.97-.68,3.18,.26,4.2,1.79,.27,.4,.91,1.52,.33,4.65h.01Z"/>
  <path class="cls-6" d="M230.3,130.35c-.71,3.84-2.74,7.93-3.67,7.68-.59-.16-.14-1.92-.52-6.53-.42-5.09-1.3-6.92-.35-7.59,.97-.68,3.18,.26,4.2,1.79,.27,.4,.91,1.52,.33,4.65h.01Z"/>
  <path class="cls-5" d="M103.61,27.87c-.36-5.36-.5-11.35,3.09-15.34,3.49-3.88,9.27-4.45,14.48-4.77L193.09,3.44c5.08-.31,10.75-.42,14.55,2.96,3.44,3.06,4.25,8.03,4.86,12.59,3.1,23.27,5.02-31.4,12.5,94,4.08,68.4,1.24,56.1,2.5,63.41,.29,1.68,2.27,13.04-.29,27.05-1.08,5.92-1.74,9.27-4.2,12.47-3.9,5.06-10.3,7.91-31.3,8-15.73,.06-31.46-.65-47.12-2.15-10.4-.99-22.17-3.18-27.68-12.06-4.45-7.16-3.25-16.32-1.91-24.65,2.48-15.32,4.96-30.63,7.44-45.95,2.17-13.41,4.75-27.68,14.04-37.6,2,8.38,4.07,16.91,8.57,24.26s11.92,13.44,20.5,14.1c7.77,.6,15.44-3.39,20.51-9.31,5.07-5.92,7.79-13.54,9.09-21.23,1.59-9.43,.88-19.98-5.31-27.27-5.98-7.05-15.61-9.53-24.61-11.63-8.89-2.08-18.1-4.17-27.06-2.41-6.45,1.27-12.22,4.54-17.11,8.86-4.16,3.67-8.66,8.87-13.12,2.09-3.64-5.53-2.09-17.41-2.52-23.87-.6-9.08-1.21-18.16-1.81-27.25v.02Z"/>
  <path class="cls-6" d="M130.22,77.34c5.94-3.96,14.55-7.11,19.6-2.06,3.59,3.59,3.13,9.82,.35,14.07s-7.31,6.98-11.69,9.56c-4.38,2.57-8.92,5.27-11.76,9.48-3.81,5.64-3.89,12.9-4.14,19.7-.68,19.35-3.71,38.62-9,57.25-1.38,4.86-2.97,9.8-6.03,13.82s-7.9,7.03-12.94,6.63c-7.07-.56-11.98-7.23-14.99-13.65-5.13-10.94-12.82-17.77-8.74-29.89,3.82-11.35,8.7-22.47,14.36-33.03,10.91-20.35,25.61-38.98,44.97-51.88h0Z"/>
  <path class="cls-7" d="M8.92,252.39c.63,6.87,5.5,9.78,31.81,29.11,29.09,21.38,33.39,25.37,39.49,23.49,6.69-2.06,5.75-8.15,19.06-36.77,9.15-19.68,18.64-36.23,13.28-42.21-.75-.84-3.44-3.3-7.34-5.1-3.11-1.43-5.51-1.75-7.26-2.12-5.55-1.18-9.35-3.92-14.67-7.76-3.57-2.57-11.4-8.34-16.93-18.39-3.5-6.36-3.68-10.32-6.32-10.54-2.67-.22-9.11,9.53-10.8,11.53-7.16,8.5,5.1-9.47-20.13,26.25-13.67,19.35-20.5,29.1-20.19,32.5h0Z"/>
  <path class="cls-4" d="M188.44,130.14c-3.06,3.21-12.58,12.77-26.98,12.03-10.18-.53-20.08-6.78-24.14-16.13-3.82-8.8-2.27-19.27,2.32-27.69,.93-1.72,8.12-15.14,23.87-18.81,3.43-.8,11.68-2.77,20.35,1.45,12.41,6.04,15.01,19.51,15.21,20.65,2.57,14.63-7.74,25.45-10.64,28.5h0Z"/>
  <path class="cls-1" d="M107.98,90.12c-.81-13.91-1.63-27.82-2.45-41.73-.41-6.87-.81-13.75-1.22-20.62-.36-6.06-2.44-18.73,4.84-21.8,1.72-.72,3.62-.83,5.48-.93,29.43-1.53,59.04-2.09,88.39-4.16,3.12-.22,6.38-.19,9.23,1.12,5.28,2.43,4.94,8.65,5.21,13.52,1.73,31.41,3.78,62.91,5.82,94.35,2.04,31.35,3.55,62.86,5.18,94.29,.19,3.64,.36,7.38-.82,10.82-1.48,4.31-5.28,6.67-9.57,7.68-3.1,.73-6.31,.78-9.5,.83-21.98,0-43.98,.66-65.96,.97-5.28,.07-10.64,.14-15.74-1.26-5.86-1.61-11.76-5.76-13.62-11.79-1.09-3.54-1.11-7.3-1.12-11v-1.12"/>
  <path class="cls-1" d="M114.53,79.85c-1.31-19.43-2.62-38.87-3.93-58.3-.11-1.7-.23-3.42,.15-5.08,.99-4.36,5.02-4.86,8.89-4.84,4.24,.02,8.4-.2,12.65-.15"/>
  <path class="cls-1" d="M152.57,19.23c7.2,3.46,17.98,4.53,22.53-3.6,.86-1.53,1.4-3.26,2.53-4.6,2.45-2.92,6.77-3.13,10.27-3.58,4.79-.62,9.66-.67,14.47-.13,1.75,.2,3.55,.48,5.06,1.39,4.63,2.75,3.17,11.5,3.43,16.1,.4,6.89,.8,13.77,1.19,20.66,0,14.33,1.58,28.96,2.67,43.22,1.14,14.98,2.08,29.97,3.04,44.96,.2,3.04,.39,6.08,.58,9.12,0,6.03,.32,12.1,.58,18.15,0,14.02,.88,28.37,1.74,42.34,.32,5.27-.84,10.88-6.3,12.96-2.75,1.04-5.77,1.07-8.71,1.08-14.91,.05-29.83,.11-44.74,.16-12.58,.05-28.25,2.49-38.35-6.91-4.4-4.09-5.34-10.94-5.55-17.06"/>
  <path class="cls-1" d="M67.66,173.4c3.86-13.76,8.55-24.06,12.27-31.11,4.03-7.63,5.67-9.11,9.22-17.05,3.85-8.62,4.56-12.81,9.33-20.24,2.68-4.17,5.3-7.29,7.15-9.47,4.41-5.2,8.16-8.6,11.82-11.9,7.57-6.81,13.27-10.7,17.26-13.12,.52-.31,2.97-1.79,6.47-3.19,4.88-1.95,8.02-3.21,9.95-2.03,2.97,1.81,2.56,9.04,.58,14.49-3.11,8.54-9.12,10.36-17.1,20-4.48,5.41-7.32,10.58-9.08,14.3-.5,4.28-1.13,7.81-1.64,10.34-1.64,8.12-3.7,14.26-5.12,18.45-1.27,3.74-2.45,6.8-3.28,8.89"/>
  <path class="cls-1" d="M5.74,241.41c14.91-18.21,25.02-29.55,31.68-36.71,1.02-1.09,2.7-2.89,5.02-5.51,9.21-10.39,15.82-19.43,20-25.5,7.72,13.5,14.64,23.71,19.71,30.72,4.69,6.5,6.44,8.62,9.27,10.72,10.69,7.93,20.54,4.53,23.67,10.43,1.48,2.79,.54,5.91-5.41,18.35-8.81,18.43-13.91,27.24-13.91,27.24-7.13,12.31-13.09,22.47-17.39,29.75"/>
  <path class="cls-2" d="M163.32,89.78c-3.54,2.55-3.86,7.6-1.86,10.71,1.48,2.31,3.87,2.99,4.48,3.15,3.07,.78,7.26-.23,9.11-3.78,1.72-3.32,.58-7.31-2.07-9.55-2.66-2.26-6.72-2.64-9.66-.53h0Z"/>
  <path class="cls-2" d="M163.3,104.59c-4.57,2.16-6.09,6.69-6.69,8.5-.63,1.88-1.01,3.02-.65,4.37,1.17,4.4,8.94,6.29,14.67,5.69,2.56-.27,8.06-.84,9.94-4.85,1.97-4.21-1.22-9.76-4.96-12.44-3.39-2.42-8.22-3.2-12.31-1.27Z"/>
  <path class="cls-1" d="M157.19,75.94c2.62-1.11,14.84-5.95,26.44,0,14.99,7.68,21.82,29.71,13.22,45.86-9.78,18.37-35.65,21.87-49.58,10.38-9.97-8.22-10.88-21.7-11.02-24.91"/>
  <path class="cls-1" d="M101.41,232.81c-3.16,8.64-6.98,17.88-11.59,27.53-6.29,13.16-12.96,24.75-19.42,34.78"/>
  <path class="cls-1" d="M130.83,75.66c.72,2.97,2,3.9,2.7,4.25,3.41,1.69,9.83-2.13,15.46-10.24"/>
  <path class="cls-1" d="M108.52,197.45c4.35-7.11,10.6-19.65,11.88-36.22,.56-7.28,.04-13.71-.82-18.94"/>
  <path class="cls-1" d="M222.79,95.56c.88,.14,3.87,.71,5.28,3.07,1.88,3.14,.41,8.54-4.52,11.85"/>
  <path class="cls-1" d="M221.51,72.86c1.63,.15,2.46,.74,2.9,1.19,2.16,2.18,1.43,7.45-2.39,12.82"/>
  <path class="cls-1" d="M224.2,124.49c.37-.1,2.91-.76,4.71,.74,1.03,.86,1.32,2.02,1.43,2.48,1.14,4.54-4.95,9.97-5.37,10.34"/>
</svg>