<?xml version="1.0" encoding="UTF-8"?>
<svg id="Ebene_2" data-name="Ebene 2" xmlns="http://www.w3.org/2000/svg" viewBox="0 0 344.76 54.82">
  <defs>
    <style>
      .cls-1 {
        fill: #343434;
      }
    </style>
  </defs>
  <path id="Path_2202" data-name="Path 2202" class="cls-1" d="M22.3,16.54c-.69,.18-1.42,.1-2.05-.23-.5-.34-.92-.79-1.23-1.32-.35-.56-.72-1.23-1.11-1.99-.44-.82-.99-1.58-1.64-2.25-.34-.33-.75-.59-1.2-.76-.47-.19-.96-.32-1.46-.38-.47-.06-.94-.03-1.4,.09-.39,.08-.75,.29-1.02,.58-.4,.45-.7,.97-.88,1.55-.19,.6-.29,1.24-.29,1.87,0,.66,.07,1.31,.2,1.96,.13,.65,.34,1.27,.61,1.87,.86,1.82,1.98,3.5,3.33,5,1.32,1.46,2.63,2.91,3.91,4.35s2.33,2.71,3.13,3.8c.71,.95,1.34,1.95,1.87,3.01,.42,.82,.7,1.69,.85,2.6,.12,.87,.16,1.75,.12,2.63-.19,1.95-1.04,3.78-2.4,5.2-1.54,1.67-3.41,3.01-5.48,3.94-2.36,1.07-4.87,1.75-7.45,2.02-2.79,.31-5.61,.13-8.33-.53-.09-.09-.17-.18-.23-.29-.12-.23-.16-.5-.12-.76,.12-.29,.31-.54,.56-.73,.18-.19,.41-.33,.67-.38,1.41-.33,2.72-1,3.83-1.93,1.26-1.01,2.39-2.16,3.36-3.45,.93-1.2,1.69-2.53,2.25-3.94,.49-1.11,.68-2.33,.56-3.53-.19-1.16-.6-2.27-1.2-3.27-.66-1.16-1.39-2.29-2.19-3.36-.82-1.11-1.66-2.19-2.51-3.24-.86-1.05-1.6-2.02-2.22-2.92-.99-1.28-1.79-2.7-2.37-4.21C.15,15.95-.09,14.26,.03,12.57c.11-.52,.28-1.03,.5-1.52,.29-.64,.65-1.25,1.08-1.81,.52-.68,1.12-1.3,1.78-1.84,.79-.65,1.67-1.19,2.6-1.61,.69-.34,1.42-.62,2.16-.82,.89-.25,1.8-.4,2.72-.47,1.1-.08,2.2-.06,3.3,.06,1.35,.15,2.68,.42,3.97,.82,1.26,.35,2.47,.89,3.57,1.61,.76,.51,1.42,1.14,1.96,1.87,.42,.57,.7,1.23,.82,1.93,.09,.57,.14,1.15,.15,1.72,.06,1.02-.2,2.03-.76,2.89-.35,.58-.92,.99-1.58,1.14Zm10.63-.58c-.87,.1-1.74,.06-2.6-.12-.44-.07-.83-.33-1.08-.7-.23-.27-.34-.64-.29-.99,.08-.24,.26-.42,.5-.5,.29-.1,.6-.15,.91-.15h.93c.2-.04,.41-.05,.61-.03,.11,.02,.21,.03,.32,.03h.32c.22,0,.45-.03,.67-.06,.08-.62,.19-1.47,.35-2.54,.15-1.07,.39-2.12,.7-3.15,.27-.94,.67-1.84,1.2-2.66,.37-.67,1.07-1.09,1.83-1.11,.35,0,.72,.02,1.11,.06,.38,.04,.75,.13,1.11,.26,.33,.12,.64,.3,.91,.53,.24,.2,.4,.48,.44,.79,.04,1.32-.07,2.65-.32,3.94-.25,1.24-.34,2.51-.26,3.77,.43,.08,.87,.11,1.31,.09,.51-.02,1.01,0,1.52,.06,.44,.05,.87,.15,1.29,.32,.35,.12,.57,.45,.56,.82,.04,.55-.4,.92-1.31,1.11-1.17,.22-2.35,.34-3.53,.35-.04,.86-.11,1.98-.2,3.36s-.2,2.83-.32,4.35c-.12,1.52-.21,2.98-.29,4.38s-.1,2.57-.06,3.51c.04,1.64,.11,3.02,.2,4.15,.07,.95,.2,1.9,.38,2.83,.12,.65,.31,1.29,.56,1.9,.21,.5,.47,.97,.79,1.4,.38,.52,.8,1.01,1.26,1.46,.41,.39,.76,.74,1.05,1.05,.25,.26,.47,.56,.64,.88,.14,.29,.15,.63,.03,.94-.12,.55-.56,.99-1.11,1.11-.64,.16-1.31,.17-1.96,.03-.77-.15-1.52-.41-2.22-.76-.7-.33-1.36-.76-1.96-1.26-.4-.36-.79-.75-1.14-1.17-.46-.54-.85-1.14-1.17-1.78-.41-.83-.77-1.69-1.05-2.57-.36-1.13-.6-2.3-.73-3.48-.31-2.1-.46-4.22-.47-6.34,0-2.05,.06-4.16,.17-6.34,0-.16,.02-.61,.06-1.37,.04-.76,.09-1.59,.15-2.48,.06-.9,.11-1.72,.15-2.48,.04-.76,.06-1.24,.06-1.43h0Zm30.68,14.73c-.35,.93-.69,1.92-1.02,2.95-.35,1.06-.94,2.03-1.72,2.84-1,1.09-2.38,1.74-3.86,1.81-.77,.08-1.54,.08-2.31,0-.93-.16-1.82-.52-2.6-1.05-1.27-.77-2.35-1.82-3.15-3.07-.75-1.25-1.06-2.73-.88-4.18v-1.31c0-.6-.02-1.24-.06-1.9s-.07-1.3-.09-1.9c-.02-.6-.03-1.04-.03-1.32,0-.66,0-1.2-.03-1.61-.02-.41-.03-.81-.03-1.2,0-.39,.02-.81,.06-1.26,.04-.45,.1-1.04,.17-1.78,.18-.42,.45-.8,.79-1.11,.29-.32,.71-.48,1.14-.41,.58,.08,1.05,.16,1.4,.23,.44,.11,.87,.24,1.29,.41,.45,.14,.87,.38,1.23,.7,.29,.34,.4,.79,.29,1.23-.08,.97-.14,1.74-.17,2.31s-.07,1.1-.09,1.61c-.02,.51-.03,1.06-.03,1.67v5c0,.35,0,.71,.03,1.08s.03,.83,.03,1.37c-.06,.62,.04,1.24,.29,1.81,.19,.6,.58,1.11,1.11,1.46,.67,.47,1.55,.47,2.22,0,.73-.49,1.37-1.09,1.9-1.78,.66-.83,1.25-1.72,1.75-2.66,.51-.93,.93-1.91,1.26-2.92,.29-.83,.44-1.7,.47-2.57v-7.3c-.04-.4,.06-.81,.29-1.14,.3-.28,.66-.49,1.05-.61,.63-.19,1.3-.26,1.96-.2,.66,.06,1.32,.19,1.96,.38,.33,.05,.59,.3,.67,.61,.1,.33,.16,.68,.2,1.02,0,.47,0,1.1,.03,1.9s.03,1.62,.04,2.47v4.44c0,.74,.03,1.66,.09,2.75,.06,1.09,.13,2.22,.2,3.39,.08,1.17,.14,2.28,.2,3.33,.06,1.05,.08,1.91,.09,2.57,0,.85,.05,1.7,.18,2.54,.12,.76,.19,1.47,.23,2.13-.03,.34-.19,.67-.44,.91-.3,.34-.65,.65-1.02,.91-.38,.26-.78,.49-1.2,.67-.29,.16-.64,.21-.96,.15-.63-.17-1.2-.54-1.61-1.05-.48-.5-.82-1.13-.96-1.81-.06-.36-.09-.72-.09-1.08-.02-.6-.04-1.32-.06-2.16-.02-.84-.04-1.75-.06-2.75-.02-.99-.04-1.94-.06-2.83-.02-.9-.04-1.67-.06-2.34-.02-.66-.02-1.11-.02-1.35Zm34.71,3.33v3.53c0,1.11,.02,2.33,.06,3.65s.12,2.84,.23,4.56c.12,1.71,.29,3.76,.53,6.14-.1,.43-.32,.81-.64,1.11-.36,.36-.75,.68-1.17,.96-.4,.28-.83,.5-1.29,.67-.27,.13-.57,.19-.88,.17-.58-.12-1.04-.71-1.37-1.78-.33-1.07-.69-2.39-1.08-3.94-.19-.84-.32-1.69-.38-2.54-.1-1.07-.16-2.19-.2-3.36-.04-1.17-.06-2.29-.06-3.36,0-1.07,.02-1.88,.06-2.42-.27,.51-.58,1.08-.93,1.72-.35,.64-.72,1.27-1.11,1.87-.39,.6-.77,1.15-1.14,1.64-.29,.4-.64,.77-1.02,1.08-1.03,.75-2.2,1.26-3.45,1.52-1.44,.26-2.92,.1-4.27-.46-.68-.26-1.28-.68-1.75-1.23-2.21-2.32-3.37-5.45-3.21-8.65,.21-3.16,1.2-6.21,2.89-8.88,1.77-2.75,4.27-4.96,7.22-6.37,.91-.44,1.92-.63,2.92-.56,.98,.03,1.95,.3,2.8,.79,.04-.35,.07-.85,.09-1.49,.02-.64,.05-1.31,.09-2.02,.04-.7,.08-1.38,.12-2.05s.08-1.19,.12-1.58c.04-.47,.07-1.11,.09-1.93,.02-.82,.09-1.72,.2-2.72,.12-1.01,.31-2.02,.56-3.01,.25-.99,.61-1.95,1.08-2.86,.14-.19,.3-.36,.47-.53,.23-.23,.49-.47,.76-.7,.26-.22,.53-.43,.82-.61,.21-.15,.45-.26,.7-.32,.33-.08,.66-.09,.99-.03,.4,.06,.8,.18,1.17,.35,.38,.17,.72,.39,1.02,.67,.29,.26,.48,.61,.56,.99-.12,1.52-.24,2.72-.38,3.59s-.28,1.73-.44,2.57c-.16,.84-.3,1.81-.44,2.92s-.24,2.66-.32,4.64c-.04,.66-.06,1.82-.06,3.48v5.35c0,1.91,0,3.74,.03,5.49s.03,3.06,.04,3.91Zm-7.01-.82c.13-.48,.2-.97,.2-1.46,.02-.67,0-1.35-.06-2.02-.06-.72-.16-1.46-.29-2.22-.14-.76-.26-1.43-.38-2.02-.08-.19-.35-.4-.82-.61-.33-.17-.68-.28-1.05-.32-.92,.03-1.8,.36-2.51,.93-.9,.67-1.71,1.45-2.4,2.34-.75,.95-1.4,1.97-1.96,3.04-.52,.98-.93,2.02-1.2,3.1-.16,.63-.22,1.28-.18,1.93,.04,.72,.18,1.43,.44,2.1,.26,.66,.64,1.27,1.12,1.78,.51,.54,1.17,.9,1.9,1.02,.41,.08,.84,.02,1.23-.15,.43-.17,.83-.4,1.2-.67,.36-.27,.7-.57,.99-.91,.25-.28,.48-.58,.67-.91,.47-.74,.87-1.36,1.2-1.87,.33-.51,.62-.94,.85-1.29,.23-.35,.44-.66,.61-.94,.17-.28,.32-.57,.43-.88Zm20.98-3.74c0,.66,0,1.42-.03,2.28-.02,.93,.03,1.86,.15,2.78,.12,1.03,.32,2.06,.58,3.07,.28,1.07,.71,2.09,1.29,3.04,.46,.84,1.01,1.63,1.64,2.37,.46,.52,.97,1,1.52,1.43,.51,.39,1.06,.74,1.64,1.02,.7,.36,1.39,.76,2.04,1.2,.3,.18,.5,.48,.56,.82,.06,.35,.02,.7-.12,1.02-.14,.33-.35,.63-.61,.88-.23,.24-.55,.37-.88,.38-.58-.03-1.16-.12-1.72-.26-.84-.2-1.67-.44-2.48-.73-.9-.31-1.82-.68-2.78-1.11-1.93-.87-3.66-2.14-5.05-3.74-.85-1.01-1.56-2.13-2.1-3.33-.68-1.5-1.19-3.08-1.52-4.7-.42-2.13-.66-4.29-.7-6.46,.08-1.8,.36-3.58,.85-5.32,.4-1.4,.98-2.75,1.72-4,.66-1.1,1.47-2.1,2.4-2.98,.87-.82,1.81-1.57,2.8-2.25,.84-.58,1.81-.96,2.83-1.09,1-.14,2.01-.13,3.01,.03,.92,.14,1.82,.38,2.69,.7,.64,.22,1.24,.52,1.81,.88,.94,.67,1.58,1.69,1.75,2.83,.14,1.24-.02,2.49-.47,3.65-.48,1.58-1.44,2.98-2.75,4-1.39,1.05-2.93,1.91-4.56,2.54-.57,.24-1.15,.42-1.75,.56-.59,.13-1.18,.3-1.75,.5Zm-.29-2.92c.86-.31,1.65-.59,2.37-.85,.68-.24,1.34-.54,1.96-.91,.57-.34,1.08-.79,1.49-1.32,.47-.66,.8-1.4,.96-2.19,.12-.51,.15-1.03,.09-1.55-.06-.63-.18-1.24-.38-1.84-.17-.54-.44-1.04-.79-1.49-.23-.37-.65-.56-1.08-.5-.7,.11-1.32,.49-1.75,1.05-.48,.61-.88,1.29-1.17,2.02-.31,.76-.57,1.54-.76,2.34-.19,.8-.37,1.47-.53,2.02-.13,.52-.21,1.05-.23,1.58-.03,.55-.09,1.1-.17,1.64h0Zm38.8,17.41c.05,.33,.03,.67-.06,.99-.08,.23-.33,.41-.76,.53h-.99c-.43,0-.86-.02-1.29-.06-.43-.04-.86-.1-1.29-.17-.34-.05-.68-.15-.99-.29-.94-.57-1.55-1.54-1.66-2.63-.23-1.43-.38-2.88-.44-4.32-.04-1.42,.02-2.85,.18-4.27,.16-1.48,.27-2.94,.35-4.38,.08-1.39,.06-2.79-.06-4.18-.1-1.3-.48-2.57-1.11-3.71-.83-.38-1.77-.43-2.63-.15-.76,.3-1.43,.78-1.96,1.4-.58,.67-1.08,1.42-1.46,2.22-.41,.84-.75,1.61-1.02,2.31-.33,.86-.57,1.75-.7,2.66-.15,.92-.23,1.85-.24,2.78,0,.27,0,.71,.03,1.31,.02,.6,.04,1.23,.06,1.87s.05,1.26,.09,1.84c.04,.58,.06,1.01,.06,1.29,.07,.78-.13,1.56-.55,2.22-.46,.6-1.21,.9-1.96,.76-1.07-.01-2.09-.46-2.83-1.23-.79-.84-1.23-1.95-1.26-3.1-.08-1.13-.13-2.4-.15-3.8-.02-1.4-.04-2.86-.06-4.38-.02-1.52-.05-3.05-.09-4.59-.04-1.54-.08-3.01-.12-4.41v-.88c0-.39,0-.8,.03-1.23,.02-.43,.05-.84,.09-1.23,.02-.31,.1-.6,.23-.88,.18-.35,.4-.68,.67-.96,.2-.21,.45-.36,.73-.44,.29-.08,.59-.09,.88-.03,.31,.06,.66,.13,1.05,.2,.27,.15,.54,.32,.79,.5,.28,.16,.51,.39,.67,.67,.34,.5,.58,1.07,.7,1.67,.16,.71,.27,1.43,.32,2.16,.06,.76,.09,1.53,.09,2.31s.02,1.48,.06,2.1c.42-1.03,.94-2.02,1.55-2.95,.62-.96,1.33-1.85,2.13-2.66,.71-.72,1.51-1.36,2.37-1.9,.67-.45,1.45-.7,2.25-.73,1.28-.24,2.61-.08,3.8,.44,.93,.48,1.68,1.23,2.16,2.16,.53,1.04,.88,2.17,1.02,3.33,.18,1.27,.3,2.56,.38,3.89,.08,1.48,.17,3.05,.26,4.7,.1,1.65,.18,3.2,.26,4.65,0,.47,.02,1.08,.06,1.84s.08,1.56,.12,2.4c.04,.84,.08,1.66,.12,2.45,.04,.8,.08,1.43,.12,1.91h0Zm6.6-27.99c-.87,.1-1.74,.06-2.6-.12-.44-.07-.83-.33-1.08-.7-.23-.27-.34-.64-.29-.99,.08-.24,.26-.42,.5-.5,.29-.1,.6-.15,.91-.15h.93c.2-.04,.41-.05,.61-.03,.11,.02,.21,.03,.32,.03h.32c.22,0,.45-.03,.67-.06,.08-.62,.2-1.47,.35-2.54,.15-1.07,.39-2.12,.7-3.15,.27-.94,.67-1.84,1.2-2.66,.37-.67,1.07-1.09,1.84-1.11,.35,0,.72,.02,1.11,.06,.38,.04,.75,.13,1.11,.26,.33,.12,.64,.3,.91,.53,.24,.2,.4,.48,.44,.79,.04,1.32-.07,2.65-.32,3.94-.25,1.24-.34,2.51-.26,3.77,.43,.08,.87,.11,1.32,.09,.51-.02,1.01,0,1.52,.06,.44,.05,.87,.15,1.29,.32,.35,.12,.57,.45,.55,.82,.04,.55-.4,.92-1.32,1.11-1.17,.22-2.35,.34-3.54,.35-.04,.86-.11,1.98-.2,3.36s-.2,2.83-.32,4.35c-.12,1.52-.22,2.98-.3,4.38-.08,1.4-.1,2.57-.06,3.51,.04,1.64,.11,3.02,.2,4.15,.07,.95,.2,1.9,.38,2.83,.12,.65,.31,1.29,.55,1.9,.21,.5,.47,.97,.79,1.4,.38,.52,.8,1.01,1.26,1.46,.41,.39,.76,.74,1.05,1.05,.25,.26,.47,.56,.64,.88,.14,.29,.15,.63,.03,.94-.12,.55-.56,.99-1.11,1.11-.64,.16-1.31,.17-1.96,.03-.77-.15-1.52-.41-2.22-.76-.7-.33-1.36-.75-1.96-1.25-.4-.37-.78-.76-1.14-1.17-.46-.54-.85-1.14-1.17-1.78-.41-.83-.77-1.69-1.05-2.57-.36-1.13-.6-2.3-.73-3.48-.31-2.1-.46-4.22-.47-6.34,0-2.05,.06-4.16,.18-6.34,0-.16,.02-.61,.06-1.37,.04-.76,.09-1.59,.15-2.48s.11-1.72,.15-2.48c.04-.76,.06-1.24,.06-1.43h0Zm23.9,13.5c0,.66,0,1.42-.03,2.28-.02,.93,.03,1.86,.15,2.78,.12,1.03,.32,2.06,.58,3.07,.28,1.07,.71,2.09,1.29,3.04,.46,.84,1.01,1.63,1.64,2.37,.46,.52,.97,1,1.52,1.43,.51,.39,1.06,.74,1.64,1.02,.7,.36,1.39,.76,2.04,1.2,.3,.18,.5,.48,.55,.82,.06,.35,.02,.7-.12,1.02-.14,.33-.35,.63-.61,.88-.23,.24-.55,.37-.88,.38-.58-.03-1.16-.12-1.72-.26-.84-.2-1.67-.44-2.48-.73-.9-.31-1.82-.68-2.78-1.11-1.93-.87-3.66-2.14-5.05-3.74-.85-1.01-1.56-2.13-2.1-3.33-.68-1.5-1.19-3.08-1.52-4.7-.42-2.13-.66-4.29-.7-6.46,.08-1.8,.36-3.58,.85-5.32,.4-1.4,.98-2.75,1.72-4,.66-1.1,1.47-2.1,2.4-2.98,.87-.82,1.81-1.57,2.8-2.25,.84-.58,1.81-.96,2.83-1.09,1-.14,2.01-.13,3.01,.03,.92,.14,1.82,.38,2.69,.7,.64,.22,1.24,.52,1.81,.88,.94,.67,1.58,1.69,1.75,2.83,.14,1.24-.02,2.49-.47,3.65-.48,1.58-1.44,2.98-2.75,4-1.39,1.05-2.93,1.91-4.56,2.54-.57,.24-1.15,.42-1.75,.56-.59,.13-1.18,.3-1.75,.5h0Zm-.29-2.92c.86-.31,1.65-.59,2.37-.85,.68-.24,1.34-.54,1.96-.91,.57-.34,1.08-.79,1.49-1.32,.47-.66,.8-1.4,.96-2.19,.12-.51,.15-1.03,.09-1.55-.06-.63-.18-1.24-.38-1.84-.17-.54-.44-1.04-.79-1.49-.23-.37-.65-.56-1.08-.5-.7,.11-1.32,.49-1.75,1.05-.48,.61-.88,1.29-1.17,2.02-.31,.76-.57,1.54-.76,2.34-.19,.8-.37,1.47-.53,2.02-.13,.52-.21,1.05-.23,1.58-.03,.55-.09,1.1-.17,1.64h0Zm38.8,17.41c.05,.33,.03,.67-.06,.99-.08,.23-.33,.41-.76,.53h-.99c-.43,0-.86-.02-1.29-.06-.43-.04-.86-.1-1.29-.17-.34-.05-.68-.15-.99-.29-.93-.57-1.55-1.54-1.66-2.63-.23-1.43-.38-2.88-.44-4.32-.04-1.42,.02-2.85,.18-4.27,.16-1.48,.27-2.94,.35-4.38,.08-1.39,.06-2.79-.06-4.18-.1-1.3-.48-2.57-1.11-3.71-.83-.38-1.77-.43-2.63-.15-.76,.3-1.43,.78-1.96,1.4-.58,.67-1.08,1.42-1.46,2.22-.41,.84-.75,1.61-1.02,2.31-.33,.86-.57,1.75-.7,2.66-.15,.92-.23,1.85-.23,2.78,0,.27,0,.71,.03,1.31s.04,1.23,.06,1.87c.02,.64,.05,1.26,.09,1.84s.06,1.01,.06,1.29c.07,.78-.13,1.56-.55,2.22-.46,.6-1.21,.9-1.96,.76-1.07-.01-2.09-.46-2.83-1.23-.79-.84-1.23-1.95-1.26-3.1-.08-1.13-.13-2.4-.15-3.8s-.04-2.86-.06-4.38c-.02-1.52-.05-3.05-.09-4.59-.04-1.54-.08-3.01-.12-4.41v-.88c0-.39,0-.8,.03-1.23,.02-.43,.05-.84,.09-1.23,.02-.31,.09-.6,.23-.88,.18-.35,.4-.68,.67-.96,.2-.21,.45-.36,.73-.44,.29-.08,.59-.09,.88-.03,.31,.06,.66,.13,1.05,.2,.27,.15,.54,.32,.79,.5,.28,.16,.51,.39,.67,.67,.34,.5,.58,1.07,.7,1.67,.16,.71,.27,1.43,.32,2.16,.06,.76,.09,1.53,.09,2.31,0,.78,.02,1.48,.06,2.1,.42-1.03,.94-2.02,1.55-2.95,.62-.96,1.33-1.85,2.13-2.66,.71-.72,1.51-1.36,2.37-1.9,.67-.45,1.45-.7,2.25-.73,1.28-.24,2.61-.08,3.8,.44,.93,.48,1.68,1.23,2.16,2.16,.53,1.04,.88,2.17,1.02,3.33,.18,1.27,.3,2.56,.38,3.89,.08,1.48,.17,3.05,.26,4.7,.1,1.65,.19,3.2,.26,4.65,0,.47,.02,1.08,.06,1.84s.08,1.56,.12,2.4c.04,.84,.08,1.66,.12,2.45s.08,1.44,.11,1.91h0Zm12.8-26.65c.04,.77,.04,1.54,0,2.31-.04,.68-.08,1.38-.12,2.1s-.08,1.52-.12,2.4c-.04,.88-.04,1.94,0,3.18,.04,.86,.08,1.94,.12,3.24,.04,1.3,.1,2.7,.18,4.18,.08,1.48,.18,2.98,.29,4.5,.12,1.52,.25,2.94,.41,4.27,.04,.46,.04,.92,0,1.37-.04,.47-.12,.93-.26,1.37-.12,.4-.33,.76-.61,1.05-.3,.28-.71,.41-1.11,.35-.95-.05-1.85-.43-2.54-1.08-.7-.67-1.29-1.46-1.72-2.34-.49-.97-.85-1.99-1.08-3.04-.24-1.05-.43-2.11-.55-3.19-.27-1.95-.35-3.93-.23-5.9,.12-1.95,.14-3.9,.06-5.84-.08-1.71-.1-3.37-.06-4.97,.04-1.64,.18-3.28,.41-4.91-.43,0-.84-.19-1.14-.5-.17-.25-.24-.55-.2-.85,.03-.45,.22-.87,.53-1.2,.4-.36,.94-.5,1.46-.38,.04-.58,.1-1.26,.18-2.02,.08-.76,.18-1.55,.32-2.37,.13-.82,.3-1.64,.5-2.45,.19-.81,.46-1.59,.82-2.34,.66-1.36,1.73-2.48,3.06-3.21,1.52-.71,3.2-1.01,4.88-.88,.74,.05,1.46,.2,2.16,.44,.78,.25,1.53,.58,2.25,.96,.69,.37,1.33,.82,1.9,1.34,.51,.45,.91,1.01,1.17,1.64,.16,.55,.3,1.02,.44,1.43,.13,.38,.22,.77,.26,1.17,.04,.36,.04,.72,0,1.08-.06,.42-.18,.84-.35,1.23-.17,.23-.42,.4-.7,.47-.37,.12-.75,.2-1.14,.23-.4,.04-.8,.05-1.2,.03-.29,.01-.57-.06-.82-.2-.12,.12-.23,.08-.35-.12-.14-.26-.24-.53-.29-.82-.08-.35-.14-.74-.2-1.17-.06-.39-.05-.78,.03-1.17,.1-.59,.17-1.18,.2-1.78,.04-.42-.07-.84-.29-1.2-.28-.36-.65-.62-1.08-.76-.68-.23-1.38-.39-2.1-.47-.58,.35-1.05,.84-1.37,1.43-.38,.66-.68,1.37-.91,2.1-.23,.74-.41,1.49-.55,2.25-.13,.74-.26,1.36-.38,1.87-.23,1.28-.21,2.59,.06,3.86,.23,.04,.55,.09,.93,.15,.39,.06,.79,.12,1.2,.18,.38,.05,.76,.13,1.14,.23,.26,.05,.49,.16,.7,.32,.06,.11,.09,.23,.09,.35,.02,.19,.03,.4,.03,.61v1.02c-.06,.1-.12,.2-.2,.29-.09,.11-.23,.18-.38,.17-.62,.08-1.25,.09-1.87,.03-.63-.06-1.23-.09-1.82-.09h0Zm25.12,13.38c-.35,.93-.69,1.92-1.02,2.95-.35,1.06-.94,2.03-1.72,2.83-1,1.09-2.38,1.74-3.86,1.81-.77,.08-1.54,.08-2.31,0-.93-.16-1.82-.52-2.6-1.05-1.27-.77-2.35-1.82-3.15-3.07-.75-1.25-1.06-2.73-.88-4.18v-1.31c0-.6-.02-1.24-.06-1.9s-.07-1.3-.09-1.9c-.02-.6-.03-1.04-.03-1.32,0-.66,0-1.2-.03-1.61-.02-.41-.03-.81-.03-1.2s.02-.81,.06-1.26c.04-.45,.1-1.04,.18-1.78,.18-.42,.45-.8,.79-1.11,.29-.32,.71-.48,1.14-.41,.58,.08,1.05,.16,1.4,.23,.44,.11,.87,.24,1.29,.41,.45,.14,.87,.38,1.23,.7,.29,.34,.4,.79,.29,1.23-.08,.97-.14,1.74-.18,2.31s-.07,1.1-.09,1.61c-.02,.51-.03,1.06-.03,1.67v5c0,.35,0,.71,.03,1.08,.02,.37,.03,.83,.03,1.37-.06,.62,.04,1.24,.29,1.81,.19,.6,.58,1.11,1.11,1.46,.67,.47,1.55,.47,2.22,0,.73-.49,1.37-1.09,1.9-1.78,.66-.83,1.25-1.72,1.75-2.66,.51-.93,.93-1.91,1.26-2.92,.29-.83,.44-1.7,.47-2.57v-7.3c-.04-.4,.06-.81,.29-1.14,.3-.28,.66-.49,1.05-.61,.63-.19,1.3-.26,1.96-.2,.66,.06,1.32,.19,1.96,.38,.33,.05,.59,.29,.67,.61,.1,.33,.16,.68,.2,1.02,0,.47,0,1.1,.03,1.9s.03,1.63,.03,2.48v4.44c0,.74,.03,1.66,.09,2.75s.13,2.22,.2,3.39c.08,1.17,.14,2.28,.2,3.33s.08,1.91,.09,2.57c0,.85,.05,1.7,.17,2.54,.12,.76,.19,1.47,.23,2.13-.03,.34-.19,.67-.44,.91-.3,.34-.65,.65-1.02,.91-.38,.26-.78,.49-1.2,.67-.29,.16-.64,.21-.96,.15-.63-.17-1.2-.54-1.61-1.05-.48-.5-.82-1.13-.96-1.81-.06-.36-.09-.72-.09-1.08-.02-.6-.04-1.32-.06-2.16s-.04-1.75-.06-2.75-.04-1.94-.06-2.83c-.02-.9-.04-1.67-.06-2.34,0-.67-.01-1.12-.01-1.36Zm14.9-14.73c-.87,.1-1.74,.06-2.6-.12-.44-.07-.83-.33-1.08-.7-.23-.27-.34-.64-.29-.99,.08-.24,.26-.42,.5-.5,.29-.1,.6-.15,.91-.15h.93c.2-.04,.41-.05,.61-.03,.11,.02,.21,.03,.32,.03h.32c.22,0,.45-.03,.67-.06,.08-.62,.2-1.47,.35-2.54,.15-1.07,.39-2.12,.7-3.15,.27-.94,.67-1.84,1.2-2.66,.37-.67,1.07-1.09,1.84-1.11,.35,0,.72,.02,1.11,.06,.38,.04,.75,.13,1.11,.26,.33,.12,.64,.3,.91,.53,.24,.2,.4,.48,.44,.79,.04,1.32-.07,2.65-.32,3.94-.25,1.24-.34,2.51-.26,3.77,.43,.08,.87,.11,1.32,.09,.51-.02,1.01,0,1.52,.06,.44,.05,.87,.15,1.29,.32,.35,.12,.57,.45,.55,.82,.04,.55-.4,.92-1.32,1.11-1.17,.22-2.35,.34-3.54,.35-.04,.86-.11,1.98-.2,3.36s-.2,2.83-.32,4.35c-.12,1.52-.21,2.98-.29,4.38s-.1,2.57-.06,3.51c.04,1.64,.11,3.02,.2,4.15,.07,.95,.2,1.9,.38,2.83,.12,.65,.31,1.29,.55,1.9,.21,.5,.47,.97,.79,1.4,.38,.52,.8,1.01,1.26,1.46,.41,.39,.76,.74,1.05,1.05,.25,.26,.47,.56,.64,.88,.14,.29,.15,.63,.03,.94-.12,.55-.56,.99-1.11,1.11-.64,.16-1.31,.17-1.96,.03-.77-.15-1.52-.41-2.22-.76-.7-.33-1.36-.76-1.96-1.26-.4-.37-.78-.76-1.14-1.17-.46-.54-.85-1.14-1.17-1.78-.41-.83-.77-1.69-1.05-2.57-.36-1.13-.6-2.3-.73-3.48-.31-2.1-.46-4.22-.47-6.34,0-2.05,.06-4.16,.17-6.34,0-.16,.02-.61,.06-1.37,.04-.76,.09-1.59,.15-2.48,.06-.9,.11-1.72,.15-2.48,.04-.76,.06-1.24,.05-1.43h0Zm17.36,4.79c-.87,.1-1.74,.06-2.6-.12-.44-.07-.83-.33-1.08-.7-.23-.27-.34-.64-.29-.99,.08-.24,.26-.42,.5-.5,.29-.1,.6-.15,.91-.15h.93c.2-.04,.41-.05,.61-.03,.11,.02,.21,.03,.32,.03h.32c.22,0,.45-.03,.67-.06,.08-.62,.2-1.53,.35-2.72,.16-1.21,.4-2.41,.73-3.59,.28-1.09,.7-2.14,1.23-3.13,.31-.76,1.03-1.27,1.84-1.32,.35,0,.72,.02,1.11,.06,.38,.04,.75,.13,1.11,.26,.33,.12,.64,.3,.91,.53,.24,.2,.4,.48,.44,.79,0,.66-.04,1.39-.12,2.19-.08,.8-.17,1.6-.26,2.4-.1,.8-.18,1.58-.23,2.34-.06,.69-.07,1.38-.03,2.07,.43,.08,.87,.11,1.32,.09,.51-.02,1.01,0,1.52,.06,.44,.05,.87,.15,1.29,.32,.35,.12,.57,.45,.55,.82,.04,.55-.4,.92-1.32,1.11-1.17,.22-2.35,.34-3.54,.35-.04,.86-.11,1.92-.2,3.18s-.19,2.57-.29,3.92c-.1,1.34-.18,2.65-.26,3.92-.08,1.1-.09,2.2-.06,3.3,.04,1.64,.11,3.02,.2,4.15,.07,.95,.2,1.9,.38,2.83,.12,.65,.31,1.29,.55,1.9,.21,.5,.47,.97,.79,1.4,.38,.52,.8,1.01,1.26,1.46,.41,.39,.76,.74,1.05,1.05,.25,.26,.47,.56,.64,.88,.14,.29,.15,.63,.03,.94-.12,.55-.56,.99-1.11,1.11-.64,.16-1.31,.17-1.96,.03-.77-.15-1.52-.41-2.22-.76-.7-.33-1.36-.76-1.96-1.26-.4-.37-.78-.76-1.14-1.17-.46-.54-.85-1.14-1.17-1.78-.41-.83-.77-1.69-1.05-2.57-.36-1.13-.61-2.3-.73-3.48-.31-2.1-.46-4.22-.47-6.34,0-2.05,.06-4.16,.17-6.34,0-.16,.02-.55,.06-1.17,.04-.62,.08-1.3,.12-2.02,.04-.72,.08-1.4,.12-2.05,.04-.64,.06-1.06,.05-1.25Zm22.08,8.71c0,.66,0,1.42-.03,2.28-.02,.93,.03,1.86,.15,2.78,.12,1.03,.32,2.06,.58,3.07,.28,1.07,.71,2.09,1.29,3.04,.46,.84,1.01,1.63,1.64,2.37,.46,.52,.97,1,1.52,1.43,.51,.39,1.06,.74,1.64,1.02,.7,.36,1.39,.76,2.05,1.2,.3,.18,.5,.48,.55,.82,.06,.35,.02,.7-.12,1.02-.14,.33-.35,.63-.61,.88-.23,.24-.55,.37-.88,.38-.58-.03-1.16-.12-1.72-.26-.84-.2-1.67-.44-2.48-.73-.9-.31-1.82-.68-2.78-1.11-1.93-.87-3.66-2.14-5.05-3.74-.85-1.01-1.56-2.13-2.1-3.33-.68-1.5-1.19-3.08-1.52-4.7-.42-2.13-.66-4.29-.7-6.46,.08-1.8,.36-3.58,.85-5.32,.4-1.4,.98-2.75,1.72-4,.66-1.1,1.47-2.1,2.4-2.98,.87-.82,1.81-1.57,2.8-2.25,.84-.58,1.82-.96,2.83-1.09,1-.14,2.01-.13,3.01,.03,.92,.14,1.82,.38,2.69,.7,.64,.22,1.24,.52,1.81,.88,.94,.67,1.58,1.69,1.75,2.83,.14,1.24-.02,2.49-.47,3.65-.48,1.58-1.44,2.98-2.75,4-1.39,1.05-2.93,1.91-4.56,2.54-.57,.24-1.15,.42-1.75,.56-.59,.13-1.18,.3-1.76,.5Zm-.29-2.92c.86-.31,1.65-.59,2.37-.85,.68-.24,1.34-.54,1.96-.91,.57-.34,1.08-.79,1.49-1.32,.47-.66,.8-1.4,.96-2.19,.12-.51,.15-1.03,.09-1.55-.06-.63-.18-1.24-.38-1.84-.17-.54-.44-1.04-.79-1.49-.23-.37-.65-.56-1.08-.5-.7,.11-1.32,.49-1.75,1.05-.48,.61-.88,1.29-1.17,2.02-.31,.76-.57,1.54-.76,2.34-.19,.8-.37,1.47-.53,2.02-.13,.52-.21,1.05-.23,1.58-.03,.55-.09,1.1-.17,1.64h0Zm26-5.49c-.69,.46-1.28,1.05-1.75,1.73-.37,.57-.67,1.19-.88,1.84-.16,.66-.27,1.27-.35,1.81-.08,.54-.13,1.09-.15,1.64-.02,.55-.03,1.12-.03,1.72s-.02,1.28-.06,2.02c0,.74,0,1.34,.03,1.81,.02,.47,.03,.91,.03,1.31v1.29c0,.45-.02,1.02-.06,1.72-.01,.27-.05,.53-.12,.79-.08,.33-.19,.65-.32,.96-.13,.3-.28,.59-.44,.88-.1,.22-.27,.4-.47,.53-.58,.46-1.27,.79-2,.94-.56,.14-1.13,.2-1.71,.17-.35-.08-.68-.23-.97-.44-.32-.26-.54-.62-.62-1.02-.08-1.17-.16-2.31-.24-3.42s-.16-2.15-.24-3.13-.14-1.84-.18-2.6c-.05-.59-.03-1.19,.06-1.78v-7.02c0-1.74,.11-3.48,.35-5.2,.34-.39,.8-.64,1.3-.73,.6-.14,1.22-.17,1.83-.09,.59,.07,1.17,.24,1.71,.5,.45,.2,.81,.56,1,1.02,.13,.28,.24,.58,.32,.88,.06,.23,.1,.42,.12,.56,.02,.14,.03,.27,.03,.41,0,.17,.05,.34,.12,.5,.39-.51,.71-.95,.97-1.34,.25-.39,.48-.76,.67-1.11,.21-.37,.44-.74,.7-1.08,.34-.45,.71-.87,1.11-1.26,.63-.65,1.47-1.04,2.37-1.11,.88-.09,1.76,.23,2.37,.88,1.02,.94,1.81,2.1,2.31,3.39,.36,1.18,.13,2.46-.61,3.45-.35,.58-.86,1.06-1.46,1.37-.58,.32-1.24,.48-1.9,.47-.66-.03-1.29-.31-1.75-.79-.61-.69-.99-1.55-1.09-2.46h0Z"/>
</svg>