<?xml version="1.0" encoding="UTF-8"?><svg id="Ebene_2" xmlns="http://www.w3.org/2000/svg" viewBox="0 0 208.06 170.81"><defs><style>.cls-1{fill:#343434;}.cls-2{fill:#fff;}.cls-3{stroke:#52a174;}.cls-3,.cls-4{stroke-linecap:round;stroke-linejoin:round;}.cls-3,.cls-4,.cls-5{fill:none;}.cls-6{fill:#cdf1c6;}.cls-4{stroke:#343434;}.cls-5{stroke:#ffe57c;stroke-miterlimit:10;stroke-width:2px;}</style></defs><path class="cls-2" d="m137.37,162.6c-21.05,8.92-54.09,8.28-60.73,8.15-23.23-.45-34.34-1.75-47.75-8.88-14.45-7.68-25.92-22.72-25.34-39.08.41-11.49,6.49-22.19,6.95-33.68C11.24,70.73-2.43,53.5.38,35.32,2.2,23.52,10.94,13.65,21.37,7.85,42.54-3.92,68.77-.6,92.13,5.76c23.37,6.36,46.66,15.5,70.85,14.37,9.05-.42,19-2.07,26.48,3.06,6.38,4.38,8.93,12.43,10.75,19.95,5.39,22.24,8.03,45.14,7.84,68.01-.1,11.9-1.29,24.67-8.89,33.83-5.87,7.07-17.22,11.74-27.76,12.46-6.19.42-9.18-.87-17.33.29-8.46,1.2-14.39,3.89-16.7,4.87Z"/><path class="cls-6" d="m98.77,67.43c1.11,8.45.2,17.02-.7,25.49,4.29-1.05,8.59-2.11,12.97-2.72,7.02-.98,14.14-.82,21.23-.65,8.09.19,16.17.38,24.26.57-.51-6.6-1.02-13.2-1.53-19.8-.35-4.58-.72-9.23-2.2-13.58-1.48-4.36-4.21-8.46-8.25-10.65-4.46-2.41-9.82-2.19-14.88-1.91-11.17.62-22.34,1.23-33.51,1.85-1.79.1-5.08-.41-4.98,2.08.06,1.44,2.99,4.54,3.7,5.98,2.05,4.16,3.32,8.73,3.89,13.32Z"/><line class="cls-3" x1="40.06" y1="85.75" x2="45.05" y2="89.61"/><line class="cls-3" x1="43.23" y1="84.6" x2="41.89" y2="90.76"/><line class="cls-3" x1="45.59" y1="86.83" x2="39.52" y2="88.53"/><line class="cls-3" x1="69.69" y1="70.04" x2="74.67" y2="73.9"/><line class="cls-3" x1="72.85" y1="68.89" x2="71.51" y2="75.05"/><line class="cls-3" x1="75.21" y1="71.12" x2="69.14" y2="72.82"/><path class="cls-4" d="m64.87,86.6c-.62-12.38-2.82-29.07,7.76-38.2,4.64-4.01,11.38-5.32,16.87-2.23,2.4,1.35,4.22,3.51,5.46,5.94,2.89,5.66,2.91,12.57,2.92,18.78,0,2.53-.05,5.05-.09,7.58-.01.78-.04,1.57-.04,2.35-.09,3.48-.21,7.64-.38,12.35"/><path class="cls-4" d="m155.66,89.89c.64-8.91.58-16.39.36-22-.32-7.87-1.54-17.56-10.51-21.55-3.79-1.69-8.11-2.22-12.36-2.43-6.15-.31-12.33-.01-18.49.2-10.43.36-20.87.44-31.3.31-.29,0-.59,0-.88-.01"/><path class="cls-4" d="m98.13,92.79c19.18-.36,38.37-.72,57.55-1.09"/><path class="cls-4" d="m144.87,64.96s.08,0,.12,0c1.06-.02,2.16-.03,3.15.38,1.6.66,1.91,2.21,2.08,3.75.17,1.48.21,2.97.1,4.46-.03.42-.08.86-.29,1.23-.47.8-1.61.97-2.46.62s-1.47-1.11-2.01-1.85-1.06-1.54-1.82-2.07c-1.15-.79-2.63-.84-4.02-.86-3.73-.05-7.45-.1-11.18-.15-.97-.01-1.97-.03-2.87-.39s-1.7-1.13-1.8-2.1c-.14-1.4.79-2.3,2.09-2.64,1.3-.33,2.92-.11,4.26-.13,4.88-.1,9.77-.16,14.65-.24Z"/><path class="cls-1" d="m127.93,67.72h0,0m-.07-.91c-.09,0-.18.01-.27.04-.07.02-.29.09-.46.29-.27.33-.2.75-.18.83.08.41.36.63.42.68.19.15.44.24.68.24.11,0,.21-.02.31-.05.33-.11.6-.4.66-.75.08-.48-.24-.83-.31-.9-.22-.23-.53-.37-.85-.37h0Z"/><path class="cls-4" d="m65.32,86.63c10.69,2.18,21.37,4.35,32.06,6.53"/><path class="cls-4" d="m65.02,86.61c10.26-.4,20.53-.8,30.79-1.2"/><path class="cls-4" d="m112.18,96.17c-.87,22.01-1.74,44.01-2.61,66.02"/><path class="cls-4" d="m120.38,92.62c-.7,23.08-1.4,46.15-2.11,69.23"/><path class="cls-4" d="m64.81,86.74c-7.5,4.03-14.18,9.31-19.61,15.49-2.66,3.03-5.12,6.95-3.63,10.55,1,2.41,3.64,4.03,6.42,4.59,2.78.56,5.69.2,8.47-.39,7.92-1.67,15.28-5.16,21.95-9.39,6.67-4.23,12.71-9.21,18.74-14.17"/><path class="cls-5" d="m45.75,27.93c3.36,5.43,6.71,10.86,10.07,16.29"/><path class="cls-5" d="m28.74,42c6.72,3.14,13.45,6.28,20.17,9.42"/><path class="cls-5" d="m49.67,61.77c-6.77,2.08-13.53,4.16-20.3,6.24"/></svg>