<?xml version="1.0" encoding="UTF-8"?><svg xmlns="http://www.w3.org/2000/svg" viewBox="0 0 197.1 191.94"><defs><style>.cls-1{fill:#fff;}.cls-2{fill:#cdf1c6;}.cls-3{fill:#52a174;}.cls-4{stroke:#ffe57c;stroke-miterlimit:10;stroke-width:2px;}.cls-4,.cls-5{fill:none;}.cls-5{stroke:#333;stroke-linecap:round;stroke-linejoin:round;}</style></defs><g id="Ebene_3"><path class="cls-1" d="m70.17,9.58c-6.84,2.81-24.54,8.42-34.12,23.82-9.55,15.35-8.78,34.81-14.43,51.98C15.01,105.43-.56,123.19.02,144.29c.57,20.92,18.11,38.67,38.16,44.66,20.05,5.99,41.82,2.23,61.55-4.75,19.73-6.98,38.24-17.07,57.91-24.21,12.64-4.59,26.79-8.7,34.23-19.91,7.99-12.05,5.36-28.01,1.81-42.02-6.71-26.49-15.64-52.42-26.66-77.43-1.68-3.81-3.44-7.65-6.09-10.85C154.1,1.55,142.82,1.05,132.3.23c-3.06-.24-11.81-.78-27.46,1.42-13.62,1.91-23.33,3.27-34.67,7.93Z"/><path class="cls-2" d="m79.12,87.39c3.99,4.1,9.38,7.17,15.1,7.14,5.73-.03,11.11-3.17,15-7.39,3.89-4.21,6.49-9.44,8.87-14.65.31-.68-14.37-3.97-15.86-4.15-5.63-.68-11.35-.58-16.95.28-2.61.4-14.71,2.09-15.53,4.86-.36,1.2,3.35,5.96,4,6.97,1.58,2.47,3.33,4.84,5.38,6.94Z"/><path class="cls-3" d="m92.91,97.56c.69.93,3.26,1.28,4.63.49,2-1.16.67-4.3-.79-4.57-1.62-.3-4.9,2.66-3.83,4.09Z"/></g><g id="Ebene_2"><path class="cls-5" d="m68.71,73.98c.16.39.33.79.5,1.18,3.63,8.15,10.26,14.94,18.36,18.7.94.44,1.69,1.26,1.95,2.27.6,2.35-1.78,3.55-3.69,4.41-12.32,5.51-20.67,18.89-20.21,32.38.11,3.28.77,6.7,2.86,9.22,2.15,2.6,5.5,3.88,8.76,4.75,11.61,3.1,24.22,2.34,35.37-2.14,3.09-1.24,6.2-2.87,8.1-5.6,1.71-2.46,2.25-5.56,2.36-8.56.48-13.72-7.94-27.37-20.48-33-.57-.25-1.07-.66-1.35-1.21-.92-1.79.97-3.15,2.51-4.02,7.15-4.04,12.88-10.54,15.98-18.15,3.03-7.43,3.53-15.86,1.41-23.6-.05-.19-.28-.27-.44-.15-1.71,1.3-10.46,4.21-11.44,4.49-4.17,1.19-8.47,1.9-12.8,2.13-8.65.46-17.42-1-25.4-4.4-1.89-.81-3.71-2.39-4.41.35-.61,2.41-.67,5.12-.63,7.6.09,4.57,1,9.12,2.7,13.36Z"/><path class="cls-5" d="m71.23,48.09c6.44,2.22,15.48,4.41,25.99,4.13.83-.02,2.98-.39,7.28-1.02,0,0,3.54-.52,12.91-3.24,0,0,1.87-.55,3.21-2.17.07-.09.2-.25.22-.48.08-.75-1.03-1.44-1.63-1.8-3.15-1.9-6.57-3.26-10.11-4.24-5.87-1.62-11.99-1.76-18.03-1.36-5.13.34-10.22,1.22-15.15,2.7,0,0-3.79,1.11-6.49,3.25-.56.44-1.12.96-1.12.96-.3.32-.47.49-.62.78-.21.4-.23.71-.3,1.6-.03.33-.08.89-.15,1.61"/><path class="cls-5" d="m121.91,140.64c-.08,2.25-.16,4.51-.23,6.76-4.54,2.34-14.1,6.52-27.03,6.81-13.27.3-23.24-3.66-27.89-5.85,0-1.57,0-3.14,0-4.72"/><path class="cls-5" d="m69.23,137.65c6.15-2.88,18.29-7.36,33.38-5.4,6.48.84,11.93,2.67,16.16,4.54"/><path class="cls-5" d="m96.9,91.96c-1.41-.79-4.17-.39-5.13,1.73-.85,1.86.04,4.29,2,4.97,2.04.71,4.11-.85,4.63-2.58.31-1.05.1-2.31-.58-3.24-.15-.21-.45-.6-.93-.88Z"/><path class="cls-4" d="m145.55,113.66c-4.73-4.02-9.47-8.04-14.2-12.07"/><path class="cls-4" d="m157.44,95.66c-7.18-.74-14.37-1.47-21.55-2.21"/><path class="cls-4" d="m131.79,83.51c5.64-3.95,11.28-7.91,16.92-11.86"/><path class="cls-5" d="m109.25,74.33c.81-.11,4.19-.5,6.53-.9.56-.1,1.16-.26,2.37-.57,1.57-.41,1.75-.52,1.79-.68.22-.82-3.74-2.53-3.97-2.63-5.59-2.39-11.76-2.22-20.98-2.2,0,0-11.13.03-18.03,1.1-.94.14-3.16,1.08-7.61,2.96-.32.13-.91.39-.91.73,0,.61,2.1.95,3.96,1.42,4.58,1.17,4.17,2.27,7.2,2.84,4.13.79,4.86-1.25,9.57-.3,1.65.33,2.15.7,4.44,1.06.77.12,3.06.47,5.38.34,4.93-.29,4.84-2.48,10.25-3.18Z"/></g></svg>