<?xml version="1.0" encoding="UTF-8"?><svg id="Ebene_2" xmlns="http://www.w3.org/2000/svg" viewBox="0 0 273.39 168.74"><defs><style>.cls-1{fill:#fff;}.cls-2{fill:#cdf1c6;}.cls-3{fill:#52a174;}.cls-4{stroke:#343434;stroke-linecap:round;stroke-linejoin:round;}.cls-4,.cls-5{fill:none;}.cls-5{stroke:#ffe57c;stroke-miterlimit:10;stroke-width:2px;}</style></defs><path class="cls-1" d="m61.46,12.4c-18.49,3.54-36.63,11.78-47.96,25.88C3.94,50.18-.06,65.41,0,80.29c.11,26.71,13.36,53.28,35.72,69.95,22.36,16.67,53.48,22.84,80.94,15.34,17.63-4.81,33.47-14.82,51.53-17.92,23.63-4.06,49.17,4.02,71.49-4.29,18.59-6.92,31.14-24.76,33.33-43.33,2.19-18.57-5.04-37.42-17.08-52.34-12.04-14.92-28.59-26.22-46.19-35.12-11.46-5.8-23.67-10.73-36.62-12.18-20.22-2.26-37.07,5.74-56.39,8.72-18.24,2.81-36.88-.24-55.27,3.28Z"/><path class="cls-2" d="m88.97,108.21c.57,2.05,1.29,4.31,3.15,5.34,1.45.81,3.24.65,4.89.46,28.72-3.22,57.44-6.43,86.16-9.65-2.89-7.99-5.79-15.97-8.68-23.96-.97-2.67-2.11-5.55-4.59-6.94-2.02-1.13-4.49-1-6.8-.83-15.12,1.1-30.24,2.2-45.37,3.3-7.49.55-14.99,1.09-22.48,1.64-4.77.35-14.14-1.17-13.23,5.54,1.13,8.33,4.7,16.99,6.94,25.1Z"/><path class="cls-3" d="m152.56,86.29c-.16.25-.29.63.66,3.81.76,2.58,1.16,3.88,1.8,4.31.93.63,1.65.13,4.91-.33,4.14-.58,5.76-.16,6.22-1.16.25-.55-.08-1.58-.82-3.65-.79-2.21-1.18-3.31-1.85-3.76-1.21-.82-1.89.26-5.36.28-2.7,0-4.84-.62-5.57.5Z"/><path class="cls-5" d="m207.54,28.09c-4.07,6.84-8.14,13.68-12.21,20.51"/><path class="cls-5" d="m228.39,42.78c-7.9,4.82-15.8,9.63-23.69,14.45"/><path class="cls-5" d="m204.69,71.18c8.48,2.45,16.95,4.91,25.43,7.36"/><path class="cls-4" d="m58.58,55.53c11.15,34.83,19.32,61.79,20.51,65.4.16.49.53,1.79,1.72,2.58,1.7,1.14,4.14.46,6.92.41,35.58,0,71.16-2.63,106.74-3.26,2.73-.05,6.25.44,8.82-.32-.34-.67-1.36-2.73-2.58-5.36-5.48-11.83-27.13-61.61-30.09-62.55-.44-.14-.88-.21-.88-.21-.78-.1-1.6.13-5.65.25-4.36.13-33.99,2.17-105.51,3.05Z"/><path class="cls-4" d="m58.58,55.53c-5.1,18.52-10.19,37.05-15.29,55.57,10.01-.58,20.02-1.16,30.04-1.73"/><path class="cls-4" d="m98.2,96.63c10.32-.75,20.95-1.35,31.87-1.78,13.22-.52,26.03-.75,38.41-.73"/><path class="cls-4" d="m94.23,87.67c22.31-1.21,44.62-2.42,66.93-3.64"/><path class="cls-4" d="m103.07,79.23c2.89,9.12,5.77,18.24,8.66,27.36"/><path class="cls-4" d="m117.2,78.91c2.76,8.91,5.53,17.82,8.29,26.73"/><path class="cls-4" d="m133.5,78.54c2.87,8.88,5.75,17.77,8.62,26.65"/><path class="cls-4" d="m148.62,79.92c1.06,3.48,2.21,7.03,3.46,10.66,1.67,4.87,3.4,9.54,5.15,14"/><path class="cls-4" d="m71.99,59.98c2.29.93,4.92.12,6.24-1.9,1.32-2.02.92-4.64-.56-6.24-1.86-2-5.18-2.13-6.83-.63-.61.56-.9,1.26-1.05,1.79"/><path class="cls-4" d="m93.23,59.2c2.29.93,4.92.12,6.24-1.9,1.32-2.02.92-4.64-.56-6.24-1.86-2-5.18-2.13-6.83-.63-.61.56-.9,1.26-1.05,1.79"/><path class="cls-4" d="m114.29,58.42c2.29.93,4.92.12,6.24-1.9,1.32-2.02.92-4.64-.56-6.24-1.86-2-5.18-2.13-6.83-.63-.61.56-.9,1.26-1.05,1.79"/><path class="cls-4" d="m136.42,57.6c2.29.93,4.92.12,6.24-1.9,1.32-2.02.92-4.64-.56-6.24-1.86-2-5.18-2.13-6.83-.63-.61.56-.9,1.26-1.05,1.79"/><path class="cls-4" d="m156.93,56.73c2.29.93,4.92.12,6.24-1.9,1.32-2.02.92-4.64-.56-6.24-1.86-2-5.18-2.13-6.83-.63-.61.56-.9,1.26-1.05,1.79"/><path class="cls-4" d="m93.05,109.58c13.68-.42,27.54-.74,41.6-.95,15.65-.23,31.07-.32,46.26-.27-5.08-11.44-10.17-22.89-15.25-34.33-14.22.44-28.43.91-42.64,1.42-13.76.49-27.51,1.01-41.27,1.56,1.83,6.17,3.9,12.56,6.24,19.14,1.65,4.64,3.34,9.11,5.06,13.42Z"/></svg>