<?xml version="1.0" encoding="UTF-8"?>
<svg id="Ebene_2" data-name="Ebene 2" xmlns="http://www.w3.org/2000/svg" viewBox="0 0 111.76 126.7">
  <defs>
    <style>
      .cls-1 {
        fill: #cef2c7;
      }
    </style>
  </defs>
  <path class="cls-1" d="M34.88,37.52c-.67-.99-1.3-1.89-1.9-2.81-2.04-3.09-4.07-6.19-6.1-9.28-.1-.15-.21-.29-.32-.43-3.68-4.73-7.91-8.86-13.14-11.87-1.15-.66-2.4-1.05-3.78-.74-1.72,.39-3.38,.32-4.89-.75-.96-.68-1.27-1.28-.82-2.37,.75-1.81,1.45-3.69,2.51-5.32,.89-1.37,2.21-2.48,3.44-3.61,.56-.52,1.32-.37,2.02,0,.54,.28,1.15,.55,1.75,.61,3.16,.3,6,1.48,8.53,3.28,2.8,1.98,5.53,4.07,8.11,6.33,1.92,1.68,3.61,3.63,4.97,5.84,.46,.75,1.19,1.34,1.71,2.06,.81,1.11,1.54,2.26,2.31,3.4,.17,.26,.33,.53,.57,.92,.8-3.12,1.56-6.06,2.36-9.15-.4-.12-.9-.36-1.41-.38-1.95-.09-3.94-.47-5.81,.49-.43,.22-.84,.22-1.18-.24-.53-.7-.46-.85,.33-1.26,2.34-1.21,4.79-1.1,7.24-.61,1.26,.25,2.35,.2,3.31-.75,.46-.46,1.02-.82,1.52-1.25,2.61-2.26,5.71-3.23,9.09-3.2,2.38,.02,4.77,.29,7.15,.47,1.62,.12,3.07,.79,4.42,1.61,1.78,1.09,3.53,2.25,5.27,3.39,2.28,1.5,4.14,3.4,5.5,5.8,.28,.49,.82,.85,1.28,1.21,1.37,1.06,2.76,2.08,4.14,3.12,.62,.47,1.18,1.02,1.83,1.45,4.12,2.72,6.84,6.61,9.12,10.87,1.41,2.63,1.72,5.52,2.14,8.38,.51,3.55,.68,7.17,1.49,10.65,.79,3.38,1.51,6.86,3.32,9.92,.57,.97,1.27,1.88,2.05,2.69,2.01,2.08,3.47,4.49,4.6,7.12,1.04,2.44,2.05,4.9,2.97,7.39,.44,1.19,.75,2.46,.92,3.72,.64,4.61,.16,9.07-2.05,13.24-.19,.36-.46,.7-.73,1.01-.79,.93-1.58,1.87-2.42,2.75-.41,.42-.94,.71-1.44,1.04-2.32,1.53-4.84,2.52-7.59,3.06-1.77,.35-3.46,1.12-5.21,1.58-.72,.19-1.56,.2-2.29,.03-1.2-.27-2.09,.04-2.87,.94-2.22,2.58-4.5,5.12-6.67,7.73-1.23,1.48-2.64,2.72-4.33,3.56-1.84,.91-3.76,1.68-5.67,2.45-2.08,.84-4.14,1.77-6.28,2.39-2.85,.83-5.76,1.56-8.8,.94-.71-.15-1.61-.13-2.24,.19-4.94,2.49-9.71,1.82-14.44-.6-3.1-1.59-5.71-3.8-8.09-6.31-.33-.34-.67-.71-.87-1.13-1.59-3.28-3.23-6.53-4.3-10.05-.45-1.46-1.31-2.8-2.01-4.19-.98-1.95-1.9-3.94-3-5.82-1.45-2.47-3.04-4.86-4.58-7.28-2.02-3.18-4.01-6.37-6.1-9.51-.74-1.11-1.81-2-2.56-3.1-1.83-2.7-3.23-5.62-4.33-8.72-1.17-3.32-1.9-6.72-2.33-10.19-.14-1.09-.07-2.21-.12-3.31-.04-.71-.23-1.44-.17-2.14,.16-1.74,.39-3.48,.67-5.21,.44-2.7,2.27-4.73,3.51-7.04,1.19-2.22,3.36-3.25,5.22-4.66,2.04-1.55,4.29-2.4,6.93-2.12,1.36,.14,1.54-.07,1.73-1.45,.4-2.89,1.67-5.48,2.76-8.13,.25-.61,.72-1.21,1.24-1.59,.36-.26,1-.23,1.5-.16,.13,.02,.24,.65,.25,1,.09,2.75-1.31,5.05-2.31,7.47-.28,.69-.61,1.37-.84,2.07-.31,.98-.06,1.31,.95,1.61,1.6,.47,3.2,.98,4.78,1.51,.53,.18,1,.54,1.53,.73,.94,.34,1.9,.64,2.87,.93,.46,.14,.99,.11,1.38,.33,1.03,.58,1.81,.15,2.7-.51v-.04Zm36.96,80.3c1.6-.49,3.71-2.24,5.51-4.44,1.34-1.64,2.74-3.22,4.05-4.88,1.44-1.81,2.82-3.67,4.22-5.52,.07-.09,.1-.21,.14-.32,.38-1.06,.63-2.2,1.17-3.17,1.05-1.9,.96-3.83,.55-5.84-.38-1.87-.8-3.75-1.01-5.65-.16-1.41-.41-2.68-1.49-3.71-.4-.38-.61-.95-.89-1.45-1.59-2.84-3.21-5.64-5.71-7.86-3.01-2.68-4.9-6.14-6.52-9.78-.44-.98-.97-1.92-1.41-2.9-1.11-2.42-2.45-4.77-3.21-7.29-.64-2.14-1.43-4.17-2.39-6.16-.38-.77-.85-1.52-1.4-2.18-2.39-2.87-4.75-5.77-7.26-8.53-1.06-1.17-2.42-2.11-3.74-3-1.18-.8-2.52-1.37-3.76-2.09-.65-.38-1.23-.33-1.88-.06-2.5,1.02-4.69,2.47-6.53,4.46-.52,.56-1.16,1.06-1.85,1.39-2.64,1.28-5.17,2.72-7.52,4.5-2.77,2.1-5.52,4.21-7.75,6.89-.55,.66-1.01,1.53-1.17,2.37-.48,2.43-.49,4.92,.32,7.27,1.14,3.34,2.5,6.6,3.71,9.91,.34,.94,.66,1.97,.62,2.95-.06,1.25,.19,2.35,.63,3.48,.85,2.2,1.58,4.45,2.45,6.64,.79,1.99,1.49,4.06,2.58,5.88,1.45,2.43,3.3,4.61,4.85,6.98,1.94,2.94,3.82,5.93,5.6,8.97,1.49,2.55,2.64,5.32,4.25,7.79,1.82,2.79,3.96,5.37,6.02,8,1.4,1.79,3.27,2.31,5.51,1.92,4.29-.75,8.21-2.51,13.32-4.58h-.01ZM60.1,21.78c-.95,.43-1.89,.9-2.86,1.3-3.27,1.34-4.92,4.22-6.62,7.03-.39,.64-.13,1.22,.52,1.59,.62,.35,1.25,.71,1.89,1.04,3.15,1.66,6,3.67,8.15,6.59,1.16,1.59,2.41,3.14,3.79,4.54,2.24,2.28,3.92,4.91,5.1,7.84,.98,2.44,1.69,4.99,2.75,7.39,1.48,3.37,3.15,6.65,4.77,9.95,1.19,2.42,2.79,4.49,4.87,6.25,1.19,1.01,2.24,2.24,3.12,3.54,1.27,1.88,2.34,3.89,3.46,5.87,.58,1.03,1.33,2.06,1.56,3.19,.54,2.63,.86,5.31,1.19,7.98,.12,.97,.26,2.04-.03,2.93-.51,1.6-1.34,3.11-2.02,4.66-.16,.36-.24,.75-.35,1.13,.37,0,.76,.08,1.09-.03,2.36-.75,4.77-1.41,7.05-2.36,1.49-.62,3.01-1.45,4.16-2.55,3.16-3.03,4.29-7.14,5.13-11.25,.72-3.52-.25-6.89-1.7-10.11-1.14-2.54-2.24-5.1-3.51-7.57-.7-1.36-1.55-2.72-2.62-3.81-2.81-2.86-4.75-6.13-5.53-10.07-.51-2.57-.97-5.16-1.45-7.74-.49-2.61-1.05-5.21-1.43-7.83-1.01-6.96-4.21-12.63-9.72-17-.73-.58-1.45-1.17-2.09-1.83-1.48-1.52-3.27-2.57-5.26-3.14-1.38-.4-2.92-.67-4.31-.47-3.17,.47-6.22,1.46-9.1,2.93h0Zm-29.5,18.07c-1.27-.53-2.22-.82-3.06-1.31-3.14-1.84-6.56-2.54-10.13-2.61-.84-.02-1.77,.12-2.51,.48-2.67,1.31-5.11,2.94-6.88,5.45-2.65,3.75-4.51,7.69-3.94,12.49,.51,4.29,.78,8.58,2.11,12.77,1.08,3.38,2.5,6.52,4.43,9.46,.44,.67,1.02,1.24,1.53,1.87,1.41,1.73,2.97,3.38,4.2,5.23,2.5,3.75,4.76,7.67,7.25,11.43,1.97,2.99,3.53,6.18,5,9.42,.54,1.19,1.05,2.43,1.35,3.7,1.66,6.84,5.62,11.87,11.86,15.07,1.04,.53,2.23,.9,3.39,1.06,2.21,.31,4.09-.85,6.14-1.63-.18-.26-.29-.46-.43-.63-1.32-1.54-2.73-3.01-3.95-4.63-1.93-2.58-3.83-5.19-5.56-7.91-2.74-4.31-5.26-8.76-7.99-13.07-1.68-2.65-3.56-5.17-5.37-7.73-1.02-1.44-1.69-3.01-2.06-4.74-.25-1.14-.54-2.27-.92-3.37-.65-1.86-1.39-3.69-2.07-5.54-.17-.47-.5-1.07-.35-1.44,.47-1.19,.11-2.27-.28-3.3-.53-1.42-1.35-2.74-1.85-4.17-.83-2.36-1.64-4.75-2.2-7.18-.88-3.85-.05-7.43,2.4-10.55,1.76-2.25,3.86-4.13,6.26-5.71,1.23-.8,2.3-1.84,3.61-2.91h.02Zm42.1-23.27c-.51-.57-.83-.96-1.18-1.32-.71-.71-1.39-1.44-2.16-2.08-.66-.55-1.41-1.01-2.15-1.46-2.48-1.47-4.85-2.93-7.9-3.33-5.43-.71-9.49,1.51-12.59,5.47-2.14,2.73-2.76,6.24-2.84,9.75-.03,1.25-.21,2.43-1.49,3.12-.2,.11-.38,.55-.32,.78,.2,.87,.45,1.74,.79,2.57,.14,.34,.51,.72,.84,.81,1.09,.3,2.83-.49,3.43-1.47,.54-.89,.96-1.88,1.61-2.69,1.15-1.44,2.18-3.2,3.7-4.07,3.54-2.02,7.3-3.67,11.05-5.3,2.59-1.13,5.35-1.45,8.17-.81,.27,.06,.56,.01,1.04,.02h0Zm-34.89,9.46c-.23-.43-.34-.68-.49-.9-2.29-3.42-4.12-7.12-6.8-10.32-2.34-2.79-4.88-5.3-7.74-7.51-1.18-.91-2.44-1.74-3.74-2.46-1.06-.59-2.22-1.02-3.37-1.42-.3-.1-.92,.05-1.06,.28-.82,1.35-1.52,2.77-2.32,4.13-.26,.44-.68,.79-1.03,1.18-.21,.23-.44,.44-.66,.66,.26,.22,.49,.5,.79,.65,.48,.23,1.01,.37,1.52,.54,1.53,.5,3.06,.96,4.36,2,1.65,1.32,3.54,2.38,5.06,3.83,2.6,2.46,5.19,4.97,7.42,7.74,2.33,2.89,4.51,5.94,6.2,9.28,1.14,2.26,1.15,2.16,3.14,.44,.56-.48,.86-1,.64-1.72-.65-2.21-1.32-4.41-1.92-6.41h0ZM7.07,10.02c2.14-1.57,3.81-3.59,4.94-6.07,.33-.71-.04-1.02-.55-1.36-.55-.36-.98-.18-1.32,.27-1.06,1.41-2.16,2.79-3.11,4.27-.43,.68-.6,1.55-.78,2.36-.13,.57,.23,.75,.82,.52h0Z"/>
</svg>