<?xml version="1.0" encoding="UTF-8"?>
<svg id="Ebene_2" data-name="Ebene 2" xmlns="http://www.w3.org/2000/svg" viewBox="0 0 118.47 126.67">
  <defs>
    <style>
      .cls-1 {
        fill: #cef2c7;
      }
    </style>
  </defs>
  <path class="cls-1" d="M98.79,25.24c3.64,2.19,7.06,3.78,9.91,6.07,5.11,4.11,7.72,9.85,8.61,16.24,1.39,9.93,1.89,19.99-.6,29.74-1.49,5.83-4,11.59-7.03,16.81-12.32,21.21-32,30.01-55.52,32.27-19.34,1.86-34.85-4.83-46.59-20.18C1.89,98.76,.3,89.75,.02,80.85c-.21-6.78,1.15-13.76,2.79-20.4,2.25-9.08,8.68-15.11,16.73-19.5,.99-.54,2.04-.98,2.95-1.42-3.51-8.06-5.82-16.64-14.25-21.31,.18-.41,.36-.83,.53-1.24,1.99,.04,4.09-.34,5.94,.18,7.48,2.11,13.94,5.88,19.62,11.4,2.94,2.85,7.21,4.32,11.8,6.94,.31-3.37,.29-5.37,.7-7.28,1.05-4.85,2.07-9.73,3.56-14.46,.73-2.31,1.98-4.85,5.3-4.66,.41,.02,1.06-.29,1.22-.63,1.25-2.55,3.49-1.98,4.47-.56,.9,1.31,1.21,4.12,.39,5.31-3.43,4.96-5.17,10.4-5.88,16.3C61.11,20.14,72.49,13.58,68.78,.04c3.95-.39,5.31,2.03,5.9,4.83,1.1,5.22,1.01,10.42-1.35,15.39-.69,1.45-1.21,2.99-1.88,4.67,10.99,1.02,20.28-.87,26.47-10.58,.44-.68,1.74-1.36,2.42-1.18,.65,.17,1.46,1.49,1.4,2.24-.16,2.1-.61,4.2-1.18,6.24-.33,1.18-1.1,2.23-1.78,3.57v.02ZM13.1,63.23l.95,.95c-.5,3.78-1.28,7.56-1.42,11.36-.14,3.81,.05,7.7,.7,11.45,.48,2.78,1.72,5.49,2.96,8.07,1.59,3.33,3.82,6.37,5.24,9.76,2.1,5.01,3.43,9.16,9.34,9.5-.67-1.15-1.22-2.08-1.77-3.02-4.56-7.9-11.21-14.63-13.29-23.93-1.73-7.7-2.31-15.42-.24-23.1,.93-3.43,5.7-5.34,8.28-3.95-.92,1.63-2.1,3.16-2.71,4.9-3.35,9.6-1.86,18.88,2.28,27.88,.38,.82,1.4,1.38,2.2,1.95,1.11,.8,2.36,1.44,3.44,2.27,3.31,2.54,6.56,5.17,9.86,7.73,2.21,1.71,4.48,3.36,7.04,5.27-2.06,1.31-3.25,2.07-5.31,3.37,6.49,1.59,11.97,3.1,17.53,4.27,7.17,1.51,14.62,2.08,21.37-.85,9.38-4.07,16.71-11.31,23.3-18.92,3.24-3.74,4.91-8.85,7.21-13.38,3.85-7.58,4.73-15.7,3.19-23.89-1.31-7.01-3.59-13.83-5.34-20.76-1.22-4.83-4.82-7.74-8.41-10.6-1.1-.87-3.05-1.69-4.22-1.32-6.62,2.13-13.72,2.72-19.66,7.2-3.33,2.5-7.71,4.47-11.8,4.88-6.44,.65-11.89,2.43-16.73,6.79-4.26,3.84-9.35,5.98-15.26,6.46-3.08,.25-6.41,1.21-9.01,2.84-4.33,2.71-8.68,4.85-13.84,5.04-2.16,.08-2.94,1.18-3.45,3.26-2.66,10.93-1.41,21.55,2.1,32.05,1.57,4.71,2.95,5.82,8.4,6.79-.24-.54-.42-1-.65-1.44-5.9-11.24-6.73-23.18-4.71-35.45,.21-1.25,1.59-2.3,2.43-3.44h0Zm35.01-20.3c-.89-4.1-3.03-5.91-5.85-6.75-5.39-1.61-9.72-4.49-13.78-8.46-3.36-3.29-7.94-5.33-11.84-7.83,2.4,4.99,4.59,9.59,6.81,14.17,1.56,3.22,4.22,5.88,7.67,5.21,5.95-1.15,11.03,.34,16.99,3.66ZM14.87,57.43c6.12-4.42,13.1-5.67,20.19-6.99,3.38-.63,6.44-2.96,10.23-4.8-3.41-3.03-5.79-4.79-9.33-2.55-1.7,1.08-3.77,1.57-5.65,2.38-6.15,2.65-11.44,6.46-15.44,11.97h0Zm45.14-19.01c4.64,1.46,8.07-.84,11.2-3.08,5.39-3.85,11.01-6.82,17.68-7.75,1.56-.22,2.96-1.56,4.5-2.42-5.48,.79-10.58,2.08-15.69,2.12-6.75,.06-14.29,4.18-17.68,11.12h0Zm-29.74,3.5c-3.96-1.91-7.63,.15-11.02,2.76-4.48,3.45-8.97,6.97-11.08,12.8,7.62-5.36,14.94-10.52,22.09-15.55h.01ZM56.46,11.17c-6.31,8.73-6.6,18.06-5.98,28.24,.53-.82,.77-1.02,.79-1.24,.57-8.35,2.13-16.43,6.19-23.9,.36-.66-.64-2.05-1-3.1Zm-14.33,106.98c-3.66-3.88-6.78-7.19-9.56-10.13,.57-.17,1.69-.51,2.82-.84-.99-.67-1.91-1.49-2.99-1.99-1.42-.66-2.97-1.06-5.22-1.84,2.41,3.91,5.02,6.92,6.2,10.41,1.39,4.11,3.69,5.26,8.74,4.4h.01Zm15.9-85.93c.35,.21,.71,.42,1.06,.63,6.18-4.99,11.62-10.47,11.97-19.24-4.34,6.21-8.69,12.41-13.03,18.62h0Zm-2.42,89.07l.28-1.29c-2.58-.66-5.16-1.32-7.74-1.98-.12,.51-.24,1.02-.36,1.52,2.6,.58,5.21,1.16,7.81,1.75h0Z"/>
</svg>