<?xml version="1.0" encoding="UTF-8"?>
<svg id="Ebene_1" fill="currentColor" data-name="Ebene 1" xmlns="http://www.w3.org/2000/svg" width="28.81mm" height="28.81mm" viewBox="0 0 81.68 81.68">
  <path d="M40.84,0C18.32,0,0,18.32,0,40.84s18.32,40.84,40.84,40.84,40.84-18.32,40.84-40.84S63.36,0,40.84,0Zm0,78.68C19.98,78.68,3,61.71,3,40.84S19.98,3,40.84,3s37.84,16.98,37.84,37.84-16.97,37.84-37.84,37.84Z"/>
  <path d="M68.21,38.84h-25.37V14.85c0-1.1-.9-2-2-2s-2,.9-2,2v23.99H13.47c-1.1,0-2,.9-2,2s.9,2,2,2h25.37v26.74c0,1.1,.9,2,2,2s2-.9,2-2v-26.74h25.37c1.1,0,2-.9,2-2s-.9-2-2-2Z"/>
</svg>