<?xml version="1.0" encoding="UTF-8"?>
<svg id="Ebene_1" data-name="Ebene 1" xmlns="http://www.w3.org/2000/svg" width="10.79mm" height="7.68mm" viewBox="0 0 30.59 21.77" fill="currentColor">
  <path d="M29.09,3H1.5c-.83,0-1.5-.67-1.5-1.5S.67,0,1.5,0H29.09c.83,0,1.5,.67,1.5,1.5s-.67,1.5-1.5,1.5Z"/>
  <path d="M29.09,12.39H1.5c-.83,0-1.5-.67-1.5-1.5s.67-1.5,1.5-1.5H29.09c.83,0,1.5,.67,1.5,1.5s-.67,1.5-1.5,1.5Z"/>
  <path d="M29.09,21.77H1.5c-.83,0-1.5-.67-1.5-1.5s.67-1.5,1.5-1.5H29.09c.83,0,1.5,.67,1.5,1.5s-.67,1.5-1.5,1.5Z"/>
</svg>