<?xml version="1.0" encoding="UTF-8"?>
<svg id="Ebene_1" fill="currentColor" data-name="Ebene 1" xmlns="http://www.w3.org/2000/svg" viewBox="0 0 85.39 79.87">
  <path d="M84.4,19.17c-1.72-4.72-5.61-8.54-10.68-10.49-4.91-1.89-10.34-1.74-15.12,.36C55.15,3.32,48.83-.18,42.09,0c-6.61,.19-12.67,3.95-15.83,9.69-4.69-1.98-9.99-2.13-14.76-.38C6.73,11.06,2.98,14.49,1.21,18.73c-1.87,4.47-1.56,9.78,.86,14.59,2.46,4.9,6.81,8.56,12.05,10.18,.03,3.84,.05,10.36,.08,16.87,.03,7.21,.06,14.42,.08,18.01,0,.82,.68,1.49,1.5,1.49h54.55c.83,0,1.5-.67,1.5-1.5V43.31c4.89-1.62,9-5.1,11.39-9.69,2.41-4.63,2.85-9.9,1.19-14.45Z"/>
</svg>