<?xml version="1.0" encoding="UTF-8"?>
<svg id="Ebene_1" fill="currentColor" data-name="Ebene 1" xmlns="http://www.w3.org/2000/svg" width="13.6mm" height="13.6mm" viewBox="0 0 38.54 38.54">
  <path d="M21.39,19.27L38.1,2.56c.59-.59,.59-1.54,0-2.12-.59-.59-1.54-.59-2.12,0L19.27,17.15,2.56,.44C1.97-.15,1.03-.15,.44,.44-.15,1.02-.15,1.98,.44,2.56L17.15,19.27,.44,35.98c-.59,.59-.59,1.54,0,2.12,.29,.29,.68,.44,1.06,.44s.77-.15,1.06-.44L19.27,21.39l16.71,16.71c.29,.29,.68,.44,1.06,.44s.77-.15,1.06-.44c.59-.59,.59-1.54,0-2.12L21.39,19.27Z"/>
</svg>