<?xml version="1.0" encoding="UTF-8"?>
<svg id="Ebene_1" data-name="Ebene 1" xmlns="http://www.w3.org/2000/svg" width="29.69mm" height="20.87mm" viewBox="0 0 84.16 59.17">
  <path d="M75.26,0H8.9C3.99,0,0,3.99,0,8.9V50.27c0,4.91,3.99,8.9,8.9,8.9H75.26c1.71,0,3.3-.49,4.65-1.33l.02,.02,.07-.07c2.49-1.58,4.16-4.35,4.16-7.52V8.9c0-4.91-3.99-8.9-8.9-8.9Zm5.9,8.9V50.27c0,1.29-.42,2.48-1.13,3.45l-23.59-23.59L80.46,6.11c.45,.83,.7,1.78,.7,2.79Zm-5.9-5.9c1.16,0,2.24,.34,3.15,.92L42.08,40.25,5.75,3.92c.91-.58,1.99-.92,3.15-.92H75.26ZM4.11,53.71c-.7-.97-1.11-2.15-1.11-3.44V8.9c0-1.01,.25-1.96,.7-2.79L27.7,30.11,4.11,53.71Zm71.15,2.46H8.9c-.88,0-1.71-.2-2.46-.55l23.39-23.39,11.19,11.19c.28,.28,.66,.44,1.06,.44s.78-.16,1.06-.44l11.18-11.18,23.38,23.38c-.75,.34-1.57,.54-2.44,.54Z"/>
</svg>