<?xml version="1.0" encoding="UTF-8"?>
<svg id="Ebene_2" fill="currentColor" data-name="Ebene 2" xmlns="http://www.w3.org/2000/svg" viewBox="0 0 68.7 86.71">
  <path d="M68.53,29.24L34.68,.12c-.19-.16-.46-.16-.65,0L.17,29.24c-.11,.09-.17,.23-.17,.38v56.59c0,.28,.22,.5,.5,.5l67.7-.02c.28,0,.5-.22,.5-.5V29.62c0-.15-.06-.28-.17-.38Zm-20.65,53.57H21.15v-5.28h26.73v5.28Zm5.93-22.54c-1.14,2.19-3.17,3.82-5.56,4.46-.22,.06-.37,.26-.37,.48v10.32h-7.24v-11.39c0-.55-.45-1-1-1s-1,.45-1,1v11.39h-8.13v-11.39c0-.55-.45-1-1-1s-1,.45-1,1v11.39h-7.38c-.01-4.49-.02-8.64-.04-10.22,0-.23-.16-.43-.38-.48-2.56-.63-4.7-2.33-5.87-4.67-1.06-2.11-1.21-4.43-.4-6.36,.76-1.83,2.4-3.31,4.5-4.08,2.33-.85,4.95-.69,7.19,.45,.12,.06,.27,.07,.39,.03,.13-.05,.23-.14,.29-.27,1.28-2.87,4.14-4.78,7.27-4.87,3.17-.13,6.16,1.69,7.59,4.55,.06,.12,.17,.21,.29,.25,.13,.04,.27,.03,.39-.04,2.26-1.2,4.93-1.36,7.32-.45,2.23,.86,3.94,2.52,4.69,4.58,.72,1.98,.53,4.28-.54,6.32Z"/>
</svg>