<?xml version="1.0" encoding="UTF-8"?>
<svg id="Ebene_1" fill="currentColor" data-name="Ebene 1" xmlns="http://www.w3.org/2000/svg" width="29.97mm" height="49.58mm" viewBox="0 0 84.95 140.54">
  <path d="M39.39,29.04l-.19-2.59c-.2-2.84-.42-5.68-.64-8.52-.31-4.09-.62-8.18-.9-12.28-.23-3.35-2.33-5.36-5.49-5.24-2.32,.08-4.62,1.83-4.52,5.55,.15,4.88,.29,9.75,.42,14.62v.43c.19,6.43,.36,12.86,.53,19.29,.03,1.37-.44,1.47-.71,1.53-.64,.14-1.17,.07-1.48-.17-.4-.32-.47-.97-.47-1.33-.04-2.54-.06-5.08-.09-7.62-.03-2.54-.06-5.07-.09-7.61l-.04-2.97c-.08-5.68-.15-11.36-.27-17.05-.03-1.55-.67-2.88-1.81-3.76-1.15-.89-2.69-1.19-4.23-.82-3.6,.86-4.04,3.61-4.06,5.61l-.3,34.08c0,.68-.13,1.19-.34,1.39-.17,.17-.59,.27-1.12,.25-.45,0-.79-.09-.92-.23-.15-.16-.31-.63-.29-1.46v-.32c.02-.26,.03-.51,.03-.71,.3-11.12,.6-22.24,.88-33.37,.08-3.1-1.66-5.24-4.42-5.45C6.02,.09,3.7,2.11,3.33,5.1c-.11,.95-.17,1.9-.22,2.82-.03,.44-.05,.88-.09,1.33l-.9,12.68C1.41,31.83,.7,41.73,.03,51.64c-.19,2.74,.52,5.37,2.09,7.81,1.55,2.41,3.65,3.92,5.69,5.38,.34,.24,.67,.48,1.01,.73,2.35,1.73,3.27,3.26,3.18,5.26-.34,7.11-.71,14.22-1.09,21.32l-.96,18.29c-.34,6.5-.68,13-1,19.52-.14,3.2,1.12,6.06,3.66,8.25,2.39,2.06,5.11,2.35,7.74,2.35,.24,0,.47,0,.71,0,3.49-.05,6.35-1.17,8.28-3.23,1.92-2.06,2.84-4.98,2.65-8.46-.34-6.24-.66-12.47-.97-18.71l-.39-7.62c-.14-2.75-.28-5.49-.41-8.24-.36-7.33-.73-14.91-1.2-22.35-.17-2.73,.71-4.58,2.95-6.18,.36-.26,.72-.51,1.09-.77,.95-.67,1.93-1.35,2.88-2.1,3.56-2.84,5.3-6.67,5.02-11.08-.48-7.59-1.03-15.29-1.57-22.75Z"/>
  <path d="M81.7,.31c-2.16-.75-4.29-.14-5.84,1.69-.7,.82-1.39,1.77-2.11,2.89-5.36,8.27-8.27,17.55-10.2,24.72-3.49,12.92-5.26,25.99-6.53,37.08-.62,5.45,1.29,9.43,5.83,12.15,.78,.46,1.55,1.19,2.24,1.83,1.33,1.25,1.86,2.66,1.67,4.44-.49,4.52-.95,9.04-1.41,13.57-.23,2.26-.46,4.51-.69,6.77l-.66,6.32c-.61,5.91-1.22,11.81-1.88,17.71-.33,2.94,.45,5.65,2.19,7.64,1.72,1.96,4.25,3.06,7.13,3.12,.54,0,1.09,.02,1.64,.02s1.08,0,1.62-.02c5.9-.09,10.21-4.45,10.23-10.38,0-3.58,0-7.16,0-10.74V5.29c0-3.36-2.03-4.56-3.24-4.98Z"/>
</svg>