<?xml version="1.0" encoding="UTF-8"?>
<svg id="Ebene_1" fill="currentColor" data-name="Ebene 1" xmlns="http://www.w3.org/2000/svg" width="29.97mm" height="49.58mm" viewBox="0 0 84.94 140.54">
  <defs>
    <style>
      .cls-1 {
        stroke: #000;
        stroke-miterlimit: 10;
        stroke-width: 4px;
      }
    </style>
  </defs>
  <path class="cls-1" d="M12.47,100.61c.51-9.9,1.04-19.8,1.52-29.7,.15-3.12-1.6-5.21-3.99-6.97-2.24-1.65-4.62-3.12-6.2-5.58-1.33-2.06-1.94-4.23-1.78-6.59,.96-14.13,1.99-28.26,2.99-42.39,.1-1.35,.14-2.71,.3-4.05,.24-1.95,1.66-3.16,3.41-3.03,1.66,.13,2.62,1.36,2.57,3.41-.28,11.12-.58,22.24-.88,33.36,0,.34-.02,.68-.03,1.02-.05,2.49,.98,3.71,3.17,3.75,2.31,.04,3.47-1.16,3.5-3.62,.1-11.36,.2-22.73,.3-34.09,.02-2.24,.71-3.25,2.52-3.68,1.92-.46,3.54,.68,3.58,2.67,.14,6.67,.22,13.34,.31,20,.07,5.08,.11,10.16,.18,15.23,.04,2.57,1.83,3.96,4.36,3.43,1.55-.33,2.35-1.55,2.3-3.54-.17-6.57-.35-13.15-.53-19.72-.13-4.88-.27-9.75-.42-14.63-.06-2.13,.89-3.43,2.59-3.49,2.13-.08,3.27,1.16,3.42,3.38,.47,6.94,1.04,13.88,1.54,20.81,.61,8.44,1.23,16.88,1.76,25.32,.24,3.82-1.26,6.99-4.27,9.39-1.25,.99-2.58,1.88-3.88,2.81-2.73,1.95-4,4.45-3.78,7.93,.64,10.18,1.09,20.38,1.61,30.57,.45,8.78,.88,17.56,1.36,26.34,.32,5.95-2.99,9.49-8.96,9.58-2.57,.04-5.05-.08-7.12-1.86-2.03-1.75-3.09-3.96-2.97-6.64,.4-8.26,.84-16.51,1.27-24.77,.08-1.55,.16-3.09,.24-4.64h0Z"/>
  <path class="cls-1" d="M82.93,67.94v45.81c0,5.37,.01,10.73,0,16.1-.02,4.88-3.41,8.31-8.26,8.38-1.06,.02-2.13,.02-3.19,0-4.86-.09-7.92-3.7-7.38-8.53,.89-8.01,1.7-16.02,2.54-24.04,.7-6.78,1.36-13.56,2.1-20.33,.27-2.47-.53-4.47-2.29-6.12-.81-.76-1.64-1.53-2.58-2.09-3.9-2.34-5.4-5.54-4.87-10.21,1.42-12.4,3.21-24.71,6.47-36.78,2.29-8.47,5.14-16.72,9.95-24.15,.6-.93,1.25-1.85,1.96-2.69,.96-1.13,2.22-1.59,3.65-1.09,1.42,.49,1.91,1.65,1.91,3.09v62.64h0Z"/>
</svg>