<?xml version="1.0" encoding="UTF-8"?>
<svg id="Ebene_1" data-name="Ebene 1" xmlns="http://www.w3.org/2000/svg" width="28.32mm" height="28.32mm" viewBox="0 0 80.29 80.29" fill="currentColor">
  <path d="M61.73,80.29H18.56c-10.23,0-18.56-8.33-18.56-18.56V18.56C0,8.33,8.33,0,18.56,0H61.73c10.23,0,18.56,8.33,18.56,18.56V61.73c0,10.23-8.33,18.56-18.56,18.56ZM18.56,3C9.98,3,3,9.98,3,18.56V61.73c0,8.58,6.98,15.56,15.56,15.56H61.73c8.58,0,15.56-6.98,15.56-15.56V18.56c0-8.58-6.98-15.56-15.56-15.56H18.56Z"/>
  <circle cx="62.78" cy="20.24" r="3.36"/>
  <path d="M40.15,55.58c-8.51,0-15.44-6.93-15.44-15.44s6.93-15.44,15.44-15.44,15.44,6.93,15.44,15.44-6.93,15.44-15.44,15.44Zm0-27.88c-6.86,0-12.44,5.58-12.44,12.44s5.58,12.44,12.44,12.44,12.44-5.58,12.44-12.44-5.58-12.44-12.44-12.44Z"/>
</svg>