<?xml version="1.0" encoding="UTF-8"?>
<svg id="Ebene_1" fill="currentColor" data-name="Ebene 1" xmlns="http://www.w3.org/2000/svg" width="74.11" height="57.7" viewBox="0 0 74.11 57.7">
  <path d="M37.06,48.77c-9.04,0-16.39-7.35-16.39-16.39s7.35-16.39,16.39-16.39,16.39,7.35,16.39,16.39-7.35,16.39-16.39,16.39Zm0-29.78c-7.38,0-13.39,6.01-13.39,13.39s6.01,13.39,13.39,13.39,13.39-6.01,13.39-13.39-6.01-13.39-13.39-13.39Z"/>
  <circle cx="60.58" cy="18.36" r="3.3"/>
  <path d="M67.69,57.7H6.42c-3.54,0-6.42-2.88-6.42-6.42V13.26c0-3.54,2.88-6.42,6.42-6.42h14.48V3.64c0-2.01,1.63-3.64,3.64-3.64h25.03c2.01,0,3.64,1.63,3.64,3.64v3.2h14.48c3.54,0,6.42,2.88,6.42,6.42V51.28c0,3.54-2.88,6.42-6.42,6.42ZM6.42,9.84c-1.89,0-3.42,1.53-3.42,3.42V51.28c0,1.89,1.53,3.42,3.42,3.42h61.27c1.89,0,3.42-1.53,3.42-3.42V13.26c0-1.89-1.53-3.42-3.42-3.42h-15.98c-.83,0-1.5-.67-1.5-1.5V3.64c0-.35-.29-.64-.64-.64H24.54c-.35,0-.64,.29-.64,.64v4.7c0,.83-.67,1.5-1.5,1.5H6.42Z"/>
</svg>