<?xml version="1.0" encoding="UTF-8"?>
<svg id="Ebene_1" fill="currentColor" data-name="Ebene 1" xmlns="http://www.w3.org/2000/svg" width="43.04mm" height="43.2mm" viewBox="0 0 122 122.47" fill="currentColor">
  <path d="M120.5,27.21c-.91-.4-1.98-.21-2.7,.47l-31.12,29.07L63.01,1.52c-.39-.92-1.3-1.52-2.3-1.52s-1.9,.6-2.3,1.51l-23.65,55.2L4.23,27.69c-.72-.69-1.79-.88-2.71-.49C.61,27.6,.01,28.5,.01,29.5V119.74c0,.08-.01,.15-.01,.23,0,1.38,1.12,2.5,2.5,2.5H119.5c1.38,0,2.5-1.12,2.5-2.5V29.5c0-1-.59-1.9-1.5-2.29Z"/>
</svg>