<?xml version="1.0" encoding="UTF-8"?>
<svg id="Ebene_1" fill="currentColor" data-name="Ebene 1" xmlns="http://www.w3.org/2000/svg" width="11.34mm" height="11.34mm" viewBox="0 0 32.14 32.14">
  <path d="M15.75,22.75l-5.06,5.06c-.85,.85-1.99,1.32-3.19,1.32h0c-1.2,0-2.33-.47-3.18-1.32-.85-.85-1.32-1.99-1.32-3.19,0-1.2,.47-2.33,1.32-3.18l6.12-6.12c.85-.85,1.99-1.32,3.19-1.32h0c1.2,0,2.33,.47,3.17,1.32,.58,.59,1.53,.59,2.12,0,.59-.58,.59-1.53,0-2.12-1.41-1.42-3.29-2.2-5.3-2.2h0c-2,0-3.89,.78-5.31,2.2l-6.12,6.12C.78,20.73,0,22.61,0,24.62c0,2.01,.78,3.9,2.2,5.31,1.41,1.42,3.29,2.2,5.3,2.2h0c2,0,3.89-.78,5.31-2.2l5.06-5.06c.59-.59,.59-1.54,0-2.12s-1.54-.59-2.12,0Z"/>
  <path d="M29.94,2.2C28.52,.79,26.64,0,24.64,0h0c-2,0-3.89,.78-5.31,2.2l-5.14,5.14c-.59,.59-.59,1.54,0,2.12,.59,.59,1.54,.59,2.12,0l5.14-5.14c.85-.85,1.99-1.32,3.19-1.32h0c1.2,0,2.33,.47,3.18,1.32,.85,.85,1.33,1.99,1.32,3.19,0,1.2-.47,2.33-1.32,3.18l-6.12,6.12c-.85,.85-1.99,1.32-3.19,1.32h0c-1.2,0-2.33-.47-3.15-1.3l-.22-.23c-.57-.6-1.52-.62-2.12-.05-.6,.57-.62,1.52-.05,2.12l.24,.25c1.41,1.42,3.29,2.2,5.3,2.2h0c2,0,3.89-.78,5.31-2.2l6.12-6.12c1.42-1.41,2.2-3.29,2.2-5.3,0-2.01-.78-3.9-2.2-5.31Z"/>
</svg>