<?xml version="1.0" encoding="UTF-8"?><svg id="Ebene_1" xmlns="http://www.w3.org/2000/svg" viewBox="0 0 90 90"><path d="m45.04,9.58c5.77.02,11.55,2.16,15.81,6.42,3.11,3.11,5.09,6.85,5.99,11.15.39,1.86.56,3.74.39,5.63-.14,1.64-.55,3.23-1.05,4.79-.87,2.66-2.01,5.22-3.24,7.73-2.43,4.94-5.24,9.66-8.19,14.3-2.7,4.24-5.52,8.4-8.47,12.47-.68.94-1.85.94-2.53,0-2.94-4.05-5.74-8.19-8.43-12.41-2.53-3.97-4.94-8-7.12-12.17-1.48-2.83-2.84-5.7-3.94-8.7-.69-1.9-1.26-3.84-1.46-5.86-.16-1.59-.05-3.18.2-4.75.77-4.8,2.88-8.92,6.33-12.33,4.24-4.19,9.98-6.27,15.72-6.26Zm-.03,12.44c-5.25,0-9.6,4.31-9.61,9.53,0,5.31,4.3,9.63,9.59,9.63,5.28,0,9.63-4.34,9.62-9.58-.02-5.25-4.35-9.57-9.6-9.57Z"/></svg>