<?xml version="1.0" encoding="UTF-8"?><svg id="Ebene_1" xmlns="http://www.w3.org/2000/svg" viewBox="0 0 161 88"><defs><style>.cls-1{fill:#1d1d1b;}</style></defs><path class="cls-1" d="m16.37,13.28c-.87-.92-2.95-1.16-3.62-.33-1.12,1.25-1,3.53-.25,5.15,1.29,2.66,3.32,4.61,5.15,6.65,3.66,4.11,4.4,5.94,4.24,8.56-.42,5.36-8.89,9.47-16.83,7.56,0,0-.33-.29-.25-.75.08-.33.66-.79.87-.79,3.66-.83,7.6-6.28,7.11-9.14-.46-2.99-3.99-6.56-5.78-9.1-1.37-1.79-2.37-4.03-2.2-6.52.25-1.2,1.37-3.49,4.24-4.82,1.83-.87,4.53-1.5,8.64-.29,4.32,1.33,4.61,3.61,4.61,5.07,0,1.75-.87,2.74-1.66,2.87-2.49.42-2.24-1.99-4.28-4.11Z"/><path class="cls-1" d="m24.99,16.4c-.79-1.2.66-1.2,1.45-1.16.83-.08.5.08,1.37-.04.21-1.75.83-6.77,2.91-6.73.96-.04,2.45.25,2.53,1.16.04,1.91-.54,3.7-.42,5.48.96.17,3.32-.17,3.32.91.04.79-1.41,1-3.45,1.04-.08,2.45-.71,8.48-.62,11.09.12,4.7.5,6.11,1.37,7.31,1.25,1.62,2.41,2.12,2.12,3.08-.46,1.62-3.62.7-5.15-.63-1-.87-2.41-2.62-2.91-6.4-.42-3.08-.37-5.94-.21-9.02,0-.42.29-5.03.29-5.52-1.66.08-2.41-.13-2.62-.58Z"/><path class="cls-1" d="m46.85,31.56c-.75.79-1.74,1.25-2.74,1.29-1.16.08-2.08.13-3.49-.75-1.91-1.2-3.08-2.91-2.87-5.15.04-.83-.12-3.78-.12-4.57,0-1.91-.13-2.04.12-4.15.21-.54.83-1.16,1.37-1.08.83.13,1.21.17,1.91.46.75.29,1.21.58,1.08,1.37-.25,2.74-.17,2.78-.21,5.73-.04,1.62.04,1.99.04,3.53-.08.71.33,1.95,1,2.33.54.33,1.04.37,1.58,0,1.83-1.12,3.82-4.95,3.82-7.06.04-1.41,0-3.74,0-5.19,0-.75.25-1,.96-1.25.91-.29,1.87-.13,2.78.13.5.13.58.67.62,1.16.04,1.37.08,4.86.04,6.27-.04,2.08.42,6.69.42,8.56,0,1.33.25,2.37.29,3.33.04.75-1.95,2.04-2.58,1.87-.75-.17-1.66-1.16-1.83-2.03-.08-.46-.25-7.98-.25-8.89-.5,1.33-.79,2.91-1.95,4.11Z"/><path class="cls-1" d="m73.45,42.53c-.17,1.08-2.33,2.16-2.83,2.08-.83-.17-1.21-1.87-1.74-4.07-.42-1.75-.54-6.73-.42-8.31-.75,1.45-2.12,3.86-2.99,4.49-1.45,1.04-3.28,1.58-5.48.75-.54-.21-.96-.54-1.25-.87-1.62-1.79-2.41-3.86-2.29-6.15.33-4.57,2.78-8.64,7.19-10.85,1.2-.58,2.95-.5,4.07.17.08-.99.17-3.99.29-5.07.08-1.33,0-4.99,1.37-7.48.25-.38,1.45-1.41,1.95-1.54.79-.25,2.45.33,2.66,1.41-.29,4.28-.87,4.15-1.12,9.76-.08,1.87,0,10.55,0,12.96,0,3.49-.08,5.9.58,12.71Zm-5.94-18.78c-.08-.29-1-.66-1.33-.66-2.37,0-5.03,3.95-5.73,6.69-.42,1.58.12,4.45,2.33,4.86,1.16.21,2.45-1.12,2.91-1.87,1.33-2.16,1.83-2.62,2.2-3.53.37-.96,0-3.82-.37-5.49Z"/><path class="cls-1" d="m83.6,34.51c1.7,2.91,2.66,2.87,4.86,4.28.91.58.13,2.2-.75,2.2-1.12,0-4.61-1-6.77-2.53-2.53-1.83-4.61-4.82-4.86-11.93.29-5.78,2.74-8.43,5.53-10.35,2.41-1.66,6.23-.46,7.35.38,1.45,1.08,1.58,2.74.91,4.61-.75,2.37-2.7,3.66-5.19,4.66-.62.25-1.87.54-2.49.75,0,1.83-.25,5.11,1.41,7.93Zm3.2-13.75c.29-1.16-.37-4.03-1.54-3.82-1.99.38-2.53,3.7-2.99,5.28-.17.62-.17,1.62-.29,2.29,2.45-.92,4.15-1.12,4.82-3.74Z"/><path class="cls-1" d="m108.37,37.96c-.71,0-2.53,0-3.24-.38-1.25-.71-1.41-2.62-1.5-4.94-.12-3.87,1.29-8.6-.46-11.76-2.83-1.08-4.2,2.12-5.03,4.11-.42,1.08-.66,2.66-.66,3.86,0,.79.13,3.74.17,4.49.04,1.29-.5,2.2-1.79,2.12-1.62-.04-2.78-1.25-2.91-3.08-.17-3.24-.13-8.23-.29-12.22,0-.58-.04-2.45.25-2.99.62-1.25,1.25-1.12,2.37-.87.21.08.96.58,1.04.83.91,1.2.71,4.07.83,5.86,1.08-2.83,3.95-5.86,5.9-5.86,4.53-.58,5.07,3.2,5.24,6.98.12,2.12.25,4.61.37,6.65,0,1.29.21,4.74.29,6.11.04.58,0,.92-.58,1.08Z"/><path class="cls-1" d="m110.42,16.4c-.79-1.2.66-1.2,1.45-1.16.83-.08.5.08,1.37-.04.21-1.75.83-6.77,2.91-6.73.96-.04,2.45.25,2.53,1.16.04,1.91-.54,3.7-.42,5.48.96.17,3.32-.17,3.32.91.04.79-1.41,1-3.45,1.04-.08,2.45-.71,8.48-.62,11.09.12,4.7.5,6.11,1.37,7.31,1.25,1.62,2.41,2.12,2.12,3.08-.46,1.62-3.62.7-5.15-.63-1-.87-2.41-2.62-2.91-6.4-.42-3.08-.37-5.94-.21-9.02,0-.42.29-5.03.29-5.52-1.66.08-2.41-.13-2.62-.58Z"/><path class="cls-1" d="m130.83,34.51c1.7,2.91,2.66,2.87,4.86,4.28.91.58.13,2.2-.75,2.2-1.12,0-4.61-1-6.77-2.53-2.53-1.83-4.61-4.82-4.86-11.93.29-5.78,2.74-8.43,5.53-10.35,2.41-1.66,6.23-.46,7.35.38,1.45,1.08,1.58,2.74.91,4.61-.75,2.37-2.7,3.66-5.19,4.66-.62.25-1.87.54-2.49.75,0,1.83-.25,5.11,1.41,7.93Zm3.2-13.75c.29-1.16-.37-4.03-1.54-3.82-1.99.38-2.53,3.7-2.99,5.28-.17.62-.17,1.62-.29,2.29,2.45-.92,4.15-1.12,4.82-3.74Z"/><path class="cls-1" d="m155.6,37.96c-.71,0-2.53,0-3.24-.38-1.25-.71-1.41-2.62-1.5-4.94-.12-3.87,1.29-8.6-.46-11.76-2.83-1.08-4.2,2.12-5.03,4.11-.42,1.08-.66,2.66-.66,3.86,0,.79.13,3.74.17,4.49.04,1.29-.5,2.2-1.79,2.12-1.62-.04-2.78-1.25-2.91-3.08-.17-3.24-.13-8.23-.29-12.22,0-.58-.04-2.45.25-2.99.62-1.25,1.25-1.12,2.37-.87.21.08.96.58,1.04.83.91,1.2.71,4.07.83,5.86,1.08-2.83,3.95-5.86,5.9-5.86,4.53-.58,5.07,3.2,5.24,6.98.12,2.12.25,4.61.37,6.65,0,1.29.21,4.74.29,6.11.04.58,0,.92-.58,1.08Z"/><path class="cls-1" d="m33.95,65.52c.08,2.45.25,7.77.71,11.51.13,1.2-.12,3.03-1.41,2.95-2.87-.25-3.82-3.95-4.2-6.85-.37-2.78,0-5.61-.13-8.35-.08-2.41-.08-4.65.25-7.02-.83-.13-1-.54-.96-.96.04-.66.5-1.25,1.41-1.12.17-1.66.33-4.45,1.29-6.53,1.08-2.08,2.83-3.03,5.65-2.91,1.87.13,4.7,1.5,5.32,3.12.46,1.54.79,2.2.25,3.49-.29.54-2.29.67-2.74.38-.29.29-.75-1.33-.58-2.33.33-1.95.25-2.7-2.33-2.99-1.54.87-1.99,4.03-2.29,5.44-.17.91-.17,1.79.04,2.74.62.13,2.49.29,2.83.63.08.12.12,1.25.08,1.41-.04.13-.21.33-.42.33-.87.08-1.79-.04-2.62-.04.12,2.41-.29,3.57-.17,7.1Z"/><path class="cls-1" d="m49.42,72.04c-.75.79-1.74,1.25-2.74,1.29-1.16.08-2.08.13-3.49-.75-1.91-1.2-3.08-2.91-2.87-5.15.04-.83-.12-3.78-.12-4.57,0-1.91-.13-2.04.12-4.15.21-.54.83-1.16,1.37-1.08.83.13,1.21.17,1.91.46.75.29,1.21.58,1.08,1.37-.25,2.74-.17,2.78-.21,5.73-.04,1.62.04,1.99.04,3.53-.08.71.33,1.95,1,2.33.54.33,1.04.37,1.58,0,1.83-1.12,3.82-4.95,3.82-7.06.04-1.41,0-3.74,0-5.19,0-.75.25-1,.96-1.25.91-.29,1.87-.13,2.78.13.5.13.58.67.62,1.16.04,1.37.08,4.86.04,6.27-.04,2.08.42,6.69.42,8.56,0,1.33.25,2.37.29,3.33.04.75-1.95,2.04-2.58,1.87-.75-.17-1.66-1.16-1.83-2.03-.08-.46-.25-7.98-.25-8.89-.5,1.33-.79,2.91-1.95,4.11Z"/><path class="cls-1" d="m58.73,56.88c-.79-1.2.66-1.2,1.45-1.16.83-.08.5.08,1.37-.04.21-1.75.83-6.77,2.91-6.73.95-.04,2.45.25,2.53,1.16.04,1.91-.54,3.7-.42,5.48.96.17,3.32-.17,3.32.91.04.79-1.41,1-3.45,1.04-.08,2.45-.71,8.48-.62,11.09.12,4.7.5,6.11,1.37,7.31,1.25,1.62,2.41,2.12,2.12,3.08-.46,1.62-3.62.7-5.15-.63-1-.87-2.41-2.62-2.91-6.4-.42-3.08-.37-5.94-.21-9.02,0-.42.29-5.03.29-5.52-1.66.08-2.41-.13-2.62-.58Zm12.34,3.41c-.79-1.2.66-1.2,1.45-1.16.83-.08.5.08,1.37-.04.21-1.75.87-7.69,2.95-7.65.96-.04,2.45.25,2.53,1.16.04,1.91-.58,4.61-.46,6.4.96.17,3.32-.17,3.32.91.04.79-1.41,1-3.45,1.04-.08,2.45-.66,7.56-.58,10.18.12,4.7.5,6.11,1.37,7.31,1.25,1.62,2.41,2.12,2.12,3.07-.46,1.62-3.62.71-5.15-.62-1-.87-2.41-2.62-2.91-6.4-.42-3.08-.37-5.94-.21-9.02,0-.42.25-4.11.25-4.61-1.66.08-2.41-.13-2.62-.58Z"/><path class="cls-1" d="m90.2,74.99c1.7,2.91,2.66,2.87,4.86,4.28.91.58.13,2.2-.75,2.2-1.12,0-4.61-1-6.77-2.53-2.53-1.83-4.61-4.82-4.86-11.93.29-5.78,2.74-8.43,5.53-10.35,2.41-1.66,6.23-.46,7.35.38,1.45,1.08,1.58,2.74.91,4.61-.75,2.37-2.7,3.66-5.19,4.66-.62.25-1.87.54-2.49.75,0,1.83-.25,5.11,1.41,7.93Zm3.2-13.75c.29-1.16-.37-4.03-1.54-3.82-1.99.38-2.53,3.7-2.99,5.28-.17.62-.17,1.62-.29,2.29,2.45-.92,4.15-1.12,4.82-3.74Z"/><path class="cls-1" d="m104.55,63.61c-.46,1.91-.33,2.95-.42,5.11.04,2.12.08,2.33,0,4.36,0,.54-.54,2.04-.95,2.25-.83.66-2.08.83-2.62.79-.5-.08-.96-.38-1.12-1.04-.17-3.28-.58-6.57-.42-7.77,0-3.99-.08-6.4.25-8.68.79-.99,3.7-.7,4.11.5.42,1.04.25,1.12.42,1.66,1.16-1.45,1.12-2.08,2.45-3.41.91-.91,2.45-1.08,3.37-.17,1.66,1.66,2.29,3.16,1.21,4.86-1.04,1.62-3.86,2.2-4.4-1-1.12.75-1.62,1.66-1.87,2.53Z"/></svg>