<?xml version="1.0" encoding="UTF-8"?><svg id="Ebene_1" xmlns="http://www.w3.org/2000/svg" viewBox="0 0 90 90" fill="currentColor"><path d="m5.29,35.18c4.41-1.75,8.32-3.3,12.23-4.84,8.8-3.46,17.6-6.94,26.43-10.34.77-.29,1.84-.34,2.59-.05,12.18,4.72,24.33,9.52,36.48,14.31.62.24,1.2.57,2.26,1.07-2.91,1.18-5.36,2.2-7.83,3.17-10.12,3.98-20.23,7.97-30.38,11.88-.95.36-2.26.47-3.17.11-12.45-4.81-24.85-9.72-37.27-14.61-.25-.1-.48-.25-1.33-.7Z"/><path d="m19.72,44.79c2.53.98,5.08,1.95,7.63,2.95,5.32,2.09,10.61,4.28,15.98,6.23,1.19.43,2.81.44,3.99,0,7.34-2.75,14.6-5.68,21.9-8.54.57-.22,1.17-.39,1.98-.66,0,5.92.16,15.03-.14,20.72-.06,1.16-1.65,2.8-2.88,3.23-3.91,1.36-7.92,2.69-11.99,3.25-9.51,1.3-19.02,1.08-28.42-1.21-.55-.13-1.09-.29-1.63-.46-6.11-1.91-6.71-2.71-6.71-9.06,0-4.17,0-11.73.02-15.89,0-.12.11-.24.27-.55Z"/><path d="m80.76,41.3c1.53-.7,3.07-1.4,4.6-2.11.02,3.43.04,6.85.06,10.28-.01,1.12-.57,2.07-1.41,2.42-.56.23-1.07.12-1.27.07-.94-.25-1.66-1.18-1.85-2.36-.04-2.77-.09-5.53-.13-8.3Z"/></svg>