<?xml version="1.0" encoding="UTF-8"?>
<svg id="Ebene_1" fill="currentColor"  data-name="Ebene 1" xmlns="http://www.w3.org/2000/svg" width="37.37mm" height="43.68mm" viewBox="0 0 105.94 123.81">
  <path d="M98.71,0H7.23C3.24,0,0,3.24,0,7.23V116.58c0,3.99,3.24,7.23,7.23,7.23H98.7c3.99,0,7.23-3.24,7.23-7.23V7.23c.01-3.99-3.23-7.23-7.22-7.23ZM17.59,112.12c0,1.1-.9,2-2,2s-2-.9-2-2V11.69c0-1.1,.9-2,2-2s2,.9,2,2V112.12Zm59.97-36.67c0,1.1-.9,1.99-2,1.99h-25.07c-1.1,0-2-.9-2-2s.9-2,2-2h23.08l.07-21.24-7.06,6.59c-.48,.45-1.14,.63-1.78,.5-.64-.13-1.17-.57-1.43-1.17l-5.92-13.82-5.92,13.82c-.26,.6-.79,1.04-1.44,1.17-.64,.13-1.31-.06-1.78-.51l-6.9-6.55-.07,23.36c0,1.1-.9,1.99-2,1.99h0c-1.1,0-2-.9-1.99-2.01l.09-28c0-.8,.48-1.52,1.21-1.83,.73-.31,1.58-.16,2.16,.39l8.18,7.77,6.63-15.47c.32-.74,1.04-1.21,1.84-1.21s1.52,.48,1.84,1.21l6.64,15.49,8.36-7.81c.58-.54,1.43-.69,2.17-.37s1.2,1.04,1.2,1.84l-.09,27.86Z"/>
</svg>