<?xml version="1.0" encoding="UTF-8"?>
<svg id="Ebene_1" fill="currentColor"  data-name="Ebene 1" xmlns="http://www.w3.org/2000/svg" width="43.15mm" height="43.15mm" viewBox="0 0 122.31 122.32">
  <path d="M77.43,101.88c0-13.48,10.96-24.44,24.44-24.44,.47,0,.93,.02,1.39,.04l.17-52.59c0-.8-.47-1.52-1.2-1.84-.73-.32-1.58-.17-2.17,.37l-26.51,24.76L53.43,1.21c-.31-.74-1.04-1.21-1.84-1.21s-1.52,.48-1.84,1.21L29.63,48.16C20.96,39.92,12.29,31.68,3.63,23.44c-.58-.55-1.43-.7-2.16-.39-.73,.31-1.21,1.03-1.21,1.83L0,101.57c0,.53,.21,1.04,.59,1.42s.88,.58,1.41,.58h0c25.15-.11,50.31-.2,75.46-.3-.03-.46-.04-.93-.04-1.4Z"/>
  <path d="M101.87,81.44c-11.29,0-20.44,9.15-20.44,20.44s9.15,20.44,20.44,20.44,20.44-9.15,20.44-20.44-9.15-20.44-20.44-20.44Zm14.17,22.44h-12.17v12.17c0,1.1-.9,2-2,2s-2-.9-2-2v-12.17h-12.17c-1.1,0-2-.9-2-2s.9-2,2-2h12.17v-12.18c0-1.1,.9-2,2-2s2,.9,2,2v12.18h12.17c1.1,0,2,.9,2,2s-.9,2-2,2Z"/>
</svg>