<?xml version="1.0" encoding="UTF-8"?>
<svg id="Ebene_1" fill="currentColor" data-name="Ebene 1" xmlns="http://www.w3.org/2000/svg" viewBox="0 0 84.12 86.9">
  <g>
    <path d="M77.09,43.95h0c0,8.12-.02,16.24-.02,24.35,2.35-7.55,4.7-15.09,7.05-22.64-2.34-.57-4.69-1.14-7.03-1.71Z"/>
    <path d="M80.07,20.3c-.99,.16-1.99,.33-2.98,.49-.02,6.28-.03,12.56-.04,18.84,2.15-.36,4.3-.71,6.45-1.06l-3.43-18.27Z"/>
  </g>
  <g>
    <path d="M52.21,29.67c-1.54-.59-3.25-.48-4.71,.29-.24,.13-.52,.15-.77,.07-.26-.08-.47-.27-.59-.51-.91-1.82-2.85-2.97-4.85-2.91-2,.06-3.82,1.28-4.65,3.12-.11,.25-.32,.44-.58,.53-.26,.09-.54,.07-.79-.05-1.45-.74-3.15-.85-4.66-.29-1.33,.49-2.37,1.42-2.85,2.57-.5,1.2-.4,2.7,.27,4.03,.76,1.51,2.14,2.61,3.8,3.02,.49,.12,.81,.59,.75,1.09h0c0,1.36,.02,3.9,.03,6.44v.35h4.1v-8.18c0-.55,.45-1,1-1s1,.45,1,1v8.18h5.5v-8.18c0-.55,.45-1,1-1s1,.45,1,1v8.18h4.31v-6.97c0-.45,.3-.85,.74-.97,1.54-.42,2.85-1.47,3.59-2.88,.68-1.3,.81-2.77,.35-4.02-.48-1.3-1.57-2.36-3-2.91Z"/>
    <path d="M32.64,52.63h17.89v-3.21h-17.9c0,1.21,0,2.34,.01,3.21Z"/>
    <path d="M68.85,0H5.74C2.58,0,0,2.57,0,5.74V81.17c0,3.16,2.58,5.73,5.74,5.73h63.1c3.17,0,5.74-2.57,5.74-5.73v-.4s0-.08,0-.12V5.74c0-3.17-2.57-5.74-5.74-5.74ZM12.51,76.45c0,.55-.45,1-1,1s-1-.45-1-1V10.45c0-.55,.45-1,1-1s1,.45,1,1V76.45ZM56.63,37.52c-.87,1.68-2.34,2.98-4.1,3.65v12.46c0,.55-.45,1-1,1H31.65c-.55,0-1-.44-1-.99,0-1.31-.02-3.94-.03-6.56,0-2.2-.02-4.4-.02-5.82-1.88-.67-3.43-2.04-4.34-3.83-.94-1.87-1.06-3.94-.33-5.7,.69-1.66,2.15-3,4-3.68,1.73-.63,3.63-.62,5.35,0,1.27-2.04,3.52-3.36,5.95-3.43,2.48-.08,4.83,1.15,6.21,3.18,1.76-.67,3.71-.67,5.49,0,1.97,.75,3.49,2.25,4.17,4.09,.64,1.78,.48,3.83-.46,5.63Z"/>
  </g>
</svg>