<?xml version="1.0" encoding="UTF-8"?><svg id="Ebene_1" xmlns="http://www.w3.org/2000/svg" viewBox="0 0 90 90" fill="currentColor"><path d="m16.8,5.16c.28,0,.57.03.84.08.15.03.3.07.45.11.15.04.3.08.46.12,2.05.5,4.56,2.8,7.46,6.83,1.16,1.62,3.74,5.74,2.63,9.15-.49,1.48-2.33,3.25-3.81,4.67-.42.4-.82.79-1.19,1.16-1.65,1.66-1.84,3.72-1.9,4.4-.05.53.01.98.13,1.36.07.77.23,1.69.73,2.64.32.6.62,1.22.94,1.88.66,1.35,1.34,2.74,2.25,4.12,1.27,1.93,2.72,3.84,4.44,5.83,3.33,3.86,6.97,7.23,10.09,10.02l.45.4c1.31,1.17,2.54,2.27,4.07,3.36l5.1,3.63.42.3c1.78,1.28,4.22,3.04,7.13,3.04.94,0,1.85-.18,2.71-.55,1.52-.64,2.64-1.74,3.53-2.62.24-.24.47-.47.71-.68.23-.2.45-.41.68-.61.87-.79,1.7-1.55,2.56-2.09.45-.14.82-.31,1.11-.45.14-.07.3-.14.37-.16.34-.11.71-.17,1.13-.17,2.92,0,6.83,2.7,8.12,3.59,2.28,1.58,5.2,4.18,6.12,7.61.38,1.41.32,1.9.29,2.02-.43,1.89-2.45,4.16-3.79,5.67-1.97,2.22-3.89,3.68-5.87,4.49-.6.24-1.29.4-2.12.48-.52.05-1.05.07-1.59.07-5.19,0-10.74-2.29-14.99-4.28-4.35-2.04-8.86-4.71-13.8-8.17-2.49-1.74-4.19-3.08-5.86-4.62l-.18-.17-3.1-2.86c-6.05-5.56-11.16-11.21-15.62-17.26-1.29-1.75-2.56-3.55-3.76-5.36-5.06-7.57-7.98-14.47-8.7-20.52-.13-1.12-.28-2.41-.28-3.62,0-.9.07-1.62.22-2.14.22-.76.61-1.61,1.17-2.53,1.04-1.71,2.5-3.24,3.92-4.65,2.34-2.32,4.47-3.5,6.32-3.5m0-3c-3.27,0-6.16,2.11-8.43,4.36-1.61,1.6-3.19,3.28-4.38,5.22-.62,1.01-1.16,2.11-1.49,3.26-.26.89-.34,1.92-.34,2.98,0,1.37.16,2.79.3,3.96.92,7.72,4.93,15.45,9.19,21.83,1.24,1.85,2.52,3.68,3.84,5.48,4.78,6.48,10.08,12.25,16,17.69,1.09,1.01,2.18,2.01,3.27,3.02,2,1.85,3.96,3.32,6.17,4.88,4.52,3.17,9.24,6.08,14.25,8.42,4.94,2.32,10.66,4.57,16.26,4.57.63,0,1.25-.03,1.88-.09,1.01-.1,2.01-.3,2.96-.68,2.73-1.11,5.05-3.09,6.99-5.27,1.72-1.94,3.89-4.42,4.47-7,.24-1.07-.04-2.42-.32-3.46-1.05-3.94-4.04-7.04-7.31-9.3-2.6-1.8-6.37-4.12-9.82-4.12-.71,0-1.4.1-2.07.32-.59.19-1.11.55-1.72.67-1.53.87-2.77,2.1-4.07,3.26-1.04.93-2.06,2.21-3.41,2.78-.51.22-1.03.31-1.54.31-2.13,0-4.19-1.63-5.81-2.79l-5.1-3.63c-1.56-1.11-2.84-2.29-4.26-3.56-3.44-3.07-6.81-6.25-9.82-9.74-1.51-1.75-2.93-3.59-4.21-5.52-1.22-1.85-2.03-3.84-3.04-5.76-.34-.64-.38-1.33-.43-2.03-.11-.07-.1-.18-.09-.28.09-.96.33-1.84,1.04-2.56,1.91-1.93,4.84-4.31,5.72-7,1.33-4.06-.69-8.56-3.04-11.83-2.14-2.98-5.47-7.09-9.19-7.99-.35-.09-.7-.2-1.06-.26-.47-.09-.94-.13-1.4-.13h0Z"/></svg>