<?xml version="1.0" encoding="UTF-8"?>
<svg id="Ebene_1" fill="currentColor" data-name="Ebene 1" xmlns="http://www.w3.org/2000/svg" viewBox="0 0 85.67 85.67">
  <path d="M14.64,0c-3.27,0-6.16,2.11-8.43,4.36-1.61,1.6-3.19,3.28-4.38,5.22-.62,1.01-1.16,2.11-1.49,3.26-.26,.89-.34,1.92-.34,2.98,0,1.37,.16,2.79,.3,3.96,.92,7.72,4.93,15.45,9.19,21.83,1.24,1.85,2.52,3.68,3.84,5.48,4.78,6.48,10.08,12.25,16,17.69,1.09,1.01,2.18,2.01,3.27,3.02,2,1.85,3.96,3.32,6.17,4.88,4.52,3.17,9.24,6.08,14.25,8.42,4.94,2.32,10.66,4.57,16.26,4.57,.63,0,1.25-.03,1.88-.09,1.01-.1,2.01-.3,2.96-.68,2.73-1.11,5.05-3.09,6.99-5.27,1.72-1.94,3.89-4.42,4.47-7,.24-1.07-.04-2.42-.32-3.46-1.05-3.94-4.04-7.04-7.31-9.3-2.6-1.8-6.37-4.12-9.82-4.12-.71,0-1.4,.1-2.07,.32-.59,.19-1.11,.55-1.72,.67-1.53,.87-2.77,2.1-4.07,3.26-1.04,.93-2.06,2.21-3.41,2.78-.51,.22-1.03,.31-1.54,.31-2.13,0-4.19-1.63-5.81-2.79l-5.1-3.63c-1.56-1.11-2.84-2.29-4.26-3.56-3.44-3.07-6.81-6.25-9.82-9.74-1.51-1.75-2.93-3.59-4.21-5.52-1.22-1.85-2.03-3.84-3.04-5.76-.34-.64-.38-1.33-.43-2.03-.11-.07-.1-.18-.09-.28,.09-.96,.33-1.84,1.04-2.56,1.91-1.93,4.84-4.31,5.72-7,1.33-4.06-.69-8.56-3.04-11.83-2.14-2.98-5.47-7.09-9.19-7.99-.35-.09-.7-.2-1.06-.26-.47-.09-.94-.13-1.4-.13h.01Z"/>
</svg>