<?xml version="1.0" encoding="UTF-8"?><svg id="Ebene_2" xmlns="http://www.w3.org/2000/svg" viewBox="0 0 90 90"><defs><style>.cls-1{fill:#ffda44;}.cls-2{fill:#ab2300;}.cls-3{fill:#ff5023;}.cls-4{stroke:#fff;}.cls-4,.cls-5{fill:none;stroke-miterlimit:10;stroke-width:2px;}.cls-5{stroke:#39b54a;stroke-linecap:round;}.cls-6{fill:#ff9811;}</style></defs><circle class="cls-6" cx="45" cy="45" r="44.15"/><circle class="cls-1" cx="45" cy="45" r="39.62"/><line class="cls-4" x1="45" y1=".85" x2="45" y2="89.15"/><line class="cls-4" x1="89.15" y1="45" x2=".85" y2="45"/><line class="cls-4" x1="76.22" y1="13.78" x2="13.78" y2="76.22"/><line class="cls-4" x1="13.78" y1="13.78" x2="76.22" y2="76.22"/><circle class="cls-2" cx="17.63" cy="28.22" r="3.81"/><circle class="cls-2" cx="17.63" cy="55.53" r="3.81"/><circle class="cls-3" cx="26.56" cy="54.41" r="1.7"/><circle class="cls-3" cx="23.15" cy="39.08" r="1.7"/><circle class="cls-3" cx="33.82" cy="27.34" r="1.7"/><circle class="cls-3" cx="52.96" cy="13.36" r="1.7"/><circle class="cls-3" cx="55.7" cy="23.27" r="1.7"/><circle class="cls-3" cx="73.05" cy="29.92" r="1.7"/><circle class="cls-3" cx="64.76" cy="55.17" r="1.7"/><circle class="cls-3" cx="57.41" cy="75.03" r="1.7"/><circle class="cls-2" cx="36.8" cy="75.64" r="3.81"/><circle class="cls-2" cx="54.62" cy="64.14" r="3.81"/><circle class="cls-2" cx="75.16" cy="55.53" r="3.81"/><circle class="cls-2" cx="64.76" cy="37.38" r="3.81"/><circle class="cls-2" cx="38.21" cy="17.75" r="3.81"/><line class="cls-5" x1="14.99" y1="48.36" x2="17.65" y2="49.42"/><line class="cls-5" x1="32.89" y1="41.16" x2="35.9" y2="40.2"/><line class="cls-5" x1="50.36" y1="31.99" x2="53.37" y2="31.03"/><line class="cls-5" x1="51.08" y1="74.77" x2="52.02" y2="76.5"/><line class="cls-5" x1="68.33" y1="49.22" x2="69.27" y2="50.94"/><line class="cls-5" x1="30.34" y1="68.6" x2="31.28" y2="70.32"/></svg>