<?xml version="1.0" encoding="UTF-8"?>
<svg id="Ebene_1" fill="currentColor" data-name="Ebene 1" xmlns="http://www.w3.org/2000/svg"  viewBox="0 0 89.06 62.51">
  <path d="M54.27,40.02c-10.36-1.57-18.63-7.65-21.25-15.48-1.19-.13-2.4-.2-3.64-.2h-.01c-12.83,0-23.61,7.22-25.11,16.81-.29,.96-.28,2.27-.27,3.53,.02,2.07,.46,3.44,.82,4.55,.27,.84,.48,1.5,.45,2.26-.07,1.89-1.68,3.87-4.79,5.88-.32,.21-.5,.59-.45,.97,.05,.38,.32,.7,.69,.82,5.89,1.89,11.62,1.98,14.86,.28,4.11,2.02,8.87,3.08,13.82,3.08,13.96,0,25.31-8.56,25.31-19.09,0-1.16-.15-2.3-.41-3.4Zm-24.73,12.59c0,.14-.11,.25-.25,.25h-2.12c-.14,0-.25-.11-.25-.25v-2.31c0-.14,.11-.25,.25-.25h2.12c.14,0,.25,.11,.25,.25v2.31Zm3.97-11.18c-.21,.5-.49,.93-.84,1.32-.29,.32-.65,.63-1.08,.93-.43,.3-.75,.54-1.02,.76-.32,.26-.57,.54-.74,.83-.19,.31-.29,.7-.29,1.17v1.11c0,.14-.11,.25-.25,.25h-2.11c-.14,0-.25-.11-.25-.25v-1.31c0-.75,.11-1.34,.34-1.83,.22-.49,.51-.92,.84-1.26,.36-.37,.71-.67,1.08-.92,.36-.24,.69-.5,1.02-.78,.3-.26,.54-.54,.74-.86,.18-.3,.27-.68,.27-1.14,0-.74-.24-1.29-.74-1.67-.51-.39-1.23-.59-2.15-.59-.99,0-1.74,.25-2.28,.76-.53,.5-.79,1.22-.79,2.16,0,.14-.11,.25-.25,.25h-2.16c-.14,0-.25-.11-.25-.25,0-1.17,.25-2.17,.74-2.97,.49-.81,1.19-1.44,2.06-1.87,.88-.43,1.87-.64,2.95-.64s1.95,.17,2.77,.51c.84,.35,1.5,.87,2,1.6,.49,.73,.73,1.64,.73,2.77,0,.77-.11,1.4-.34,1.91Z"/>
  <path d="M88.6,33.02c-3.11-2.01-4.72-3.99-4.79-5.88-.03-.75,.18-1.41,.45-2.25,.36-1.1,.8-2.48,.82-4.55,.01-1.26,.02-2.56-.27-3.53C83.3,7.22,72.52,0,59.69,0h-.01c-13.95,0-25.3,8.57-25.3,19.09s11.35,19.09,25.31,19.09c4.94,0,9.71-1.07,13.82-3.08,3.24,1.7,8.97,1.6,14.86-.28,.37-.12,.63-.44,.69-.82,.05-.38-.12-.76-.45-.97Zm-35.07-9.34c0,.14-.11,.25-.25,.25h-2.05c-.14,0-.25-.11-.25-.25v-2.31c0-.14,.11-.25,.25-.25h2.05c.14,0,.25,.11,.25,.25v2.31Zm7.59,0c0,.14-.11,.25-.25,.25h-2.12c-.14,0-.25-.11-.25-.25v-2.31c0-.14,.11-.25,.25-.25h2.12c.14,0,.25,.11,.25,.25v2.31Zm7.24,0c0,.14-.11,.25-.25,.25h-2.12c-.14,0-.25-.11-.25-.25v-2.31c0-.14,.11-.25,.25-.25h2.12c.14,0,.25,.11,.25,.25v2.31Z"/>
</svg>