<?xml version="1.0" encoding="UTF-8"?>
<svg id="Ebene_1" fill="currentColor" data-name="Ebene 1" xmlns="http://www.w3.org/2000/svg" viewBox="0 0 88.29 61.27">
  <path d="M47.62,.01s-.1-.01-.14-.01C26.75,0,9.34,11.62,6.94,27.04c-.48,1.52-.45,3.8-.43,5.63,.03,3.29,.74,5.48,1.31,7.25,.46,1.43,.83,2.57,.77,3.93-.14,3.34-2.88,6.75-8.13,10.14-.33,.21-.5,.59-.45,.97,.05,.38,.32,.7,.69,.82,9.69,3.1,19.05,3.22,24.13,.35,6.71,3.36,14.53,5.14,22.64,5.14,22.51,0,40.82-13.74,40.82-30.63S70.06,.07,47.62,.01Zm-.05,45.69c0,.14-.11,.25-.25,.25h-3.47c-.14,0-.25-.11-.25-.25v-3.79c0-.14,.11-.25,.25-.25h3.47c.14,0,.25,.11,.25,.25v3.79Zm6.53-18.43c-.35,.82-.81,1.53-1.37,2.11-.56,.58-1.15,1.08-1.75,1.49-.6,.41-1.17,.83-1.69,1.25-.53,.42-.94,.88-1.26,1.41-.32,.51-.48,1.18-.48,1.99v1.81c0,.14-.11,.25-.25,.25h-3.35s-.06,.02-.09,.02c-.07,0-.13-.03-.18-.08l-.02-.02c-.07-.07-.09-.18-.05-.27h0v-1.98c0-1.17,.18-2.13,.54-2.92,.36-.79,.81-1.47,1.35-2.03,.54-.57,1.13-1.07,1.75-1.49,.64-.45,1.2-.87,1.69-1.28,.49-.41,.91-.9,1.25-1.44,.31-.51,.47-1.17,.47-1.95,0-1.26-.43-2.22-1.28-2.87-.87-.66-2.09-1-3.62-1-1.66,0-2.95,.43-3.85,1.29-.89,.84-1.34,2.07-1.34,3.65,0,.14-.11,.25-.25,.25h-3.54c-.14,0-.25-.11-.25-.25,0-1.88,.4-3.49,1.19-4.79,.79-1.3,1.91-2.31,3.31-3,1.4-.69,3.01-1.04,4.77-1.04,1.64,0,3.14,.28,4.47,.82,1.34,.56,2.42,1.42,3.2,2.56,.78,1.15,1.17,2.65,1.17,4.44,0,1.22-.18,2.25-.54,3.06Z"/>
</svg>