<?xml version="1.0" encoding="UTF-8"?>
<svg id="Ebene_1" fill="currentColor" data-name="Ebene 1" xmlns="http://www.w3.org/2000/svg" width="15.23mm" height="26.64mm" viewBox="0 0 43.17 75.51">
  <path d="M41.27,41.71c-.05-.79-.7-1.41-1.5-1.41H7.41C5.94,27.31,4.47,14.32,2.99,1.33,2.9,.51,2.15-.09,1.33,.01,.51,.1-.08,.85,0,1.67,1.52,14.99,3.04,28.31,4.54,41.63l-2.16,32.12c-.06,.83,.57,1.54,1.4,1.6,.03,0,.07,0,.1,0,.78,0,1.44-.61,1.5-1.4l2.06-30.64h30.92l1.82,30.8c.05,.8,.71,1.41,1.5,1.41,.03,0,.06,0,.09,0,.83-.05,1.46-.76,1.41-1.58l-1.9-32.21Z"/>
</svg>