<?xml version="1.0" encoding="UTF-8"?><svg id="Ebene_1" xmlns="http://www.w3.org/2000/svg" viewBox="0 0 90 90"><path d="m20.72,52.64c16.79-3.1,33.58-6.19,50.37-9.29,1.2-.22,1.87-1.67,1.57-2.77-.35-1.26-1.57-1.79-2.77-1.57-16.79,3.1-33.58,6.19-50.37,9.29-1.2.22-1.87,1.67-1.57,2.77.35,1.26,1.57,1.79,2.77,1.57h0Z"/><path d="m50.17,25.31c-7.19,13.42-14.37,26.85-21.56,40.27-1.37,2.55,2.52,4.83,3.89,2.27,7.19-13.42,14.37-26.85,21.56-40.27,1.37-2.55-2.52-4.83-3.89-2.27h0Z"/><path d="m28.74,31.39c7.46,11.6,15.29,22.96,23.47,34.05.72.98,1.95,1.47,3.08.81.96-.56,1.53-2.09.81-3.08-8.18-11.1-16.01-22.46-23.47-34.05-1.56-2.43-5.46-.17-3.89,2.27h0Z"/></svg>