<?xml version="1.0" encoding="UTF-8"?>
<svg id="Ebene_1" fill="currentColor" data-name="Ebene 1" xmlns="http://www.w3.org/2000/svg" width="19.35mm" height="15.8mm" viewBox="0 0 54.85 44.78">
  <path d="M54.78,16.39c-.35-1.26-1.57-1.79-2.77-1.57-8.12,1.5-16.24,3-24.35,4.49,2.84-5.31,5.68-10.62,8.52-15.92,1.37-2.55-2.52-4.83-3.89-2.27-2.99,5.58-5.98,11.17-8.97,16.75-2.9-4.28-5.77-8.59-8.57-12.94-1.56-2.43-5.46-.17-3.89,2.27,2.93,4.56,5.94,9.07,8.98,13.55-6.07,1.12-12.14,2.24-18.2,3.36-1.2,.22-1.87,1.67-1.57,2.77,.35,1.26,1.57,1.79,2.77,1.57h0c5.48-1.01,10.96-2.02,16.44-3.03-2.85,5.32-5.7,10.65-8.55,15.97-1.37,2.55,2.52,4.83,3.89,2.27,3.06-5.71,6.12-11.43,9.18-17.14,3.45,4.96,6.95,9.88,10.53,14.73,.72,.98,1.95,1.47,3.08,.81,.96-.56,1.53-2.09,.81-3.08-3.66-4.97-7.24-10-10.76-15.07,8.58-1.58,17.17-3.16,25.75-4.75,1.2-.22,1.87-1.67,1.57-2.77Z"/>
</svg>