<?xml version="1.0" encoding="UTF-8"?>
<svg id="Ebene_1" fill="currentColor" data-name="Ebene 1" xmlns="http://www.w3.org/2000/svg" width="28.2mm" height="28.2mm" viewBox="0 0 79.94 79.94">
  <path d="M39.97,79.94C17.93,79.94,0,62.01,0,39.97S17.93,0,39.97,0s39.97,17.93,39.97,39.97-17.93,39.97-39.97,39.97Zm0-76.94C19.58,3,3,19.58,3,39.97s16.58,36.97,36.97,36.97,36.97-16.58,36.97-36.97S60.36,3,39.97,3Z"/>
  <path d="M56.78,59.86c-.37,0-.75-.14-1.04-.42-5.57-5.32-11.13-10.63-16.7-15.94l-.46-.44V11.89c0-.83,.67-1.5,1.5-1.5s1.5,.67,1.5,1.5v29.89c5.42,5.16,10.82,10.33,16.24,15.5,.6,.57,.62,1.52,.05,2.12-.29,.31-.69,.46-1.08,.46Z"/>
</svg>