<?xml version="1.0" encoding="UTF-8"?>
<!DOCTYPE svg PUBLIC "-//W3C//DTD SVG 1.1//EN" "http://www.w3.org/Graphics/SVG/1.1/DTD/svg11.dtd">
<svg xmlns="http://www.w3.org/2000/svg" version="1.1" width="192px" height="192px" style="shape-rendering:geometricPrecision; text-rendering:geometricPrecision; image-rendering:optimizeQuality; fill-rule:evenodd; clip-rule:evenodd" xmlns:xlink="http://www.w3.org/1999/xlink">
<g><path style="opacity:0.996" fill="#51a174" d="M 34.5,-0.5 C 54.5,-0.5 74.5,-0.5 94.5,-0.5C 92.6911,5.40214 91.1911,11.4021 90,17.5C 89.8299,27.009 89.3299,36.3423 88.5,45.5C 77.5455,41.023 66.8788,41.523 56.5,47C 48.6896,52.4556 46.5229,59.6222 50,68.5C 56.6667,78.5 63.3333,88.5 70,98.5C 70.9259,106.221 68.7592,112.888 63.5,118.5C 57.0756,106.241 47.7423,96.7414 35.5,90C 30.0282,87.7146 24.3615,87.0479 18.5,88C 11.637,89.7671 5.30369,92.6004 -0.5,96.5C -0.5,75.8333 -0.5,55.1667 -0.5,34.5C 4.82461,16.5087 16.4913,4.84205 34.5,-0.5 Z"/></g>
<g><path style="opacity:1" fill="#83c497" d="M 94.5,-0.5 C 98.1667,-0.5 101.833,-0.5 105.5,-0.5C 97.8746,14.606 95.3746,30.606 98,47.5C 101.855,71.0057 111.522,73.6724 127,55.5C 139.702,38.6962 143.869,20.0295 139.5,-0.5C 142.167,-0.5 144.833,-0.5 147.5,-0.5C 148.554,8.80604 148.721,18.1394 148,27.5C 144.053,40.0404 138.22,51.5404 130.5,62C 131.416,62.2784 132.082,62.7784 132.5,63.5C 120.851,62.4735 114.184,67.8069 112.5,79.5C 106.202,80.268 101.369,77.9347 98,72.5C 96.7874,70.0748 95.6207,67.7415 94.5,65.5C 99.4903,56.7989 97.4903,50.1322 88.5,45.5C 89.3299,36.3423 89.8299,27.009 90,17.5C 91.1911,11.4021 92.6911,5.40214 94.5,-0.5 Z"/></g>
<g><path style="opacity:1" fill="#51a174" d="M 105.5,-0.5 C 116.833,-0.5 128.167,-0.5 139.5,-0.5C 143.869,20.0295 139.702,38.6962 127,55.5C 111.522,73.6724 101.855,71.0057 98,47.5C 95.3746,30.606 97.8746,14.606 105.5,-0.5 Z"/></g>
<g><path style="opacity:0.997" fill="#52a174" d="M 147.5,-0.5 C 150.5,-0.5 153.5,-0.5 156.5,-0.5C 174.5,4.83333 186.167,16.5 191.5,34.5C 191.5,59.5 191.5,84.5 191.5,109.5C 184.013,102.187 175.346,96.6872 165.5,93C 147.982,89.5437 137.982,96.5437 135.5,114C 135.323,118.37 136.157,122.536 138,126.5C 140.667,131.167 143.333,135.833 146,140.5C 147.769,147.126 145.603,151.96 139.5,155C 134.184,157.433 128.85,157.933 123.5,156.5C 124.987,153.737 125.654,150.737 125.5,147.5C 123.779,130.546 123.112,113.546 123.5,96.5C 126.5,96.5 129.5,96.5 132.5,96.5C 132.714,94.8561 132.38,93.3561 131.5,92C 128.851,91.5477 126.351,90.7143 124,89.5C 123.39,83.2621 124.39,77.2621 127,71.5C 129.733,66.4929 133.066,66.1596 137,70.5C 136.304,74.5104 136.471,78.5104 137.5,82.5C 140.448,82.7771 143.281,82.4438 146,81.5C 147.507,71.156 143.007,65.156 132.5,63.5C 132.082,62.7784 131.416,62.2784 130.5,62C 138.22,51.5404 144.053,40.0404 148,27.5C 148.721,18.1394 148.554,8.80604 147.5,-0.5 Z"/></g>
<g><path style="opacity:1" fill="#e7efd1" d="M 88.5,45.5 C 97.4903,50.1322 99.4903,56.7989 94.5,65.5C 92.5976,66.5109 90.5976,66.6776 88.5,66C 86.0439,63.5925 84.2106,60.7591 83,57.5C 80.1787,53.3371 76.3454,51.8371 71.5,53C 67.5773,59.4594 67.744,65.9594 72,72.5C 78.6667,80.5 85.3333,88.5 92,96.5C 99.2283,111.564 95.0617,122.397 79.5,129C 74.5977,130.642 69.5977,131.809 64.5,132.5C 61.1667,132.5 57.8333,132.5 54.5,132.5C 51.9442,132.868 49.9442,132.034 48.5,130C 49.4304,127.862 51.097,126.695 53.5,126.5C 57.2377,124.303 60.571,121.636 63.5,118.5C 68.7592,112.888 70.9259,106.221 70,98.5C 63.3333,88.5 56.6667,78.5 50,68.5C 46.5229,59.6222 48.6896,52.4556 56.5,47C 66.8788,41.523 77.5455,41.023 88.5,45.5 Z"/></g>
<g><path style="opacity:0.997" fill="#51a174" d="M 94.5,65.5 C 95.6207,67.7415 96.7874,70.0748 98,72.5C 101.369,77.9347 106.202,80.268 112.5,79.5C 111.676,82.7644 111.342,86.0977 111.5,89.5C 107.509,89.6478 106.676,91.3145 109,94.5C 109.109,111.201 109.776,127.868 111,144.5C 112.24,147.978 113.74,151.311 115.5,154.5C 108.514,153.668 101.514,153.501 94.5,154C 81.4688,161.824 78.9688,172.324 87,185.5C 89.1019,187.095 90.6019,189.095 91.5,191.5C 72.5,191.5 53.5,191.5 34.5,191.5C 16.4913,186.158 4.82461,174.491 -0.5,156.5C -0.5,154.833 -0.5,153.167 -0.5,151.5C 16.5296,161.549 33.8629,162.049 51.5,153C 58.901,148.101 63.2343,141.268 64.5,132.5C 69.5977,131.809 74.5977,130.642 79.5,129C 95.0617,122.397 99.2283,111.564 92,96.5C 85.3333,88.5 78.6667,80.5 72,72.5C 67.744,65.9594 67.5773,59.4594 71.5,53C 76.3454,51.8371 80.1787,53.3371 83,57.5C 84.2106,60.7591 86.0439,63.5925 88.5,66C 90.5976,66.6776 92.5976,66.5109 94.5,65.5 Z"/></g>
<g><path style="opacity:1" fill="#e7efd1" d="M 132.5,63.5 C 143.007,65.156 147.507,71.156 146,81.5C 143.281,82.4438 140.448,82.7771 137.5,82.5C 136.471,78.5104 136.304,74.5104 137,70.5C 133.066,66.1596 129.733,66.4929 127,71.5C 124.39,77.2621 123.39,83.2621 124,89.5C 126.351,90.7143 128.851,91.5477 131.5,92C 132.38,93.3561 132.714,94.8561 132.5,96.5C 129.5,96.5 126.5,96.5 123.5,96.5C 123.112,113.546 123.779,130.546 125.5,147.5C 125.654,150.737 124.987,153.737 123.5,156.5C 120.549,156.713 117.882,156.046 115.5,154.5C 113.74,151.311 112.24,147.978 111,144.5C 109.776,127.868 109.109,111.201 109,94.5C 106.676,91.3145 107.509,89.6478 111.5,89.5C 111.342,86.0977 111.676,82.7644 112.5,79.5C 114.184,67.8069 120.851,62.4735 132.5,63.5 Z"/></g>
<g><path style="opacity:1" fill="#84c598" d="M 63.5,118.5 C 60.571,121.636 57.2377,124.303 53.5,126.5C 50.7923,112.624 42.459,104.124 28.5,101C 16.9673,99.4365 7.30064,102.937 -0.5,111.5C -0.5,106.5 -0.5,101.5 -0.5,96.5C 5.30369,92.6004 11.637,89.7671 18.5,88C 24.3615,87.0479 30.0282,87.7146 35.5,90C 47.7423,96.7414 57.0756,106.241 63.5,118.5 Z"/></g>
<g><path style="opacity:1" fill="#83c497" d="M 191.5,109.5 C 191.5,115.167 191.5,120.833 191.5,126.5C 182.031,105.432 166.364,98.5982 144.5,106C 140.741,109.743 139.574,114.243 141,119.5C 143.511,125.345 146.844,130.678 151,135.5C 154.171,151.475 147.671,160.808 131.5,163.5C 124.367,162.273 117.367,160.439 110.5,158C 102.644,156.678 96.8103,159.512 93,166.5C 92.3028,175.056 95.4694,181.89 102.5,187C 104.898,188.524 107.231,190.024 109.5,191.5C 103.5,191.5 97.5,191.5 91.5,191.5C 90.6019,189.095 89.1019,187.095 87,185.5C 78.9688,172.324 81.4688,161.824 94.5,154C 101.514,153.501 108.514,153.668 115.5,154.5C 117.882,156.046 120.549,156.713 123.5,156.5C 128.85,157.933 134.184,157.433 139.5,155C 145.603,151.96 147.769,147.126 146,140.5C 143.333,135.833 140.667,131.167 138,126.5C 136.157,122.536 135.323,118.37 135.5,114C 137.982,96.5437 147.982,89.5437 165.5,93C 175.346,96.6872 184.013,102.187 191.5,109.5 Z"/></g>
<g><path style="opacity:0.998" fill="#51a174" d="M 53.5,126.5 C 51.097,126.695 49.4304,127.862 48.5,130C 49.9442,132.034 51.9442,132.868 54.5,132.5C 52.4149,140.419 47.4149,145.586 39.5,148C 23.6003,151.308 10.267,147.141 -0.5,135.5C -0.5,127.5 -0.5,119.5 -0.5,111.5C 7.30064,102.937 16.9673,99.4365 28.5,101C 42.459,104.124 50.7923,112.624 53.5,126.5 Z"/></g>
<g><path style="opacity:0.996" fill="#51a174" d="M 191.5,126.5 C 191.5,136.5 191.5,146.5 191.5,156.5C 186.158,174.509 174.491,186.175 156.5,191.5C 140.833,191.5 125.167,191.5 109.5,191.5C 107.231,190.024 104.898,188.524 102.5,187C 95.4694,181.89 92.3028,175.056 93,166.5C 96.8103,159.512 102.644,156.678 110.5,158C 117.367,160.439 124.367,162.273 131.5,163.5C 147.671,160.808 154.171,151.475 151,135.5C 146.844,130.678 143.511,125.345 141,119.5C 139.574,114.243 140.741,109.743 144.5,106C 166.364,98.5982 182.031,105.432 191.5,126.5 Z"/></g>
<g><path style="opacity:1" fill="#83c598" d="M 54.5,132.5 C 57.8333,132.5 61.1667,132.5 64.5,132.5C 63.2343,141.268 58.901,148.101 51.5,153C 33.8629,162.049 16.5296,161.549 -0.5,151.5C -0.5,146.167 -0.5,140.833 -0.5,135.5C 10.267,147.141 23.6003,151.308 39.5,148C 47.4149,145.586 52.4149,140.419 54.5,132.5 Z"/></g>
</svg>
