<?xml version="1.0" encoding="UTF-8"?>
<!DOCTYPE svg PUBLIC "-//W3C//DTD SVG 1.1//EN" "http://www.w3.org/Graphics/SVG/1.1/DTD/svg11.dtd">
<svg xmlns="http://www.w3.org/2000/svg" version="1.1" width="512px" height="512px" style="shape-rendering:geometricPrecision; text-rendering:geometricPrecision; image-rendering:optimizeQuality; fill-rule:evenodd; clip-rule:evenodd" xmlns:xlink="http://www.w3.org/1999/xlink">
<g><path style="opacity:0.998" fill="#51a174" d="M 104.5,-0.5 C 154.167,-0.5 203.833,-0.5 253.5,-0.5C 239.375,40.317 235.042,81.9837 240.5,124.5C 219.351,114.788 197.351,111.954 174.5,116C 129.55,131.391 119.05,159.557 143,200.5C 155.576,216.654 167.91,232.987 180,249.5C 183.832,256.162 186.832,263.162 189,270.5C 189.032,288.911 182.532,304.578 169.5,317.5C 159.169,297.088 145.502,278.922 128.5,263C 115.032,251.55 100.032,242.55 83.5,236C 68.5799,233.361 53.9133,234.361 39.5,239C 25.1891,243.656 11.8558,250.156 -0.5,258.5C -0.5,207.167 -0.5,155.833 -0.5,104.5C 10.8333,45.8333 45.8333,10.8333 104.5,-0.5 Z"/></g>
<g><path style="opacity:1" fill="#84c598" d="M 253.5,-0.5 C 262.833,-0.5 272.167,-0.5 281.5,-0.5C 256.56,51.2734 252.727,104.607 270,159.5C 273.328,168.493 279.161,175.326 287.5,180C 293.237,180.789 298.903,180.456 304.5,179C 314.813,173.36 323.979,166.194 332,157.5C 364.9,119.811 380.566,75.8111 379,25.5C 377.699,16.682 375.865,8.01532 373.5,-0.5C 380.167,-0.5 386.833,-0.5 393.5,-0.5C 398.646,26.0744 398.813,52.7411 394,79.5C 383.557,111.56 368.391,141.06 348.5,168C 350.058,168.21 351.391,168.71 352.5,169.5C 328.099,166.44 311.932,176.44 304,199.5C 302.885,204.313 301.719,208.98 300.5,213.5C 296.047,213.438 291.381,213.271 286.5,213C 277.737,210.188 270.571,205.021 265,197.5C 260.539,190.235 256.372,182.901 252.5,175.5C 255.954,172.263 258.12,168.263 259,163.5C 261.926,146.024 255.759,133.024 240.5,124.5C 235.042,81.9837 239.375,40.317 253.5,-0.5 Z"/></g>
<g><path style="opacity:1" fill="#51a174" d="M 281.5,-0.5 C 312.167,-0.5 342.833,-0.5 373.5,-0.5C 375.865,8.01532 377.699,16.682 379,25.5C 380.566,75.8111 364.9,119.811 332,157.5C 323.979,166.194 314.813,173.36 304.5,179C 298.903,180.456 293.237,180.789 287.5,180C 279.161,175.326 273.328,168.493 270,159.5C 252.727,104.607 256.56,51.2734 281.5,-0.5 Z"/></g>
<g><path style="opacity:0.999" fill="#51a174" d="M 393.5,-0.5 C 397.833,-0.5 402.167,-0.5 406.5,-0.5C 465.167,10.8333 500.167,45.8333 511.5,104.5C 511.5,167.5 511.5,230.5 511.5,293.5C 491.954,272.803 468.621,257.969 441.5,249C 416.338,241.915 394.504,247.415 376,265.5C 364.255,279.743 359.588,296.076 362,314.5C 363.374,321.997 365.374,329.33 368,336.5C 373.164,346.166 378.831,355.5 385,364.5C 397.987,387.539 392.487,404.706 368.5,416C 364.653,417.616 360.653,418.616 356.5,419C 346.991,419.824 337.657,419.658 328.5,418.5C 330.504,417.327 332.004,415.66 333,413.5C 334.79,409.005 335.624,404.339 335.5,399.5C 330.88,352.901 329.547,306.235 331.5,259.5C 338.755,259.813 345.921,259.48 353,258.5C 353.796,254.245 353.629,250.079 352.5,246C 345.605,244.59 338.772,243.09 332,241.5C 330.275,224.126 332.942,207.46 340,191.5C 341.738,187.759 344.238,184.592 347.5,182C 364.808,181.324 370.808,189.324 365.5,206C 365.699,210.704 366.699,215.204 368.5,219.5C 375.563,222.281 382.563,222.115 389.5,219C 392.412,213.539 393.245,207.706 392,201.5C 389.959,191.143 384.459,183.309 375.5,178C 368.358,173.676 360.692,170.842 352.5,169.5C 351.391,168.71 350.058,168.21 348.5,168C 368.391,141.06 383.557,111.56 394,79.5C 398.813,52.7411 398.646,26.0744 393.5,-0.5 Z"/></g>
<g><path style="opacity:1" fill="#e9f0d2" d="M 240.5,124.5 C 255.759,133.024 261.926,146.024 259,163.5C 258.12,168.263 255.954,172.263 252.5,175.5C 246.425,178.326 240.425,178.16 234.5,175C 229.208,166.918 224.042,158.751 219,150.5C 212.477,143.158 204.311,139.992 194.5,141C 189.269,143.232 185.769,147.065 184,152.5C 181.312,166.063 183.645,178.729 191,190.5C 203.161,208.003 216.828,224.336 232,239.5C 241.946,250.388 249.613,262.721 255,276.5C 259.709,299.906 252.542,318.74 233.5,333C 215.652,345.006 195.985,352.173 174.5,354.5C 164.833,354.5 155.167,354.5 145.5,354.5C 140.85,353.819 136.184,352.653 131.5,351C 129.64,346.849 130.64,343.516 134.5,341C 137.748,339.54 141.081,338.374 144.5,337.5C 154.15,332.505 162.483,325.838 169.5,317.5C 182.532,304.578 189.032,288.911 189,270.5C 186.832,263.162 183.832,256.162 180,249.5C 167.91,232.987 155.576,216.654 143,200.5C 119.05,159.557 129.55,131.391 174.5,116C 197.351,111.954 219.351,114.788 240.5,124.5 Z"/></g>
<g><path style="opacity:0.999" fill="#51a174" d="M 252.5,175.5 C 256.372,182.901 260.539,190.235 265,197.5C 270.571,205.021 277.737,210.188 286.5,213C 291.381,213.271 296.047,213.438 300.5,213.5C 299.735,221.163 298.902,228.83 298,236.5C 294.732,237.976 291.732,239.976 289,242.5C 287.578,245.03 287.245,247.697 288,250.5C 289.896,252.53 292.063,254.197 294.5,255.5C 293.746,258.777 293.246,262.11 293,265.5C 292.333,297.167 292.333,328.833 293,360.5C 294.065,377.094 298.398,392.76 306,407.5C 308.705,410.036 311.205,412.703 313.5,415.5C 296.149,410.608 278.483,408.775 260.5,410C 238.471,415.363 225.305,429.196 221,451.5C 220.132,464.571 222.798,476.904 229,488.5C 233.898,496.896 239.732,504.562 246.5,511.5C 199.167,511.5 151.833,511.5 104.5,511.5C 45.8333,500.167 10.8333,465.167 -0.5,406.5C -0.5,405.5 -0.5,404.5 -0.5,403.5C 34.612,425.635 72.2786,431.135 112.5,420C 146.044,410.291 166.71,388.458 174.5,354.5C 195.985,352.173 215.652,345.006 233.5,333C 252.542,318.74 259.709,299.906 255,276.5C 249.613,262.721 241.946,250.388 232,239.5C 216.828,224.336 203.161,208.003 191,190.5C 183.645,178.729 181.312,166.063 184,152.5C 185.769,147.065 189.269,143.232 194.5,141C 204.311,139.992 212.477,143.158 219,150.5C 224.042,158.751 229.208,166.918 234.5,175C 240.425,178.16 246.425,178.326 252.5,175.5 Z"/></g>
<g><path style="opacity:1" fill="#e8f0d2" d="M 352.5,169.5 C 360.692,170.842 368.358,173.676 375.5,178C 384.459,183.309 389.959,191.143 392,201.5C 393.245,207.706 392.412,213.539 389.5,219C 382.563,222.115 375.563,222.281 368.5,219.5C 366.699,215.204 365.699,210.704 365.5,206C 370.808,189.324 364.808,181.324 347.5,182C 344.238,184.592 341.738,187.759 340,191.5C 332.942,207.46 330.275,224.126 332,241.5C 338.772,243.09 345.605,244.59 352.5,246C 353.629,250.079 353.796,254.245 353,258.5C 345.921,259.48 338.755,259.813 331.5,259.5C 329.547,306.235 330.88,352.901 335.5,399.5C 335.624,404.339 334.79,409.005 333,413.5C 332.004,415.66 330.504,417.327 328.5,418.5C 323.154,419.021 318.154,418.021 313.5,415.5C 311.205,412.703 308.705,410.036 306,407.5C 298.398,392.76 294.065,377.094 293,360.5C 292.333,328.833 292.333,297.167 293,265.5C 293.246,262.11 293.746,258.777 294.5,255.5C 292.063,254.197 289.896,252.53 288,250.5C 287.245,247.697 287.578,245.03 289,242.5C 291.732,239.976 294.732,237.976 298,236.5C 298.902,228.83 299.735,221.163 300.5,213.5C 301.719,208.98 302.885,204.313 304,199.5C 311.932,176.44 328.099,166.44 352.5,169.5 Z"/></g>
<g><path style="opacity:1" fill="#84c598" d="M 169.5,317.5 C 162.483,325.838 154.15,332.505 144.5,337.5C 139.811,313.97 127.478,295.47 107.5,282C 66.7831,260.317 30.7831,266.151 -0.5,299.5C -0.5,285.833 -0.5,272.167 -0.5,258.5C 11.8558,250.156 25.1891,243.656 39.5,239C 53.9133,234.361 68.5799,233.361 83.5,236C 100.032,242.55 115.032,251.55 128.5,263C 145.502,278.922 159.169,297.088 169.5,317.5 Z"/></g>
<g><path style="opacity:1" fill="#84c598" d="M 511.5,293.5 C 511.5,309.167 511.5,324.833 511.5,340.5C 496.575,299.765 467.408,277.098 424,272.5C 406.276,272.623 391.276,278.957 379,291.5C 374.736,299.313 373.403,307.646 375,316.5C 381.318,331.146 389.652,344.479 400,356.5C 410.098,371.244 411.098,386.577 403,402.5C 387.954,430.771 364.787,441.271 333.5,434C 320.94,429.591 308.274,425.591 295.5,422C 278.404,419.253 264.237,424.42 253,437.5C 246.878,450.592 247.212,463.592 254,476.5C 264.27,491.533 277.437,503.2 293.5,511.5C 277.833,511.5 262.167,511.5 246.5,511.5C 239.732,504.562 233.898,496.896 229,488.5C 222.798,476.904 220.132,464.571 221,451.5C 225.305,429.196 238.471,415.363 260.5,410C 278.483,408.775 296.149,410.608 313.5,415.5C 318.154,418.021 323.154,419.021 328.5,418.5C 337.657,419.658 346.991,419.824 356.5,419C 360.653,418.616 364.653,417.616 368.5,416C 392.487,404.706 397.987,387.539 385,364.5C 378.831,355.5 373.164,346.166 368,336.5C 365.374,329.33 363.374,321.997 362,314.5C 359.588,296.076 364.255,279.743 376,265.5C 394.504,247.415 416.338,241.915 441.5,249C 468.621,257.969 491.954,272.803 511.5,293.5 Z"/></g>
<g><path style="opacity:0.998" fill="#51a174" d="M 144.5,337.5 C 141.081,338.374 137.748,339.54 134.5,341C 130.64,343.516 129.64,346.849 131.5,351C 136.184,352.653 140.85,353.819 145.5,354.5C 142.756,372.75 132.756,385.25 115.5,392C 80.3753,403.744 47.3753,399.411 16.5,379C 10.303,373.969 4.63636,368.469 -0.5,362.5C -0.5,341.5 -0.5,320.5 -0.5,299.5C 30.7831,266.151 66.7831,260.317 107.5,282C 127.478,295.47 139.811,313.97 144.5,337.5 Z"/></g>
<g><path style="opacity:0.999" fill="#51a174" d="M 511.5,340.5 C 511.5,362.5 511.5,384.5 511.5,406.5C 500.167,465.167 465.167,500.167 406.5,511.5C 368.833,511.5 331.167,511.5 293.5,511.5C 277.437,503.2 264.27,491.533 254,476.5C 247.212,463.592 246.878,450.592 253,437.5C 264.237,424.42 278.404,419.253 295.5,422C 308.274,425.591 320.94,429.591 333.5,434C 364.787,441.271 387.954,430.771 403,402.5C 411.098,386.577 410.098,371.244 400,356.5C 389.652,344.479 381.318,331.146 375,316.5C 373.403,307.646 374.736,299.313 379,291.5C 391.276,278.957 406.276,272.623 424,272.5C 467.408,277.098 496.575,299.765 511.5,340.5 Z"/></g>
<g><path style="opacity:1" fill="#85c598" d="M 145.5,354.5 C 155.167,354.5 164.833,354.5 174.5,354.5C 166.71,388.458 146.044,410.291 112.5,420C 72.2786,431.135 34.612,425.635 -0.5,403.5C -0.5,389.833 -0.5,376.167 -0.5,362.5C 4.63636,368.469 10.303,373.969 16.5,379C 47.3753,399.411 80.3753,403.744 115.5,392C 132.756,385.25 142.756,372.75 145.5,354.5 Z"/></g>
</svg>
