<?xml version="1.0" encoding="UTF-8"?>
<!DOCTYPE svg PUBLIC "-//W3C//DTD SVG 1.1//EN" "http://www.w3.org/Graphics/SVG/1.1/DTD/svg11.dtd">
<svg xmlns="http://www.w3.org/2000/svg" version="1.1" width="180px" height="180px" style="shape-rendering:geometricPrecision; text-rendering:geometricPrecision; image-rendering:optimizeQuality; fill-rule:evenodd; clip-rule:evenodd" xmlns:xlink="http://www.w3.org/1999/xlink">
<g><path style="opacity:1" fill="#51a174" d="M -0.5,-0.5 C 29.1667,-0.5 58.8333,-0.5 88.5,-0.5C 84.4315,13.6646 82.4315,27.9979 82.5,42.5C 71.6599,37.785 61.3265,38.6183 51.5,45C 45.451,50.3947 43.951,56.8947 47,64.5C 53.3333,74.1667 59.6667,83.8333 66,93.5C 66.5193,100.791 64.0193,106.791 58.5,111.5C 53.1292,99.2938 44.4625,90.1271 32.5,84C 20.4033,80.6444 9.40326,82.8111 -0.5,90.5C -0.5,60.1667 -0.5,29.8333 -0.5,-0.5 Z"/></g>
<g><path style="opacity:1" fill="#83c497" d="M 88.5,-0.5 C 91.8333,-0.5 95.1667,-0.5 98.5,-0.5C 91.8205,14.1048 89.6538,29.4381 92,45.5C 94.6376,65.5544 102.971,68.5544 117,54.5C 130.64,38.5344 135.474,20.201 131.5,-0.5C 133.833,-0.5 136.167,-0.5 138.5,-0.5C 140.827,12.9624 139.327,25.9624 134,38.5C 130.311,45.6607 126.478,52.6607 122.5,59.5C 112.227,59.0992 106.56,64.0992 105.5,74.5C 101.781,74.9975 98.4473,74.1642 95.5,72C 92.4884,68.846 90.1551,65.346 88.5,61.5C 92.6418,53.1559 90.6418,46.8226 82.5,42.5C 82.4315,27.9979 84.4315,13.6646 88.5,-0.5 Z"/></g>
<g><path style="opacity:1" fill="#51a174" d="M 98.5,-0.5 C 109.5,-0.5 120.5,-0.5 131.5,-0.5C 135.474,20.201 130.64,38.5344 117,54.5C 102.971,68.5544 94.6376,65.5544 92,45.5C 89.6538,29.4381 91.8205,14.1048 98.5,-0.5 Z"/></g>
<g><path style="opacity:1" fill="#51a174" d="M 138.5,-0.5 C 152.167,-0.5 165.833,-0.5 179.5,-0.5C 179.5,33.8333 179.5,68.1667 179.5,102.5C 172.471,95.3145 164.138,90.1478 154.5,87C 138.447,84.3983 129.114,91.0649 126.5,107C 126.713,110.642 127.547,114.142 129,117.5C 131.516,122.01 134.016,126.51 136.5,131C 138.54,136.931 136.873,141.598 131.5,145C 126.184,147.433 120.85,147.933 115.5,146.5C 116.222,146.082 116.722,145.416 117,144.5C 116.716,129.172 116.216,113.839 115.5,98.5C 116.468,96.3926 116.802,94.0593 116.5,91.5C 119.059,91.8016 121.393,91.4682 123.5,90.5C 124.801,89.1155 124.801,87.6155 123.5,86C 121.19,85.5034 118.857,85.3367 116.5,85.5C 116.334,81.4862 116.501,77.4862 117,73.5C 117.564,69.8733 119.064,66.7066 121.5,64C 123.92,63.3131 126.087,63.8131 128,65.5C 128.203,69.4213 128.703,73.2546 129.5,77C 132.099,77.769 134.599,77.6023 137,76.5C 137.84,66.1629 133.006,60.4962 122.5,59.5C 126.478,52.6607 130.311,45.6607 134,38.5C 139.327,25.9624 140.827,12.9624 138.5,-0.5 Z"/></g>
<g><path style="opacity:1" fill="#e7efd1" d="M 82.5,42.5 C 90.6418,46.8226 92.6418,53.1559 88.5,61.5C 86.9317,62.4731 85.265,62.6397 83.5,62C 80.3841,57.7356 77.0508,53.7356 73.5,50C 67.1433,48.0241 63.81,50.3575 63.5,57C 64.7164,62.2656 66.8831,67.0989 70,71.5C 76.0417,77.8729 81.7084,84.5396 87,91.5C 92.4134,104.258 88.9134,113.758 76.5,120C 71.2667,122.025 65.9333,123.525 60.5,124.5C 57.1667,124.5 53.8333,124.5 50.5,124.5C 48.8828,123.962 47.2161,123.629 45.5,123.5C 45.5,120.167 47.1667,118.5 50.5,118.5C 53.7843,116.883 56.4509,114.55 58.5,111.5C 64.0193,106.791 66.5193,100.791 66,93.5C 59.6667,83.8333 53.3333,74.1667 47,64.5C 43.951,56.8947 45.451,50.3947 51.5,45C 61.3265,38.6183 71.6599,37.785 82.5,42.5 Z"/></g>
<g><path style="opacity:1" fill="#51a174" d="M 88.5,61.5 C 90.1551,65.346 92.4884,68.846 95.5,72C 98.4473,74.1642 101.781,74.9975 105.5,74.5C 105.568,79.3134 103.902,83.3134 100.5,86.5C 100.808,87.3081 101.308,87.9747 102,88.5C 102.137,104.198 102.804,119.864 104,135.5C 105.033,138.784 106.533,141.784 108.5,144.5C 108.265,145.097 107.765,145.43 107,145.5C 94.1648,140.332 84.4982,143.665 78,155.5C 76.5863,165.006 79.4196,173.006 86.5,179.5C 57.5,179.5 28.5,179.5 -0.5,179.5C -0.5,166.833 -0.5,154.167 -0.5,141.5C 14.1669,150.667 29.5002,151.834 45.5,145C 53.7957,140.574 58.7957,133.741 60.5,124.5C 65.9333,123.525 71.2667,122.025 76.5,120C 88.9134,113.758 92.4134,104.258 87,91.5C 81.7084,84.5396 76.0417,77.8729 70,71.5C 66.8831,67.0989 64.7164,62.2656 63.5,57C 63.81,50.3575 67.1433,48.0241 73.5,50C 77.0508,53.7356 80.3841,57.7356 83.5,62C 85.265,62.6397 86.9317,62.4731 88.5,61.5 Z"/></g>
<g><path style="opacity:1" fill="#e6efd0" d="M 122.5,59.5 C 133.006,60.4962 137.84,66.1629 137,76.5C 134.599,77.6023 132.099,77.769 129.5,77C 128.703,73.2546 128.203,69.4213 128,65.5C 126.087,63.8131 123.92,63.3131 121.5,64C 119.064,66.7066 117.564,69.8733 117,73.5C 116.501,77.4862 116.334,81.4862 116.5,85.5C 118.857,85.3367 121.19,85.5034 123.5,86C 124.801,87.6155 124.801,89.1155 123.5,90.5C 120.833,90.5 118.167,90.5 115.5,90.5C 115.5,93.1667 115.5,95.8333 115.5,98.5C 116.216,113.839 116.716,129.172 117,144.5C 116.722,145.416 116.222,146.082 115.5,146.5C 112.812,146.834 110.479,146.168 108.5,144.5C 106.533,141.784 105.033,138.784 104,135.5C 102.804,119.864 102.137,104.198 102,88.5C 101.308,87.9747 100.808,87.3081 100.5,86.5C 103.902,83.3134 105.568,79.3134 105.5,74.5C 106.56,64.0992 112.227,59.0992 122.5,59.5 Z"/></g>
<g><path style="opacity:1" fill="#84c598" d="M 58.5,111.5 C 56.4509,114.55 53.7843,116.883 50.5,118.5C 45.3947,100.43 33.3947,92.5971 14.5,95C 8.82871,97.1655 3.82871,100.332 -0.5,104.5C -0.5,99.8333 -0.5,95.1667 -0.5,90.5C 9.40326,82.8111 20.4033,80.6444 32.5,84C 44.4625,90.1271 53.1292,99.2938 58.5,111.5 Z"/></g>
<g><path style="opacity:1" fill="#83c497" d="M 179.5,102.5 C 179.5,107.833 179.5,113.167 179.5,118.5C 172.015,101.423 159.015,94.2559 140.5,97C 133.381,99.414 130.547,104.247 132,111.5C 133.901,116.302 136.568,120.636 140,124.5C 145.382,137.922 141.216,147.422 127.5,153C 125.167,153.667 122.833,153.667 120.5,153C 113.934,150.976 107.267,149.476 100.5,148.5C 88.2868,149.575 84.4534,155.908 89,167.5C 92.6449,172.555 97.1449,176.555 102.5,179.5C 97.1667,179.5 91.8333,179.5 86.5,179.5C 79.4196,173.006 76.5863,165.006 78,155.5C 84.4982,143.665 94.1648,140.332 107,145.5C 107.765,145.43 108.265,145.097 108.5,144.5C 110.479,146.168 112.812,146.834 115.5,146.5C 120.85,147.933 126.184,147.433 131.5,145C 136.873,141.598 138.54,136.931 136.5,131C 134.016,126.51 131.516,122.01 129,117.5C 127.547,114.142 126.713,110.642 126.5,107C 129.114,91.0649 138.447,84.3983 154.5,87C 164.138,90.1478 172.471,95.3145 179.5,102.5 Z"/></g>
<g><path style="opacity:1" fill="#a5cda8" d="M 123.5,90.5 C 121.393,91.4682 119.059,91.8016 116.5,91.5C 116.802,94.0593 116.468,96.3926 115.5,98.5C 115.5,95.8333 115.5,93.1667 115.5,90.5C 118.167,90.5 120.833,90.5 123.5,90.5 Z"/></g>
<g><path style="opacity:1" fill="#51a174" d="M 50.5,118.5 C 47.1667,118.5 45.5,120.167 45.5,123.5C 47.2161,123.629 48.8828,123.962 50.5,124.5C 50.0835,129.434 47.7502,133.267 43.5,136C 26.829,142.893 12.1623,140.059 -0.5,127.5C -0.5,119.833 -0.5,112.167 -0.5,104.5C 3.82871,100.332 8.82871,97.1655 14.5,95C 33.3947,92.5971 45.3947,100.43 50.5,118.5 Z"/></g>
<g><path style="opacity:1" fill="#51a174" d="M 179.5,118.5 C 179.5,138.833 179.5,159.167 179.5,179.5C 153.833,179.5 128.167,179.5 102.5,179.5C 97.1449,176.555 92.6449,172.555 89,167.5C 84.4534,155.908 88.2868,149.575 100.5,148.5C 107.267,149.476 113.934,150.976 120.5,153C 122.833,153.667 125.167,153.667 127.5,153C 141.216,147.422 145.382,137.922 140,124.5C 136.568,120.636 133.901,116.302 132,111.5C 130.547,104.247 133.381,99.414 140.5,97C 159.015,94.2559 172.015,101.423 179.5,118.5 Z"/></g>
<g><path style="opacity:1" fill="#83c598" d="M 50.5,124.5 C 53.8333,124.5 57.1667,124.5 60.5,124.5C 58.7957,133.741 53.7957,140.574 45.5,145C 29.5002,151.834 14.1669,150.667 -0.5,141.5C -0.5,136.833 -0.5,132.167 -0.5,127.5C 12.1623,140.059 26.829,142.893 43.5,136C 47.7502,133.267 50.0835,129.434 50.5,124.5 Z"/></g>
</svg>
