<?xml version="1.0" encoding="UTF-8"?>
<!DOCTYPE svg PUBLIC "-//W3C//DTD SVG 1.1//EN" "http://www.w3.org/Graphics/SVG/1.1/DTD/svg11.dtd">
<svg xmlns="http://www.w3.org/2000/svg" version="1.1" width="32px" height="32px" style="shape-rendering:geometricPrecision; text-rendering:geometricPrecision; image-rendering:optimizeQuality; fill-rule:evenodd; clip-rule:evenodd" xmlns:xlink="http://www.w3.org/1999/xlink">
<g><path style="opacity:0.972" fill="#53a175" d="M 2.5,-0.5 C 6.83333,-0.5 11.1667,-0.5 15.5,-0.5C 14.9346,1.95209 14.2679,4.28542 13.5,6.5C 6.54641,7.53701 5.71307,10.537 11,15.5C 11.7401,16.7494 11.5735,17.7494 10.5,18.5C 7.62018,14.6308 3.95352,13.6308 -0.5,15.5C -0.5,11.1667 -0.5,6.83333 -0.5,2.5C 0.833333,1.83333 1.83333,0.833333 2.5,-0.5 Z"/></g>
<g><path style="opacity:0.984" fill="#5aa77a" d="M 15.5,-0.5 C 19.8333,-0.5 24.1667,-0.5 28.5,-0.5C 29.1667,0.833333 30.1667,1.83333 31.5,2.5C 31.5,11.1667 31.5,19.8333 31.5,28.5C 30.1667,29.1667 29.1667,30.1667 28.5,31.5C 19.8333,31.5 11.1667,31.5 2.5,31.5C 1.83333,30.1667 0.833333,29.1667 -0.5,28.5C -0.5,24.1667 -0.5,19.8333 -0.5,15.5C 3.95352,13.6308 7.62018,14.6308 10.5,18.5C 9.94227,19.7899 8.94227,20.6232 7.5,21C 10.2569,21.782 12.7569,21.282 15,19.5C 15.6667,18.1667 15.6667,16.8333 15,15.5C 11.8501,13.8715 11.0168,11.5382 12.5,8.5C 13.1667,9.16667 13.8333,9.83333 14.5,10.5C 14.8333,10 15.1667,9.5 15.5,9C 14.9444,7.98894 14.2778,7.15561 13.5,6.5C 14.2679,4.28542 14.9346,1.95209 15.5,-0.5 Z"/></g>
<g><path style="opacity:1" fill="#dceaca" d="M 13.5,6.5 C 14.2778,7.15561 14.9444,7.98894 15.5,9C 15.1667,9.5 14.8333,10 14.5,10.5C 13.8333,9.83333 13.1667,9.16667 12.5,8.5C 11.0168,11.5382 11.8501,13.8715 15,15.5C 15.6667,16.8333 15.6667,18.1667 15,19.5C 12.7569,21.282 10.2569,21.782 7.5,21C 8.94227,20.6232 9.94227,19.7899 10.5,18.5C 11.5735,17.7494 11.7401,16.7494 11,15.5C 5.71307,10.537 6.54641,7.53701 13.5,6.5 Z"/></g>
<g><path style="opacity:1" fill="#cee3c2" d="M 19.5,9.5 C 21.6449,9.7377 23.3115,10.7377 24.5,12.5C 24.1667,12.8333 23.8333,13.1667 23.5,13.5C 22.8333,12.8333 22.1667,12.1667 21.5,11.5C 20.269,12.6507 20.269,13.8173 21.5,15C 20.8666,18.459 20.2,21.959 19.5,25.5C 18.0069,23.6364 17.3403,21.4697 17.5,19C 17.6551,15.7077 18.3218,12.541 19.5,9.5 Z"/></g>
</svg>
