<?xml version="1.0" encoding="UTF-8"?>
<!DOCTYPE svg PUBLIC "-//W3C//DTD SVG 1.1//EN" "http://www.w3.org/Graphics/SVG/1.1/DTD/svg11.dtd">
<svg xmlns="http://www.w3.org/2000/svg" version="1.1" width="16px" height="16px" style="shape-rendering:geometricPrecision; text-rendering:geometricPrecision; image-rendering:optimizeQuality; fill-rule:evenodd; clip-rule:evenodd" xmlns:xlink="http://www.w3.org/1999/xlink">
<g><path style="opacity:0.982" fill="#52a275" d="M 0.5,-0.5 C 2.83333,-0.5 5.16667,-0.5 7.5,-0.5C 6.85298,1.14054 5.85298,2.47387 4.5,3.5C 3.6457,4.63163 3.6457,5.96497 4.5,7.5C 2.76589,6.43795 1.09922,6.43795 -0.5,7.5C -0.5,5.16667 -0.5,2.83333 -0.5,0.5C 0.166667,0.5 0.5,0.166667 0.5,-0.5 Z"/></g>
<g><path style="opacity:1" fill="#64ac80" d="M 7.5,-0.5 C 9.16667,-0.5 10.8333,-0.5 12.5,-0.5C 12.3713,1.2161 12.038,2.88277 11.5,4.5C 9.97306,4.42702 8.97306,5.09368 8.5,6.5C 7.83333,6.5 7.5,6.83333 7.5,7.5C 6.14294,6.40974 5.14294,5.07641 4.5,3.5C 5.85298,2.47387 6.85298,1.14054 7.5,-0.5 Z"/></g>
<g><path style="opacity:0.906" fill="#51a174" d="M 12.5,-0.5 C 13.1667,-0.5 13.8333,-0.5 14.5,-0.5C 14.5,0.166667 14.8333,0.5 15.5,0.5C 15.5,3.16667 15.5,5.83333 15.5,8.5C 15.1667,8.5 14.8333,8.5 14.5,8.5C 13.8333,7.16667 12.8333,6.16667 11.5,5.5C 11.5,5.16667 11.5,4.83333 11.5,4.5C 12.038,2.88277 12.3713,1.2161 12.5,-0.5 Z"/></g>
<g><path style="opacity:1" fill="#a9cfaa" d="M 11.5,4.5 C 11.5,4.83333 11.5,5.16667 11.5,5.5C 11.2331,8.31212 10.2331,10.6455 8.5,12.5C 8.5,10.5 8.5,8.5 8.5,6.5C 8.97306,5.09368 9.97306,4.42702 11.5,4.5 Z"/></g>
<g><path style="opacity:1" fill="#66af82" d="M 11.5,5.5 C 12.8333,6.16667 13.8333,7.16667 14.5,8.5C 13.325,8.28099 12.325,8.61432 11.5,9.5C 12.6943,12.7949 11.361,14.2949 7.5,14C 8.05596,14.3826 8.38929,14.8826 8.5,15.5C 7.83333,15.5 7.16667,15.5 6.5,15.5C 6.28519,13.8212 6.95186,12.8212 8.5,12.5C 10.2331,10.6455 11.2331,8.31212 11.5,5.5 Z"/></g>
<g><path style="opacity:0.999" fill="#52a275" d="M -0.5,8.5 C 0.833333,8.5 2.16667,8.5 3.5,8.5C 3.5,9.5 3.5,10.5 3.5,11.5C 2.16667,11.5 0.833333,11.5 -0.5,11.5C -0.5,10.5 -0.5,9.5 -0.5,8.5 Z"/></g>
<g><path style="opacity:1" fill="#d8e7c8" d="M 4.5,3.5 C 5.14294,5.07641 6.14294,6.40974 7.5,7.5C 7.5,9.5 6.5,10.5 4.5,10.5C 5.62495,9.34775 5.62495,8.34775 4.5,7.5C 3.6457,5.96497 3.6457,4.63163 4.5,3.5 Z"/></g>
<g><path style="opacity:0.985" fill="#53a275" d="M 14.5,8.5 C 14.8333,8.5 15.1667,8.5 15.5,8.5C 15.5,10.5 15.5,12.5 15.5,14.5C 14.8333,14.5 14.5,14.8333 14.5,15.5C 12.5,15.5 10.5,15.5 8.5,15.5C 8.38929,14.8826 8.05596,14.3826 7.5,14C 11.361,14.2949 12.6943,12.7949 11.5,9.5C 12.325,8.61432 13.325,8.28099 14.5,8.5 Z"/></g>
<g><path style="opacity:0.944" fill="#53a276" d="M 8.5,6.5 C 8.5,8.5 8.5,10.5 8.5,12.5C 6.95186,12.8212 6.28519,13.8212 6.5,15.5C 4.5,15.5 2.5,15.5 0.5,15.5C 0.5,14.8333 0.166667,14.5 -0.5,14.5C -0.5,13.8333 -0.5,13.1667 -0.5,12.5C 1.78121,12.9227 3.44787,12.256 4.5,10.5C 6.5,10.5 7.5,9.5 7.5,7.5C 7.5,6.83333 7.83333,6.5 8.5,6.5 Z"/></g>
<g><path style="opacity:1" fill="#76ba8d" d="M 4.5,7.5 C 5.62495,8.34775 5.62495,9.34775 4.5,10.5C 3.44787,12.256 1.78121,12.9227 -0.5,12.5C -0.5,12.1667 -0.5,11.8333 -0.5,11.5C 0.833333,11.5 2.16667,11.5 3.5,11.5C 3.5,10.5 3.5,9.5 3.5,8.5C 2.16667,8.5 0.833333,8.5 -0.5,8.5C -0.5,8.16667 -0.5,7.83333 -0.5,7.5C 1.09922,6.43795 2.76589,6.43795 4.5,7.5 Z"/></g>
</svg>
