<?xml version="1.0" standalone="no"?>
<!DOCTYPE svg PUBLIC "-//W3C//DTD SVG 20010904//EN"
 "http://www.w3.org/TR/2001/REC-SVG-20010904/DTD/svg10.dtd">
<svg version="1.0" xmlns="http://www.w3.org/2000/svg"
 width="700.000000pt" height="700.000000pt" viewBox="0 0 700.000000 700.000000"
 preserveAspectRatio="xMidYMid meet">
<metadata>
Created by potrace 1.14, written by Peter Selinger 2001-2017
</metadata>
<g transform="translate(0.000000,700.000000) scale(0.100000,-0.100000)"
fill="#000000" stroke="none">
<path d="M1455 6989 c-52 -7 -154 -26 -234 -44 -41 -10 -174 -57 -229 -81 -29
-13 -55 -24 -57 -24 -2 0 -48 -25 -102 -56 -289 -167 -525 -418 -666 -708 -52
-109 -114 -288 -132 -386 -3 -14 -8 -38 -11 -55 -17 -88 -19 -363 -18 -2190 1
-1845 2 -1996 18 -2075 9 -47 20 -98 22 -113 22 -120 140 -390 230 -522 229
-340 578 -587 969 -684 44 -11 100 -23 125 -26 25 -4 63 -10 85 -15 54 -12
4013 -12 4085 0 30 6 73 12 95 16 210 30 489 147 680 284 135 96 306 273 398
410 154 232 230 434 277 735 9 61 8 4062 -2 4100 -2 11 -8 45 -12 75 -24 169
-110 403 -213 573 -225 376 -611 657 -1033 753 -192 43 -145 43 -2230 42
-1092 0 -2012 -4 -2045 -9z"/>
</g>
</svg>
